<?xml version="1.0" encoding="UTF-8" standalone="no"?>
<!DOCTYPE svg PUBLIC "-//W3C//DTD SVG 1.1//EN"
 "http://www.w3.org/Graphics/SVG/1.1/DTD/svg11.dtd">
<!-- Generated by graphviz version 2.30.1 (20150305.2338)
 -->
<!-- Title: DeviceComponent Pages: 1 -->
<!--zoomable 689 -->
<svg id="main" version="1.1" xmlns="http://www.w3.org/2000/svg" xmlns:xlink="http://www.w3.org/1999/xlink" xml:space="preserve" onload="init(evt)">
<style type="text/css"><![CDATA[
.edge:hover path { stroke: red; }
.edge:hover polygon { stroke: red; fill: red; }
]]></style>
<script type="text/javascript"><![CDATA[
var edges = document.getElementsByTagName('g');
if (edges && edges.length) {
  for (var i=0;i<edges.length;i++) {
    if (edges[i].id.substr(0,4)=='edge') {
      edges[i].setAttribute('class','edge');
    }
  }
}
]]></script>
        <defs>
                <circle id="rim" cx="0" cy="0" r="7"/>
                <circle id="rim2" cx="0" cy="0" r="3.5"/>
                <g id="zoomPlus">
                        <use xlink:href="#rim" fill="#404040">
                                <set attributeName="fill" to="#808080" begin="zoomplus.mouseover" end="zoomplus.mouseout"/>
                        </use>
                        <path d="M-4,0h8M0,-4v8" fill="none" stroke="white" stroke-width="1.5" pointer-events="none"/>
                </g>
                <g id="zoomMin">
                        <use xlink:href="#rim" fill="#404040">
                                <set attributeName="fill" to="#808080" begin="zoomminus.mouseover" end="zoomminus.mouseout"/>
                        </use>
                        <path d="M-4,0h8" fill="none" stroke="white" stroke-width="1.5" pointer-events="none"/>
                </g>
                <g id="dirArrow">
                        <path fill="none" stroke="white" stroke-width="1.5" d="M0,-3.0v7 M-2.5,-0.5L0,-3.0L2.5,-0.5"/>
                </g>
               <g id="resetDef">
                       <use xlink:href="#rim2" fill="#404040">
                               <set attributeName="fill" to="#808080" begin="reset.mouseover" end="reset.mouseout"/>
                       </use>
               </g>
        </defs>

<script type="text/javascript">
var viewWidth = 1708;
var viewHeight = 689;
var sectionId = 'dynsection-1';
</script>
<script xlink:href="svgpan.js"/>
<svg id="graph" class="graph">
<g id="viewport">
<title>DeviceComponent</title>
<!-- Node1 -->
<g id="node1" class="node"><title>Node1</title>
<polygon fill="#bfbfbf" stroke="black" points="1602,-253.5 1602,-272.5 1700,-272.5 1700,-253.5 1602,-253.5"/>
<text text-anchor="middle" x="1651" y="-260.5" font-family="Helvetica,sans-Serif" font-size="10.00">DeviceComponent</text>
</g>
<!-- Node2 -->
<g id="node2" class="node"><title>Node2</title>
<polygon fill="none" stroke="#bfbfbf" points="649,-611.5 649,-630.5 715,-630.5 715,-611.5 649,-611.5"/>
<text text-anchor="middle" x="682" y="-618.5" font-family="Helvetica,sans-Serif" font-size="10.00">GlobalType</text>
</g>
<!-- Node2&#45;&gt;Node1 -->
<g id="edge1" class="edge"><title>Node2&#45;&gt;Node1</title>
<path fill="none" stroke="midnightblue" d="M725.214,-623.254C894.448,-631.883 1517.85,-659.635 1584,-604 1636.61,-559.755 1647.86,-323.836 1649.69,-272.758"/>
<polygon fill="midnightblue" stroke="midnightblue" points="725.358,-619.756 715.191,-622.738 724.998,-626.747 725.358,-619.756"/>
</g>
<!-- Node7 -->
<g id="node7" class="node"><title>Node7</title>
<g id="a_node7"><a xlink:href="classICED_1_1HalfCell_1_1PhysicsModule.html" target="_top" xlink:title="Virtual class for physics modules. ">
<polygon fill="none" stroke="black" points="1122.5,-462.5 1122.5,-481.5 1205.5,-481.5 1205.5,-462.5 1122.5,-462.5"/>
<text text-anchor="middle" x="1164" y="-469.5" font-family="Helvetica,sans-Serif" font-size="10.00">PhysicsModule</text>
</a>
</g>
</g>
<!-- Node2&#45;&gt;Node7 -->
<g id="edge7" class="edge"><title>Node2&#45;&gt;Node7</title>
<path fill="none" stroke="midnightblue" d="M725.189,-613.449C767.338,-605.479 833.778,-591.76 890,-575 985.15,-546.635 1094.63,-501.327 1140.72,-481.647"/>
<polygon fill="midnightblue" stroke="midnightblue" points="724.464,-610.024 715.277,-615.301 725.75,-616.904 724.464,-610.024"/>
</g>
<!-- Node8 -->
<g id="node8" class="node"><title>Node8</title>
<g id="a_node8"><a xlink:href="classICED_1_1HalfCell_1_1SolutionData.html" target="_top" xlink:title="Class to hold the solution data for the electro&#45;chemical device solver. ">
<polygon fill="none" stroke="black" points="908.5,-395.5 908.5,-414.5 981.5,-414.5 981.5,-395.5 908.5,-395.5"/>
<text text-anchor="middle" x="945" y="-402.5" font-family="Helvetica,sans-Serif" font-size="10.00">SolutionData</text>
</a>
</g>
</g>
<!-- Node2&#45;&gt;Node8 -->
<g id="edge9" class="edge"><title>Node2&#45;&gt;Node8</title>
<path fill="none" stroke="midnightblue" d="M725.027,-612.94C734.254,-610.224 743.731,-606.656 752,-602 761.589,-596.602 760.749,-590.959 770,-585 818.43,-553.804 849.197,-576.668 890,-536 891.16,-534.844 927.773,-444.924 940.039,-414.748"/>
<polygon fill="midnightblue" stroke="midnightblue" points="723.942,-609.607 715.181,-615.564 725.745,-616.371 723.942,-609.607"/>
</g>
<!-- Node3 -->
<g id="node3" class="node"><title>Node3</title>
<polygon fill="none" stroke="#bfbfbf" points="633.5,-145.5 633.5,-164.5 730.5,-164.5 730.5,-145.5 633.5,-145.5"/>
<text text-anchor="middle" x="682" y="-152.5" font-family="Helvetica,sans-Serif" font-size="10.00">vector&lt; double * &gt;</text>
</g>
<!-- Node3&#45;&gt;Node1 -->
<g id="edge2" class="edge"><title>Node3&#45;&gt;Node1</title>
<path fill="none" stroke="#9a32cd" stroke-dasharray="5,2" d="M740.802,-151.515C793.674,-148.629 874.068,-145 944,-145 944,-145 944,-145 1383,-145 1476.62,-145 1501.81,-163.18 1584,-208 1606.52,-220.282 1628.57,-240.888 1640.62,-253.088"/>
<polygon fill="#9a32cd" stroke="#9a32cd" points="740.396,-148.032 730.605,-152.081 740.784,-155.021 740.396,-148.032"/>
<text text-anchor="middle" x="1164" y="-148" font-family="Helvetica,sans-Serif" font-size="10.00"> inputDataDouble</text>
</g>
<!-- Node3&#45;&gt;Node8 -->
<g id="edge10" class="edge"><title>Node3&#45;&gt;Node8</title>
<path fill="none" stroke="#9a32cd" stroke-dasharray="5,2" d="M740.783,-161.782C794.774,-169.342 869.979,-183.422 890,-205 923.695,-241.315 894.722,-267.274 908,-315 916.39,-345.156 931.592,-379.002 939.279,-395.257"/>
<polygon fill="#9a32cd" stroke="#9a32cd" points="741.01,-158.28 730.629,-160.401 740.066,-165.216 741.01,-158.28"/>
<text text-anchor="middle" x="830" y="-208" font-family="Helvetica,sans-Serif" font-size="10.00"> inputDataDouble</text>
</g>
<!-- Node4 -->
<g id="node4" class="node"><title>Node4</title>
<g id="a_node4"><a xlink:title="STL class. ">
<polygon fill="none" stroke="#bfbfbf" points="129,-425.5 129,-444.5 197,-444.5 197,-425.5 129,-425.5"/>
<text text-anchor="middle" x="163" y="-432.5" font-family="Helvetica,sans-Serif" font-size="10.00">vector&lt; T &gt;</text>
</a>
</g>
</g>
<!-- Node4&#45;&gt;Node3 -->
<g id="edge3" class="edge"><title>Node4&#45;&gt;Node3</title>
<path fill="none" stroke="orange" stroke-dasharray="5,2" d="M171.091,-415.902C181.859,-388.534 204.268,-337.449 234,-301 273.137,-253.021 285.632,-238.619 342,-213 439.03,-168.901 565.563,-158.101 633.283,-155.604"/>
<polygon fill="orange" stroke="orange" points="167.74,-414.866 167.428,-425.457 174.276,-417.372 167.74,-414.866"/>
<text text-anchor="middle" x="400" y="-216" font-family="Helvetica,sans-Serif" font-size="10.00"> &lt; double * &gt;</text>
</g>
<!-- Node9 -->
<g id="node9" class="node"><title>Node9</title>
<polygon fill="none" stroke="#bfbfbf" points="642.5,-183.5 642.5,-202.5 721.5,-202.5 721.5,-183.5 642.5,-183.5"/>
<text text-anchor="middle" x="682" y="-190.5" font-family="Helvetica,sans-Serif" font-size="10.00">vector&lt; int * &gt;</text>
</g>
<!-- Node4&#45;&gt;Node9 -->
<g id="edge12" class="edge"><title>Node4&#45;&gt;Node9</title>
<path fill="none" stroke="orange" stroke-dasharray="5,2" d="M181.345,-418.269C225.934,-376.391 349.929,-266.986 476,-219 531.155,-198.007 600.073,-193.257 642.293,-192.544"/>
<polygon fill="orange" stroke="orange" points="178.808,-415.851 173.961,-425.272 183.625,-420.93 178.808,-415.851"/>
<text text-anchor="middle" x="400" y="-292" font-family="Helvetica,sans-Serif" font-size="10.00"> &lt; int * &gt;</text>
</g>
<!-- Node11 -->
<g id="node11" class="node"><title>Node11</title>
<polygon fill="none" stroke="#bfbfbf" points="355,-365.5 355,-384.5 445,-384.5 445,-365.5 355,-365.5"/>
<text text-anchor="middle" x="400" y="-372.5" font-family="Helvetica,sans-Serif" font-size="10.00">vector&lt; double &gt;</text>
</g>
<!-- Node4&#45;&gt;Node11 -->
<g id="edge15" class="edge"><title>Node4&#45;&gt;Node11</title>
<path fill="none" stroke="orange" stroke-dasharray="5,2" d="M197.917,-421.855C209.282,-417.727 222.092,-413.373 234,-410 274.431,-398.548 321.38,-388.937 354.836,-382.702"/>
<polygon fill="orange" stroke="orange" points="196.523,-418.638 188.36,-425.393 198.953,-425.203 196.523,-418.638"/>
<text text-anchor="middle" x="279" y="-413" font-family="Helvetica,sans-Serif" font-size="10.00"> &lt; double &gt;</text>
</g>
<!-- Node10 -->
<g id="node10" class="node"><title>Node10</title>
<polygon fill="none" stroke="#bfbfbf" points="632.5,-477 632.5,-507 731.5,-507 731.5,-477 632.5,-477"/>
<text text-anchor="start" x="640.5" y="-495" font-family="Helvetica,sans-Serif" font-size="10.00">vector&lt; std::vector</text>
<text text-anchor="middle" x="682" y="-484" font-family="Helvetica,sans-Serif" font-size="10.00">&lt; double &gt; &gt;</text>
</g>
<!-- Node4&#45;&gt;Node10 -->
<g id="edge16" class="edge"><title>Node4&#45;&gt;Node10</title>
<path fill="none" stroke="orange" stroke-dasharray="5,2" d="M207.118,-445.472C215.98,-447.451 225.269,-449.399 234,-451 377.339,-477.285 549.781,-487.046 632.325,-490.399"/>
<polygon fill="orange" stroke="orange" points="207.875,-442.055 197.347,-443.243 206.318,-448.88 207.875,-442.055"/>
<text text-anchor="middle" x="400" y="-483" font-family="Helvetica,sans-Serif" font-size="10.00"> &lt; std::vector&lt; double &gt; &gt;</text>
</g>
<!-- Node12 -->
<g id="node12" class="node"><title>Node12</title>
<polygon fill="none" stroke="#bfbfbf" points="632.5,-428 632.5,-458 731.5,-458 731.5,-428 632.5,-428"/>
<text text-anchor="start" x="640.5" y="-446" font-family="Helvetica,sans-Serif" font-size="10.00">vector&lt; std::vector</text>
<text text-anchor="middle" x="682" y="-435" font-family="Helvetica,sans-Serif" font-size="10.00">&lt; double &gt; * &gt;</text>
</g>
<!-- Node4&#45;&gt;Node12 -->
<g id="edge19" class="edge"><title>Node4&#45;&gt;Node12</title>
<path fill="none" stroke="orange" stroke-dasharray="5,2" d="M207.306,-435.67C302.927,-437.15 531.562,-440.688 632.124,-442.244"/>
<polygon fill="orange" stroke="orange" points="207.18,-432.168 197.127,-435.513 207.072,-439.167 207.18,-432.168"/>
<text text-anchor="start" x="351.5" y="-454" font-family="Helvetica,sans-Serif" font-size="10.00"> &lt; std::vector&lt; double</text>
<text text-anchor="middle" x="400" y="-443" font-family="Helvetica,sans-Serif" font-size="10.00"> &gt; * &gt;</text>
</g>
<!-- Node13 -->
<g id="node13" class="node"><title>Node13</title>
<polygon fill="none" stroke="#bfbfbf" points="646,-573.5 646,-592.5 718,-592.5 718,-573.5 646,-573.5"/>
<text text-anchor="middle" x="682" y="-580.5" font-family="Helvetica,sans-Serif" font-size="10.00">vector&lt; int &gt;</text>
</g>
<!-- Node4&#45;&gt;Node13 -->
<g id="edge21" class="edge"><title>Node4&#45;&gt;Node13</title>
<path fill="none" stroke="orange" stroke-dasharray="5,2" d="M168.167,-454.784C175.611,-484.596 194.293,-540.186 234,-565 366.056,-647.526 565.452,-611.824 645.702,-592.465"/>
<polygon fill="orange" stroke="orange" points="171.507,-453.692 165.843,-444.738 164.687,-455.269 171.507,-453.692"/>
<text text-anchor="middle" x="400" y="-621" font-family="Helvetica,sans-Serif" font-size="10.00"> &lt; int &gt;</text>
</g>
<!-- Node14 -->
<g id="node14" class="node"><title>Node14</title>
<polygon fill="none" stroke="#bfbfbf" points="476.5,-523.5 476.5,-564.5 593.5,-564.5 593.5,-523.5 476.5,-523.5"/>
<text text-anchor="start" x="484.5" y="-552.5" font-family="Helvetica,sans-Serif" font-size="10.00">vector&lt; std::vector</text>
<text text-anchor="start" x="484.5" y="-541.5" font-family="Helvetica,sans-Serif" font-size="10.00">&lt; std::vector&lt; std::</text>
<text text-anchor="middle" x="535" y="-530.5" font-family="Helvetica,sans-Serif" font-size="10.00">vector&lt; double &gt; &gt; &gt; &gt;</text>
</g>
<!-- Node4&#45;&gt;Node14 -->
<g id="edge23" class="edge"><title>Node4&#45;&gt;Node14</title>
<path fill="none" stroke="orange" stroke-dasharray="5,2" d="M176.127,-453.258C188.506,-470.258 209.365,-494.761 234,-507 275.299,-527.518 401.287,-537.302 476.217,-541.421"/>
<polygon fill="orange" stroke="orange" points="178.75,-450.901 170.151,-444.711 173.013,-454.912 178.75,-450.901"/>
<text text-anchor="start" x="234.5" y="-553" font-family="Helvetica,sans-Serif" font-size="10.00"> &lt; std::vector&lt; std</text>
<text text-anchor="start" x="234.5" y="-542" font-family="Helvetica,sans-Serif" font-size="10.00">::vector&lt; std::vector</text>
<text text-anchor="middle" x="279" y="-531" font-family="Helvetica,sans-Serif" font-size="10.00">&lt; double &gt; &gt; &gt; &gt;</text>
</g>
<!-- Node15 -->
<g id="node15" class="node"><title>Node15</title>
<polygon fill="none" stroke="#bfbfbf" points="629.5,-77.5 629.5,-96.5 734.5,-96.5 734.5,-77.5 629.5,-77.5"/>
<text text-anchor="middle" x="682" y="-84.5" font-family="Helvetica,sans-Serif" font-size="10.00">vector&lt; std::string &gt;</text>
</g>
<!-- Node4&#45;&gt;Node15 -->
<g id="edge27" class="edge"><title>Node4&#45;&gt;Node15</title>
<path fill="none" stroke="orange" stroke-dasharray="5,2" d="M165.443,-414.92C169.399,-373.477 183.75,-277.388 234,-218 334.031,-99.7787 534.536,-85.1234 629.221,-85.2431"/>
<polygon fill="orange" stroke="orange" points="161.938,-414.824 164.581,-425.084 168.913,-415.416 161.938,-414.824"/>
<text text-anchor="middle" x="400" y="-141" font-family="Helvetica,sans-Serif" font-size="10.00"> &lt; std::string &gt;</text>
</g>
<!-- Node6 -->
<g id="node6" class="node"><title>Node6</title>
<polygon fill="none" stroke="#bfbfbf" points="1322.5,-566 1322.5,-596 1441.5,-596 1441.5,-566 1322.5,-566"/>
<text text-anchor="start" x="1330.5" y="-584" font-family="Helvetica,sans-Serif" font-size="10.00">vector&lt; ICED::HalfCell</text>
<text text-anchor="middle" x="1382" y="-573" font-family="Helvetica,sans-Serif" font-size="10.00">::PhysicsModule * &gt;</text>
</g>
<!-- Node4&#45;&gt;Node6 -->
<g id="edge30" class="edge"><title>Node4&#45;&gt;Node6</title>
<path fill="none" stroke="orange" stroke-dasharray="5,2" d="M167.236,-454.59C173.817,-488.415 191.868,-557.984 234,-598 290.69,-651.842 320.816,-659 399,-659 399,-659 399,-659 831,-659 1011.59,-659 1222.25,-617.269 1322.38,-594.855"/>
<polygon fill="orange" stroke="orange" points="170.65,-453.8 165.426,-444.583 163.762,-455.046 170.65,-453.8"/>
<text text-anchor="start" x="770" y="-673" font-family="Helvetica,sans-Serif" font-size="10.00"> &lt; ICED::HalfCell::Physics</text>
<text text-anchor="middle" x="830" y="-662" font-family="Helvetica,sans-Serif" font-size="10.00">Module * &gt;</text>
</g>
<!-- Node5 -->
<g id="node5" class="node"><title>Node5</title>
<polygon fill="none" stroke="#bfbfbf" points="0.5,-425.5 0.5,-444.5 29.5,-444.5 29.5,-425.5 0.5,-425.5"/>
<text text-anchor="middle" x="15" y="-432.5" font-family="Helvetica,sans-Serif" font-size="10.00">T</text>
</g>
<!-- Node5&#45;&gt;Node4 -->
<g id="edge4" class="edge"><title>Node5&#45;&gt;Node4</title>
<path fill="none" stroke="#9a32cd" stroke-dasharray="5,2" d="M39.8232,-435C64.033,-435 101.731,-435 128.85,-435"/>
<polygon fill="#9a32cd" stroke="#9a32cd" points="39.7354,-431.5 29.7353,-435 39.7353,-438.5 39.7354,-431.5"/>
<text text-anchor="middle" x="70" y="-438" font-family="Helvetica,sans-Serif" font-size="10.00"> elements</text>
</g>
<!-- Node6&#45;&gt;Node1 -->
<g id="edge5" class="edge"><title>Node6&#45;&gt;Node1</title>
<path fill="none" stroke="#9a32cd" stroke-dasharray="5,2" d="M1451.68,-588.912C1494.93,-589.946 1549,-583.396 1584,-551 1626.44,-511.71 1645.32,-318.175 1649.22,-272.617"/>
<polygon fill="#9a32cd" stroke="#9a32cd" points="1451.63,-585.407 1441.5,-588.526 1451.36,-592.402 1451.63,-585.407"/>
<text text-anchor="middle" x="1522" y="-592" font-family="Helvetica,sans-Serif" font-size="10.00"> componentPhysicsModules</text>
</g>
<!-- Node7&#45;&gt;Node6 -->
<g id="edge6" class="edge"><title>Node7&#45;&gt;Node6</title>
<path fill="none" stroke="#9a32cd" stroke-dasharray="5,2" d="M1193.29,-486.276C1234.11,-506.873 1309.19,-544.762 1350.96,-565.841"/>
<polygon fill="#9a32cd" stroke="#9a32cd" points="1194.67,-483.054 1184.17,-481.673 1191.52,-489.303 1194.67,-483.054"/>
<text text-anchor="middle" x="1271" y="-543" font-family="Helvetica,sans-Serif" font-size="10.00"> elements</text>
</g>
<!-- Node8&#45;&gt;Node7 -->
<g id="edge8" class="edge"><title>Node8&#45;&gt;Node7</title>
<path fill="none" stroke="#9a32cd" stroke-dasharray="5,2" d="M986.765,-417.586C1028.92,-430.601 1093.8,-450.635 1131.97,-462.418"/>
<polygon fill="#9a32cd" stroke="#9a32cd" points="987.678,-414.205 977.091,-414.599 985.613,-420.894 987.678,-414.205"/>
<text text-anchor="middle" x="1045" y="-452" font-family="Helvetica,sans-Serif" font-size="10.00"> pSolutionData</text>
</g>
<!-- Node8&#45;&gt;Node1 -->
<g id="edge32" class="edge"><title>Node8&#45;&gt;Node1</title>
<path fill="none" stroke="#9a32cd" stroke-dasharray="5,2" d="M991.567,-396.037C1096.27,-375.403 1362.09,-322.795 1584,-277 1590.88,-275.58 1598.16,-274.056 1605.28,-272.555"/>
<polygon fill="#9a32cd" stroke="#9a32cd" points="990.786,-392.624 981.651,-397.991 992.139,-399.492 990.786,-392.624"/>
<text text-anchor="middle" x="1271" y="-350" font-family="Helvetica,sans-Serif" font-size="10.00"> pSolutionData</text>
</g>
<!-- Node9&#45;&gt;Node8 -->
<g id="edge11" class="edge"><title>Node9&#45;&gt;Node8</title>
<path fill="none" stroke="#9a32cd" stroke-dasharray="5,2" d="M726.228,-205.405C783.318,-222.122 878.064,-251.149 890,-263 907.355,-280.231 899.456,-292.084 908,-315 918.994,-344.487 933.135,-378.918 939.96,-395.336"/>
<polygon fill="#9a32cd" stroke="#9a32cd" points="726.958,-201.973 716.378,-202.534 724.999,-208.693 726.958,-201.973"/>
<text text-anchor="middle" x="830" y="-266" font-family="Helvetica,sans-Serif" font-size="10.00"> inputDataInt</text>
</g>
<!-- Node9&#45;&gt;Node1 -->
<g id="edge31" class="edge"><title>Node9&#45;&gt;Node1</title>
<path fill="none" stroke="#9a32cd" stroke-dasharray="5,2" d="M731.92,-196.293C784.345,-199.534 870.018,-204 944,-204 944,-204 944,-204 1383,-204 1473.43,-204 1577.13,-236.671 1624.27,-253.389"/>
<polygon fill="#9a32cd" stroke="#9a32cd" points="732.091,-192.797 721.891,-195.663 731.652,-199.783 732.091,-192.797"/>
<text text-anchor="middle" x="1164" y="-207" font-family="Helvetica,sans-Serif" font-size="10.00"> inputDataInt</text>
</g>
<!-- Node10&#45;&gt;Node8 -->
<g id="edge13" class="edge"><title>Node10&#45;&gt;Node8</title>
<path fill="none" stroke="#9a32cd" stroke-dasharray="5,2" d="M741.068,-474.19C744.926,-472.043 748.617,-469.654 752,-467 763.347,-458.098 757.985,-447.977 770,-440 815.242,-409.964 836.822,-428.002 890,-417 895.925,-415.774 902.204,-414.425 908.304,-413.087"/>
<polygon fill="#9a32cd" stroke="#9a32cd" points="739.232,-471.194 731.829,-478.774 742.342,-477.465 739.232,-471.194"/>
<text text-anchor="middle" x="830" y="-454" font-family="Helvetica,sans-Serif" font-size="10.00"> function</text>
<text text-anchor="middle" x="830" y="-443" font-family="Helvetica,sans-Serif" font-size="10.00">solutionData</text>
</g>
<!-- Node11&#45;&gt;Node10 -->
<g id="edge14" class="edge"><title>Node11&#45;&gt;Node10</title>
<path fill="none" stroke="#9a32cd" stroke-dasharray="5,2" d="M431.126,-388.856C471.84,-407.416 546.843,-441.022 612,-467 620.403,-470.35 629.452,-473.765 638.143,-476.951"/>
<polygon fill="#9a32cd" stroke="#9a32cd" points="432.329,-385.558 421.779,-384.585 429.419,-391.924 432.329,-385.558"/>
<text text-anchor="middle" x="535" y="-461" font-family="Helvetica,sans-Serif" font-size="10.00"> elements</text>
</g>
<!-- Node11&#45;&gt;Node12 -->
<g id="edge18" class="edge"><title>Node11&#45;&gt;Node12</title>
<path fill="none" stroke="#9a32cd" stroke-dasharray="5,2" d="M443.424,-363.163C485.088,-354.143 548.804,-347.564 594,-376 609.478,-385.739 598.796,-400.348 612,-413 618.319,-419.055 626.057,-423.996 634.038,-427.99"/>
<polygon fill="#9a32cd" stroke="#9a32cd" points="442.55,-359.772 433.59,-365.426 444.12,-366.594 442.55,-359.772"/>
<text text-anchor="middle" x="535" y="-379" font-family="Helvetica,sans-Serif" font-size="10.00"> elements</text>
</g>
<!-- Node11&#45;&gt;Node8 -->
<g id="edge28" class="edge"><title>Node11&#45;&gt;Node8</title>
<path fill="none" stroke="#9a32cd" stroke-dasharray="5,2" d="M424.758,-360.268C481.582,-326.921 629.72,-251.179 752,-286 829.32,-308.018 905.927,-371.082 933.382,-395.335"/>
<polygon fill="#9a32cd" stroke="#9a32cd" points="422.927,-357.284 416.137,-365.416 426.517,-363.294 422.927,-357.284"/>
<text text-anchor="middle" x="682" y="-410" font-family="Helvetica,sans-Serif" font-size="10.00"> xCoords</text>
<text text-anchor="middle" x="682" y="-399" font-family="Helvetica,sans-Serif" font-size="10.00">activityCoefficientDer</text>
<text text-anchor="middle" x="682" y="-388" font-family="Helvetica,sans-Serif" font-size="10.00">activityCoefficients</text>
<text text-anchor="middle" x="682" y="-377" font-family="Helvetica,sans-Serif" font-size="10.00">transferenceNumberDerDer</text>
<text text-anchor="middle" x="682" y="-366" font-family="Helvetica,sans-Serif" font-size="10.00">concentrationDiffusionDerDer</text>
<text text-anchor="middle" x="682" y="-355" font-family="Helvetica,sans-Serif" font-size="10.00">activityCoefficientDerDer</text>
<text text-anchor="start" x="612.5" y="-344" font-family="Helvetica,sans-Serif" font-size="10.00">diffusionElectrolyteConductivity</text>
<text text-anchor="middle" x="682" y="-333" font-family="Helvetica,sans-Serif" font-size="10.00">Der</text>
<text text-anchor="middle" x="682" y="-322" font-family="Helvetica,sans-Serif" font-size="10.00">transferenceNumber</text>
<text text-anchor="middle" x="682" y="-311" font-family="Helvetica,sans-Serif" font-size="10.00">concentrationDiffusionDer</text>
<text text-anchor="middle" x="682" y="-300" font-family="Helvetica,sans-Serif" font-size="10.00">openCircuitPotentialVector</text>
<text text-anchor="middle" x="682" y="-289" font-family="Helvetica,sans-Serif" font-size="10.00">...</text>
</g>
<!-- Node11&#45;&gt;Node1 -->
<g id="edge36" class="edge"><title>Node11&#45;&gt;Node1</title>
<path fill="none" stroke="#9a32cd" stroke-dasharray="5,2" d="M414.549,-357.52C433.869,-332.817 467.901,-290.209 476,-286 518.568,-263.878 751.868,-263 944,-263 944,-263 944,-263 1383,-263 1459.48,-263 1548.29,-263 1601.77,-263"/>
<polygon fill="#9a32cd" stroke="#9a32cd" points="411.78,-355.379 408.395,-365.419 417.302,-359.681 411.78,-355.379"/>
<text text-anchor="middle" x="1045" y="-277" font-family="Helvetica,sans-Serif" font-size="10.00"> rightBCValue</text>
<text text-anchor="middle" x="1045" y="-266" font-family="Helvetica,sans-Serif" font-size="10.00">leftBCValue</text>
</g>
<!-- Node12&#45;&gt;Node8 -->
<g id="edge17" class="edge"><title>Node12&#45;&gt;Node8</title>
<path fill="none" stroke="#9a32cd" stroke-dasharray="5,2" d="M726.977,-423.86C747.302,-415.092 767.526,-406.512 770,-406 817.037,-396.273 872.767,-398.243 908.247,-401.132"/>
<polygon fill="#9a32cd" stroke="#9a32cd" points="725.484,-420.693 717.694,-427.874 728.262,-427.118 725.484,-420.693"/>
<text text-anchor="middle" x="830" y="-409" font-family="Helvetica,sans-Serif" font-size="10.00"> inputDataVector</text>
</g>
<!-- Node13&#45;&gt;Node8 -->
<g id="edge20" class="edge"><title>Node13&#45;&gt;Node8</title>
<path fill="none" stroke="#9a32cd" stroke-dasharray="5,2" d="M727.826,-573.856C736.677,-570.382 745.291,-565.594 752,-559 768.547,-542.737 752.316,-525.018 770,-510 811.392,-474.848 844.843,-517.163 890,-487 917.073,-468.916 933.807,-432.171 940.56,-414.677"/>
<polygon fill="#9a32cd" stroke="#9a32cd" points="726.543,-570.596 718.206,-577.135 728.801,-577.222 726.543,-570.596"/>
<text text-anchor="middle" x="830" y="-524" font-family="Helvetica,sans-Serif" font-size="10.00"> iFirstGlobalDevice</text>
<text text-anchor="middle" x="830" y="-513" font-family="Helvetica,sans-Serif" font-size="10.00">iLastGlobalDevice</text>
</g>
<!-- Node13&#45;&gt;Node1 -->
<g id="edge34" class="edge"><title>Node13&#45;&gt;Node1</title>
<path fill="none" stroke="#9a32cd" stroke-dasharray="5,2" d="M728.351,-580.042C862.385,-571.103 1250.67,-543.708 1304,-523 1459.15,-462.758 1604.84,-312.119 1641.3,-272.611"/>
<polygon fill="#9a32cd" stroke="#9a32cd" points="727.779,-576.573 718.032,-580.728 728.242,-583.557 727.779,-576.573"/>
<text text-anchor="middle" x="1164" y="-575" font-family="Helvetica,sans-Serif" font-size="10.00"> inputDataModulePriority</text>
<text text-anchor="middle" x="1164" y="-564" font-family="Helvetica,sans-Serif" font-size="10.00">rightBCType</text>
<text text-anchor="middle" x="1164" y="-553" font-family="Helvetica,sans-Serif" font-size="10.00">leftBCType</text>
</g>
<!-- Node14&#45;&gt;Node8 -->
<g id="edge22" class="edge"><title>Node14&#45;&gt;Node8</title>
<path fill="none" stroke="#9a32cd" stroke-dasharray="5,2" d="M604.105,-548.944C649.143,-549.059 707.808,-542.917 752,-516 764.003,-508.689 758.378,-497.904 770,-490 815.285,-459.202 842.496,-489.251 890,-462 910.81,-450.062 928.53,-427.597 937.572,-414.723"/>
<polygon fill="#9a32cd" stroke="#9a32cd" points="603.886,-545.441 593.841,-548.81 603.795,-552.44 603.886,-545.441"/>
<text text-anchor="middle" x="682" y="-552" font-family="Helvetica,sans-Serif" font-size="10.00"> jacobian</text>
</g>
<!-- Node15&#45;&gt;Node8 -->
<g id="edge24" class="edge"><title>Node15&#45;&gt;Node8</title>
<path fill="none" stroke="#9a32cd" stroke-dasharray="5,2" d="M744.727,-81.9065C791.681,-81.7116 854.138,-90.047 890,-130 917.591,-160.739 898.232,-274.866 908,-315 915.402,-345.413 931.052,-379.143 939.057,-395.314"/>
<polygon fill="#9a32cd" stroke="#9a32cd" points="744.597,-78.4081 734.658,-82.078 744.716,-85.4071 744.597,-78.4081"/>
<text text-anchor="middle" x="830" y="-155" font-family="Helvetica,sans-Serif" font-size="10.00"> inputDataIntString</text>
<text text-anchor="middle" x="830" y="-144" font-family="Helvetica,sans-Serif" font-size="10.00">inputDataVectorString</text>
<text text-anchor="middle" x="830" y="-133" font-family="Helvetica,sans-Serif" font-size="10.00">inputDataDoubleString</text>
</g>
<!-- Node15&#45;&gt;Node1 -->
<g id="edge35" class="edge"><title>Node15&#45;&gt;Node1</title>
<path fill="none" stroke="#9a32cd" stroke-dasharray="5,2" d="M745.092,-78.4356C797.888,-71.8964 875.768,-64 944,-64 944,-64 944,-64 1383,-64 1479.99,-64 1511.27,-84.8231 1584,-149 1618.29,-179.264 1639.29,-231.82 1646.83,-253.366"/>
<polygon fill="#9a32cd" stroke="#9a32cd" points="744.362,-74.9999 734.878,-79.7227 745.237,-81.945 744.362,-74.9999"/>
<text text-anchor="middle" x="1164" y="-100" font-family="Helvetica,sans-Serif" font-size="10.00"> inputDataBoundaryString</text>
<text text-anchor="middle" x="1164" y="-89" font-family="Helvetica,sans-Serif" font-size="10.00">inputDataModuleString</text>
<text text-anchor="middle" x="1164" y="-78" font-family="Helvetica,sans-Serif" font-size="10.00">inputDataIntString</text>
<text text-anchor="middle" x="1164" y="-67" font-family="Helvetica,sans-Serif" font-size="10.00">inputDataDoubleString</text>
</g>
<!-- Node16 -->
<g id="node16" class="node"><title>Node16</title>
<g id="a_node16"><a xlink:title="STL class. ">
<polygon fill="none" stroke="#bfbfbf" points="379.5,-28.5 379.5,-47.5 420.5,-47.5 420.5,-28.5 379.5,-28.5"/>
<text text-anchor="middle" x="400" y="-35.5" font-family="Helvetica,sans-Serif" font-size="10.00">string</text>
</a>
</g>
</g>
<!-- Node16&#45;&gt;Node15 -->
<g id="edge25" class="edge"><title>Node16&#45;&gt;Node15</title>
<path fill="none" stroke="#9a32cd" stroke-dasharray="5,2" d="M430.592,-43.1786C477.862,-51.4508 571.015,-67.7526 629.418,-77.9731"/>
<polygon fill="#9a32cd" stroke="#9a32cd" points="431.143,-39.7219 420.689,-41.4456 429.936,-46.6171 431.143,-39.7219"/>
<text text-anchor="middle" x="535" y="-75" font-family="Helvetica,sans-Serif" font-size="10.00"> elements</text>
</g>
<!-- Node16&#45;&gt;Node7 -->
<g id="edge29" class="edge"><title>Node16&#45;&gt;Node7</title>
<path fill="none" stroke="#9a32cd" stroke-dasharray="5,2" d="M430.95,-36.0558C525.254,-30.5066 814.286,-18.0368 890,-68 980.911,-127.992 939.051,-196.728 1000,-287 1049.58,-360.438 1125.55,-436.07 1152.82,-462.333"/>
<polygon fill="#9a32cd" stroke="#9a32cd" points="430.46,-32.579 420.69,-36.6781 430.883,-39.5662 430.46,-32.579"/>
<text text-anchor="middle" x="830" y="-71" font-family="Helvetica,sans-Serif" font-size="10.00"> moduleName</text>
</g>
<!-- Node16&#45;&gt;Node1 -->
<g id="edge33" class="edge"><title>Node16&#45;&gt;Node1</title>
<path fill="none" stroke="#9a32cd" stroke-dasharray="5,2" d="M430.533,-31.3204C481.397,-20.4179 588.944,-0 681,-0 681,-0 681,-0 1383,-0 1477.45,-0 1517.31,-2.12149 1584,-69 1637.76,-122.908 1647.76,-222.254 1649.59,-253.401"/>
<polygon fill="#9a32cd" stroke="#9a32cd" points="429.591,-27.9434 420.565,-33.4917 431.081,-34.783 429.591,-27.9434"/>
<text text-anchor="middle" x="1045" y="-14" font-family="Helvetica,sans-Serif" font-size="10.00"> componentInputFile</text>
<text text-anchor="middle" x="1045" y="-3" font-family="Helvetica,sans-Serif" font-size="10.00">componentName</text>
</g>
<!-- Node17 -->
<g id="node17" class="node"><title>Node17</title>
<g id="a_node17"><a xlink:title="STL class. ">
<polygon fill="none" stroke="#bfbfbf" points="110,-28.5 110,-47.5 216,-47.5 216,-28.5 110,-28.5"/>
<text text-anchor="middle" x="163" y="-35.5" font-family="Helvetica,sans-Serif" font-size="10.00">basic_string&lt; char &gt;</text>
</a>
</g>
</g>
<!-- Node17&#45;&gt;Node16 -->
<g id="edge26" class="edge"><title>Node17&#45;&gt;Node16</title>
<path fill="none" stroke="midnightblue" d="M226.405,-38C277.314,-38 346.06,-38 379.334,-38"/>
<polygon fill="midnightblue" stroke="midnightblue" points="226.154,-34.5001 216.154,-38 226.154,-41.5001 226.154,-34.5001"/>
</g>
</g>
</svg>
        <g id="navigator" transform="translate(0 0)" fill="#404254">
                <rect fill="#f2f5e9" fill-opacity="0.5" stroke="#606060" stroke-width=".5" x="0" y="0" width="60" height="60"/>
                <use id="zoomplus" xlink:href="#zoomPlus" x="17" y="9" onmousedown="handleZoom(evt,'in')"/>
                <use id="zoomminus" xlink:href="#zoomMin" x="42" y="9" onmousedown="handleZoom(evt,'out')"/>
                <use id="reset" xlink:href="#resetDef" x="30" y="36" onmousedown="handleReset()"/>
                <g id="arrowUp" xlink:href="#dirArrow" transform="translate(30 24)" onmousedown="handlePan(0,-1)">
                  <use xlink:href="#rim" fill="#404040">
                        <set attributeName="fill" to="#808080" begin="arrowUp.mouseover" end="arrowUp.mouseout"/>
                  </use>
                  <path fill="none" stroke="white" stroke-width="1.5" d="M0,-3.0v7 M-2.5,-0.5L0,-3.0L2.5,-0.5"/>
                </g>
                <g id="arrowRight" xlink:href="#dirArrow" transform="rotate(90) translate(36 -43)" onmousedown="handlePan(1,0)">
                  <use xlink:href="#rim" fill="#404040">
                        <set attributeName="fill" to="#808080" begin="arrowRight.mouseover" end="arrowRight.mouseout"/>
                  </use>
                  <path fill="none" stroke="white" stroke-width="1.5" d="M0,-3.0v7 M-2.5,-0.5L0,-3.0L2.5,-0.5"/>
                </g>
                <g id="arrowDown" xlink:href="#dirArrow" transform="rotate(180) translate(-30 -48)" onmousedown="handlePan(0,1)">
                  <use xlink:href="#rim" fill="#404040">
                        <set attributeName="fill" to="#808080" begin="arrowDown.mouseover" end="arrowDown.mouseout"/>
                  </use>
                  <path fill="none" stroke="white" stroke-width="1.5" d="M0,-3.0v7 M-2.5,-0.5L0,-3.0L2.5,-0.5"/>
                </g>
                <g id="arrowLeft" xlink:href="#dirArrow" transform="rotate(270) translate(-36 17)" onmousedown="handlePan(-1,0)">
                  <use xlink:href="#rim" fill="#404040">
                        <set attributeName="fill" to="#808080" begin="arrowLeft.mouseover" end="arrowLeft.mouseout"/>
                  </use>
                  <path fill="none" stroke="white" stroke-width="1.5" d="M0,-3.0v7 M-2.5,-0.5L0,-3.0L2.5,-0.5"/>
                </g>
        </g>
        <svg viewBox="0 0 15 15" width="100%" height="30px" preserveAspectRatio="xMaxYMin meet">
         <g id="arrow_out" transform="scale(0.3 0.3)">
          <a xlink:href="classICED_1_1HalfCell_1_1DeviceComponent__coll__graph_org.svg" target="_base">
           <rect id="button" ry="5" rx="5" y="6" x="6" height="38" width="38"
                fill="#f2f5e9" fill-opacity="0.5" stroke="#606060" stroke-width="1.0"/>
           <path id="arrow"
             d="M 11.500037,31.436501 C 11.940474,20.09759 22.043105,11.32322 32.158766,21.979434 L 37.068811,17.246167 C 37.068811,17.246167 37.088388,32 37.088388,32 L 22.160133,31.978069 C 22.160133,31.978069 26.997745,27.140456 26.997745,27.140456 C 18.528582,18.264221 13.291696,25.230495 11.500037,31.436501 z"
             style="fill:#404040;"/>
          </a>
         </g>
        </svg>
</svg>
