<?xml version="1.0" encoding="UTF-8" standalone="no"?>
<!DOCTYPE svg PUBLIC "-//W3C//DTD SVG 1.1//EN"
 "http://www.w3.org/Graphics/SVG/1.1/DTD/svg11.dtd">
<!-- Generated by graphviz version 2.30.1 (20150305.2338)
 -->
<!-- Title: Epilogue Pages: 1 -->
<svg width="340pt" height="94pt"
 viewBox="0.00 0.00 340.00 94.00" xmlns="http://www.w3.org/2000/svg" xmlns:xlink="http://www.w3.org/1999/xlink">
<g id="graph0" class="graph" transform="scale(1 1) rotate(0) translate(4 90)">
<title>Epilogue</title>
<!-- Node1 -->
<g id="node1" class="node"><title>Node1</title>
<polygon fill="#bfbfbf" stroke="black" points="0,-28.5 0,-47.5 54,-47.5 54,-28.5 0,-28.5"/>
<text text-anchor="middle" x="27" y="-35.5" font-family="Helvetica,sans-Serif" font-size="10.00">Epilogue</text>
</g>
<!-- Node2 -->
<g id="node2" class="node"><title>Node2</title>
<g id="a_node2"><a xlink:href="classICED_1_1TestingObject.html#a046f7ab06db0acf616b0d2bf3d3146aa" target="_top" xlink:title="Runs all tests implemented by the ICED::TestingObject. ">
<polygon fill="none" stroke="black" points="90.5,-66.5 90.5,-85.5 143.5,-85.5 143.5,-66.5 90.5,-66.5"/>
<text text-anchor="middle" x="117" y="-73.5" font-family="Helvetica,sans-Serif" font-size="10.00">Process</text>
</a>
</g>
</g>
<!-- Node1&#45;&gt;Node2 -->
<g id="edge1" class="edge"><title>Node1&#45;&gt;Node2</title>
<path fill="none" stroke="midnightblue" d="M59.399,-51.5587C70.7758,-56.4714 83.38,-61.9141 93.801,-66.4141"/>
<polygon fill="midnightblue" stroke="midnightblue" points="60.7743,-48.3402 50.2061,-47.589 57.9992,-54.7666 60.7743,-48.3402"/>
</g>
<!-- Node5 -->
<g id="node5" class="node"><title>Node5</title>
<g id="a_node5"><a xlink:href="classICED_1_1TestingObject.html#a21159bd2efac623e5a5079f6a20f3444" target="_top" xlink:title="Runs a list of tests specified by name. ">
<polygon fill="none" stroke="black" points="180.5,-0.5 180.5,-19.5 257.5,-19.5 257.5,-0.5 180.5,-0.5"/>
<text text-anchor="middle" x="219" y="-7.5" font-family="Helvetica,sans-Serif" font-size="10.00">ProcessTests</text>
</a>
</g>
</g>
<!-- Node1&#45;&gt;Node5 -->
<g id="edge4" class="edge"><title>Node1&#45;&gt;Node5</title>
<path fill="none" stroke="midnightblue" d="M63.8415,-25.5075C72.3263,-22.9725 81.4082,-20.597 90,-19 120.115,-13.4022 154.806,-11.2213 180.47,-10.4017"/>
<polygon fill="midnightblue" stroke="midnightblue" points="62.7181,-22.1916 54.2205,-28.5195 64.8095,-28.8719 62.7181,-22.1916"/>
</g>
<!-- Node6 -->
<g id="node6" class="node"><title>Node6</title>
<g id="a_node6"><a xlink:href="classICED_1_1TestingObject.html#af1f07f14b9af7708e4264bb38937eed2" target="_top" xlink:title="Runs a test specified by name. ">
<polygon fill="none" stroke="black" points="90,-28.5 90,-47.5 144,-47.5 144,-28.5 90,-28.5"/>
<text text-anchor="middle" x="117" y="-35.5" font-family="Helvetica,sans-Serif" font-size="10.00">RunTest</text>
</a>
</g>
</g>
<!-- Node1&#45;&gt;Node6 -->
<g id="edge5" class="edge"><title>Node1&#45;&gt;Node6</title>
<path fill="none" stroke="midnightblue" d="M64.5196,-38C73.0438,-38 81.9538,-38 89.919,-38"/>
<polygon fill="midnightblue" stroke="midnightblue" points="64.4029,-34.5001 54.4029,-38 64.4029,-41.5001 64.4029,-34.5001"/>
</g>
<!-- Node3 -->
<g id="node3" class="node"><title>Node3</title>
<g id="a_node3"><a xlink:href="namespaceICED.html#acf52cefdb153ca8751acb1e183d3a405" target="_top" xlink:title="Drives the ICED::TestObject. ">
<polygon fill="none" stroke="black" points="185.5,-47.5 185.5,-66.5 252.5,-66.5 252.5,-47.5 185.5,-47.5"/>
<text text-anchor="middle" x="219" y="-54.5" font-family="Helvetica,sans-Serif" font-size="10.00">ICED::Test</text>
</a>
</g>
</g>
<!-- Node2&#45;&gt;Node3 -->
<g id="edge2" class="edge"><title>Node2&#45;&gt;Node3</title>
<path fill="none" stroke="midnightblue" d="M153.652,-69.2262C163.917,-67.2758 175.063,-65.158 185.15,-63.2415"/>
<polygon fill="midnightblue" stroke="midnightblue" points="152.923,-65.8019 143.752,-71.107 154.23,-72.6788 152.923,-65.8019"/>
</g>
<!-- Node4 -->
<g id="node4" class="node"><title>Node4</title>
<g id="a_node4"><a xlink:href="TestICED_8C.html#a0ddf1224851353fc92bfbff6f499fa97" target="_top" xlink:title="main">
<polygon fill="none" stroke="black" points="294,-47.5 294,-66.5 332,-66.5 332,-47.5 294,-47.5"/>
<text text-anchor="middle" x="313" y="-54.5" font-family="Helvetica,sans-Serif" font-size="10.00">main</text>
</a>
</g>
</g>
<!-- Node3&#45;&gt;Node4 -->
<g id="edge3" class="edge"><title>Node3&#45;&gt;Node4</title>
<path fill="none" stroke="midnightblue" d="M262.981,-57C273.865,-57 284.976,-57 293.862,-57"/>
<polygon fill="midnightblue" stroke="midnightblue" points="262.695,-53.5001 252.695,-57 262.695,-60.5001 262.695,-53.5001"/>
</g>
<!-- Node6&#45;&gt;Node5 -->
<g id="edge6" class="edge"><title>Node6&#45;&gt;Node5</title>
<path fill="none" stroke="midnightblue" d="M153.836,-27.9658C163.603,-25.2311 174.156,-22.2764 183.827,-19.5684"/>
<polygon fill="midnightblue" stroke="midnightblue" points="152.699,-24.6497 144.013,-30.7164 154.586,-31.3904 152.699,-24.6497"/>
</g>
<!-- Node6&#45;&gt;Node3 -->
<g id="edge7" class="edge"><title>Node6&#45;&gt;Node3</title>
<path fill="none" stroke="midnightblue" d="M153.904,-44.8217C164.153,-46.7691 175.263,-48.88 185.309,-50.7888"/>
<polygon fill="midnightblue" stroke="midnightblue" points="154.49,-41.3706 144.013,-42.9424 153.184,-48.2476 154.49,-41.3706"/>
</g>
</g>
</svg>
