<?xml version="1.0" encoding="UTF-8" standalone="no"?>
<!DOCTYPE svg PUBLIC "-//W3C//DTD SVG 1.1//EN"
 "http://www.w3.org/Graphics/SVG/1.1/DTD/svg11.dtd">
<!-- Generated by graphviz version 2.30.1 (20150305.2338)
 -->
<!-- Title: SetupGlobalData Pages: 1 -->
<!--zoomable 761 -->
<svg id="main" version="1.1" xmlns="http://www.w3.org/2000/svg" xmlns:xlink="http://www.w3.org/1999/xlink" xml:space="preserve" onload="init(evt)">
<style type="text/css"><![CDATA[
.edge:hover path { stroke: red; }
.edge:hover polygon { stroke: red; fill: red; }
]]></style>
<script type="text/javascript"><![CDATA[
var edges = document.getElementsByTagName('g');
if (edges && edges.length) {
  for (var i=0;i<edges.length;i++) {
    if (edges[i].id.substr(0,4)=='edge') {
      edges[i].setAttribute('class','edge');
    }
  }
}
]]></script>
        <defs>
                <circle id="rim" cx="0" cy="0" r="7"/>
                <circle id="rim2" cx="0" cy="0" r="3.5"/>
                <g id="zoomPlus">
                        <use xlink:href="#rim" fill="#404040">
                                <set attributeName="fill" to="#808080" begin="zoomplus.mouseover" end="zoomplus.mouseout"/>
                        </use>
                        <path d="M-4,0h8M0,-4v8" fill="none" stroke="white" stroke-width="1.5" pointer-events="none"/>
                </g>
                <g id="zoomMin">
                        <use xlink:href="#rim" fill="#404040">
                                <set attributeName="fill" to="#808080" begin="zoomminus.mouseover" end="zoomminus.mouseout"/>
                        </use>
                        <path d="M-4,0h8" fill="none" stroke="white" stroke-width="1.5" pointer-events="none"/>
                </g>
                <g id="dirArrow">
                        <path fill="none" stroke="white" stroke-width="1.5" d="M0,-3.0v7 M-2.5,-0.5L0,-3.0L2.5,-0.5"/>
                </g>
               <g id="resetDef">
                       <use xlink:href="#rim2" fill="#404040">
                               <set attributeName="fill" to="#808080" begin="reset.mouseover" end="reset.mouseout"/>
                       </use>
               </g>
        </defs>

<script type="text/javascript">
var viewWidth = 970;
var viewHeight = 761;
var sectionId = 'dynsection-1';
</script>
<script xlink:href="svgpan.js"/>
<svg id="graph" class="graph">
<g id="viewport">
<title>SetupGlobalData</title>
<!-- Node1 -->
<g id="node1" class="node"><title>Node1</title>
<polygon fill="#bfbfbf" stroke="black" points="0.5,-367.5 0.5,-386.5 91.5,-386.5 91.5,-367.5 0.5,-367.5"/>
<text text-anchor="middle" x="46" y="-374.5" font-family="Helvetica,sans-Serif" font-size="10.00">SetupGlobalData</text>
</g>
<!-- Node2 -->
<g id="node2" class="node"><title>Node2</title>
<g id="a_node2"><a xlink:href="classICED_1_1HalfCell_1_1DeviceData_ac62391584f55efe6bd7916ebf7d2e92b.html#ac62391584f55efe6bd7916ebf7d2e92b" target="_top" xlink:title="Initialization of the entire device data structure. ">
<polygon fill="none" stroke="black" points="128.5,-367.5 128.5,-386.5 197.5,-386.5 197.5,-367.5 128.5,-367.5"/>
<text text-anchor="middle" x="163" y="-374.5" font-family="Helvetica,sans-Serif" font-size="10.00">BuildDevice</text>
</a>
</g>
</g>
<!-- Node1&#45;&gt;Node2 -->
<g id="edge1" class="edge"><title>Node1&#45;&gt;Node2</title>
<path fill="none" stroke="midnightblue" d="M101.855,-377C110.842,-377 119.916,-377 128.196,-377"/>
<polygon fill="midnightblue" stroke="midnightblue" points="101.791,-373.5 91.7913,-377 101.791,-380.5 101.791,-373.5"/>
</g>
<!-- Node3 -->
<g id="node3" class="node"><title>Node3</title>
<g id="a_node3"><a xlink:href="classICED_1_1TestingObject_a7995a39337d2ec045b02982b1b346b28.html#a7995a39337d2ec045b02982b1b346b28" target="_top" xlink:title="Function called by Test__Intercalation. ">
<polygon fill="none" stroke="black" points="240.5,-425 240.5,-455 365.5,-455 365.5,-425 240.5,-425"/>
<text text-anchor="start" x="248.5" y="-443" font-family="Helvetica,sans-Serif" font-size="10.00">ICED::TestingObject</text>
<text text-anchor="middle" x="303" y="-432" font-family="Helvetica,sans-Serif" font-size="10.00">::RunIntercalationModule</text>
</a>
</g>
</g>
<!-- Node2&#45;&gt;Node3 -->
<g id="edge2" class="edge"><title>Node2&#45;&gt;Node3</title>
<path fill="none" stroke="midnightblue" d="M192.953,-390.848C205.533,-396.813 220.461,-403.823 234,-410 244.8,-414.927 256.62,-420.188 267.332,-424.905"/>
<polygon fill="midnightblue" stroke="midnightblue" points="194.386,-387.654 183.852,-386.521 191.381,-393.976 194.386,-387.654"/>
</g>
<!-- Node10 -->
<g id="node10" class="node"><title>Node10</title>
<g id="a_node10"><a xlink:href="classICED_1_1TestingObject_aea517fa85afb367c872ce72c26a0d643.html#aea517fa85afb367c872ce72c26a0d643" target="_top" xlink:title="Test for ICED::ActivitCoefficient module. ">
<polygon fill="none" stroke="black" points="437.5,-392 437.5,-422 570.5,-422 570.5,-392 437.5,-392"/>
<text text-anchor="start" x="445.5" y="-410" font-family="Helvetica,sans-Serif" font-size="10.00">ICED::TestingObject</text>
<text text-anchor="middle" x="504" y="-399" font-family="Helvetica,sans-Serif" font-size="10.00">::Test__ActivityCoefficient</text>
</a>
</g>
</g>
<!-- Node2&#45;&gt;Node10 -->
<g id="edge10" class="edge"><title>Node2&#45;&gt;Node10</title>
<path fill="none" stroke="midnightblue" d="M207.731,-380.87C265.998,-386.026 369.591,-395.194 437.283,-401.184"/>
<polygon fill="midnightblue" stroke="midnightblue" points="208.014,-377.381 197.744,-379.986 207.396,-384.354 208.014,-377.381"/>
</g>
<!-- Node11 -->
<g id="node11" class="node"><title>Node11</title>
<g id="a_node11"><a xlink:href="classICED_1_1TestingObject_a2f898efd73e9aaf601f0733cb31fc340.html#a2f898efd73e9aaf601f0733cb31fc340" target="_top" xlink:title="Test for ICED::ButlerVolmer. ">
<polygon fill="none" stroke="black" points="449.5,-343 449.5,-373 558.5,-373 558.5,-343 449.5,-343"/>
<text text-anchor="start" x="457.5" y="-361" font-family="Helvetica,sans-Serif" font-size="10.00">ICED::TestingObject</text>
<text text-anchor="middle" x="504" y="-350" font-family="Helvetica,sans-Serif" font-size="10.00">::Test__ButlerVolmer</text>
</a>
</g>
</g>
<!-- Node2&#45;&gt;Node11 -->
<g id="edge13" class="edge"><title>Node2&#45;&gt;Node11</title>
<path fill="none" stroke="midnightblue" d="M207.964,-374.536C269.903,-371.064 382.73,-364.741 449.472,-361"/>
<polygon fill="midnightblue" stroke="midnightblue" points="207.532,-371.055 197.744,-375.109 207.924,-378.044 207.532,-371.055"/>
</g>
<!-- Node12 -->
<g id="node12" class="node"><title>Node12</title>
<g id="a_node12"><a xlink:href="classICED_1_1TestingObject_a7bac98c894f8cfff372d495eae083cd5.html#a7bac98c894f8cfff372d495eae083cd5" target="_top" xlink:title="Tests the input file error checking functions using testModule and a generated &quot;bad&quot; input file...">
<polygon fill="none" stroke="black" points="237,-718 237,-748 369,-748 369,-718 237,-718"/>
<text text-anchor="start" x="245" y="-736" font-family="Helvetica,sans-Serif" font-size="10.00">ICED::TestingObject</text>
<text text-anchor="middle" x="303" y="-725" font-family="Helvetica,sans-Serif" font-size="10.00">::Test__CheckParamsBad</text>
</a>
</g>
</g>
<!-- Node2&#45;&gt;Node12 -->
<g id="edge16" class="edge"><title>Node2&#45;&gt;Node12</title>
<path fill="none" stroke="midnightblue" d="M163.633,-396.817C163.615,-449.057 169.79,-592.955 234,-687 242.84,-699.948 256.639,-710.262 269.502,-717.815"/>
<polygon fill="midnightblue" stroke="midnightblue" points="167.135,-396.629 163.721,-386.599 160.135,-396.568 167.135,-396.629"/>
</g>
<!-- Node13 -->
<g id="node13" class="node"><title>Node13</title>
<g id="a_node13"><a xlink:href="classICED_1_1TestingObject_afedc7e682315a3e766d614e09631ab04.html#afedc7e682315a3e766d614e09631ab04" target="_top" xlink:title="Tests the input file error checking functions using testModule and a generated &quot;good&quot; input file...">
<polygon fill="none" stroke="black" points="234,-648 234,-678 372,-678 372,-648 234,-648"/>
<text text-anchor="start" x="242" y="-666" font-family="Helvetica,sans-Serif" font-size="10.00">ICED::TestingObject</text>
<text text-anchor="middle" x="303" y="-655" font-family="Helvetica,sans-Serif" font-size="10.00">::Test__CheckParamsGood</text>
</a>
</g>
</g>
<!-- Node2&#45;&gt;Node13 -->
<g id="edge18" class="edge"><title>Node2&#45;&gt;Node13</title>
<path fill="none" stroke="midnightblue" d="M164.841,-396.593C167.683,-441.129 180.082,-551.552 234,-622 242.295,-632.838 254.343,-641.425 266.002,-647.881"/>
<polygon fill="midnightblue" stroke="midnightblue" points="168.332,-396.326 164.295,-386.53 161.342,-396.705 168.332,-396.326"/>
</g>
<!-- Node14 -->
<g id="node14" class="node"><title>Node14</title>
<g id="a_node14"><a xlink:href="classICED_1_1TestingObject_a8218a8aab213585d0fba3f2e1aa24b76.html#a8218a8aab213585d0fba3f2e1aa24b76" target="_top" xlink:title="Test for ICED::ComponentBoundaryConditions. ">
<polygon fill="none" stroke="black" points="408.5,-196 408.5,-226 599.5,-226 599.5,-196 408.5,-196"/>
<text text-anchor="start" x="416.5" y="-214" font-family="Helvetica,sans-Serif" font-size="10.00">ICED::TestingObject</text>
<text text-anchor="middle" x="504" y="-203" font-family="Helvetica,sans-Serif" font-size="10.00">::Test__ComponentBoundaryConditions</text>
</a>
</g>
</g>
<!-- Node2&#45;&gt;Node14 -->
<g id="edge20" class="edge"><title>Node2&#45;&gt;Node14</title>
<path fill="none" stroke="midnightblue" d="M173.057,-358.285C184.37,-336.89 205.729,-302.339 234,-283 285.574,-247.721 353.641,-229.712 408.399,-220.528"/>
<polygon fill="midnightblue" stroke="midnightblue" points="169.862,-356.847 168.451,-367.348 176.102,-360.019 169.862,-356.847"/>
</g>
<!-- Node15 -->
<g id="node15" class="node"><title>Node15</title>
<g id="a_node15"><a xlink:href="classICED_1_1TestingObject_a96409144efe94cf3e37a534e524c6e36.html#a96409144efe94cf3e37a534e524c6e36" target="_top" xlink:title="Test for ICED::ConcentrationDiffusion. ">
<polygon fill="none" stroke="black" points="428,-147 428,-177 580,-177 580,-147 428,-147"/>
<text text-anchor="start" x="436" y="-165" font-family="Helvetica,sans-Serif" font-size="10.00">ICED::TestingObject</text>
<text text-anchor="middle" x="504" y="-154" font-family="Helvetica,sans-Serif" font-size="10.00">::Test__ConcentrationDiffusion</text>
</a>
</g>
</g>
<!-- Node2&#45;&gt;Node15 -->
<g id="edge23" class="edge"><title>Node2&#45;&gt;Node15</title>
<path fill="none" stroke="midnightblue" d="M167.401,-357.434C174.103,-324.973 192.17,-260.184 234,-226 288.642,-181.346 369.228,-166.872 427.946,-162.641"/>
<polygon fill="midnightblue" stroke="midnightblue" points="163.923,-356.985 165.483,-367.464 170.799,-358.299 163.923,-356.985"/>
</g>
<!-- Node16 -->
<g id="node16" class="node"><title>Node16</title>
<g id="a_node16"><a xlink:href="classICED_1_1TestingObject_a20a3def5cfb0861690599ae120367987.html#a20a3def5cfb0861690599ae120367987" target="_top" xlink:title="Test for ICED::DeviceData. ">
<polygon fill="none" stroke="black" points="450,-98 450,-128 558,-128 558,-98 450,-98"/>
<text text-anchor="start" x="458" y="-116" font-family="Helvetica,sans-Serif" font-size="10.00">ICED::TestingObject</text>
<text text-anchor="middle" x="504" y="-105" font-family="Helvetica,sans-Serif" font-size="10.00">::Test__DeviceData</text>
</a>
</g>
</g>
<!-- Node2&#45;&gt;Node16 -->
<g id="edge26" class="edge"><title>Node2&#45;&gt;Node16</title>
<path fill="none" stroke="midnightblue" d="M164.328,-357.107C166.165,-314.979 176.715,-216.497 234,-166 293.72,-113.357 390.224,-106.878 449.958,-108.712"/>
<polygon fill="midnightblue" stroke="midnightblue" points="160.826,-357.089 164.013,-367.193 167.823,-357.307 160.826,-357.089"/>
</g>
<!-- Node17 -->
<g id="node17" class="node"><title>Node17</title>
<g id="a_node17"><a xlink:href="classICED_1_1TestingObject_a43dbcae20e4ab6f8b30751e9b5e5b2c2.html#a43dbcae20e4ab6f8b30751e9b5e5b2c2" target="_top" xlink:title="Test for ICED::DeviceDataMapping. ">
<polygon fill="none" stroke="black" points="433.5,-49 433.5,-79 574.5,-79 574.5,-49 433.5,-49"/>
<text text-anchor="start" x="441.5" y="-67" font-family="Helvetica,sans-Serif" font-size="10.00">ICED::TestingObject</text>
<text text-anchor="middle" x="504" y="-56" font-family="Helvetica,sans-Serif" font-size="10.00">::Test__DeviceDataMapping</text>
</a>
</g>
</g>
<!-- Node2&#45;&gt;Node17 -->
<g id="edge29" class="edge"><title>Node2&#45;&gt;Node17</title>
<path fill="none" stroke="midnightblue" d="M166.355,-357.474C173.496,-301.629 196.725,-143.072 234,-109 287.473,-60.1221 373.114,-53.5949 433.372,-56.2549"/>
<polygon fill="midnightblue" stroke="midnightblue" points="162.872,-357.124 165.109,-367.48 169.818,-357.989 162.872,-357.124"/>
</g>
<!-- Node18 -->
<g id="node18" class="node"><title>Node18</title>
<g id="a_node18"><a xlink:href="classICED_1_1TestingObject_a06cf16fc934c4e87f6886a7beb771b0e.html#a06cf16fc934c4e87f6886a7beb771b0e" target="_top" xlink:title="Test for ICED::Diffusion module. ">
<polygon fill="none" stroke="black" points="450,-0 450,-30 558,-30 558,-0 450,-0"/>
<text text-anchor="start" x="458" y="-18" font-family="Helvetica,sans-Serif" font-size="10.00">ICED::TestingObject</text>
<text text-anchor="middle" x="504" y="-7" font-family="Helvetica,sans-Serif" font-size="10.00">::Test__Diffusion</text>
</a>
</g>
</g>
<!-- Node2&#45;&gt;Node18 -->
<g id="edge32" class="edge"><title>Node2&#45;&gt;Node18</title>
<path fill="none" stroke="midnightblue" d="M165.43,-356.883C170.407,-292.896 189.17,-95.8205 234,-54 291.884,-0.00175492 389.413,-0.0247933 449.775,-6.45763"/>
<polygon fill="midnightblue" stroke="midnightblue" points="161.913,-356.981 164.658,-367.214 168.894,-357.503 161.913,-356.981"/>
</g>
<!-- Node19 -->
<g id="node19" class="node"><title>Node19</title>
<g id="a_node19"><a xlink:href="classICED_1_1TestingObject_af46c6cb015fb4151707a8c08084f4525.html#af46c6cb015fb4151707a8c08084f4525" target="_top" xlink:title="Test for ICED::IonMigration module. ">
<polygon fill="none" stroke="black" points="450,-637 450,-667 558,-667 558,-637 450,-637"/>
<text text-anchor="start" x="458" y="-655" font-family="Helvetica,sans-Serif" font-size="10.00">ICED::TestingObject</text>
<text text-anchor="middle" x="504" y="-644" font-family="Helvetica,sans-Serif" font-size="10.00">::Test__IonMigration</text>
</a>
</g>
</g>
<!-- Node2&#45;&gt;Node19 -->
<g id="edge35" class="edge"><title>Node2&#45;&gt;Node19</title>
<path fill="none" stroke="midnightblue" d="M165.247,-396.903C168.815,-436.583 182.45,-525.936 234,-575 265.009,-604.513 380.826,-629.886 449.976,-642.83"/>
<polygon fill="midnightblue" stroke="midnightblue" points="168.733,-396.595 164.47,-386.896 161.754,-397.137 168.733,-396.595"/>
</g>
<!-- Node20 -->
<g id="node20" class="node"><title>Node20</title>
<g id="a_node20"><a xlink:href="classICED_1_1TestingObject_a263e8cc9d4d10cb3b749c8946ebcae72.html#a263e8cc9d4d10cb3b749c8946ebcae72" target="_top" xlink:title="Test for ICED::DeviceComponent. ">
<polygon fill="none" stroke="black" points="446.5,-588 446.5,-618 561.5,-618 561.5,-588 446.5,-588"/>
<text text-anchor="start" x="454.5" y="-606" font-family="Helvetica,sans-Serif" font-size="10.00">ICED::TestingObject</text>
<text text-anchor="middle" x="504" y="-595" font-family="Helvetica,sans-Serif" font-size="10.00">::Test__ModulePriority</text>
</a>
</g>
</g>
<!-- Node2&#45;&gt;Node20 -->
<g id="edge38" class="edge"><title>Node2&#45;&gt;Node20</title>
<path fill="none" stroke="midnightblue" d="M166.843,-396.874C172.822,-431.09 189.976,-501.003 234,-538 265.77,-564.699 377.155,-584.963 446.239,-595.319"/>
<polygon fill="midnightblue" stroke="midnightblue" points="170.258,-396.06 165.222,-386.738 163.346,-397.165 170.258,-396.06"/>
</g>
<!-- Node21 -->
<g id="node21" class="node"><title>Node21</title>
<g id="a_node21"><a xlink:href="classICED_1_1TestingObject_a4f825a89973b92c36e2fe2cbe6a653a0.html#a4f825a89973b92c36e2fe2cbe6a653a0" target="_top" xlink:title="Test for ICED::OhmsLawElectrolyte. ">
<polygon fill="none" stroke="black" points="432.5,-539 432.5,-569 575.5,-569 575.5,-539 432.5,-539"/>
<text text-anchor="start" x="440.5" y="-557" font-family="Helvetica,sans-Serif" font-size="10.00">ICED::TestingObject</text>
<text text-anchor="middle" x="504" y="-546" font-family="Helvetica,sans-Serif" font-size="10.00">::Test__OhmsLawElectrolyte</text>
</a>
</g>
</g>
<!-- Node2&#45;&gt;Node21 -->
<g id="edge41" class="edge"><title>Node2&#45;&gt;Node21</title>
<path fill="none" stroke="midnightblue" d="M169.601,-396.253C178.548,-423.42 198.749,-472.525 234,-498 291.898,-539.842 374.106,-551.894 432.372,-554.691"/>
<polygon fill="midnightblue" stroke="midnightblue" points="172.941,-395.207 166.624,-386.701 166.258,-397.289 172.941,-395.207"/>
</g>
<!-- Node22 -->
<g id="node22" class="node"><title>Node22</title>
<g id="a_node22"><a xlink:href="classICED_1_1TestingObject_ab656a16700e242a40e0b21d7693a6ae0.html#ab656a16700e242a40e0b21d7693a6ae0" target="_top" xlink:title="Test for ICED::OhmsLawSolid. ">
<polygon fill="none" stroke="black" points="444.5,-490 444.5,-520 563.5,-520 563.5,-490 444.5,-490"/>
<text text-anchor="start" x="452.5" y="-508" font-family="Helvetica,sans-Serif" font-size="10.00">ICED::TestingObject</text>
<text text-anchor="middle" x="504" y="-497" font-family="Helvetica,sans-Serif" font-size="10.00">::Test__OhmsLawSolid</text>
</a>
</g>
</g>
<!-- Node2&#45;&gt;Node22 -->
<g id="edge44" class="edge"><title>Node2&#45;&gt;Node22</title>
<path fill="none" stroke="midnightblue" d="M173.382,-395.482C184.773,-415.856 205.988,-447.877 234,-464 299.1,-501.469 387.102,-508.21 444.445,-507.94"/>
<polygon fill="midnightblue" stroke="midnightblue" points="176.399,-393.7 168.593,-386.536 170.227,-397.004 176.399,-393.7"/>
</g>
<!-- Node23 -->
<g id="node23" class="node"><title>Node23</title>
<g id="a_node23"><a xlink:href="classICED_1_1TestingObject_aacdc6512e5ce8094c62997f4d1f02634.html#aacdc6512e5ce8094c62997f4d1f02634" target="_top" xlink:title="Test for ICED::TransferenceNumber. ">
<polygon fill="none" stroke="black" points="432,-294 432,-324 576,-324 576,-294 432,-294"/>
<text text-anchor="start" x="440" y="-312" font-family="Helvetica,sans-Serif" font-size="10.00">ICED::TestingObject</text>
<text text-anchor="middle" x="504" y="-301" font-family="Helvetica,sans-Serif" font-size="10.00">::Test__TransferenceNumber</text>
</a>
</g>
</g>
<!-- Node2&#45;&gt;Node23 -->
<g id="edge47" class="edge"><title>Node2&#45;&gt;Node23</title>
<path fill="none" stroke="midnightblue" d="M207.77,-367.504C216.456,-365.653 225.512,-363.745 234,-362 301.021,-348.218 377.593,-333.202 431.856,-322.684"/>
<polygon fill="midnightblue" stroke="midnightblue" points="206.846,-364.123 197.8,-369.639 208.312,-370.967 206.846,-364.123"/>
</g>
<!-- Node24 -->
<g id="node24" class="node"><title>Node24</title>
<g id="a_node24"><a xlink:href="classICED_1_1TestingObject_a9bbc638a5bd612413bdd4c03b6c66d0c.html#a9bbc638a5bd612413bdd4c03b6c66d0c" target="_top" xlink:title="Test for ICED::wallFlux. ">
<polygon fill="none" stroke="black" points="450,-245 450,-275 558,-275 558,-245 450,-245"/>
<text text-anchor="start" x="458" y="-263" font-family="Helvetica,sans-Serif" font-size="10.00">ICED::TestingObject</text>
<text text-anchor="middle" x="504" y="-252" font-family="Helvetica,sans-Serif" font-size="10.00">::Test__WallFlux</text>
</a>
</g>
</g>
<!-- Node2&#45;&gt;Node24 -->
<g id="edge50" class="edge"><title>Node2&#45;&gt;Node24</title>
<path fill="none" stroke="midnightblue" d="M184.338,-361.577C197.829,-351.953 216.255,-339.93 234,-332 305.505,-300.046 394.233,-279.702 449.752,-269.069"/>
<polygon fill="midnightblue" stroke="midnightblue" points="182.255,-358.764 176.242,-367.487 186.383,-364.417 182.255,-358.764"/>
</g>
<!-- Node4 -->
<g id="node4" class="node"><title>Node4</title>
<g id="a_node4"><a xlink:href="classICED_1_1TestingObject_adcd8b620aa1ea5a579a671ac15b5620b.html#adcd8b620aa1ea5a579a671ac15b5620b" target="_top" xlink:title="Test for ICED::Intercalation. ">
<polygon fill="none" stroke="black" points="450,-441 450,-471 558,-471 558,-441 450,-441"/>
<text text-anchor="start" x="458" y="-459" font-family="Helvetica,sans-Serif" font-size="10.00">ICED::TestingObject</text>
<text text-anchor="middle" x="504" y="-448" font-family="Helvetica,sans-Serif" font-size="10.00">::Test__Intercalation</text>
</a>
</g>
</g>
<!-- Node3&#45;&gt;Node4 -->
<g id="edge3" class="edge"><title>Node3&#45;&gt;Node4</title>
<path fill="none" stroke="midnightblue" d="M375.889,-445.78C400.281,-447.741 427.077,-449.896 449.751,-451.719"/>
<polygon fill="midnightblue" stroke="midnightblue" points="375.85,-442.266 365.602,-444.953 375.289,-449.243 375.85,-442.266"/>
</g>
<!-- Node5 -->
<g id="node5" class="node"><title>Node5</title>
<g id="a_node5"><a xlink:href="classICED_1_1TestingObject_a046f7ab06db0acf616b0d2bf3d3146aa.html#a046f7ab06db0acf616b0d2bf3d3146aa" target="_top" xlink:title="Runs all tests implemented by the ICED::TestingObject. ">
<polygon fill="none" stroke="black" points="636,-367 636,-397 744,-397 744,-367 636,-367"/>
<text text-anchor="start" x="644" y="-385" font-family="Helvetica,sans-Serif" font-size="10.00">ICED::TestingObject</text>
<text text-anchor="middle" x="690" y="-374" font-family="Helvetica,sans-Serif" font-size="10.00">::Process</text>
</a>
</g>
</g>
<!-- Node4&#45;&gt;Node5 -->
<g id="edge4" class="edge"><title>Node4&#45;&gt;Node5</title>
<path fill="none" stroke="midnightblue" d="M567.895,-441.789C578.752,-438.675 589.815,-435.071 600,-431 623.093,-421.768 647.747,-407.841 665.236,-397.192"/>
<polygon fill="midnightblue" stroke="midnightblue" points="566.725,-438.481 558.013,-444.51 568.583,-445.229 566.725,-438.481"/>
</g>
<!-- Node8 -->
<g id="node8" class="node"><title>Node8</title>
<g id="a_node8"><a xlink:href="classICED_1_1TestingObject_af1f07f14b9af7708e4264bb38937eed2.html#af1f07f14b9af7708e4264bb38937eed2" target="_top" xlink:title="Runs a test specified by name. ">
<polygon fill="none" stroke="black" points="636,-318 636,-348 744,-348 744,-318 636,-318"/>
<text text-anchor="start" x="644" y="-336" font-family="Helvetica,sans-Serif" font-size="10.00">ICED::TestingObject</text>
<text text-anchor="middle" x="690" y="-325" font-family="Helvetica,sans-Serif" font-size="10.00">::RunTest</text>
</a>
</g>
</g>
<!-- Node4&#45;&gt;Node8 -->
<g id="edge7" class="edge"><title>Node4&#45;&gt;Node8</title>
<path fill="none" stroke="midnightblue" d="M567.812,-447.635C579.391,-443.928 590.734,-438.611 600,-431 628.262,-407.785 609.784,-382.503 636,-357 639.475,-353.619 643.511,-350.663 647.774,-348.09"/>
<polygon fill="midnightblue" stroke="midnightblue" points="566.742,-444.301 558.07,-450.387 568.645,-451.037 566.742,-444.301"/>
</g>
<!-- Node6 -->
<g id="node6" class="node"><title>Node6</title>
<g id="a_node6"><a xlink:href="namespaceICED_acf52cefdb153ca8751acb1e183d3a405.html#acf52cefdb153ca8751acb1e183d3a405" target="_top" xlink:title="Drives the ICED::TestObject. ">
<polygon fill="none" stroke="black" points="800.5,-369.5 800.5,-388.5 867.5,-388.5 867.5,-369.5 800.5,-369.5"/>
<text text-anchor="middle" x="834" y="-376.5" font-family="Helvetica,sans-Serif" font-size="10.00">ICED::Test</text>
</a>
</g>
</g>
<!-- Node5&#45;&gt;Node6 -->
<g id="edge5" class="edge"><title>Node5&#45;&gt;Node6</title>
<path fill="none" stroke="midnightblue" d="M754.6,-380.656C770.467,-380.321 786.831,-379.975 800.478,-379.687"/>
<polygon fill="midnightblue" stroke="midnightblue" points="754.203,-377.164 744.28,-380.874 754.351,-384.162 754.203,-377.164"/>
</g>
<!-- Node7 -->
<g id="node7" class="node"><title>Node7</title>
<g id="a_node7"><a xlink:href="TestICED_8C_a0ddf1224851353fc92bfbff6f499fa97.html#a0ddf1224851353fc92bfbff6f499fa97" target="_top" xlink:title="main">
<polygon fill="none" stroke="black" points="924,-369.5 924,-388.5 962,-388.5 962,-369.5 924,-369.5"/>
<text text-anchor="middle" x="943" y="-376.5" font-family="Helvetica,sans-Serif" font-size="10.00">main</text>
</a>
</g>
</g>
<!-- Node6&#45;&gt;Node7 -->
<g id="edge6" class="edge"><title>Node6&#45;&gt;Node7</title>
<path fill="none" stroke="midnightblue" d="M877.939,-379C893.927,-379 911.225,-379 923.811,-379"/>
<polygon fill="midnightblue" stroke="midnightblue" points="877.685,-375.5 867.685,-379 877.685,-382.5 877.685,-375.5"/>
</g>
<!-- Node9 -->
<g id="node9" class="node"><title>Node9</title>
<g id="a_node9"><a xlink:href="classICED_1_1TestingObject_a21159bd2efac623e5a5079f6a20f3444.html#a21159bd2efac623e5a5079f6a20f3444" target="_top" xlink:title="Runs a list of tests specified by name. ">
<polygon fill="none" stroke="black" points="780,-318 780,-348 888,-348 888,-318 780,-318"/>
<text text-anchor="start" x="788" y="-336" font-family="Helvetica,sans-Serif" font-size="10.00">ICED::TestingObject</text>
<text text-anchor="middle" x="834" y="-325" font-family="Helvetica,sans-Serif" font-size="10.00">::ProcessTests</text>
</a>
</g>
</g>
<!-- Node8&#45;&gt;Node9 -->
<g id="edge8" class="edge"><title>Node8&#45;&gt;Node9</title>
<path fill="none" stroke="midnightblue" d="M754.517,-333C762.996,-333 771.618,-333 779.894,-333"/>
<polygon fill="midnightblue" stroke="midnightblue" points="754.28,-329.5 744.28,-333 754.28,-336.5 754.28,-329.5"/>
</g>
<!-- Node8&#45;&gt;Node6 -->
<g id="edge9" class="edge"><title>Node8&#45;&gt;Node6</title>
<path fill="none" stroke="midnightblue" d="M747.084,-351.168C766.316,-357.398 787.077,-364.124 803.373,-369.402"/>
<polygon fill="midnightblue" stroke="midnightblue" points="748.088,-347.814 737.496,-348.062 745.931,-354.474 748.088,-347.814"/>
</g>
<!-- Node10&#45;&gt;Node5 -->
<g id="edge11" class="edge"><title>Node10&#45;&gt;Node5</title>
<path fill="none" stroke="midnightblue" d="M580.795,-396.702C599.261,-394.193 618.625,-391.562 635.786,-389.23"/>
<polygon fill="midnightblue" stroke="midnightblue" points="580.087,-393.266 570.649,-398.08 581.029,-400.202 580.087,-393.266"/>
</g>
<!-- Node10&#45;&gt;Node8 -->
<g id="edge12" class="edge"><title>Node10&#45;&gt;Node8</title>
<path fill="none" stroke="midnightblue" d="M580.548,-389.738C587.235,-387.429 593.809,-384.856 600,-382 617.689,-373.841 619.058,-366.613 636,-357 641.535,-353.86 647.555,-350.811 653.487,-348"/>
<polygon fill="midnightblue" stroke="midnightblue" points="579.133,-386.518 570.703,-392.936 581.295,-393.176 579.133,-386.518"/>
</g>
<!-- Node11&#45;&gt;Node5 -->
<g id="edge14" class="edge"><title>Node11&#45;&gt;Node5</title>
<path fill="none" stroke="midnightblue" d="M568.899,-366.335C590.751,-369.185 614.943,-372.34 635.854,-375.068"/>
<polygon fill="midnightblue" stroke="midnightblue" points="569.084,-362.829 558.715,-365.006 568.178,-369.77 569.084,-362.829"/>
</g>
<!-- Node11&#45;&gt;Node8 -->
<g id="edge15" class="edge"><title>Node11&#45;&gt;Node8</title>
<path fill="none" stroke="midnightblue" d="M568.899,-349.318C590.751,-346.349 614.943,-343.062 635.854,-340.221"/>
<polygon fill="midnightblue" stroke="midnightblue" points="568.153,-345.887 558.715,-350.702 569.095,-352.823 568.153,-345.887"/>
</g>
<!-- Node12&#45;&gt;Node5 -->
<g id="edge17" class="edge"><title>Node12&#45;&gt;Node5</title>
<path fill="none" stroke="midnightblue" d="M379.403,-747.963C445.184,-756.417 539.336,-756.77 600,-706 649.096,-664.911 679.43,-456.088 687.082,-397.375"/>
<polygon fill="midnightblue" stroke="midnightblue" points="379.483,-744.441 369.099,-746.544 378.528,-751.376 379.483,-744.441"/>
</g>
<!-- Node13&#45;&gt;Node5 -->
<g id="edge19" class="edge"><title>Node13&#45;&gt;Node5</title>
<path fill="none" stroke="midnightblue" d="M350.756,-681.615C413.946,-703.407 527.071,-730.12 600,-676 646.68,-641.359 678.397,-452.519 686.785,-397.221"/>
<polygon fill="midnightblue" stroke="midnightblue" points="351.652,-678.219 341.057,-678.173 349.311,-684.816 351.652,-678.219"/>
</g>
<!-- Node14&#45;&gt;Node5 -->
<g id="edge21" class="edge"><title>Node14&#45;&gt;Node5</title>
<path fill="none" stroke="midnightblue" d="M596.549,-231.93C597.737,-232.909 598.889,-233.932 600,-235 640.757,-274.178 599.214,-314.072 636,-357 639.31,-360.863 643.349,-364.17 647.705,-366.992"/>
<polygon fill="midnightblue" stroke="midnightblue" points="598.423,-228.969 588.23,-226.082 594.398,-234.696 598.423,-228.969"/>
</g>
<!-- Node14&#45;&gt;Node8 -->
<g id="edge22" class="edge"><title>Node14&#45;&gt;Node8</title>
<path fill="none" stroke="midnightblue" d="M591.148,-230.233C594.193,-231.707 597.156,-233.293 600,-235 635.473,-256.286 665.062,-296.088 679.505,-317.845"/>
<polygon fill="midnightblue" stroke="midnightblue" points="592.359,-226.943 581.795,-226.14 589.553,-233.356 592.359,-226.943"/>
</g>
<!-- Node15&#45;&gt;Node5 -->
<g id="edge24" class="edge"><title>Node15&#45;&gt;Node5</title>
<path fill="none" stroke="midnightblue" d="M589.093,-177.097C593.052,-179.648 596.729,-182.596 600,-186 653.81,-242.004 587.845,-296.065 636,-357 639.028,-360.831 642.783,-364.105 646.888,-366.895"/>
<polygon fill="midnightblue" stroke="midnightblue" points="590.48,-173.866 580.029,-172.124 587.113,-180.003 590.48,-173.866"/>
</g>
<!-- Node15&#45;&gt;Node8 -->
<g id="edge25" class="edge"><title>Node15&#45;&gt;Node8</title>
<path fill="none" stroke="midnightblue" d="M589.222,-179.241C592.997,-181.252 596.615,-183.496 600,-186 646.77,-220.599 673.928,-287.78 684.215,-317.832"/>
<polygon fill="midnightblue" stroke="midnightblue" points="590.702,-176.069 580.166,-174.958 587.71,-182.397 590.702,-176.069"/>
</g>
<!-- Node16&#45;&gt;Node5 -->
<g id="edge27" class="edge"><title>Node16&#45;&gt;Node5</title>
<path fill="none" stroke="midnightblue" d="M568.168,-118.177C580.149,-121.909 591.557,-127.805 600,-137 667.01,-209.981 576.346,-277.894 636,-357 638.879,-360.818 642.487,-364.076 646.46,-366.852"/>
<polygon fill="midnightblue" stroke="midnightblue" points="569.045,-114.789 558.483,-115.626 567.262,-121.558 569.045,-114.789"/>
</g>
<!-- Node16&#45;&gt;Node8 -->
<g id="edge28" class="edge"><title>Node16&#45;&gt;Node8</title>
<path fill="none" stroke="midnightblue" d="M567.949,-120.459C579.518,-124.064 590.821,-129.331 600,-137 658.362,-185.761 680.177,-280.852 686.67,-317.804"/>
<polygon fill="midnightblue" stroke="midnightblue" points="568.779,-117.057 558.21,-117.805 566.938,-123.811 568.779,-117.057"/>
</g>
<!-- Node17&#45;&gt;Node5 -->
<g id="edge30" class="edge"><title>Node17&#45;&gt;Node5</title>
<path fill="none" stroke="midnightblue" d="M583.956,-75.502C589.954,-78.78 595.436,-82.8816 600,-88 680.276,-178.029 564.786,-259.644 636,-357 638.823,-360.859 642.396,-364.144 646.348,-366.936"/>
<polygon fill="midnightblue" stroke="midnightblue" points="585.389,-72.3086 574.845,-71.2661 582.437,-78.656 585.389,-72.3086"/>
</g>
<!-- Node17&#45;&gt;Node8 -->
<g id="edge31" class="edge"><title>Node17&#45;&gt;Node8</title>
<path fill="none" stroke="midnightblue" d="M584.182,-77.2798C589.91,-80.2011 595.279,-83.7333 600,-88 670.337,-151.57 685.157,-275.173 688.22,-317.979"/>
<polygon fill="midnightblue" stroke="midnightblue" points="585.488,-74.0303 574.927,-73.1744 582.649,-80.4289 585.488,-74.0303"/>
</g>
<!-- Node18&#45;&gt;Node5 -->
<g id="edge33" class="edge"><title>Node18&#45;&gt;Node5</title>
<path fill="none" stroke="midnightblue" d="M568.133,-19.7423C580.233,-23.487 591.699,-29.4977 600,-39 693.578,-146.118 553.195,-241.352 636,-357 638.724,-360.805 642.181,-364.05 646.019,-366.813"/>
<polygon fill="midnightblue" stroke="midnightblue" points="568.901,-16.3255 558.342,-17.2015 567.142,-23.1011 568.901,-16.3255"/>
</g>
<!-- Node18&#45;&gt;Node8 -->
<g id="edge34" class="edge"><title>Node18&#45;&gt;Node8</title>
<path fill="none" stroke="midnightblue" d="M568.014,-21.285C579.789,-24.964 591.156,-30.5576 600,-39 682.359,-117.616 689.248,-269.589 689.265,-317.882"/>
<polygon fill="midnightblue" stroke="midnightblue" points="568.638,-17.8288 558.073,-18.6244 566.828,-24.5908 568.638,-17.8288"/>
</g>
<!-- Node19&#45;&gt;Node5 -->
<g id="edge36" class="edge"><title>Node19&#45;&gt;Node5</title>
<path fill="none" stroke="midnightblue" d="M568.074,-644.507C579.737,-640.736 591.045,-635.174 600,-627 669.856,-563.236 684.97,-440.29 688.166,-397.294"/>
<polygon fill="midnightblue" stroke="midnightblue" points="566.917,-641.196 558.237,-647.271 568.811,-647.935 566.917,-641.196"/>
</g>
<!-- Node19&#45;&gt;Node8 -->
<g id="edge37" class="edge"><title>Node19&#45;&gt;Node8</title>
<path fill="none" stroke="midnightblue" d="M568.03,-646.435C580.136,-642.572 591.63,-636.485 600,-627 680.1,-536.226 563.793,-454.17 636,-357 638.53,-353.595 641.657,-350.661 645.116,-348.136"/>
<polygon fill="midnightblue" stroke="midnightblue" points="566.98,-643.093 558.238,-649.078 568.804,-649.851 566.98,-643.093"/>
</g>
<!-- Node20&#45;&gt;Node5 -->
<g id="edge39" class="edge"><title>Node20&#45;&gt;Node5</title>
<path fill="none" stroke="midnightblue" d="M571.302,-593.707C581.693,-590.05 591.717,-584.99 600,-578 658.121,-528.952 680.078,-434.03 686.639,-397.16"/>
<polygon fill="midnightblue" stroke="midnightblue" points="570.21,-590.382 561.696,-596.687 572.284,-597.067 570.21,-590.382"/>
</g>
<!-- Node20&#45;&gt;Node8 -->
<g id="edge40" class="edge"><title>Node20&#45;&gt;Node8</title>
<path fill="none" stroke="midnightblue" d="M571.555,-595.986C582.295,-592.117 592.372,-586.396 600,-578 666.917,-504.341 575.494,-436.01 636,-357 638.579,-353.632 641.739,-350.723 645.219,-348.213"/>
<polygon fill="midnightblue" stroke="midnightblue" points="570.52,-592.643 561.993,-598.93 572.58,-599.333 570.52,-592.643"/>
</g>
<!-- Node21&#45;&gt;Node5 -->
<g id="edge42" class="edge"><title>Node21&#45;&gt;Node5</title>
<path fill="none" stroke="midnightblue" d="M585.351,-537.838C590.53,-535.308 595.475,-532.382 600,-529 646.598,-494.171 673.846,-427.11 684.186,-397.129"/>
<polygon fill="midnightblue" stroke="midnightblue" points="583.592,-534.786 575.813,-541.979 586.379,-541.207 583.592,-534.786"/>
</g>
<!-- Node21&#45;&gt;Node8 -->
<g id="edge43" class="edge"><title>Node21&#45;&gt;Node8</title>
<path fill="none" stroke="midnightblue" d="M584.896,-540.561C590.467,-537.431 595.606,-533.625 600,-529 653.8,-472.384 587.137,-417.927 636,-357 638.717,-353.612 642.017,-350.685 645.627,-348.159"/>
<polygon fill="midnightblue" stroke="midnightblue" points="583.311,-537.439 575.829,-544.941 586.356,-543.742 583.311,-537.439"/>
</g>
<!-- Node22&#45;&gt;Node5 -->
<g id="edge45" class="edge"><title>Node22&#45;&gt;Node5</title>
<path fill="none" stroke="midnightblue" d="M573.568,-492.08C582.806,-488.89 591.884,-484.925 600,-480 635.367,-458.539 665,-418.808 679.477,-397.109"/>
<polygon fill="midnightblue" stroke="midnightblue" points="572.396,-488.779 563.917,-495.131 574.507,-495.454 572.396,-488.779"/>
</g>
<!-- Node22&#45;&gt;Node8 -->
<g id="edge46" class="edge"><title>Node22&#45;&gt;Node8</title>
<path fill="none" stroke="midnightblue" d="M573.225,-496.28C583.13,-492.537 592.497,-487.3 600,-480 640.825,-440.279 598.649,-400.004 636,-357 638.981,-353.568 642.551,-350.601 646.412,-348.042"/>
<polygon fill="midnightblue" stroke="midnightblue" points="572.02,-492.991 563.606,-499.43 574.199,-499.644 572.02,-492.991"/>
</g>
<!-- Node23&#45;&gt;Node5 -->
<g id="edge48" class="edge"><title>Node23&#45;&gt;Node5</title>
<path fill="none" stroke="midnightblue" d="M585.556,-327.273C590.505,-329.033 595.357,-330.939 600,-333 617.576,-340.801 619.259,-347.539 636,-357 642.111,-360.454 648.779,-363.862 655.258,-366.998"/>
<polygon fill="midnightblue" stroke="midnightblue" points="586.541,-323.912 575.947,-324.066 584.325,-330.552 586.541,-323.912"/>
</g>
<!-- Node23&#45;&gt;Node8 -->
<g id="edge49" class="edge"><title>Node23&#45;&gt;Node8</title>
<path fill="none" stroke="midnightblue" d="M586.46,-319.625C603.166,-321.804 620.342,-324.045 635.745,-326.054"/>
<polygon fill="midnightblue" stroke="midnightblue" points="586.508,-316.102 576.139,-318.279 585.602,-323.043 586.508,-316.102"/>
</g>
<!-- Node24&#45;&gt;Node5 -->
<g id="edge51" class="edge"><title>Node24&#45;&gt;Node5</title>
<path fill="none" stroke="midnightblue" d="M567.758,-267.691C579.342,-271.278 590.7,-276.479 600,-284 628.128,-306.748 610.199,-331.644 636,-357 639.846,-360.779 644.371,-364.065 649.129,-366.9"/>
<polygon fill="midnightblue" stroke="midnightblue" points="568.583,-264.289 558.015,-265.043 566.746,-271.044 568.583,-264.289"/>
</g>
<!-- Node24&#45;&gt;Node8 -->
<g id="edge52" class="edge"><title>Node24&#45;&gt;Node8</title>
<path fill="none" stroke="midnightblue" d="M567.905,-273.471C578.761,-276.479 589.821,-279.989 600,-284 623.303,-293.182 648.137,-307.254 665.635,-317.966"/>
<polygon fill="midnightblue" stroke="midnightblue" points="568.587,-270.03 558.023,-270.849 566.792,-276.796 568.587,-270.03"/>
</g>
</g>
</svg>
        <g id="navigator" transform="translate(0 0)" fill="#404254">
                <rect fill="#f2f5e9" fill-opacity="0.5" stroke="#606060" stroke-width=".5" x="0" y="0" width="60" height="60"/>
                <use id="zoomplus" xlink:href="#zoomPlus" x="17" y="9" onmousedown="handleZoom(evt,'in')"/>
                <use id="zoomminus" xlink:href="#zoomMin" x="42" y="9" onmousedown="handleZoom(evt,'out')"/>
                <use id="reset" xlink:href="#resetDef" x="30" y="36" onmousedown="handleReset()"/>
                <g id="arrowUp" xlink:href="#dirArrow" transform="translate(30 24)" onmousedown="handlePan(0,-1)">
                  <use xlink:href="#rim" fill="#404040">
                        <set attributeName="fill" to="#808080" begin="arrowUp.mouseover" end="arrowUp.mouseout"/>
                  </use>
                  <path fill="none" stroke="white" stroke-width="1.5" d="M0,-3.0v7 M-2.5,-0.5L0,-3.0L2.5,-0.5"/>
                </g>
                <g id="arrowRight" xlink:href="#dirArrow" transform="rotate(90) translate(36 -43)" onmousedown="handlePan(1,0)">
                  <use xlink:href="#rim" fill="#404040">
                        <set attributeName="fill" to="#808080" begin="arrowRight.mouseover" end="arrowRight.mouseout"/>
                  </use>
                  <path fill="none" stroke="white" stroke-width="1.5" d="M0,-3.0v7 M-2.5,-0.5L0,-3.0L2.5,-0.5"/>
                </g>
                <g id="arrowDown" xlink:href="#dirArrow" transform="rotate(180) translate(-30 -48)" onmousedown="handlePan(0,1)">
                  <use xlink:href="#rim" fill="#404040">
                        <set attributeName="fill" to="#808080" begin="arrowDown.mouseover" end="arrowDown.mouseout"/>
                  </use>
                  <path fill="none" stroke="white" stroke-width="1.5" d="M0,-3.0v7 M-2.5,-0.5L0,-3.0L2.5,-0.5"/>
                </g>
                <g id="arrowLeft" xlink:href="#dirArrow" transform="rotate(270) translate(-36 17)" onmousedown="handlePan(-1,0)">
                  <use xlink:href="#rim" fill="#404040">
                        <set attributeName="fill" to="#808080" begin="arrowLeft.mouseover" end="arrowLeft.mouseout"/>
                  </use>
                  <path fill="none" stroke="white" stroke-width="1.5" d="M0,-3.0v7 M-2.5,-0.5L0,-3.0L2.5,-0.5"/>
                </g>
        </g>
        <svg viewBox="0 0 15 15" width="100%" height="30px" preserveAspectRatio="xMaxYMin meet">
         <g id="arrow_out" transform="scale(0.3 0.3)">
          <a xlink:href="classICED_1_1HalfCell_1_1DeviceData_abea9dd513340105152db94ed9f24211a_abea9dd513340105152db94ed9f24211a_icgraph_org.svg" target="_base">
           <rect id="button" ry="5" rx="5" y="6" x="6" height="38" width="38"
                fill="#f2f5e9" fill-opacity="0.5" stroke="#606060" stroke-width="1.0"/>
           <path id="arrow"
             d="M 11.500037,31.436501 C 11.940474,20.09759 22.043105,11.32322 32.158766,21.979434 L 37.068811,17.246167 C 37.068811,17.246167 37.088388,32 37.088388,32 L 22.160133,31.978069 C 22.160133,31.978069 26.997745,27.140456 26.997745,27.140456 C 18.528582,18.264221 13.291696,25.230495 11.500037,31.436501 z"
             style="fill:#404040;"/>
          </a>
         </g>
        </svg>
</svg>
