<?xml version="1.0" encoding="UTF-8" standalone="no"?>
<!DOCTYPE svg PUBLIC "-//W3C//DTD SVG 1.1//EN"
 "http://www.w3.org/Graphics/SVG/1.1/DTD/svg11.dtd">
<!-- Generated by graphviz version 2.30.1 (20150305.2338)
 -->
<!-- Title: ActivityCoefficient Pages: 1 -->
<!--zoomable 608 -->
<svg id="main" version="1.1" xmlns="http://www.w3.org/2000/svg" xmlns:xlink="http://www.w3.org/1999/xlink" xml:space="preserve" onload="init(evt)">
<style type="text/css"><![CDATA[
.edge:hover path { stroke: red; }
.edge:hover polygon { stroke: red; fill: red; }
]]></style>
<script type="text/javascript"><![CDATA[
var edges = document.getElementsByTagName('g');
if (edges && edges.length) {
  for (var i=0;i<edges.length;i++) {
    if (edges[i].id.substr(0,4)=='edge') {
      edges[i].setAttribute('class','edge');
    }
  }
}
]]></script>
        <defs>
                <circle id="rim" cx="0" cy="0" r="7"/>
                <circle id="rim2" cx="0" cy="0" r="3.5"/>
                <g id="zoomPlus">
                        <use xlink:href="#rim" fill="#404040">
                                <set attributeName="fill" to="#808080" begin="zoomplus.mouseover" end="zoomplus.mouseout"/>
                        </use>
                        <path d="M-4,0h8M0,-4v8" fill="none" stroke="white" stroke-width="1.5" pointer-events="none"/>
                </g>
                <g id="zoomMin">
                        <use xlink:href="#rim" fill="#404040">
                                <set attributeName="fill" to="#808080" begin="zoomminus.mouseover" end="zoomminus.mouseout"/>
                        </use>
                        <path d="M-4,0h8" fill="none" stroke="white" stroke-width="1.5" pointer-events="none"/>
                </g>
                <g id="dirArrow">
                        <path fill="none" stroke="white" stroke-width="1.5" d="M0,-3.0v7 M-2.5,-0.5L0,-3.0L2.5,-0.5"/>
                </g>
               <g id="resetDef">
                       <use xlink:href="#rim2" fill="#404040">
                               <set attributeName="fill" to="#808080" begin="reset.mouseover" end="reset.mouseout"/>
                       </use>
               </g>
        </defs>

<script type="text/javascript">
var viewWidth = 1274;
var viewHeight = 608;
var sectionId = 'dynsection-1';
</script>
<script xlink:href="svgpan.js"/>
<svg id="graph" class="graph">
<g id="viewport">
<title>ActivityCoefficient</title>
<!-- Node1 -->
<g id="node1" class="node"><title>Node1</title>
<polygon fill="#bfbfbf" stroke="black" points="1168.5,-270.16 1168.5,-289.16 1265.5,-289.16 1265.5,-270.16 1168.5,-270.16"/>
<text text-anchor="middle" x="1217" y="-277.16" font-family="Helvetica,sans-Serif" font-size="10.00">ActivityCoefficient</text>
</g>
<!-- Node2 -->
<g id="node2" class="node"><title>Node2</title>
<g id="a_node2"><a xlink:href="classICED_1_1HalfCell_1_1PhysicsModule.html" target="_top" xlink:title="Virtual class for physics modules. ">
<polygon fill="none" stroke="black" points="1046.5,-270.16 1046.5,-289.16 1129.5,-289.16 1129.5,-270.16 1046.5,-270.16"/>
<text text-anchor="middle" x="1088" y="-277.16" font-family="Helvetica,sans-Serif" font-size="10.00">PhysicsModule</text>
</a>
</g>
</g>
<!-- Node2&#45;&gt;Node1 -->
<g id="edge1" class="edge"><title>Node2&#45;&gt;Node1</title>
<path fill="none" stroke="midnightblue" d="M1139.61,-279.66C1149.08,-279.66 1158.94,-279.66 1168.32,-279.66"/>
<polygon fill="midnightblue" stroke="midnightblue" points="1139.53,-276.16 1129.53,-279.66 1139.53,-283.16 1139.53,-276.16"/>
</g>
<!-- Node3 -->
<g id="node3" class="node"><title>Node3</title>
<polygon fill="none" stroke="#bfbfbf" points="631,-579.16 631,-598.16 697,-598.16 697,-579.16 631,-579.16"/>
<text text-anchor="middle" x="664" y="-586.16" font-family="Helvetica,sans-Serif" font-size="10.00">GlobalType</text>
</g>
<!-- Node3&#45;&gt;Node2 -->
<g id="edge2" class="edge"><title>Node3&#45;&gt;Node2</title>
<path fill="none" stroke="midnightblue" d="M707.286,-596.52C746.954,-601.74 806.779,-603.935 852,-580.66 984.042,-512.698 1064.93,-333.216 1083.09,-289.408"/>
<polygon fill="midnightblue" stroke="midnightblue" points="707.555,-593.022 697.159,-595.063 706.559,-599.951 707.555,-593.022"/>
</g>
<!-- Node4 -->
<g id="node4" class="node"><title>Node4</title>
<g id="a_node4"><a xlink:href="classICED_1_1HalfCell_1_1SolutionData.html" target="_top" xlink:title="Class to hold the solution data for the electro&#45;chemical device solver. ">
<polygon fill="none" stroke="black" points="870.5,-270.16 870.5,-289.16 943.5,-289.16 943.5,-270.16 870.5,-270.16"/>
<text text-anchor="middle" x="907" y="-277.16" font-family="Helvetica,sans-Serif" font-size="10.00">SolutionData</text>
</a>
</g>
</g>
<!-- Node3&#45;&gt;Node4 -->
<g id="edge4" class="edge"><title>Node3&#45;&gt;Node4</title>
<path fill="none" stroke="midnightblue" d="M707.341,-586.637C756.079,-583.403 832,-575.293 852,-555.66 891.111,-517.267 903.154,-333.955 905.525,-289.424"/>
<polygon fill="midnightblue" stroke="midnightblue" points="706.848,-583.16 697.084,-587.272 707.281,-590.147 706.848,-583.16"/>
</g>
<!-- Node4&#45;&gt;Node2 -->
<g id="edge3" class="edge"><title>Node4&#45;&gt;Node2</title>
<path fill="none" stroke="#9a32cd" stroke-dasharray="5,2" d="M953.917,-279.66C982.437,-279.66 1018.77,-279.66 1046.26,-279.66"/>
<polygon fill="#9a32cd" stroke="#9a32cd" points="953.793,-276.16 943.793,-279.66 953.793,-283.16 953.793,-276.16"/>
<text text-anchor="middle" x="995" y="-282.66" font-family="Helvetica,sans-Serif" font-size="10.00"> pSolutionData</text>
</g>
<!-- Node5 -->
<g id="node5" class="node"><title>Node5</title>
<polygon fill="none" stroke="#bfbfbf" points="478.5,-530.16 478.5,-549.16 575.5,-549.16 575.5,-530.16 478.5,-530.16"/>
<text text-anchor="middle" x="527" y="-537.16" font-family="Helvetica,sans-Serif" font-size="10.00">vector&lt; double * &gt;</text>
</g>
<!-- Node5&#45;&gt;Node4 -->
<g id="edge5" class="edge"><title>Node5&#45;&gt;Node4</title>
<path fill="none" stroke="#9a32cd" stroke-dasharray="5,2" d="M586.073,-545.008C659.033,-548.249 783.015,-541.626 852,-469.66 902.545,-416.93 906.363,-320.413 906.219,-289.478"/>
<polygon fill="#9a32cd" stroke="#9a32cd" points="585.86,-541.492 575.691,-544.465 585.494,-548.483 585.86,-541.492"/>
<text text-anchor="middle" x="664" y="-547.66" font-family="Helvetica,sans-Serif" font-size="10.00"> inputDataDouble</text>
</g>
<!-- Node6 -->
<g id="node6" class="node"><title>Node6</title>
<g id="a_node6"><a xlink:title="STL class. ">
<polygon fill="none" stroke="#bfbfbf" points="129,-233.16 129,-252.16 197,-252.16 197,-233.16 129,-233.16"/>
<text text-anchor="middle" x="163" y="-240.16" font-family="Helvetica,sans-Serif" font-size="10.00">vector&lt; T &gt;</text>
</a>
</g>
</g>
<!-- Node6&#45;&gt;Node5 -->
<g id="edge6" class="edge"><title>Node6&#45;&gt;Node5</title>
<path fill="none" stroke="orange" stroke-dasharray="5,2" d="M165.037,-262.613C168.232,-303.255 181.233,-396.135 234,-447.66 301.12,-513.2 414.489,-532.098 478.428,-537.515"/>
<polygon fill="orange" stroke="orange" points="168.514,-262.15 164.36,-252.403 161.529,-262.613 168.514,-262.15"/>
<text text-anchor="middle" x="279" y="-506.66" font-family="Helvetica,sans-Serif" font-size="10.00"> &lt; double * &gt;</text>
</g>
<!-- Node8 -->
<g id="node8" class="node"><title>Node8</title>
<polygon fill="none" stroke="#bfbfbf" points="487.5,-471.16 487.5,-490.16 566.5,-490.16 566.5,-471.16 487.5,-471.16"/>
<text text-anchor="middle" x="527" y="-478.16" font-family="Helvetica,sans-Serif" font-size="10.00">vector&lt; int * &gt;</text>
</g>
<!-- Node6&#45;&gt;Node8 -->
<g id="edge9" class="edge"><title>Node6&#45;&gt;Node8</title>
<path fill="none" stroke="orange" stroke-dasharray="5,2" d="M168.878,-262.065C177.267,-291.568 197.183,-347.647 234,-379.66 308.481,-444.423 426.743,-468.266 487.374,-476.555"/>
<polygon fill="orange" stroke="orange" points="172.193,-260.913 166.216,-252.165 165.433,-262.731 172.193,-260.913"/>
<text text-anchor="middle" x="279" y="-435.66" font-family="Helvetica,sans-Serif" font-size="10.00"> &lt; int * &gt;</text>
</g>
<!-- Node10 -->
<g id="node10" class="node"><title>Node10</title>
<polygon fill="none" stroke="#bfbfbf" points="356,-267.16 356,-286.16 446,-286.16 446,-267.16 356,-267.16"/>
<text text-anchor="middle" x="401" y="-274.16" font-family="Helvetica,sans-Serif" font-size="10.00">vector&lt; double &gt;</text>
</g>
<!-- Node6&#45;&gt;Node10 -->
<g id="edge12" class="edge"><title>Node6&#45;&gt;Node10</title>
<path fill="none" stroke="orange" stroke-dasharray="5,2" d="M207.037,-248.86C249.257,-254.943 313.33,-264.173 355.909,-270.308"/>
<polygon fill="orange" stroke="orange" points="207.46,-245.385 197.063,-247.423 206.462,-252.313 207.46,-245.385"/>
<text text-anchor="middle" x="279" y="-269.66" font-family="Helvetica,sans-Serif" font-size="10.00"> &lt; double &gt;</text>
</g>
<!-- Node9 -->
<g id="node9" class="node"><title>Node9</title>
<polygon fill="none" stroke="#bfbfbf" points="614.5,-430.66 614.5,-460.66 713.5,-460.66 713.5,-430.66 614.5,-430.66"/>
<text text-anchor="start" x="622.5" y="-448.66" font-family="Helvetica,sans-Serif" font-size="10.00">vector&lt; std::vector</text>
<text text-anchor="middle" x="664" y="-437.66" font-family="Helvetica,sans-Serif" font-size="10.00">&lt; double &gt; &gt;</text>
</g>
<!-- Node6&#45;&gt;Node9 -->
<g id="edge13" class="edge"><title>Node6&#45;&gt;Node9</title>
<path fill="none" stroke="orange" stroke-dasharray="5,2" d="M188.717,-257.57C201.917,-265.24 218.581,-274.463 234,-281.66 370.014,-345.15 537.97,-403.946 617.343,-430.621"/>
<polygon fill="orange" stroke="orange" points="190.178,-254.369 179.785,-252.311 186.626,-260.401 190.178,-254.369"/>
<text text-anchor="middle" x="401" y="-377.66" font-family="Helvetica,sans-Serif" font-size="10.00"> &lt; std::vector&lt; double &gt; &gt;</text>
</g>
<!-- Node11 -->
<g id="node11" class="node"><title>Node11</title>
<polygon fill="none" stroke="#bfbfbf" points="614.5,-212.66 614.5,-242.66 713.5,-242.66 713.5,-212.66 614.5,-212.66"/>
<text text-anchor="start" x="622.5" y="-230.66" font-family="Helvetica,sans-Serif" font-size="10.00">vector&lt; std::vector</text>
<text text-anchor="middle" x="664" y="-219.66" font-family="Helvetica,sans-Serif" font-size="10.00">&lt; double &gt; * &gt;</text>
</g>
<!-- Node6&#45;&gt;Node11 -->
<g id="edge16" class="edge"><title>Node6&#45;&gt;Node11</title>
<path fill="none" stroke="orange" stroke-dasharray="5,2" d="M207.294,-240.783C243.334,-239.262 296.002,-237.137 342,-235.66 438.531,-232.559 551.424,-229.991 614.322,-228.655"/>
<polygon fill="orange" stroke="orange" points="206.972,-237.293 197.129,-241.214 207.269,-244.287 206.972,-237.293"/>
<text text-anchor="start" x="352.5" y="-249.66" font-family="Helvetica,sans-Serif" font-size="10.00"> &lt; std::vector&lt; double</text>
<text text-anchor="middle" x="401" y="-238.66" font-family="Helvetica,sans-Serif" font-size="10.00"> &gt; * &gt;</text>
</g>
<!-- Node12 -->
<g id="node12" class="node"><title>Node12</title>
<polygon fill="none" stroke="#bfbfbf" points="491,-164.16 491,-183.16 563,-183.16 563,-164.16 491,-164.16"/>
<text text-anchor="middle" x="527" y="-171.16" font-family="Helvetica,sans-Serif" font-size="10.00">vector&lt; int &gt;</text>
</g>
<!-- Node6&#45;&gt;Node12 -->
<g id="edge18" class="edge"><title>Node6&#45;&gt;Node12</title>
<path fill="none" stroke="orange" stroke-dasharray="5,2" d="M182.86,-226.452C196.208,-215.987 215.041,-203.154 234,-196.66 322.518,-166.341 434.639,-167.724 490.705,-170.9"/>
<polygon fill="orange" stroke="orange" points="180.485,-223.872 174.935,-232.896 184.902,-229.303 180.485,-223.872"/>
<text text-anchor="middle" x="279" y="-199.66" font-family="Helvetica,sans-Serif" font-size="10.00"> &lt; int &gt;</text>
</g>
<!-- Node13 -->
<g id="node13" class="node"><title>Node13</title>
<polygon fill="none" stroke="#bfbfbf" points="342.5,-106.16 342.5,-147.16 459.5,-147.16 459.5,-106.16 342.5,-106.16"/>
<text text-anchor="start" x="350.5" y="-135.16" font-family="Helvetica,sans-Serif" font-size="10.00">vector&lt; std::vector</text>
<text text-anchor="start" x="350.5" y="-124.16" font-family="Helvetica,sans-Serif" font-size="10.00">&lt; std::vector&lt; std::</text>
<text text-anchor="middle" x="401" y="-113.16" font-family="Helvetica,sans-Serif" font-size="10.00">vector&lt; double &gt; &gt; &gt; &gt;</text>
</g>
<!-- Node6&#45;&gt;Node13 -->
<g id="edge20" class="edge"><title>Node6&#45;&gt;Node13</title>
<path fill="none" stroke="orange" stroke-dasharray="5,2" d="M168.659,-223.074C176.602,-194.612 195.757,-142.808 234,-120.66 266.317,-101.944 308.417,-103.698 342.132,-110.002"/>
<polygon fill="orange" stroke="orange" points="165.194,-222.492 166.07,-233.05 171.969,-224.25 165.194,-222.492"/>
<text text-anchor="start" x="234.5" y="-145.66" font-family="Helvetica,sans-Serif" font-size="10.00"> &lt; std::vector&lt; std</text>
<text text-anchor="start" x="234.5" y="-134.66" font-family="Helvetica,sans-Serif" font-size="10.00">::vector&lt; std::vector</text>
<text text-anchor="middle" x="279" y="-123.66" font-family="Helvetica,sans-Serif" font-size="10.00">&lt; double &gt; &gt; &gt; &gt;</text>
</g>
<!-- Node14 -->
<g id="node14" class="node"><title>Node14</title>
<polygon fill="none" stroke="#bfbfbf" points="611.5,-67.1598 611.5,-86.1598 716.5,-86.1598 716.5,-67.1598 611.5,-67.1598"/>
<text text-anchor="middle" x="664" y="-74.1598" font-family="Helvetica,sans-Serif" font-size="10.00">vector&lt; std::string &gt;</text>
</g>
<!-- Node6&#45;&gt;Node14 -->
<g id="edge24" class="edge"><title>Node6&#45;&gt;Node14</title>
<path fill="none" stroke="orange" stroke-dasharray="5,2" d="M167.802,-222.673C174.886,-191.366 193.244,-131.284 234,-101.66 292.764,-58.9462 510.394,-66.7525 611.17,-72.933"/>
<polygon fill="orange" stroke="orange" points="164.307,-222.291 165.682,-232.796 171.158,-223.726 164.307,-222.291"/>
<text text-anchor="middle" x="401" y="-76.6598" font-family="Helvetica,sans-Serif" font-size="10.00"> &lt; std::string &gt;</text>
</g>
<!-- Node7 -->
<g id="node7" class="node"><title>Node7</title>
<polygon fill="none" stroke="#bfbfbf" points="0.5,-233.16 0.5,-252.16 29.5,-252.16 29.5,-233.16 0.5,-233.16"/>
<text text-anchor="middle" x="15" y="-240.16" font-family="Helvetica,sans-Serif" font-size="10.00">T</text>
</g>
<!-- Node7&#45;&gt;Node6 -->
<g id="edge7" class="edge"><title>Node7&#45;&gt;Node6</title>
<path fill="none" stroke="#9a32cd" stroke-dasharray="5,2" d="M39.8232,-242.66C64.033,-242.66 101.731,-242.66 128.85,-242.66"/>
<polygon fill="#9a32cd" stroke="#9a32cd" points="39.7354,-239.16 29.7353,-242.66 39.7353,-246.16 39.7354,-239.16"/>
<text text-anchor="middle" x="70" y="-245.66" font-family="Helvetica,sans-Serif" font-size="10.00"> elements</text>
</g>
<!-- Node8&#45;&gt;Node4 -->
<g id="edge8" class="edge"><title>Node8&#45;&gt;Node4</title>
<path fill="none" stroke="#9a32cd" stroke-dasharray="5,2" d="M576.642,-488.737C647.49,-497.473 778.598,-501.7 852,-429.66 893.087,-389.335 903.056,-315.514 905.35,-289.25"/>
<polygon fill="#9a32cd" stroke="#9a32cd" points="577.011,-485.256 566.64,-487.424 576.1,-492.196 577.011,-485.256"/>
<text text-anchor="middle" x="664" y="-496.66" font-family="Helvetica,sans-Serif" font-size="10.00"> inputDataInt</text>
</g>
<!-- Node9&#45;&gt;Node4 -->
<g id="edge10" class="edge"><title>Node9&#45;&gt;Node4</title>
<path fill="none" stroke="#9a32cd" stroke-dasharray="5,2" d="M713.911,-426.285C720.801,-423.015 727.682,-419.443 734,-415.66 800.625,-375.76 870.288,-313.089 895.84,-289.275"/>
<polygon fill="#9a32cd" stroke="#9a32cd" points="712.208,-423.215 704.561,-430.549 715.112,-429.584 712.208,-423.215"/>
<text text-anchor="middle" x="802" y="-417.66" font-family="Helvetica,sans-Serif" font-size="10.00"> function</text>
<text text-anchor="middle" x="802" y="-406.66" font-family="Helvetica,sans-Serif" font-size="10.00">solutionData</text>
</g>
<!-- Node10&#45;&gt;Node9 -->
<g id="edge11" class="edge"><title>Node10&#45;&gt;Node9</title>
<path fill="none" stroke="#9a32cd" stroke-dasharray="5,2" d="M450.026,-288.845C495.375,-301.286 558.911,-321.446 576,-340.66 598.782,-366.274 571.966,-389.399 594,-415.66 599.457,-422.164 606.592,-427.299 614.2,-431.342"/>
<polygon fill="#9a32cd" stroke="#9a32cd" points="450.929,-285.464 440.362,-286.234 449.103,-292.221 450.929,-285.464"/>
<text text-anchor="middle" x="527" y="-343.66" font-family="Helvetica,sans-Serif" font-size="10.00"> elements</text>
</g>
<!-- Node10&#45;&gt;Node11 -->
<g id="edge15" class="edge"><title>Node10&#45;&gt;Node11</title>
<path fill="none" stroke="#9a32cd" stroke-dasharray="5,2" d="M442.858,-264.406C454.174,-261.277 466.506,-258.108 478,-255.66 523.909,-245.879 576.933,-238.219 614.414,-233.402"/>
<polygon fill="#9a32cd" stroke="#9a32cd" points="441.895,-261.041 433.223,-267.127 443.798,-267.778 441.895,-261.041"/>
<text text-anchor="middle" x="527" y="-258.66" font-family="Helvetica,sans-Serif" font-size="10.00"> elements</text>
</g>
<!-- Node10&#45;&gt;Node4 -->
<g id="edge25" class="edge"><title>Node10&#45;&gt;Node4</title>
<path fill="none" stroke="#9a32cd" stroke-dasharray="5,2" d="M456.538,-276.984C560.251,-277.602 783.304,-278.929 870.26,-279.447"/>
<polygon fill="#9a32cd" stroke="#9a32cd" points="456.306,-273.483 446.285,-276.923 456.264,-280.483 456.306,-273.483"/>
<text text-anchor="middle" x="664" y="-402.66" font-family="Helvetica,sans-Serif" font-size="10.00"> xCoords</text>
<text text-anchor="middle" x="664" y="-391.66" font-family="Helvetica,sans-Serif" font-size="10.00">activityCoefficientDer</text>
<text text-anchor="middle" x="664" y="-380.66" font-family="Helvetica,sans-Serif" font-size="10.00">activityCoefficients</text>
<text text-anchor="middle" x="664" y="-369.66" font-family="Helvetica,sans-Serif" font-size="10.00">transferenceNumberDerDer</text>
<text text-anchor="middle" x="664" y="-358.66" font-family="Helvetica,sans-Serif" font-size="10.00">concentrationDiffusionDerDer</text>
<text text-anchor="middle" x="664" y="-347.66" font-family="Helvetica,sans-Serif" font-size="10.00">activityCoefficientDerDer</text>
<text text-anchor="start" x="594.5" y="-336.66" font-family="Helvetica,sans-Serif" font-size="10.00">diffusionElectrolyteConductivity</text>
<text text-anchor="middle" x="664" y="-325.66" font-family="Helvetica,sans-Serif" font-size="10.00">Der</text>
<text text-anchor="middle" x="664" y="-314.66" font-family="Helvetica,sans-Serif" font-size="10.00">transferenceNumber</text>
<text text-anchor="middle" x="664" y="-303.66" font-family="Helvetica,sans-Serif" font-size="10.00">concentrationDiffusionDer</text>
<text text-anchor="middle" x="664" y="-292.66" font-family="Helvetica,sans-Serif" font-size="10.00">openCircuitPotentialVector</text>
<text text-anchor="middle" x="664" y="-281.66" font-family="Helvetica,sans-Serif" font-size="10.00">...</text>
</g>
<!-- Node11&#45;&gt;Node4 -->
<g id="edge14" class="edge"><title>Node11&#45;&gt;Node4</title>
<path fill="none" stroke="#9a32cd" stroke-dasharray="5,2" d="M724.063,-231.774C761.339,-235.446 810.178,-242.248 852,-254.66 864.677,-258.422 878.177,-264.672 888.508,-269.981"/>
<polygon fill="#9a32cd" stroke="#9a32cd" points="724.153,-228.267 713.871,-230.819 723.501,-235.236 724.153,-228.267"/>
<text text-anchor="middle" x="802" y="-257.66" font-family="Helvetica,sans-Serif" font-size="10.00"> inputDataVector</text>
</g>
<!-- Node12&#45;&gt;Node4 -->
<g id="edge17" class="edge"><title>Node12&#45;&gt;Node4</title>
<path fill="none" stroke="#9a32cd" stroke-dasharray="5,2" d="M573.349,-170.405C615.502,-168.502 679.765,-168.477 734,-180.66 789.744,-193.182 803.816,-200.959 852,-231.66 869.349,-242.714 886.631,-259.304 896.812,-269.801"/>
<polygon fill="#9a32cd" stroke="#9a32cd" points="572.938,-166.921 563.128,-170.923 573.292,-173.912 572.938,-166.921"/>
<text text-anchor="middle" x="664" y="-194.66" font-family="Helvetica,sans-Serif" font-size="10.00"> iFirstGlobalDevice</text>
<text text-anchor="middle" x="664" y="-183.66" font-family="Helvetica,sans-Serif" font-size="10.00">iLastGlobalDevice</text>
</g>
<!-- Node13&#45;&gt;Node4 -->
<g id="edge19" class="edge"><title>Node13&#45;&gt;Node4</title>
<path fill="none" stroke="#9a32cd" stroke-dasharray="5,2" d="M469.918,-115.474C565.307,-103.708 739.825,-97.0803 852,-181.66 882.556,-204.699 898.062,-250.313 903.586,-270.114"/>
<polygon fill="#9a32cd" stroke="#9a32cd" points="469.284,-112.027 459.813,-116.776 470.179,-118.969 469.284,-112.027"/>
<text text-anchor="middle" x="664" y="-129.66" font-family="Helvetica,sans-Serif" font-size="10.00"> jacobian</text>
</g>
<!-- Node14&#45;&gt;Node4 -->
<g id="edge21" class="edge"><title>Node14&#45;&gt;Node4</title>
<path fill="none" stroke="#9a32cd" stroke-dasharray="5,2" d="M703.087,-64.521C744.248,-53.9604 809.623,-44.9427 852,-77.6598 883.535,-102.007 900.692,-233.107 904.943,-269.996"/>
<polygon fill="#9a32cd" stroke="#9a32cd" points="702.161,-61.1458 693.426,-67.1422 703.994,-67.9015 702.161,-61.1458"/>
<text text-anchor="middle" x="802" y="-102.66" font-family="Helvetica,sans-Serif" font-size="10.00"> inputDataIntString</text>
<text text-anchor="middle" x="802" y="-91.6598" font-family="Helvetica,sans-Serif" font-size="10.00">inputDataVectorString</text>
<text text-anchor="middle" x="802" y="-80.6598" font-family="Helvetica,sans-Serif" font-size="10.00">inputDataDoubleString</text>
</g>
<!-- Node15 -->
<g id="node15" class="node"><title>Node15</title>
<g id="a_node15"><a xlink:title="STL class. ">
<polygon fill="none" stroke="#bfbfbf" points="380.5,-15.1598 380.5,-34.1598 421.5,-34.1598 421.5,-15.1598 380.5,-15.1598"/>
<text text-anchor="middle" x="401" y="-22.1598" font-family="Helvetica,sans-Serif" font-size="10.00">string</text>
</a>
</g>
</g>
<!-- Node15&#45;&gt;Node14 -->
<g id="edge22" class="edge"><title>Node15&#45;&gt;Node14</title>
<path fill="none" stroke="#9a32cd" stroke-dasharray="5,2" d="M431.699,-28.1116C466.506,-32.4234 525.813,-40.6013 576,-51.6598 595.184,-55.8869 616.376,-61.9465 633.041,-67.0411"/>
<polygon fill="#9a32cd" stroke="#9a32cd" points="432.07,-24.631 421.721,-26.8987 431.225,-31.5799 432.07,-24.631"/>
<text text-anchor="middle" x="527" y="-54.6598" font-family="Helvetica,sans-Serif" font-size="10.00"> elements</text>
</g>
<!-- Node15&#45;&gt;Node2 -->
<g id="edge26" class="edge"><title>Node15&#45;&gt;Node2</title>
<path fill="none" stroke="#9a32cd" stroke-dasharray="5,2" d="M431.603,-18.5104C506.08,-4.51927 705.723,23.734 852,-40.6598 969.436,-92.3571 1058.91,-232.308 1081.47,-270.129"/>
<polygon fill="#9a32cd" stroke="#9a32cd" points="430.696,-15.121 421.544,-20.4585 432.027,-21.9933 430.696,-15.121"/>
<text text-anchor="middle" x="802" y="-43.6598" font-family="Helvetica,sans-Serif" font-size="10.00"> moduleName</text>
</g>
<!-- Node16 -->
<g id="node16" class="node"><title>Node16</title>
<g id="a_node16"><a xlink:title="STL class. ">
<polygon fill="none" stroke="#bfbfbf" points="110,-15.1598 110,-34.1598 216,-34.1598 216,-15.1598 110,-15.1598"/>
<text text-anchor="middle" x="163" y="-22.1598" font-family="Helvetica,sans-Serif" font-size="10.00">basic_string&lt; char &gt;</text>
</a>
</g>
</g>
<!-- Node16&#45;&gt;Node15 -->
<g id="edge23" class="edge"><title>Node16&#45;&gt;Node15</title>
<path fill="none" stroke="midnightblue" d="M226.404,-24.6598C277.673,-24.6598 347.093,-24.6598 380.479,-24.6598"/>
<polygon fill="midnightblue" stroke="midnightblue" points="226.083,-21.1599 216.083,-24.6598 226.083,-28.1599 226.083,-21.1599"/>
</g>
</g>
</svg>
        <g id="navigator" transform="translate(0 0)" fill="#404254">
                <rect fill="#f2f5e9" fill-opacity="0.5" stroke="#606060" stroke-width=".5" x="0" y="0" width="60" height="60"/>
                <use id="zoomplus" xlink:href="#zoomPlus" x="17" y="9" onmousedown="handleZoom(evt,'in')"/>
                <use id="zoomminus" xlink:href="#zoomMin" x="42" y="9" onmousedown="handleZoom(evt,'out')"/>
                <use id="reset" xlink:href="#resetDef" x="30" y="36" onmousedown="handleReset()"/>
                <g id="arrowUp" xlink:href="#dirArrow" transform="translate(30 24)" onmousedown="handlePan(0,-1)">
                  <use xlink:href="#rim" fill="#404040">
                        <set attributeName="fill" to="#808080" begin="arrowUp.mouseover" end="arrowUp.mouseout"/>
                  </use>
                  <path fill="none" stroke="white" stroke-width="1.5" d="M0,-3.0v7 M-2.5,-0.5L0,-3.0L2.5,-0.5"/>
                </g>
                <g id="arrowRight" xlink:href="#dirArrow" transform="rotate(90) translate(36 -43)" onmousedown="handlePan(1,0)">
                  <use xlink:href="#rim" fill="#404040">
                        <set attributeName="fill" to="#808080" begin="arrowRight.mouseover" end="arrowRight.mouseout"/>
                  </use>
                  <path fill="none" stroke="white" stroke-width="1.5" d="M0,-3.0v7 M-2.5,-0.5L0,-3.0L2.5,-0.5"/>
                </g>
                <g id="arrowDown" xlink:href="#dirArrow" transform="rotate(180) translate(-30 -48)" onmousedown="handlePan(0,1)">
                  <use xlink:href="#rim" fill="#404040">
                        <set attributeName="fill" to="#808080" begin="arrowDown.mouseover" end="arrowDown.mouseout"/>
                  </use>
                  <path fill="none" stroke="white" stroke-width="1.5" d="M0,-3.0v7 M-2.5,-0.5L0,-3.0L2.5,-0.5"/>
                </g>
                <g id="arrowLeft" xlink:href="#dirArrow" transform="rotate(270) translate(-36 17)" onmousedown="handlePan(-1,0)">
                  <use xlink:href="#rim" fill="#404040">
                        <set attributeName="fill" to="#808080" begin="arrowLeft.mouseover" end="arrowLeft.mouseout"/>
                  </use>
                  <path fill="none" stroke="white" stroke-width="1.5" d="M0,-3.0v7 M-2.5,-0.5L0,-3.0L2.5,-0.5"/>
                </g>
        </g>
        <svg viewBox="0 0 15 15" width="100%" height="30px" preserveAspectRatio="xMaxYMin meet">
         <g id="arrow_out" transform="scale(0.3 0.3)">
          <a xlink:href="classICED_1_1HalfCell_1_1ActivityCoefficient__coll__graph_org.svg" target="_base">
           <rect id="button" ry="5" rx="5" y="6" x="6" height="38" width="38"
                fill="#f2f5e9" fill-opacity="0.5" stroke="#606060" stroke-width="1.0"/>
           <path id="arrow"
             d="M 11.500037,31.436501 C 11.940474,20.09759 22.043105,11.32322 32.158766,21.979434 L 37.068811,17.246167 C 37.068811,17.246167 37.088388,32 37.088388,32 L 22.160133,31.978069 C 22.160133,31.978069 26.997745,27.140456 26.997745,27.140456 C 18.528582,18.264221 13.291696,25.230495 11.500037,31.436501 z"
             style="fill:#404040;"/>
          </a>
         </g>
        </svg>
</svg>
