<?xml version="1.0" encoding="UTF-8" standalone="no"?>
<!DOCTYPE svg PUBLIC "-//W3C//DTD SVG 1.1//EN"
 "http://www.w3.org/Graphics/SVG/1.1/DTD/svg11.dtd">
<!-- Generated by graphviz version 2.30.1 (20150305.2338)
 -->
<!-- Title: CopyDataFromComponents Pages: 1 -->
<!--zoomable 784 -->
<svg id="main" version="1.1" xmlns="http://www.w3.org/2000/svg" xmlns:xlink="http://www.w3.org/1999/xlink" xml:space="preserve" onload="init(evt)">
<style type="text/css"><![CDATA[
.edge:hover path { stroke: red; }
.edge:hover polygon { stroke: red; fill: red; }
]]></style>
<script type="text/javascript"><![CDATA[
var edges = document.getElementsByTagName('g');
if (edges && edges.length) {
  for (var i=0;i<edges.length;i++) {
    if (edges[i].id.substr(0,4)=='edge') {
      edges[i].setAttribute('class','edge');
    }
  }
}
]]></script>
        <defs>
                <circle id="rim" cx="0" cy="0" r="7"/>
                <circle id="rim2" cx="0" cy="0" r="3.5"/>
                <g id="zoomPlus">
                        <use xlink:href="#rim" fill="#404040">
                                <set attributeName="fill" to="#808080" begin="zoomplus.mouseover" end="zoomplus.mouseout"/>
                        </use>
                        <path d="M-4,0h8M0,-4v8" fill="none" stroke="white" stroke-width="1.5" pointer-events="none"/>
                </g>
                <g id="zoomMin">
                        <use xlink:href="#rim" fill="#404040">
                                <set attributeName="fill" to="#808080" begin="zoomminus.mouseover" end="zoomminus.mouseout"/>
                        </use>
                        <path d="M-4,0h8" fill="none" stroke="white" stroke-width="1.5" pointer-events="none"/>
                </g>
                <g id="dirArrow">
                        <path fill="none" stroke="white" stroke-width="1.5" d="M0,-3.0v7 M-2.5,-0.5L0,-3.0L2.5,-0.5"/>
                </g>
               <g id="resetDef">
                       <use xlink:href="#rim2" fill="#404040">
                               <set attributeName="fill" to="#808080" begin="reset.mouseover" end="reset.mouseout"/>
                       </use>
               </g>
        </defs>

<script type="text/javascript">
var viewWidth = 1050;
var viewHeight = 784;
var sectionId = 'dynsection-0';
</script>
<script xlink:href="svgpan.js"/>
<svg id="graph" class="graph">
<g id="viewport">
<title>CopyDataFromComponents</title>
<!-- Node1 -->
<g id="node1" class="node"><title>Node1</title>
<polygon fill="#bfbfbf" stroke="black" points="0.5,-186.855 0.5,-205.855 139.5,-205.855 139.5,-186.855 0.5,-186.855"/>
<text text-anchor="middle" x="70" y="-193.855" font-family="Helvetica,sans-Serif" font-size="10.00">CopyDataFromComponents</text>
</g>
<!-- Node2 -->
<g id="node2" class="node"><title>Node2</title>
<g id="a_node2"><a xlink:href="classICED_1_1HalfCell_1_1DeviceData_ac62391584f55efe6bd7916ebf7d2e92b.html#ac62391584f55efe6bd7916ebf7d2e92b" target="_top" xlink:title="Initialization of the entire device data structure. ">
<polygon fill="none" stroke="black" points="190.5,-347.855 190.5,-366.855 259.5,-366.855 259.5,-347.855 190.5,-347.855"/>
<text text-anchor="middle" x="225" y="-354.855" font-family="Helvetica,sans-Serif" font-size="10.00">BuildDevice</text>
</a>
</g>
</g>
<!-- Node1&#45;&gt;Node2 -->
<g id="edge1" class="edge"><title>Node1&#45;&gt;Node2</title>
<path fill="none" stroke="midnightblue" d="M87.3954,-213.607C119.461,-247.35 189.541,-321.093 214.742,-347.612"/>
<polygon fill="midnightblue" stroke="midnightblue" points="89.5385,-210.782 80.1127,-205.944 84.4642,-215.604 89.5385,-210.782"/>
</g>
<!-- Node25 -->
<g id="node25" class="node"><title>Node25</title>
<g id="a_node25"><a xlink:href="classICED_1_1HalfCell_1_1DeviceData_abfc95c2242f9ac494780fb529489fd00.html#abfc95c2242f9ac494780fb529489fd00" target="_top" xlink:title="Compute the device level evaluation function. ">
<polygon fill="none" stroke="black" points="176.5,-148.855 176.5,-167.855 273.5,-167.855 273.5,-148.855 176.5,-148.855"/>
<text text-anchor="middle" x="225" y="-155.855" font-family="Helvetica,sans-Serif" font-size="10.00">DeviceAssembleF</text>
</a>
</g>
</g>
<!-- Node1&#45;&gt;Node25 -->
<g id="edge53" class="edge"><title>Node1&#45;&gt;Node25</title>
<path fill="none" stroke="midnightblue" d="M119.477,-184.315C140.852,-179.006 165.613,-172.856 185.669,-167.875"/>
<polygon fill="midnightblue" stroke="midnightblue" points="118.47,-180.958 109.608,-186.766 120.157,-187.752 118.47,-180.958"/>
</g>
<!-- Node17 -->
<g id="node17" class="node"><title>Node17</title>
<g id="a_node17"><a xlink:href="classICED_1_1TestingObject_a43dbcae20e4ab6f8b30751e9b5e5b2c2.html#a43dbcae20e4ab6f8b30751e9b5e5b2c2" target="_top" xlink:title="Test for ICED::DeviceDataMapping. ">
<polygon fill="none" stroke="black" points="310.5,-58.3546 310.5,-88.3546 451.5,-88.3546 451.5,-58.3546 310.5,-58.3546"/>
<text text-anchor="start" x="318.5" y="-76.3546" font-family="Helvetica,sans-Serif" font-size="10.00">ICED::TestingObject</text>
<text text-anchor="middle" x="381" y="-65.3546" font-family="Helvetica,sans-Serif" font-size="10.00">::Test__DeviceDataMapping</text>
</a>
</g>
</g>
<!-- Node1&#45;&gt;Node17 -->
<g id="edge54" class="edge"><title>Node1&#45;&gt;Node17</title>
<path fill="none" stroke="midnightblue" d="M148.029,-206.327C188.803,-207.62 237.783,-202.434 274,-177.355 304.068,-156.532 283.526,-128.59 310,-103.355 316.316,-97.3336 324.029,-92.4231 331.997,-88.4508"/>
<polygon fill="midnightblue" stroke="midnightblue" points="148,-202.822 137.852,-205.866 147.684,-209.815 148,-202.822"/>
</g>
<!-- Node3 -->
<g id="node3" class="node"><title>Node3</title>
<g id="a_node3"><a xlink:href="classICED_1_1TestingObject_a7995a39337d2ec045b02982b1b346b28.html#a7995a39337d2ec045b02982b1b346b28" target="_top" xlink:title="Function called by Test__Intercalation. ">
<polygon fill="none" stroke="black" points="318.5,-184.355 318.5,-214.355 443.5,-214.355 443.5,-184.355 318.5,-184.355"/>
<text text-anchor="start" x="326.5" y="-202.355" font-family="Helvetica,sans-Serif" font-size="10.00">ICED::TestingObject</text>
<text text-anchor="middle" x="381" y="-191.355" font-family="Helvetica,sans-Serif" font-size="10.00">::RunIntercalationModule</text>
</a>
</g>
</g>
<!-- Node2&#45;&gt;Node3 -->
<g id="edge2" class="edge"><title>Node2&#45;&gt;Node3</title>
<path fill="none" stroke="midnightblue" d="M234.117,-338.336C246.697,-310.883 273.328,-260.084 310,-229.355 317.094,-223.41 325.542,-218.473 334.074,-214.438"/>
<polygon fill="midnightblue" stroke="midnightblue" points="230.853,-337.064 229.992,-347.624 237.25,-339.905 230.853,-337.064"/>
</g>
<!-- Node10 -->
<g id="node10" class="node"><title>Node10</title>
<g id="a_node10"><a xlink:href="classICED_1_1TestingObject_aea517fa85afb367c872ce72c26a0d643.html#aea517fa85afb367c872ce72c26a0d643" target="_top" xlink:title="Test for ICED::ActivitCoefficient module. ">
<polygon fill="none" stroke="black" points="517.5,-86.3546 517.5,-116.355 650.5,-116.355 650.5,-86.3546 517.5,-86.3546"/>
<text text-anchor="start" x="525.5" y="-104.355" font-family="Helvetica,sans-Serif" font-size="10.00">ICED::TestingObject</text>
<text text-anchor="middle" x="584" y="-93.3546" font-family="Helvetica,sans-Serif" font-size="10.00">::Test__ActivityCoefficient</text>
</a>
</g>
</g>
<!-- Node2&#45;&gt;Node10 -->
<g id="edge10" class="edge"><title>Node2&#45;&gt;Node10</title>
<path fill="none" stroke="midnightblue" d="M229.415,-337.519C236.949,-299.902 258.587,-218.061 310,-174.355 318.2,-167.384 443.46,-135.662 521.426,-116.402"/>
<polygon fill="midnightblue" stroke="midnightblue" points="225.912,-337.208 227.512,-347.682 232.792,-338.497 225.912,-337.208"/>
</g>
<!-- Node11 -->
<g id="node11" class="node"><title>Node11</title>
<g id="a_node11"><a xlink:href="classICED_1_1TestingObject_a2f898efd73e9aaf601f0733cb31fc340.html#a2f898efd73e9aaf601f0733cb31fc340" target="_top" xlink:title="Test for ICED::ButlerVolmer. ">
<polygon fill="none" stroke="black" points="529.5,-37.3546 529.5,-67.3546 638.5,-67.3546 638.5,-37.3546 529.5,-37.3546"/>
<text text-anchor="start" x="537.5" y="-55.3546" font-family="Helvetica,sans-Serif" font-size="10.00">ICED::TestingObject</text>
<text text-anchor="middle" x="584" y="-44.3546" font-family="Helvetica,sans-Serif" font-size="10.00">::Test__ButlerVolmer</text>
</a>
</g>
</g>
<!-- Node2&#45;&gt;Node11 -->
<g id="edge13" class="edge"><title>Node2&#45;&gt;Node11</title>
<path fill="none" stroke="midnightblue" d="M231.988,-338.164C248.354,-286.221 293.692,-145.802 310,-131.355 358.575,-88.3216 391.772,-121.518 452,-97.3546 469.191,-90.4574 470.852,-83.3586 488,-76.3546 501.071,-71.0158 515.653,-66.616 529.391,-63.1076"/>
<polygon fill="midnightblue" stroke="midnightblue" points="228.61,-337.239 228.957,-347.828 235.29,-339.334 228.61,-337.239"/>
</g>
<!-- Node12 -->
<g id="node12" class="node"><title>Node12</title>
<g id="a_node12"><a xlink:href="classICED_1_1TestingObject_a7bac98c894f8cfff372d495eae083cd5.html#a7bac98c894f8cfff372d495eae083cd5" target="_top" xlink:title="Tests the input file error checking functions using testModule and a generated &quot;bad&quot; input file...">
<polygon fill="none" stroke="black" points="315,-654.355 315,-684.355 447,-684.355 447,-654.355 315,-654.355"/>
<text text-anchor="start" x="323" y="-672.355" font-family="Helvetica,sans-Serif" font-size="10.00">ICED::TestingObject</text>
<text text-anchor="middle" x="381" y="-661.355" font-family="Helvetica,sans-Serif" font-size="10.00">::Test__CheckParamsBad</text>
</a>
</g>
</g>
<!-- Node2&#45;&gt;Node12 -->
<g id="edge16" class="edge"><title>Node2&#45;&gt;Node12</title>
<path fill="none" stroke="midnightblue" d="M228.053,-377.081C233.726,-423.474 253.154,-541.454 310,-619.355 320.564,-633.831 336.605,-645.723 350.668,-654.271"/>
<polygon fill="midnightblue" stroke="midnightblue" points="231.502,-376.435 226.893,-366.896 224.547,-377.228 231.502,-376.435"/>
</g>
<!-- Node13 -->
<g id="node13" class="node"><title>Node13</title>
<g id="a_node13"><a xlink:href="classICED_1_1TestingObject_afedc7e682315a3e766d614e09631ab04.html#afedc7e682315a3e766d614e09631ab04" target="_top" xlink:title="Tests the input file error checking functions using testModule and a generated &quot;good&quot; input file...">
<polygon fill="none" stroke="black" points="312,-744.355 312,-774.355 450,-774.355 450,-744.355 312,-744.355"/>
<text text-anchor="start" x="320" y="-762.355" font-family="Helvetica,sans-Serif" font-size="10.00">ICED::TestingObject</text>
<text text-anchor="middle" x="381" y="-751.355" font-family="Helvetica,sans-Serif" font-size="10.00">::Test__CheckParamsGood</text>
</a>
</g>
</g>
<!-- Node2&#45;&gt;Node13 -->
<g id="edge18" class="edge"><title>Node2&#45;&gt;Node13</title>
<path fill="none" stroke="midnightblue" d="M227.098,-377.171C230.879,-431.436 246.86,-585.565 310,-693.355 322.072,-713.964 342.5,-732.143 358.181,-744.175"/>
<polygon fill="midnightblue" stroke="midnightblue" points="230.573,-376.657 226.449,-366.897 223.587,-377.098 230.573,-376.657"/>
</g>
<!-- Node14 -->
<g id="node14" class="node"><title>Node14</title>
<g id="a_node14"><a xlink:href="classICED_1_1TestingObject_a8218a8aab213585d0fba3f2e1aa24b76.html#a8218a8aab213585d0fba3f2e1aa24b76" target="_top" xlink:title="Test for ICED::ComponentBoundaryConditions. ">
<polygon fill="none" stroke="black" points="488.5,-478.355 488.5,-508.355 679.5,-508.355 679.5,-478.355 488.5,-478.355"/>
<text text-anchor="start" x="496.5" y="-496.355" font-family="Helvetica,sans-Serif" font-size="10.00">ICED::TestingObject</text>
<text text-anchor="middle" x="584" y="-485.355" font-family="Helvetica,sans-Serif" font-size="10.00">::Test__ComponentBoundaryConditions</text>
</a>
</g>
</g>
<!-- Node2&#45;&gt;Node14 -->
<g id="edge20" class="edge"><title>Node2&#45;&gt;Node14</title>
<path fill="none" stroke="midnightblue" d="M243.587,-373.732C259.728,-387.946 284.882,-408.114 310,-420.355 367.885,-448.563 438.175,-467.035 492.935,-478.34"/>
<polygon fill="midnightblue" stroke="midnightblue" points="245.789,-371.005 236.015,-366.915 241.105,-376.207 245.789,-371.005"/>
</g>
<!-- Node15 -->
<g id="node15" class="node"><title>Node15</title>
<g id="a_node15"><a xlink:href="classICED_1_1TestingObject_a96409144efe94cf3e37a534e524c6e36.html#a96409144efe94cf3e37a534e524c6e36" target="_top" xlink:title="Test for ICED::ConcentrationDiffusion. ">
<polygon fill="none" stroke="black" points="508,-576.355 508,-606.355 660,-606.355 660,-576.355 508,-576.355"/>
<text text-anchor="start" x="516" y="-594.355" font-family="Helvetica,sans-Serif" font-size="10.00">ICED::TestingObject</text>
<text text-anchor="middle" x="584" y="-583.355" font-family="Helvetica,sans-Serif" font-size="10.00">::Test__ConcentrationDiffusion</text>
</a>
</g>
</g>
<!-- Node2&#45;&gt;Node15 -->
<g id="edge23" class="edge"><title>Node2&#45;&gt;Node15</title>
<path fill="none" stroke="midnightblue" d="M232.177,-376.742C243.028,-407.794 268.391,-468.702 310,-503.355 366.441,-550.36 448.471,-572.413 507.866,-582.662"/>
<polygon fill="midnightblue" stroke="midnightblue" points="235.44,-375.464 228.942,-367.096 228.804,-377.69 235.44,-375.464"/>
</g>
<!-- Node16 -->
<g id="node16" class="node"><title>Node16</title>
<g id="a_node16"><a xlink:href="classICED_1_1TestingObject_a20a3def5cfb0861690599ae120367987.html#a20a3def5cfb0861690599ae120367987" target="_top" xlink:title="Test for ICED::DeviceData. ">
<polygon fill="none" stroke="black" points="530,-429.355 530,-459.355 638,-459.355 638,-429.355 530,-429.355"/>
<text text-anchor="start" x="538" y="-447.355" font-family="Helvetica,sans-Serif" font-size="10.00">ICED::TestingObject</text>
<text text-anchor="middle" x="584" y="-436.355" font-family="Helvetica,sans-Serif" font-size="10.00">::Test__DeviceData</text>
</a>
</g>
</g>
<!-- Node2&#45;&gt;Node16 -->
<g id="edge26" class="edge"><title>Node2&#45;&gt;Node16</title>
<path fill="none" stroke="midnightblue" d="M257.766,-370.879C273.307,-377.127 292.414,-384.271 310,-389.355 385.127,-411.071 474.305,-427.302 529.785,-436.31"/>
<polygon fill="midnightblue" stroke="midnightblue" points="258.701,-367.48 248.12,-366.933 256.05,-373.959 258.701,-367.48"/>
</g>
<!-- Node2&#45;&gt;Node17 -->
<g id="edge29" class="edge"><title>Node2&#45;&gt;Node17</title>
<path fill="none" stroke="midnightblue" d="M232.291,-338.159C251.628,-279.177 308.956,-104.492 310,-103.355 315.543,-97.3156 322.508,-92.4421 329.879,-88.5238"/>
<polygon fill="midnightblue" stroke="midnightblue" points="228.934,-337.165 229.145,-347.757 235.585,-339.345 228.934,-337.165"/>
</g>
<!-- Node18 -->
<g id="node18" class="node"><title>Node18</title>
<g id="a_node18"><a xlink:href="classICED_1_1TestingObject_a06cf16fc934c4e87f6886a7beb771b0e.html#a06cf16fc934c4e87f6886a7beb771b0e" target="_top" xlink:title="Test for ICED::Diffusion module. ">
<polygon fill="none" stroke="black" points="530,-331.355 530,-361.355 638,-361.355 638,-331.355 530,-331.355"/>
<text text-anchor="start" x="538" y="-349.355" font-family="Helvetica,sans-Serif" font-size="10.00">ICED::TestingObject</text>
<text text-anchor="middle" x="584" y="-338.355" font-family="Helvetica,sans-Serif" font-size="10.00">::Test__Diffusion</text>
</a>
</g>
</g>
<!-- Node2&#45;&gt;Node18 -->
<g id="edge32" class="edge"><title>Node2&#45;&gt;Node18</title>
<path fill="none" stroke="midnightblue" d="M269.586,-356.012C335.118,-353.992 458.875,-350.179 529.689,-347.997"/>
<polygon fill="midnightblue" stroke="midnightblue" points="269.473,-352.513 259.586,-356.32 269.689,-359.51 269.473,-352.513"/>
</g>
<!-- Node19 -->
<g id="node19" class="node"><title>Node19</title>
<g id="a_node19"><a xlink:href="classICED_1_1TestingObject_af46c6cb015fb4151707a8c08084f4525.html#af46c6cb015fb4151707a8c08084f4525" target="_top" xlink:title="Test for ICED::IonMigration module. ">
<polygon fill="none" stroke="black" points="530,-282.355 530,-312.355 638,-312.355 638,-282.355 530,-282.355"/>
<text text-anchor="start" x="538" y="-300.355" font-family="Helvetica,sans-Serif" font-size="10.00">ICED::TestingObject</text>
<text text-anchor="middle" x="584" y="-289.355" font-family="Helvetica,sans-Serif" font-size="10.00">::Test__IonMigration</text>
</a>
</g>
</g>
<!-- Node2&#45;&gt;Node19 -->
<g id="edge35" class="edge"><title>Node2&#45;&gt;Node19</title>
<path fill="none" stroke="midnightblue" d="M269.586,-350.029C335.118,-339.015 458.875,-318.216 529.689,-306.314"/>
<polygon fill="midnightblue" stroke="midnightblue" points="268.867,-346.601 259.586,-351.71 270.028,-353.504 268.867,-346.601"/>
</g>
<!-- Node20 -->
<g id="node20" class="node"><title>Node20</title>
<g id="a_node20"><a xlink:href="classICED_1_1TestingObject_a263e8cc9d4d10cb3b749c8946ebcae72.html#a263e8cc9d4d10cb3b749c8946ebcae72" target="_top" xlink:title="Test for ICED::DeviceComponent. ">
<polygon fill="none" stroke="black" points="526.5,-380.355 526.5,-410.355 641.5,-410.355 641.5,-380.355 526.5,-380.355"/>
<text text-anchor="start" x="534.5" y="-398.355" font-family="Helvetica,sans-Serif" font-size="10.00">ICED::TestingObject</text>
<text text-anchor="middle" x="584" y="-387.355" font-family="Helvetica,sans-Serif" font-size="10.00">::Test__ModulePriority</text>
</a>
</g>
</g>
<!-- Node2&#45;&gt;Node20 -->
<g id="edge38" class="edge"><title>Node2&#45;&gt;Node20</title>
<path fill="none" stroke="midnightblue" d="M269.602,-362.682C282.595,-364.233 296.87,-365.9 310,-367.355 384.702,-375.631 471.002,-384.34 526.241,-389.805"/>
<polygon fill="midnightblue" stroke="midnightblue" points="269.849,-359.187 259.503,-361.47 269.015,-366.137 269.849,-359.187"/>
</g>
<!-- Node21 -->
<g id="node21" class="node"><title>Node21</title>
<g id="a_node21"><a xlink:href="classICED_1_1TestingObject_a4f825a89973b92c36e2fe2cbe6a653a0.html#a4f825a89973b92c36e2fe2cbe6a653a0" target="_top" xlink:title="Test for ICED::OhmsLawElectrolyte. ">
<polygon fill="none" stroke="black" points="512.5,-233.355 512.5,-263.355 655.5,-263.355 655.5,-233.355 512.5,-233.355"/>
<text text-anchor="start" x="520.5" y="-251.355" font-family="Helvetica,sans-Serif" font-size="10.00">ICED::TestingObject</text>
<text text-anchor="middle" x="584" y="-240.355" font-family="Helvetica,sans-Serif" font-size="10.00">::Test__OhmsLawElectrolyte</text>
</a>
</g>
</g>
<!-- Node2&#45;&gt;Node21 -->
<g id="edge41" class="edge"><title>Node2&#45;&gt;Node21</title>
<path fill="none" stroke="midnightblue" d="M251.835,-342.988C268.142,-334.366 289.859,-323.686 310,-316.355 377.011,-291.962 456.382,-273.275 512.22,-261.719"/>
<polygon fill="midnightblue" stroke="midnightblue" points="250.063,-339.967 242.912,-347.785 253.378,-346.132 250.063,-339.967"/>
</g>
<!-- Node22 -->
<g id="node22" class="node"><title>Node22</title>
<g id="a_node22"><a xlink:href="classICED_1_1TestingObject_ab656a16700e242a40e0b21d7693a6ae0.html#ab656a16700e242a40e0b21d7693a6ae0" target="_top" xlink:title="Test for ICED::OhmsLawSolid. ">
<polygon fill="none" stroke="black" points="524.5,-625.355 524.5,-655.355 643.5,-655.355 643.5,-625.355 524.5,-625.355"/>
<text text-anchor="start" x="532.5" y="-643.355" font-family="Helvetica,sans-Serif" font-size="10.00">ICED::TestingObject</text>
<text text-anchor="middle" x="584" y="-632.355" font-family="Helvetica,sans-Serif" font-size="10.00">::Test__OhmsLawSolid</text>
</a>
</g>
</g>
<!-- Node2&#45;&gt;Node22 -->
<g id="edge44" class="edge"><title>Node2&#45;&gt;Node22</title>
<path fill="none" stroke="midnightblue" d="M229.171,-376.943C236.441,-415.655 257.873,-502.435 310,-551.355 369.16,-606.875 463.437,-627.773 524.27,-635.631"/>
<polygon fill="midnightblue" stroke="midnightblue" points="232.596,-376.209 227.416,-366.966 225.702,-377.422 232.596,-376.209"/>
</g>
<!-- Node23 -->
<g id="node23" class="node"><title>Node23</title>
<g id="a_node23"><a xlink:href="classICED_1_1TestingObject_aacdc6512e5ce8094c62997f4d1f02634.html#aacdc6512e5ce8094c62997f4d1f02634" target="_top" xlink:title="Test for ICED::TransferenceNumber. ">
<polygon fill="none" stroke="black" points="512,-527.355 512,-557.355 656,-557.355 656,-527.355 512,-527.355"/>
<text text-anchor="start" x="520" y="-545.355" font-family="Helvetica,sans-Serif" font-size="10.00">ICED::TestingObject</text>
<text text-anchor="middle" x="584" y="-534.355" font-family="Helvetica,sans-Serif" font-size="10.00">::Test__TransferenceNumber</text>
</a>
</g>
</g>
<!-- Node2&#45;&gt;Node23 -->
<g id="edge47" class="edge"><title>Node2&#45;&gt;Node23</title>
<path fill="none" stroke="midnightblue" d="M236.637,-375.555C250.697,-398.091 277.522,-436.204 310,-458.355 371.042,-499.986 453.509,-521.612 511.782,-532.416"/>
<polygon fill="midnightblue" stroke="midnightblue" points="239.592,-373.678 231.414,-366.942 233.607,-377.307 239.592,-373.678"/>
</g>
<!-- Node24 -->
<g id="node24" class="node"><title>Node24</title>
<g id="a_node24"><a xlink:href="classICED_1_1TestingObject_a9bbc638a5bd612413bdd4c03b6c66d0c.html#a9bbc638a5bd612413bdd4c03b6c66d0c" target="_top" xlink:title="Test for ICED::wallFlux. ">
<polygon fill="none" stroke="black" points="530,-184.355 530,-214.355 638,-214.355 638,-184.355 530,-184.355"/>
<text text-anchor="start" x="538" y="-202.355" font-family="Helvetica,sans-Serif" font-size="10.00">ICED::TestingObject</text>
<text text-anchor="middle" x="584" y="-191.355" font-family="Helvetica,sans-Serif" font-size="10.00">::Test__WallFlux</text>
</a>
</g>
</g>
<!-- Node2&#45;&gt;Node24 -->
<g id="edge50" class="edge"><title>Node2&#45;&gt;Node24</title>
<path fill="none" stroke="midnightblue" d="M238.693,-339.854C253.627,-320.52 280.195,-289.817 310,-272.355 347.092,-250.623 461.338,-224.434 529.72,-210.075"/>
<polygon fill="midnightblue" stroke="midnightblue" points="235.894,-337.753 232.681,-347.849 241.488,-341.961 235.894,-337.753"/>
</g>
<!-- Node4 -->
<g id="node4" class="node"><title>Node4</title>
<g id="a_node4"><a xlink:href="classICED_1_1TestingObject_adcd8b620aa1ea5a579a671ac15b5620b.html#adcd8b620aa1ea5a579a671ac15b5620b" target="_top" xlink:title="Test for ICED::Intercalation. ">
<polygon fill="none" stroke="black" points="530,-135.355 530,-165.355 638,-165.355 638,-135.355 530,-135.355"/>
<text text-anchor="start" x="538" y="-153.355" font-family="Helvetica,sans-Serif" font-size="10.00">ICED::TestingObject</text>
<text text-anchor="middle" x="584" y="-142.355" font-family="Helvetica,sans-Serif" font-size="10.00">::Test__Intercalation</text>
</a>
</g>
</g>
<!-- Node3&#45;&gt;Node4 -->
<g id="edge3" class="edge"><title>Node3&#45;&gt;Node4</title>
<path fill="none" stroke="midnightblue" d="M453.542,-181.914C478.72,-175.776 506.548,-168.992 529.931,-163.292"/>
<polygon fill="midnightblue" stroke="midnightblue" points="452.559,-178.551 443.673,-184.32 454.217,-185.352 452.559,-178.551"/>
</g>
<!-- Node5 -->
<g id="node5" class="node"><title>Node5</title>
<g id="a_node5"><a xlink:href="classICED_1_1TestingObject_a046f7ab06db0acf616b0d2bf3d3146aa.html#a046f7ab06db0acf616b0d2bf3d3146aa" target="_top" xlink:title="Runs all tests implemented by the ICED::TestingObject. ">
<polygon fill="none" stroke="black" points="716,-380.355 716,-410.355 824,-410.355 824,-380.355 716,-380.355"/>
<text text-anchor="start" x="724" y="-398.355" font-family="Helvetica,sans-Serif" font-size="10.00">ICED::TestingObject</text>
<text text-anchor="middle" x="770" y="-387.355" font-family="Helvetica,sans-Serif" font-size="10.00">::Process</text>
</a>
</g>
</g>
<!-- Node4&#45;&gt;Node5 -->
<g id="edge4" class="edge"><title>Node4&#45;&gt;Node5</title>
<path fill="none" stroke="midnightblue" d="M648.032,-155.658C660.022,-159.382 671.468,-165.242 680,-174.355 740.533,-239.008 661.988,-300.161 716,-370.355 718.978,-374.225 722.703,-377.523 726.789,-380.327"/>
<polygon fill="midnightblue" stroke="midnightblue" points="648.908,-152.269 638.346,-153.108 647.126,-159.038 648.908,-152.269"/>
</g>
<!-- Node8 -->
<g id="node8" class="node"><title>Node8</title>
<g id="a_node8"><a xlink:href="classICED_1_1TestingObject_af1f07f14b9af7708e4264bb38937eed2.html#af1f07f14b9af7708e4264bb38937eed2" target="_top" xlink:title="Runs a test specified by name. ">
<polygon fill="none" stroke="black" points="716,-331.355 716,-361.355 824,-361.355 824,-331.355 716,-331.355"/>
<text text-anchor="start" x="724" y="-349.355" font-family="Helvetica,sans-Serif" font-size="10.00">ICED::TestingObject</text>
<text text-anchor="middle" x="770" y="-338.355" font-family="Helvetica,sans-Serif" font-size="10.00">::RunTest</text>
</a>
</g>
</g>
<!-- Node4&#45;&gt;Node8 -->
<g id="edge7" class="edge"><title>Node4&#45;&gt;Node8</title>
<path fill="none" stroke="midnightblue" d="M648.374,-158.416C659.714,-161.982 670.824,-167.079 680,-174.355 732.692,-216.132 757.374,-297.613 765.651,-331.261"/>
<polygon fill="midnightblue" stroke="midnightblue" points="648.962,-154.948 638.392,-155.661 647.1,-161.695 648.962,-154.948"/>
</g>
<!-- Node6 -->
<g id="node6" class="node"><title>Node6</title>
<g id="a_node6"><a xlink:href="namespaceICED_acf52cefdb153ca8751acb1e183d3a405.html#acf52cefdb153ca8751acb1e183d3a405" target="_top" xlink:title="Drives the ICED::TestObject. ">
<polygon fill="none" stroke="black" points="880.5,-382.855 880.5,-401.855 947.5,-401.855 947.5,-382.855 880.5,-382.855"/>
<text text-anchor="middle" x="914" y="-389.855" font-family="Helvetica,sans-Serif" font-size="10.00">ICED::Test</text>
</a>
</g>
</g>
<!-- Node5&#45;&gt;Node6 -->
<g id="edge5" class="edge"><title>Node5&#45;&gt;Node6</title>
<path fill="none" stroke="midnightblue" d="M834.6,-394.011C850.467,-393.676 866.831,-393.33 880.478,-393.042"/>
<polygon fill="midnightblue" stroke="midnightblue" points="834.203,-390.518 824.28,-394.229 834.351,-397.517 834.203,-390.518"/>
</g>
<!-- Node7 -->
<g id="node7" class="node"><title>Node7</title>
<g id="a_node7"><a xlink:href="TestICED_8C_a0ddf1224851353fc92bfbff6f499fa97.html#a0ddf1224851353fc92bfbff6f499fa97" target="_top" xlink:title="main">
<polygon fill="none" stroke="black" points="1004,-382.855 1004,-401.855 1042,-401.855 1042,-382.855 1004,-382.855"/>
<text text-anchor="middle" x="1023" y="-389.855" font-family="Helvetica,sans-Serif" font-size="10.00">main</text>
</a>
</g>
</g>
<!-- Node6&#45;&gt;Node7 -->
<g id="edge6" class="edge"><title>Node6&#45;&gt;Node7</title>
<path fill="none" stroke="midnightblue" d="M957.939,-392.355C973.927,-392.355 991.225,-392.355 1003.81,-392.355"/>
<polygon fill="midnightblue" stroke="midnightblue" points="957.685,-388.855 947.685,-392.355 957.685,-395.855 957.685,-388.855"/>
</g>
<!-- Node9 -->
<g id="node9" class="node"><title>Node9</title>
<g id="a_node9"><a xlink:href="classICED_1_1TestingObject_a21159bd2efac623e5a5079f6a20f3444.html#a21159bd2efac623e5a5079f6a20f3444" target="_top" xlink:title="Runs a list of tests specified by name. ">
<polygon fill="none" stroke="black" points="860,-331.355 860,-361.355 968,-361.355 968,-331.355 860,-331.355"/>
<text text-anchor="start" x="868" y="-349.355" font-family="Helvetica,sans-Serif" font-size="10.00">ICED::TestingObject</text>
<text text-anchor="middle" x="914" y="-338.355" font-family="Helvetica,sans-Serif" font-size="10.00">::ProcessTests</text>
</a>
</g>
</g>
<!-- Node8&#45;&gt;Node9 -->
<g id="edge8" class="edge"><title>Node8&#45;&gt;Node9</title>
<path fill="none" stroke="midnightblue" d="M834.517,-346.355C842.996,-346.355 851.618,-346.355 859.894,-346.355"/>
<polygon fill="midnightblue" stroke="midnightblue" points="834.28,-342.855 824.28,-346.355 834.28,-349.855 834.28,-342.855"/>
</g>
<!-- Node8&#45;&gt;Node6 -->
<g id="edge9" class="edge"><title>Node8&#45;&gt;Node6</title>
<path fill="none" stroke="midnightblue" d="M827.084,-364.523C846.316,-370.753 867.077,-377.478 883.373,-382.757"/>
<polygon fill="midnightblue" stroke="midnightblue" points="828.088,-361.169 817.496,-361.417 825.931,-367.828 828.088,-361.169"/>
</g>
<!-- Node10&#45;&gt;Node5 -->
<g id="edge11" class="edge"><title>Node10&#45;&gt;Node5</title>
<path fill="none" stroke="midnightblue" d="M660.48,-111.181C667.819,-114.7 674.548,-119.319 680,-125.355 753.772,-207.027 650.453,-281.944 716,-370.355 718.848,-374.196 722.436,-377.469 726.398,-380.254"/>
<polygon fill="midnightblue" stroke="midnightblue" points="661.489,-107.813 650.907,-107.286 658.851,-114.296 661.489,-107.813"/>
</g>
<!-- Node10&#45;&gt;Node8 -->
<g id="edge12" class="edge"><title>Node10&#45;&gt;Node8</title>
<path fill="none" stroke="midnightblue" d="M660.621,-113.197C667.651,-116.37 674.273,-120.355 680,-125.355 744.499,-181.663 762.881,-291.405 767.555,-331.353"/>
<polygon fill="midnightblue" stroke="midnightblue" points="661.414,-109.748 650.826,-109.355 658.858,-116.265 661.414,-109.748"/>
</g>
<!-- Node11&#45;&gt;Node5 -->
<g id="edge14" class="edge"><title>Node11&#45;&gt;Node5</title>
<path fill="none" stroke="midnightblue" d="M648.454,-57.2744C660.416,-61.0234 671.744,-66.9909 680,-76.3546 767.059,-175.099 638.876,-263.67 716,-370.355 718.742,-374.147 722.209,-377.384 726.054,-380.142"/>
<polygon fill="midnightblue" stroke="midnightblue" points="649.334,-53.8869 638.772,-54.721 647.549,-60.6554 649.334,-53.8869"/>
</g>
<!-- Node11&#45;&gt;Node8 -->
<g id="edge15" class="edge"><title>Node11&#45;&gt;Node8</title>
<path fill="none" stroke="midnightblue" d="M648.623,-59.0502C660.136,-62.7176 671.248,-68.2022 680,-76.3546 756.385,-147.503 767.304,-285.381 768.791,-331.165"/>
<polygon fill="midnightblue" stroke="midnightblue" points="649.469,-55.6532 638.899,-56.3784 647.614,-62.403 649.469,-55.6532"/>
</g>
<!-- Node12&#45;&gt;Node5 -->
<g id="edge17" class="edge"><title>Node12&#45;&gt;Node5</title>
<path fill="none" stroke="midnightblue" d="M421.616,-688.691C483.409,-715.754 603.566,-755.567 680,-698.355 727.952,-662.461 758.884,-467.107 766.917,-410.644"/>
<polygon fill="midnightblue" stroke="midnightblue" points="422.772,-685.373 412.215,-684.474 419.906,-691.76 422.772,-685.373"/>
</g>
<!-- Node13&#45;&gt;Node5 -->
<g id="edge19" class="edge"><title>Node13&#45;&gt;Node5</title>
<path fill="none" stroke="midnightblue" d="M460.212,-773.306C526.479,-780.416 620.028,-778.687 680,-727.355 729.869,-684.671 759.754,-470.159 767.173,-410.672"/>
<polygon fill="midnightblue" stroke="midnightblue" points="460.568,-769.824 450.231,-772.147 459.76,-776.777 460.568,-769.824"/>
</g>
<!-- Node14&#45;&gt;Node5 -->
<g id="edge21" class="edge"><title>Node14&#45;&gt;Node5</title>
<path fill="none" stroke="midnightblue" d="M665.658,-474.776C670.598,-472.83 675.418,-470.694 680,-468.355 709.544,-453.267 738.195,-427.052 754.689,-410.484"/>
<polygon fill="midnightblue" stroke="midnightblue" points="664.232,-471.571 656.042,-478.292 666.636,-478.145 664.232,-471.571"/>
</g>
<!-- Node14&#45;&gt;Node8 -->
<g id="edge22" class="edge"><title>Node14&#45;&gt;Node8</title>
<path fill="none" stroke="midnightblue" d="M674.689,-472.697C676.534,-471.339 678.309,-469.893 680,-468.355 714.327,-437.134 684.411,-404.343 716,-370.355 719.163,-366.951 722.901,-363.996 726.904,-361.438"/>
<polygon fill="midnightblue" stroke="midnightblue" points="672.744,-469.787 666.193,-478.114 676.507,-475.689 672.744,-469.787"/>
</g>
<!-- Node15&#45;&gt;Node5 -->
<g id="edge24" class="edge"><title>Node15&#45;&gt;Node5</title>
<path fill="none" stroke="midnightblue" d="M669.181,-573.604C672.993,-571.455 676.627,-569.049 680,-566.355 732.163,-524.677 757.075,-444.109 765.531,-410.576"/>
<polygon fill="midnightblue" stroke="midnightblue" points="667.404,-570.579 660.006,-578.164 670.519,-576.847 667.404,-570.579"/>
</g>
<!-- Node15&#45;&gt;Node8 -->
<g id="edge25" class="edge"><title>Node15&#45;&gt;Node8</title>
<path fill="none" stroke="midnightblue" d="M669.22,-575.449C673.146,-572.837 676.783,-569.825 680,-566.355 740.213,-501.403 661.444,-440.126 716,-370.355 718.675,-366.933 721.947,-363.984 725.54,-361.445"/>
<polygon fill="midnightblue" stroke="midnightblue" points="667.188,-572.578 660.211,-580.551 670.637,-578.669 667.188,-572.578"/>
</g>
<!-- Node16&#45;&gt;Node5 -->
<g id="edge27" class="edge"><title>Node16&#45;&gt;Node5</title>
<path fill="none" stroke="midnightblue" d="M647.98,-427.838C658.669,-425.019 669.654,-422.111 680,-419.355 691.598,-416.265 704.039,-412.925 715.834,-409.748"/>
<polygon fill="midnightblue" stroke="midnightblue" points="647.053,-424.463 638.275,-430.396 648.836,-431.232 647.053,-424.463"/>
</g>
<!-- Node16&#45;&gt;Node8 -->
<g id="edge28" class="edge"><title>Node16&#45;&gt;Node8</title>
<path fill="none" stroke="midnightblue" d="M647.906,-434.271C659.192,-430.706 670.402,-425.882 680,-419.355 702.345,-404.157 695.007,-387.372 716,-370.355 720.08,-367.047 724.69,-364.093 729.445,-361.485"/>
<polygon fill="midnightblue" stroke="midnightblue" points="646.666,-430.985 638.007,-437.09 648.584,-437.717 646.666,-430.985"/>
</g>
<!-- Node17&#45;&gt;Node5 -->
<g id="edge30" class="edge"><title>Node17&#45;&gt;Node5</title>
<path fill="none" stroke="midnightblue" d="M403.288,-96.2682C419.764,-115.528 441.488,-144.609 452,-174.355 470.19,-225.826 448.009,-627.194 488,-664.355 519.256,-693.398 645.415,-689.341 680,-664.355 764.931,-602.996 770.144,-457.52 769.499,-410.38"/>
<polygon fill="midnightblue" stroke="midnightblue" points="405.823,-93.8502 396.596,-88.6422 400.561,-98.4672 405.823,-93.8502"/>
</g>
<!-- Node17&#45;&gt;Node8 -->
<g id="edge31" class="edge"><title>Node17&#45;&gt;Node8</title>
<path fill="none" stroke="midnightblue" d="M416.459,-53.2038C476.464,-21.0522 601.242,32.4383 680,-27.3546 730.26,-65.5114 759.762,-272.755 767.153,-331.076"/>
<polygon fill="midnightblue" stroke="midnightblue" points="414.494,-50.2892 407.402,-58.1601 417.854,-56.4299 414.494,-50.2892"/>
</g>
<!-- Node18&#45;&gt;Node5 -->
<g id="edge33" class="edge"><title>Node18&#45;&gt;Node5</title>
<path fill="none" stroke="midnightblue" d="M648.026,-362.029C658.71,-364.757 669.681,-367.602 680,-370.355 691.786,-373.498 704.417,-376.978 716.354,-380.319"/>
<polygon fill="midnightblue" stroke="midnightblue" points="648.878,-358.634 638.324,-359.563 647.153,-365.418 648.878,-358.634"/>
</g>
<!-- Node18&#45;&gt;Node8 -->
<g id="edge34" class="edge"><title>Node18&#45;&gt;Node8</title>
<path fill="none" stroke="midnightblue" d="M648.46,-346.355C670.443,-346.355 694.838,-346.355 715.899,-346.355"/>
<polygon fill="midnightblue" stroke="midnightblue" points="648.22,-342.855 638.22,-346.355 648.22,-349.855 648.22,-342.855"/>
</g>
<!-- Node19&#45;&gt;Node5 -->
<g id="edge36" class="edge"><title>Node19&#45;&gt;Node5</title>
<path fill="none" stroke="midnightblue" d="M648.279,-306.834C659.435,-310.275 670.503,-314.964 680,-321.355 702.42,-336.441 695.14,-353.175 716,-370.355 720.476,-374.041 725.587,-377.325 730.827,-380.204"/>
<polygon fill="midnightblue" stroke="midnightblue" points="649.06,-303.419 638.488,-304.121 647.19,-310.165 649.06,-303.419"/>
</g>
<!-- Node19&#45;&gt;Node8 -->
<g id="edge37" class="edge"><title>Node19&#45;&gt;Node8</title>
<path fill="none" stroke="midnightblue" d="M648.026,-313.029C658.71,-315.757 669.681,-318.602 680,-321.355 691.786,-324.498 704.417,-327.978 716.354,-331.319"/>
<polygon fill="midnightblue" stroke="midnightblue" points="648.878,-309.634 638.324,-310.563 647.153,-316.418 648.878,-309.634"/>
</g>
<!-- Node20&#45;&gt;Node5 -->
<g id="edge39" class="edge"><title>Node20&#45;&gt;Node5</title>
<path fill="none" stroke="midnightblue" d="M651.882,-395.355C672.964,-395.355 695.951,-395.355 715.934,-395.355"/>
<polygon fill="midnightblue" stroke="midnightblue" points="651.707,-391.855 641.707,-395.355 651.707,-398.855 651.707,-391.855"/>
</g>
<!-- Node20&#45;&gt;Node8 -->
<g id="edge40" class="edge"><title>Node20&#45;&gt;Node8</title>
<path fill="none" stroke="midnightblue" d="M651.435,-377.927C661.022,-375.396 670.766,-372.815 680,-370.355 691.598,-367.265 704.039,-363.925 715.834,-360.748"/>
<polygon fill="midnightblue" stroke="midnightblue" points="650.305,-374.605 641.528,-380.539 652.09,-381.373 650.305,-374.605"/>
</g>
<!-- Node21&#45;&gt;Node5 -->
<g id="edge42" class="edge"><title>Node21&#45;&gt;Node5</title>
<path fill="none" stroke="midnightblue" d="M665.16,-262.167C670.518,-264.982 675.546,-268.344 680,-272.355 714.481,-303.405 684.676,-336.121 716,-370.355 719.503,-374.183 723.713,-377.477 728.21,-380.3"/>
<polygon fill="midnightblue" stroke="midnightblue" points="666.422,-258.896 655.871,-257.928 663.515,-265.264 666.422,-258.896"/>
</g>
<!-- Node21&#45;&gt;Node8 -->
<g id="edge43" class="edge"><title>Node21&#45;&gt;Node8</title>
<path fill="none" stroke="midnightblue" d="M665.377,-265.886C670.417,-267.832 675.334,-269.981 680,-272.355 709.911,-287.569 738.672,-314.424 755.054,-331.258"/>
<polygon fill="midnightblue" stroke="midnightblue" points="666.161,-262.45 655.566,-262.392 663.812,-269.044 666.161,-262.45"/>
</g>
<!-- Node22&#45;&gt;Node5 -->
<g id="edge45" class="edge"><title>Node22&#45;&gt;Node5</title>
<path fill="none" stroke="midnightblue" d="M653.649,-630.584C663.253,-626.957 672.415,-622.032 680,-615.355 743.86,-559.135 762.606,-450.466 767.467,-410.544"/>
<polygon fill="midnightblue" stroke="midnightblue" points="652.335,-627.332 643.94,-633.795 654.533,-633.978 652.335,-627.332"/>
</g>
<!-- Node22&#45;&gt;Node8 -->
<g id="edge46" class="edge"><title>Node22&#45;&gt;Node8</title>
<path fill="none" stroke="midnightblue" d="M653.407,-632.789C663.477,-628.926 672.849,-623.35 680,-615.355 753.368,-533.319 649.768,-458.253 716,-370.355 718.553,-366.966 721.695,-364.044 725.164,-361.526"/>
<polygon fill="midnightblue" stroke="midnightblue" points="652.011,-629.562 643.589,-635.99 654.181,-636.218 652.011,-629.562"/>
</g>
<!-- Node23&#45;&gt;Node5 -->
<g id="edge48" class="edge"><title>Node23&#45;&gt;Node5</title>
<path fill="none" stroke="midnightblue" d="M665.624,-525.468C670.665,-523.108 675.51,-520.419 680,-517.355 720.71,-489.567 749.625,-436.797 762.114,-410.724"/>
<polygon fill="midnightblue" stroke="midnightblue" points="664.226,-522.259 656.371,-529.369 666.945,-528.709 664.226,-522.259"/>
</g>
<!-- Node23&#45;&gt;Node8 -->
<g id="edge49" class="edge"><title>Node23&#45;&gt;Node8</title>
<path fill="none" stroke="midnightblue" d="M665.412,-528.368C670.758,-525.349 675.711,-521.718 680,-517.355 727.153,-469.386 673.035,-422.108 716,-370.355 718.839,-366.935 722.268,-363.982 725.999,-361.436"/>
<polygon fill="midnightblue" stroke="midnightblue" points="663.56,-525.376 656.092,-532.891 666.617,-531.674 663.56,-525.376"/>
</g>
<!-- Node24&#45;&gt;Node5 -->
<g id="edge51" class="edge"><title>Node24&#45;&gt;Node5</title>
<path fill="none" stroke="midnightblue" d="M648.371,-205.275C660.12,-208.981 671.386,-214.677 680,-223.355 727.389,-271.09 673.438,-318.269 716,-370.355 719.154,-374.215 723.043,-377.513 727.269,-380.323"/>
<polygon fill="midnightblue" stroke="midnightblue" points="649.001,-201.821 638.435,-202.609 647.186,-208.581 649.001,-201.821"/>
</g>
<!-- Node24&#45;&gt;Node8 -->
<g id="edge52" class="edge"><title>Node24&#45;&gt;Node8</title>
<path fill="none" stroke="midnightblue" d="M647.932,-208.66C659.215,-212.116 670.418,-216.856 680,-223.355 721.229,-251.316 750.091,-305.033 762.375,-331.235"/>
<polygon fill="midnightblue" stroke="midnightblue" points="648.604,-205.215 638.034,-205.941 646.749,-211.965 648.604,-205.215"/>
</g>
</g>
</svg>
        <g id="navigator" transform="translate(0 0)" fill="#404254">
                <rect fill="#f2f5e9" fill-opacity="0.5" stroke="#606060" stroke-width=".5" x="0" y="0" width="60" height="60"/>
                <use id="zoomplus" xlink:href="#zoomPlus" x="17" y="9" onmousedown="handleZoom(evt,'in')"/>
                <use id="zoomminus" xlink:href="#zoomMin" x="42" y="9" onmousedown="handleZoom(evt,'out')"/>
                <use id="reset" xlink:href="#resetDef" x="30" y="36" onmousedown="handleReset()"/>
                <g id="arrowUp" xlink:href="#dirArrow" transform="translate(30 24)" onmousedown="handlePan(0,-1)">
                  <use xlink:href="#rim" fill="#404040">
                        <set attributeName="fill" to="#808080" begin="arrowUp.mouseover" end="arrowUp.mouseout"/>
                  </use>
                  <path fill="none" stroke="white" stroke-width="1.5" d="M0,-3.0v7 M-2.5,-0.5L0,-3.0L2.5,-0.5"/>
                </g>
                <g id="arrowRight" xlink:href="#dirArrow" transform="rotate(90) translate(36 -43)" onmousedown="handlePan(1,0)">
                  <use xlink:href="#rim" fill="#404040">
                        <set attributeName="fill" to="#808080" begin="arrowRight.mouseover" end="arrowRight.mouseout"/>
                  </use>
                  <path fill="none" stroke="white" stroke-width="1.5" d="M0,-3.0v7 M-2.5,-0.5L0,-3.0L2.5,-0.5"/>
                </g>
                <g id="arrowDown" xlink:href="#dirArrow" transform="rotate(180) translate(-30 -48)" onmousedown="handlePan(0,1)">
                  <use xlink:href="#rim" fill="#404040">
                        <set attributeName="fill" to="#808080" begin="arrowDown.mouseover" end="arrowDown.mouseout"/>
                  </use>
                  <path fill="none" stroke="white" stroke-width="1.5" d="M0,-3.0v7 M-2.5,-0.5L0,-3.0L2.5,-0.5"/>
                </g>
                <g id="arrowLeft" xlink:href="#dirArrow" transform="rotate(270) translate(-36 17)" onmousedown="handlePan(-1,0)">
                  <use xlink:href="#rim" fill="#404040">
                        <set attributeName="fill" to="#808080" begin="arrowLeft.mouseover" end="arrowLeft.mouseout"/>
                  </use>
                  <path fill="none" stroke="white" stroke-width="1.5" d="M0,-3.0v7 M-2.5,-0.5L0,-3.0L2.5,-0.5"/>
                </g>
        </g>
        <svg viewBox="0 0 15 15" width="100%" height="30px" preserveAspectRatio="xMaxYMin meet">
         <g id="arrow_out" transform="scale(0.3 0.3)">
          <a xlink:href="classICED_1_1HalfCell_1_1DeviceData_a9e170c875ec6749900cb89bfb977379a_a9e170c875ec6749900cb89bfb977379a_icgraph_org.svg" target="_base">
           <rect id="button" ry="5" rx="5" y="6" x="6" height="38" width="38"
                fill="#f2f5e9" fill-opacity="0.5" stroke="#606060" stroke-width="1.0"/>
           <path id="arrow"
             d="M 11.500037,31.436501 C 11.940474,20.09759 22.043105,11.32322 32.158766,21.979434 L 37.068811,17.246167 C 37.068811,17.246167 37.088388,32 37.088388,32 L 22.160133,31.978069 C 22.160133,31.978069 26.997745,27.140456 26.997745,27.140456 C 18.528582,18.264221 13.291696,25.230495 11.500037,31.436501 z"
             style="fill:#404040;"/>
          </a>
         </g>
        </svg>
</svg>
