<?xml version="1.0" encoding="UTF-8" standalone="no"?>
<!DOCTYPE svg PUBLIC "-//W3C//DTD SVG 1.1//EN"
 "http://www.w3.org/Graphics/SVG/1.1/DTD/svg11.dtd">
<!-- Generated by graphviz version 2.30.1 (20150305.2338)
 -->
<!-- Title: CalcATK Pages: 1 -->
<svg width="188pt" height="66pt"
 viewBox="0.00 0.00 188.00 66.00" xmlns="http://www.w3.org/2000/svg" xmlns:xlink="http://www.w3.org/1999/xlink">
<g id="graph0" class="graph" transform="scale(1 1) rotate(0) translate(4 62)">
<title>CalcATK</title>
<!-- Node1 -->
<g id="node1" class="node"><title>Node1</title>
<polygon fill="#bfbfbf" stroke="black" points="0,-19.5 0,-38.5 56,-38.5 56,-19.5 0,-19.5"/>
<text text-anchor="middle" x="28" y="-26.5" font-family="Helvetica,sans-Serif" font-size="10.00">CalcATK</text>
</g>
<!-- Node2 -->
<g id="node2" class="node"><title>Node2</title>
<g id="a_node2"><a xlink:href="classICED_1_1HalfCell_1_1Intercalation.html#a9b92f2697bb5f43111ccff9ef55ebef3" target="_top" xlink:title="Physics solution initialization. ">
<polygon fill="none" stroke="black" points="92,-38.5 92,-57.5 180,-57.5 180,-38.5 92,-38.5"/>
<text text-anchor="middle" x="136" y="-45.5" font-family="Helvetica,sans-Serif" font-size="10.00">InitializePhysics</text>
</a>
</g>
</g>
<!-- Node1&#45;&gt;Node2 -->
<g id="edge1" class="edge"><title>Node1&#45;&gt;Node2</title>
<path fill="none" stroke="midnightblue" d="M65.9158,-35.617C74.322,-37.1238 83.3245,-38.7374 91.961,-40.2855"/>
<polygon fill="midnightblue" stroke="midnightblue" points="66.4832,-32.163 56.0225,-33.8437 65.2481,-39.0532 66.4832,-32.163"/>
</g>
<!-- Node3 -->
<g id="node3" class="node"><title>Node3</title>
<g id="a_node3"><a xlink:href="classICED_1_1HalfCell_1_1Intercalation.html#acfbdf2d6a1bd474786c2f1c0bdf14dde" target="_top" xlink:title="Physics solution. ">
<polygon fill="none" stroke="black" points="97.5,-0.5 97.5,-19.5 174.5,-19.5 174.5,-0.5 97.5,-0.5"/>
<text text-anchor="middle" x="136" y="-7.5" font-family="Helvetica,sans-Serif" font-size="10.00">SolvePhysics</text>
</a>
</g>
</g>
<!-- Node1&#45;&gt;Node3 -->
<g id="edge2" class="edge"><title>Node1&#45;&gt;Node3</title>
<path fill="none" stroke="midnightblue" d="M66.1433,-22.3422C76.2136,-20.5372 87.1251,-18.5814 97.2295,-16.7702"/>
<polygon fill="midnightblue" stroke="midnightblue" points="65.2481,-18.9468 56.0225,-24.1563 66.4832,-25.837 65.2481,-18.9468"/>
</g>
</g>
</svg>
