<?xml version="1.0" encoding="UTF-8" standalone="no"?>
<!DOCTYPE svg PUBLIC "-//W3C//DTD SVG 1.1//EN"
 "http://www.w3.org/Graphics/SVG/1.1/DTD/svg11.dtd">
<!-- Generated by graphviz version 2.30.1 (20150305.2338)
 -->
<!-- Title: Test__ConcentrationDiffusion Pages: 1 -->
<svg width="432pt" height="66pt"
 viewBox="0.00 0.00 432.00 66.00" xmlns="http://www.w3.org/2000/svg" xmlns:xlink="http://www.w3.org/1999/xlink">
<g id="graph0" class="graph" transform="scale(1 1) rotate(0) translate(4 62)">
<title>Test__ConcentrationDiffusion</title>
<!-- Node1 -->
<g id="node1" class="node"><title>Node1</title>
<polygon fill="#bfbfbf" stroke="black" points="0,-19.5 0,-38.5 146,-38.5 146,-19.5 0,-19.5"/>
<text text-anchor="middle" x="73" y="-26.5" font-family="Helvetica,sans-Serif" font-size="10.00">Test__ConcentrationDiffusion</text>
</g>
<!-- Node2 -->
<g id="node2" class="node"><title>Node2</title>
<g id="a_node2"><a xlink:href="classICED_1_1TestingObject_a046f7ab06db0acf616b0d2bf3d3146aa.html#a046f7ab06db0acf616b0d2bf3d3146aa" target="_top" xlink:title="Runs all tests implemented by the ICED::TestingObject. ">
<polygon fill="none" stroke="black" points="182.5,-38.5 182.5,-57.5 235.5,-57.5 235.5,-38.5 182.5,-38.5"/>
<text text-anchor="middle" x="209" y="-45.5" font-family="Helvetica,sans-Serif" font-size="10.00">Process</text>
</a>
</g>
</g>
<!-- Node1&#45;&gt;Node2 -->
<g id="edge1" class="edge"><title>Node1&#45;&gt;Node2</title>
<path fill="none" stroke="midnightblue" d="M151.618,-40.0055C162.669,-41.5725 173.325,-43.0835 182.342,-44.3619"/>
<polygon fill="midnightblue" stroke="midnightblue" points="151.785,-36.4943 141.393,-38.5557 150.802,-43.425 151.785,-36.4943"/>
</g>
<!-- Node5 -->
<g id="node5" class="node"><title>Node5</title>
<g id="a_node5"><a xlink:href="classICED_1_1TestingObject_af1f07f14b9af7708e4264bb38937eed2.html#af1f07f14b9af7708e4264bb38937eed2" target="_top" xlink:title="Runs a test specified by name. ">
<polygon fill="none" stroke="black" points="182,-0.5 182,-19.5 236,-19.5 236,-0.5 182,-0.5"/>
<text text-anchor="middle" x="209" y="-7.5" font-family="Helvetica,sans-Serif" font-size="10.00">RunTest</text>
</a>
</g>
</g>
<!-- Node1&#45;&gt;Node5 -->
<g id="edge4" class="edge"><title>Node1&#45;&gt;Node5</title>
<path fill="none" stroke="midnightblue" d="M151.436,-18.0202C162.295,-16.4806 172.778,-14.9941 181.708,-13.7279"/>
<polygon fill="midnightblue" stroke="midnightblue" points="150.802,-14.575 141.393,-19.4443 151.785,-21.5057 150.802,-14.575"/>
</g>
<!-- Node3 -->
<g id="node3" class="node"><title>Node3</title>
<g id="a_node3"><a xlink:href="namespaceICED_acf52cefdb153ca8751acb1e183d3a405.html#acf52cefdb153ca8751acb1e183d3a405" target="_top" xlink:title="Drives the ICED::TestObject. ">
<polygon fill="none" stroke="black" points="277.5,-38.5 277.5,-57.5 344.5,-57.5 344.5,-38.5 277.5,-38.5"/>
<text text-anchor="middle" x="311" y="-45.5" font-family="Helvetica,sans-Serif" font-size="10.00">ICED::Test</text>
</a>
</g>
</g>
<!-- Node2&#45;&gt;Node3 -->
<g id="edge2" class="edge"><title>Node2&#45;&gt;Node3</title>
<path fill="none" stroke="midnightblue" d="M245.973,-48C256.149,-48 267.168,-48 277.15,-48"/>
<polygon fill="midnightblue" stroke="midnightblue" points="245.753,-44.5001 235.752,-48 245.752,-51.5001 245.753,-44.5001"/>
</g>
<!-- Node4 -->
<g id="node4" class="node"><title>Node4</title>
<g id="a_node4"><a xlink:href="TestICED_8C_a0ddf1224851353fc92bfbff6f499fa97.html#a0ddf1224851353fc92bfbff6f499fa97" target="_top" xlink:title="main">
<polygon fill="none" stroke="black" points="386,-38.5 386,-57.5 424,-57.5 424,-38.5 386,-38.5"/>
<text text-anchor="middle" x="405" y="-45.5" font-family="Helvetica,sans-Serif" font-size="10.00">main</text>
</a>
</g>
</g>
<!-- Node3&#45;&gt;Node4 -->
<g id="edge3" class="edge"><title>Node3&#45;&gt;Node4</title>
<path fill="none" stroke="midnightblue" d="M354.981,-48C365.865,-48 376.976,-48 385.862,-48"/>
<polygon fill="midnightblue" stroke="midnightblue" points="354.695,-44.5001 344.695,-48 354.695,-51.5001 354.695,-44.5001"/>
</g>
<!-- Node6 -->
<g id="node6" class="node"><title>Node6</title>
<g id="a_node6"><a xlink:href="classICED_1_1TestingObject_a21159bd2efac623e5a5079f6a20f3444.html#a21159bd2efac623e5a5079f6a20f3444" target="_top" xlink:title="Runs a list of tests specified by name. ">
<polygon fill="none" stroke="black" points="272.5,-0.5 272.5,-19.5 349.5,-19.5 349.5,-0.5 272.5,-0.5"/>
<text text-anchor="middle" x="311" y="-7.5" font-family="Helvetica,sans-Serif" font-size="10.00">ProcessTests</text>
</a>
</g>
</g>
<!-- Node5&#45;&gt;Node6 -->
<g id="edge5" class="edge"><title>Node5&#45;&gt;Node6</title>
<path fill="none" stroke="midnightblue" d="M246.092,-10C254.658,-10 263.815,-10 272.444,-10"/>
<polygon fill="midnightblue" stroke="midnightblue" points="246.013,-6.5001 236.013,-10 246.013,-13.5001 246.013,-6.5001"/>
</g>
<!-- Node5&#45;&gt;Node3 -->
<g id="edge6" class="edge"><title>Node5&#45;&gt;Node3</title>
<path fill="none" stroke="midnightblue" d="M244.907,-23.2646C258.035,-28.2533 272.695,-33.8241 284.774,-38.4141"/>
<polygon fill="midnightblue" stroke="midnightblue" points="245.825,-19.8695 235.234,-19.589 243.339,-26.413 245.825,-19.8695"/>
</g>
</g>
</svg>
