<?xml version="1.0" encoding="UTF-8" standalone="no"?>
<!DOCTYPE svg PUBLIC "-//W3C//DTD SVG 1.1//EN"
 "http://www.w3.org/Graphics/SVG/1.1/DTD/svg11.dtd">
<!-- Generated by graphviz version 2.30.1 (20150305.2338)
 -->
<!-- Title: InitializeComponentPhysics Pages: 1 -->
<svg width="288pt" height="142pt"
 viewBox="0.00 0.00 288.00 142.00" xmlns="http://www.w3.org/2000/svg" xmlns:xlink="http://www.w3.org/1999/xlink">
<g id="graph0" class="graph" transform="scale(1 1) rotate(0) translate(4 138)">
<title>InitializeComponentPhysics</title>
<!-- Node1 -->
<g id="node1" class="node"><title>Node1</title>
<polygon fill="#bfbfbf" stroke="black" points="0,-57.5 0,-76.5 138,-76.5 138,-57.5 0,-57.5"/>
<text text-anchor="middle" x="69" y="-64.5" font-family="Helvetica,sans-Serif" font-size="10.00">InitializeComponentPhysics</text>
</g>
<!-- Node2 -->
<g id="node2" class="node"><title>Node2</title>
<g id="a_node2"><a xlink:href="classICED_1_1HalfCell_1_1DeviceComponent_ac8182d981838fc978dce91b0eadefa5b.html#ac8182d981838fc978dce91b0eadefa5b" target="_top" xlink:title="Apply the appropriate component boundary conditions. ">
<polygon fill="none" stroke="black" points="174,-114.5 174,-133.5 280,-133.5 280,-114.5 174,-114.5"/>
<text text-anchor="middle" x="227" y="-121.5" font-family="Helvetica,sans-Serif" font-size="10.00">ApplyComponentBC</text>
</a>
</g>
</g>
<!-- Node1&#45;&gt;Node2 -->
<g id="edge1" class="edge"><title>Node1&#45;&gt;Node2</title>
<path fill="none" stroke="midnightblue" d="M96.1109,-76.5405C121.87,-85.9527 161.448,-100.414 190.147,-110.9"/>
<polygon fill="midnightblue" stroke="midnightblue" points="189.21,-114.284 199.804,-114.428 191.612,-107.709 189.21,-114.284"/>
</g>
<!-- Node3 -->
<g id="node3" class="node"><title>Node3</title>
<g id="a_node3"><a xlink:href="classICED_1_1HalfCell_1_1DeviceComponent_afa213bcdb22f5b302ef7f0339075c3a0.html#afa213bcdb22f5b302ef7f0339075c3a0" target="_top" xlink:title="Apply internal boundary conditions. ">
<polygon fill="none" stroke="black" points="183,-76.5 183,-95.5 271,-95.5 271,-76.5 183,-76.5"/>
<text text-anchor="middle" x="227" y="-83.5" font-family="Helvetica,sans-Serif" font-size="10.00">ApplyInternalBC</text>
</a>
</g>
</g>
<!-- Node1&#45;&gt;Node3 -->
<g id="edge2" class="edge"><title>Node1&#45;&gt;Node3</title>
<path fill="none" stroke="midnightblue" d="M138.424,-75.3337C149.957,-76.7383 161.773,-78.1775 172.844,-79.5259"/>
<polygon fill="midnightblue" stroke="midnightblue" points="172.422,-83.0003 182.772,-80.735 173.268,-76.0516 172.422,-83.0003"/>
</g>
<!-- Node4 -->
<g id="node4" class="node"><title>Node4</title>
<g id="a_node4"><a xlink:href="classICED_1_1HalfCell_1_1DeviceComponent_ae19ad2b18c0ad3874e344772a050d04d.html#ae19ad2b18c0ad3874e344772a050d04d" target="_top" xlink:title="Performs finalization required after calculating component level solutions. ">
<polygon fill="none" stroke="black" points="176.5,-38.5 176.5,-57.5 277.5,-57.5 277.5,-38.5 176.5,-38.5"/>
<text text-anchor="middle" x="227" y="-45.5" font-family="Helvetica,sans-Serif" font-size="10.00">FinalizeComponent</text>
</a>
</g>
</g>
<!-- Node1&#45;&gt;Node4 -->
<g id="edge3" class="edge"><title>Node1&#45;&gt;Node4</title>
<path fill="none" stroke="midnightblue" d="M138.424,-58.6663C147.703,-57.5362 157.165,-56.3837 166.275,-55.2741"/>
<polygon fill="midnightblue" stroke="midnightblue" points="166.879,-58.7266 176.383,-54.0431 166.033,-51.7779 166.879,-58.7266"/>
</g>
<!-- Node5 -->
<g id="node5" class="node"><title>Node5</title>
<g id="a_node5"><a xlink:href="classICED_1_1HalfCell_1_1DeviceComponent_a5cdfd806fa59b599cd9820bcf7cda2f3.html#a5cdfd806fa59b599cd9820bcf7cda2f3" target="_top" xlink:title="Performs initialization required to calculate component level solutions. ">
<polygon fill="none" stroke="black" points="175.5,-0.5 175.5,-19.5 278.5,-19.5 278.5,-0.5 175.5,-0.5"/>
<text text-anchor="middle" x="227" y="-7.5" font-family="Helvetica,sans-Serif" font-size="10.00">InitializeComponent</text>
</a>
</g>
</g>
<!-- Node1&#45;&gt;Node5 -->
<g id="edge4" class="edge"><title>Node1&#45;&gt;Node5</title>
<path fill="none" stroke="midnightblue" d="M96.1109,-57.4595C121.87,-48.0473 161.448,-33.5862 190.147,-23.1001"/>
<polygon fill="midnightblue" stroke="midnightblue" points="191.612,-26.2911 199.804,-19.5716 189.21,-19.7162 191.612,-26.2911"/>
</g>
</g>
</svg>
