<?xml version="1.0" encoding="UTF-8" standalone="no"?>
<!DOCTYPE svg PUBLIC "-//W3C//DTD SVG 1.1//EN"
 "http://www.w3.org/Graphics/SVG/1.1/DTD/svg11.dtd">
<!-- Generated by graphviz version 2.30.1 (20150305.2338)
 -->
<!-- Title: Test__DeviceDataMapping Pages: 1 -->
<svg width="666pt" height="300pt"
 viewBox="0.00 0.00 666.00 300.00" xmlns="http://www.w3.org/2000/svg" xmlns:xlink="http://www.w3.org/1999/xlink">
<g id="graph0" class="graph" transform="scale(1 1) rotate(0) translate(4 296)">
<title>Test__DeviceDataMapping</title>
<!-- Node1 -->
<g id="node1" class="node"><title>Node1</title>
<polygon fill="#bfbfbf" stroke="black" points="0.5,-49.5 0.5,-68.5 135.5,-68.5 135.5,-49.5 0.5,-49.5"/>
<text text-anchor="middle" x="68" y="-56.5" font-family="Helvetica,sans-Serif" font-size="10.00">Test__DeviceDataMapping</text>
</g>
<!-- Node2 -->
<g id="node2" class="node"><title>Node2</title>
<g id="a_node2"><a xlink:href="classICED_1_1HalfCell_1_1DeviceData_ac62391584f55efe6bd7916ebf7d2e92b.html#ac62391584f55efe6bd7916ebf7d2e92b" target="_top" xlink:title="Initialization of the entire device data structure. ">
<polygon fill="none" stroke="black" points="172,-115 172,-145 312,-145 312,-115 172,-115"/>
<text text-anchor="start" x="180" y="-133" font-family="Helvetica,sans-Serif" font-size="10.00">ICED::HalfCell::DeviceData</text>
<text text-anchor="middle" x="242" y="-122" font-family="Helvetica,sans-Serif" font-size="10.00">::BuildDevice</text>
</a>
</g>
</g>
<!-- Node1&#45;&gt;Node2 -->
<g id="edge1" class="edge"><title>Node1&#45;&gt;Node2</title>
<path fill="none" stroke="midnightblue" d="M92.1967,-68.5754C118.403,-79.3929 161.715,-97.272 194.873,-110.959"/>
<polygon fill="midnightblue" stroke="midnightblue" points="193.79,-114.298 204.369,-114.879 196.461,-107.828 193.79,-114.298"/>
</g>
<!-- Node8 -->
<g id="node8" class="node"><title>Node8</title>
<g id="a_node8"><a xlink:href="classICED_1_1HalfCell_1_1DeviceData_a9e170c875ec6749900cb89bfb977379a.html#a9e170c875ec6749900cb89bfb977379a" target="_top" xlink:title="Copy device data from the component level. ">
<polygon fill="none" stroke="black" points="350.5,-17 350.5,-47 495.5,-47 495.5,-17 350.5,-17"/>
<text text-anchor="start" x="358.5" y="-35" font-family="Helvetica,sans-Serif" font-size="10.00">ICED::HalfCell::DeviceData</text>
<text text-anchor="middle" x="423" y="-24" font-family="Helvetica,sans-Serif" font-size="10.00">::CopyDataFromComponents</text>
</a>
</g>
</g>
<!-- Node1&#45;&gt;Node8 -->
<g id="edge9" class="edge"><title>Node1&#45;&gt;Node8</title>
<path fill="none" stroke="midnightblue" d="M135.812,-53.8898C193.844,-49.451 278.088,-43.0075 340.154,-38.2602"/>
<polygon fill="midnightblue" stroke="midnightblue" points="340.602,-41.7363 350.306,-37.4837 340.068,-34.7566 340.602,-41.7363"/>
</g>
<!-- Node10 -->
<g id="node10" class="node"><title>Node10</title>
<g id="a_node10"><a xlink:href="classICED_1_1HalfCell_1_1DeviceData_a4c576785732499156ac44948922e6fca.html#a4c576785732499156ac44948922e6fca" target="_top" xlink:title="Copy device data to the component level. ">
<polygon fill="none" stroke="black" points="172,-0 172,-30 312,-30 312,-0 172,-0"/>
<text text-anchor="start" x="180" y="-18" font-family="Helvetica,sans-Serif" font-size="10.00">ICED::HalfCell::DeviceData</text>
<text text-anchor="middle" x="242" y="-7" font-family="Helvetica,sans-Serif" font-size="10.00">::CopyDataToComponents</text>
</a>
</g>
</g>
<!-- Node1&#45;&gt;Node10 -->
<g id="edge10" class="edge"><title>Node1&#45;&gt;Node10</title>
<path fill="none" stroke="midnightblue" d="M106.321,-49.4527C125.6,-44.5209 149.745,-38.3442 172.247,-32.5879"/>
<polygon fill="midnightblue" stroke="midnightblue" points="173.288,-35.9346 182.108,-30.0654 171.553,-29.153 173.288,-35.9346"/>
</g>
<!-- Node3 -->
<g id="node3" class="node"><title>Node3</title>
<g id="a_node3"><a xlink:href="classICED_1_1HalfCell_1_1SolutionData_a16b07d4b06e74431a0783cbd6dd6e731.html#a16b07d4b06e74431a0783cbd6dd6e731" target="_top" xlink:title="Initialization of the input data from input file. ">
<polygon fill="none" stroke="black" points="361,-262 361,-292 485,-292 485,-262 361,-262"/>
<text text-anchor="start" x="369" y="-280" font-family="Helvetica,sans-Serif" font-size="10.00">ICED::HalfCell::Solution</text>
<text text-anchor="middle" x="423" y="-269" font-family="Helvetica,sans-Serif" font-size="10.00">Data::SetData</text>
</a>
</g>
</g>
<!-- Node2&#45;&gt;Node3 -->
<g id="edge2" class="edge"><title>Node2&#45;&gt;Node3</title>
<path fill="none" stroke="midnightblue" d="M252.068,-145.036C268.228,-170.608 304.432,-222.641 348,-252 350.899,-253.954 353.965,-255.767 357.134,-257.45"/>
<polygon fill="midnightblue" stroke="midnightblue" points="355.759,-260.672 366.289,-261.849 358.791,-254.363 355.759,-260.672"/>
</g>
<!-- Node4 -->
<g id="node4" class="node"><title>Node4</title>
<g id="a_node4"><a xlink:href="classICED_1_1HalfCell_1_1DeviceData_a16b07d4b06e74431a0783cbd6dd6e731.html#a16b07d4b06e74431a0783cbd6dd6e731" target="_top" xlink:title="Initialization of the input data from a parameter list. ">
<polygon fill="none" stroke="black" points="353,-213 353,-243 493,-243 493,-213 353,-213"/>
<text text-anchor="start" x="361" y="-231" font-family="Helvetica,sans-Serif" font-size="10.00">ICED::HalfCell::DeviceData</text>
<text text-anchor="middle" x="423" y="-220" font-family="Helvetica,sans-Serif" font-size="10.00">::SetData</text>
</a>
</g>
</g>
<!-- Node2&#45;&gt;Node4 -->
<g id="edge3" class="edge"><title>Node2&#45;&gt;Node4</title>
<path fill="none" stroke="midnightblue" d="M261.336,-145.161C281.536,-161.267 315.482,-186.618 348,-203 352.314,-205.173 356.861,-207.226 361.492,-209.15"/>
<polygon fill="midnightblue" stroke="midnightblue" points="360.48,-212.513 371.068,-212.913 363.041,-205.998 360.48,-212.513"/>
</g>
<!-- Node5 -->
<g id="node5" class="node"><title>Node5</title>
<g id="a_node5"><a xlink:href="classICED_1_1HalfCell_1_1DeviceData_a9dce6b5d6a4272a04fb399b6b7723c96.html#a9dce6b5d6a4272a04fb399b6b7723c96" target="_top" xlink:title="Initialization of the components from a parameter list. ">
<polygon fill="none" stroke="black" points="353,-164 353,-194 493,-194 493,-164 353,-164"/>
<text text-anchor="start" x="361" y="-182" font-family="Helvetica,sans-Serif" font-size="10.00">ICED::HalfCell::DeviceData</text>
<text text-anchor="middle" x="423" y="-171" font-family="Helvetica,sans-Serif" font-size="10.00">::LoadComponents</text>
</a>
</g>
</g>
<!-- Node2&#45;&gt;Node5 -->
<g id="edge4" class="edge"><title>Node2&#45;&gt;Node5</title>
<path fill="none" stroke="midnightblue" d="M298.166,-145.101C316.884,-150.225 337.963,-155.996 357.353,-161.303"/>
<polygon fill="midnightblue" stroke="midnightblue" points="356.446,-164.684 367.016,-163.948 358.295,-157.932 356.446,-164.684"/>
</g>
<!-- Node6 -->
<g id="node6" class="node"><title>Node6</title>
<g id="a_node6"><a xlink:href="classICED_1_1HalfCell_1_1DeviceData_abea9dd513340105152db94ed9f24211a.html#abea9dd513340105152db94ed9f24211a" target="_top" xlink:title="Setup of the global device data structure. ">
<polygon fill="none" stroke="black" points="353,-115 353,-145 493,-145 493,-115 353,-115"/>
<text text-anchor="start" x="361" y="-133" font-family="Helvetica,sans-Serif" font-size="10.00">ICED::HalfCell::DeviceData</text>
<text text-anchor="middle" x="423" y="-122" font-family="Helvetica,sans-Serif" font-size="10.00">::SetupGlobalData</text>
</a>
</g>
</g>
<!-- Node2&#45;&gt;Node6 -->
<g id="edge5" class="edge"><title>Node2&#45;&gt;Node6</title>
<path fill="none" stroke="midnightblue" d="M312.206,-130C322.241,-130 332.635,-130 342.847,-130"/>
<polygon fill="midnightblue" stroke="midnightblue" points="342.978,-133.5 352.978,-130 342.978,-126.5 342.978,-133.5"/>
</g>
<!-- Node2&#45;&gt;Node8 -->
<g id="edge7" class="edge"><title>Node2&#45;&gt;Node8</title>
<path fill="none" stroke="midnightblue" d="M260.895,-114.836C280.983,-98.4433 315.089,-72.4602 348,-56 351.737,-54.1309 355.652,-52.3631 359.646,-50.6993"/>
<polygon fill="midnightblue" stroke="midnightblue" points="361.033,-53.9151 369.066,-47.0073 358.479,-47.3977 361.033,-53.9151"/>
</g>
<!-- Node9 -->
<g id="node9" class="node"><title>Node9</title>
<g id="a_node9"><a xlink:href="classICED_1_1HalfCell_1_1DeviceData_af4d13d54a16ba494be74358656df1381.html#af4d13d54a16ba494be74358656df1381" target="_top" xlink:title="Copy device data to global storage for the non&#45;linear solver. ">
<polygon fill="none" stroke="black" points="348.5,-66 348.5,-96 497.5,-96 497.5,-66 348.5,-66"/>
<text text-anchor="start" x="356.5" y="-84" font-family="Helvetica,sans-Serif" font-size="10.00">ICED::HalfCell::DeviceData</text>
<text text-anchor="middle" x="423" y="-73" font-family="Helvetica,sans-Serif" font-size="10.00">::CopyDeviceToGlobalStorage</text>
</a>
</g>
</g>
<!-- Node2&#45;&gt;Node9 -->
<g id="edge8" class="edge"><title>Node2&#45;&gt;Node9</title>
<path fill="none" stroke="midnightblue" d="M298.166,-114.899C316.884,-109.775 337.963,-104.004 357.353,-98.6968"/>
<polygon fill="midnightblue" stroke="midnightblue" points="358.295,-102.068 367.016,-96.0516 356.446,-95.3161 358.295,-102.068"/>
</g>
<!-- Node7 -->
<g id="node7" class="node"><title>Node7</title>
<g id="a_node7"><a xlink:href="classICED_1_1HalfCell_1_1SolutionData_a80aaf93c79fb804885351b17786981e4.html#a80aaf93c79fb804885351b17786981e4" target="_top" xlink:title="Setup of the trilinosdata structure. ">
<polygon fill="none" stroke="black" points="534,-115 534,-145 658,-145 658,-115 534,-115"/>
<text text-anchor="start" x="542" y="-133" font-family="Helvetica,sans-Serif" font-size="10.00">ICED::HalfCell::Solution</text>
<text text-anchor="middle" x="596" y="-122" font-family="Helvetica,sans-Serif" font-size="10.00">Data::BuildSolutionData</text>
</a>
</g>
</g>
<!-- Node6&#45;&gt;Node7 -->
<g id="edge6" class="edge"><title>Node6&#45;&gt;Node7</title>
<path fill="none" stroke="midnightblue" d="M493.059,-130C503.209,-130 513.68,-130 523.871,-130"/>
<polygon fill="midnightblue" stroke="midnightblue" points="523.946,-133.5 533.946,-130 523.946,-126.5 523.946,-133.5"/>
</g>
</g>
</svg>
