<?xml version="1.0" encoding="UTF-8" standalone="no"?>
<!DOCTYPE svg PUBLIC "-//W3C//DTD SVG 1.1//EN"
 "http://www.w3.org/Graphics/SVG/1.1/DTD/svg11.dtd">
<!-- Generated by graphviz version 2.30.1 (20150305.2338)
 -->
<!-- Title: Test__IonMigration Pages: 1 -->
<svg width="630pt" height="283pt"
 viewBox="0.00 0.00 630.00 283.00" xmlns="http://www.w3.org/2000/svg" xmlns:xlink="http://www.w3.org/1999/xlink">
<g id="graph0" class="graph" transform="scale(1 1) rotate(0) translate(4 279)">
<title>Test__IonMigration</title>
<!-- Node1 -->
<g id="node1" class="node"><title>Node1</title>
<polygon fill="#bfbfbf" stroke="black" points="0,-105.5 0,-124.5 100,-124.5 100,-105.5 0,-105.5"/>
<text text-anchor="middle" x="50" y="-112.5" font-family="Helvetica,sans-Serif" font-size="10.00">Test__IonMigration</text>
</g>
<!-- Node2 -->
<g id="node2" class="node"><title>Node2</title>
<g id="a_node2"><a xlink:href="classICED_1_1HalfCell_1_1DeviceData.html#ac62391584f55efe6bd7916ebf7d2e92b" target="_top" xlink:title="Initialization of the entire device data structure. ">
<polygon fill="none" stroke="black" points="136,-122 136,-152 276,-152 276,-122 136,-122"/>
<text text-anchor="start" x="144" y="-140" font-family="Helvetica,sans-Serif" font-size="10.00">ICED::HalfCell::DeviceData</text>
<text text-anchor="middle" x="206" y="-129" font-family="Helvetica,sans-Serif" font-size="10.00">::BuildDevice</text>
</a>
</g>
</g>
<!-- Node1&#45;&gt;Node2 -->
<g id="edge1" class="edge"><title>Node1&#45;&gt;Node2</title>
<path fill="none" stroke="midnightblue" d="M100.15,-122.021C108.4,-123.2 117.144,-124.449 125.923,-125.703"/>
<polygon fill="midnightblue" stroke="midnightblue" points="125.432,-129.169 135.826,-127.118 126.422,-122.239 125.432,-129.169"/>
</g>
<!-- Node10 -->
<g id="node10" class="node"><title>Node10</title>
<g id="a_node10"><a xlink:href="classICED_1_1TestingObject.html#a01777cfc8b6084a272d3aec03e253b7c" target="_top" xlink:title="Initializes the test solution data. ">
<polygon fill="none" stroke="black" points="139,-83.5 139,-102.5 273,-102.5 273,-83.5 139,-83.5"/>
<text text-anchor="middle" x="206" y="-90.5" font-family="Helvetica,sans-Serif" font-size="10.00">GenerateParabolicFunction</text>
</a>
</g>
</g>
<!-- Node1&#45;&gt;Node10 -->
<g id="edge9" class="edge"><title>Node1&#45;&gt;Node10</title>
<path fill="none" stroke="midnightblue" d="M100.15,-107.979C109.296,-106.672 119.049,-105.279 128.784,-103.888"/>
<polygon fill="midnightblue" stroke="midnightblue" points="129.493,-107.322 138.898,-102.443 128.503,-100.393 129.493,-107.322"/>
</g>
<!-- Node3 -->
<g id="node3" class="node"><title>Node3</title>
<g id="a_node3"><a xlink:href="classICED_1_1HalfCell_1_1SolutionData.html#a16b07d4b06e74431a0783cbd6dd6e731" target="_top" xlink:title="Initialization of the input data from input file. ">
<polygon fill="none" stroke="black" points="325,-245 325,-275 449,-275 449,-245 325,-245"/>
<text text-anchor="start" x="333" y="-263" font-family="Helvetica,sans-Serif" font-size="10.00">ICED::HalfCell::Solution</text>
<text text-anchor="middle" x="387" y="-252" font-family="Helvetica,sans-Serif" font-size="10.00">Data::SetData</text>
</a>
</g>
</g>
<!-- Node2&#45;&gt;Node3 -->
<g id="edge2" class="edge"><title>Node2&#45;&gt;Node3</title>
<path fill="none" stroke="midnightblue" d="M219.383,-152.053C237.612,-173.32 273.679,-212.115 312,-235 315.438,-237.053 319.068,-238.966 322.799,-240.742"/>
<polygon fill="midnightblue" stroke="midnightblue" points="321.668,-244.068 332.232,-244.881 324.481,-237.658 321.668,-244.068"/>
</g>
<!-- Node4 -->
<g id="node4" class="node"><title>Node4</title>
<g id="a_node4"><a xlink:href="classICED_1_1HalfCell_1_1DeviceData.html#a16b07d4b06e74431a0783cbd6dd6e731" target="_top" xlink:title="Initialization of the input data from input file. ">
<polygon fill="none" stroke="black" points="317,-196 317,-226 457,-226 457,-196 317,-196"/>
<text text-anchor="start" x="325" y="-214" font-family="Helvetica,sans-Serif" font-size="10.00">ICED::HalfCell::DeviceData</text>
<text text-anchor="middle" x="387" y="-203" font-family="Helvetica,sans-Serif" font-size="10.00">::SetData</text>
</a>
</g>
</g>
<!-- Node2&#45;&gt;Node4 -->
<g id="edge3" class="edge"><title>Node2&#45;&gt;Node4</title>
<path fill="none" stroke="midnightblue" d="M236.936,-152.052C257.733,-162.24 286.232,-175.672 312,-186 317.483,-188.198 323.243,-190.372 329.027,-192.466"/>
<polygon fill="midnightblue" stroke="midnightblue" points="328.143,-195.866 338.738,-195.905 330.48,-189.267 328.143,-195.866"/>
</g>
<!-- Node5 -->
<g id="node5" class="node"><title>Node5</title>
<g id="a_node5"><a xlink:href="classICED_1_1HalfCell_1_1DeviceData.html#a9dce6b5d6a4272a04fb399b6b7723c96" target="_top" xlink:title="Initialization of the components from input file. ">
<polygon fill="none" stroke="black" points="317,-147 317,-177 457,-177 457,-147 317,-147"/>
<text text-anchor="start" x="325" y="-165" font-family="Helvetica,sans-Serif" font-size="10.00">ICED::HalfCell::DeviceData</text>
<text text-anchor="middle" x="387" y="-154" font-family="Helvetica,sans-Serif" font-size="10.00">::LoadComponents</text>
</a>
</g>
</g>
<!-- Node2&#45;&gt;Node5 -->
<g id="edge4" class="edge"><title>Node2&#45;&gt;Node5</title>
<path fill="none" stroke="midnightblue" d="M276.206,-146.666C286.241,-148.067 296.635,-149.519 306.847,-150.945"/>
<polygon fill="midnightblue" stroke="midnightblue" points="306.59,-154.443 316.978,-152.36 307.558,-147.51 306.59,-154.443"/>
</g>
<!-- Node6 -->
<g id="node6" class="node"><title>Node6</title>
<g id="a_node6"><a xlink:href="classICED_1_1HalfCell_1_1DeviceData.html#abea9dd513340105152db94ed9f24211a" target="_top" xlink:title="Setup of the global device data structure. ">
<polygon fill="none" stroke="black" points="317,-98 317,-128 457,-128 457,-98 317,-98"/>
<text text-anchor="start" x="325" y="-116" font-family="Helvetica,sans-Serif" font-size="10.00">ICED::HalfCell::DeviceData</text>
<text text-anchor="middle" x="387" y="-105" font-family="Helvetica,sans-Serif" font-size="10.00">::SetupGlobalData</text>
</a>
</g>
</g>
<!-- Node2&#45;&gt;Node6 -->
<g id="edge5" class="edge"><title>Node2&#45;&gt;Node6</title>
<path fill="none" stroke="midnightblue" d="M276.206,-127.721C286.241,-126.376 296.635,-124.982 306.847,-123.613"/>
<polygon fill="midnightblue" stroke="midnightblue" points="307.532,-127.052 316.978,-122.254 306.602,-120.114 307.532,-127.052"/>
</g>
<!-- Node8 -->
<g id="node8" class="node"><title>Node8</title>
<g id="a_node8"><a xlink:href="classICED_1_1HalfCell_1_1DeviceData.html#a9e170c875ec6749900cb89bfb977379a" target="_top" xlink:title="Copy device data from the component level. ">
<polygon fill="none" stroke="black" points="314.5,-49 314.5,-79 459.5,-79 459.5,-49 314.5,-49"/>
<text text-anchor="start" x="322.5" y="-67" font-family="Helvetica,sans-Serif" font-size="10.00">ICED::HalfCell::DeviceData</text>
<text text-anchor="middle" x="387" y="-56" font-family="Helvetica,sans-Serif" font-size="10.00">::CopyDataFromComponents</text>
</a>
</g>
</g>
<!-- Node2&#45;&gt;Node8 -->
<g id="edge7" class="edge"><title>Node2&#45;&gt;Node8</title>
<path fill="none" stroke="midnightblue" d="M252.877,-121.991C260.717,-118.971 268.686,-115.606 276,-112 293.029,-103.604 294.88,-97.21 312,-89 316.62,-86.7846 321.487,-84.6786 326.43,-82.698"/>
<polygon fill="midnightblue" stroke="midnightblue" points="327.888,-85.8875 335.98,-79.0478 325.389,-79.3488 327.888,-85.8875"/>
</g>
<!-- Node9 -->
<g id="node9" class="node"><title>Node9</title>
<g id="a_node9"><a xlink:href="classICED_1_1HalfCell_1_1DeviceData.html#af4d13d54a16ba494be74358656df1381" target="_top" xlink:title="Copy device data to global storage for the non&#45;linear solver. ">
<polygon fill="none" stroke="black" points="312.5,-0 312.5,-30 461.5,-30 461.5,-0 312.5,-0"/>
<text text-anchor="start" x="320.5" y="-18" font-family="Helvetica,sans-Serif" font-size="10.00">ICED::HalfCell::DeviceData</text>
<text text-anchor="middle" x="387" y="-7" font-family="Helvetica,sans-Serif" font-size="10.00">::CopyDeviceToGlobalStorage</text>
</a>
</g>
</g>
<!-- Node2&#45;&gt;Node9 -->
<g id="edge8" class="edge"><title>Node2&#45;&gt;Node9</title>
<path fill="none" stroke="midnightblue" d="M261.28,-121.999C266.59,-119.201 271.622,-115.897 276,-112 302.723,-88.2113 285.02,-63.4959 312,-40 313.924,-38.3246 315.965,-36.7605 318.095,-35.3003"/>
<polygon fill="midnightblue" stroke="midnightblue" points="319.901,-38.2981 326.695,-30.1679 316.314,-32.2871 319.901,-38.2981"/>
</g>
<!-- Node7 -->
<g id="node7" class="node"><title>Node7</title>
<g id="a_node7"><a xlink:href="classICED_1_1HalfCell_1_1SolutionData.html#a80aaf93c79fb804885351b17786981e4" target="_top" xlink:title="Setup of the trilinosdata structure. ">
<polygon fill="none" stroke="black" points="498,-98 498,-128 622,-128 622,-98 498,-98"/>
<text text-anchor="start" x="506" y="-116" font-family="Helvetica,sans-Serif" font-size="10.00">ICED::HalfCell::Solution</text>
<text text-anchor="middle" x="560" y="-105" font-family="Helvetica,sans-Serif" font-size="10.00">Data::BuildSolutionData</text>
</a>
</g>
</g>
<!-- Node6&#45;&gt;Node7 -->
<g id="edge6" class="edge"><title>Node6&#45;&gt;Node7</title>
<path fill="none" stroke="midnightblue" d="M457.059,-113C467.209,-113 477.68,-113 487.871,-113"/>
<polygon fill="midnightblue" stroke="midnightblue" points="487.946,-116.5 497.946,-113 487.946,-109.5 487.946,-116.5"/>
</g>
</g>
</svg>
