<?xml version="1.0" encoding="UTF-8" standalone="no"?>
<!DOCTYPE svg PUBLIC "-//W3C//DTD SVG 1.1//EN"
 "http://www.w3.org/Graphics/SVG/1.1/DTD/svg11.dtd">
<!-- Generated by graphviz version 2.30.1 (20150305.2338)
 -->
<!-- Title: VerbLevel Pages: 1 -->
<svg width="226pt" height="77pt"
 viewBox="0.00 0.00 226.00 77.00" xmlns="http://www.w3.org/2000/svg" xmlns:xlink="http://www.w3.org/1999/xlink">
<g id="graph0" class="graph" transform="scale(1 1) rotate(0) translate(4 73)">
<title>VerbLevel</title>
<!-- Node1 -->
<g id="node1" class="node"><title>Node1</title>
<polygon fill="#bfbfbf" stroke="black" points="0,-27.5 0,-46.5 60,-46.5 60,-27.5 0,-27.5"/>
<text text-anchor="middle" x="30" y="-34.5" font-family="Helvetica,sans-Serif" font-size="10.00">VerbLevel</text>
</g>
<!-- Node2 -->
<g id="node2" class="node"><title>Node2</title>
<g id="a_node2"><a xlink:href="namespaceICED_1_1HalfCell.html#a1daec1f933f4404256ab171124f5c706" target="_top" xlink:title="Unified driver for batterySim. ">
<polygon fill="none" stroke="black" points="99.5,-49.5 99.5,-68.5 214.5,-68.5 214.5,-49.5 99.5,-49.5"/>
<text text-anchor="middle" x="157" y="-56.5" font-family="Helvetica,sans-Serif" font-size="10.00">ICED::HalfCell::Driver</text>
</a>
</g>
</g>
<!-- Node1&#45;&gt;Node2 -->
<g id="edge1" class="edge"><title>Node1&#45;&gt;Node2</title>
<path fill="none" stroke="midnightblue" d="M70.3448,-43.9247C80.3475,-45.6852 91.2717,-47.6078 101.869,-49.4729"/>
<polygon fill="midnightblue" stroke="midnightblue" points="70.7623,-40.4444 60.3069,-42.158 69.5489,-47.3385 70.7623,-40.4444"/>
</g>
<!-- Node3 -->
<g id="node3" class="node"><title>Node3</title>
<g id="a_node3"><a xlink:href="namespaceICED_1_1ExampleProgram.html#ad727542191f731d94a0e3d67ae9d2d31" target="_top" xlink:title="Unified driver for the example programs. ">
<polygon fill="none" stroke="black" points="96,-0 96,-30 218,-30 218,-0 96,-0"/>
<text text-anchor="start" x="104" y="-18" font-family="Helvetica,sans-Serif" font-size="10.00">ICED::ExampleProgram</text>
<text text-anchor="middle" x="157" y="-7" font-family="Helvetica,sans-Serif" font-size="10.00">::Driver</text>
</a>
</g>
</g>
<!-- Node1&#45;&gt;Node3 -->
<g id="edge2" class="edge"><title>Node1&#45;&gt;Node3</title>
<path fill="none" stroke="midnightblue" d="M70.2494,-30.0921C78.3985,-28.6579 87.1626,-27.1154 95.8656,-25.5837"/>
<polygon fill="midnightblue" stroke="midnightblue" points="69.5489,-26.6615 60.3069,-31.842 70.7623,-33.5556 69.5489,-26.6615"/>
</g>
</g>
</svg>
