<?xml version="1.0" encoding="UTF-8" standalone="no"?>
<!DOCTYPE svg PUBLIC "-//W3C//DTD SVG 1.1//EN"
 "http://www.w3.org/Graphics/SVG/1.1/DTD/svg11.dtd">
<!-- Generated by graphviz version 2.30.1 (20150305.2338)
 -->
<!-- Title: Test__ActivityCoefficient Pages: 1 -->
<svg width="658pt" height="283pt"
 viewBox="0.00 0.00 658.00 283.00" xmlns="http://www.w3.org/2000/svg" xmlns:xlink="http://www.w3.org/1999/xlink">
<g id="graph0" class="graph" transform="scale(1 1) rotate(0) translate(4 279)">
<title>Test__ActivityCoefficient</title>
<!-- Node1 -->
<g id="node1" class="node"><title>Node1</title>
<polygon fill="#bfbfbf" stroke="black" points="0.5,-105.5 0.5,-124.5 127.5,-124.5 127.5,-105.5 0.5,-105.5"/>
<text text-anchor="middle" x="64" y="-112.5" font-family="Helvetica,sans-Serif" font-size="10.00">Test__ActivityCoefficient</text>
</g>
<!-- Node2 -->
<g id="node2" class="node"><title>Node2</title>
<g id="a_node2"><a xlink:href="classICED_1_1HalfCell_1_1DeviceData_ac62391584f55efe6bd7916ebf7d2e92b.html#ac62391584f55efe6bd7916ebf7d2e92b" target="_top" xlink:title="Initialization of the entire device data structure. ">
<polygon fill="none" stroke="black" points="164,-122 164,-152 304,-152 304,-122 164,-122"/>
<text text-anchor="start" x="172" y="-140" font-family="Helvetica,sans-Serif" font-size="10.00">ICED::HalfCell::DeviceData</text>
<text text-anchor="middle" x="234" y="-129" font-family="Helvetica,sans-Serif" font-size="10.00">::BuildDevice</text>
</a>
</g>
</g>
<!-- Node1&#45;&gt;Node2 -->
<g id="edge1" class="edge"><title>Node1&#45;&gt;Node2</title>
<path fill="none" stroke="midnightblue" d="M127.557,-123.192C136.165,-124.319 145.095,-125.489 153.952,-126.648"/>
<polygon fill="midnightblue" stroke="midnightblue" points="153.529,-130.123 163.899,-127.951 154.438,-123.182 153.529,-130.123"/>
</g>
<!-- Node10 -->
<g id="node10" class="node"><title>Node10</title>
<g id="a_node10"><a xlink:href="classICED_1_1TestingObject_a01777cfc8b6084a272d3aec03e253b7c.html#a01777cfc8b6084a272d3aec03e253b7c" target="_top" xlink:title="Initializes the test solution data. ">
<polygon fill="none" stroke="black" points="167,-83.5 167,-102.5 301,-102.5 301,-83.5 167,-83.5"/>
<text text-anchor="middle" x="234" y="-90.5" font-family="Helvetica,sans-Serif" font-size="10.00">GenerateParabolicFunction</text>
</a>
</g>
</g>
<!-- Node1&#45;&gt;Node10 -->
<g id="edge9" class="edge"><title>Node1&#45;&gt;Node10</title>
<path fill="none" stroke="midnightblue" d="M127.557,-106.808C137.043,-105.566 146.919,-104.272 156.658,-102.997"/>
<polygon fill="midnightblue" stroke="midnightblue" points="157.273,-106.447 166.734,-101.678 156.364,-99.5059 157.273,-106.447"/>
</g>
<!-- Node3 -->
<g id="node3" class="node"><title>Node3</title>
<g id="a_node3"><a xlink:href="classICED_1_1HalfCell_1_1SolutionData_a16b07d4b06e74431a0783cbd6dd6e731.html#a16b07d4b06e74431a0783cbd6dd6e731" target="_top" xlink:title="Initialization of the input data from input file. ">
<polygon fill="none" stroke="black" points="353,-245 353,-275 477,-275 477,-245 353,-245"/>
<text text-anchor="start" x="361" y="-263" font-family="Helvetica,sans-Serif" font-size="10.00">ICED::HalfCell::Solution</text>
<text text-anchor="middle" x="415" y="-252" font-family="Helvetica,sans-Serif" font-size="10.00">Data::SetData</text>
</a>
</g>
</g>
<!-- Node2&#45;&gt;Node3 -->
<g id="edge2" class="edge"><title>Node2&#45;&gt;Node3</title>
<path fill="none" stroke="midnightblue" d="M247.383,-152.053C265.612,-173.32 301.679,-212.115 340,-235 343.438,-237.053 347.068,-238.966 350.799,-240.742"/>
<polygon fill="midnightblue" stroke="midnightblue" points="349.668,-244.068 360.232,-244.881 352.481,-237.658 349.668,-244.068"/>
</g>
<!-- Node4 -->
<g id="node4" class="node"><title>Node4</title>
<g id="a_node4"><a xlink:href="classICED_1_1HalfCell_1_1DeviceData_a16b07d4b06e74431a0783cbd6dd6e731.html#a16b07d4b06e74431a0783cbd6dd6e731" target="_top" xlink:title="Initialization of the input data from a parameter list. ">
<polygon fill="none" stroke="black" points="345,-196 345,-226 485,-226 485,-196 345,-196"/>
<text text-anchor="start" x="353" y="-214" font-family="Helvetica,sans-Serif" font-size="10.00">ICED::HalfCell::DeviceData</text>
<text text-anchor="middle" x="415" y="-203" font-family="Helvetica,sans-Serif" font-size="10.00">::SetData</text>
</a>
</g>
</g>
<!-- Node2&#45;&gt;Node4 -->
<g id="edge3" class="edge"><title>Node2&#45;&gt;Node4</title>
<path fill="none" stroke="midnightblue" d="M264.936,-152.052C285.733,-162.24 314.232,-175.672 340,-186 345.483,-188.198 351.243,-190.372 357.027,-192.466"/>
<polygon fill="midnightblue" stroke="midnightblue" points="356.143,-195.866 366.738,-195.905 358.48,-189.267 356.143,-195.866"/>
</g>
<!-- Node5 -->
<g id="node5" class="node"><title>Node5</title>
<g id="a_node5"><a xlink:href="classICED_1_1HalfCell_1_1DeviceData_a9dce6b5d6a4272a04fb399b6b7723c96.html#a9dce6b5d6a4272a04fb399b6b7723c96" target="_top" xlink:title="Initialization of the components from a parameter list. ">
<polygon fill="none" stroke="black" points="345,-147 345,-177 485,-177 485,-147 345,-147"/>
<text text-anchor="start" x="353" y="-165" font-family="Helvetica,sans-Serif" font-size="10.00">ICED::HalfCell::DeviceData</text>
<text text-anchor="middle" x="415" y="-154" font-family="Helvetica,sans-Serif" font-size="10.00">::LoadComponents</text>
</a>
</g>
</g>
<!-- Node2&#45;&gt;Node5 -->
<g id="edge4" class="edge"><title>Node2&#45;&gt;Node5</title>
<path fill="none" stroke="midnightblue" d="M304.206,-146.666C314.241,-148.067 324.635,-149.519 334.847,-150.945"/>
<polygon fill="midnightblue" stroke="midnightblue" points="334.59,-154.443 344.978,-152.36 335.558,-147.51 334.59,-154.443"/>
</g>
<!-- Node6 -->
<g id="node6" class="node"><title>Node6</title>
<g id="a_node6"><a xlink:href="classICED_1_1HalfCell_1_1DeviceData_abea9dd513340105152db94ed9f24211a.html#abea9dd513340105152db94ed9f24211a" target="_top" xlink:title="Setup of the global device data structure. ">
<polygon fill="none" stroke="black" points="345,-98 345,-128 485,-128 485,-98 345,-98"/>
<text text-anchor="start" x="353" y="-116" font-family="Helvetica,sans-Serif" font-size="10.00">ICED::HalfCell::DeviceData</text>
<text text-anchor="middle" x="415" y="-105" font-family="Helvetica,sans-Serif" font-size="10.00">::SetupGlobalData</text>
</a>
</g>
</g>
<!-- Node2&#45;&gt;Node6 -->
<g id="edge5" class="edge"><title>Node2&#45;&gt;Node6</title>
<path fill="none" stroke="midnightblue" d="M304.206,-127.721C314.241,-126.376 324.635,-124.982 334.847,-123.613"/>
<polygon fill="midnightblue" stroke="midnightblue" points="335.532,-127.052 344.978,-122.254 334.602,-120.114 335.532,-127.052"/>
</g>
<!-- Node8 -->
<g id="node8" class="node"><title>Node8</title>
<g id="a_node8"><a xlink:href="classICED_1_1HalfCell_1_1DeviceData_a9e170c875ec6749900cb89bfb977379a.html#a9e170c875ec6749900cb89bfb977379a" target="_top" xlink:title="Copy device data from the component level. ">
<polygon fill="none" stroke="black" points="342.5,-49 342.5,-79 487.5,-79 487.5,-49 342.5,-49"/>
<text text-anchor="start" x="350.5" y="-67" font-family="Helvetica,sans-Serif" font-size="10.00">ICED::HalfCell::DeviceData</text>
<text text-anchor="middle" x="415" y="-56" font-family="Helvetica,sans-Serif" font-size="10.00">::CopyDataFromComponents</text>
</a>
</g>
</g>
<!-- Node2&#45;&gt;Node8 -->
<g id="edge7" class="edge"><title>Node2&#45;&gt;Node8</title>
<path fill="none" stroke="midnightblue" d="M280.877,-121.991C288.717,-118.971 296.686,-115.606 304,-112 321.029,-103.604 322.88,-97.21 340,-89 344.62,-86.7846 349.487,-84.6786 354.43,-82.698"/>
<polygon fill="midnightblue" stroke="midnightblue" points="355.888,-85.8875 363.98,-79.0478 353.389,-79.3488 355.888,-85.8875"/>
</g>
<!-- Node9 -->
<g id="node9" class="node"><title>Node9</title>
<g id="a_node9"><a xlink:href="classICED_1_1HalfCell_1_1DeviceData_af4d13d54a16ba494be74358656df1381.html#af4d13d54a16ba494be74358656df1381" target="_top" xlink:title="Copy device data to global storage for the non&#45;linear solver. ">
<polygon fill="none" stroke="black" points="340.5,-0 340.5,-30 489.5,-30 489.5,-0 340.5,-0"/>
<text text-anchor="start" x="348.5" y="-18" font-family="Helvetica,sans-Serif" font-size="10.00">ICED::HalfCell::DeviceData</text>
<text text-anchor="middle" x="415" y="-7" font-family="Helvetica,sans-Serif" font-size="10.00">::CopyDeviceToGlobalStorage</text>
</a>
</g>
</g>
<!-- Node2&#45;&gt;Node9 -->
<g id="edge8" class="edge"><title>Node2&#45;&gt;Node9</title>
<path fill="none" stroke="midnightblue" d="M289.28,-121.999C294.59,-119.201 299.622,-115.897 304,-112 330.723,-88.2113 313.02,-63.4959 340,-40 341.924,-38.3246 343.965,-36.7605 346.095,-35.3003"/>
<polygon fill="midnightblue" stroke="midnightblue" points="347.901,-38.2981 354.695,-30.1679 344.314,-32.2871 347.901,-38.2981"/>
</g>
<!-- Node7 -->
<g id="node7" class="node"><title>Node7</title>
<g id="a_node7"><a xlink:href="classICED_1_1HalfCell_1_1SolutionData_a80aaf93c79fb804885351b17786981e4.html#a80aaf93c79fb804885351b17786981e4" target="_top" xlink:title="Setup of the trilinosdata structure. ">
<polygon fill="none" stroke="black" points="526,-98 526,-128 650,-128 650,-98 526,-98"/>
<text text-anchor="start" x="534" y="-116" font-family="Helvetica,sans-Serif" font-size="10.00">ICED::HalfCell::Solution</text>
<text text-anchor="middle" x="588" y="-105" font-family="Helvetica,sans-Serif" font-size="10.00">Data::BuildSolutionData</text>
</a>
</g>
</g>
<!-- Node6&#45;&gt;Node7 -->
<g id="edge6" class="edge"><title>Node6&#45;&gt;Node7</title>
<path fill="none" stroke="midnightblue" d="M485.059,-113C495.209,-113 505.68,-113 515.871,-113"/>
<polygon fill="midnightblue" stroke="midnightblue" points="515.946,-116.5 525.946,-113 515.946,-109.5 515.946,-116.5"/>
</g>
</g>
</svg>
