<?xml version="1.0" encoding="UTF-8" standalone="no"?>
<!DOCTYPE svg PUBLIC "-//W3C//DTD SVG 1.1//EN"
 "http://www.w3.org/Graphics/SVG/1.1/DTD/svg11.dtd">
<!-- Generated by graphviz version 2.30.1 (20150305.2338)
 -->
<!-- Title: TransientSolver Pages: 1 -->
<svg width="432pt" height="66pt"
 viewBox="0.00 0.00 432.00 66.00" xmlns="http://www.w3.org/2000/svg" xmlns:xlink="http://www.w3.org/1999/xlink">
<g id="graph0" class="graph" transform="scale(1 1) rotate(0) translate(4 62)">
<title>TransientSolver</title>
<!-- Node1 -->
<g id="node1" class="node"><title>Node1</title>
<polygon fill="#bfbfbf" stroke="black" points="0.5,-19.5 0.5,-38.5 85.5,-38.5 85.5,-19.5 0.5,-19.5"/>
<text text-anchor="middle" x="43" y="-26.5" font-family="Helvetica,sans-Serif" font-size="10.00">TransientSolver</text>
</g>
<!-- Node2 -->
<g id="node2" class="node"><title>Node2</title>
<g id="a_node2"><a xlink:href="classICED_1_1HalfCell_1_1TransientSolverInterface.html#a1e6a78e84439badd13fca28f801f8f7e" target="_top" xlink:title="Backward Euler transient solver. ">
<polygon fill="none" stroke="black" points="122.5,-38.5 122.5,-57.5 245.5,-57.5 245.5,-38.5 122.5,-38.5"/>
<text text-anchor="middle" x="184" y="-45.5" font-family="Helvetica,sans-Serif" font-size="10.00">TransientBackwardEuler</text>
</a>
</g>
</g>
<!-- Node1&#45;&gt;Node2 -->
<g id="edge1" class="edge"><title>Node1&#45;&gt;Node2</title>
<path fill="none" stroke="midnightblue" d="M85.7046,-34.7006C94.0712,-35.8443 103.081,-37.0758 112.122,-38.3117"/>
<polygon fill="midnightblue" stroke="midnightblue" points="111.929,-41.8177 122.311,-39.7043 112.877,-34.8822 111.929,-41.8177"/>
</g>
<!-- Node4 -->
<g id="node4" class="node"><title>Node4</title>
<g id="a_node4"><a xlink:href="classICED_1_1HalfCell_1_1TransientSolverInterface.html#ab0e71e2785ced935e19ed738db60232f" target="_top" xlink:title="Forward Euler transient solver. ">
<polygon fill="none" stroke="black" points="126.5,-0.5 126.5,-19.5 241.5,-19.5 241.5,-0.5 126.5,-0.5"/>
<text text-anchor="middle" x="184" y="-7.5" font-family="Helvetica,sans-Serif" font-size="10.00">TransientForwardEuler</text>
</a>
</g>
</g>
<!-- Node1&#45;&gt;Node4 -->
<g id="edge3" class="edge"><title>Node1&#45;&gt;Node4</title>
<path fill="none" stroke="midnightblue" d="M85.7046,-23.2994C95.4006,-21.974 105.961,-20.5305 116.432,-19.0992"/>
<polygon fill="midnightblue" stroke="midnightblue" points="116.979,-22.557 126.413,-17.7349 116.031,-15.6215 116.979,-22.557"/>
</g>
<!-- Node3 -->
<g id="node3" class="node"><title>Node3</title>
<g id="a_node3"><a xlink:href="namespaceICED_1_1HalfCell.html#a55b082d5ba8d68accf6f0052d68650f0" target="_top" xlink:title="initialization of the NOX solver ">
<polygon fill="none" stroke="black" points="282,-38.5 282,-57.5 424,-57.5 424,-38.5 282,-38.5"/>
<text text-anchor="middle" x="353" y="-45.5" font-family="Helvetica,sans-Serif" font-size="10.00">ICED::HalfCell::SetupSolver</text>
</a>
</g>
</g>
<!-- Node2&#45;&gt;Node3 -->
<g id="edge2" class="edge"><title>Node2&#45;&gt;Node3</title>
<path fill="none" stroke="midnightblue" d="M245.763,-48C254.209,-48 262.991,-48 271.726,-48"/>
<polygon fill="midnightblue" stroke="midnightblue" points="271.935,-51.5001 281.935,-48 271.935,-44.5001 271.935,-51.5001"/>
</g>
</g>
</svg>
