<?xml version="1.0" encoding="UTF-8" standalone="no"?>
<!DOCTYPE svg PUBLIC "-//W3C//DTD SVG 1.1//EN"
 "http://www.w3.org/Graphics/SVG/1.1/DTD/svg11.dtd">
<!-- Generated by graphviz version 2.30.1 (20150305.2338)
 -->
<!-- Title: BuildDevice Pages: 1 -->
<svg width="418pt" height="235pt"
 viewBox="0.00 0.00 418.00 235.00" xmlns="http://www.w3.org/2000/svg" xmlns:xlink="http://www.w3.org/1999/xlink">
<g id="graph0" class="graph" transform="scale(1 1) rotate(0) translate(4 231)">
<title>BuildDevice</title>
<!-- Node1 -->
<g id="node1" class="node"><title>Node1</title>
<polygon fill="#bfbfbf" stroke="black" points="0.5,-112.5 0.5,-131.5 69.5,-131.5 69.5,-112.5 0.5,-112.5"/>
<text text-anchor="middle" x="35" y="-119.5" font-family="Helvetica,sans-Serif" font-size="10.00">BuildDevice</text>
</g>
<!-- Node2 -->
<g id="node2" class="node"><title>Node2</title>
<g id="a_node2"><a xlink:href="classICED_1_1HalfCell_1_1DeviceData_a9e170c875ec6749900cb89bfb977379a.html#a9e170c875ec6749900cb89bfb977379a" target="_top" xlink:title="Copy device data from the component level. ">
<polygon fill="none" stroke="black" points="108.5,-207.5 108.5,-226.5 247.5,-226.5 247.5,-207.5 108.5,-207.5"/>
<text text-anchor="middle" x="178" y="-214.5" font-family="Helvetica,sans-Serif" font-size="10.00">CopyDataFromComponents</text>
</a>
</g>
</g>
<!-- Node1&#45;&gt;Node2 -->
<g id="edge1" class="edge"><title>Node1&#45;&gt;Node2</title>
<path fill="none" stroke="midnightblue" d="M42.0851,-131.544C52.9186,-147.74 77.1437,-180.546 106,-198 109.624,-200.192 113.501,-202.134 117.505,-203.856"/>
<polygon fill="midnightblue" stroke="midnightblue" points="116.429,-207.191 127.019,-207.484 118.923,-200.651 116.429,-207.191"/>
</g>
<!-- Node3 -->
<g id="node3" class="node"><title>Node3</title>
<g id="a_node3"><a xlink:href="classICED_1_1HalfCell_1_1DeviceData_af4d13d54a16ba494be74358656df1381.html#af4d13d54a16ba494be74358656df1381" target="_top" xlink:title="Copy device data to global storage for the non&#45;linear solver. ">
<polygon fill="none" stroke="black" points="106.5,-169.5 106.5,-188.5 249.5,-188.5 249.5,-169.5 106.5,-169.5"/>
<text text-anchor="middle" x="178" y="-176.5" font-family="Helvetica,sans-Serif" font-size="10.00">CopyDeviceToGlobalStorage</text>
</a>
</g>
</g>
<!-- Node1&#45;&gt;Node3 -->
<g id="edge2" class="edge"><title>Node1&#45;&gt;Node3</title>
<path fill="none" stroke="midnightblue" d="M51.0619,-131.534C64.9059,-139.964 86.2193,-152.113 106,-160 111.989,-162.388 118.38,-164.574 124.781,-166.544"/>
<polygon fill="midnightblue" stroke="midnightblue" points="124.212,-170.023 134.792,-169.46 126.17,-163.303 124.212,-170.023"/>
</g>
<!-- Node4 -->
<g id="node4" class="node"><title>Node4</title>
<g id="a_node4"><a xlink:href="classICED_1_1HalfCell_1_1DeviceData_a9dce6b5d6a4272a04fb399b6b7723c96.html#a9dce6b5d6a4272a04fb399b6b7723c96" target="_top" xlink:title="Initialization of the components from a parameter list. ">
<polygon fill="none" stroke="black" points="131.5,-131.5 131.5,-150.5 224.5,-150.5 224.5,-131.5 131.5,-131.5"/>
<text text-anchor="middle" x="178" y="-138.5" font-family="Helvetica,sans-Serif" font-size="10.00">LoadComponents</text>
</a>
</g>
</g>
<!-- Node1&#45;&gt;Node4 -->
<g id="edge3" class="edge"><title>Node1&#45;&gt;Node4</title>
<path fill="none" stroke="midnightblue" d="M69.773,-126.551C85.1648,-128.625 103.797,-131.136 121.183,-133.479"/>
<polygon fill="midnightblue" stroke="midnightblue" points="120.863,-136.967 131.241,-134.834 121.798,-130.03 120.863,-136.967"/>
</g>
<!-- Node5 -->
<g id="node5" class="node"><title>Node5</title>
<g id="a_node5"><a xlink:href="classICED_1_1HalfCell_1_1DeviceData_a16b07d4b06e74431a0783cbd6dd6e731.html#a16b07d4b06e74431a0783cbd6dd6e731" target="_top" xlink:title="Initialization of the input data from a parameter list. ">
<polygon fill="none" stroke="black" points="151.5,-93.5 151.5,-112.5 204.5,-112.5 204.5,-93.5 151.5,-93.5"/>
<text text-anchor="middle" x="178" y="-100.5" font-family="Helvetica,sans-Serif" font-size="10.00">SetData</text>
</a>
</g>
</g>
<!-- Node1&#45;&gt;Node5 -->
<g id="edge4" class="edge"><title>Node1&#45;&gt;Node5</title>
<path fill="none" stroke="midnightblue" d="M69.773,-117.449C91.4356,-114.53 119.517,-110.746 141.508,-107.783"/>
<polygon fill="midnightblue" stroke="midnightblue" points="142.005,-111.247 151.448,-106.443 141.07,-104.31 142.005,-111.247"/>
</g>
<!-- Node6 -->
<g id="node6" class="node"><title>Node6</title>
<g id="a_node6"><a xlink:href="classICED_1_1HalfCell_1_1SolutionData_a16b07d4b06e74431a0783cbd6dd6e731.html#a16b07d4b06e74431a0783cbd6dd6e731" target="_top" xlink:title="Initialization of the input data from input file. ">
<polygon fill="none" stroke="black" points="116,-44 116,-74 240,-74 240,-44 116,-44"/>
<text text-anchor="start" x="124" y="-62" font-family="Helvetica,sans-Serif" font-size="10.00">ICED::HalfCell::Solution</text>
<text text-anchor="middle" x="178" y="-51" font-family="Helvetica,sans-Serif" font-size="10.00">Data::SetData</text>
</a>
</g>
</g>
<!-- Node1&#45;&gt;Node6 -->
<g id="edge5" class="edge"><title>Node1&#45;&gt;Node6</title>
<path fill="none" stroke="midnightblue" d="M52.0371,-112.343C65.9919,-104.173 86.917,-92.475 106,-84 110.927,-81.812 116.109,-79.68 121.337,-77.6428"/>
<polygon fill="midnightblue" stroke="midnightblue" points="122.633,-80.8948 130.75,-74.0866 120.159,-74.3465 122.633,-80.8948"/>
</g>
<!-- Node7 -->
<g id="node7" class="node"><title>Node7</title>
<g id="a_node7"><a xlink:href="classICED_1_1HalfCell_1_1DeviceData_abea9dd513340105152db94ed9f24211a.html#abea9dd513340105152db94ed9f24211a" target="_top" xlink:title="Setup of the global device data structure. ">
<polygon fill="none" stroke="black" points="132.5,-5.5 132.5,-24.5 223.5,-24.5 223.5,-5.5 132.5,-5.5"/>
<text text-anchor="middle" x="178" y="-12.5" font-family="Helvetica,sans-Serif" font-size="10.00">SetupGlobalData</text>
</a>
</g>
</g>
<!-- Node1&#45;&gt;Node7 -->
<g id="edge6" class="edge"><title>Node1&#45;&gt;Node7</title>
<path fill="none" stroke="midnightblue" d="M41.1148,-112.254C51.0978,-94.1975 74.9457,-55.5201 106,-35 111.189,-31.5715 116.964,-28.7241 122.916,-26.3606"/>
<polygon fill="midnightblue" stroke="midnightblue" points="124.09,-29.6579 132.356,-23.031 121.761,-23.0565 124.09,-29.6579"/>
</g>
<!-- Node8 -->
<g id="node8" class="node"><title>Node8</title>
<g id="a_node8"><a xlink:href="classICED_1_1HalfCell_1_1SolutionData_a80aaf93c79fb804885351b17786981e4.html#a80aaf93c79fb804885351b17786981e4" target="_top" xlink:title="Setup of the trilinosdata structure. ">
<polygon fill="none" stroke="black" points="286,-0 286,-30 410,-30 410,-0 286,-0"/>
<text text-anchor="start" x="294" y="-18" font-family="Helvetica,sans-Serif" font-size="10.00">ICED::HalfCell::Solution</text>
<text text-anchor="middle" x="348" y="-7" font-family="Helvetica,sans-Serif" font-size="10.00">Data::BuildSolutionData</text>
</a>
</g>
</g>
<!-- Node7&#45;&gt;Node8 -->
<g id="edge7" class="edge"><title>Node7&#45;&gt;Node8</title>
<path fill="none" stroke="midnightblue" d="M223.58,-15C239.507,-15 257.879,-15 275.501,-15"/>
<polygon fill="midnightblue" stroke="midnightblue" points="275.765,-18.5001 285.765,-15 275.765,-11.5001 275.765,-18.5001"/>
</g>
</g>
</svg>
