<?xml version="1.0" encoding="UTF-8" standalone="no"?>
<!DOCTYPE svg PUBLIC "-//W3C//DTD SVG 1.1//EN"
 "http://www.w3.org/Graphics/SVG/1.1/DTD/svg11.dtd">
<!-- Generated by graphviz version 2.30.1 (20150305.2338)
 -->
<!-- Title: Test__Diffusion Pages: 1 -->
<svg width="616pt" height="283pt"
 viewBox="0.00 0.00 616.00 283.00" xmlns="http://www.w3.org/2000/svg" xmlns:xlink="http://www.w3.org/1999/xlink">
<g id="graph0" class="graph" transform="scale(1 1) rotate(0) translate(4 279)">
<title>Test__Diffusion</title>
<!-- Node1 -->
<g id="node1" class="node"><title>Node1</title>
<polygon fill="#bfbfbf" stroke="black" points="0,-105.5 0,-124.5 86,-124.5 86,-105.5 0,-105.5"/>
<text text-anchor="middle" x="43" y="-112.5" font-family="Helvetica,sans-Serif" font-size="10.00">Test__Diffusion</text>
</g>
<!-- Node2 -->
<g id="node2" class="node"><title>Node2</title>
<g id="a_node2"><a xlink:href="classICED_1_1HalfCell_1_1DeviceData.html#ac62391584f55efe6bd7916ebf7d2e92b" target="_top" xlink:title="Initialization of the entire device data structure. ">
<polygon fill="none" stroke="black" points="122,-122 122,-152 262,-152 262,-122 122,-122"/>
<text text-anchor="start" x="130" y="-140" font-family="Helvetica,sans-Serif" font-size="10.00">ICED::HalfCell::DeviceData</text>
<text text-anchor="middle" x="192" y="-129" font-family="Helvetica,sans-Serif" font-size="10.00">::BuildDevice</text>
</a>
</g>
</g>
<!-- Node1&#45;&gt;Node2 -->
<g id="edge1" class="edge"><title>Node1&#45;&gt;Node2</title>
<path fill="none" stroke="midnightblue" d="M86.1243,-121.304C94.261,-122.522 103.029,-123.834 111.907,-125.163"/>
<polygon fill="midnightblue" stroke="midnightblue" points="111.541,-128.647 121.949,-126.666 112.577,-121.724 111.541,-128.647"/>
</g>
<!-- Node10 -->
<g id="node10" class="node"><title>Node10</title>
<g id="a_node10"><a xlink:href="classICED_1_1TestingObject.html#a01777cfc8b6084a272d3aec03e253b7c" target="_top" xlink:title="Initializes the test solution data. ">
<polygon fill="none" stroke="black" points="125,-83.5 125,-102.5 259,-102.5 259,-83.5 125,-83.5"/>
<text text-anchor="middle" x="192" y="-90.5" font-family="Helvetica,sans-Serif" font-size="10.00">GenerateParabolicFunction</text>
</a>
</g>
</g>
<!-- Node1&#45;&gt;Node10 -->
<g id="edge9" class="edge"><title>Node1&#45;&gt;Node10</title>
<path fill="none" stroke="midnightblue" d="M86.1243,-108.696C95.9976,-107.218 106.801,-105.601 117.601,-103.985"/>
<polygon fill="midnightblue" stroke="midnightblue" points="118.12,-107.446 127.492,-102.505 117.084,-100.523 118.12,-107.446"/>
</g>
<!-- Node3 -->
<g id="node3" class="node"><title>Node3</title>
<g id="a_node3"><a xlink:href="classICED_1_1HalfCell_1_1SolutionData.html#a16b07d4b06e74431a0783cbd6dd6e731" target="_top" xlink:title="Initialization of the input data from input file. ">
<polygon fill="none" stroke="black" points="311,-245 311,-275 435,-275 435,-245 311,-245"/>
<text text-anchor="start" x="319" y="-263" font-family="Helvetica,sans-Serif" font-size="10.00">ICED::HalfCell::Solution</text>
<text text-anchor="middle" x="373" y="-252" font-family="Helvetica,sans-Serif" font-size="10.00">Data::SetData</text>
</a>
</g>
</g>
<!-- Node2&#45;&gt;Node3 -->
<g id="edge2" class="edge"><title>Node2&#45;&gt;Node3</title>
<path fill="none" stroke="midnightblue" d="M205.383,-152.053C223.612,-173.32 259.679,-212.115 298,-235 301.438,-237.053 305.068,-238.966 308.799,-240.742"/>
<polygon fill="midnightblue" stroke="midnightblue" points="307.668,-244.068 318.232,-244.881 310.481,-237.658 307.668,-244.068"/>
</g>
<!-- Node4 -->
<g id="node4" class="node"><title>Node4</title>
<g id="a_node4"><a xlink:href="classICED_1_1HalfCell_1_1DeviceData.html#a16b07d4b06e74431a0783cbd6dd6e731" target="_top" xlink:title="Initialization of the input data from input file. ">
<polygon fill="none" stroke="black" points="303,-196 303,-226 443,-226 443,-196 303,-196"/>
<text text-anchor="start" x="311" y="-214" font-family="Helvetica,sans-Serif" font-size="10.00">ICED::HalfCell::DeviceData</text>
<text text-anchor="middle" x="373" y="-203" font-family="Helvetica,sans-Serif" font-size="10.00">::SetData</text>
</a>
</g>
</g>
<!-- Node2&#45;&gt;Node4 -->
<g id="edge3" class="edge"><title>Node2&#45;&gt;Node4</title>
<path fill="none" stroke="midnightblue" d="M222.936,-152.052C243.733,-162.24 272.232,-175.672 298,-186 303.483,-188.198 309.243,-190.372 315.027,-192.466"/>
<polygon fill="midnightblue" stroke="midnightblue" points="314.143,-195.866 324.738,-195.905 316.48,-189.267 314.143,-195.866"/>
</g>
<!-- Node5 -->
<g id="node5" class="node"><title>Node5</title>
<g id="a_node5"><a xlink:href="classICED_1_1HalfCell_1_1DeviceData.html#a9dce6b5d6a4272a04fb399b6b7723c96" target="_top" xlink:title="Initialization of the components from input file. ">
<polygon fill="none" stroke="black" points="303,-147 303,-177 443,-177 443,-147 303,-147"/>
<text text-anchor="start" x="311" y="-165" font-family="Helvetica,sans-Serif" font-size="10.00">ICED::HalfCell::DeviceData</text>
<text text-anchor="middle" x="373" y="-154" font-family="Helvetica,sans-Serif" font-size="10.00">::LoadComponents</text>
</a>
</g>
</g>
<!-- Node2&#45;&gt;Node5 -->
<g id="edge4" class="edge"><title>Node2&#45;&gt;Node5</title>
<path fill="none" stroke="midnightblue" d="M262.206,-146.666C272.241,-148.067 282.635,-149.519 292.847,-150.945"/>
<polygon fill="midnightblue" stroke="midnightblue" points="292.59,-154.443 302.978,-152.36 293.558,-147.51 292.59,-154.443"/>
</g>
<!-- Node6 -->
<g id="node6" class="node"><title>Node6</title>
<g id="a_node6"><a xlink:href="classICED_1_1HalfCell_1_1DeviceData.html#abea9dd513340105152db94ed9f24211a" target="_top" xlink:title="Setup of the global device data structure. ">
<polygon fill="none" stroke="black" points="303,-98 303,-128 443,-128 443,-98 303,-98"/>
<text text-anchor="start" x="311" y="-116" font-family="Helvetica,sans-Serif" font-size="10.00">ICED::HalfCell::DeviceData</text>
<text text-anchor="middle" x="373" y="-105" font-family="Helvetica,sans-Serif" font-size="10.00">::SetupGlobalData</text>
</a>
</g>
</g>
<!-- Node2&#45;&gt;Node6 -->
<g id="edge5" class="edge"><title>Node2&#45;&gt;Node6</title>
<path fill="none" stroke="midnightblue" d="M262.206,-127.721C272.241,-126.376 282.635,-124.982 292.847,-123.613"/>
<polygon fill="midnightblue" stroke="midnightblue" points="293.532,-127.052 302.978,-122.254 292.602,-120.114 293.532,-127.052"/>
</g>
<!-- Node8 -->
<g id="node8" class="node"><title>Node8</title>
<g id="a_node8"><a xlink:href="classICED_1_1HalfCell_1_1DeviceData.html#a9e170c875ec6749900cb89bfb977379a" target="_top" xlink:title="Copy device data from the component level. ">
<polygon fill="none" stroke="black" points="300.5,-49 300.5,-79 445.5,-79 445.5,-49 300.5,-49"/>
<text text-anchor="start" x="308.5" y="-67" font-family="Helvetica,sans-Serif" font-size="10.00">ICED::HalfCell::DeviceData</text>
<text text-anchor="middle" x="373" y="-56" font-family="Helvetica,sans-Serif" font-size="10.00">::CopyDataFromComponents</text>
</a>
</g>
</g>
<!-- Node2&#45;&gt;Node8 -->
<g id="edge7" class="edge"><title>Node2&#45;&gt;Node8</title>
<path fill="none" stroke="midnightblue" d="M238.877,-121.991C246.717,-118.971 254.686,-115.606 262,-112 279.029,-103.604 280.88,-97.21 298,-89 302.62,-86.7846 307.487,-84.6786 312.43,-82.698"/>
<polygon fill="midnightblue" stroke="midnightblue" points="313.888,-85.8875 321.98,-79.0478 311.389,-79.3488 313.888,-85.8875"/>
</g>
<!-- Node9 -->
<g id="node9" class="node"><title>Node9</title>
<g id="a_node9"><a xlink:href="classICED_1_1HalfCell_1_1DeviceData.html#af4d13d54a16ba494be74358656df1381" target="_top" xlink:title="Copy device data to global storage for the non&#45;linear solver. ">
<polygon fill="none" stroke="black" points="298.5,-0 298.5,-30 447.5,-30 447.5,-0 298.5,-0"/>
<text text-anchor="start" x="306.5" y="-18" font-family="Helvetica,sans-Serif" font-size="10.00">ICED::HalfCell::DeviceData</text>
<text text-anchor="middle" x="373" y="-7" font-family="Helvetica,sans-Serif" font-size="10.00">::CopyDeviceToGlobalStorage</text>
</a>
</g>
</g>
<!-- Node2&#45;&gt;Node9 -->
<g id="edge8" class="edge"><title>Node2&#45;&gt;Node9</title>
<path fill="none" stroke="midnightblue" d="M247.28,-121.999C252.59,-119.201 257.622,-115.897 262,-112 288.723,-88.2113 271.02,-63.4959 298,-40 299.924,-38.3246 301.965,-36.7605 304.095,-35.3003"/>
<polygon fill="midnightblue" stroke="midnightblue" points="305.901,-38.2981 312.695,-30.1679 302.314,-32.2871 305.901,-38.2981"/>
</g>
<!-- Node7 -->
<g id="node7" class="node"><title>Node7</title>
<g id="a_node7"><a xlink:href="classICED_1_1HalfCell_1_1SolutionData.html#a80aaf93c79fb804885351b17786981e4" target="_top" xlink:title="Setup of the trilinosdata structure. ">
<polygon fill="none" stroke="black" points="484,-98 484,-128 608,-128 608,-98 484,-98"/>
<text text-anchor="start" x="492" y="-116" font-family="Helvetica,sans-Serif" font-size="10.00">ICED::HalfCell::Solution</text>
<text text-anchor="middle" x="546" y="-105" font-family="Helvetica,sans-Serif" font-size="10.00">Data::BuildSolutionData</text>
</a>
</g>
</g>
<!-- Node6&#45;&gt;Node7 -->
<g id="edge6" class="edge"><title>Node6&#45;&gt;Node7</title>
<path fill="none" stroke="midnightblue" d="M443.059,-113C453.209,-113 463.68,-113 473.871,-113"/>
<polygon fill="midnightblue" stroke="midnightblue" points="473.946,-116.5 483.946,-113 473.946,-109.5 473.946,-116.5"/>
</g>
</g>
</svg>
