<?xml version="1.0" encoding="UTF-8" standalone="no"?>
<!DOCTYPE svg PUBLIC "-//W3C//DTD SVG 1.1//EN"
 "http://www.w3.org/Graphics/SVG/1.1/DTD/svg11.dtd">
<!-- Generated by graphviz version 2.30.1 (20150305.2338)
 -->
<!-- Title: RunTest Pages: 1 -->
<svg width="1008pt" height="978pt"
 viewBox="0.00 0.00 1008.00 978.00" xmlns="http://www.w3.org/2000/svg" xmlns:xlink="http://www.w3.org/1999/xlink">
<g id="graph0" class="graph" transform="scale(1 1) rotate(0) translate(4 974)">
<title>RunTest</title>
<!-- Node1 -->
<g id="node1" class="node"><title>Node1</title>
<polygon fill="#bfbfbf" stroke="black" points="0,-475.5 0,-494.5 54,-494.5 54,-475.5 0,-475.5"/>
<text text-anchor="middle" x="27" y="-482.5" font-family="Helvetica,sans-Serif" font-size="10.00">RunTest</text>
</g>
<!-- Node2 -->
<g id="node2" class="node"><title>Node2</title>
<g id="a_node2"><a xlink:href="classICED_1_1TestingObject.html#aa25f45634aafbb580d94840ad8452745" target="_top" xlink:title="Tears down the testing fixtures if needed. ">
<polygon fill="none" stroke="black" points="146,-950.5 146,-969.5 200,-969.5 200,-950.5 146,-950.5"/>
<text text-anchor="middle" x="173" y="-957.5" font-family="Helvetica,sans-Serif" font-size="10.00">Epilogue</text>
</a>
</g>
</g>
<!-- Node1&#45;&gt;Node2 -->
<g id="edge1" class="edge"><title>Node1&#45;&gt;Node2</title>
<path fill="none" stroke="midnightblue" d="M27.8831,-494.852C27.3753,-555.023 27.7028,-872.653 90,-941 101.386,-953.492 119.222,-958.574 135.356,-960.393"/>
<polygon fill="midnightblue" stroke="midnightblue" points="135.394,-963.905 145.628,-961.161 135.917,-956.925 135.394,-963.905"/>
</g>
<!-- Node3 -->
<g id="node3" class="node"><title>Node3</title>
<g id="a_node3"><a xlink:href="classICED_1_1TestingObject.html#aa3cdb6d60e9d9834c19efaab0b044421" target="_top" xlink:title="Sets up the data fixtures for the tests. ">
<polygon fill="none" stroke="black" points="145.5,-912.5 145.5,-931.5 200.5,-931.5 200.5,-912.5 145.5,-912.5"/>
<text text-anchor="middle" x="173" y="-919.5" font-family="Helvetica,sans-Serif" font-size="10.00">Prologue</text>
</a>
</g>
</g>
<!-- Node1&#45;&gt;Node3 -->
<g id="edge2" class="edge"><title>Node1&#45;&gt;Node3</title>
<path fill="none" stroke="midnightblue" d="M28.0875,-494.603C28.7904,-550.637 35.0555,-835.042 90,-898 101.201,-910.835 118.855,-916.984 134.918,-919.863"/>
<polygon fill="midnightblue" stroke="midnightblue" points="134.766,-923.377 145.16,-921.32 135.752,-916.446 134.766,-923.377"/>
</g>
<!-- Node4 -->
<g id="node4" class="node"><title>Node4</title>
<g id="a_node4"><a xlink:href="classICED_1_1TestingObject.html#aea517fa85afb367c872ce72c26a0d643" target="_top" xlink:title="Test for ICED::ActivitCoefficient module. ">
<polygon fill="none" stroke="black" points="109.5,-646.5 109.5,-665.5 236.5,-665.5 236.5,-646.5 109.5,-646.5"/>
<text text-anchor="middle" x="173" y="-653.5" font-family="Helvetica,sans-Serif" font-size="10.00">Test__ActivityCoefficient</text>
</a>
</g>
</g>
<!-- Node1&#45;&gt;Node4 -->
<g id="edge3" class="edge"><title>Node1&#45;&gt;Node4</title>
<path fill="none" stroke="midnightblue" d="M28.9171,-494.583C32.0268,-521.506 44.658,-598.373 90,-637 93.1026,-639.643 96.5024,-641.936 100.098,-643.923"/>
<polygon fill="midnightblue" stroke="midnightblue" points="98.8389,-647.198 109.38,-648.259 101.802,-640.856 98.8389,-647.198"/>
</g>
<!-- Node14 -->
<g id="node14" class="node"><title>Node14</title>
<g id="a_node14"><a xlink:href="classICED_1_1TestingObject.html#a2f898efd73e9aaf601f0733cb31fc340" target="_top" xlink:title="Test for ICED::ButlerVolmer. ">
<polygon fill="none" stroke="black" points="333.5,-722.5 333.5,-741.5 436.5,-741.5 436.5,-722.5 333.5,-722.5"/>
<text text-anchor="middle" x="385" y="-729.5" font-family="Helvetica,sans-Serif" font-size="10.00">Test__ButlerVolmer</text>
</a>
</g>
</g>
<!-- Node1&#45;&gt;Node14 -->
<g id="edge13" class="edge"><title>Node1&#45;&gt;Node14</title>
<path fill="none" stroke="midnightblue" d="M29.1575,-494.741C34.1015,-534.566 54.8152,-684.26 90,-713 124.381,-741.083 247.311,-739.817 322.898,-736.092"/>
<polygon fill="midnightblue" stroke="midnightblue" points="323.431,-739.569 333.235,-735.553 323.066,-732.579 323.431,-739.569"/>
</g>
<!-- Node15 -->
<g id="node15" class="node"><title>Node15</title>
<g id="a_node15"><a xlink:href="classICED_1_1TestingObject.html#a8218a8aab213585d0fba3f2e1aa24b76" target="_top" xlink:title="Test for ICED::ComponentBoundaryConditions. ">
<polygon fill="none" stroke="black" points="292.5,-342.5 292.5,-361.5 477.5,-361.5 477.5,-342.5 292.5,-342.5"/>
<text text-anchor="middle" x="385" y="-349.5" font-family="Helvetica,sans-Serif" font-size="10.00">Test__ComponentBoundaryConditions</text>
</a>
</g>
</g>
<!-- Node1&#45;&gt;Node15 -->
<g id="edge15" class="edge"><title>Node1&#45;&gt;Node15</title>
<path fill="none" stroke="midnightblue" d="M32.9842,-475.24C41.9674,-458.717 62.526,-425.431 90,-409 108.962,-397.66 232.36,-376.249 313.147,-363.141"/>
<polygon fill="midnightblue" stroke="midnightblue" points="313.953,-366.556 323.267,-361.506 312.837,-359.646 313.953,-366.556"/>
</g>
<!-- Node16 -->
<g id="node16" class="node"><title>Node16</title>
<g id="a_node16"><a xlink:href="classICED_1_1TestingObject.html#a96409144efe94cf3e37a534e524c6e36" target="_top" xlink:title="Test for ICED::ConcentrationDiffusion. ">
<polygon fill="none" stroke="black" points="100,-608.5 100,-627.5 246,-627.5 246,-608.5 100,-608.5"/>
<text text-anchor="middle" x="173" y="-615.5" font-family="Helvetica,sans-Serif" font-size="10.00">Test__ConcentrationDiffusion</text>
</a>
</g>
</g>
<!-- Node1&#45;&gt;Node16 -->
<g id="edge17" class="edge"><title>Node1&#45;&gt;Node16</title>
<path fill="none" stroke="midnightblue" d="M30.3644,-494.729C36.2908,-516.944 53.9552,-571.588 90,-599 92.479,-600.885 95.1136,-602.588 97.8607,-604.126"/>
<polygon fill="midnightblue" stroke="midnightblue" points="96.4344,-607.324 106.964,-608.499 99.465,-601.014 96.4344,-607.324"/>
</g>
<!-- Node17 -->
<g id="node17" class="node"><title>Node17</title>
<g id="a_node17"><a xlink:href="classICED_1_1TestingObject.html#a20a3def5cfb0861690599ae120367987" target="_top" xlink:title="Test for ICED::DeviceData. ">
<polygon fill="none" stroke="black" points="124,-836.5 124,-855.5 222,-855.5 222,-836.5 124,-836.5"/>
<text text-anchor="middle" x="173" y="-843.5" font-family="Helvetica,sans-Serif" font-size="10.00">Test__DeviceData</text>
</a>
</g>
</g>
<!-- Node1&#45;&gt;Node17 -->
<g id="edge20" class="edge"><title>Node1&#45;&gt;Node17</title>
<path fill="none" stroke="midnightblue" d="M28.3598,-494.592C30.4406,-544.827 42.5476,-777.196 90,-827 96.5144,-833.837 104.965,-838.433 113.96,-841.484"/>
<polygon fill="midnightblue" stroke="midnightblue" points="113.297,-844.932 123.868,-844.221 115.161,-838.184 113.297,-844.932"/>
</g>
<!-- Node19 -->
<g id="node19" class="node"><title>Node19</title>
<g id="a_node19"><a xlink:href="classICED_1_1TestingObject.html#a43dbcae20e4ab6f8b30751e9b5e5b2c2" target="_top" xlink:title="Test for ICED::DeviceDataMapping. ">
<polygon fill="none" stroke="black" points="317.5,-924.5 317.5,-943.5 452.5,-943.5 452.5,-924.5 317.5,-924.5"/>
<text text-anchor="middle" x="385" y="-931.5" font-family="Helvetica,sans-Serif" font-size="10.00">Test__DeviceDataMapping</text>
</a>
</g>
</g>
<!-- Node1&#45;&gt;Node19 -->
<g id="edge23" class="edge"><title>Node1&#45;&gt;Node19</title>
<path fill="none" stroke="midnightblue" d="M28.168,-494.575C29.3036,-548.021 37.5056,-809.073 90,-865 141.798,-920.185 182.873,-883.485 256,-903 272.165,-907.314 275.812,-909.775 292,-914 303.131,-916.905 315.096,-919.725 326.595,-922.286"/>
<polygon fill="midnightblue" stroke="midnightblue" points="326.029,-925.745 336.547,-924.466 327.527,-918.907 326.029,-925.745"/>
</g>
<!-- Node21 -->
<g id="node21" class="node"><title>Node21</title>
<g id="a_node21"><a xlink:href="classICED_1_1TestingObject.html#a06cf16fc934c4e87f6886a7beb771b0e" target="_top" xlink:title="Test for ICED::Diffusion module. ">
<polygon fill="none" stroke="black" points="130,-532.5 130,-551.5 216,-551.5 216,-532.5 130,-532.5"/>
<text text-anchor="middle" x="173" y="-539.5" font-family="Helvetica,sans-Serif" font-size="10.00">Test__Diffusion</text>
</a>
</g>
</g>
<!-- Node1&#45;&gt;Node21 -->
<g id="edge27" class="edge"><title>Node1&#45;&gt;Node21</title>
<path fill="none" stroke="midnightblue" d="M41.1161,-494.781C53.2268,-503.376 72.0087,-515.63 90,-523 99.4321,-526.864 109.812,-530.032 119.922,-532.598"/>
<polygon fill="midnightblue" stroke="midnightblue" points="119.36,-536.062 129.898,-534.966 120.977,-529.251 119.36,-536.062"/>
</g>
<!-- Node22 -->
<g id="node22" class="node"><title>Node22</title>
<g id="a_node22"><a xlink:href="classICED_1_1TestingObject.html#adcd8b620aa1ea5a579a671ac15b5620b" target="_top" xlink:title="Test for ICED::Intercalation. ">
<polygon fill="none" stroke="black" points="123,-798.5 123,-817.5 223,-817.5 223,-798.5 123,-798.5"/>
<text text-anchor="middle" x="173" y="-805.5" font-family="Helvetica,sans-Serif" font-size="10.00">Test__Intercalation</text>
</a>
</g>
</g>
<!-- Node1&#45;&gt;Node22 -->
<g id="edge30" class="edge"><title>Node1&#45;&gt;Node22</title>
<path fill="none" stroke="midnightblue" d="M28.681,-494.542C32.1581,-540.654 49.374,-739.975 90,-784 96.3532,-790.885 104.562,-795.833 113.325,-799.382"/>
<polygon fill="midnightblue" stroke="midnightblue" points="112.395,-802.763 122.989,-802.708 114.673,-796.144 112.395,-802.763"/>
</g>
<!-- Node24 -->
<g id="node24" class="node"><title>Node24</title>
<g id="a_node24"><a xlink:href="classICED_1_1TestingObject.html#af46c6cb015fb4151707a8c08084f4525" target="_top" xlink:title="Test for ICED::IonMigration module. ">
<polygon fill="none" stroke="black" points="123,-494.5 123,-513.5 223,-513.5 223,-494.5 123,-494.5"/>
<text text-anchor="middle" x="173" y="-501.5" font-family="Helvetica,sans-Serif" font-size="10.00">Test__IonMigration</text>
</a>
</g>
</g>
<!-- Node1&#45;&gt;Node24 -->
<g id="edge33" class="edge"><title>Node1&#45;&gt;Node24</title>
<path fill="none" stroke="midnightblue" d="M54.0773,-488.441C70.4403,-490.6 92.2342,-493.475 112.632,-496.167"/>
<polygon fill="midnightblue" stroke="midnightblue" points="112.446,-499.672 122.818,-497.511 113.362,-492.733 112.446,-499.672"/>
</g>
<!-- Node25 -->
<g id="node25" class="node"><title>Node25</title>
<g id="a_node25"><a xlink:href="classICED_1_1TestingObject.html#a263e8cc9d4d10cb3b749c8946ebcae72" target="_top" xlink:title="Test for ICED::DeviceComponent. ">
<polygon fill="none" stroke="black" points="330.5,-760.5 330.5,-779.5 439.5,-779.5 439.5,-760.5 330.5,-760.5"/>
<text text-anchor="middle" x="385" y="-767.5" font-family="Helvetica,sans-Serif" font-size="10.00">Test__ModulePriority</text>
</a>
</g>
</g>
<!-- Node1&#45;&gt;Node25 -->
<g id="edge36" class="edge"><title>Node1&#45;&gt;Node25</title>
<path fill="none" stroke="midnightblue" d="M28.8973,-494.628C33.0449,-536.923 51.8048,-705.62 90,-739 155.939,-796.626 264.581,-791.208 329.712,-781.184"/>
<polygon fill="midnightblue" stroke="midnightblue" points="330.471,-784.607 339.779,-779.545 329.346,-777.698 330.471,-784.607"/>
</g>
<!-- Node26 -->
<g id="node26" class="node"><title>Node26</title>
<g id="a_node26"><a xlink:href="classICED_1_1TestingObject.html#a4f825a89973b92c36e2fe2cbe6a653a0" target="_top" xlink:title="Test for ICED::OhmsLawElectrolyte. ">
<polygon fill="none" stroke="black" points="104.5,-456.5 104.5,-475.5 241.5,-475.5 241.5,-456.5 104.5,-456.5"/>
<text text-anchor="middle" x="173" y="-463.5" font-family="Helvetica,sans-Serif" font-size="10.00">Test__OhmsLawElectrolyte</text>
</a>
</g>
</g>
<!-- Node1&#45;&gt;Node26 -->
<g id="edge38" class="edge"><title>Node1&#45;&gt;Node26</title>
<path fill="none" stroke="midnightblue" d="M54.0773,-481.559C65.6014,-480.039 79.8193,-478.163 94.3461,-476.246"/>
<polygon fill="midnightblue" stroke="midnightblue" points="94.9669,-479.695 104.423,-474.916 94.0511,-472.755 94.9669,-479.695"/>
</g>
<!-- Node27 -->
<g id="node27" class="node"><title>Node27</title>
<g id="a_node27"><a xlink:href="classICED_1_1TestingObject.html#ab656a16700e242a40e0b21d7693a6ae0" target="_top" xlink:title="Test for ICED::OhmsLawSolid. ">
<polygon fill="none" stroke="black" points="116.5,-418.5 116.5,-437.5 229.5,-437.5 229.5,-418.5 116.5,-418.5"/>
<text text-anchor="middle" x="173" y="-425.5" font-family="Helvetica,sans-Serif" font-size="10.00">Test__OhmsLawSolid</text>
</a>
</g>
</g>
<!-- Node1&#45;&gt;Node27 -->
<g id="edge41" class="edge"><title>Node1&#45;&gt;Node27</title>
<path fill="none" stroke="midnightblue" d="M41.1161,-475.219C53.2268,-466.624 72.0087,-454.37 90,-447 96.1782,-444.469 102.763,-442.237 109.412,-440.276"/>
<polygon fill="midnightblue" stroke="midnightblue" points="110.446,-443.622 119.161,-437.596 108.591,-436.873 110.446,-443.622"/>
</g>
<!-- Node28 -->
<g id="node28" class="node"><title>Node28</title>
<g id="a_node28"><a xlink:href="classICED_1_1TestingObject.html#ac9ccd9d107fbdc6f3e61cf3485bdf282" target="_top" xlink:title="System level transient solver test. ">
<polygon fill="none" stroke="black" points="129,-342.5 129,-361.5 217,-361.5 217,-342.5 129,-342.5"/>
<text text-anchor="middle" x="173" y="-349.5" font-family="Helvetica,sans-Serif" font-size="10.00">Test__SolverBE</text>
</a>
</g>
</g>
<!-- Node1&#45;&gt;Node28 -->
<g id="edge44" class="edge"><title>Node1&#45;&gt;Node28</title>
<path fill="none" stroke="midnightblue" d="M30.7986,-475.192C37.4039,-453.833 56.0199,-402.876 90,-376 98.3757,-369.375 108.526,-364.579 118.789,-361.106"/>
<polygon fill="midnightblue" stroke="midnightblue" points="120.035,-364.387 128.61,-358.165 118.027,-357.681 120.035,-364.387"/>
</g>
<!-- Node29 -->
<g id="node29" class="node"><title>Node29</title>
<g id="a_node29"><a xlink:href="classICED_1_1TestingObject.html#a0e201e1d24473d26262c6eaf813f2b9a" target="_top" xlink:title="System level transient solver test. ">
<polygon fill="none" stroke="black" points="122.5,-304.5 122.5,-323.5 223.5,-323.5 223.5,-304.5 122.5,-304.5"/>
<text text-anchor="middle" x="173" y="-311.5" font-family="Helvetica,sans-Serif" font-size="10.00">Test__SolverBENL</text>
</a>
</g>
</g>
<!-- Node1&#45;&gt;Node29 -->
<g id="edge45" class="edge"><title>Node1&#45;&gt;Node29</title>
<path fill="none" stroke="midnightblue" d="M28.9171,-475.417C32.0268,-448.494 44.658,-371.627 90,-333 96.5562,-327.415 104.44,-323.394 112.692,-320.514"/>
<polygon fill="midnightblue" stroke="midnightblue" points="113.886,-323.811 122.492,-317.631 111.911,-317.096 113.886,-323.811"/>
</g>
<!-- Node30 -->
<g id="node30" class="node"><title>Node30</title>
<g id="a_node30"><a xlink:href="classICED_1_1TestingObject.html#afebbcefab9fa3a83cf0f22781eafd0df" target="_top" xlink:title="System level transient solver test. ">
<polygon fill="none" stroke="black" points="107.5,-266.5 107.5,-285.5 238.5,-285.5 238.5,-266.5 107.5,-266.5"/>
<text text-anchor="middle" x="173" y="-273.5" font-family="Helvetica,sans-Serif" font-size="10.00">Test__SolverButlerVolmer</text>
</a>
</g>
</g>
<!-- Node1&#45;&gt;Node30 -->
<g id="edge46" class="edge"><title>Node1&#45;&gt;Node30</title>
<path fill="none" stroke="midnightblue" d="M28.0373,-475.385C28.7077,-444.227 35.2429,-345.152 90,-295 92.6116,-292.608 95.4635,-290.499 98.487,-288.64"/>
<polygon fill="midnightblue" stroke="midnightblue" points="100.123,-291.734 107.404,-284.038 96.9129,-285.514 100.123,-291.734"/>
</g>
<!-- Node31 -->
<g id="node31" class="node"><title>Node31</title>
<g id="a_node31"><a xlink:href="classICED_1_1TestingObject.html#aba9f755f439390be1c37cb4244ababfa" target="_top" xlink:title="System level transient solver test. ">
<polygon fill="none" stroke="black" points="129.5,-228.5 129.5,-247.5 216.5,-247.5 216.5,-228.5 129.5,-228.5"/>
<text text-anchor="middle" x="173" y="-235.5" font-family="Helvetica,sans-Serif" font-size="10.00">Test__SolverFE</text>
</a>
</g>
</g>
<!-- Node1&#45;&gt;Node31 -->
<g id="edge47" class="edge"><title>Node1&#45;&gt;Node31</title>
<path fill="none" stroke="midnightblue" d="M27.4138,-475.036C25.9145,-439.635 25.8779,-318.742 90,-257 98.0595,-249.24 108.633,-244.422 119.495,-241.48"/>
<polygon fill="midnightblue" stroke="midnightblue" points="120.477,-244.848 129.488,-239.276 118.969,-238.012 120.477,-244.848"/>
</g>
<!-- Node32 -->
<g id="node32" class="node"><title>Node32</title>
<g id="a_node32"><a xlink:href="classICED_1_1TestingObject.html#a956feb8e6c4b3350695df252f6b77d65" target="_top" xlink:title="System level transient solver test. ">
<polygon fill="none" stroke="black" points="109,-190.5 109,-209.5 237,-209.5 237,-190.5 109,-190.5"/>
<text text-anchor="middle" x="173" y="-197.5" font-family="Helvetica,sans-Serif" font-size="10.00">Test__SolverIntercalation</text>
</a>
</g>
</g>
<!-- Node1&#45;&gt;Node32 -->
<g id="edge48" class="edge"><title>Node1&#45;&gt;Node32</title>
<path fill="none" stroke="midnightblue" d="M28.9026,-475.329C33.1368,-432.038 52.422,-256.529 90,-219 92.8839,-216.12 96.1126,-213.642 99.577,-211.512"/>
<polygon fill="midnightblue" stroke="midnightblue" points="101.292,-214.567 108.611,-206.907 98.1124,-208.33 101.292,-214.567"/>
</g>
<!-- Node33 -->
<g id="node33" class="node"><title>Node33</title>
<g id="a_node33"><a xlink:href="classICED_1_1TestingObject.html#a321c98e0752f9282aa30454c44c133b3" target="_top" xlink:title="System level transient solver test. ">
<polygon fill="none" stroke="black" points="90.5,-152.5 90.5,-171.5 255.5,-171.5 255.5,-152.5 90.5,-152.5"/>
<text text-anchor="middle" x="173" y="-159.5" font-family="Helvetica,sans-Serif" font-size="10.00">Test__SolverOhmsLawElectrolyte</text>
</a>
</g>
</g>
<!-- Node1&#45;&gt;Node33 -->
<g id="edge49" class="edge"><title>Node1&#45;&gt;Node33</title>
<path fill="none" stroke="midnightblue" d="M28.6053,-475.251C31.727,-428.145 47.5349,-224.606 90,-181 91.2617,-179.704 92.593,-178.49 93.9842,-177.351"/>
<polygon fill="midnightblue" stroke="midnightblue" points="96.1743,-180.097 102.541,-171.628 92.2825,-174.279 96.1743,-180.097"/>
</g>
<!-- Node35 -->
<g id="node35" class="node"><title>Node35</title>
<g id="a_node35"><a xlink:href="classICED_1_1TestingObject.html#afd99a05e9a70fae3dba8fa1a0e51a7a4" target="_top" xlink:title="System level transient solver test. ">
<polygon fill="none" stroke="black" points="103,-38.5 103,-57.5 243,-57.5 243,-38.5 103,-38.5"/>
<text text-anchor="middle" x="173" y="-45.5" font-family="Helvetica,sans-Serif" font-size="10.00">Test__SolverOhmsLawSolid</text>
</a>
</g>
</g>
<!-- Node1&#45;&gt;Node35 -->
<g id="edge51" class="edge"><title>Node1&#45;&gt;Node35</title>
<path fill="none" stroke="midnightblue" d="M28.0163,-475.234C28.3143,-418.254 32.6655,-129.142 90,-67 91.3749,-65.5098 92.8417,-64.1253 94.3863,-62.8395"/>
<polygon fill="midnightblue" stroke="midnightblue" points="96.3859,-65.7123 102.693,-57.1994 92.4539,-59.921 96.3859,-65.7123"/>
</g>
<!-- Node36 -->
<g id="node36" class="node"><title>Node36</title>
<g id="a_node36"><a xlink:href="classICED_1_1TestingObject.html#a4f0fbceeaabd0d88369dbc7c48b8e7c0" target="_top" xlink:title="System level solver test. ">
<polygon fill="none" stroke="black" points="120.5,-114.5 120.5,-133.5 225.5,-133.5 225.5,-114.5 120.5,-114.5"/>
<text text-anchor="middle" x="173" y="-121.5" font-family="Helvetica,sans-Serif" font-size="10.00">Test__SteadySolver</text>
</a>
</g>
</g>
<!-- Node1&#45;&gt;Node36 -->
<g id="edge52" class="edge"><title>Node1&#45;&gt;Node36</title>
<path fill="none" stroke="midnightblue" d="M28.3598,-475.408C30.4406,-425.173 42.5476,-192.804 90,-143 95.7332,-136.983 102.966,-132.701 110.75,-129.681"/>
<polygon fill="midnightblue" stroke="midnightblue" points="111.987,-132.961 120.453,-126.592 109.863,-126.291 111.987,-132.961"/>
</g>
<!-- Node37 -->
<g id="node37" class="node"><title>Node37</title>
<g id="a_node37"><a xlink:href="classICED_1_1TestingObject.html#abc862dcffca76c39e0729f56a43334ed" target="_top" xlink:title="System level solver test. ">
<polygon fill="none" stroke="black" points="114,-76.5 114,-95.5 232,-95.5 232,-76.5 114,-76.5"/>
<text text-anchor="middle" x="173" y="-83.5" font-family="Helvetica,sans-Serif" font-size="10.00">Test__SteadySolverNL</text>
</a>
</g>
</g>
<!-- Node1&#45;&gt;Node37 -->
<g id="edge54" class="edge"><title>Node1&#45;&gt;Node37</title>
<path fill="none" stroke="midnightblue" d="M28.1704,-475.427C29.319,-421.993 37.5798,-160.997 90,-105 94.0946,-100.626 98.9809,-97.1657 104.3,-94.4387"/>
<polygon fill="midnightblue" stroke="midnightblue" points="105.749,-97.6261 113.598,-90.5096 103.025,-91.1782 105.749,-97.6261"/>
</g>
<!-- Node38 -->
<g id="node38" class="node"><title>Node38</title>
<g id="a_node38"><a xlink:href="classICED_1_1TestingObject.html#aacdc6512e5ce8094c62997f4d1f02634" target="_top" xlink:title="Test for ICED::TransferenceNumber. ">
<polygon fill="none" stroke="black" points="104,-684.5 104,-703.5 242,-703.5 242,-684.5 104,-684.5"/>
<text text-anchor="middle" x="173" y="-691.5" font-family="Helvetica,sans-Serif" font-size="10.00">Test__TransferenceNumber</text>
</a>
</g>
</g>
<!-- Node1&#45;&gt;Node38 -->
<g id="edge56" class="edge"><title>Node1&#45;&gt;Node38</title>
<path fill="none" stroke="midnightblue" d="M28.0373,-494.615C28.7077,-525.773 35.2429,-624.848 90,-675 91.7074,-676.564 93.5175,-678.007 95.4111,-679.338"/>
<polygon fill="midnightblue" stroke="midnightblue" points="93.7922,-682.446 104.189,-684.486 97.3336,-676.408 93.7922,-682.446"/>
</g>
<!-- Node39 -->
<g id="node39" class="node"><title>Node39</title>
<g id="a_node39"><a xlink:href="classICED_1_1TestingObject.html#ad4813398638d788d836516151bd347ec" target="_top" xlink:title="System level unsolver test. ">
<polygon fill="none" stroke="black" points="115,-0.5 115,-19.5 231,-19.5 231,-0.5 115,-0.5"/>
<text text-anchor="middle" x="173" y="-7.5" font-family="Helvetica,sans-Serif" font-size="10.00">Test__UnsteadySolver</text>
</a>
</g>
</g>
<!-- Node1&#45;&gt;Node39 -->
<g id="edge59" class="edge"><title>Node1&#45;&gt;Node39</title>
<path fill="none" stroke="midnightblue" d="M27.8831,-475.148C27.3753,-414.977 27.7028,-97.3472 90,-29 94.3283,-24.2513 99.5888,-20.5734 105.333,-17.7384"/>
<polygon fill="midnightblue" stroke="midnightblue" points="106.742,-20.9443 114.695,-13.9447 104.113,-14.4567 106.742,-20.9443"/>
</g>
<!-- Node40 -->
<g id="node40" class="node"><title>Node40</title>
<g id="a_node40"><a xlink:href="classICED_1_1TestingObject.html#a9bbc638a5bd612413bdd4c03b6c66d0c" target="_top" xlink:title="Test for ICED::wallFlux. ">
<polygon fill="none" stroke="black" points="130.5,-570.5 130.5,-589.5 215.5,-589.5 215.5,-570.5 130.5,-570.5"/>
<text text-anchor="middle" x="173" y="-577.5" font-family="Helvetica,sans-Serif" font-size="10.00">Test__WallFlux</text>
</a>
</g>
</g>
<!-- Node1&#45;&gt;Node40 -->
<g id="edge60" class="edge"><title>Node1&#45;&gt;Node40</title>
<path fill="none" stroke="midnightblue" d="M33.048,-494.655C42.1277,-511.021 62.8278,-544.074 90,-561 99.1177,-566.679 109.76,-570.664 120.3,-573.458"/>
<polygon fill="midnightblue" stroke="midnightblue" points="119.787,-576.933 130.32,-575.79 121.374,-570.115 119.787,-576.933"/>
</g>
<!-- Node5 -->
<g id="node5" class="node"><title>Node5</title>
<g id="a_node5"><a xlink:href="classICED_1_1HalfCell_1_1DeviceData.html#ac62391584f55efe6bd7916ebf7d2e92b" target="_top" xlink:title="Initialization of the entire device data structure. ">
<polygon fill="none" stroke="black" points="514,-641 514,-671 654,-671 654,-641 514,-641"/>
<text text-anchor="start" x="522" y="-659" font-family="Helvetica,sans-Serif" font-size="10.00">ICED::HalfCell::DeviceData</text>
<text text-anchor="middle" x="584" y="-648" font-family="Helvetica,sans-Serif" font-size="10.00">::BuildDevice</text>
</a>
</g>
</g>
<!-- Node4&#45;&gt;Node5 -->
<g id="edge4" class="edge"><title>Node4&#45;&gt;Node5</title>
<path fill="none" stroke="midnightblue" d="M236.564,-656C308.2,-656 425.69,-656 503.688,-656"/>
<polygon fill="midnightblue" stroke="midnightblue" points="503.947,-659.5 513.947,-656 503.947,-652.5 503.947,-659.5"/>
</g>
<!-- Node13 -->
<g id="node13" class="node"><title>Node13</title>
<g id="a_node13"><a xlink:href="classICED_1_1TestingObject.html#a01777cfc8b6084a272d3aec03e253b7c" target="_top" xlink:title="Initializes the test solution data. ">
<polygon fill="none" stroke="black" points="318,-532.5 318,-551.5 452,-551.5 452,-532.5 318,-532.5"/>
<text text-anchor="middle" x="385" y="-539.5" font-family="Helvetica,sans-Serif" font-size="10.00">GenerateParabolicFunction</text>
</a>
</g>
</g>
<!-- Node4&#45;&gt;Node13 -->
<g id="edge12" class="edge"><title>Node4&#45;&gt;Node13</title>
<path fill="none" stroke="midnightblue" d="M229.297,-646.474C238.434,-643.976 247.644,-640.864 256,-637 299.816,-616.741 343.349,-579.984 366.642,-558.617"/>
<polygon fill="midnightblue" stroke="midnightblue" points="369.076,-561.133 374.004,-551.754 364.303,-556.013 369.076,-561.133"/>
</g>
<!-- Node6 -->
<g id="node6" class="node"><title>Node6</title>
<g id="a_node6"><a xlink:href="classICED_1_1HalfCell_1_1SolutionData.html#a16b07d4b06e74431a0783cbd6dd6e731" target="_top" xlink:title="Initialization of the input data from input file. ">
<polygon fill="none" stroke="black" points="703,-641 703,-671 827,-671 827,-641 703,-641"/>
<text text-anchor="start" x="711" y="-659" font-family="Helvetica,sans-Serif" font-size="10.00">ICED::HalfCell::Solution</text>
<text text-anchor="middle" x="765" y="-648" font-family="Helvetica,sans-Serif" font-size="10.00">Data::SetData</text>
</a>
</g>
</g>
<!-- Node5&#45;&gt;Node6 -->
<g id="edge5" class="edge"><title>Node5&#45;&gt;Node6</title>
<path fill="none" stroke="midnightblue" d="M654.206,-656C666.859,-656 680.084,-656 692.794,-656"/>
<polygon fill="midnightblue" stroke="midnightblue" points="692.857,-659.5 702.857,-656 692.857,-652.5 692.857,-659.5"/>
</g>
<!-- Node7 -->
<g id="node7" class="node"><title>Node7</title>
<g id="a_node7"><a xlink:href="classICED_1_1HalfCell_1_1DeviceData.html#a16b07d4b06e74431a0783cbd6dd6e731" target="_top" xlink:title="Initialization of the input data from input file. ">
<polygon fill="none" stroke="black" points="695,-592 695,-622 835,-622 835,-592 695,-592"/>
<text text-anchor="start" x="703" y="-610" font-family="Helvetica,sans-Serif" font-size="10.00">ICED::HalfCell::DeviceData</text>
<text text-anchor="middle" x="765" y="-599" font-family="Helvetica,sans-Serif" font-size="10.00">::SetData</text>
</a>
</g>
</g>
<!-- Node5&#45;&gt;Node7 -->
<g id="edge6" class="edge"><title>Node5&#45;&gt;Node7</title>
<path fill="none" stroke="midnightblue" d="M640.166,-640.899C658.884,-635.775 679.963,-630.004 699.353,-624.697"/>
<polygon fill="midnightblue" stroke="midnightblue" points="700.295,-628.068 709.016,-622.052 698.446,-621.316 700.295,-628.068"/>
</g>
<!-- Node8 -->
<g id="node8" class="node"><title>Node8</title>
<g id="a_node8"><a xlink:href="classICED_1_1HalfCell_1_1DeviceData.html#a9dce6b5d6a4272a04fb399b6b7723c96" target="_top" xlink:title="Initialization of the components from input file. ">
<polygon fill="none" stroke="black" points="695,-543 695,-573 835,-573 835,-543 695,-543"/>
<text text-anchor="start" x="703" y="-561" font-family="Helvetica,sans-Serif" font-size="10.00">ICED::HalfCell::DeviceData</text>
<text text-anchor="middle" x="765" y="-550" font-family="Helvetica,sans-Serif" font-size="10.00">::LoadComponents</text>
</a>
</g>
</g>
<!-- Node5&#45;&gt;Node8 -->
<g id="edge7" class="edge"><title>Node5&#45;&gt;Node8</title>
<path fill="none" stroke="midnightblue" d="M603.336,-640.839C623.536,-624.733 657.482,-599.382 690,-583 694.314,-580.827 698.861,-578.774 703.492,-576.85"/>
<polygon fill="midnightblue" stroke="midnightblue" points="705.041,-580.002 713.068,-573.087 702.48,-573.487 705.041,-580.002"/>
</g>
<!-- Node9 -->
<g id="node9" class="node"><title>Node9</title>
<g id="a_node9"><a xlink:href="classICED_1_1HalfCell_1_1DeviceData.html#abea9dd513340105152db94ed9f24211a" target="_top" xlink:title="Setup of the global device data structure. ">
<polygon fill="none" stroke="black" points="695,-739 695,-769 835,-769 835,-739 695,-739"/>
<text text-anchor="start" x="703" y="-757" font-family="Helvetica,sans-Serif" font-size="10.00">ICED::HalfCell::DeviceData</text>
<text text-anchor="middle" x="765" y="-746" font-family="Helvetica,sans-Serif" font-size="10.00">::SetupGlobalData</text>
</a>
</g>
</g>
<!-- Node5&#45;&gt;Node9 -->
<g id="edge8" class="edge"><title>Node5&#45;&gt;Node9</title>
<path fill="none" stroke="midnightblue" d="M603.336,-671.161C623.536,-687.267 657.482,-712.618 690,-729 694.314,-731.173 698.861,-733.226 703.492,-735.15"/>
<polygon fill="midnightblue" stroke="midnightblue" points="702.48,-738.513 713.068,-738.913 705.041,-731.998 702.48,-738.513"/>
</g>
<!-- Node11 -->
<g id="node11" class="node"><title>Node11</title>
<g id="a_node11"><a xlink:href="classICED_1_1HalfCell_1_1DeviceData.html#a9e170c875ec6749900cb89bfb977379a" target="_top" xlink:title="Copy device data from the component level. ">
<polygon fill="none" stroke="black" points="692.5,-810 692.5,-840 837.5,-840 837.5,-810 692.5,-810"/>
<text text-anchor="start" x="700.5" y="-828" font-family="Helvetica,sans-Serif" font-size="10.00">ICED::HalfCell::DeviceData</text>
<text text-anchor="middle" x="765" y="-817" font-family="Helvetica,sans-Serif" font-size="10.00">::CopyDataFromComponents</text>
</a>
</g>
</g>
<!-- Node5&#45;&gt;Node11 -->
<g id="edge10" class="edge"><title>Node5&#45;&gt;Node11</title>
<path fill="none" stroke="midnightblue" d="M595.726,-671.144C613.475,-695.53 650.895,-744.184 690,-778 701.302,-787.773 714.818,-796.962 727.188,-804.578"/>
<polygon fill="midnightblue" stroke="midnightblue" points="725.569,-807.689 735.945,-809.832 729.17,-801.686 725.569,-807.689"/>
</g>
<!-- Node12 -->
<g id="node12" class="node"><title>Node12</title>
<g id="a_node12"><a xlink:href="classICED_1_1HalfCell_1_1DeviceData.html#af4d13d54a16ba494be74358656df1381" target="_top" xlink:title="Copy device data to global storage for the non&#45;linear solver. ">
<polygon fill="none" stroke="black" points="690.5,-690 690.5,-720 839.5,-720 839.5,-690 690.5,-690"/>
<text text-anchor="start" x="698.5" y="-708" font-family="Helvetica,sans-Serif" font-size="10.00">ICED::HalfCell::DeviceData</text>
<text text-anchor="middle" x="765" y="-697" font-family="Helvetica,sans-Serif" font-size="10.00">::CopyDeviceToGlobalStorage</text>
</a>
</g>
</g>
<!-- Node5&#45;&gt;Node12 -->
<g id="edge11" class="edge"><title>Node5&#45;&gt;Node12</title>
<path fill="none" stroke="midnightblue" d="M640.166,-671.101C658.884,-676.225 679.963,-681.996 699.353,-687.303"/>
<polygon fill="midnightblue" stroke="midnightblue" points="698.446,-690.684 709.016,-689.948 700.295,-683.932 698.446,-690.684"/>
</g>
<!-- Node10 -->
<g id="node10" class="node"><title>Node10</title>
<g id="a_node10"><a xlink:href="classICED_1_1HalfCell_1_1SolutionData.html#a80aaf93c79fb804885351b17786981e4" target="_top" xlink:title="Setup of the trilinosdata structure. ">
<polygon fill="none" stroke="black" points="876,-739 876,-769 1000,-769 1000,-739 876,-739"/>
<text text-anchor="start" x="884" y="-757" font-family="Helvetica,sans-Serif" font-size="10.00">ICED::HalfCell::Solution</text>
<text text-anchor="middle" x="938" y="-746" font-family="Helvetica,sans-Serif" font-size="10.00">Data::BuildSolutionData</text>
</a>
</g>
</g>
<!-- Node9&#45;&gt;Node10 -->
<g id="edge9" class="edge"><title>Node9&#45;&gt;Node10</title>
<path fill="none" stroke="midnightblue" d="M835.059,-754C845.209,-754 855.68,-754 865.871,-754"/>
<polygon fill="midnightblue" stroke="midnightblue" points="865.946,-757.5 875.946,-754 865.946,-750.5 865.946,-757.5"/>
</g>
<!-- Node14&#45;&gt;Node5 -->
<g id="edge14" class="edge"><title>Node14&#45;&gt;Node5</title>
<path fill="none" stroke="midnightblue" d="M430.092,-722.444C445.465,-718.603 462.692,-713.719 478,-708 501.853,-699.089 527.484,-686.46 547.451,-675.879"/>
<polygon fill="midnightblue" stroke="midnightblue" points="549.328,-678.844 556.482,-671.029 546.016,-672.677 549.328,-678.844"/>
</g>
<!-- Node15&#45;&gt;Node5 -->
<g id="edge16" class="edge"><title>Node15&#45;&gt;Node5</title>
<path fill="none" stroke="midnightblue" d="M453.679,-361.54C462.574,-365.016 471.011,-369.7 478,-376 554.663,-445.106 575.579,-575.74 581.098,-630.663"/>
<polygon fill="midnightblue" stroke="midnightblue" points="577.638,-631.252 582.033,-640.892 584.609,-630.615 577.638,-631.252"/>
</g>
<!-- Node16&#45;&gt;Node5 -->
<g id="edge18" class="edge"><title>Node16&#45;&gt;Node5</title>
<path fill="none" stroke="midnightblue" d="M246.18,-624.706C318.349,-631.411 429.048,-641.696 503.648,-648.627"/>
<polygon fill="midnightblue" stroke="midnightblue" points="503.646,-652.142 513.927,-649.582 504.294,-645.172 503.646,-652.142"/>
</g>
<!-- Node16&#45;&gt;Node13 -->
<g id="edge19" class="edge"><title>Node16&#45;&gt;Node13</title>
<path fill="none" stroke="midnightblue" d="M222.126,-608.469C233.358,-605.8 245.192,-602.621 256,-599 291.588,-587.075 330.773,-568.82 356.293,-556.196"/>
<polygon fill="midnightblue" stroke="midnightblue" points="357.989,-559.261 365.368,-551.659 354.858,-553 357.989,-559.261"/>
</g>
<!-- Node18 -->
<g id="node18" class="node"><title>Node18</title>
<g id="a_node18"><a xlink:href="classICED_1_1HalfCell_1_1DeviceData.html#a3fe7f3b792b8be799a077bf9efe05d0c" target="_top" xlink:title="Initialization of the component parameter objects. ">
<polygon fill="none" stroke="black" points="300,-875 300,-905 470,-905 470,-875 300,-875"/>
<text text-anchor="start" x="308" y="-893" font-family="Helvetica,sans-Serif" font-size="10.00">ICED::HalfCell::DeviceData</text>
<text text-anchor="middle" x="385" y="-882" font-family="Helvetica,sans-Serif" font-size="10.00">::GetDeviceComponentParameters</text>
</a>
</g>
</g>
<!-- Node17&#45;&gt;Node18 -->
<g id="edge21" class="edge"><title>Node17&#45;&gt;Node18</title>
<path fill="none" stroke="midnightblue" d="M219.567,-855.547C243.738,-860.612 274.175,-866.989 302.271,-872.876"/>
<polygon fill="midnightblue" stroke="midnightblue" points="301.592,-876.309 312.097,-874.935 303.027,-869.458 301.592,-876.309"/>
</g>
<!-- Node17&#45;&gt;Node5 -->
<g id="edge22" class="edge"><title>Node17&#45;&gt;Node5</title>
<path fill="none" stroke="midnightblue" d="M220.332,-855.51C283.488,-865.873 397.894,-875.156 478,-827 532.993,-793.941 563.206,-719.936 575.83,-681.017"/>
<polygon fill="midnightblue" stroke="midnightblue" points="579.307,-681.621 578.93,-671.033 572.622,-679.545 579.307,-681.621"/>
</g>
<!-- Node19&#45;&gt;Node5 -->
<g id="edge24" class="edge"><title>Node19&#45;&gt;Node5</title>
<path fill="none" stroke="midnightblue" d="M452.951,-927.564C462.054,-924.465 470.744,-920.101 478,-914 496.938,-898.076 552.704,-742.718 574.31,-681.046"/>
<polygon fill="midnightblue" stroke="midnightblue" points="577.711,-681.923 577.703,-671.328 571.102,-679.616 577.711,-681.923"/>
</g>
<!-- Node19&#45;&gt;Node11 -->
<g id="edge25" class="edge"><title>Node19&#45;&gt;Node11</title>
<path fill="none" stroke="midnightblue" d="M433.94,-924.41C448.182,-921.337 463.776,-917.752 478,-914 559.755,-892.437 653.03,-862.363 710.212,-843.287"/>
<polygon fill="midnightblue" stroke="midnightblue" points="711.392,-846.583 719.765,-840.091 709.171,-839.945 711.392,-846.583"/>
</g>
<!-- Node20 -->
<g id="node20" class="node"><title>Node20</title>
<g id="a_node20"><a xlink:href="classICED_1_1HalfCell_1_1DeviceData.html#a4c576785732499156ac44948922e6fca" target="_top" xlink:title="Copy device data to the component level. ">
<polygon fill="none" stroke="black" points="514,-919 514,-949 654,-949 654,-919 514,-919"/>
<text text-anchor="start" x="522" y="-937" font-family="Helvetica,sans-Serif" font-size="10.00">ICED::HalfCell::DeviceData</text>
<text text-anchor="middle" x="584" y="-926" font-family="Helvetica,sans-Serif" font-size="10.00">::CopyDataToComponents</text>
</a>
</g>
</g>
<!-- Node19&#45;&gt;Node20 -->
<g id="edge26" class="edge"><title>Node19&#45;&gt;Node20</title>
<path fill="none" stroke="midnightblue" d="M452.695,-934C468.964,-934 486.53,-934 503.336,-934"/>
<polygon fill="midnightblue" stroke="midnightblue" points="503.684,-937.5 513.684,-934 503.684,-930.5 503.684,-937.5"/>
</g>
<!-- Node21&#45;&gt;Node5 -->
<g id="edge28" class="edge"><title>Node21&#45;&gt;Node5</title>
<path fill="none" stroke="midnightblue" d="M216.041,-534.348C288.381,-522.004 432.97,-501.179 478,-523 524.545,-545.556 556.682,-599.86 572.248,-631.666"/>
<polygon fill="midnightblue" stroke="midnightblue" points="569.106,-633.21 576.544,-640.755 575.435,-630.218 569.106,-633.21"/>
</g>
<!-- Node21&#45;&gt;Node13 -->
<g id="edge29" class="edge"><title>Node21&#45;&gt;Node13</title>
<path fill="none" stroke="midnightblue" d="M216.244,-542C242.393,-542 276.743,-542 307.547,-542"/>
<polygon fill="midnightblue" stroke="midnightblue" points="307.84,-545.5 317.84,-542 307.84,-538.5 307.84,-545.5"/>
</g>
<!-- Node23 -->
<g id="node23" class="node"><title>Node23</title>
<g id="a_node23"><a xlink:href="classICED_1_1TestingObject.html#a7995a39337d2ec045b02982b1b346b28" target="_top" xlink:title="Function called by Test__Intercalation. ">
<polygon fill="none" stroke="black" points="325.5,-798.5 325.5,-817.5 444.5,-817.5 444.5,-798.5 325.5,-798.5"/>
<text text-anchor="middle" x="385" y="-805.5" font-family="Helvetica,sans-Serif" font-size="10.00">RunIntercalationModule</text>
</a>
</g>
</g>
<!-- Node22&#45;&gt;Node23 -->
<g id="edge31" class="edge"><title>Node22&#45;&gt;Node23</title>
<path fill="none" stroke="midnightblue" d="M223.236,-808C250.683,-808 285.292,-808 315.361,-808"/>
<polygon fill="midnightblue" stroke="midnightblue" points="315.368,-811.5 325.368,-808 315.368,-804.5 315.368,-811.5"/>
</g>
<!-- Node23&#45;&gt;Node5 -->
<g id="edge32" class="edge"><title>Node23&#45;&gt;Node5</title>
<path fill="none" stroke="midnightblue" d="M444.776,-802.223C456.359,-799.37 468.008,-795.169 478,-789 521.369,-762.226 554.128,-710.777 570.774,-680.313"/>
<polygon fill="midnightblue" stroke="midnightblue" points="574.005,-681.691 575.606,-671.218 567.823,-678.407 574.005,-681.691"/>
</g>
<!-- Node24&#45;&gt;Node5 -->
<g id="edge34" class="edge"><title>Node24&#45;&gt;Node5</title>
<path fill="none" stroke="midnightblue" d="M211.229,-494.465C271.284,-481.208 391.541,-463.604 478,-509 527.788,-535.142 559.341,-596.775 573.779,-631.361"/>
<polygon fill="midnightblue" stroke="midnightblue" points="570.578,-632.78 577.556,-640.752 577.072,-630.168 570.578,-632.78"/>
</g>
<!-- Node24&#45;&gt;Node13 -->
<g id="edge35" class="edge"><title>Node24&#45;&gt;Node13</title>
<path fill="none" stroke="midnightblue" d="M223.236,-512.909C252.552,-518.214 290.04,-524.998 321.439,-530.679"/>
<polygon fill="midnightblue" stroke="midnightblue" points="320.938,-534.146 331.402,-532.482 322.185,-527.257 320.938,-534.146"/>
</g>
<!-- Node25&#45;&gt;Node5 -->
<g id="edge37" class="edge"><title>Node25&#45;&gt;Node5</title>
<path fill="none" stroke="midnightblue" d="M439.682,-763.883C452.683,-761.075 466.219,-756.978 478,-751 512.796,-733.345 544.807,-701.063 564.111,-679.079"/>
<polygon fill="midnightblue" stroke="midnightblue" points="567.009,-681.077 570.867,-671.21 561.698,-676.517 567.009,-681.077"/>
</g>
<!-- Node26&#45;&gt;Node5 -->
<g id="edge39" class="edge"><title>Node26&#45;&gt;Node5</title>
<path fill="none" stroke="midnightblue" d="M210.347,-456.484C270.724,-442.855 393.405,-424.594 478,-475 536.28,-509.726 565.406,-590.104 576.9,-631.051"/>
<polygon fill="midnightblue" stroke="midnightblue" points="573.541,-632.038 579.508,-640.792 580.302,-630.227 573.541,-632.038"/>
</g>
<!-- Node26&#45;&gt;Node13 -->
<g id="edge40" class="edge"><title>Node26&#45;&gt;Node13</title>
<path fill="none" stroke="midnightblue" d="M222.126,-475.531C233.358,-478.2 245.192,-481.379 256,-485 291.588,-496.925 330.773,-515.18 356.293,-527.804"/>
<polygon fill="midnightblue" stroke="midnightblue" points="354.858,-531 365.368,-532.341 357.989,-524.739 354.858,-531"/>
</g>
<!-- Node27&#45;&gt;Node5 -->
<g id="edge42" class="edge"><title>Node27&#45;&gt;Node5</title>
<path fill="none" stroke="midnightblue" d="M207.903,-418.463C267.847,-403.726 394.123,-382.446 478,-437 546.208,-481.362 571.248,-583.279 579.443,-630.777"/>
<polygon fill="midnightblue" stroke="midnightblue" points="576.017,-631.517 581.064,-640.833 582.928,-630.403 576.017,-631.517"/>
</g>
<!-- Node27&#45;&gt;Node13 -->
<g id="edge43" class="edge"><title>Node27&#45;&gt;Node13</title>
<path fill="none" stroke="midnightblue" d="M229.297,-437.526C238.434,-440.024 247.644,-443.136 256,-447 299.816,-467.259 343.349,-504.016 366.642,-525.383"/>
<polygon fill="midnightblue" stroke="midnightblue" points="364.303,-527.987 374.004,-532.246 369.076,-522.867 364.303,-527.987"/>
</g>
<!-- Node34 -->
<g id="node34" class="node"><title>Node34</title>
<g id="a_node34"><a xlink:href="namespaceICED_1_1HalfCell.html#a55b082d5ba8d68accf6f0052d68650f0" target="_top" xlink:title="initialization of the NOX solver ">
<polygon fill="none" stroke="black" points="314,-114.5 314,-133.5 456,-133.5 456,-114.5 314,-114.5"/>
<text text-anchor="middle" x="385" y="-121.5" font-family="Helvetica,sans-Serif" font-size="10.00">ICED::HalfCell::SetupSolver</text>
</a>
</g>
</g>
<!-- Node33&#45;&gt;Node34 -->
<g id="edge50" class="edge"><title>Node33&#45;&gt;Node34</title>
<path fill="none" stroke="midnightblue" d="M226.721,-152.46C255.429,-147.265 291.137,-140.804 321.27,-135.351"/>
<polygon fill="midnightblue" stroke="midnightblue" points="322.041,-138.769 331.258,-133.544 320.794,-131.88 322.041,-138.769"/>
</g>
<!-- Node36&#45;&gt;Node34 -->
<g id="edge53" class="edge"><title>Node36&#45;&gt;Node34</title>
<path fill="none" stroke="midnightblue" d="M225.641,-124C249.12,-124 277.448,-124 303.614,-124"/>
<polygon fill="midnightblue" stroke="midnightblue" points="303.904,-127.5 313.904,-124 303.904,-120.5 303.904,-127.5"/>
</g>
<!-- Node37&#45;&gt;Node34 -->
<g id="edge55" class="edge"><title>Node37&#45;&gt;Node34</title>
<path fill="none" stroke="midnightblue" d="M226.721,-95.54C255.429,-100.735 291.137,-107.196 321.27,-112.649"/>
<polygon fill="midnightblue" stroke="midnightblue" points="320.794,-116.12 331.258,-114.456 322.041,-109.231 320.794,-116.12"/>
</g>
<!-- Node38&#45;&gt;Node5 -->
<g id="edge57" class="edge"><title>Node38&#45;&gt;Node5</title>
<path fill="none" stroke="midnightblue" d="M242.012,-689.681C303.686,-685.515 397.056,-678.585 478,-670 486.347,-669.115 495.055,-668.1 503.73,-667.03"/>
<polygon fill="midnightblue" stroke="midnightblue" points="504.39,-670.475 513.875,-665.754 503.516,-663.53 504.39,-670.475"/>
</g>
<!-- Node38&#45;&gt;Node13 -->
<g id="edge58" class="edge"><title>Node38&#45;&gt;Node13</title>
<path fill="none" stroke="midnightblue" d="M233.774,-684.454C241.52,-681.991 249.137,-678.894 256,-675 307.81,-645.602 351.866,-588.775 372.113,-559.851"/>
<polygon fill="midnightblue" stroke="midnightblue" points="375.063,-561.738 377.83,-551.51 369.289,-557.78 375.063,-561.738"/>
</g>
<!-- Node40&#45;&gt;Node5 -->
<g id="edge61" class="edge"><title>Node40&#45;&gt;Node5</title>
<path fill="none" stroke="midnightblue" d="M215.639,-584.292C274.515,-590.783 385.26,-604.551 478,-625 494.216,-628.576 511.594,-633.321 527.451,-638.022"/>
<polygon fill="midnightblue" stroke="midnightblue" points="526.519,-641.396 537.103,-640.932 528.539,-634.694 526.519,-641.396"/>
</g>
<!-- Node40&#45;&gt;Node13 -->
<g id="edge62" class="edge"><title>Node40&#45;&gt;Node13</title>
<path fill="none" stroke="midnightblue" d="M215.74,-572.447C245.897,-566.99 287.152,-559.525 321.264,-553.352"/>
<polygon fill="midnightblue" stroke="midnightblue" points="321.922,-556.79 331.139,-551.565 320.676,-549.902 321.922,-556.79"/>
</g>
</g>
</svg>
