<?xml version="1.0" encoding="UTF-8" standalone="no"?>
<!DOCTYPE svg PUBLIC "-//W3C//DTD SVG 1.1//EN"
 "http://www.w3.org/Graphics/SVG/1.1/DTD/svg11.dtd">
<!-- Generated by graphviz version 2.30.1 (20150305.2338)
 -->
<!-- Title: TestingObject&lt; ResultsType &gt; Pages: 1 -->
<svg width="2514pt" height="914pt"
 viewBox="0.00 0.00 2514.00 914.00" xmlns="http://www.w3.org/2000/svg" xmlns:xlink="http://www.w3.org/1999/xlink">
<g id="graph0" class="graph" transform="scale(1 1) rotate(0) translate(4 910)">
<title>TestingObject&lt; ResultsType &gt;</title>
<!-- Node1 -->
<g id="node1" class="node"><title>Node1</title>
<polygon fill="#bfbfbf" stroke="black" points="2354.5,-801.5 2354.5,-820.5 2505.5,-820.5 2505.5,-801.5 2354.5,-801.5"/>
<text text-anchor="middle" x="2430" y="-808.5" font-family="Helvetica,sans-Serif" font-size="10.00">TestingObject&lt; ResultsType &gt;</text>
</g>
<!-- Node2 -->
<g id="node2" class="node"><title>Node2</title>
<polygon fill="none" stroke="#bfbfbf" points="2110.5,-886.5 2110.5,-905.5 2255.5,-905.5 2255.5,-886.5 2110.5,-886.5"/>
<text text-anchor="middle" x="2183" y="-893.5" font-family="Helvetica,sans-Serif" font-size="10.00">TestingObject&lt;ResultsType&gt;</text>
</g>
<!-- Node2&#45;&gt;Node1 -->
<g id="edge1" class="edge"><title>Node2&#45;&gt;Node1</title>
<path fill="none" stroke="midnightblue" d="M2265.8,-889.551C2289.02,-886.005 2313.97,-880.51 2336,-872 2368.42,-859.478 2401.23,-834.408 2417.85,-820.626"/>
<polygon fill="midnightblue" stroke="midnightblue" points="2265.03,-886.126 2255.62,-891.002 2266.02,-893.056 2265.03,-886.126"/>
</g>
<!-- Node3 -->
<g id="node3" class="node"><title>Node3</title>
<polygon fill="none" stroke="#bfbfbf" points="494.5,-837.5 494.5,-856.5 653.5,-856.5 653.5,-837.5 494.5,-837.5"/>
<text text-anchor="middle" x="574" y="-844.5" font-family="Helvetica,sans-Serif" font-size="10.00">list&lt; TestingObjectBaseType * &gt;</text>
</g>
<!-- Node3&#45;&gt;Node1 -->
<g id="edge2" class="edge"><title>Node3&#45;&gt;Node1</title>
<path fill="none" stroke="#9a32cd" stroke-dasharray="5,2" d="M663.964,-851.777C726.816,-854.745 813.044,-858 889,-858 889,-858 889,-858 2184,-858 2262.82,-858 2353.4,-834.245 2399.18,-820.511"/>
<polygon fill="#9a32cd" stroke="#9a32cd" points="663.846,-848.267 653.69,-851.284 663.511,-855.259 663.846,-848.267"/>
<text text-anchor="middle" x="1468" y="-861" font-family="Helvetica,sans-Serif" font-size="10.00"> TestList</text>
</g>
<!-- Node4 -->
<g id="node4" class="node"><title>Node4</title>
<g id="a_node4"><a xlink:title="STL class. ">
<polygon fill="none" stroke="#bfbfbf" points="252.5,-812.5 252.5,-831.5 305.5,-831.5 305.5,-812.5 252.5,-812.5"/>
<text text-anchor="middle" x="279" y="-819.5" font-family="Helvetica,sans-Serif" font-size="10.00">list&lt; T &gt;</text>
</a>
</g>
</g>
<!-- Node4&#45;&gt;Node3 -->
<g id="edge3" class="edge"><title>Node4&#45;&gt;Node3</title>
<path fill="none" stroke="orange" stroke-dasharray="5,2" d="M315.716,-825.047C359.869,-828.815 436.288,-835.335 494.402,-840.294"/>
<polygon fill="orange" stroke="orange" points="316.006,-821.56 305.745,-824.197 315.411,-828.534 316.006,-821.56"/>
<text text-anchor="middle" x="409" y="-842" font-family="Helvetica,sans-Serif" font-size="10.00"> &lt; TestingObjectBaseType * &gt;</text>
</g>
<!-- Node5 -->
<g id="node5" class="node"><title>Node5</title>
<polygon fill="none" stroke="#bfbfbf" points="0.5,-715.5 0.5,-734.5 29.5,-734.5 29.5,-715.5 0.5,-715.5"/>
<text text-anchor="middle" x="15" y="-722.5" font-family="Helvetica,sans-Serif" font-size="10.00">T</text>
</g>
<!-- Node5&#45;&gt;Node4 -->
<g id="edge4" class="edge"><title>Node5&#45;&gt;Node4</title>
<path fill="none" stroke="#9a32cd" stroke-dasharray="5,2" d="M39.1163,-733.558C87.9694,-751.645 201.396,-793.639 252.376,-812.513"/>
<polygon fill="#9a32cd" stroke="#9a32cd" points="40.3105,-730.268 29.7174,-730.079 37.8801,-736.833 40.3105,-730.268"/>
<text text-anchor="middle" x="70" y="-755" font-family="Helvetica,sans-Serif" font-size="10.00"> elements</text>
</g>
<!-- Node9 -->
<g id="node9" class="node"><title>Node9</title>
<g id="a_node9"><a xlink:title="STL class. ">
<polygon fill="none" stroke="#bfbfbf" points="129,-506.5 129,-525.5 197,-525.5 197,-506.5 129,-506.5"/>
<text text-anchor="middle" x="163" y="-513.5" font-family="Helvetica,sans-Serif" font-size="10.00">vector&lt; T &gt;</text>
</a>
</g>
</g>
<!-- Node5&#45;&gt;Node9 -->
<g id="edge9" class="edge"><title>Node5&#45;&gt;Node9</title>
<path fill="none" stroke="#9a32cd" stroke-dasharray="5,2" d="M28.4385,-707.194C58.1738,-664.628 132.589,-558.102 155.308,-525.579"/>
<polygon fill="#9a32cd" stroke="#9a32cd" points="25.5102,-705.274 22.6527,-715.477 31.2487,-709.283 25.5102,-705.274"/>
<text text-anchor="middle" x="70" y="-678" font-family="Helvetica,sans-Serif" font-size="10.00"> elements</text>
</g>
<!-- Node6 -->
<g id="node6" class="node"><title>Node6</title>
<g id="a_node6"><a xlink:href="classICED_1_1HalfCell_1_1DeviceData.html" target="_top" xlink:title="Class to hold the solution data for the electro&#45;chemical device solver and interface to the Trilinos ...">
<polygon fill="none" stroke="black" points="2149,-571.5 2149,-590.5 2217,-590.5 2217,-571.5 2149,-571.5"/>
<text text-anchor="middle" x="2183" y="-578.5" font-family="Helvetica,sans-Serif" font-size="10.00">DeviceData</text>
</a>
</g>
</g>
<!-- Node6&#45;&gt;Node1 -->
<g id="edge5" class="edge"><title>Node6&#45;&gt;Node1</title>
<path fill="none" stroke="#9a32cd" stroke-dasharray="5,2" d="M2201.66,-597.579C2249.58,-642.567 2381,-765.939 2418.74,-801.369"/>
<polygon fill="#9a32cd" stroke="#9a32cd" points="2203.9,-594.883 2194.22,-590.59 2199.11,-599.986 2203.9,-594.883"/>
<text text-anchor="middle" x="2305" y="-727" font-family="Helvetica,sans-Serif" font-size="10.00"> pDeviceData</text>
</g>
<!-- Node7 -->
<g id="node7" class="node"><title>Node7</title>
<polygon fill="none" stroke="#bfbfbf" points="709,-174.5 709,-193.5 775,-193.5 775,-174.5 709,-174.5"/>
<text text-anchor="middle" x="742" y="-181.5" font-family="Helvetica,sans-Serif" font-size="10.00">GlobalType</text>
</g>
<!-- Node7&#45;&gt;Node6 -->
<g id="edge6" class="edge"><title>Node7&#45;&gt;Node6</title>
<path fill="none" stroke="midnightblue" d="M785.197,-187.933C799.418,-189.115 815.385,-190.286 830,-191 1343.24,-216.063 1479.39,-125.023 1986,-211 2034.91,-219.301 2057.92,-209.942 2092,-246 2184.86,-344.26 2184.07,-527.812 2182.47,-571.495"/>
<polygon fill="midnightblue" stroke="midnightblue" points="785.458,-184.443 775.195,-187.077 784.86,-191.417 785.458,-184.443"/>
</g>
<!-- Node11 -->
<g id="node11" class="node"><title>Node11</title>
<g id="a_node11"><a xlink:href="classICED_1_1HalfCell_1_1DeviceComponent.html" target="_top" xlink:title="Class that provides the component level interface between the electro&#45;chemical device solver and the ...">
<polygon fill="none" stroke="black" points="1688,-436.5 1688,-455.5 1786,-455.5 1786,-436.5 1688,-436.5"/>
<text text-anchor="middle" x="1737" y="-443.5" font-family="Helvetica,sans-Serif" font-size="10.00">DeviceComponent</text>
</a>
</g>
</g>
<!-- Node7&#45;&gt;Node11 -->
<g id="edge12" class="edge"><title>Node7&#45;&gt;Node11</title>
<path fill="none" stroke="midnightblue" d="M785.016,-193.954C794.106,-196.717 803.528,-200.062 812,-204 820.719,-208.052 821.051,-212.485 830,-216 903.127,-244.722 1450.44,-316.441 1528,-329 1591.11,-339.22 1615.82,-318.06 1670,-352 1703.12,-372.748 1724.21,-416.826 1732.28,-436.349"/>
<polygon fill="midnightblue" stroke="midnightblue" points="785.92,-190.572 775.343,-191.184 783.993,-197.302 785.92,-190.572"/>
</g>
<!-- Node13 -->
<g id="node13" class="node"><title>Node13</title>
<g id="a_node13"><a xlink:href="classICED_1_1HalfCell_1_1PhysicsModule.html" target="_top" xlink:title="Virtual class for physics modules. ">
<polygon fill="none" stroke="black" points="1208.5,-434.5 1208.5,-453.5 1291.5,-453.5 1291.5,-434.5 1208.5,-434.5"/>
<text text-anchor="middle" x="1250" y="-441.5" font-family="Helvetica,sans-Serif" font-size="10.00">PhysicsModule</text>
</a>
</g>
</g>
<!-- Node7&#45;&gt;Node13 -->
<g id="edge16" class="edge"><title>Node7&#45;&gt;Node13</title>
<path fill="none" stroke="midnightblue" d="M785.12,-190.229C794.732,-193.191 804.354,-197.559 812,-204 825.986,-215.782 815.707,-229.592 830,-241 872.803,-275.164 897.349,-253.928 950,-269 1052.02,-298.203 1090.22,-283.529 1176,-346 1209.61,-370.48 1234.55,-414.921 1244.39,-434.408"/>
<polygon fill="midnightblue" stroke="midnightblue" points="785.752,-186.776 775.191,-187.623 783.975,-193.547 785.752,-186.776"/>
</g>
<!-- Node14 -->
<g id="node14" class="node"><title>Node14</title>
<g id="a_node14"><a xlink:href="classICED_1_1HalfCell_1_1SolutionData.html" target="_top" xlink:title="Class to hold the solution data for the electro&#45;chemical device solver. ">
<polygon fill="none" stroke="black" points="968.5,-329.5 968.5,-348.5 1041.5,-348.5 1041.5,-329.5 968.5,-329.5"/>
<text text-anchor="middle" x="1005" y="-336.5" font-family="Helvetica,sans-Serif" font-size="10.00">SolutionData</text>
</a>
</g>
</g>
<!-- Node7&#45;&gt;Node14 -->
<g id="edge18" class="edge"><title>Node7&#45;&gt;Node14</title>
<path fill="none" stroke="midnightblue" d="M785.099,-191.763C794.976,-195.31 804.727,-200.477 812,-208 830.76,-227.405 810.243,-247.611 830,-266 870.088,-303.313 900.975,-269.589 950,-294 967.916,-302.921 985.039,-318.88 995.032,-329.198"/>
<polygon fill="midnightblue" stroke="midnightblue" points="785.855,-188.333 775.267,-188.727 783.79,-195.021 785.855,-188.333"/>
</g>
<!-- Node8 -->
<g id="node8" class="node"><title>Node8</title>
<polygon fill="none" stroke="#bfbfbf" points="693.5,-641.5 693.5,-660.5 790.5,-660.5 790.5,-641.5 693.5,-641.5"/>
<text text-anchor="middle" x="742" y="-648.5" font-family="Helvetica,sans-Serif" font-size="10.00">vector&lt; double * &gt;</text>
</g>
<!-- Node8&#45;&gt;Node6 -->
<g id="edge7" class="edge"><title>Node8&#45;&gt;Node6</title>
<path fill="none" stroke="#9a32cd" stroke-dasharray="5,2" d="M800.771,-659.858C810.508,-661.096 820.527,-662.212 830,-663 923.914,-670.815 947.763,-667.535 1042,-667 1461.63,-664.616 1569.28,-698.344 1986,-649 2033.87,-643.331 2046.53,-642.016 2092,-626 2119.02,-616.482 2148.36,-600.691 2165.95,-590.57"/>
<polygon fill="#9a32cd" stroke="#9a32cd" points="801.134,-656.376 790.761,-658.534 800.216,-663.315 801.134,-656.376"/>
<text text-anchor="middle" x="1468" y="-679" font-family="Helvetica,sans-Serif" font-size="10.00"> inputDataDouble</text>
</g>
<!-- Node8&#45;&gt;Node11 -->
<g id="edge13" class="edge"><title>Node8&#45;&gt;Node11</title>
<path fill="none" stroke="#9a32cd" stroke-dasharray="5,2" d="M801.076,-651.899C958.579,-653.807 1391.17,-655.385 1528,-618 1597.05,-599.134 1616.66,-589.734 1670,-542 1699.24,-515.835 1722.07,-474.195 1731.41,-455.561"/>
<polygon fill="#9a32cd" stroke="#9a32cd" points="800.705,-648.394 790.662,-651.767 800.617,-655.393 800.705,-648.394"/>
<text text-anchor="middle" x="1250" y="-652" font-family="Helvetica,sans-Serif" font-size="10.00"> inputDataDouble</text>
</g>
<!-- Node8&#45;&gt;Node14 -->
<g id="edge19" class="edge"><title>Node8&#45;&gt;Node14</title>
<path fill="none" stroke="#9a32cd" stroke-dasharray="5,2" d="M762.405,-634.884C785.86,-615.448 823.065,-584.777 830,-580 880.666,-545.102 911.479,-558.969 950,-511 991.153,-459.752 1001.13,-376.842 1003.38,-348.701"/>
<polygon fill="#9a32cd" stroke="#9a32cd" points="759.93,-632.39 754.467,-641.467 764.398,-637.778 759.93,-632.39"/>
<text text-anchor="middle" x="890" y="-583" font-family="Helvetica,sans-Serif" font-size="10.00"> inputDataDouble</text>
</g>
<!-- Node9&#45;&gt;Node8 -->
<g id="edge8" class="edge"><title>Node9&#45;&gt;Node8</title>
<path fill="none" stroke="orange" stroke-dasharray="5,2" d="M169.848,-535.149C178.912,-561.128 199.055,-606.631 234,-627 273.017,-649.742 574.66,-651.451 693.297,-651.23"/>
<polygon fill="orange" stroke="orange" points="173.17,-534.047 166.723,-525.64 166.52,-536.233 173.17,-534.047"/>
<text text-anchor="middle" x="409" y="-652" font-family="Helvetica,sans-Serif" font-size="10.00"> &lt; double * &gt;</text>
</g>
<!-- Node15 -->
<g id="node15" class="node"><title>Node15</title>
<polygon fill="none" stroke="#bfbfbf" points="702.5,-136.5 702.5,-155.5 781.5,-155.5 781.5,-136.5 702.5,-136.5"/>
<text text-anchor="middle" x="742" y="-143.5" font-family="Helvetica,sans-Serif" font-size="10.00">vector&lt; int * &gt;</text>
</g>
<!-- Node9&#45;&gt;Node15 -->
<g id="edge21" class="edge"><title>Node9&#45;&gt;Node15</title>
<path fill="none" stroke="orange" stroke-dasharray="5,2" d="M165.325,-496.408C170.074,-432.348 188.445,-230.764 234,-188 301.212,-124.906 595.928,-136.782 702.43,-143.316"/>
<polygon fill="orange" stroke="orange" points="161.833,-496.172 164.614,-506.395 168.815,-496.669 161.833,-496.172"/>
<text text-anchor="middle" x="409" y="-153" font-family="Helvetica,sans-Serif" font-size="10.00"> &lt; int * &gt;</text>
</g>
<!-- Node17 -->
<g id="node17" class="node"><title>Node17</title>
<polygon fill="none" stroke="#bfbfbf" points="364,-460.5 364,-479.5 454,-479.5 454,-460.5 364,-460.5"/>
<text text-anchor="middle" x="409" y="-467.5" font-family="Helvetica,sans-Serif" font-size="10.00">vector&lt; double &gt;</text>
</g>
<!-- Node9&#45;&gt;Node17 -->
<g id="edge24" class="edge"><title>Node9&#45;&gt;Node17</title>
<path fill="none" stroke="orange" stroke-dasharray="5,2" d="M196.035,-502.865C207.801,-498.494 221.342,-493.985 234,-491 277.535,-480.735 328.445,-475.334 363.906,-472.596"/>
<polygon fill="orange" stroke="orange" points="194.714,-499.623 186.627,-506.467 197.217,-506.16 194.714,-499.623"/>
<text text-anchor="middle" x="279" y="-494" font-family="Helvetica,sans-Serif" font-size="10.00"> &lt; double &gt;</text>
</g>
<!-- Node16 -->
<g id="node16" class="node"><title>Node16</title>
<polygon fill="none" stroke="#bfbfbf" points="692.5,-260 692.5,-290 791.5,-290 791.5,-260 692.5,-260"/>
<text text-anchor="start" x="700.5" y="-278" font-family="Helvetica,sans-Serif" font-size="10.00">vector&lt; std::vector</text>
<text text-anchor="middle" x="742" y="-267" font-family="Helvetica,sans-Serif" font-size="10.00">&lt; double &gt; &gt;</text>
</g>
<!-- Node9&#45;&gt;Node16 -->
<g id="edge25" class="edge"><title>Node9&#45;&gt;Node16</title>
<path fill="none" stroke="orange" stroke-dasharray="5,2" d="M180.628,-499.398C226.015,-455.33 357.76,-335.602 494,-289 559.835,-266.481 641.259,-266.856 692.179,-270.168"/>
<polygon fill="orange" stroke="orange" points="178.092,-496.983 173.405,-506.485 182.994,-501.98 178.092,-496.983"/>
<text text-anchor="middle" x="409" y="-370" font-family="Helvetica,sans-Serif" font-size="10.00"> &lt; std::vector&lt; double &gt; &gt;</text>
</g>
<!-- Node18 -->
<g id="node18" class="node"><title>Node18</title>
<polygon fill="none" stroke="#bfbfbf" points="692.5,-516 692.5,-546 791.5,-546 791.5,-516 692.5,-516"/>
<text text-anchor="start" x="700.5" y="-534" font-family="Helvetica,sans-Serif" font-size="10.00">vector&lt; std::vector</text>
<text text-anchor="middle" x="742" y="-523" font-family="Helvetica,sans-Serif" font-size="10.00">&lt; double &gt; * &gt;</text>
</g>
<!-- Node9&#45;&gt;Node18 -->
<g id="edge28" class="edge"><title>Node9&#45;&gt;Node18</title>
<path fill="none" stroke="orange" stroke-dasharray="5,2" d="M207.36,-517.127C312.741,-519.867 581.754,-526.86 692.371,-529.736"/>
<polygon fill="orange" stroke="orange" points="207.182,-513.621 197.094,-516.86 207,-520.619 207.182,-513.621"/>
<text text-anchor="start" x="360.5" y="-538" font-family="Helvetica,sans-Serif" font-size="10.00"> &lt; std::vector&lt; double</text>
<text text-anchor="middle" x="409" y="-527" font-family="Helvetica,sans-Serif" font-size="10.00"> &gt; * &gt;</text>
</g>
<!-- Node19 -->
<g id="node19" class="node"><title>Node19</title>
<polygon fill="none" stroke="#bfbfbf" points="706,-67.5 706,-86.5 778,-86.5 778,-67.5 706,-67.5"/>
<text text-anchor="middle" x="742" y="-74.5" font-family="Helvetica,sans-Serif" font-size="10.00">vector&lt; int &gt;</text>
</g>
<!-- Node9&#45;&gt;Node19 -->
<g id="edge30" class="edge"><title>Node9&#45;&gt;Node19</title>
<path fill="none" stroke="orange" stroke-dasharray="5,2" d="M165.034,-496.145C169.023,-427.357 185.67,-200.67 234,-150 360.746,-17.1162 612.904,-51.1125 705.68,-69.2277"/>
<polygon fill="orange" stroke="orange" points="161.523,-496.256 164.466,-506.434 168.512,-496.642 161.523,-496.256"/>
<text text-anchor="middle" x="409" y="-83" font-family="Helvetica,sans-Serif" font-size="10.00"> &lt; int &gt;</text>
</g>
<!-- Node20 -->
<g id="node20" class="node"><title>Node20</title>
<polygon fill="none" stroke="#bfbfbf" points="515.5,-207.5 515.5,-248.5 632.5,-248.5 632.5,-207.5 515.5,-207.5"/>
<text text-anchor="start" x="523.5" y="-236.5" font-family="Helvetica,sans-Serif" font-size="10.00">vector&lt; std::vector</text>
<text text-anchor="start" x="523.5" y="-225.5" font-family="Helvetica,sans-Serif" font-size="10.00">&lt; std::vector&lt; std::</text>
<text text-anchor="middle" x="574" y="-214.5" font-family="Helvetica,sans-Serif" font-size="10.00">vector&lt; double &gt; &gt; &gt; &gt;</text>
</g>
<!-- Node9&#45;&gt;Node20 -->
<g id="edge32" class="edge"><title>Node9&#45;&gt;Node20</title>
<path fill="none" stroke="orange" stroke-dasharray="5,2" d="M165.705,-496.26C171.283,-436.841 191.15,-261.683 234,-228 314.395,-164.805 441.82,-187.392 515.401,-208.43"/>
<polygon fill="orange" stroke="orange" points="162.217,-495.962 164.802,-506.237 169.189,-496.593 162.217,-495.962"/>
<text text-anchor="start" x="234.5" y="-253" font-family="Helvetica,sans-Serif" font-size="10.00"> &lt; std::vector&lt; std</text>
<text text-anchor="start" x="234.5" y="-242" font-family="Helvetica,sans-Serif" font-size="10.00">::vector&lt; std::vector</text>
<text text-anchor="middle" x="279" y="-231" font-family="Helvetica,sans-Serif" font-size="10.00">&lt; double &gt; &gt; &gt; &gt;</text>
</g>
<!-- Node21 -->
<g id="node21" class="node"><title>Node21</title>
<polygon fill="none" stroke="#bfbfbf" points="689.5,-565.5 689.5,-584.5 794.5,-584.5 794.5,-565.5 689.5,-565.5"/>
<text text-anchor="middle" x="742" y="-572.5" font-family="Helvetica,sans-Serif" font-size="10.00">vector&lt; std::string &gt;</text>
</g>
<!-- Node9&#45;&gt;Node21 -->
<g id="edge36" class="edge"><title>Node9&#45;&gt;Node21</title>
<path fill="none" stroke="orange" stroke-dasharray="5,2" d="M207.076,-527.831C215.941,-530.053 225.242,-532.23 234,-534 281.563,-543.611 293.742,-544.923 342,-550 466.246,-563.072 613.031,-570.121 689.234,-573.154"/>
<polygon fill="orange" stroke="orange" points="207.861,-524.419 197.305,-525.323 206.121,-531.199 207.861,-524.419"/>
<text text-anchor="middle" x="409" y="-565" font-family="Helvetica,sans-Serif" font-size="10.00"> &lt; std::string &gt;</text>
</g>
<!-- Node12 -->
<g id="node12" class="node"><title>Node12</title>
<polygon fill="none" stroke="#bfbfbf" points="1408.5,-514 1408.5,-544 1527.5,-544 1527.5,-514 1408.5,-514"/>
<text text-anchor="start" x="1416.5" y="-532" font-family="Helvetica,sans-Serif" font-size="10.00">vector&lt; ICED::HalfCell</text>
<text text-anchor="middle" x="1468" y="-521" font-family="Helvetica,sans-Serif" font-size="10.00">::PhysicsModule * &gt;</text>
</g>
<!-- Node9&#45;&gt;Node12 -->
<g id="edge39" class="edge"><title>Node9&#45;&gt;Node12</title>
<path fill="none" stroke="orange" stroke-dasharray="5,2" d="M186.613,-530.947C199.921,-539.133 217.358,-548.838 234,-555 279.938,-572.01 293.404,-570.834 342,-577 610.144,-611.024 680.378,-610.052 950,-591 1116.82,-579.212 1312.53,-552.083 1408.25,-537.942"/>
<polygon fill="orange" stroke="orange" points="188.444,-527.964 178.12,-525.584 184.706,-533.882 188.444,-527.964"/>
<text text-anchor="start" x="830" y="-613" font-family="Helvetica,sans-Serif" font-size="10.00"> &lt; ICED::HalfCell::Physics</text>
<text text-anchor="middle" x="890" y="-602" font-family="Helvetica,sans-Serif" font-size="10.00">Module * &gt;</text>
</g>
<!-- Node10 -->
<g id="node10" class="node"><title>Node10</title>
<polygon fill="none" stroke="#bfbfbf" points="1866.5,-610 1866.5,-640 1985.5,-640 1985.5,-610 1866.5,-610"/>
<text text-anchor="start" x="1874.5" y="-628" font-family="Helvetica,sans-Serif" font-size="10.00">vector&lt; ICED::HalfCell</text>
<text text-anchor="middle" x="1926" y="-617" font-family="Helvetica,sans-Serif" font-size="10.00">::DeviceComponent * &gt;</text>
</g>
<!-- Node9&#45;&gt;Node10 -->
<g id="edge46" class="edge"><title>Node9&#45;&gt;Node10</title>
<path fill="none" stroke="orange" stroke-dasharray="5,2" d="M168.339,-535.747C176.012,-565.594 194.992,-621.611 234,-649 237.752,-651.634 452.246,-681.992 494,-685 952.375,-718.026 1069.99,-728.811 1528,-691 1649.16,-680.997 1789.02,-654.102 1866.19,-637.898"/>
<polygon fill="orange" stroke="orange" points="171.666,-534.614 165.933,-525.704 164.859,-536.244 171.666,-534.614"/>
<text text-anchor="start" x="1060.5" y="-729" font-family="Helvetica,sans-Serif" font-size="10.00"> &lt; ICED::HalfCell::Device</text>
<text text-anchor="middle" x="1118" y="-718" font-family="Helvetica,sans-Serif" font-size="10.00">Component * &gt;</text>
</g>
<!-- Node10&#45;&gt;Node6 -->
<g id="edge10" class="edge"><title>Node10&#45;&gt;Node6</title>
<path fill="none" stroke="#9a32cd" stroke-dasharray="5,2" d="M1995.53,-613.176C2045.15,-604.613 2110.06,-593.412 2148.75,-586.737"/>
<polygon fill="#9a32cd" stroke="#9a32cd" points="1994.76,-609.756 1985.5,-614.906 1995.95,-616.654 1994.76,-609.756"/>
<text text-anchor="middle" x="2048" y="-614" font-family="Helvetica,sans-Serif" font-size="10.00"> deviceComponents</text>
</g>
<!-- Node11&#45;&gt;Node10 -->
<g id="edge11" class="edge"><title>Node11&#45;&gt;Node10</title>
<path fill="none" stroke="#9a32cd" stroke-dasharray="5,2" d="M1755.42,-462.67C1791.56,-497.268 1874.25,-576.417 1909.07,-609.753"/>
<polygon fill="#9a32cd" stroke="#9a32cd" points="1757.7,-460.01 1748.05,-455.624 1752.86,-465.067 1757.7,-460.01"/>
<text text-anchor="middle" x="1826" y="-550" font-family="Helvetica,sans-Serif" font-size="10.00"> elements</text>
</g>
<!-- Node12&#45;&gt;Node11 -->
<g id="edge14" class="edge"><title>Node12&#45;&gt;Node11</title>
<path fill="none" stroke="#9a32cd" stroke-dasharray="5,2" d="M1537.73,-527.63C1577.75,-524.692 1628.37,-517.212 1670,-499 1693.43,-488.752 1715.5,-467.95 1727.23,-455.675"/>
<polygon fill="#9a32cd" stroke="#9a32cd" points="1537.28,-524.151 1527.53,-528.297 1537.74,-531.136 1537.28,-524.151"/>
<text text-anchor="middle" x="1608" y="-530" font-family="Helvetica,sans-Serif" font-size="10.00"> componentPhysicsModules</text>
</g>
<!-- Node13&#45;&gt;Node12 -->
<g id="edge15" class="edge"><title>Node13&#45;&gt;Node12</title>
<path fill="none" stroke="#9a32cd" stroke-dasharray="5,2" d="M1284.7,-457.26C1323.67,-472.596 1387.69,-497.789 1428.56,-513.875"/>
<polygon fill="#9a32cd" stroke="#9a32cd" points="1285.95,-453.99 1275.36,-453.585 1283.38,-460.504 1285.95,-453.99"/>
<text text-anchor="middle" x="1357" y="-500" font-family="Helvetica,sans-Serif" font-size="10.00"> elements</text>
</g>
<!-- Node14&#45;&gt;Node13 -->
<g id="edge17" class="edge"><title>Node14&#45;&gt;Node13</title>
<path fill="none" stroke="#9a32cd" stroke-dasharray="5,2" d="M1051.79,-348.346C1054.57,-348.907 1057.32,-349.462 1060,-350 1111.53,-360.357 1129.47,-348.56 1176,-373 1205.11,-388.291 1230.46,-418.842 1242.14,-434.407"/>
<polygon fill="#9a32cd" stroke="#9a32cd" points="1052.22,-344.861 1041.72,-346.304 1050.83,-351.721 1052.22,-344.861"/>
<text text-anchor="middle" x="1118" y="-376" font-family="Helvetica,sans-Serif" font-size="10.00"> pSolutionData</text>
</g>
<!-- Node14&#45;&gt;Node11 -->
<g id="edge41" class="edge"><title>Node14&#45;&gt;Node11</title>
<path fill="none" stroke="#9a32cd" stroke-dasharray="5,2" d="M1051.67,-333.594C1162.44,-322.367 1452.27,-304.358 1670,-392 1694.17,-401.73 1716.3,-423.605 1727.77,-436.326"/>
<polygon fill="#9a32cd" stroke="#9a32cd" points="1051.1,-330.135 1041.52,-334.656 1051.83,-337.097 1051.1,-330.135"/>
<text text-anchor="middle" x="1357" y="-333" font-family="Helvetica,sans-Serif" font-size="10.00"> pSolutionData</text>
</g>
<!-- Node14&#45;&gt;Node6 -->
<g id="edge48" class="edge"><title>Node14&#45;&gt;Node6</title>
<path fill="none" stroke="#9a32cd" stroke-dasharray="5,2" d="M1044.75,-326.408C1139.58,-296.754 1391.31,-225 1607,-225 1607,-225 1607,-225 1927,-225 2102.62,-225 2168.93,-514.864 2180.2,-571.478"/>
<polygon fill="#9a32cd" stroke="#9a32cd" points="1043.51,-323.131 1035.02,-329.477 1045.61,-329.807 1043.51,-323.131"/>
<text text-anchor="middle" x="1608" y="-230" font-family="Helvetica,sans-Serif" font-size="10.00"> pSolutionData</text>
</g>
<!-- Node15&#45;&gt;Node14 -->
<g id="edge20" class="edge"><title>Node15&#45;&gt;Node14</title>
<path fill="none" stroke="#9a32cd" stroke-dasharray="5,2" d="M791.709,-157.506C798.633,-159.689 805.577,-162.186 812,-165 878.192,-194.006 899.075,-199.722 950,-251 973.999,-275.165 992.12,-311.934 999.868,-329.287"/>
<polygon fill="#9a32cd" stroke="#9a32cd" points="792.224,-154.009 781.642,-154.533 790.241,-160.722 792.224,-154.009"/>
<text text-anchor="middle" x="890" y="-254" font-family="Helvetica,sans-Serif" font-size="10.00"> inputDataInt</text>
</g>
<!-- Node15&#45;&gt;Node11 -->
<g id="edge40" class="edge"><title>Node15&#45;&gt;Node11</title>
<path fill="none" stroke="#9a32cd" stroke-dasharray="5,2" d="M791.94,-146.112C872.646,-147.077 1038.42,-152.355 1176,-178 1401.57,-220.045 1491.27,-184.112 1670,-328 1706.93,-357.734 1726.67,-414.013 1733.36,-436.433"/>
<polygon fill="#9a32cd" stroke="#9a32cd" points="791.629,-142.609 781.594,-146.007 791.558,-149.608 791.629,-142.609"/>
<text text-anchor="middle" x="1250" y="-200" font-family="Helvetica,sans-Serif" font-size="10.00"> inputDataInt</text>
</g>
<!-- Node15&#45;&gt;Node6 -->
<g id="edge47" class="edge"><title>Node15&#45;&gt;Node6</title>
<path fill="none" stroke="#9a32cd" stroke-dasharray="5,2" d="M761.299,-129.711C777.9,-116.103 803.731,-97.7234 830,-90 881.168,-74.9559 896.678,-88.8841 950,-90 1130.56,-93.7786 1175.4,-107 1356,-107 1356,-107 1356,-107 1927,-107 2013.45,-107 2041.39,-139.912 2092,-210 2179.3,-330.903 2182.67,-525.87 2182.2,-571.316"/>
<polygon fill="#9a32cd" stroke="#9a32cd" points="758.875,-127.177 753.505,-136.31 763.399,-132.519 758.875,-127.177"/>
<text text-anchor="middle" x="1468" y="-110" font-family="Helvetica,sans-Serif" font-size="10.00"> inputDataInt</text>
</g>
<!-- Node16&#45;&gt;Node14 -->
<g id="edge22" class="edge"><title>Node16&#45;&gt;Node14</title>
<path fill="none" stroke="#9a32cd" stroke-dasharray="5,2" d="M789.493,-294.163C797.099,-297.597 804.831,-301.274 812,-305 820.319,-309.324 821.161,-312.873 830,-316 875.963,-332.258 932.441,-337.178 968.336,-338.582"/>
<polygon fill="#9a32cd" stroke="#9a32cd" points="790.887,-290.953 780.326,-290.108 788.055,-297.354 790.887,-290.953"/>
<text text-anchor="middle" x="890" y="-352" font-family="Helvetica,sans-Serif" font-size="10.00"> function</text>
<text text-anchor="middle" x="890" y="-341" font-family="Helvetica,sans-Serif" font-size="10.00">solutionData</text>
</g>
<!-- Node17&#45;&gt;Node16 -->
<g id="edge23" class="edge"><title>Node17&#45;&gt;Node16</title>
<path fill="none" stroke="#9a32cd" stroke-dasharray="5,2" d="M414.052,-450.506C422.379,-415.763 444.916,-343.551 494,-309 498.032,-306.162 621.508,-290.133 692.317,-281.133"/>
<polygon fill="#9a32cd" stroke="#9a32cd" points="410.612,-449.85 411.832,-460.374 417.441,-451.386 410.612,-449.85"/>
<text text-anchor="middle" x="574" y="-312" font-family="Helvetica,sans-Serif" font-size="10.00"> elements</text>
</g>
<!-- Node17&#45;&gt;Node18 -->
<g id="edge27" class="edge"><title>Node17&#45;&gt;Node18</title>
<path fill="none" stroke="#9a32cd" stroke-dasharray="5,2" d="M464.408,-477.779C535.961,-488.014 652.841,-504.745 654,-505 667.549,-507.979 682.063,-511.982 695.278,-515.954"/>
<polygon fill="#9a32cd" stroke="#9a32cd" points="464.594,-474.27 454.199,-476.319 463.602,-481.2 464.594,-474.27"/>
<text text-anchor="middle" x="574" y="-508" font-family="Helvetica,sans-Serif" font-size="10.00"> elements</text>
</g>
<!-- Node17&#45;&gt;Node14 -->
<g id="edge37" class="edge"><title>Node17&#45;&gt;Node14</title>
<path fill="none" stroke="#9a32cd" stroke-dasharray="5,2" d="M431.99,-454.765C475.428,-425.706 576.341,-363.273 672,-341 732.601,-326.89 755.16,-315.686 812,-341 822.924,-345.865 819.076,-356.135 830,-361 878.72,-382.698 897.661,-371.252 950,-361 962.319,-358.587 975.373,-353.35 985.56,-348.591"/>
<polygon fill="#9a32cd" stroke="#9a32cd" points="429.935,-451.929 423.615,-460.433 433.859,-457.726 429.935,-451.929"/>
<text text-anchor="middle" x="742" y="-465" font-family="Helvetica,sans-Serif" font-size="10.00"> xCoords</text>
<text text-anchor="middle" x="742" y="-454" font-family="Helvetica,sans-Serif" font-size="10.00">activityCoefficientDer</text>
<text text-anchor="middle" x="742" y="-443" font-family="Helvetica,sans-Serif" font-size="10.00">activityCoefficients</text>
<text text-anchor="middle" x="742" y="-432" font-family="Helvetica,sans-Serif" font-size="10.00">transferenceNumberDerDer</text>
<text text-anchor="middle" x="742" y="-421" font-family="Helvetica,sans-Serif" font-size="10.00">concentrationDiffusionDerDer</text>
<text text-anchor="middle" x="742" y="-410" font-family="Helvetica,sans-Serif" font-size="10.00">activityCoefficientDerDer</text>
<text text-anchor="start" x="672.5" y="-399" font-family="Helvetica,sans-Serif" font-size="10.00">diffusionElectrolyteConductivity</text>
<text text-anchor="middle" x="742" y="-388" font-family="Helvetica,sans-Serif" font-size="10.00">Der</text>
<text text-anchor="middle" x="742" y="-377" font-family="Helvetica,sans-Serif" font-size="10.00">transferenceNumber</text>
<text text-anchor="middle" x="742" y="-366" font-family="Helvetica,sans-Serif" font-size="10.00">concentrationDiffusionDer</text>
<text text-anchor="middle" x="742" y="-355" font-family="Helvetica,sans-Serif" font-size="10.00">openCircuitPotentialVector</text>
<text text-anchor="middle" x="742" y="-344" font-family="Helvetica,sans-Serif" font-size="10.00">...</text>
</g>
<!-- Node17&#45;&gt;Node11 -->
<g id="edge45" class="edge"><title>Node17&#45;&gt;Node11</title>
<path fill="none" stroke="#9a32cd" stroke-dasharray="5,2" d="M464.223,-470.802C517.205,-471.543 600.143,-472.589 672,-473 734.221,-473.356 761.42,-509.239 812,-473 832.222,-458.511 810.375,-435.289 830,-420 891.202,-372.32 926.417,-406 1004,-406 1004,-406 1004,-406 1469,-406 1550.79,-406 1645.13,-424.585 1696.92,-436.419"/>
<polygon fill="#9a32cd" stroke="#9a32cd" points="464.086,-467.3 454.038,-470.658 463.987,-474.299 464.086,-467.3"/>
<text text-anchor="middle" x="1118" y="-420" font-family="Helvetica,sans-Serif" font-size="10.00"> rightBCValue</text>
<text text-anchor="middle" x="1118" y="-409" font-family="Helvetica,sans-Serif" font-size="10.00">leftBCValue</text>
</g>
<!-- Node18&#45;&gt;Node14 -->
<g id="edge26" class="edge"><title>Node18&#45;&gt;Node14</title>
<path fill="none" stroke="#9a32cd" stroke-dasharray="5,2" d="M767.053,-508.763C780.672,-495.817 797.775,-478.948 812,-463 820.641,-453.313 819.7,-447.9 830,-440 875.982,-404.731 901.35,-420.487 950,-389 968.02,-377.337 985.645,-359.449 995.632,-348.528"/>
<polygon fill="#9a32cd" stroke="#9a32cd" points="764.362,-506.49 759.485,-515.896 769.163,-511.584 764.362,-506.49"/>
<text text-anchor="middle" x="890" y="-443" font-family="Helvetica,sans-Serif" font-size="10.00"> inputDataVector</text>
</g>
<!-- Node19&#45;&gt;Node14 -->
<g id="edge29" class="edge"><title>Node19&#45;&gt;Node14</title>
<path fill="none" stroke="#9a32cd" stroke-dasharray="5,2" d="M788.515,-80.5299C835.419,-86.6005 907.508,-103.109 950,-148 1000.46,-201.305 1004.33,-298.132 1004.21,-329.156"/>
<polygon fill="#9a32cd" stroke="#9a32cd" points="788.671,-77.024 778.329,-79.3239 787.848,-83.9754 788.671,-77.024"/>
<text text-anchor="middle" x="890" y="-162" font-family="Helvetica,sans-Serif" font-size="10.00"> iFirstGlobalDevice</text>
<text text-anchor="middle" x="890" y="-151" font-family="Helvetica,sans-Serif" font-size="10.00">iLastGlobalDevice</text>
</g>
<!-- Node19&#45;&gt;Node11 -->
<g id="edge43" class="edge"><title>Node19&#45;&gt;Node11</title>
<path fill="none" stroke="#9a32cd" stroke-dasharray="5,2" d="M788.302,-67.6829C801.67,-65.3426 816.37,-63.1664 830,-62 883.139,-57.4526 896.748,-59.0636 950,-62 1050.9,-67.564 1076.46,-69.5764 1176,-87 1231.61,-96.7343 1629.44,-166.721 1670,-206 1737.67,-271.54 1737.95,-399.495 1736.54,-436.038"/>
<polygon fill="#9a32cd" stroke="#9a32cd" points="787.589,-64.2549 778.379,-69.4904 788.844,-71.1416 787.589,-64.2549"/>
<text text-anchor="middle" x="1250" y="-136" font-family="Helvetica,sans-Serif" font-size="10.00"> inputDataModulePriority</text>
<text text-anchor="middle" x="1250" y="-125" font-family="Helvetica,sans-Serif" font-size="10.00">rightBCType</text>
<text text-anchor="middle" x="1250" y="-114" font-family="Helvetica,sans-Serif" font-size="10.00">leftBCType</text>
</g>
<!-- Node19&#45;&gt;Node1 -->
<g id="edge51" class="edge"><title>Node19&#45;&gt;Node1</title>
<path fill="none" stroke="#9a32cd" stroke-dasharray="5,2" d="M770.971,-62.9672C817.899,-40.758 916.008,-0 1004,-0 1004,-0 1004,-0 2184,-0 2360.13,-0 2421.14,-709.826 2428.27,-801.327"/>
<polygon fill="#9a32cd" stroke="#9a32cd" points="769.247,-59.9123 761.755,-67.4036 772.284,-66.2194 769.247,-59.9123"/>
<text text-anchor="middle" x="1608" y="-3" font-family="Helvetica,sans-Serif" font-size="10.00"> N</text>
</g>
<!-- Node20&#45;&gt;Node14 -->
<g id="edge31" class="edge"><title>Node20&#45;&gt;Node14</title>
<path fill="none" stroke="#9a32cd" stroke-dasharray="5,2" d="M642.719,-212.291C694.184,-204.464 764.061,-203.161 812,-239 831.588,-253.644 811.831,-274.629 830,-291 870.686,-327.66 897.552,-303.236 950,-319 960.053,-322.021 970.944,-325.929 980.294,-329.487"/>
<polygon fill="#9a32cd" stroke="#9a32cd" points="641.987,-208.864 632.684,-213.934 643.118,-215.772 641.987,-208.864"/>
<text text-anchor="middle" x="742" y="-242" font-family="Helvetica,sans-Serif" font-size="10.00"> jacobian</text>
</g>
<!-- Node21&#45;&gt;Node14 -->
<g id="edge33" class="edge"><title>Node21&#45;&gt;Node14</title>
<path fill="none" stroke="#9a32cd" stroke-dasharray="5,2" d="M803.745,-561.907C806.749,-559.914 809.536,-557.626 812,-555 837.236,-528.109 803.544,-499.692 830,-474 868.957,-436.168 906.949,-484.099 950,-451 984.397,-424.554 998.07,-370.592 1002.36,-348.626"/>
<polygon fill="#9a32cd" stroke="#9a32cd" points="801.901,-558.926 794.788,-566.778 805.245,-565.075 801.901,-558.926"/>
<text text-anchor="middle" x="890" y="-499" font-family="Helvetica,sans-Serif" font-size="10.00"> inputDataIntString</text>
<text text-anchor="middle" x="890" y="-488" font-family="Helvetica,sans-Serif" font-size="10.00">inputDataVectorString</text>
<text text-anchor="middle" x="890" y="-477" font-family="Helvetica,sans-Serif" font-size="10.00">inputDataDoubleString</text>
</g>
<!-- Node21&#45;&gt;Node11 -->
<g id="edge44" class="edge"><title>Node21&#45;&gt;Node11</title>
<path fill="none" stroke="#9a32cd" stroke-dasharray="5,2" d="M798.945,-561.759C803.505,-559.798 807.922,-557.557 812,-555 822.132,-548.647 819.394,-540.525 830,-535 884.806,-506.448 906.563,-524.663 968,-518 1239.93,-488.51 1566.83,-460.244 1687.87,-450.022"/>
<polygon fill="#9a32cd" stroke="#9a32cd" points="797.526,-558.555 789.444,-565.405 800.034,-565.09 797.526,-558.555"/>
<text text-anchor="middle" x="1250" y="-531" font-family="Helvetica,sans-Serif" font-size="10.00"> inputDataBoundaryString</text>
<text text-anchor="middle" x="1250" y="-520" font-family="Helvetica,sans-Serif" font-size="10.00">inputDataModuleString</text>
<text text-anchor="middle" x="1250" y="-509" font-family="Helvetica,sans-Serif" font-size="10.00">inputDataIntString</text>
<text text-anchor="middle" x="1250" y="-498" font-family="Helvetica,sans-Serif" font-size="10.00">inputDataDoubleString</text>
</g>
<!-- Node21&#45;&gt;Node6 -->
<g id="edge49" class="edge"><title>Node21&#45;&gt;Node6</title>
<path fill="none" stroke="#9a32cd" stroke-dasharray="5,2" d="M799.679,-563.792C809.741,-562.213 820.15,-560.843 830,-560 883.139,-555.453 896.689,-558.472 950,-560 1058.58,-563.112 1085.45,-569.968 1194,-574 1377.46,-580.815 1423.42,-581 1607,-581 1607,-581 1607,-581 1927,-581 2006.69,-581 2100.38,-581 2148.99,-581"/>
<polygon fill="#9a32cd" stroke="#9a32cd" points="799.064,-560.346 789.767,-565.428 800.204,-567.253 799.064,-560.346"/>
<text text-anchor="middle" x="1468" y="-606" font-family="Helvetica,sans-Serif" font-size="10.00"> inputDataIntString</text>
<text text-anchor="middle" x="1468" y="-595" font-family="Helvetica,sans-Serif" font-size="10.00">inputDataEcdcString</text>
<text text-anchor="middle" x="1468" y="-584" font-family="Helvetica,sans-Serif" font-size="10.00">inputDataDoubleString</text>
</g>
<!-- Node22 -->
<g id="node22" class="node"><title>Node22</title>
<g id="a_node22"><a xlink:title="STL class. ">
<polygon fill="none" stroke="#bfbfbf" points="388.5,-727.5 388.5,-746.5 429.5,-746.5 429.5,-727.5 388.5,-727.5"/>
<text text-anchor="middle" x="409" y="-734.5" font-family="Helvetica,sans-Serif" font-size="10.00">string</text>
</a>
</g>
</g>
<!-- Node22&#45;&gt;Node21 -->
<g id="edge34" class="edge"><title>Node22&#45;&gt;Node21</title>
<path fill="none" stroke="#9a32cd" stroke-dasharray="5,2" d="M438.729,-722.939C504.651,-690.675 665.406,-611.998 721.389,-584.598"/>
<polygon fill="#9a32cd" stroke="#9a32cd" points="437.158,-719.812 429.714,-727.351 440.235,-726.099 437.158,-719.812"/>
<text text-anchor="middle" x="574" y="-697" font-family="Helvetica,sans-Serif" font-size="10.00"> elements</text>
</g>
<!-- Node22&#45;&gt;Node13 -->
<g id="edge38" class="edge"><title>Node22&#45;&gt;Node13</title>
<path fill="none" stroke="#9a32cd" stroke-dasharray="5,2" d="M439.954,-735.474C486.165,-732.802 577.508,-726.249 654,-713 787.615,-689.856 826.635,-695.299 950,-639 1070.47,-584.022 1078.52,-532.804 1194,-468 1203.54,-462.647 1214.51,-457.647 1224.12,-453.612"/>
<polygon fill="#9a32cd" stroke="#9a32cd" points="439.531,-731.992 429.741,-736.044 439.92,-738.982 439.531,-731.992"/>
<text text-anchor="middle" x="890" y="-686" font-family="Helvetica,sans-Serif" font-size="10.00"> moduleName</text>
</g>
<!-- Node22&#45;&gt;Node11 -->
<g id="edge42" class="edge"><title>Node22&#45;&gt;Node11</title>
<path fill="none" stroke="#9a32cd" stroke-dasharray="5,2" d="M439.814,-738.935C596.349,-748.671 1323.79,-788.546 1528,-703 1601.88,-672.049 1620.51,-654.989 1670,-592 1705.23,-547.16 1726.36,-480.511 1733.38,-455.736"/>
<polygon fill="#9a32cd" stroke="#9a32cd" points="439.745,-735.424 429.545,-738.288 439.305,-742.41 439.745,-735.424"/>
<text text-anchor="middle" x="1118" y="-771" font-family="Helvetica,sans-Serif" font-size="10.00"> componentInputFile</text>
<text text-anchor="middle" x="1118" y="-760" font-family="Helvetica,sans-Serif" font-size="10.00">componentName</text>
</g>
<!-- Node22&#45;&gt;Node1 -->
<g id="edge50" class="edge"><title>Node22&#45;&gt;Node1</title>
<path fill="none" stroke="#9a32cd" stroke-dasharray="5,2" d="M439.279,-748.114C496.408,-768.771 627.125,-811 741,-811 741,-811 741,-811 2184,-811 2241.21,-811 2305.93,-811 2354.48,-811"/>
<polygon fill="#9a32cd" stroke="#9a32cd" points="440.397,-744.797 429.804,-744.641 437.988,-751.369 440.397,-744.797"/>
<text text-anchor="middle" x="1468" y="-814" font-family="Helvetica,sans-Serif" font-size="10.00"> ExampleTestFixture</text>
</g>
<!-- Node23 -->
<g id="node23" class="node"><title>Node23</title>
<g id="a_node23"><a xlink:title="STL class. ">
<polygon fill="none" stroke="#bfbfbf" points="110,-727.5 110,-746.5 216,-746.5 216,-727.5 110,-727.5"/>
<text text-anchor="middle" x="163" y="-734.5" font-family="Helvetica,sans-Serif" font-size="10.00">basic_string&lt; char &gt;</text>
</a>
</g>
</g>
<!-- Node23&#45;&gt;Node22 -->
<g id="edge35" class="edge"><title>Node23&#45;&gt;Node22</title>
<path fill="none" stroke="midnightblue" d="M226.119,-737C279.623,-737 353.559,-737 388.374,-737"/>
<polygon fill="midnightblue" stroke="midnightblue" points="226.045,-733.5 216.045,-737 226.045,-740.5 226.045,-733.5"/>
</g>
</g>
</svg>
