<?xml version="1.0" encoding="UTF-8" standalone="no"?>
<!DOCTYPE svg PUBLIC "-//W3C//DTD SVG 1.1//EN"
 "http://www.w3.org/Graphics/SVG/1.1/DTD/svg11.dtd">
<!-- Generated by graphviz version 2.30.1 (20150305.2338)
 -->
<!-- Title: Test__WallFlux Pages: 1 -->
<!--zoomable 283 -->
<svg id="main" version="1.1" xmlns="http://www.w3.org/2000/svg" xmlns:xlink="http://www.w3.org/1999/xlink" xml:space="preserve" onload="init(evt)">
<style type="text/css"><![CDATA[
.edge:hover path { stroke: red; }
.edge:hover polygon { stroke: red; fill: red; }
]]></style>
<script type="text/javascript"><![CDATA[
var edges = document.getElementsByTagName('g');
if (edges && edges.length) {
  for (var i=0;i<edges.length;i++) {
    if (edges[i].id.substr(0,4)=='edge') {
      edges[i].setAttribute('class','edge');
    }
  }
}
]]></script>
        <defs>
                <circle id="rim" cx="0" cy="0" r="7"/>
                <circle id="rim2" cx="0" cy="0" r="3.5"/>
                <g id="zoomPlus">
                        <use xlink:href="#rim" fill="#404040">
                                <set attributeName="fill" to="#808080" begin="zoomplus.mouseover" end="zoomplus.mouseout"/>
                        </use>
                        <path d="M-4,0h8M0,-4v8" fill="none" stroke="white" stroke-width="1.5" pointer-events="none"/>
                </g>
                <g id="zoomMin">
                        <use xlink:href="#rim" fill="#404040">
                                <set attributeName="fill" to="#808080" begin="zoomminus.mouseover" end="zoomminus.mouseout"/>
                        </use>
                        <path d="M-4,0h8" fill="none" stroke="white" stroke-width="1.5" pointer-events="none"/>
                </g>
                <g id="dirArrow">
                        <path fill="none" stroke="white" stroke-width="1.5" d="M0,-3.0v7 M-2.5,-0.5L0,-3.0L2.5,-0.5"/>
                </g>
               <g id="resetDef">
                       <use xlink:href="#rim2" fill="#404040">
                               <set attributeName="fill" to="#808080" begin="reset.mouseover" end="reset.mouseout"/>
                       </use>
               </g>
        </defs>

<script type="text/javascript">
var viewWidth = 616;
var viewHeight = 283;
var sectionId = 'dynsection-56';
</script>
<script xlink:href="svgpan.js"/>
<svg id="graph" class="graph">
<g id="viewport">
<title>Test__WallFlux</title>
<!-- Node1 -->
<g id="node1" class="node"><title>Node1</title>
<polygon fill="#bfbfbf" stroke="black" points="0.5,-105.5 0.5,-124.5 85.5,-124.5 85.5,-105.5 0.5,-105.5"/>
<text text-anchor="middle" x="43" y="-112.5" font-family="Helvetica,sans-Serif" font-size="10.00">Test__WallFlux</text>
</g>
<!-- Node2 -->
<g id="node2" class="node"><title>Node2</title>
<g id="a_node2"><a xlink:href="classICED_1_1HalfCell_1_1DeviceData.html#ac62391584f55efe6bd7916ebf7d2e92b" target="_top" xlink:title="Initialization of the entire device data structure. ">
<polygon fill="none" stroke="black" points="122,-122 122,-152 262,-152 262,-122 122,-122"/>
<text text-anchor="start" x="130" y="-140" font-family="Helvetica,sans-Serif" font-size="10.00">ICED::HalfCell::DeviceData</text>
<text text-anchor="middle" x="192" y="-129" font-family="Helvetica,sans-Serif" font-size="10.00">::BuildDevice</text>
</a>
</g>
</g>
<!-- Node1&#45;&gt;Node2 -->
<g id="edge1" class="edge"><title>Node1&#45;&gt;Node2</title>
<path fill="none" stroke="midnightblue" d="M85.7311,-121.245C93.9335,-122.473 102.79,-123.798 111.76,-125.141"/>
<polygon fill="midnightblue" stroke="midnightblue" points="111.501,-128.641 121.909,-126.66 112.537,-121.718 111.501,-128.641"/>
</g>
<!-- Node10 -->
<g id="node10" class="node"><title>Node10</title>
<g id="a_node10"><a xlink:href="classICED_1_1TestingObject.html#a01777cfc8b6084a272d3aec03e253b7c" target="_top" xlink:title="Initializes the test solution data. ">
<polygon fill="none" stroke="black" points="125,-83.5 125,-102.5 259,-102.5 259,-83.5 125,-83.5"/>
<text text-anchor="middle" x="192" y="-90.5" font-family="Helvetica,sans-Serif" font-size="10.00">GenerateParabolicFunction</text>
</a>
</g>
</g>
<!-- Node1&#45;&gt;Node10 -->
<g id="edge9" class="edge"><title>Node1&#45;&gt;Node10</title>
<path fill="none" stroke="midnightblue" d="M85.7311,-108.755C95.6742,-107.266 106.578,-105.635 117.482,-104.003"/>
<polygon fill="midnightblue" stroke="midnightblue" points="118.097,-107.45 127.469,-102.508 117.061,-100.527 118.097,-107.45"/>
</g>
<!-- Node3 -->
<g id="node3" class="node"><title>Node3</title>
<g id="a_node3"><a xlink:href="classICED_1_1HalfCell_1_1SolutionData.html#a16b07d4b06e74431a0783cbd6dd6e731" target="_top" xlink:title="Initialization of the input data from input file. ">
<polygon fill="none" stroke="black" points="311,-245 311,-275 435,-275 435,-245 311,-245"/>
<text text-anchor="start" x="319" y="-263" font-family="Helvetica,sans-Serif" font-size="10.00">ICED::HalfCell::Solution</text>
<text text-anchor="middle" x="373" y="-252" font-family="Helvetica,sans-Serif" font-size="10.00">Data::SetData</text>
</a>
</g>
</g>
<!-- Node2&#45;&gt;Node3 -->
<g id="edge2" class="edge"><title>Node2&#45;&gt;Node3</title>
<path fill="none" stroke="midnightblue" d="M205.383,-152.053C223.612,-173.32 259.679,-212.115 298,-235 301.438,-237.053 305.068,-238.966 308.799,-240.742"/>
<polygon fill="midnightblue" stroke="midnightblue" points="307.668,-244.068 318.232,-244.881 310.481,-237.658 307.668,-244.068"/>
</g>
<!-- Node4 -->
<g id="node4" class="node"><title>Node4</title>
<g id="a_node4"><a xlink:href="classICED_1_1HalfCell_1_1DeviceData.html#a16b07d4b06e74431a0783cbd6dd6e731" target="_top" xlink:title="Initialization of the input data from input file. ">
<polygon fill="none" stroke="black" points="303,-196 303,-226 443,-226 443,-196 303,-196"/>
<text text-anchor="start" x="311" y="-214" font-family="Helvetica,sans-Serif" font-size="10.00">ICED::HalfCell::DeviceData</text>
<text text-anchor="middle" x="373" y="-203" font-family="Helvetica,sans-Serif" font-size="10.00">::SetData</text>
</a>
</g>
</g>
<!-- Node2&#45;&gt;Node4 -->
<g id="edge3" class="edge"><title>Node2&#45;&gt;Node4</title>
<path fill="none" stroke="midnightblue" d="M222.936,-152.052C243.733,-162.24 272.232,-175.672 298,-186 303.483,-188.198 309.243,-190.372 315.027,-192.466"/>
<polygon fill="midnightblue" stroke="midnightblue" points="314.143,-195.866 324.738,-195.905 316.48,-189.267 314.143,-195.866"/>
</g>
<!-- Node5 -->
<g id="node5" class="node"><title>Node5</title>
<g id="a_node5"><a xlink:href="classICED_1_1HalfCell_1_1DeviceData.html#a9dce6b5d6a4272a04fb399b6b7723c96" target="_top" xlink:title="Initialization of the components from input file. ">
<polygon fill="none" stroke="black" points="303,-147 303,-177 443,-177 443,-147 303,-147"/>
<text text-anchor="start" x="311" y="-165" font-family="Helvetica,sans-Serif" font-size="10.00">ICED::HalfCell::DeviceData</text>
<text text-anchor="middle" x="373" y="-154" font-family="Helvetica,sans-Serif" font-size="10.00">::LoadComponents</text>
</a>
</g>
</g>
<!-- Node2&#45;&gt;Node5 -->
<g id="edge4" class="edge"><title>Node2&#45;&gt;Node5</title>
<path fill="none" stroke="midnightblue" d="M262.206,-146.666C272.241,-148.067 282.635,-149.519 292.847,-150.945"/>
<polygon fill="midnightblue" stroke="midnightblue" points="292.59,-154.443 302.978,-152.36 293.558,-147.51 292.59,-154.443"/>
</g>
<!-- Node6 -->
<g id="node6" class="node"><title>Node6</title>
<g id="a_node6"><a xlink:href="classICED_1_1HalfCell_1_1DeviceData.html#abea9dd513340105152db94ed9f24211a" target="_top" xlink:title="Setup of the global device data structure. ">
<polygon fill="none" stroke="black" points="303,-98 303,-128 443,-128 443,-98 303,-98"/>
<text text-anchor="start" x="311" y="-116" font-family="Helvetica,sans-Serif" font-size="10.00">ICED::HalfCell::DeviceData</text>
<text text-anchor="middle" x="373" y="-105" font-family="Helvetica,sans-Serif" font-size="10.00">::SetupGlobalData</text>
</a>
</g>
</g>
<!-- Node2&#45;&gt;Node6 -->
<g id="edge5" class="edge"><title>Node2&#45;&gt;Node6</title>
<path fill="none" stroke="midnightblue" d="M262.206,-127.721C272.241,-126.376 282.635,-124.982 292.847,-123.613"/>
<polygon fill="midnightblue" stroke="midnightblue" points="293.532,-127.052 302.978,-122.254 292.602,-120.114 293.532,-127.052"/>
</g>
<!-- Node8 -->
<g id="node8" class="node"><title>Node8</title>
<g id="a_node8"><a xlink:href="classICED_1_1HalfCell_1_1DeviceData.html#a9e170c875ec6749900cb89bfb977379a" target="_top" xlink:title="Copy device data from the component level. ">
<polygon fill="none" stroke="black" points="300.5,-49 300.5,-79 445.5,-79 445.5,-49 300.5,-49"/>
<text text-anchor="start" x="308.5" y="-67" font-family="Helvetica,sans-Serif" font-size="10.00">ICED::HalfCell::DeviceData</text>
<text text-anchor="middle" x="373" y="-56" font-family="Helvetica,sans-Serif" font-size="10.00">::CopyDataFromComponents</text>
</a>
</g>
</g>
<!-- Node2&#45;&gt;Node8 -->
<g id="edge7" class="edge"><title>Node2&#45;&gt;Node8</title>
<path fill="none" stroke="midnightblue" d="M238.877,-121.991C246.717,-118.971 254.686,-115.606 262,-112 279.029,-103.604 280.88,-97.21 298,-89 302.62,-86.7846 307.487,-84.6786 312.43,-82.698"/>
<polygon fill="midnightblue" stroke="midnightblue" points="313.888,-85.8875 321.98,-79.0478 311.389,-79.3488 313.888,-85.8875"/>
</g>
<!-- Node9 -->
<g id="node9" class="node"><title>Node9</title>
<g id="a_node9"><a xlink:href="classICED_1_1HalfCell_1_1DeviceData.html#af4d13d54a16ba494be74358656df1381" target="_top" xlink:title="Copy device data to global storage for the non&#45;linear solver. ">
<polygon fill="none" stroke="black" points="298.5,-0 298.5,-30 447.5,-30 447.5,-0 298.5,-0"/>
<text text-anchor="start" x="306.5" y="-18" font-family="Helvetica,sans-Serif" font-size="10.00">ICED::HalfCell::DeviceData</text>
<text text-anchor="middle" x="373" y="-7" font-family="Helvetica,sans-Serif" font-size="10.00">::CopyDeviceToGlobalStorage</text>
</a>
</g>
</g>
<!-- Node2&#45;&gt;Node9 -->
<g id="edge8" class="edge"><title>Node2&#45;&gt;Node9</title>
<path fill="none" stroke="midnightblue" d="M247.28,-121.999C252.59,-119.201 257.622,-115.897 262,-112 288.723,-88.2113 271.02,-63.4959 298,-40 299.924,-38.3246 301.965,-36.7605 304.095,-35.3003"/>
<polygon fill="midnightblue" stroke="midnightblue" points="305.901,-38.2981 312.695,-30.1679 302.314,-32.2871 305.901,-38.2981"/>
</g>
<!-- Node7 -->
<g id="node7" class="node"><title>Node7</title>
<g id="a_node7"><a xlink:href="classICED_1_1HalfCell_1_1SolutionData.html#a80aaf93c79fb804885351b17786981e4" target="_top" xlink:title="Setup of the trilinosdata structure. ">
<polygon fill="none" stroke="black" points="484,-98 484,-128 608,-128 608,-98 484,-98"/>
<text text-anchor="start" x="492" y="-116" font-family="Helvetica,sans-Serif" font-size="10.00">ICED::HalfCell::Solution</text>
<text text-anchor="middle" x="546" y="-105" font-family="Helvetica,sans-Serif" font-size="10.00">Data::BuildSolutionData</text>
</a>
</g>
</g>
<!-- Node6&#45;&gt;Node7 -->
<g id="edge6" class="edge"><title>Node6&#45;&gt;Node7</title>
<path fill="none" stroke="midnightblue" d="M443.059,-113C453.209,-113 463.68,-113 473.871,-113"/>
<polygon fill="midnightblue" stroke="midnightblue" points="473.946,-116.5 483.946,-113 473.946,-109.5 473.946,-116.5"/>
</g>
</g>
</svg>
        <g id="navigator" transform="translate(0 0)" fill="#404254">
                <rect fill="#f2f5e9" fill-opacity="0.5" stroke="#606060" stroke-width=".5" x="0" y="0" width="60" height="60"/>
                <use id="zoomplus" xlink:href="#zoomPlus" x="17" y="9" onmousedown="handleZoom(evt,'in')"/>
                <use id="zoomminus" xlink:href="#zoomMin" x="42" y="9" onmousedown="handleZoom(evt,'out')"/>
                <use id="reset" xlink:href="#resetDef" x="30" y="36" onmousedown="handleReset()"/>
                <g id="arrowUp" xlink:href="#dirArrow" transform="translate(30 24)" onmousedown="handlePan(0,-1)">
                  <use xlink:href="#rim" fill="#404040">
                        <set attributeName="fill" to="#808080" begin="arrowUp.mouseover" end="arrowUp.mouseout"/>
                  </use>
                  <path fill="none" stroke="white" stroke-width="1.5" d="M0,-3.0v7 M-2.5,-0.5L0,-3.0L2.5,-0.5"/>
                </g>
                <g id="arrowRight" xlink:href="#dirArrow" transform="rotate(90) translate(36 -43)" onmousedown="handlePan(1,0)">
                  <use xlink:href="#rim" fill="#404040">
                        <set attributeName="fill" to="#808080" begin="arrowRight.mouseover" end="arrowRight.mouseout"/>
                  </use>
                  <path fill="none" stroke="white" stroke-width="1.5" d="M0,-3.0v7 M-2.5,-0.5L0,-3.0L2.5,-0.5"/>
                </g>
                <g id="arrowDown" xlink:href="#dirArrow" transform="rotate(180) translate(-30 -48)" onmousedown="handlePan(0,1)">
                  <use xlink:href="#rim" fill="#404040">
                        <set attributeName="fill" to="#808080" begin="arrowDown.mouseover" end="arrowDown.mouseout"/>
                  </use>
                  <path fill="none" stroke="white" stroke-width="1.5" d="M0,-3.0v7 M-2.5,-0.5L0,-3.0L2.5,-0.5"/>
                </g>
                <g id="arrowLeft" xlink:href="#dirArrow" transform="rotate(270) translate(-36 17)" onmousedown="handlePan(-1,0)">
                  <use xlink:href="#rim" fill="#404040">
                        <set attributeName="fill" to="#808080" begin="arrowLeft.mouseover" end="arrowLeft.mouseout"/>
                  </use>
                  <path fill="none" stroke="white" stroke-width="1.5" d="M0,-3.0v7 M-2.5,-0.5L0,-3.0L2.5,-0.5"/>
                </g>
        </g>
        <svg viewBox="0 0 15 15" width="100%" height="30px" preserveAspectRatio="xMaxYMin meet">
         <g id="arrow_out" transform="scale(0.3 0.3)">
          <a xlink:href="classICED_1_1TestingObject_a9bbc638a5bd612413bdd4c03b6c66d0c_cgraph_org.svg" target="_base">
           <rect id="button" ry="5" rx="5" y="6" x="6" height="38" width="38"
                fill="#f2f5e9" fill-opacity="0.5" stroke="#606060" stroke-width="1.0"/>
           <path id="arrow"
             d="M 11.500037,31.436501 C 11.940474,20.09759 22.043105,11.32322 32.158766,21.979434 L 37.068811,17.246167 C 37.068811,17.246167 37.088388,32 37.088388,32 L 22.160133,31.978069 C 22.160133,31.978069 26.997745,27.140456 26.997745,27.140456 C 18.528582,18.264221 13.291696,25.230495 11.500037,31.436501 z"
             style="fill:#404040;"/>
          </a>
         </g>
        </svg>
</svg>
