<?xml version="1.0" encoding="UTF-8" standalone="no"?>
<!DOCTYPE svg PUBLIC "-//W3C//DTD SVG 1.1//EN"
 "http://www.w3.org/Graphics/SVG/1.1/DTD/svg11.dtd">
<!-- Generated by graphviz version 2.30.1 (20150305.2338)
 -->
<!-- Title: SolutionData Pages: 1 -->
<svg width="964pt" height="568pt"
 viewBox="0.00 0.00 964.00 567.84" xmlns="http://www.w3.org/2000/svg" xmlns:xlink="http://www.w3.org/1999/xlink">
<g id="graph0" class="graph" transform="scale(1 1) rotate(0) translate(4 563.836)">
<title>SolutionData</title>
<!-- Node1 -->
<g id="node1" class="node"><title>Node1</title>
<polygon fill="#bfbfbf" stroke="black" points="882.5,-338.336 882.5,-357.336 955.5,-357.336 955.5,-338.336 882.5,-338.336"/>
<text text-anchor="middle" x="919" y="-345.336" font-family="Helvetica,sans-Serif" font-size="10.00">SolutionData</text>
</g>
<!-- Node2 -->
<g id="node2" class="node"><title>Node2</title>
<polygon fill="none" stroke="#bfbfbf" points="669,-540.336 669,-559.336 735,-559.336 735,-540.336 669,-540.336"/>
<text text-anchor="middle" x="702" y="-547.336" font-family="Helvetica,sans-Serif" font-size="10.00">GlobalType</text>
</g>
<!-- Node2&#45;&gt;Node1 -->
<g id="edge1" class="edge"><title>Node2&#45;&gt;Node1</title>
<path fill="none" stroke="midnightblue" d="M745.241,-547.961C781.173,-544.173 831.914,-533.32 864,-502.836 907.177,-461.815 915.846,-384.463 917.574,-357.443"/>
<polygon fill="midnightblue" stroke="midnightblue" points="744.706,-544.495 735.065,-548.888 745.341,-551.466 744.706,-544.495"/>
</g>
<!-- Node3 -->
<g id="node3" class="node"><title>Node3</title>
<polygon fill="none" stroke="#bfbfbf" points="516.5,-366.336 516.5,-385.336 613.5,-385.336 613.5,-366.336 516.5,-366.336"/>
<text text-anchor="middle" x="565" y="-373.336" font-family="Helvetica,sans-Serif" font-size="10.00">vector&lt; double * &gt;</text>
</g>
<!-- Node3&#45;&gt;Node1 -->
<g id="edge2" class="edge"><title>Node3&#45;&gt;Node1</title>
<path fill="none" stroke="#9a32cd" stroke-dasharray="5,2" d="M623.603,-376.641C683.881,-376.666 781.1,-374.391 864,-361.836 871.086,-360.763 878.588,-359.14 885.672,-357.375"/>
<polygon fill="#9a32cd" stroke="#9a32cd" points="623.531,-373.141 613.522,-376.616 623.513,-380.141 623.531,-373.141"/>
<text text-anchor="middle" x="702" y="-379.836" font-family="Helvetica,sans-Serif" font-size="10.00"> inputDataDouble</text>
</g>
<!-- Node4 -->
<g id="node4" class="node"><title>Node4</title>
<g id="a_node4"><a xlink:title="STL class. ">
<polygon fill="none" stroke="#bfbfbf" points="186,-305.336 186,-324.336 254,-324.336 254,-305.336 186,-305.336"/>
<text text-anchor="middle" x="220" y="-312.336" font-family="Helvetica,sans-Serif" font-size="10.00">vector&lt; T &gt;</text>
</a>
</g>
</g>
<!-- Node4&#45;&gt;Node3 -->
<g id="edge3" class="edge"><title>Node4&#45;&gt;Node3</title>
<path fill="none" stroke="orange" stroke-dasharray="5,2" d="M244.379,-329.549C252.793,-334.204 262.547,-338.897 272,-341.836 355.339,-367.744 457.627,-374.211 516.366,-375.649"/>
<polygon fill="orange" stroke="orange" points="245.94,-326.408 235.536,-324.406 242.42,-332.459 245.94,-326.408"/>
<text text-anchor="middle" x="317" y="-365.836" font-family="Helvetica,sans-Serif" font-size="10.00"> &lt; double * &gt;</text>
</g>
<!-- Node6 -->
<g id="node6" class="node"><title>Node6</title>
<polygon fill="none" stroke="#bfbfbf" points="525.5,-335.336 525.5,-354.336 604.5,-354.336 604.5,-335.336 525.5,-335.336"/>
<text text-anchor="middle" x="565" y="-342.336" font-family="Helvetica,sans-Serif" font-size="10.00">vector&lt; int * &gt;</text>
</g>
<!-- Node4&#45;&gt;Node6 -->
<g id="edge6" class="edge"><title>Node4&#45;&gt;Node6</title>
<path fill="none" stroke="orange" stroke-dasharray="5,2" d="M264.486,-318.639C331.979,-324.542 460.873,-335.816 525.314,-341.452"/>
<polygon fill="orange" stroke="orange" points="264.467,-315.124 254.2,-317.74 263.857,-322.098 264.467,-315.124"/>
<text text-anchor="middle" x="317" y="-329.836" font-family="Helvetica,sans-Serif" font-size="10.00"> &lt; int * &gt;</text>
</g>
<!-- Node8 -->
<g id="node8" class="node"><title>Node8</title>
<polygon fill="none" stroke="#bfbfbf" points="394,-155.336 394,-174.336 484,-174.336 484,-155.336 394,-155.336"/>
<text text-anchor="middle" x="439" y="-162.336" font-family="Helvetica,sans-Serif" font-size="10.00">vector&lt; double &gt;</text>
</g>
<!-- Node4&#45;&gt;Node8 -->
<g id="edge9" class="edge"><title>Node4&#45;&gt;Node8</title>
<path fill="none" stroke="orange" stroke-dasharray="5,2" d="M238.839,-298.336C248.398,-289.784 260.538,-279.371 272,-270.836 324.108,-232.034 390.308,-192.439 420.979,-174.602"/>
<polygon fill="orange" stroke="orange" points="236.239,-295.969 231.184,-305.28 240.942,-301.153 236.239,-295.969"/>
<text text-anchor="middle" x="317" y="-273.836" font-family="Helvetica,sans-Serif" font-size="10.00"> &lt; double &gt;</text>
</g>
<!-- Node7 -->
<g id="node7" class="node"><title>Node7</title>
<polygon fill="none" stroke="#bfbfbf" points="652.5,-280.836 652.5,-310.836 751.5,-310.836 751.5,-280.836 652.5,-280.836"/>
<text text-anchor="start" x="660.5" y="-298.836" font-family="Helvetica,sans-Serif" font-size="10.00">vector&lt; std::vector</text>
<text text-anchor="middle" x="702" y="-287.836" font-family="Helvetica,sans-Serif" font-size="10.00">&lt; double &gt; &gt;</text>
</g>
<!-- Node4&#45;&gt;Node7 -->
<g id="edge10" class="edge"><title>Node4&#45;&gt;Node7</title>
<path fill="none" stroke="orange" stroke-dasharray="5,2" d="M264.45,-313.116C353.968,-309.573 558.404,-301.48 652.259,-297.765"/>
<polygon fill="orange" stroke="orange" points="264.225,-309.622 254.372,-313.515 264.502,-316.617 264.225,-309.622"/>
<text text-anchor="middle" x="439" y="-311.836" font-family="Helvetica,sans-Serif" font-size="10.00"> &lt; std::vector&lt; double &gt; &gt;</text>
</g>
<!-- Node9 -->
<g id="node9" class="node"><title>Node9</title>
<polygon fill="none" stroke="#bfbfbf" points="652.5,-62.8359 652.5,-92.8359 751.5,-92.8359 751.5,-62.8359 652.5,-62.8359"/>
<text text-anchor="start" x="660.5" y="-80.8359" font-family="Helvetica,sans-Serif" font-size="10.00">vector&lt; std::vector</text>
<text text-anchor="middle" x="702" y="-69.8359" font-family="Helvetica,sans-Serif" font-size="10.00">&lt; double &gt; * &gt;</text>
</g>
<!-- Node4&#45;&gt;Node9 -->
<g id="edge13" class="edge"><title>Node4&#45;&gt;Node9</title>
<path fill="none" stroke="orange" stroke-dasharray="5,2" d="M227.088,-295.634C234.924,-272.979 250.18,-234.97 272,-207.836 310.107,-160.448 325.789,-151.384 380,-123.836 468.334,-78.9476 586.932,-74.0385 652.429,-75.354"/>
<polygon fill="orange" stroke="orange" points="223.762,-294.544 223.926,-305.138 230.404,-296.754 223.762,-294.544"/>
<text text-anchor="start" x="390.5" y="-137.836" font-family="Helvetica,sans-Serif" font-size="10.00"> &lt; std::vector&lt; double</text>
<text text-anchor="middle" x="439" y="-126.836" font-family="Helvetica,sans-Serif" font-size="10.00"> &gt; * &gt;</text>
</g>
<!-- Node10 -->
<g id="node10" class="node"><title>Node10</title>
<polygon fill="none" stroke="#bfbfbf" points="529,-13.3359 529,-32.3359 601,-32.3359 601,-13.3359 529,-13.3359"/>
<text text-anchor="middle" x="565" y="-20.3359" font-family="Helvetica,sans-Serif" font-size="10.00">vector&lt; int &gt;</text>
</g>
<!-- Node4&#45;&gt;Node10 -->
<g id="edge15" class="edge"><title>Node4&#45;&gt;Node10</title>
<path fill="none" stroke="orange" stroke-dasharray="5,2" d="M221.748,-295.153C224.325,-238.87 234.837,-79.1619 272,-45.8359 343.364,18.1595 467.949,0.381839 528.688,-13.4423"/>
<polygon fill="orange" stroke="orange" points="218.247,-295.099 221.322,-305.238 225.241,-295.394 218.247,-295.099"/>
<text text-anchor="middle" x="317" y="-48.8359" font-family="Helvetica,sans-Serif" font-size="10.00"> &lt; int &gt;</text>
</g>
<!-- Node11 -->
<g id="node11" class="node"><title>Node11</title>
<polygon fill="none" stroke="#bfbfbf" points="380.5,-410.336 380.5,-451.336 497.5,-451.336 497.5,-410.336 380.5,-410.336"/>
<text text-anchor="start" x="388.5" y="-439.336" font-family="Helvetica,sans-Serif" font-size="10.00">vector&lt; std::vector</text>
<text text-anchor="start" x="388.5" y="-428.336" font-family="Helvetica,sans-Serif" font-size="10.00">&lt; std::vector&lt; std::</text>
<text text-anchor="middle" x="439" y="-417.336" font-family="Helvetica,sans-Serif" font-size="10.00">vector&lt; double &gt; &gt; &gt; &gt;</text>
</g>
<!-- Node4&#45;&gt;Node11 -->
<g id="edge17" class="edge"><title>Node4&#45;&gt;Node11</title>
<path fill="none" stroke="orange" stroke-dasharray="5,2" d="M229.982,-333.64C238.578,-349.629 253.035,-371.981 272,-384.836 306.175,-408 322.233,-396.743 362,-407.836 367.975,-409.503 374.198,-411.294 380.397,-413.115"/>
<polygon fill="orange" stroke="orange" points="233.058,-331.969 225.399,-324.649 226.822,-335.148 233.058,-331.969"/>
<text text-anchor="start" x="272.5" y="-432.836" font-family="Helvetica,sans-Serif" font-size="10.00"> &lt; std::vector&lt; std</text>
<text text-anchor="start" x="272.5" y="-421.836" font-family="Helvetica,sans-Serif" font-size="10.00">::vector&lt; std::vector</text>
<text text-anchor="middle" x="317" y="-410.836" font-family="Helvetica,sans-Serif" font-size="10.00">&lt; double &gt; &gt; &gt; &gt;</text>
</g>
<!-- Node12 -->
<g id="node12" class="node"><title>Node12</title>
<polygon fill="none" stroke="#bfbfbf" points="386.5,-479.336 386.5,-498.336 491.5,-498.336 491.5,-479.336 386.5,-479.336"/>
<text text-anchor="middle" x="439" y="-486.336" font-family="Helvetica,sans-Serif" font-size="10.00">vector&lt; std::string &gt;</text>
</g>
<!-- Node4&#45;&gt;Node12 -->
<g id="edge21" class="edge"><title>Node4&#45;&gt;Node12</title>
<path fill="none" stroke="orange" stroke-dasharray="5,2" d="M223.598,-334.769C228.276,-362.542 240.732,-412.637 272,-440.836 289.099,-456.256 345.375,-470.442 387.698,-479.329"/>
<polygon fill="orange" stroke="orange" points="227.028,-334.043 222.078,-324.676 220.106,-335.086 227.028,-334.043"/>
<text text-anchor="middle" x="317" y="-476.836" font-family="Helvetica,sans-Serif" font-size="10.00"> &lt; std::string &gt;</text>
</g>
<!-- Node5 -->
<g id="node5" class="node"><title>Node5</title>
<polygon fill="none" stroke="#bfbfbf" points="38.5,-305.336 38.5,-324.336 67.5,-324.336 67.5,-305.336 38.5,-305.336"/>
<text text-anchor="middle" x="53" y="-312.336" font-family="Helvetica,sans-Serif" font-size="10.00">T</text>
</g>
<!-- Node5&#45;&gt;Node4 -->
<g id="edge4" class="edge"><title>Node5&#45;&gt;Node4</title>
<path fill="none" stroke="#9a32cd" stroke-dasharray="5,2" d="M77.698,-314.836C106.07,-314.836 153.76,-314.836 185.794,-314.836"/>
<polygon fill="#9a32cd" stroke="#9a32cd" points="77.5027,-311.336 67.5026,-314.836 77.5026,-318.336 77.5027,-311.336"/>
<text text-anchor="middle" x="146" y="-317.836" font-family="Helvetica,sans-Serif" font-size="10.00"> elements</text>
</g>
<!-- Node6&#45;&gt;Node1 -->
<g id="edge5" class="edge"><title>Node6&#45;&gt;Node1</title>
<path fill="none" stroke="#9a32cd" stroke-dasharray="5,2" d="M614.817,-345.252C686.629,-345.864 819.067,-346.993 882.422,-347.533"/>
<polygon fill="#9a32cd" stroke="#9a32cd" points="614.707,-341.751 604.677,-345.165 614.647,-348.751 614.707,-341.751"/>
<text text-anchor="middle" x="702" y="-349.836" font-family="Helvetica,sans-Serif" font-size="10.00"> inputDataInt</text>
</g>
<!-- Node7&#45;&gt;Node1 -->
<g id="edge7" class="edge"><title>Node7&#45;&gt;Node1</title>
<path fill="none" stroke="#9a32cd" stroke-dasharray="5,2" d="M761.808,-294.879C792.978,-296.045 831.446,-300.191 864,-311.836 880.338,-317.68 896.561,-329.521 906.894,-338.028"/>
<polygon fill="#9a32cd" stroke="#9a32cd" points="761.63,-291.373 751.536,-294.592 761.434,-298.37 761.63,-291.373"/>
<text text-anchor="middle" x="827" y="-325.836" font-family="Helvetica,sans-Serif" font-size="10.00"> function</text>
<text text-anchor="middle" x="827" y="-314.836" font-family="Helvetica,sans-Serif" font-size="10.00">solutionData</text>
</g>
<!-- Node8&#45;&gt;Node7 -->
<g id="edge8" class="edge"><title>Node8&#45;&gt;Node7</title>
<path fill="none" stroke="#9a32cd" stroke-dasharray="5,2" d="M466.291,-179.461C502.986,-199.69 571.833,-236.98 632,-265.836 642.6,-270.92 654.275,-276.137 664.959,-280.765"/>
<polygon fill="#9a32cd" stroke="#9a32cd" points="467.697,-176.239 457.252,-174.464 464.311,-182.366 467.697,-176.239"/>
<text text-anchor="middle" x="565" y="-258.836" font-family="Helvetica,sans-Serif" font-size="10.00"> elements</text>
</g>
<!-- Node8&#45;&gt;Node9 -->
<g id="edge12" class="edge"><title>Node8&#45;&gt;Node9</title>
<path fill="none" stroke="#9a32cd" stroke-dasharray="5,2" d="M455.853,-148.144C470.175,-134.167 492.55,-114.933 516,-104.836 539.775,-94.5983 605.739,-86.6366 652.091,-82.089"/>
<polygon fill="#9a32cd" stroke="#9a32cd" points="453.333,-145.714 448.769,-155.276 458.3,-150.647 453.333,-145.714"/>
<text text-anchor="middle" x="565" y="-107.836" font-family="Helvetica,sans-Serif" font-size="10.00"> elements</text>
</g>
<!-- Node8&#45;&gt;Node1 -->
<g id="edge22" class="edge"><title>Node8&#45;&gt;Node1</title>
<path fill="none" stroke="#9a32cd" stroke-dasharray="5,2" d="M472.213,-151.604C534.251,-128.33 672.928,-87.1929 772,-138.836 857.17,-183.232 902.854,-302.534 914.797,-337.853"/>
<polygon fill="#9a32cd" stroke="#9a32cd" points="470.662,-148.45 462.584,-155.305 473.174,-154.984 470.662,-148.45"/>
<text text-anchor="middle" x="702" y="-262.836" font-family="Helvetica,sans-Serif" font-size="10.00"> xCoords</text>
<text text-anchor="middle" x="702" y="-251.836" font-family="Helvetica,sans-Serif" font-size="10.00">activityCoefficientDer</text>
<text text-anchor="middle" x="702" y="-240.836" font-family="Helvetica,sans-Serif" font-size="10.00">activityCoefficients</text>
<text text-anchor="middle" x="702" y="-229.836" font-family="Helvetica,sans-Serif" font-size="10.00">transferenceNumberDerDer</text>
<text text-anchor="middle" x="702" y="-218.836" font-family="Helvetica,sans-Serif" font-size="10.00">concentrationDiffusionDerDer</text>
<text text-anchor="middle" x="702" y="-207.836" font-family="Helvetica,sans-Serif" font-size="10.00">activityCoefficientDerDer</text>
<text text-anchor="start" x="632.5" y="-196.836" font-family="Helvetica,sans-Serif" font-size="10.00">diffusionElectrolyteConductivity</text>
<text text-anchor="middle" x="702" y="-185.836" font-family="Helvetica,sans-Serif" font-size="10.00">Der</text>
<text text-anchor="middle" x="702" y="-174.836" font-family="Helvetica,sans-Serif" font-size="10.00">transferenceNumber</text>
<text text-anchor="middle" x="702" y="-163.836" font-family="Helvetica,sans-Serif" font-size="10.00">concentrationDiffusionDer</text>
<text text-anchor="middle" x="702" y="-152.836" font-family="Helvetica,sans-Serif" font-size="10.00">openCircuitPotentialVector</text>
<text text-anchor="middle" x="702" y="-141.836" font-family="Helvetica,sans-Serif" font-size="10.00">...</text>
</g>
<!-- Node9&#45;&gt;Node1 -->
<g id="edge11" class="edge"><title>Node9&#45;&gt;Node1</title>
<path fill="none" stroke="#9a32cd" stroke-dasharray="5,2" d="M762.152,-72.589C796.143,-72.9049 837.263,-79.4669 864,-104.836 898.877,-137.928 913.92,-297.06 917.26,-338.141"/>
<polygon fill="#9a32cd" stroke="#9a32cd" points="761.826,-69.0916 751.856,-72.6775 761.886,-76.0913 761.826,-69.0916"/>
<text text-anchor="middle" x="827" y="-107.836" font-family="Helvetica,sans-Serif" font-size="10.00"> inputDataVector</text>
</g>
<!-- Node10&#45;&gt;Node1 -->
<g id="edge14" class="edge"><title>Node10&#45;&gt;Node1</title>
<path fill="none" stroke="#9a32cd" stroke-dasharray="5,2" d="M610.905,-13.9746C678.323,-3.61451 804.155,3.68556 864,-70.8359 898.436,-113.718 914.003,-294.415 917.313,-338.234"/>
<polygon fill="#9a32cd" stroke="#9a32cd" points="610.31,-10.5252 601.001,-15.5836 611.433,-17.4346 610.31,-10.5252"/>
<text text-anchor="middle" x="702" y="-29.8359" font-family="Helvetica,sans-Serif" font-size="10.00"> iFirstGlobalDevice</text>
<text text-anchor="middle" x="702" y="-18.8359" font-family="Helvetica,sans-Serif" font-size="10.00">iLastGlobalDevice</text>
</g>
<!-- Node11&#45;&gt;Node1 -->
<g id="edge16" class="edge"><title>Node11&#45;&gt;Node1</title>
<path fill="none" stroke="#9a32cd" stroke-dasharray="5,2" d="M507.718,-431.713C593.12,-430.84 743.374,-422.663 864,-380.836 879.571,-375.437 895.434,-365.035 905.901,-357.347"/>
<polygon fill="#9a32cd" stroke="#9a32cd" points="507.605,-428.214 497.631,-431.785 507.656,-435.214 507.605,-428.214"/>
<text text-anchor="middle" x="702" y="-428.836" font-family="Helvetica,sans-Serif" font-size="10.00"> jacobian</text>
</g>
<!-- Node12&#45;&gt;Node1 -->
<g id="edge18" class="edge"><title>Node12&#45;&gt;Node1</title>
<path fill="none" stroke="#9a32cd" stroke-dasharray="5,2" d="M501.65,-484.181C568.952,-478.119 679.48,-465.278 772,-440.836 814.451,-429.621 827.581,-429.363 864,-404.836 883.673,-391.586 901.55,-370.015 910.984,-357.556"/>
<polygon fill="#9a32cd" stroke="#9a32cd" points="501.29,-480.699 491.635,-485.062 501.903,-487.672 501.29,-480.699"/>
<text text-anchor="middle" x="702" y="-493.836" font-family="Helvetica,sans-Serif" font-size="10.00"> inputDataIntString</text>
<text text-anchor="middle" x="702" y="-482.836" font-family="Helvetica,sans-Serif" font-size="10.00">inputDataVectorString</text>
<text text-anchor="middle" x="702" y="-471.836" font-family="Helvetica,sans-Serif" font-size="10.00">inputDataDoubleString</text>
</g>
<!-- Node13 -->
<g id="node13" class="node"><title>Node13</title>
<g id="a_node13"><a xlink:title="STL class. ">
<polygon fill="none" stroke="#bfbfbf" points="199.5,-487.336 199.5,-506.336 240.5,-506.336 240.5,-487.336 199.5,-487.336"/>
<text text-anchor="middle" x="220" y="-494.336" font-family="Helvetica,sans-Serif" font-size="10.00">string</text>
</a>
</g>
</g>
<!-- Node13&#45;&gt;Node12 -->
<g id="edge19" class="edge"><title>Node13&#45;&gt;Node12</title>
<path fill="none" stroke="#9a32cd" stroke-dasharray="5,2" d="M250.638,-495.743C285.426,-494.461 343.738,-492.311 386.083,-490.75"/>
<polygon fill="#9a32cd" stroke="#9a32cd" points="250.504,-492.246 240.64,-496.112 250.762,-499.241 250.504,-492.246"/>
<text text-anchor="middle" x="317" y="-498.836" font-family="Helvetica,sans-Serif" font-size="10.00"> elements</text>
</g>
<!-- Node14 -->
<g id="node14" class="node"><title>Node14</title>
<g id="a_node14"><a xlink:title="STL class. ">
<polygon fill="none" stroke="#bfbfbf" points="0,-487.336 0,-506.336 106,-506.336 106,-487.336 0,-487.336"/>
<text text-anchor="middle" x="53" y="-494.336" font-family="Helvetica,sans-Serif" font-size="10.00">basic_string&lt; char &gt;</text>
</a>
</g>
</g>
<!-- Node14&#45;&gt;Node13 -->
<g id="edge20" class="edge"><title>Node14&#45;&gt;Node13</title>
<path fill="none" stroke="midnightblue" d="M116.449,-496.836C145.909,-496.836 179.001,-496.836 199.424,-496.836"/>
<polygon fill="midnightblue" stroke="midnightblue" points="116.207,-493.336 106.207,-496.836 116.207,-500.336 116.207,-493.336"/>
</g>
</g>
</svg>
