<?xml version="1.0" encoding="UTF-8" standalone="no"?>
<!DOCTYPE svg PUBLIC "-//W3C//DTD SVG 1.1//EN"
 "http://www.w3.org/Graphics/SVG/1.1/DTD/svg11.dtd">
<!-- Generated by graphviz version 2.30.1 (20150305.2338)
 -->
<!-- Title: Initialize Pages: 1 -->
<svg width="220pt" height="77pt"
 viewBox="0.00 0.00 220.00 77.00" xmlns="http://www.w3.org/2000/svg" xmlns:xlink="http://www.w3.org/1999/xlink">
<g id="graph0" class="graph" transform="scale(1 1) rotate(0) translate(4 73)">
<title>Initialize</title>
<!-- Node1 -->
<g id="node1" class="node"><title>Node1</title>
<polygon fill="#bfbfbf" stroke="black" points="0.5,-27.5 0.5,-46.5 53.5,-46.5 53.5,-27.5 0.5,-27.5"/>
<text text-anchor="middle" x="27" y="-34.5" font-family="Helvetica,sans-Serif" font-size="10.00">Initialize</text>
</g>
<!-- Node2 -->
<g id="node2" class="node"><title>Node2</title>
<g id="a_node2"><a xlink:href="namespaceICED_1_1HalfCell.html#a1daec1f933f4404256ab171124f5c706" target="_top" xlink:title="Unified driver for batterySim. ">
<polygon fill="none" stroke="black" points="93.5,-49.5 93.5,-68.5 208.5,-68.5 208.5,-49.5 93.5,-49.5"/>
<text text-anchor="middle" x="151" y="-56.5" font-family="Helvetica,sans-Serif" font-size="10.00">ICED::HalfCell::Driver</text>
</a>
</g>
</g>
<!-- Node1&#45;&gt;Node2 -->
<g id="edge1" class="edge"><title>Node1&#45;&gt;Node2</title>
<path fill="none" stroke="midnightblue" d="M63.642,-43.4273C74.1782,-45.3272 85.9422,-47.4486 97.3135,-49.4992"/>
<polygon fill="midnightblue" stroke="midnightblue" points="64.0376,-39.9422 53.5752,-41.6119 62.7953,-46.8311 64.0376,-39.9422"/>
</g>
<!-- Node3 -->
<g id="node3" class="node"><title>Node3</title>
<g id="a_node3"><a xlink:href="namespaceICED_1_1ExampleProgram.html#ad727542191f731d94a0e3d67ae9d2d31" target="_top" xlink:title="Unified driver for the example programs. ">
<polygon fill="none" stroke="black" points="90,-0 90,-30 212,-30 212,-0 90,-0"/>
<text text-anchor="start" x="98" y="-18" font-family="Helvetica,sans-Serif" font-size="10.00">ICED::ExampleProgram</text>
<text text-anchor="middle" x="151" y="-7" font-family="Helvetica,sans-Serif" font-size="10.00">::Driver</text>
</a>
</g>
</g>
<!-- Node1&#45;&gt;Node3 -->
<g id="edge2" class="edge"><title>Node1&#45;&gt;Node3</title>
<path fill="none" stroke="midnightblue" d="M63.5552,-30.5884C71.7994,-29.1017 80.799,-27.4789 89.7763,-25.86"/>
<polygon fill="midnightblue" stroke="midnightblue" points="62.7953,-27.1689 53.5752,-32.3881 64.0376,-34.0578 62.7953,-27.1689"/>
</g>
</g>
</svg>
