<?xml version="1.0" encoding="UTF-8" standalone="no"?>
<!DOCTYPE svg PUBLIC "-//W3C//DTD SVG 1.1//EN"
 "http://www.w3.org/Graphics/SVG/1.1/DTD/svg11.dtd">
<!-- Generated by graphviz version 2.30.1 (20150305.2338)
 -->
<!-- Title: Initialize Pages: 1 -->
<svg width="260pt" height="322pt"
 viewBox="0.00 0.00 260.00 322.00" xmlns="http://www.w3.org/2000/svg" xmlns:xlink="http://www.w3.org/1999/xlink">
<g id="graph0" class="graph" transform="scale(1 1) rotate(0) translate(4 318)">
<title>Initialize</title>
<!-- Node1 -->
<g id="node1" class="node"><title>Node1</title>
<polygon fill="#bfbfbf" stroke="black" points="0.5,-142.5 0.5,-161.5 53.5,-161.5 53.5,-142.5 0.5,-142.5"/>
<text text-anchor="middle" x="27" y="-149.5" font-family="Helvetica,sans-Serif" font-size="10.00">Initialize</text>
</g>
<!-- Node2 -->
<g id="node2" class="node"><title>Node2</title>
<g id="a_node2"><a xlink:href="classICED_1_1HalfCell_1_1ActivityCoefficient_a0e0b37ddbf1d0f3dcdc248fc712c9f62.html#a0e0b37ddbf1d0f3dcdc248fc712c9f62" target="_top" xlink:title="Default constructor. ">
<polygon fill="none" stroke="black" points="96,-284 96,-314 246,-314 246,-284 96,-284"/>
<text text-anchor="start" x="104" y="-302" font-family="Helvetica,sans-Serif" font-size="10.00">ICED::HalfCell::Activity</text>
<text text-anchor="middle" x="171" y="-291" font-family="Helvetica,sans-Serif" font-size="10.00">Coefficient::ActivityCoefficient</text>
</a>
</g>
</g>
<!-- Node1&#45;&gt;Node2 -->
<g id="edge1" class="edge"><title>Node1&#45;&gt;Node2</title>
<path fill="none" stroke="midnightblue" d="M32.7115,-171.283C40.2625,-198.154 57.6263,-246.635 90,-274 94.5563,-277.851 99.7052,-281.11 105.14,-283.868"/>
<polygon fill="midnightblue" stroke="midnightblue" points="36.0707,-170.295 30.1356,-161.519 29.3022,-172.081 36.0707,-170.295"/>
</g>
<!-- Node3 -->
<g id="node3" class="node"><title>Node3</title>
<g id="a_node3"><a xlink:href="classICED_1_1HalfCell_1_1ConcentrationDiffusion_a79707d141104f8ea551b93eebef95a94.html#a79707d141104f8ea551b93eebef95a94" target="_top" xlink:title="Default constructor. ">
<polygon fill="none" stroke="black" points="90.5,-235 90.5,-265 251.5,-265 251.5,-235 90.5,-235"/>
<text text-anchor="start" x="98.5" y="-253" font-family="Helvetica,sans-Serif" font-size="10.00">ICED::HalfCell::Concentration</text>
<text text-anchor="middle" x="171" y="-242" font-family="Helvetica,sans-Serif" font-size="10.00">Diffusion::ConcentrationDiffusion</text>
</a>
</g>
</g>
<!-- Node1&#45;&gt;Node3 -->
<g id="edge2" class="edge"><title>Node1&#45;&gt;Node3</title>
<path fill="none" stroke="midnightblue" d="M39.1987,-170.324C50.2005,-186.864 68.4426,-210.728 90,-225 95.824,-228.856 102.276,-232.144 108.917,-234.943"/>
<polygon fill="midnightblue" stroke="midnightblue" points="41.9271,-168.094 33.5873,-161.56 36.0319,-171.869 41.9271,-168.094"/>
</g>
<!-- Node4 -->
<g id="node4" class="node"><title>Node4</title>
<g id="a_node4"><a xlink:href="classICED_1_1HalfCell_1_1Intercalation_a6881fc85d2151cfe38a90f57f5846eaf.html#a6881fc85d2151cfe38a90f57f5846eaf" target="_top" xlink:title="Default constructor. ">
<polygon fill="none" stroke="black" points="100,-186 100,-216 242,-216 242,-186 100,-186"/>
<text text-anchor="start" x="108" y="-204" font-family="Helvetica,sans-Serif" font-size="10.00">ICED::HalfCell::Intercalation</text>
<text text-anchor="middle" x="171" y="-193" font-family="Helvetica,sans-Serif" font-size="10.00">::Intercalation</text>
</a>
</g>
</g>
<!-- Node1&#45;&gt;Node4 -->
<g id="edge3" class="edge"><title>Node1&#45;&gt;Node4</title>
<path fill="none" stroke="midnightblue" d="M61.0438,-165.259C70.3615,-168.87 80.538,-172.694 90,-176 99.6159,-179.359 109.955,-182.751 119.902,-185.906"/>
<polygon fill="midnightblue" stroke="midnightblue" points="62.2984,-161.991 51.7107,-161.604 59.7458,-168.509 62.2984,-161.991"/>
</g>
<!-- Node5 -->
<g id="node5" class="node"><title>Node5</title>
<g id="a_node5"><a xlink:href="classICED_1_1HalfCell_1_1IonMigration_a22c5757dd83b06cb495a51ac2af25db2.html#a22c5757dd83b06cb495a51ac2af25db2" target="_top" xlink:title="Default constructor. ">
<polygon fill="none" stroke="black" points="100,-137 100,-167 242,-167 242,-137 100,-137"/>
<text text-anchor="start" x="108" y="-155" font-family="Helvetica,sans-Serif" font-size="10.00">ICED::HalfCell::IonMigration</text>
<text text-anchor="middle" x="171" y="-144" font-family="Helvetica,sans-Serif" font-size="10.00">::IonMigration</text>
</a>
</g>
</g>
<!-- Node1&#45;&gt;Node5 -->
<g id="edge4" class="edge"><title>Node1&#45;&gt;Node5</title>
<path fill="none" stroke="midnightblue" d="M63.7443,-152C74.7406,-152 87.2489,-152 99.7272,-152"/>
<polygon fill="midnightblue" stroke="midnightblue" points="63.7152,-148.5 53.7151,-152 63.7151,-155.5 63.7152,-148.5"/>
</g>
<!-- Node6 -->
<g id="node6" class="node"><title>Node6</title>
<g id="a_node6"><a xlink:href="classICED_1_1HalfCell_1_1OhmsLawElectrolyte_aaaf34ad3bf4f2c71dd7db2649e5c8141.html#aaaf34ad3bf4f2c71dd7db2649e5c8141" target="_top" xlink:title="Default constructor. ">
<polygon fill="none" stroke="black" points="117.5,-98.5 117.5,-117.5 224.5,-117.5 224.5,-98.5 117.5,-98.5"/>
<text text-anchor="middle" x="171" y="-105.5" font-family="Helvetica,sans-Serif" font-size="10.00">OhmsLawElectrolyte</text>
</a>
</g>
</g>
<!-- Node1&#45;&gt;Node6 -->
<g id="edge5" class="edge"><title>Node1&#45;&gt;Node6</title>
<path fill="none" stroke="midnightblue" d="M60.2088,-138.658C69.7165,-134.958 80.2013,-131.108 90,-128 102.145,-124.148 115.515,-120.557 127.79,-117.511"/>
<polygon fill="midnightblue" stroke="midnightblue" points="58.7281,-135.48 50.7243,-142.422 61.3102,-141.987 58.7281,-135.48"/>
</g>
<!-- Node7 -->
<g id="node7" class="node"><title>Node7</title>
<g id="a_node7"><a xlink:href="classICED_1_1HalfCell_1_1OhmsLawSolid_aab7050ad25193a3e53e5bf57dcd8856d.html#aab7050ad25193a3e53e5bf57dcd8856d" target="_top" xlink:title="Default constructor. ">
<polygon fill="none" stroke="black" points="93.5,-49 93.5,-79 248.5,-79 248.5,-49 93.5,-49"/>
<text text-anchor="start" x="101.5" y="-67" font-family="Helvetica,sans-Serif" font-size="10.00">ICED::HalfCell::OhmsLawSolid</text>
<text text-anchor="middle" x="171" y="-56" font-family="Helvetica,sans-Serif" font-size="10.00">::OhmsLawSolid</text>
</a>
</g>
</g>
<!-- Node1&#45;&gt;Node7 -->
<g id="edge6" class="edge"><title>Node1&#45;&gt;Node7</title>
<path fill="none" stroke="midnightblue" d="M41.1973,-134.445C52.6684,-120.318 70.4766,-100.92 90,-89 96.2097,-85.2087 103.046,-81.9446 110.026,-79.1466"/>
<polygon fill="midnightblue" stroke="midnightblue" points="38.3383,-132.419 34.9152,-142.445 43.8438,-136.742 38.3383,-132.419"/>
</g>
<!-- Node8 -->
<g id="node8" class="node"><title>Node8</title>
<g id="a_node8"><a xlink:href="classICED_1_1HalfCell_1_1TransferenceNumber_a183075b5a489d8477f2d2e57de137671.html#a183075b5a489d8477f2d2e57de137671" target="_top" xlink:title="Default constructor. ">
<polygon fill="none" stroke="black" points="96.5,-0 96.5,-30 245.5,-30 245.5,-0 96.5,-0"/>
<text text-anchor="start" x="104.5" y="-18" font-family="Helvetica,sans-Serif" font-size="10.00">ICED::HalfCell::Transference</text>
<text text-anchor="middle" x="171" y="-7" font-family="Helvetica,sans-Serif" font-size="10.00">Number::TransferenceNumber</text>
</a>
</g>
</g>
<!-- Node1&#45;&gt;Node8 -->
<g id="edge7" class="edge"><title>Node1&#45;&gt;Node8</title>
<path fill="none" stroke="midnightblue" d="M33.7518,-132.504C42.1124,-107.505 59.9912,-64.4686 90,-40 94.7366,-36.1379 100.072,-32.8701 105.683,-30.1056"/>
<polygon fill="midnightblue" stroke="midnightblue" points="30.3325,-131.709 30.657,-142.299 37.0073,-133.818 30.3325,-131.709"/>
</g>
</g>
</svg>
