<?xml version="1.0" encoding="UTF-8" standalone="no"?>
<!DOCTYPE svg PUBLIC "-//W3C//DTD SVG 1.1//EN"
 "http://www.w3.org/Graphics/SVG/1.1/DTD/svg11.dtd">
<!-- Generated by graphviz version 2.30.1 (20150305.2338)
 -->
<!-- Title: ProcessTests Pages: 1 -->
<svg width="1122pt" height="978pt"
 viewBox="0.00 0.00 1122.00 978.00" xmlns="http://www.w3.org/2000/svg" xmlns:xlink="http://www.w3.org/1999/xlink">
<g id="graph0" class="graph" transform="scale(1 1) rotate(0) translate(4 974)">
<title>ProcessTests</title>
<!-- Node1 -->
<g id="node1" class="node"><title>Node1</title>
<polygon fill="#bfbfbf" stroke="black" points="0.5,-912.5 0.5,-931.5 77.5,-931.5 77.5,-912.5 0.5,-912.5"/>
<text text-anchor="middle" x="39" y="-919.5" font-family="Helvetica,sans-Serif" font-size="10.00">ProcessTests</text>
</g>
<!-- Node2 -->
<g id="node2" class="node"><title>Node2</title>
<g id="a_node2"><a xlink:href="classICED_1_1TestingObject_aa25f45634aafbb580d94840ad8452745.html#aa25f45634aafbb580d94840ad8452745" target="_top" xlink:title="Tears down the testing fixtures if needed. ">
<polygon fill="none" stroke="black" points="260,-950.5 260,-969.5 314,-969.5 314,-950.5 260,-950.5"/>
<text text-anchor="middle" x="287" y="-957.5" font-family="Helvetica,sans-Serif" font-size="10.00">Epilogue</text>
</a>
</g>
</g>
<!-- Node1&#45;&gt;Node2 -->
<g id="edge1" class="edge"><title>Node1&#45;&gt;Node2</title>
<path fill="none" stroke="midnightblue" d="M77.5834,-929.475C89.2344,-931.694 102.13,-934.05 114,-936 160.645,-943.662 214.668,-950.941 249.537,-955.432"/>
<polygon fill="midnightblue" stroke="midnightblue" points="249.351,-958.937 259.715,-956.734 250.239,-951.993 249.351,-958.937"/>
</g>
<!-- Node3 -->
<g id="node3" class="node"><title>Node3</title>
<g id="a_node3"><a xlink:href="classICED_1_1TestingObject_aa3cdb6d60e9d9834c19efaab0b044421.html#aa3cdb6d60e9d9834c19efaab0b044421" target="_top" xlink:title="Sets up the data fixtures for the tests. ">
<polygon fill="none" stroke="black" points="259.5,-912.5 259.5,-931.5 314.5,-931.5 314.5,-912.5 259.5,-912.5"/>
<text text-anchor="middle" x="287" y="-919.5" font-family="Helvetica,sans-Serif" font-size="10.00">Prologue</text>
</a>
</g>
</g>
<!-- Node1&#45;&gt;Node3 -->
<g id="edge2" class="edge"><title>Node1&#45;&gt;Node3</title>
<path fill="none" stroke="midnightblue" d="M77.6299,-922C124.205,-922 203.006,-922 249.197,-922"/>
<polygon fill="midnightblue" stroke="midnightblue" points="249.366,-925.5 259.366,-922 249.366,-918.5 249.366,-925.5"/>
</g>
<!-- Node4 -->
<g id="node4" class="node"><title>Node4</title>
<g id="a_node4"><a xlink:href="classICED_1_1TestingObject_af1f07f14b9af7708e4264bb38937eed2.html#af1f07f14b9af7708e4264bb38937eed2" target="_top" xlink:title="Runs a test specified by name. ">
<polygon fill="none" stroke="black" points="114,-494.5 114,-513.5 168,-513.5 168,-494.5 114,-494.5"/>
<text text-anchor="middle" x="141" y="-501.5" font-family="Helvetica,sans-Serif" font-size="10.00">RunTest</text>
</a>
</g>
</g>
<!-- Node1&#45;&gt;Node4 -->
<g id="edge3" class="edge"><title>Node1&#45;&gt;Node4</title>
<path fill="none" stroke="midnightblue" d="M42.2765,-912.484C55.0245,-859.198 117.614,-597.574 135.324,-523.548"/>
<polygon fill="midnightblue" stroke="midnightblue" points="138.76,-524.224 137.683,-513.684 131.953,-522.595 138.76,-524.224"/>
</g>
<!-- Node4&#45;&gt;Node2 -->
<g id="edge4" class="edge"><title>Node4&#45;&gt;Node2</title>
<path fill="none" stroke="midnightblue" d="M141.947,-513.822C141.836,-572.442 144.19,-875.763 204,-941 215.422,-953.459 233.262,-958.538 249.389,-960.363"/>
<polygon fill="midnightblue" stroke="midnightblue" points="249.419,-963.875 259.654,-961.137 249.946,-956.895 249.419,-963.875"/>
</g>
<!-- Node4&#45;&gt;Node3 -->
<g id="edge5" class="edge"><title>Node4&#45;&gt;Node3</title>
<path fill="none" stroke="midnightblue" d="M142.091,-513.683C142.809,-568.934 149.129,-843.938 204,-903 215.423,-915.295 233.099,-920.383 249.12,-922.255"/>
<polygon fill="midnightblue" stroke="midnightblue" points="249.081,-925.763 259.326,-923.064 249.634,-918.785 249.081,-925.763"/>
</g>
<!-- Node5 -->
<g id="node5" class="node"><title>Node5</title>
<g id="a_node5"><a xlink:href="classICED_1_1TestingObject_aea517fa85afb367c872ce72c26a0d643.html#aea517fa85afb367c872ce72c26a0d643" target="_top" xlink:title="Test for ICED::ActivitCoefficient module. ">
<polygon fill="none" stroke="black" points="223.5,-456.5 223.5,-475.5 350.5,-475.5 350.5,-456.5 223.5,-456.5"/>
<text text-anchor="middle" x="287" y="-463.5" font-family="Helvetica,sans-Serif" font-size="10.00">Test__ActivityCoefficient</text>
</a>
</g>
</g>
<!-- Node4&#45;&gt;Node5 -->
<g id="edge6" class="edge"><title>Node4&#45;&gt;Node5</title>
<path fill="none" stroke="midnightblue" d="M168.129,-495.55C179.15,-492.102 192.149,-488.185 204,-485 213.017,-482.577 222.64,-480.18 232.006,-477.947"/>
<polygon fill="midnightblue" stroke="midnightblue" points="233.091,-481.287 242.027,-475.595 231.492,-474.473 233.091,-481.287"/>
</g>
<!-- Node15 -->
<g id="node15" class="node"><title>Node15</title>
<g id="a_node15"><a xlink:href="classICED_1_1TestingObject_a2f898efd73e9aaf601f0733cb31fc340.html#a2f898efd73e9aaf601f0733cb31fc340" target="_top" xlink:title="Test for ICED::ButlerVolmer. ">
<polygon fill="none" stroke="black" points="447.5,-190.5 447.5,-209.5 550.5,-209.5 550.5,-190.5 447.5,-190.5"/>
<text text-anchor="middle" x="499" y="-197.5" font-family="Helvetica,sans-Serif" font-size="10.00">Test__ButlerVolmer</text>
</a>
</g>
</g>
<!-- Node4&#45;&gt;Node15 -->
<g id="edge16" class="edge"><title>Node4&#45;&gt;Node15</title>
<path fill="none" stroke="midnightblue" d="M142.684,-494.446C146.068,-450.051 162.55,-264.53 204,-228 271.001,-168.952 382.932,-177.294 447.635,-188.657"/>
<polygon fill="midnightblue" stroke="midnightblue" points="447.13,-192.123 457.6,-190.497 448.401,-185.24 447.13,-192.123"/>
</g>
<!-- Node16 -->
<g id="node16" class="node"><title>Node16</title>
<g id="a_node16"><a xlink:href="classICED_1_1TestingObject_a8218a8aab213585d0fba3f2e1aa24b76.html#a8218a8aab213585d0fba3f2e1aa24b76" target="_top" xlink:title="Test for ICED::ComponentBoundaryConditions. ">
<polygon fill="none" stroke="black" points="406.5,-152.5 406.5,-171.5 591.5,-171.5 591.5,-152.5 406.5,-152.5"/>
<text text-anchor="middle" x="499" y="-159.5" font-family="Helvetica,sans-Serif" font-size="10.00">Test__ComponentBoundaryConditions</text>
</a>
</g>
</g>
<!-- Node4&#45;&gt;Node16 -->
<g id="edge18" class="edge"><title>Node4&#45;&gt;Node16</title>
<path fill="none" stroke="midnightblue" d="M142.292,-494.35C144.007,-444.863 154.465,-220.201 204,-177 231.958,-152.617 322.751,-151.064 396.124,-154.29"/>
<polygon fill="midnightblue" stroke="midnightblue" points="396.198,-157.797 406.353,-154.775 396.53,-150.805 396.198,-157.797"/>
</g>
<!-- Node17 -->
<g id="node17" class="node"><title>Node17</title>
<g id="a_node17"><a xlink:href="classICED_1_1TestingObject_a96409144efe94cf3e37a534e524c6e36.html#a96409144efe94cf3e37a534e524c6e36" target="_top" xlink:title="Test for ICED::ConcentrationDiffusion. ">
<polygon fill="none" stroke="black" points="214,-380.5 214,-399.5 360,-399.5 360,-380.5 214,-380.5"/>
<text text-anchor="middle" x="287" y="-387.5" font-family="Helvetica,sans-Serif" font-size="10.00">Test__ConcentrationDiffusion</text>
</a>
</g>
</g>
<!-- Node4&#45;&gt;Node17 -->
<g id="edge20" class="edge"><title>Node4&#45;&gt;Node17</title>
<path fill="none" stroke="midnightblue" d="M145.407,-494.436C152.827,-475.055 172.363,-431.118 204,-409 206.755,-407.074 209.676,-405.341 212.712,-403.782"/>
<polygon fill="midnightblue" stroke="midnightblue" points="214.396,-406.864 222.113,-399.605 211.553,-400.467 214.396,-406.864"/>
</g>
<!-- Node18 -->
<g id="node18" class="node"><title>Node18</title>
<g id="a_node18"><a xlink:href="classICED_1_1TestingObject_a20a3def5cfb0861690599ae120367987.html#a20a3def5cfb0861690599ae120367987" target="_top" xlink:title="Test for ICED::DeviceData. ">
<polygon fill="none" stroke="black" points="238,-608.5 238,-627.5 336,-627.5 336,-608.5 238,-608.5"/>
<text text-anchor="middle" x="287" y="-615.5" font-family="Helvetica,sans-Serif" font-size="10.00">Test__DeviceData</text>
</a>
</g>
</g>
<!-- Node4&#45;&gt;Node18 -->
<g id="edge23" class="edge"><title>Node4&#45;&gt;Node18</title>
<path fill="none" stroke="midnightblue" d="M145.407,-513.564C152.827,-532.945 172.363,-576.882 204,-599 211.222,-604.049 219.592,-607.774 228.169,-610.518"/>
<polygon fill="midnightblue" stroke="midnightblue" points="227.317,-613.914 237.889,-613.218 229.19,-607.169 227.317,-613.914"/>
</g>
<!-- Node20 -->
<g id="node20" class="node"><title>Node20</title>
<g id="a_node20"><a xlink:href="classICED_1_1TestingObject_a43dbcae20e4ab6f8b30751e9b5e5b2c2.html#a43dbcae20e4ab6f8b30751e9b5e5b2c2" target="_top" xlink:title="Test for ICED::DeviceDataMapping. ">
<polygon fill="none" stroke="black" points="431.5,-785.5 431.5,-804.5 566.5,-804.5 566.5,-785.5 431.5,-785.5"/>
<text text-anchor="middle" x="499" y="-792.5" font-family="Helvetica,sans-Serif" font-size="10.00">Test__DeviceDataMapping</text>
</a>
</g>
</g>
<!-- Node4&#45;&gt;Node20 -->
<g id="edge26" class="edge"><title>Node4&#45;&gt;Node20</title>
<path fill="none" stroke="midnightblue" d="M142.272,-513.58C143.888,-562.703 153.93,-785.627 204,-827 282.384,-891.769 415.44,-837.176 471.669,-809.137"/>
<polygon fill="midnightblue" stroke="midnightblue" points="473.313,-812.227 480.631,-804.566 470.133,-805.992 473.313,-812.227"/>
</g>
<!-- Node22 -->
<g id="node22" class="node"><title>Node22</title>
<g id="a_node22"><a xlink:href="classICED_1_1TestingObject_a06cf16fc934c4e87f6886a7beb771b0e.html#a06cf16fc934c4e87f6886a7beb771b0e" target="_top" xlink:title="Test for ICED::Diffusion module. ">
<polygon fill="none" stroke="black" points="244,-342.5 244,-361.5 330,-361.5 330,-342.5 244,-342.5"/>
<text text-anchor="middle" x="287" y="-349.5" font-family="Helvetica,sans-Serif" font-size="10.00">Test__Diffusion</text>
</a>
</g>
</g>
<!-- Node4&#45;&gt;Node22 -->
<g id="edge30" class="edge"><title>Node4&#45;&gt;Node22</title>
<path fill="none" stroke="midnightblue" d="M143.571,-494.183C148.077,-469.389 163.428,-403.885 204,-371 212.605,-364.025 223.303,-359.515 234.1,-356.622"/>
<polygon fill="midnightblue" stroke="midnightblue" points="235,-360.007 243.986,-354.395 233.461,-353.178 235,-360.007"/>
</g>
<!-- Node23 -->
<g id="node23" class="node"><title>Node23</title>
<g id="a_node23"><a xlink:href="classICED_1_1TestingObject_adcd8b620aa1ea5a579a671ac15b5620b.html#adcd8b620aa1ea5a579a671ac15b5620b" target="_top" xlink:title="Test for ICED::Intercalation. ">
<polygon fill="none" stroke="black" points="237,-570.5 237,-589.5 337,-589.5 337,-570.5 237,-570.5"/>
<text text-anchor="middle" x="287" y="-577.5" font-family="Helvetica,sans-Serif" font-size="10.00">Test__Intercalation</text>
</a>
</g>
</g>
<!-- Node4&#45;&gt;Node23 -->
<g id="edge33" class="edge"><title>Node4&#45;&gt;Node23</title>
<path fill="none" stroke="midnightblue" d="M149.712,-513.702C160.471,-526.552 181.24,-548.99 204,-561 211.167,-564.782 219.076,-567.817 227.071,-570.251"/>
<polygon fill="midnightblue" stroke="midnightblue" points="226.249,-573.655 236.82,-572.932 228.106,-566.906 226.249,-573.655"/>
</g>
<!-- Node25 -->
<g id="node25" class="node"><title>Node25</title>
<g id="a_node25"><a xlink:href="classICED_1_1TestingObject_af46c6cb015fb4151707a8c08084f4525.html#af46c6cb015fb4151707a8c08084f4525" target="_top" xlink:title="Test for ICED::IonMigration module. ">
<polygon fill="none" stroke="black" points="237,-304.5 237,-323.5 337,-323.5 337,-304.5 237,-304.5"/>
<text text-anchor="middle" x="287" y="-311.5" font-family="Helvetica,sans-Serif" font-size="10.00">Test__IonMigration</text>
</a>
</g>
</g>
<!-- Node4&#45;&gt;Node25 -->
<g id="edge36" class="edge"><title>Node4&#45;&gt;Node25</title>
<path fill="none" stroke="midnightblue" d="M142.452,-494.104C144.353,-464.706 154.141,-377.202 204,-333 210.594,-327.154 218.632,-323.008 227.067,-320.085"/>
<polygon fill="midnightblue" stroke="midnightblue" points="228.081,-323.435 236.704,-317.28 226.124,-316.714 228.081,-323.435"/>
</g>
<!-- Node26 -->
<g id="node26" class="node"><title>Node26</title>
<g id="a_node26"><a xlink:href="classICED_1_1TestingObject_a263e8cc9d4d10cb3b749c8946ebcae72.html#a263e8cc9d4d10cb3b749c8946ebcae72" target="_top" xlink:title="Test for ICED::DeviceComponent. ">
<polygon fill="none" stroke="black" points="444.5,-228.5 444.5,-247.5 553.5,-247.5 553.5,-228.5 444.5,-228.5"/>
<text text-anchor="middle" x="499" y="-235.5" font-family="Helvetica,sans-Serif" font-size="10.00">Test__ModulePriority</text>
</a>
</g>
</g>
<!-- Node4&#45;&gt;Node26 -->
<g id="edge39" class="edge"><title>Node4&#45;&gt;Node26</title>
<path fill="none" stroke="midnightblue" d="M142.937,-494.318C147.19,-452.561 166.128,-288.558 204,-257 237.682,-228.933 358.101,-229.937 433.98,-233.662"/>
<polygon fill="midnightblue" stroke="midnightblue" points="434.209,-237.179 444.377,-234.203 434.573,-230.188 434.209,-237.179"/>
</g>
<!-- Node27 -->
<g id="node27" class="node"><title>Node27</title>
<g id="a_node27"><a xlink:href="classICED_1_1TestingObject_a4f825a89973b92c36e2fe2cbe6a653a0.html#a4f825a89973b92c36e2fe2cbe6a653a0" target="_top" xlink:title="Test for ICED::OhmsLawElectrolyte. ">
<polygon fill="none" stroke="black" points="218.5,-266.5 218.5,-285.5 355.5,-285.5 355.5,-266.5 218.5,-266.5"/>
<text text-anchor="middle" x="287" y="-273.5" font-family="Helvetica,sans-Serif" font-size="10.00">Test__OhmsLawElectrolyte</text>
</a>
</g>
</g>
<!-- Node4&#45;&gt;Node27 -->
<g id="edge41" class="edge"><title>Node4&#45;&gt;Node27</title>
<path fill="none" stroke="midnightblue" d="M141.708,-494.39C141.257,-461.298 144.466,-351.026 204,-295 205.729,-293.373 207.569,-291.875 209.499,-290.498"/>
<polygon fill="midnightblue" stroke="midnightblue" points="211.642,-293.297 218.472,-285.198 208.081,-287.271 211.642,-293.297"/>
</g>
<!-- Node28 -->
<g id="node28" class="node"><title>Node28</title>
<g id="a_node28"><a xlink:href="classICED_1_1TestingObject_ab656a16700e242a40e0b21d7693a6ae0.html#ab656a16700e242a40e0b21d7693a6ae0" target="_top" xlink:title="Test for ICED::OhmsLawSolid. ">
<polygon fill="none" stroke="black" points="230.5,-532.5 230.5,-551.5 343.5,-551.5 343.5,-532.5 230.5,-532.5"/>
<text text-anchor="middle" x="287" y="-539.5" font-family="Helvetica,sans-Serif" font-size="10.00">Test__OhmsLawSolid</text>
</a>
</g>
</g>
<!-- Node4&#45;&gt;Node28 -->
<g id="edge44" class="edge"><title>Node4&#45;&gt;Node28</title>
<path fill="none" stroke="midnightblue" d="M168.129,-512.45C179.15,-515.898 192.149,-519.815 204,-523 213.017,-525.423 222.64,-527.82 232.006,-530.053"/>
<polygon fill="midnightblue" stroke="midnightblue" points="231.492,-533.527 242.027,-532.405 233.091,-526.713 231.492,-533.527"/>
</g>
<!-- Node29 -->
<g id="node29" class="node"><title>Node29</title>
<g id="a_node29"><a xlink:href="classICED_1_1TestingObject_ac9ccd9d107fbdc6f3e61cf3485bdf282.html#ac9ccd9d107fbdc6f3e61cf3485bdf282" target="_top" xlink:title="System level transient solver test. ">
<polygon fill="none" stroke="black" points="243,-114.5 243,-133.5 331,-133.5 331,-114.5 243,-114.5"/>
<text text-anchor="middle" x="287" y="-121.5" font-family="Helvetica,sans-Serif" font-size="10.00">Test__SolverBE</text>
</a>
</g>
</g>
<!-- Node4&#45;&gt;Node29 -->
<g id="edge47" class="edge"><title>Node4&#45;&gt;Node29</title>
<path fill="none" stroke="midnightblue" d="M142.339,-494.409C144.344,-443.106 156.242,-201.447 204,-148 211.644,-139.445 222.154,-133.869 233.101,-130.252"/>
<polygon fill="midnightblue" stroke="midnightblue" points="234.081,-133.612 242.772,-127.553 232.199,-126.87 234.081,-133.612"/>
</g>
<!-- Node30 -->
<g id="node30" class="node"><title>Node30</title>
<g id="a_node30"><a xlink:href="classICED_1_1TestingObject_a0e201e1d24473d26262c6eaf813f2b9a.html#a0e201e1d24473d26262c6eaf813f2b9a" target="_top" xlink:title="System level transient solver test. ">
<polygon fill="none" stroke="black" points="236.5,-76.5 236.5,-95.5 337.5,-95.5 337.5,-76.5 236.5,-76.5"/>
<text text-anchor="middle" x="287" y="-83.5" font-family="Helvetica,sans-Serif" font-size="10.00">Test__SolverBENL</text>
</a>
</g>
</g>
<!-- Node4&#45;&gt;Node30 -->
<g id="edge48" class="edge"><title>Node4&#45;&gt;Node30</title>
<path fill="none" stroke="midnightblue" d="M142.091,-494.317C142.809,-439.066 149.129,-164.062 204,-105 210.143,-98.3882 218.094,-93.8608 226.623,-90.7967"/>
<polygon fill="midnightblue" stroke="midnightblue" points="227.819,-94.0937 236.434,-87.9261 225.853,-87.3754 227.819,-94.0937"/>
</g>
<!-- Node31 -->
<g id="node31" class="node"><title>Node31</title>
<g id="a_node31"><a xlink:href="classICED_1_1TestingObject_afebbcefab9fa3a83cf0f22781eafd0df.html#afebbcefab9fa3a83cf0f22781eafd0df" target="_top" xlink:title="System level transient solver test. ">
<polygon fill="none" stroke="black" points="221.5,-38.5 221.5,-57.5 352.5,-57.5 352.5,-38.5 221.5,-38.5"/>
<text text-anchor="middle" x="287" y="-45.5" font-family="Helvetica,sans-Serif" font-size="10.00">Test__SolverButlerVolmer</text>
</a>
</g>
</g>
<!-- Node4&#45;&gt;Node31 -->
<g id="edge49" class="edge"><title>Node4&#45;&gt;Node31</title>
<path fill="none" stroke="midnightblue" d="M141.947,-494.178C141.836,-435.558 144.19,-132.237 204,-67 206.571,-64.196 209.466,-61.7659 212.595,-59.6625"/>
<polygon fill="midnightblue" stroke="midnightblue" points="214.292,-62.7234 221.354,-54.8255 210.908,-56.5956 214.292,-62.7234"/>
</g>
<!-- Node32 -->
<g id="node32" class="node"><title>Node32</title>
<g id="a_node32"><a xlink:href="classICED_1_1TestingObject_aba9f755f439390be1c37cb4244ababfa.html#aba9f755f439390be1c37cb4244ababfa" target="_top" xlink:title="System level transient solver test. ">
<polygon fill="none" stroke="black" points="243.5,-0.5 243.5,-19.5 330.5,-19.5 330.5,-0.5 243.5,-0.5"/>
<text text-anchor="middle" x="287" y="-7.5" font-family="Helvetica,sans-Serif" font-size="10.00">Test__SolverFE</text>
</a>
</g>
</g>
<!-- Node4&#45;&gt;Node32 -->
<g id="edge50" class="edge"><title>Node4&#45;&gt;Node32</title>
<path fill="none" stroke="midnightblue" d="M141.824,-494.143C140.931,-432.513 139.204,-100.471 204,-29 211.59,-20.6282 222.076,-15.5804 233.017,-12.6124"/>
<polygon fill="midnightblue" stroke="midnightblue" points="234.083,-15.963 243.122,-10.4356 232.609,-9.11998 234.083,-15.963"/>
</g>
<!-- Node33 -->
<g id="node33" class="node"><title>Node33</title>
<g id="a_node33"><a xlink:href="classICED_1_1TestingObject_a956feb8e6c4b3350695df252f6b77d65.html#a956feb8e6c4b3350695df252f6b77d65" target="_top" xlink:title="System level transient solver test. ">
<polygon fill="none" stroke="black" points="223,-874.5 223,-893.5 351,-893.5 351,-874.5 223,-874.5"/>
<text text-anchor="middle" x="287" y="-881.5" font-family="Helvetica,sans-Serif" font-size="10.00">Test__SolverIntercalation</text>
</a>
</g>
</g>
<!-- Node4&#45;&gt;Node33 -->
<g id="edge51" class="edge"><title>Node4&#45;&gt;Node33</title>
<path fill="none" stroke="midnightblue" d="M142.339,-513.591C144.344,-564.894 156.242,-806.553 204,-860 207.345,-863.743 211.239,-866.917 215.478,-869.605"/>
<polygon fill="midnightblue" stroke="midnightblue" points="214.127,-872.851 224.598,-874.469 217.421,-866.675 214.127,-872.851"/>
</g>
<!-- Node34 -->
<g id="node34" class="node"><title>Node34</title>
<g id="a_node34"><a xlink:href="classICED_1_1TestingObject_a321c98e0752f9282aa30454c44c133b3.html#a321c98e0752f9282aa30454c44c133b3" target="_top" xlink:title="System level transient solver test. ">
<polygon fill="none" stroke="black" points="204.5,-760.5 204.5,-779.5 369.5,-779.5 369.5,-760.5 204.5,-760.5"/>
<text text-anchor="middle" x="287" y="-767.5" font-family="Helvetica,sans-Serif" font-size="10.00">Test__SolverOhmsLawElectrolyte</text>
</a>
</g>
</g>
<!-- Node4&#45;&gt;Node34 -->
<g id="edge52" class="edge"><title>Node4&#45;&gt;Node34</title>
<path fill="none" stroke="midnightblue" d="M143.072,-513.533C147.886,-554.671 168.826,-716.461 204,-751 205.447,-752.421 206.978,-753.743 208.579,-754.974"/>
<polygon fill="midnightblue" stroke="midnightblue" points="206.796,-757.987 217.114,-760.393 210.548,-752.078 206.796,-757.987"/>
</g>
<!-- Node36 -->
<g id="node36" class="node"><title>Node36</title>
<g id="a_node36"><a xlink:href="classICED_1_1TestingObject_afd99a05e9a70fae3dba8fa1a0e51a7a4.html#afd99a05e9a70fae3dba8fa1a0e51a7a4" target="_top" xlink:title="System level transient solver test. ">
<polygon fill="none" stroke="black" points="217,-722.5 217,-741.5 357,-741.5 357,-722.5 217,-722.5"/>
<text text-anchor="middle" x="287" y="-729.5" font-family="Helvetica,sans-Serif" font-size="10.00">Test__SolverOhmsLawSolid</text>
</a>
</g>
</g>
<!-- Node4&#45;&gt;Node36 -->
<g id="edge54" class="edge"><title>Node4&#45;&gt;Node36</title>
<path fill="none" stroke="midnightblue" d="M141.708,-513.61C141.257,-546.702 144.466,-656.974 204,-713 205.516,-714.427 207.118,-715.754 208.791,-716.988"/>
<polygon fill="midnightblue" stroke="midnightblue" points="207.322,-720.191 217.681,-722.411 210.967,-714.215 207.322,-720.191"/>
</g>
<!-- Node37 -->
<g id="node37" class="node"><title>Node37</title>
<g id="a_node37"><a xlink:href="classICED_1_1TestingObject_a4f0fbceeaabd0d88369dbc7c48b8e7c0.html#a4f0fbceeaabd0d88369dbc7c48b8e7c0" target="_top" xlink:title="System level solver test. ">
<polygon fill="none" stroke="black" points="234.5,-646.5 234.5,-665.5 339.5,-665.5 339.5,-646.5 234.5,-646.5"/>
<text text-anchor="middle" x="287" y="-653.5" font-family="Helvetica,sans-Serif" font-size="10.00">Test__SteadySolver</text>
</a>
</g>
</g>
<!-- Node4&#45;&gt;Node37 -->
<g id="edge55" class="edge"><title>Node4&#45;&gt;Node37</title>
<path fill="none" stroke="midnightblue" d="M143.571,-513.817C148.077,-538.611 163.428,-604.115 204,-637 210.066,-641.917 217.173,-645.609 224.622,-648.374"/>
<polygon fill="midnightblue" stroke="midnightblue" points="223.596,-651.72 234.187,-651.401 225.709,-645.047 223.596,-651.72"/>
</g>
<!-- Node38 -->
<g id="node38" class="node"><title>Node38</title>
<g id="a_node38"><a xlink:href="classICED_1_1TestingObject_abc862dcffca76c39e0729f56a43334ed.html#abc862dcffca76c39e0729f56a43334ed" target="_top" xlink:title="System level solver test. ">
<polygon fill="none" stroke="black" points="228,-798.5 228,-817.5 346,-817.5 346,-798.5 228,-798.5"/>
<text text-anchor="middle" x="287" y="-805.5" font-family="Helvetica,sans-Serif" font-size="10.00">Test__SteadySolverNL</text>
</a>
</g>
</g>
<!-- Node4&#45;&gt;Node38 -->
<g id="edge57" class="edge"><title>Node4&#45;&gt;Node38</title>
<path fill="none" stroke="midnightblue" d="M142.747,-513.741C146.417,-559.023 163.991,-748.448 204,-789 208.208,-793.265 213.171,-796.651 218.54,-799.331"/>
<polygon fill="midnightblue" stroke="midnightblue" points="217.318,-802.613 227.897,-803.204 219.996,-796.145 217.318,-802.613"/>
</g>
<!-- Node39 -->
<g id="node39" class="node"><title>Node39</title>
<g id="a_node39"><a xlink:href="classICED_1_1TestingObject_aacdc6512e5ce8094c62997f4d1f02634.html#aacdc6512e5ce8094c62997f4d1f02634" target="_top" xlink:title="Test for ICED::TransferenceNumber. ">
<polygon fill="none" stroke="black" points="218,-494.5 218,-513.5 356,-513.5 356,-494.5 218,-494.5"/>
<text text-anchor="middle" x="287" y="-501.5" font-family="Helvetica,sans-Serif" font-size="10.00">Test__TransferenceNumber</text>
</a>
</g>
</g>
<!-- Node4&#45;&gt;Node39 -->
<g id="edge59" class="edge"><title>Node4&#45;&gt;Node39</title>
<path fill="none" stroke="midnightblue" d="M168.077,-504C179.36,-504 193.225,-504 207.434,-504"/>
<polygon fill="midnightblue" stroke="midnightblue" points="207.809,-507.5 217.809,-504 207.809,-500.5 207.809,-507.5"/>
</g>
<!-- Node40 -->
<g id="node40" class="node"><title>Node40</title>
<g id="a_node40"><a xlink:href="classICED_1_1TestingObject_ad4813398638d788d836516151bd347ec.html#ad4813398638d788d836516151bd347ec" target="_top" xlink:title="System level unsolver test. ">
<polygon fill="none" stroke="black" points="229,-684.5 229,-703.5 345,-703.5 345,-684.5 229,-684.5"/>
<text text-anchor="middle" x="287" y="-691.5" font-family="Helvetica,sans-Serif" font-size="10.00">Test__UnsteadySolver</text>
</a>
</g>
</g>
<!-- Node4&#45;&gt;Node40 -->
<g id="edge62" class="edge"><title>Node4&#45;&gt;Node40</title>
<path fill="none" stroke="midnightblue" d="M142.452,-513.896C144.353,-543.294 154.141,-630.798 204,-675 208.483,-678.975 213.634,-682.163 219.123,-684.716"/>
<polygon fill="midnightblue" stroke="midnightblue" points="218.034,-688.049 228.622,-688.438 220.588,-681.531 218.034,-688.049"/>
</g>
<!-- Node41 -->
<g id="node41" class="node"><title>Node41</title>
<g id="a_node41"><a xlink:href="classICED_1_1TestingObject_a9bbc638a5bd612413bdd4c03b6c66d0c.html#a9bbc638a5bd612413bdd4c03b6c66d0c" target="_top" xlink:title="Test for ICED::wallFlux. ">
<polygon fill="none" stroke="black" points="244.5,-418.5 244.5,-437.5 329.5,-437.5 329.5,-418.5 244.5,-418.5"/>
<text text-anchor="middle" x="287" y="-425.5" font-family="Helvetica,sans-Serif" font-size="10.00">Test__WallFlux</text>
</a>
</g>
</g>
<!-- Node4&#45;&gt;Node41 -->
<g id="edge63" class="edge"><title>Node4&#45;&gt;Node41</title>
<path fill="none" stroke="midnightblue" d="M149.712,-494.298C160.471,-481.448 181.24,-459.01 204,-447 213.402,-442.039 224.083,-438.363 234.556,-435.642"/>
<polygon fill="midnightblue" stroke="midnightblue" points="235.547,-439.005 244.485,-433.316 233.95,-432.189 235.547,-439.005"/>
</g>
<!-- Node6 -->
<g id="node6" class="node"><title>Node6</title>
<g id="a_node6"><a xlink:href="classICED_1_1HalfCell_1_1DeviceData_ac62391584f55efe6bd7916ebf7d2e92b.html#ac62391584f55efe6bd7916ebf7d2e92b" target="_top" xlink:title="Initialization of the entire device data structure. ">
<polygon fill="none" stroke="black" points="628,-451 628,-481 768,-481 768,-451 628,-451"/>
<text text-anchor="start" x="636" y="-469" font-family="Helvetica,sans-Serif" font-size="10.00">ICED::HalfCell::DeviceData</text>
<text text-anchor="middle" x="698" y="-458" font-family="Helvetica,sans-Serif" font-size="10.00">::BuildDevice</text>
</a>
</g>
</g>
<!-- Node5&#45;&gt;Node6 -->
<g id="edge7" class="edge"><title>Node5&#45;&gt;Node6</title>
<path fill="none" stroke="midnightblue" d="M350.648,-474.827C368.494,-476.962 387.98,-478.935 406,-480 488.523,-484.878 509.515,-485.475 592,-480 600.375,-479.444 609.101,-478.641 617.787,-477.698"/>
<polygon fill="midnightblue" stroke="midnightblue" points="618.407,-481.15 627.942,-476.531 617.608,-474.195 618.407,-481.15"/>
</g>
<!-- Node14 -->
<g id="node14" class="node"><title>Node14</title>
<g id="a_node14"><a xlink:href="classICED_1_1TestingObject_a01777cfc8b6084a272d3aec03e253b7c.html#a01777cfc8b6084a272d3aec03e253b7c" target="_top" xlink:title="Initializes the test solution data. ">
<polygon fill="none" stroke="black" points="432,-418.5 432,-437.5 566,-437.5 566,-418.5 432,-418.5"/>
<text text-anchor="middle" x="499" y="-425.5" font-family="Helvetica,sans-Serif" font-size="10.00">GenerateParabolicFunction</text>
</a>
</g>
</g>
<!-- Node5&#45;&gt;Node14 -->
<g id="edge15" class="edge"><title>Node5&#45;&gt;Node14</title>
<path fill="none" stroke="midnightblue" d="M340.721,-456.46C369.429,-451.265 405.137,-444.804 435.27,-439.351"/>
<polygon fill="midnightblue" stroke="midnightblue" points="436.041,-442.769 445.258,-437.544 434.794,-435.88 436.041,-442.769"/>
</g>
<!-- Node7 -->
<g id="node7" class="node"><title>Node7</title>
<g id="a_node7"><a xlink:href="classICED_1_1HalfCell_1_1SolutionData_a16b07d4b06e74431a0783cbd6dd6e731.html#a16b07d4b06e74431a0783cbd6dd6e731" target="_top" xlink:title="Initialization of the input data from input file. ">
<polygon fill="none" stroke="black" points="817,-451 817,-481 941,-481 941,-451 817,-451"/>
<text text-anchor="start" x="825" y="-469" font-family="Helvetica,sans-Serif" font-size="10.00">ICED::HalfCell::Solution</text>
<text text-anchor="middle" x="879" y="-458" font-family="Helvetica,sans-Serif" font-size="10.00">Data::SetData</text>
</a>
</g>
</g>
<!-- Node6&#45;&gt;Node7 -->
<g id="edge8" class="edge"><title>Node6&#45;&gt;Node7</title>
<path fill="none" stroke="midnightblue" d="M768.206,-466C780.859,-466 794.084,-466 806.794,-466"/>
<polygon fill="midnightblue" stroke="midnightblue" points="806.857,-469.5 816.857,-466 806.857,-462.5 806.857,-469.5"/>
</g>
<!-- Node8 -->
<g id="node8" class="node"><title>Node8</title>
<g id="a_node8"><a xlink:href="classICED_1_1HalfCell_1_1DeviceData_a16b07d4b06e74431a0783cbd6dd6e731.html#a16b07d4b06e74431a0783cbd6dd6e731" target="_top" xlink:title="Initialization of the input data from a parameter list. ">
<polygon fill="none" stroke="black" points="809,-402 809,-432 949,-432 949,-402 809,-402"/>
<text text-anchor="start" x="817" y="-420" font-family="Helvetica,sans-Serif" font-size="10.00">ICED::HalfCell::DeviceData</text>
<text text-anchor="middle" x="879" y="-409" font-family="Helvetica,sans-Serif" font-size="10.00">::SetData</text>
</a>
</g>
</g>
<!-- Node6&#45;&gt;Node8 -->
<g id="edge9" class="edge"><title>Node6&#45;&gt;Node8</title>
<path fill="none" stroke="midnightblue" d="M754.166,-450.899C772.884,-445.775 793.963,-440.004 813.353,-434.697"/>
<polygon fill="midnightblue" stroke="midnightblue" points="814.295,-438.068 823.016,-432.052 812.446,-431.316 814.295,-438.068"/>
</g>
<!-- Node9 -->
<g id="node9" class="node"><title>Node9</title>
<g id="a_node9"><a xlink:href="classICED_1_1HalfCell_1_1DeviceData_a9dce6b5d6a4272a04fb399b6b7723c96.html#a9dce6b5d6a4272a04fb399b6b7723c96" target="_top" xlink:title="Initialization of the components from a parameter list. ">
<polygon fill="none" stroke="black" points="809,-353 809,-383 949,-383 949,-353 809,-353"/>
<text text-anchor="start" x="817" y="-371" font-family="Helvetica,sans-Serif" font-size="10.00">ICED::HalfCell::DeviceData</text>
<text text-anchor="middle" x="879" y="-360" font-family="Helvetica,sans-Serif" font-size="10.00">::LoadComponents</text>
</a>
</g>
</g>
<!-- Node6&#45;&gt;Node9 -->
<g id="edge10" class="edge"><title>Node6&#45;&gt;Node9</title>
<path fill="none" stroke="midnightblue" d="M717.336,-450.839C737.536,-434.733 771.482,-409.382 804,-393 808.314,-390.827 812.861,-388.774 817.492,-386.85"/>
<polygon fill="midnightblue" stroke="midnightblue" points="819.041,-390.002 827.068,-383.087 816.48,-383.487 819.041,-390.002"/>
</g>
<!-- Node10 -->
<g id="node10" class="node"><title>Node10</title>
<g id="a_node10"><a xlink:href="classICED_1_1HalfCell_1_1DeviceData_abea9dd513340105152db94ed9f24211a.html#abea9dd513340105152db94ed9f24211a" target="_top" xlink:title="Setup of the global device data structure. ">
<polygon fill="none" stroke="black" points="809,-549 809,-579 949,-579 949,-549 809,-549"/>
<text text-anchor="start" x="817" y="-567" font-family="Helvetica,sans-Serif" font-size="10.00">ICED::HalfCell::DeviceData</text>
<text text-anchor="middle" x="879" y="-556" font-family="Helvetica,sans-Serif" font-size="10.00">::SetupGlobalData</text>
</a>
</g>
</g>
<!-- Node6&#45;&gt;Node10 -->
<g id="edge11" class="edge"><title>Node6&#45;&gt;Node10</title>
<path fill="none" stroke="midnightblue" d="M717.336,-481.161C737.536,-497.267 771.482,-522.618 804,-539 808.314,-541.173 812.861,-543.226 817.492,-545.15"/>
<polygon fill="midnightblue" stroke="midnightblue" points="816.48,-548.513 827.068,-548.913 819.041,-541.998 816.48,-548.513"/>
</g>
<!-- Node12 -->
<g id="node12" class="node"><title>Node12</title>
<g id="a_node12"><a xlink:href="classICED_1_1HalfCell_1_1DeviceData_a9e170c875ec6749900cb89bfb977379a.html#a9e170c875ec6749900cb89bfb977379a" target="_top" xlink:title="Copy device data from the component level. ">
<polygon fill="none" stroke="black" points="806.5,-632 806.5,-662 951.5,-662 951.5,-632 806.5,-632"/>
<text text-anchor="start" x="814.5" y="-650" font-family="Helvetica,sans-Serif" font-size="10.00">ICED::HalfCell::DeviceData</text>
<text text-anchor="middle" x="879" y="-639" font-family="Helvetica,sans-Serif" font-size="10.00">::CopyDataFromComponents</text>
</a>
</g>
</g>
<!-- Node6&#45;&gt;Node12 -->
<g id="edge13" class="edge"><title>Node6&#45;&gt;Node12</title>
<path fill="none" stroke="midnightblue" d="M710.457,-481.058C728.925,-504.911 766.965,-552.331 804,-588 817.917,-601.403 834.662,-614.942 848.701,-625.664"/>
<polygon fill="midnightblue" stroke="midnightblue" points="846.951,-628.727 857.044,-631.949 851.163,-623.136 846.951,-628.727"/>
</g>
<!-- Node13 -->
<g id="node13" class="node"><title>Node13</title>
<g id="a_node13"><a xlink:href="classICED_1_1HalfCell_1_1DeviceData_af4d13d54a16ba494be74358656df1381.html#af4d13d54a16ba494be74358656df1381" target="_top" xlink:title="Copy device data to global storage for the non&#45;linear solver. ">
<polygon fill="none" stroke="black" points="804.5,-500 804.5,-530 953.5,-530 953.5,-500 804.5,-500"/>
<text text-anchor="start" x="812.5" y="-518" font-family="Helvetica,sans-Serif" font-size="10.00">ICED::HalfCell::DeviceData</text>
<text text-anchor="middle" x="879" y="-507" font-family="Helvetica,sans-Serif" font-size="10.00">::CopyDeviceToGlobalStorage</text>
</a>
</g>
</g>
<!-- Node6&#45;&gt;Node13 -->
<g id="edge14" class="edge"><title>Node6&#45;&gt;Node13</title>
<path fill="none" stroke="midnightblue" d="M754.166,-481.101C772.884,-486.225 793.963,-491.996 813.353,-497.303"/>
<polygon fill="midnightblue" stroke="midnightblue" points="812.446,-500.684 823.016,-499.948 814.295,-493.932 812.446,-500.684"/>
</g>
<!-- Node11 -->
<g id="node11" class="node"><title>Node11</title>
<g id="a_node11"><a xlink:href="classICED_1_1HalfCell_1_1SolutionData_a80aaf93c79fb804885351b17786981e4.html#a80aaf93c79fb804885351b17786981e4" target="_top" xlink:title="Setup of the trilinosdata structure. ">
<polygon fill="none" stroke="black" points="990,-549 990,-579 1114,-579 1114,-549 990,-549"/>
<text text-anchor="start" x="998" y="-567" font-family="Helvetica,sans-Serif" font-size="10.00">ICED::HalfCell::Solution</text>
<text text-anchor="middle" x="1052" y="-556" font-family="Helvetica,sans-Serif" font-size="10.00">Data::BuildSolutionData</text>
</a>
</g>
</g>
<!-- Node10&#45;&gt;Node11 -->
<g id="edge12" class="edge"><title>Node10&#45;&gt;Node11</title>
<path fill="none" stroke="midnightblue" d="M949.059,-564C959.209,-564 969.68,-564 979.871,-564"/>
<polygon fill="midnightblue" stroke="midnightblue" points="979.946,-567.5 989.946,-564 979.946,-560.5 979.946,-567.5"/>
</g>
<!-- Node15&#45;&gt;Node6 -->
<g id="edge17" class="edge"><title>Node15&#45;&gt;Node6</title>
<path fill="none" stroke="midnightblue" d="M550.603,-201.697C565.245,-204.365 580.392,-209.493 592,-219 662.526,-276.764 686.581,-390.499 694.003,-440.918"/>
<polygon fill="midnightblue" stroke="midnightblue" points="690.552,-441.516 695.38,-450.947 697.487,-440.563 690.552,-441.516"/>
</g>
<!-- Node16&#45;&gt;Node6 -->
<g id="edge19" class="edge"><title>Node16&#45;&gt;Node6</title>
<path fill="none" stroke="midnightblue" d="M577.639,-171.706C582.811,-174.215 587.674,-177.276 592,-181 671.802,-249.694 690.995,-384.628 695.577,-440.668"/>
<polygon fill="midnightblue" stroke="midnightblue" points="692.097,-441.061 696.313,-450.781 699.078,-440.553 692.097,-441.061"/>
</g>
<!-- Node17&#45;&gt;Node6 -->
<g id="edge21" class="edge"><title>Node17&#45;&gt;Node6</title>
<path fill="none" stroke="midnightblue" d="M360.121,-385.85C422.671,-384.278 515.003,-386.869 592,-409 619.09,-416.786 647.006,-432.367 667.238,-445.274"/>
<polygon fill="midnightblue" stroke="midnightblue" points="665.401,-448.255 675.688,-450.794 669.23,-442.395 665.401,-448.255"/>
</g>
<!-- Node17&#45;&gt;Node14 -->
<g id="edge22" class="edge"><title>Node17&#45;&gt;Node14</title>
<path fill="none" stroke="midnightblue" d="M340.721,-399.54C369.429,-404.735 405.137,-411.196 435.27,-416.649"/>
<polygon fill="midnightblue" stroke="midnightblue" points="434.794,-420.12 445.258,-418.456 436.041,-413.231 434.794,-420.12"/>
</g>
<!-- Node18&#45;&gt;Node6 -->
<g id="edge24" class="edge"><title>Node18&#45;&gt;Node6</title>
<path fill="none" stroke="midnightblue" d="M336.235,-627.246C410.694,-640.49 549.484,-660.785 592,-637 648.377,-605.461 678.171,-529.894 690.314,-490.629"/>
<polygon fill="midnightblue" stroke="midnightblue" points="693.673,-491.612 693.153,-481.03 686.961,-489.627 693.673,-491.612"/>
</g>
<!-- Node19 -->
<g id="node19" class="node"><title>Node19</title>
<g id="a_node19"><a xlink:href="classICED_1_1HalfCell_1_1DeviceData_a3fe7f3b792b8be799a077bf9efe05d0c.html#a3fe7f3b792b8be799a077bf9efe05d0c" target="_top" xlink:title="Initialization of the component parameter objects. ">
<polygon fill="none" stroke="black" points="414,-685 414,-715 584,-715 584,-685 414,-685"/>
<text text-anchor="start" x="422" y="-703" font-family="Helvetica,sans-Serif" font-size="10.00">ICED::HalfCell::DeviceData</text>
<text text-anchor="middle" x="499" y="-692" font-family="Helvetica,sans-Serif" font-size="10.00">::GetDeviceComponentParameters</text>
</a>
</g>
</g>
<!-- Node18&#45;&gt;Node19 -->
<g id="edge25" class="edge"><title>Node18&#45;&gt;Node19</title>
<path fill="none" stroke="midnightblue" d="M336.315,-624.868C347.77,-627.653 359.657,-631.552 370,-637 389.204,-647.116 387.257,-659.054 406,-670 413.299,-674.263 421.282,-678.009 429.399,-681.276"/>
<polygon fill="midnightblue" stroke="midnightblue" points="428.365,-684.627 438.956,-684.895 430.844,-678.08 428.365,-684.627"/>
</g>
<!-- Node20&#45;&gt;Node6 -->
<g id="edge27" class="edge"><title>Node20&#45;&gt;Node6</title>
<path fill="none" stroke="midnightblue" d="M566.785,-789.885C576.018,-786.818 584.791,-782.373 592,-776 614.322,-756.266 670.545,-560.793 690.138,-490.783"/>
<polygon fill="midnightblue" stroke="midnightblue" points="693.542,-491.606 692.856,-481.034 686.799,-489.726 693.542,-491.606"/>
</g>
<!-- Node20&#45;&gt;Node12 -->
<g id="edge28" class="edge"><title>Node20&#45;&gt;Node12</title>
<path fill="none" stroke="midnightblue" d="M555.975,-785.492C567.99,-782.883 580.52,-779.724 592,-776 684.622,-745.953 787.35,-694.965 840.904,-666.935"/>
<polygon fill="midnightblue" stroke="midnightblue" points="842.787,-669.899 850.006,-662.144 839.527,-663.705 842.787,-669.899"/>
</g>
<!-- Node21 -->
<g id="node21" class="node"><title>Node21</title>
<g id="a_node21"><a xlink:href="classICED_1_1HalfCell_1_1DeviceData_a4c576785732499156ac44948922e6fca.html#a4c576785732499156ac44948922e6fca" target="_top" xlink:title="Copy device data to the component level. ">
<polygon fill="none" stroke="black" points="628,-780 628,-810 768,-810 768,-780 628,-780"/>
<text text-anchor="start" x="636" y="-798" font-family="Helvetica,sans-Serif" font-size="10.00">ICED::HalfCell::DeviceData</text>
<text text-anchor="middle" x="698" y="-787" font-family="Helvetica,sans-Serif" font-size="10.00">::CopyDataToComponents</text>
</a>
</g>
</g>
<!-- Node20&#45;&gt;Node21 -->
<g id="edge29" class="edge"><title>Node20&#45;&gt;Node21</title>
<path fill="none" stroke="midnightblue" d="M566.695,-795C582.964,-795 600.53,-795 617.336,-795"/>
<polygon fill="midnightblue" stroke="midnightblue" points="617.684,-798.5 627.684,-795 617.684,-791.5 617.684,-798.5"/>
</g>
<!-- Node22&#45;&gt;Node6 -->
<g id="edge31" class="edge"><title>Node22&#45;&gt;Node6</title>
<path fill="none" stroke="midnightblue" d="M330.119,-348.552C390.523,-345.233 504.146,-345.112 592,-381 625.884,-394.842 657.477,-423.396 676.98,-443.581"/>
<polygon fill="midnightblue" stroke="midnightblue" points="674.435,-445.984 683.842,-450.859 679.529,-441.182 674.435,-445.984"/>
</g>
<!-- Node22&#45;&gt;Node14 -->
<g id="edge32" class="edge"><title>Node22&#45;&gt;Node14</title>
<path fill="none" stroke="midnightblue" d="M330.146,-360.143C343.077,-363.073 357.252,-366.729 370,-371 405.588,-382.925 444.773,-401.18 470.293,-413.804"/>
<polygon fill="midnightblue" stroke="midnightblue" points="468.858,-417 479.368,-418.341 471.989,-410.739 468.858,-417"/>
</g>
<!-- Node24 -->
<g id="node24" class="node"><title>Node24</title>
<g id="a_node24"><a xlink:href="classICED_1_1TestingObject_a7995a39337d2ec045b02982b1b346b28.html#a7995a39337d2ec045b02982b1b346b28" target="_top" xlink:title="Function called by Test__Intercalation. ">
<polygon fill="none" stroke="black" points="439.5,-608.5 439.5,-627.5 558.5,-627.5 558.5,-608.5 439.5,-608.5"/>
<text text-anchor="middle" x="499" y="-615.5" font-family="Helvetica,sans-Serif" font-size="10.00">RunIntercalationModule</text>
</a>
</g>
</g>
<!-- Node23&#45;&gt;Node24 -->
<g id="edge34" class="edge"><title>Node23&#45;&gt;Node24</title>
<path fill="none" stroke="midnightblue" d="M337.236,-588.909C366.552,-594.214 404.04,-600.998 435.439,-606.679"/>
<polygon fill="midnightblue" stroke="midnightblue" points="434.938,-610.146 445.402,-608.482 436.185,-603.257 434.938,-610.146"/>
</g>
<!-- Node24&#45;&gt;Node6 -->
<g id="edge35" class="edge"><title>Node24&#45;&gt;Node6</title>
<path fill="none" stroke="midnightblue" d="M558.749,-608.559C570.334,-605.11 581.991,-600.408 592,-594 633.501,-567.429 666.508,-519.039 683.785,-489.971"/>
<polygon fill="midnightblue" stroke="midnightblue" points="686.845,-491.672 688.832,-481.265 680.789,-488.161 686.845,-491.672"/>
</g>
<!-- Node25&#45;&gt;Node6 -->
<g id="edge37" class="edge"><title>Node25&#45;&gt;Node6</title>
<path fill="none" stroke="midnightblue" d="M337.213,-307.845C400.087,-302.316 510.512,-300.613 592,-343 634.705,-365.213 667.303,-412.84 684.179,-441.879"/>
<polygon fill="midnightblue" stroke="midnightblue" points="681.136,-443.608 689.098,-450.598 687.233,-440.168 681.136,-443.608"/>
</g>
<!-- Node25&#45;&gt;Node14 -->
<g id="edge38" class="edge"><title>Node25&#45;&gt;Node14</title>
<path fill="none" stroke="midnightblue" d="M337.227,-321.951C348.299,-324.677 359.787,-328.278 370,-333 413.816,-353.259 457.349,-390.016 480.642,-411.383"/>
<polygon fill="midnightblue" stroke="midnightblue" points="478.303,-413.987 488.004,-418.246 483.076,-408.867 478.303,-413.987"/>
</g>
<!-- Node26&#45;&gt;Node6 -->
<g id="edge40" class="edge"><title>Node26&#45;&gt;Node6</title>
<path fill="none" stroke="midnightblue" d="M553.649,-244.079C567.227,-247.636 581.049,-253.229 592,-262 650.736,-309.044 679.964,-397.754 691.249,-441.012"/>
<polygon fill="midnightblue" stroke="midnightblue" points="687.859,-441.884 693.681,-450.737 694.65,-440.186 687.859,-441.884"/>
</g>
<!-- Node27&#45;&gt;Node6 -->
<g id="edge42" class="edge"><title>Node27&#45;&gt;Node6</title>
<path fill="none" stroke="midnightblue" d="M344.358,-266.499C409.032,-258.616 515.947,-255.095 592,-301 645.142,-333.076 675.931,-403.483 689.192,-441.118"/>
<polygon fill="midnightblue" stroke="midnightblue" points="685.949,-442.456 692.471,-450.805 692.579,-440.211 685.949,-442.456"/>
</g>
<!-- Node27&#45;&gt;Node14 -->
<g id="edge43" class="edge"><title>Node27&#45;&gt;Node14</title>
<path fill="none" stroke="midnightblue" d="M347.774,-285.546C355.52,-288.009 363.137,-291.106 370,-295 421.81,-324.398 465.866,-381.225 486.113,-410.149"/>
<polygon fill="midnightblue" stroke="midnightblue" points="483.289,-412.22 491.83,-418.49 489.063,-408.262 483.289,-412.22"/>
</g>
<!-- Node28&#45;&gt;Node6 -->
<g id="edge45" class="edge"><title>Node28&#45;&gt;Node6</title>
<path fill="none" stroke="midnightblue" d="M343.644,-542.796C405.38,-542.366 507.443,-537.73 592,-515 616.485,-508.418 642.312,-496.44 662.225,-485.974"/>
<polygon fill="midnightblue" stroke="midnightblue" points="664.061,-488.961 671.211,-481.143 660.746,-482.795 664.061,-488.961"/>
</g>
<!-- Node28&#45;&gt;Node14 -->
<g id="edge46" class="edge"><title>Node28&#45;&gt;Node14</title>
<path fill="none" stroke="midnightblue" d="M343.297,-532.474C352.434,-529.976 361.644,-526.864 370,-523 413.816,-502.741 457.349,-465.984 480.642,-444.617"/>
<polygon fill="midnightblue" stroke="midnightblue" points="483.076,-447.133 488.004,-437.754 478.303,-442.013 483.076,-447.133"/>
</g>
<!-- Node35 -->
<g id="node35" class="node"><title>Node35</title>
<g id="a_node35"><a xlink:href="namespaceICED_1_1HalfCell_a55b082d5ba8d68accf6f0052d68650f0.html#a55b082d5ba8d68accf6f0052d68650f0" target="_top" xlink:title="initialization of the NOX solver ">
<polygon fill="none" stroke="black" points="428,-747.5 428,-766.5 570,-766.5 570,-747.5 428,-747.5"/>
<text text-anchor="middle" x="499" y="-754.5" font-family="Helvetica,sans-Serif" font-size="10.00">ICED::HalfCell::SetupSolver</text>
</a>
</g>
</g>
<!-- Node34&#45;&gt;Node35 -->
<g id="edge53" class="edge"><title>Node34&#45;&gt;Node35</title>
<path fill="none" stroke="midnightblue" d="M369.793,-764.937C385.475,-763.966 401.884,-762.95 417.525,-761.982"/>
<polygon fill="midnightblue" stroke="midnightblue" points="417.911,-765.465 427.676,-761.353 417.479,-758.478 417.911,-765.465"/>
</g>
<!-- Node37&#45;&gt;Node35 -->
<g id="edge56" class="edge"><title>Node37&#45;&gt;Node35</title>
<path fill="none" stroke="midnightblue" d="M339.712,-662.136C350.307,-664.955 360.969,-669.052 370,-675 392.568,-689.864 384.337,-707.845 406,-724 417.603,-732.653 431.687,-739.203 445.311,-744.091"/>
<polygon fill="midnightblue" stroke="midnightblue" points="444.514,-747.515 455.108,-747.363 446.732,-740.876 444.514,-747.515"/>
</g>
<!-- Node38&#45;&gt;Node35 -->
<g id="edge58" class="edge"><title>Node38&#45;&gt;Node35</title>
<path fill="none" stroke="midnightblue" d="M333.793,-798.402C345.658,-795.64 358.367,-792.435 370,-789 386.315,-784.183 389.628,-780.621 406,-776 415.418,-773.342 425.474,-770.886 435.354,-768.684"/>
<polygon fill="midnightblue" stroke="midnightblue" points="436.108,-772.101 445.143,-766.568 434.629,-765.259 436.108,-772.101"/>
</g>
<!-- Node39&#45;&gt;Node6 -->
<g id="edge60" class="edge"><title>Node39&#45;&gt;Node6</title>
<path fill="none" stroke="midnightblue" d="M356.031,-506.622C417.916,-507.91 511.594,-507.114 592,-495 608.493,-492.515 626.084,-488.3 642.06,-483.843"/>
<polygon fill="midnightblue" stroke="midnightblue" points="643.13,-487.177 651.773,-481.049 641.195,-480.449 643.13,-487.177"/>
</g>
<!-- Node39&#45;&gt;Node14 -->
<g id="edge61" class="edge"><title>Node39&#45;&gt;Node14</title>
<path fill="none" stroke="midnightblue" d="M336.126,-494.469C347.358,-491.8 359.192,-488.621 370,-485 405.588,-473.075 444.773,-454.82 470.293,-442.196"/>
<polygon fill="midnightblue" stroke="midnightblue" points="471.989,-445.261 479.368,-437.659 468.858,-439 471.989,-445.261"/>
</g>
<!-- Node41&#45;&gt;Node6 -->
<g id="edge64" class="edge"><title>Node41&#45;&gt;Node6</title>
<path fill="none" stroke="midnightblue" d="M329.645,-435.69C352.178,-439.602 380.536,-444.125 406,-447 477.308,-455.051 558.86,-460.011 617.453,-462.835"/>
<polygon fill="midnightblue" stroke="midnightblue" points="617.598,-466.346 627.751,-463.321 617.927,-459.353 617.598,-466.346"/>
</g>
<!-- Node41&#45;&gt;Node14 -->
<g id="edge65" class="edge"><title>Node41&#45;&gt;Node14</title>
<path fill="none" stroke="midnightblue" d="M329.74,-428C355.962,-428 390.575,-428 421.587,-428"/>
<polygon fill="midnightblue" stroke="midnightblue" points="421.949,-431.5 431.949,-428 421.949,-424.5 421.949,-431.5"/>
</g>
</g>
</svg>
