<?xml version="1.0" encoding="UTF-8" standalone="no"?>
<!DOCTYPE svg PUBLIC "-//W3C//DTD SVG 1.1//EN"
 "http://www.w3.org/Graphics/SVG/1.1/DTD/svg11.dtd">
<!-- Generated by graphviz version 2.30.1 (20150305.2338)
 -->
<!-- Title: SetData Pages: 1 -->
<svg width="932pt" height="761pt"
 viewBox="0.00 0.00 932.00 760.54" xmlns="http://www.w3.org/2000/svg" xmlns:xlink="http://www.w3.org/1999/xlink">
<g id="graph0" class="graph" transform="scale(1 1) rotate(0) translate(4 756.541)">
<title>SetData</title>
<!-- Node1 -->
<g id="node1" class="node"><title>Node1</title>
<polygon fill="#bfbfbf" stroke="black" points="0.5,-367.5 0.5,-386.5 53.5,-386.5 53.5,-367.5 0.5,-367.5"/>
<text text-anchor="middle" x="27" y="-374.5" font-family="Helvetica,sans-Serif" font-size="10.00">SetData</text>
</g>
<!-- Node2 -->
<g id="node2" class="node"><title>Node2</title>
<g id="a_node2"><a xlink:href="classICED_1_1HalfCell_1_1DeviceData.html#ac62391584f55efe6bd7916ebf7d2e92b" target="_top" xlink:title="Initialization of the entire device data structure. ">
<polygon fill="none" stroke="black" points="90.5,-367.5 90.5,-386.5 159.5,-386.5 159.5,-367.5 90.5,-367.5"/>
<text text-anchor="middle" x="125" y="-374.5" font-family="Helvetica,sans-Serif" font-size="10.00">BuildDevice</text>
</a>
</g>
</g>
<!-- Node1&#45;&gt;Node2 -->
<g id="edge1" class="edge"><title>Node1&#45;&gt;Node2</title>
<path fill="none" stroke="midnightblue" d="M63.8962,-377C72.5281,-377 81.7186,-377 90.2489,-377"/>
<polygon fill="midnightblue" stroke="midnightblue" points="63.7263,-373.5 53.7262,-377 63.7262,-380.5 63.7263,-373.5"/>
</g>
<!-- Node3 -->
<g id="node3" class="node"><title>Node3</title>
<g id="a_node3"><a xlink:href="classICED_1_1TestingObject.html#a7995a39337d2ec045b02982b1b346b28" target="_top" xlink:title="Function called by Test__Intercalation. ">
<polygon fill="none" stroke="black" points="202.5,-425 202.5,-455 327.5,-455 327.5,-425 202.5,-425"/>
<text text-anchor="start" x="210.5" y="-443" font-family="Helvetica,sans-Serif" font-size="10.00">ICED::TestingObject</text>
<text text-anchor="middle" x="265" y="-432" font-family="Helvetica,sans-Serif" font-size="10.00">::RunIntercalationModule</text>
</a>
</g>
</g>
<!-- Node2&#45;&gt;Node3 -->
<g id="edge2" class="edge"><title>Node2&#45;&gt;Node3</title>
<path fill="none" stroke="midnightblue" d="M154.953,-390.848C167.533,-396.813 182.461,-403.823 196,-410 206.8,-414.927 218.62,-420.188 229.332,-424.905"/>
<polygon fill="midnightblue" stroke="midnightblue" points="156.386,-387.654 145.852,-386.521 153.381,-393.976 156.386,-387.654"/>
</g>
<!-- Node10 -->
<g id="node10" class="node"><title>Node10</title>
<g id="a_node10"><a xlink:href="classICED_1_1TestingObject.html#aea517fa85afb367c872ce72c26a0d643" target="_top" xlink:title="Test for ICED::ActivitCoefficient module. ">
<polygon fill="none" stroke="black" points="399.5,-392 399.5,-422 532.5,-422 532.5,-392 399.5,-392"/>
<text text-anchor="start" x="407.5" y="-410" font-family="Helvetica,sans-Serif" font-size="10.00">ICED::TestingObject</text>
<text text-anchor="middle" x="466" y="-399" font-family="Helvetica,sans-Serif" font-size="10.00">::Test__ActivityCoefficient</text>
</a>
</g>
</g>
<!-- Node2&#45;&gt;Node10 -->
<g id="edge10" class="edge"><title>Node2&#45;&gt;Node10</title>
<path fill="none" stroke="midnightblue" d="M169.731,-380.87C227.998,-386.026 331.591,-395.194 399.283,-401.184"/>
<polygon fill="midnightblue" stroke="midnightblue" points="170.014,-377.381 159.744,-379.986 169.396,-384.354 170.014,-377.381"/>
</g>
<!-- Node11 -->
<g id="node11" class="node"><title>Node11</title>
<g id="a_node11"><a xlink:href="classICED_1_1TestingObject.html#a2f898efd73e9aaf601f0733cb31fc340" target="_top" xlink:title="Test for ICED::ButlerVolmer. ">
<polygon fill="none" stroke="black" points="411.5,-343 411.5,-373 520.5,-373 520.5,-343 411.5,-343"/>
<text text-anchor="start" x="419.5" y="-361" font-family="Helvetica,sans-Serif" font-size="10.00">ICED::TestingObject</text>
<text text-anchor="middle" x="466" y="-350" font-family="Helvetica,sans-Serif" font-size="10.00">::Test__ButlerVolmer</text>
</a>
</g>
</g>
<!-- Node2&#45;&gt;Node11 -->
<g id="edge13" class="edge"><title>Node2&#45;&gt;Node11</title>
<path fill="none" stroke="midnightblue" d="M169.964,-374.536C231.903,-371.064 344.73,-364.741 411.472,-361"/>
<polygon fill="midnightblue" stroke="midnightblue" points="169.532,-371.055 159.744,-375.109 169.924,-378.044 169.532,-371.055"/>
</g>
<!-- Node12 -->
<g id="node12" class="node"><title>Node12</title>
<g id="a_node12"><a xlink:href="classICED_1_1TestingObject.html#a7bac98c894f8cfff372d495eae083cd5" target="_top" xlink:title="Tests the input file error checking functions using testModule and a generated &quot;bad&quot; input file...">
<polygon fill="none" stroke="black" points="199,-718 199,-748 331,-748 331,-718 199,-718"/>
<text text-anchor="start" x="207" y="-736" font-family="Helvetica,sans-Serif" font-size="10.00">ICED::TestingObject</text>
<text text-anchor="middle" x="265" y="-725" font-family="Helvetica,sans-Serif" font-size="10.00">::Test__CheckParamsBad</text>
</a>
</g>
</g>
<!-- Node2&#45;&gt;Node12 -->
<g id="edge16" class="edge"><title>Node2&#45;&gt;Node12</title>
<path fill="none" stroke="midnightblue" d="M125.633,-396.817C125.615,-449.057 131.79,-592.955 196,-687 204.84,-699.948 218.639,-710.262 231.502,-717.815"/>
<polygon fill="midnightblue" stroke="midnightblue" points="129.135,-396.629 125.721,-386.599 122.135,-396.568 129.135,-396.629"/>
</g>
<!-- Node13 -->
<g id="node13" class="node"><title>Node13</title>
<g id="a_node13"><a xlink:href="classICED_1_1TestingObject.html#afedc7e682315a3e766d614e09631ab04" target="_top" xlink:title="Tests the input file error checking functions using testModule and a generated &quot;good&quot; input file...">
<polygon fill="none" stroke="black" points="196,-648 196,-678 334,-678 334,-648 196,-648"/>
<text text-anchor="start" x="204" y="-666" font-family="Helvetica,sans-Serif" font-size="10.00">ICED::TestingObject</text>
<text text-anchor="middle" x="265" y="-655" font-family="Helvetica,sans-Serif" font-size="10.00">::Test__CheckParamsGood</text>
</a>
</g>
</g>
<!-- Node2&#45;&gt;Node13 -->
<g id="edge18" class="edge"><title>Node2&#45;&gt;Node13</title>
<path fill="none" stroke="midnightblue" d="M126.841,-396.593C129.683,-441.129 142.082,-551.552 196,-622 204.295,-632.838 216.343,-641.425 228.002,-647.881"/>
<polygon fill="midnightblue" stroke="midnightblue" points="130.332,-396.326 126.295,-386.53 123.342,-396.705 130.332,-396.326"/>
</g>
<!-- Node14 -->
<g id="node14" class="node"><title>Node14</title>
<g id="a_node14"><a xlink:href="classICED_1_1TestingObject.html#a8218a8aab213585d0fba3f2e1aa24b76" target="_top" xlink:title="Test for ICED::ComponentBoundaryConditions. ">
<polygon fill="none" stroke="black" points="370.5,-196 370.5,-226 561.5,-226 561.5,-196 370.5,-196"/>
<text text-anchor="start" x="378.5" y="-214" font-family="Helvetica,sans-Serif" font-size="10.00">ICED::TestingObject</text>
<text text-anchor="middle" x="466" y="-203" font-family="Helvetica,sans-Serif" font-size="10.00">::Test__ComponentBoundaryConditions</text>
</a>
</g>
</g>
<!-- Node2&#45;&gt;Node14 -->
<g id="edge20" class="edge"><title>Node2&#45;&gt;Node14</title>
<path fill="none" stroke="midnightblue" d="M135.057,-358.285C146.37,-336.89 167.729,-302.339 196,-283 247.574,-247.721 315.641,-229.712 370.399,-220.528"/>
<polygon fill="midnightblue" stroke="midnightblue" points="131.862,-356.847 130.451,-367.348 138.102,-360.019 131.862,-356.847"/>
</g>
<!-- Node15 -->
<g id="node15" class="node"><title>Node15</title>
<g id="a_node15"><a xlink:href="classICED_1_1TestingObject.html#a96409144efe94cf3e37a534e524c6e36" target="_top" xlink:title="Test for ICED::ConcentrationDiffusion. ">
<polygon fill="none" stroke="black" points="390,-147 390,-177 542,-177 542,-147 390,-147"/>
<text text-anchor="start" x="398" y="-165" font-family="Helvetica,sans-Serif" font-size="10.00">ICED::TestingObject</text>
<text text-anchor="middle" x="466" y="-154" font-family="Helvetica,sans-Serif" font-size="10.00">::Test__ConcentrationDiffusion</text>
</a>
</g>
</g>
<!-- Node2&#45;&gt;Node15 -->
<g id="edge23" class="edge"><title>Node2&#45;&gt;Node15</title>
<path fill="none" stroke="midnightblue" d="M129.401,-357.434C136.103,-324.973 154.17,-260.184 196,-226 250.642,-181.346 331.228,-166.872 389.946,-162.641"/>
<polygon fill="midnightblue" stroke="midnightblue" points="125.923,-356.985 127.483,-367.464 132.799,-358.299 125.923,-356.985"/>
</g>
<!-- Node16 -->
<g id="node16" class="node"><title>Node16</title>
<g id="a_node16"><a xlink:href="classICED_1_1TestingObject.html#a20a3def5cfb0861690599ae120367987" target="_top" xlink:title="Test for ICED::DeviceData. ">
<polygon fill="none" stroke="black" points="412,-98 412,-128 520,-128 520,-98 412,-98"/>
<text text-anchor="start" x="420" y="-116" font-family="Helvetica,sans-Serif" font-size="10.00">ICED::TestingObject</text>
<text text-anchor="middle" x="466" y="-105" font-family="Helvetica,sans-Serif" font-size="10.00">::Test__DeviceData</text>
</a>
</g>
</g>
<!-- Node2&#45;&gt;Node16 -->
<g id="edge26" class="edge"><title>Node2&#45;&gt;Node16</title>
<path fill="none" stroke="midnightblue" d="M126.328,-357.107C128.165,-314.979 138.715,-216.497 196,-166 255.72,-113.357 352.224,-106.878 411.958,-108.712"/>
<polygon fill="midnightblue" stroke="midnightblue" points="122.826,-357.089 126.013,-367.193 129.823,-357.307 122.826,-357.089"/>
</g>
<!-- Node17 -->
<g id="node17" class="node"><title>Node17</title>
<g id="a_node17"><a xlink:href="classICED_1_1TestingObject.html#a43dbcae20e4ab6f8b30751e9b5e5b2c2" target="_top" xlink:title="Test for ICED::DeviceDataMapping. ">
<polygon fill="none" stroke="black" points="395.5,-49 395.5,-79 536.5,-79 536.5,-49 395.5,-49"/>
<text text-anchor="start" x="403.5" y="-67" font-family="Helvetica,sans-Serif" font-size="10.00">ICED::TestingObject</text>
<text text-anchor="middle" x="466" y="-56" font-family="Helvetica,sans-Serif" font-size="10.00">::Test__DeviceDataMapping</text>
</a>
</g>
</g>
<!-- Node2&#45;&gt;Node17 -->
<g id="edge29" class="edge"><title>Node2&#45;&gt;Node17</title>
<path fill="none" stroke="midnightblue" d="M128.355,-357.474C135.496,-301.629 158.725,-143.072 196,-109 249.473,-60.1221 335.114,-53.5949 395.372,-56.2549"/>
<polygon fill="midnightblue" stroke="midnightblue" points="124.872,-357.124 127.109,-367.48 131.818,-357.989 124.872,-357.124"/>
</g>
<!-- Node18 -->
<g id="node18" class="node"><title>Node18</title>
<g id="a_node18"><a xlink:href="classICED_1_1TestingObject.html#a06cf16fc934c4e87f6886a7beb771b0e" target="_top" xlink:title="Test for ICED::Diffusion module. ">
<polygon fill="none" stroke="black" points="412,-0 412,-30 520,-30 520,-0 412,-0"/>
<text text-anchor="start" x="420" y="-18" font-family="Helvetica,sans-Serif" font-size="10.00">ICED::TestingObject</text>
<text text-anchor="middle" x="466" y="-7" font-family="Helvetica,sans-Serif" font-size="10.00">::Test__Diffusion</text>
</a>
</g>
</g>
<!-- Node2&#45;&gt;Node18 -->
<g id="edge32" class="edge"><title>Node2&#45;&gt;Node18</title>
<path fill="none" stroke="midnightblue" d="M127.43,-356.883C132.407,-292.896 151.17,-95.8205 196,-54 253.884,-0.00175492 351.413,-0.0247933 411.775,-6.45763"/>
<polygon fill="midnightblue" stroke="midnightblue" points="123.913,-356.981 126.658,-367.214 130.894,-357.503 123.913,-356.981"/>
</g>
<!-- Node19 -->
<g id="node19" class="node"><title>Node19</title>
<g id="a_node19"><a xlink:href="classICED_1_1TestingObject.html#af46c6cb015fb4151707a8c08084f4525" target="_top" xlink:title="Test for ICED::IonMigration module. ">
<polygon fill="none" stroke="black" points="412,-637 412,-667 520,-667 520,-637 412,-637"/>
<text text-anchor="start" x="420" y="-655" font-family="Helvetica,sans-Serif" font-size="10.00">ICED::TestingObject</text>
<text text-anchor="middle" x="466" y="-644" font-family="Helvetica,sans-Serif" font-size="10.00">::Test__IonMigration</text>
</a>
</g>
</g>
<!-- Node2&#45;&gt;Node19 -->
<g id="edge35" class="edge"><title>Node2&#45;&gt;Node19</title>
<path fill="none" stroke="midnightblue" d="M127.247,-396.903C130.815,-436.583 144.45,-525.936 196,-575 227.009,-604.513 342.826,-629.886 411.976,-642.83"/>
<polygon fill="midnightblue" stroke="midnightblue" points="130.733,-396.595 126.47,-386.896 123.754,-397.137 130.733,-396.595"/>
</g>
<!-- Node20 -->
<g id="node20" class="node"><title>Node20</title>
<g id="a_node20"><a xlink:href="classICED_1_1TestingObject.html#a263e8cc9d4d10cb3b749c8946ebcae72" target="_top" xlink:title="Test for ICED::DeviceComponent. ">
<polygon fill="none" stroke="black" points="408.5,-588 408.5,-618 523.5,-618 523.5,-588 408.5,-588"/>
<text text-anchor="start" x="416.5" y="-606" font-family="Helvetica,sans-Serif" font-size="10.00">ICED::TestingObject</text>
<text text-anchor="middle" x="466" y="-595" font-family="Helvetica,sans-Serif" font-size="10.00">::Test__ModulePriority</text>
</a>
</g>
</g>
<!-- Node2&#45;&gt;Node20 -->
<g id="edge38" class="edge"><title>Node2&#45;&gt;Node20</title>
<path fill="none" stroke="midnightblue" d="M128.843,-396.874C134.822,-431.09 151.976,-501.003 196,-538 227.77,-564.699 339.155,-584.963 408.239,-595.319"/>
<polygon fill="midnightblue" stroke="midnightblue" points="132.258,-396.06 127.222,-386.738 125.346,-397.165 132.258,-396.06"/>
</g>
<!-- Node21 -->
<g id="node21" class="node"><title>Node21</title>
<g id="a_node21"><a xlink:href="classICED_1_1TestingObject.html#a4f825a89973b92c36e2fe2cbe6a653a0" target="_top" xlink:title="Test for ICED::OhmsLawElectrolyte. ">
<polygon fill="none" stroke="black" points="394.5,-539 394.5,-569 537.5,-569 537.5,-539 394.5,-539"/>
<text text-anchor="start" x="402.5" y="-557" font-family="Helvetica,sans-Serif" font-size="10.00">ICED::TestingObject</text>
<text text-anchor="middle" x="466" y="-546" font-family="Helvetica,sans-Serif" font-size="10.00">::Test__OhmsLawElectrolyte</text>
</a>
</g>
</g>
<!-- Node2&#45;&gt;Node21 -->
<g id="edge41" class="edge"><title>Node2&#45;&gt;Node21</title>
<path fill="none" stroke="midnightblue" d="M131.601,-396.253C140.548,-423.42 160.749,-472.525 196,-498 253.898,-539.842 336.106,-551.894 394.372,-554.691"/>
<polygon fill="midnightblue" stroke="midnightblue" points="134.941,-395.207 128.624,-386.701 128.258,-397.289 134.941,-395.207"/>
</g>
<!-- Node22 -->
<g id="node22" class="node"><title>Node22</title>
<g id="a_node22"><a xlink:href="classICED_1_1TestingObject.html#ab656a16700e242a40e0b21d7693a6ae0" target="_top" xlink:title="Test for ICED::OhmsLawSolid. ">
<polygon fill="none" stroke="black" points="406.5,-490 406.5,-520 525.5,-520 525.5,-490 406.5,-490"/>
<text text-anchor="start" x="414.5" y="-508" font-family="Helvetica,sans-Serif" font-size="10.00">ICED::TestingObject</text>
<text text-anchor="middle" x="466" y="-497" font-family="Helvetica,sans-Serif" font-size="10.00">::Test__OhmsLawSolid</text>
</a>
</g>
</g>
<!-- Node2&#45;&gt;Node22 -->
<g id="edge44" class="edge"><title>Node2&#45;&gt;Node22</title>
<path fill="none" stroke="midnightblue" d="M135.382,-395.482C146.773,-415.856 167.988,-447.877 196,-464 261.1,-501.469 349.102,-508.21 406.445,-507.94"/>
<polygon fill="midnightblue" stroke="midnightblue" points="138.399,-393.7 130.593,-386.536 132.227,-397.004 138.399,-393.7"/>
</g>
<!-- Node23 -->
<g id="node23" class="node"><title>Node23</title>
<g id="a_node23"><a xlink:href="classICED_1_1TestingObject.html#aacdc6512e5ce8094c62997f4d1f02634" target="_top" xlink:title="Test for ICED::TransferenceNumber. ">
<polygon fill="none" stroke="black" points="394,-294 394,-324 538,-324 538,-294 394,-294"/>
<text text-anchor="start" x="402" y="-312" font-family="Helvetica,sans-Serif" font-size="10.00">ICED::TestingObject</text>
<text text-anchor="middle" x="466" y="-301" font-family="Helvetica,sans-Serif" font-size="10.00">::Test__TransferenceNumber</text>
</a>
</g>
</g>
<!-- Node2&#45;&gt;Node23 -->
<g id="edge47" class="edge"><title>Node2&#45;&gt;Node23</title>
<path fill="none" stroke="midnightblue" d="M169.77,-367.504C178.456,-365.653 187.512,-363.745 196,-362 263.021,-348.218 339.593,-333.202 393.856,-322.684"/>
<polygon fill="midnightblue" stroke="midnightblue" points="168.846,-364.123 159.8,-369.639 170.312,-370.967 168.846,-364.123"/>
</g>
<!-- Node24 -->
<g id="node24" class="node"><title>Node24</title>
<g id="a_node24"><a xlink:href="classICED_1_1TestingObject.html#a9bbc638a5bd612413bdd4c03b6c66d0c" target="_top" xlink:title="Test for ICED::wallFlux. ">
<polygon fill="none" stroke="black" points="412,-245 412,-275 520,-275 520,-245 412,-245"/>
<text text-anchor="start" x="420" y="-263" font-family="Helvetica,sans-Serif" font-size="10.00">ICED::TestingObject</text>
<text text-anchor="middle" x="466" y="-252" font-family="Helvetica,sans-Serif" font-size="10.00">::Test__WallFlux</text>
</a>
</g>
</g>
<!-- Node2&#45;&gt;Node24 -->
<g id="edge50" class="edge"><title>Node2&#45;&gt;Node24</title>
<path fill="none" stroke="midnightblue" d="M146.338,-361.577C159.829,-351.953 178.255,-339.93 196,-332 267.505,-300.046 356.233,-279.702 411.752,-269.069"/>
<polygon fill="midnightblue" stroke="midnightblue" points="144.255,-358.764 138.242,-367.487 148.383,-364.417 144.255,-358.764"/>
</g>
<!-- Node4 -->
<g id="node4" class="node"><title>Node4</title>
<g id="a_node4"><a xlink:href="classICED_1_1TestingObject.html#adcd8b620aa1ea5a579a671ac15b5620b" target="_top" xlink:title="Test for ICED::Intercalation. ">
<polygon fill="none" stroke="black" points="412,-441 412,-471 520,-471 520,-441 412,-441"/>
<text text-anchor="start" x="420" y="-459" font-family="Helvetica,sans-Serif" font-size="10.00">ICED::TestingObject</text>
<text text-anchor="middle" x="466" y="-448" font-family="Helvetica,sans-Serif" font-size="10.00">::Test__Intercalation</text>
</a>
</g>
</g>
<!-- Node3&#45;&gt;Node4 -->
<g id="edge3" class="edge"><title>Node3&#45;&gt;Node4</title>
<path fill="none" stroke="midnightblue" d="M337.889,-445.78C362.281,-447.741 389.077,-449.896 411.751,-451.719"/>
<polygon fill="midnightblue" stroke="midnightblue" points="337.85,-442.266 327.602,-444.953 337.289,-449.243 337.85,-442.266"/>
</g>
<!-- Node5 -->
<g id="node5" class="node"><title>Node5</title>
<g id="a_node5"><a xlink:href="classICED_1_1TestingObject.html#a046f7ab06db0acf616b0d2bf3d3146aa" target="_top" xlink:title="Runs all tests implemented by the ICED::TestingObject. ">
<polygon fill="none" stroke="black" points="598,-367 598,-397 706,-397 706,-367 598,-367"/>
<text text-anchor="start" x="606" y="-385" font-family="Helvetica,sans-Serif" font-size="10.00">ICED::TestingObject</text>
<text text-anchor="middle" x="652" y="-374" font-family="Helvetica,sans-Serif" font-size="10.00">::Process</text>
</a>
</g>
</g>
<!-- Node4&#45;&gt;Node5 -->
<g id="edge4" class="edge"><title>Node4&#45;&gt;Node5</title>
<path fill="none" stroke="midnightblue" d="M529.895,-441.789C540.752,-438.675 551.815,-435.071 562,-431 585.093,-421.768 609.747,-407.841 627.236,-397.192"/>
<polygon fill="midnightblue" stroke="midnightblue" points="528.725,-438.481 520.013,-444.51 530.583,-445.229 528.725,-438.481"/>
</g>
<!-- Node8 -->
<g id="node8" class="node"><title>Node8</title>
<g id="a_node8"><a xlink:href="classICED_1_1TestingObject.html#af1f07f14b9af7708e4264bb38937eed2" target="_top" xlink:title="Runs a test specified by name. ">
<polygon fill="none" stroke="black" points="598,-318 598,-348 706,-348 706,-318 598,-318"/>
<text text-anchor="start" x="606" y="-336" font-family="Helvetica,sans-Serif" font-size="10.00">ICED::TestingObject</text>
<text text-anchor="middle" x="652" y="-325" font-family="Helvetica,sans-Serif" font-size="10.00">::RunTest</text>
</a>
</g>
</g>
<!-- Node4&#45;&gt;Node8 -->
<g id="edge7" class="edge"><title>Node4&#45;&gt;Node8</title>
<path fill="none" stroke="midnightblue" d="M529.812,-447.635C541.391,-443.928 552.734,-438.611 562,-431 590.262,-407.785 571.784,-382.503 598,-357 601.475,-353.619 605.511,-350.663 609.774,-348.09"/>
<polygon fill="midnightblue" stroke="midnightblue" points="528.742,-444.301 520.07,-450.387 530.645,-451.037 528.742,-444.301"/>
</g>
<!-- Node6 -->
<g id="node6" class="node"><title>Node6</title>
<g id="a_node6"><a xlink:href="namespaceICED.html#acf52cefdb153ca8751acb1e183d3a405" target="_top" xlink:title="Drives the ICED::TestObject. ">
<polygon fill="none" stroke="black" points="762.5,-369.5 762.5,-388.5 829.5,-388.5 829.5,-369.5 762.5,-369.5"/>
<text text-anchor="middle" x="796" y="-376.5" font-family="Helvetica,sans-Serif" font-size="10.00">ICED::Test</text>
</a>
</g>
</g>
<!-- Node5&#45;&gt;Node6 -->
<g id="edge5" class="edge"><title>Node5&#45;&gt;Node6</title>
<path fill="none" stroke="midnightblue" d="M716.6,-380.656C732.467,-380.321 748.831,-379.975 762.478,-379.687"/>
<polygon fill="midnightblue" stroke="midnightblue" points="716.203,-377.164 706.28,-380.874 716.351,-384.162 716.203,-377.164"/>
</g>
<!-- Node7 -->
<g id="node7" class="node"><title>Node7</title>
<g id="a_node7"><a xlink:href="TestICED_8C.html#a0ddf1224851353fc92bfbff6f499fa97" target="_top" xlink:title="main">
<polygon fill="none" stroke="black" points="886,-369.5 886,-388.5 924,-388.5 924,-369.5 886,-369.5"/>
<text text-anchor="middle" x="905" y="-376.5" font-family="Helvetica,sans-Serif" font-size="10.00">main</text>
</a>
</g>
</g>
<!-- Node6&#45;&gt;Node7 -->
<g id="edge6" class="edge"><title>Node6&#45;&gt;Node7</title>
<path fill="none" stroke="midnightblue" d="M839.939,-379C855.927,-379 873.225,-379 885.811,-379"/>
<polygon fill="midnightblue" stroke="midnightblue" points="839.685,-375.5 829.685,-379 839.685,-382.5 839.685,-375.5"/>
</g>
<!-- Node9 -->
<g id="node9" class="node"><title>Node9</title>
<g id="a_node9"><a xlink:href="classICED_1_1TestingObject.html#a21159bd2efac623e5a5079f6a20f3444" target="_top" xlink:title="Runs a list of tests specified by name. ">
<polygon fill="none" stroke="black" points="742,-318 742,-348 850,-348 850,-318 742,-318"/>
<text text-anchor="start" x="750" y="-336" font-family="Helvetica,sans-Serif" font-size="10.00">ICED::TestingObject</text>
<text text-anchor="middle" x="796" y="-325" font-family="Helvetica,sans-Serif" font-size="10.00">::ProcessTests</text>
</a>
</g>
</g>
<!-- Node8&#45;&gt;Node9 -->
<g id="edge8" class="edge"><title>Node8&#45;&gt;Node9</title>
<path fill="none" stroke="midnightblue" d="M716.517,-333C724.996,-333 733.618,-333 741.894,-333"/>
<polygon fill="midnightblue" stroke="midnightblue" points="716.28,-329.5 706.28,-333 716.28,-336.5 716.28,-329.5"/>
</g>
<!-- Node8&#45;&gt;Node6 -->
<g id="edge9" class="edge"><title>Node8&#45;&gt;Node6</title>
<path fill="none" stroke="midnightblue" d="M709.084,-351.168C728.316,-357.398 749.077,-364.124 765.373,-369.402"/>
<polygon fill="midnightblue" stroke="midnightblue" points="710.088,-347.814 699.496,-348.062 707.931,-354.474 710.088,-347.814"/>
</g>
<!-- Node10&#45;&gt;Node5 -->
<g id="edge11" class="edge"><title>Node10&#45;&gt;Node5</title>
<path fill="none" stroke="midnightblue" d="M542.795,-396.702C561.261,-394.193 580.625,-391.562 597.786,-389.23"/>
<polygon fill="midnightblue" stroke="midnightblue" points="542.087,-393.266 532.649,-398.08 543.029,-400.202 542.087,-393.266"/>
</g>
<!-- Node10&#45;&gt;Node8 -->
<g id="edge12" class="edge"><title>Node10&#45;&gt;Node8</title>
<path fill="none" stroke="midnightblue" d="M542.548,-389.738C549.235,-387.429 555.809,-384.856 562,-382 579.689,-373.841 581.058,-366.613 598,-357 603.535,-353.86 609.555,-350.811 615.487,-348"/>
<polygon fill="midnightblue" stroke="midnightblue" points="541.133,-386.518 532.703,-392.936 543.295,-393.176 541.133,-386.518"/>
</g>
<!-- Node11&#45;&gt;Node5 -->
<g id="edge14" class="edge"><title>Node11&#45;&gt;Node5</title>
<path fill="none" stroke="midnightblue" d="M530.899,-366.335C552.751,-369.185 576.943,-372.34 597.854,-375.068"/>
<polygon fill="midnightblue" stroke="midnightblue" points="531.084,-362.829 520.715,-365.006 530.178,-369.77 531.084,-362.829"/>
</g>
<!-- Node11&#45;&gt;Node8 -->
<g id="edge15" class="edge"><title>Node11&#45;&gt;Node8</title>
<path fill="none" stroke="midnightblue" d="M530.899,-349.318C552.751,-346.349 576.943,-343.062 597.854,-340.221"/>
<polygon fill="midnightblue" stroke="midnightblue" points="530.153,-345.887 520.715,-350.702 531.095,-352.823 530.153,-345.887"/>
</g>
<!-- Node12&#45;&gt;Node5 -->
<g id="edge17" class="edge"><title>Node12&#45;&gt;Node5</title>
<path fill="none" stroke="midnightblue" d="M341.403,-747.963C407.184,-756.417 501.336,-756.77 562,-706 611.096,-664.911 641.43,-456.088 649.082,-397.375"/>
<polygon fill="midnightblue" stroke="midnightblue" points="341.483,-744.441 331.099,-746.544 340.528,-751.376 341.483,-744.441"/>
</g>
<!-- Node13&#45;&gt;Node5 -->
<g id="edge19" class="edge"><title>Node13&#45;&gt;Node5</title>
<path fill="none" stroke="midnightblue" d="M312.756,-681.615C375.946,-703.407 489.071,-730.12 562,-676 608.68,-641.359 640.397,-452.519 648.785,-397.221"/>
<polygon fill="midnightblue" stroke="midnightblue" points="313.652,-678.219 303.057,-678.173 311.311,-684.816 313.652,-678.219"/>
</g>
<!-- Node14&#45;&gt;Node5 -->
<g id="edge21" class="edge"><title>Node14&#45;&gt;Node5</title>
<path fill="none" stroke="midnightblue" d="M558.549,-231.93C559.737,-232.909 560.889,-233.932 562,-235 602.757,-274.178 561.214,-314.072 598,-357 601.31,-360.863 605.349,-364.17 609.705,-366.992"/>
<polygon fill="midnightblue" stroke="midnightblue" points="560.423,-228.969 550.23,-226.082 556.398,-234.696 560.423,-228.969"/>
</g>
<!-- Node14&#45;&gt;Node8 -->
<g id="edge22" class="edge"><title>Node14&#45;&gt;Node8</title>
<path fill="none" stroke="midnightblue" d="M553.148,-230.233C556.193,-231.707 559.156,-233.293 562,-235 597.473,-256.286 627.062,-296.088 641.505,-317.845"/>
<polygon fill="midnightblue" stroke="midnightblue" points="554.359,-226.943 543.795,-226.14 551.553,-233.356 554.359,-226.943"/>
</g>
<!-- Node15&#45;&gt;Node5 -->
<g id="edge24" class="edge"><title>Node15&#45;&gt;Node5</title>
<path fill="none" stroke="midnightblue" d="M551.093,-177.097C555.052,-179.648 558.729,-182.596 562,-186 615.81,-242.004 549.845,-296.065 598,-357 601.028,-360.831 604.783,-364.105 608.888,-366.895"/>
<polygon fill="midnightblue" stroke="midnightblue" points="552.48,-173.866 542.029,-172.124 549.113,-180.003 552.48,-173.866"/>
</g>
<!-- Node15&#45;&gt;Node8 -->
<g id="edge25" class="edge"><title>Node15&#45;&gt;Node8</title>
<path fill="none" stroke="midnightblue" d="M551.222,-179.241C554.997,-181.252 558.615,-183.496 562,-186 608.77,-220.599 635.928,-287.78 646.215,-317.832"/>
<polygon fill="midnightblue" stroke="midnightblue" points="552.702,-176.069 542.166,-174.958 549.71,-182.397 552.702,-176.069"/>
</g>
<!-- Node16&#45;&gt;Node5 -->
<g id="edge27" class="edge"><title>Node16&#45;&gt;Node5</title>
<path fill="none" stroke="midnightblue" d="M530.168,-118.177C542.149,-121.909 553.557,-127.805 562,-137 629.01,-209.981 538.346,-277.894 598,-357 600.879,-360.818 604.487,-364.076 608.46,-366.852"/>
<polygon fill="midnightblue" stroke="midnightblue" points="531.045,-114.789 520.483,-115.626 529.262,-121.558 531.045,-114.789"/>
</g>
<!-- Node16&#45;&gt;Node8 -->
<g id="edge28" class="edge"><title>Node16&#45;&gt;Node8</title>
<path fill="none" stroke="midnightblue" d="M529.949,-120.459C541.518,-124.064 552.821,-129.331 562,-137 620.362,-185.761 642.177,-280.852 648.67,-317.804"/>
<polygon fill="midnightblue" stroke="midnightblue" points="530.779,-117.057 520.21,-117.805 528.938,-123.811 530.779,-117.057"/>
</g>
<!-- Node17&#45;&gt;Node5 -->
<g id="edge30" class="edge"><title>Node17&#45;&gt;Node5</title>
<path fill="none" stroke="midnightblue" d="M545.956,-75.502C551.954,-78.78 557.436,-82.8816 562,-88 642.276,-178.029 526.786,-259.644 598,-357 600.823,-360.859 604.396,-364.144 608.348,-366.936"/>
<polygon fill="midnightblue" stroke="midnightblue" points="547.389,-72.3086 536.845,-71.2661 544.437,-78.656 547.389,-72.3086"/>
</g>
<!-- Node17&#45;&gt;Node8 -->
<g id="edge31" class="edge"><title>Node17&#45;&gt;Node8</title>
<path fill="none" stroke="midnightblue" d="M546.182,-77.2798C551.91,-80.2011 557.279,-83.7333 562,-88 632.337,-151.57 647.157,-275.173 650.22,-317.979"/>
<polygon fill="midnightblue" stroke="midnightblue" points="547.488,-74.0303 536.927,-73.1744 544.649,-80.4289 547.488,-74.0303"/>
</g>
<!-- Node18&#45;&gt;Node5 -->
<g id="edge33" class="edge"><title>Node18&#45;&gt;Node5</title>
<path fill="none" stroke="midnightblue" d="M530.133,-19.7423C542.233,-23.487 553.699,-29.4977 562,-39 655.578,-146.118 515.195,-241.352 598,-357 600.724,-360.805 604.181,-364.05 608.019,-366.813"/>
<polygon fill="midnightblue" stroke="midnightblue" points="530.901,-16.3255 520.342,-17.2015 529.142,-23.1011 530.901,-16.3255"/>
</g>
<!-- Node18&#45;&gt;Node8 -->
<g id="edge34" class="edge"><title>Node18&#45;&gt;Node8</title>
<path fill="none" stroke="midnightblue" d="M530.014,-21.285C541.789,-24.964 553.156,-30.5576 562,-39 644.359,-117.616 651.248,-269.589 651.265,-317.882"/>
<polygon fill="midnightblue" stroke="midnightblue" points="530.638,-17.8288 520.073,-18.6244 528.828,-24.5908 530.638,-17.8288"/>
</g>
<!-- Node19&#45;&gt;Node5 -->
<g id="edge36" class="edge"><title>Node19&#45;&gt;Node5</title>
<path fill="none" stroke="midnightblue" d="M530.074,-644.507C541.737,-640.736 553.045,-635.174 562,-627 631.856,-563.236 646.97,-440.29 650.166,-397.294"/>
<polygon fill="midnightblue" stroke="midnightblue" points="528.917,-641.196 520.237,-647.271 530.811,-647.935 528.917,-641.196"/>
</g>
<!-- Node19&#45;&gt;Node8 -->
<g id="edge37" class="edge"><title>Node19&#45;&gt;Node8</title>
<path fill="none" stroke="midnightblue" d="M530.03,-646.435C542.136,-642.572 553.63,-636.485 562,-627 642.1,-536.226 525.793,-454.17 598,-357 600.53,-353.595 603.657,-350.661 607.116,-348.136"/>
<polygon fill="midnightblue" stroke="midnightblue" points="528.98,-643.093 520.238,-649.078 530.804,-649.851 528.98,-643.093"/>
</g>
<!-- Node20&#45;&gt;Node5 -->
<g id="edge39" class="edge"><title>Node20&#45;&gt;Node5</title>
<path fill="none" stroke="midnightblue" d="M533.302,-593.707C543.693,-590.05 553.717,-584.99 562,-578 620.121,-528.952 642.078,-434.03 648.639,-397.16"/>
<polygon fill="midnightblue" stroke="midnightblue" points="532.21,-590.382 523.696,-596.687 534.284,-597.067 532.21,-590.382"/>
</g>
<!-- Node20&#45;&gt;Node8 -->
<g id="edge40" class="edge"><title>Node20&#45;&gt;Node8</title>
<path fill="none" stroke="midnightblue" d="M533.555,-595.986C544.295,-592.117 554.372,-586.396 562,-578 628.917,-504.341 537.494,-436.01 598,-357 600.579,-353.632 603.739,-350.723 607.219,-348.213"/>
<polygon fill="midnightblue" stroke="midnightblue" points="532.52,-592.643 523.993,-598.93 534.58,-599.333 532.52,-592.643"/>
</g>
<!-- Node21&#45;&gt;Node5 -->
<g id="edge42" class="edge"><title>Node21&#45;&gt;Node5</title>
<path fill="none" stroke="midnightblue" d="M547.351,-537.838C552.53,-535.308 557.475,-532.382 562,-529 608.598,-494.171 635.846,-427.11 646.186,-397.129"/>
<polygon fill="midnightblue" stroke="midnightblue" points="545.592,-534.786 537.813,-541.979 548.379,-541.207 545.592,-534.786"/>
</g>
<!-- Node21&#45;&gt;Node8 -->
<g id="edge43" class="edge"><title>Node21&#45;&gt;Node8</title>
<path fill="none" stroke="midnightblue" d="M546.896,-540.561C552.467,-537.431 557.606,-533.625 562,-529 615.8,-472.384 549.137,-417.927 598,-357 600.717,-353.612 604.017,-350.685 607.627,-348.159"/>
<polygon fill="midnightblue" stroke="midnightblue" points="545.311,-537.439 537.829,-544.941 548.356,-543.742 545.311,-537.439"/>
</g>
<!-- Node22&#45;&gt;Node5 -->
<g id="edge45" class="edge"><title>Node22&#45;&gt;Node5</title>
<path fill="none" stroke="midnightblue" d="M535.568,-492.08C544.806,-488.89 553.884,-484.925 562,-480 597.367,-458.539 627,-418.808 641.477,-397.109"/>
<polygon fill="midnightblue" stroke="midnightblue" points="534.396,-488.779 525.917,-495.131 536.507,-495.454 534.396,-488.779"/>
</g>
<!-- Node22&#45;&gt;Node8 -->
<g id="edge46" class="edge"><title>Node22&#45;&gt;Node8</title>
<path fill="none" stroke="midnightblue" d="M535.225,-496.28C545.13,-492.537 554.497,-487.3 562,-480 602.825,-440.279 560.649,-400.004 598,-357 600.981,-353.568 604.551,-350.601 608.412,-348.042"/>
<polygon fill="midnightblue" stroke="midnightblue" points="534.02,-492.991 525.606,-499.43 536.199,-499.644 534.02,-492.991"/>
</g>
<!-- Node23&#45;&gt;Node5 -->
<g id="edge48" class="edge"><title>Node23&#45;&gt;Node5</title>
<path fill="none" stroke="midnightblue" d="M547.556,-327.273C552.505,-329.033 557.357,-330.939 562,-333 579.576,-340.801 581.259,-347.539 598,-357 604.111,-360.454 610.779,-363.862 617.258,-366.998"/>
<polygon fill="midnightblue" stroke="midnightblue" points="548.541,-323.912 537.947,-324.066 546.325,-330.552 548.541,-323.912"/>
</g>
<!-- Node23&#45;&gt;Node8 -->
<g id="edge49" class="edge"><title>Node23&#45;&gt;Node8</title>
<path fill="none" stroke="midnightblue" d="M548.46,-319.625C565.166,-321.804 582.342,-324.045 597.745,-326.054"/>
<polygon fill="midnightblue" stroke="midnightblue" points="548.508,-316.102 538.139,-318.279 547.602,-323.043 548.508,-316.102"/>
</g>
<!-- Node24&#45;&gt;Node5 -->
<g id="edge51" class="edge"><title>Node24&#45;&gt;Node5</title>
<path fill="none" stroke="midnightblue" d="M529.758,-267.691C541.342,-271.278 552.7,-276.479 562,-284 590.128,-306.748 572.199,-331.644 598,-357 601.846,-360.779 606.371,-364.065 611.129,-366.9"/>
<polygon fill="midnightblue" stroke="midnightblue" points="530.583,-264.289 520.015,-265.043 528.746,-271.044 530.583,-264.289"/>
</g>
<!-- Node24&#45;&gt;Node8 -->
<g id="edge52" class="edge"><title>Node24&#45;&gt;Node8</title>
<path fill="none" stroke="midnightblue" d="M529.905,-273.471C540.761,-276.479 551.821,-279.989 562,-284 585.303,-293.182 610.137,-307.254 627.635,-317.966"/>
<polygon fill="midnightblue" stroke="midnightblue" points="530.587,-270.03 520.023,-270.849 528.792,-276.796 530.587,-270.03"/>
</g>
</g>
</svg>
