<?xml version="1.0" encoding="UTF-8" standalone="no"?>
<!DOCTYPE svg PUBLIC "-//W3C//DTD SVG 1.1//EN"
 "http://www.w3.org/Graphics/SVG/1.1/DTD/svg11.dtd">
<!-- Generated by graphviz version 2.30.1 (20150305.2338)
 -->
<!-- Title: CopyDataToComponents Pages: 1 -->
<svg width="676pt" height="101pt"
 viewBox="0.00 0.00 676.00 101.00" xmlns="http://www.w3.org/2000/svg" xmlns:xlink="http://www.w3.org/1999/xlink">
<g id="graph0" class="graph" transform="scale(1 1) rotate(0) translate(4 97)">
<title>CopyDataToComponents</title>
<!-- Node1 -->
<g id="node1" class="node"><title>Node1</title>
<polygon fill="#bfbfbf" stroke="black" points="0,-51.5 0,-70.5 128,-70.5 128,-51.5 0,-51.5"/>
<text text-anchor="middle" x="64" y="-58.5" font-family="Helvetica,sans-Serif" font-size="10.00">CopyDataToComponents</text>
</g>
<!-- Node2 -->
<g id="node2" class="node"><title>Node2</title>
<g id="a_node2"><a xlink:href="classICED_1_1HalfCell_1_1DeviceData.html#abfc95c2242f9ac494780fb529489fd00" target="_top" xlink:title="Compute the device level evaluation function. ">
<polygon fill="none" stroke="black" points="186.5,-73.5 186.5,-92.5 283.5,-92.5 283.5,-73.5 186.5,-73.5"/>
<text text-anchor="middle" x="235" y="-80.5" font-family="Helvetica,sans-Serif" font-size="10.00">DeviceAssembleF</text>
</a>
</g>
</g>
<!-- Node1&#45;&gt;Node2 -->
<g id="edge1" class="edge"><title>Node1&#45;&gt;Node2</title>
<path fill="none" stroke="midnightblue" d="M138.426,-70.5584C154.663,-72.672 171.454,-74.8579 186.347,-76.7966"/>
<polygon fill="midnightblue" stroke="midnightblue" points="138.778,-67.0748 128.41,-69.2546 137.875,-74.0163 138.778,-67.0748"/>
</g>
<!-- Node3 -->
<g id="node3" class="node"><title>Node3</title>
<g id="a_node3"><a xlink:href="classICED_1_1TestingObject.html#a43dbcae20e4ab6f8b30751e9b5e5b2c2" target="_top" xlink:title="Test for ICED::DeviceDataMapping. ">
<polygon fill="none" stroke="black" points="164.5,-24 164.5,-54 305.5,-54 305.5,-24 164.5,-24"/>
<text text-anchor="start" x="172.5" y="-42" font-family="Helvetica,sans-Serif" font-size="10.00">ICED::TestingObject</text>
<text text-anchor="middle" x="235" y="-31" font-family="Helvetica,sans-Serif" font-size="10.00">::Test__DeviceDataMapping</text>
</a>
</g>
</g>
<!-- Node1&#45;&gt;Node3 -->
<g id="edge2" class="edge"><title>Node1&#45;&gt;Node3</title>
<path fill="none" stroke="midnightblue" d="M138.404,-51.4445C146.996,-50.326 155.744,-49.1871 164.285,-48.0754"/>
<polygon fill="midnightblue" stroke="midnightblue" points="137.875,-47.9837 128.41,-52.7454 138.778,-54.9252 137.875,-47.9837"/>
</g>
<!-- Node4 -->
<g id="node4" class="node"><title>Node4</title>
<g id="a_node4"><a xlink:href="classICED_1_1TestingObject.html#a046f7ab06db0acf616b0d2bf3d3146aa" target="_top" xlink:title="Runs all tests implemented by the ICED::TestingObject. ">
<polygon fill="none" stroke="black" points="342,-49 342,-79 450,-79 450,-49 342,-49"/>
<text text-anchor="start" x="350" y="-67" font-family="Helvetica,sans-Serif" font-size="10.00">ICED::TestingObject</text>
<text text-anchor="middle" x="396" y="-56" font-family="Helvetica,sans-Serif" font-size="10.00">::Process</text>
</a>
</g>
</g>
<!-- Node3&#45;&gt;Node4 -->
<g id="edge3" class="edge"><title>Node3&#45;&gt;Node4</title>
<path fill="none" stroke="midnightblue" d="M315.641,-51.5222C324.43,-52.9041 333.217,-54.2856 341.571,-55.5993"/>
<polygon fill="midnightblue" stroke="midnightblue" points="316.162,-48.0612 305.74,-49.9654 315.075,-54.9762 316.162,-48.0612"/>
</g>
<!-- Node7 -->
<g id="node7" class="node"><title>Node7</title>
<g id="a_node7"><a xlink:href="classICED_1_1TestingObject.html#af1f07f14b9af7708e4264bb38937eed2" target="_top" xlink:title="Runs a test specified by name. ">
<polygon fill="none" stroke="black" points="342,-0 342,-30 450,-30 450,-0 342,-0"/>
<text text-anchor="start" x="350" y="-18" font-family="Helvetica,sans-Serif" font-size="10.00">ICED::TestingObject</text>
<text text-anchor="middle" x="396" y="-7" font-family="Helvetica,sans-Serif" font-size="10.00">::RunTest</text>
</a>
</g>
</g>
<!-- Node3&#45;&gt;Node7 -->
<g id="edge6" class="edge"><title>Node3&#45;&gt;Node7</title>
<path fill="none" stroke="midnightblue" d="M315.641,-26.9787C324.43,-25.6521 333.217,-24.3258 341.571,-23.0647"/>
<polygon fill="midnightblue" stroke="midnightblue" points="315.105,-23.5198 305.74,-28.4733 316.15,-30.4414 315.105,-23.5198"/>
</g>
<!-- Node5 -->
<g id="node5" class="node"><title>Node5</title>
<g id="a_node5"><a xlink:href="namespaceICED.html#acf52cefdb153ca8751acb1e183d3a405" target="_top" xlink:title="Drives the ICED::TestObject. ">
<polygon fill="none" stroke="black" points="506.5,-51.5 506.5,-70.5 573.5,-70.5 573.5,-51.5 506.5,-51.5"/>
<text text-anchor="middle" x="540" y="-58.5" font-family="Helvetica,sans-Serif" font-size="10.00">ICED::Test</text>
</a>
</g>
</g>
<!-- Node4&#45;&gt;Node5 -->
<g id="edge4" class="edge"><title>Node4&#45;&gt;Node5</title>
<path fill="none" stroke="midnightblue" d="M460.6,-62.6563C476.467,-62.3211 492.831,-61.9754 506.478,-61.6871"/>
<polygon fill="midnightblue" stroke="midnightblue" points="460.203,-59.1638 450.28,-62.8744 460.351,-66.1623 460.203,-59.1638"/>
</g>
<!-- Node6 -->
<g id="node6" class="node"><title>Node6</title>
<g id="a_node6"><a xlink:href="TestICED_8C.html#a0ddf1224851353fc92bfbff6f499fa97" target="_top" xlink:title="main">
<polygon fill="none" stroke="black" points="630,-51.5 630,-70.5 668,-70.5 668,-51.5 630,-51.5"/>
<text text-anchor="middle" x="649" y="-58.5" font-family="Helvetica,sans-Serif" font-size="10.00">main</text>
</a>
</g>
</g>
<!-- Node5&#45;&gt;Node6 -->
<g id="edge5" class="edge"><title>Node5&#45;&gt;Node6</title>
<path fill="none" stroke="midnightblue" d="M583.939,-61C599.927,-61 617.225,-61 629.811,-61"/>
<polygon fill="midnightblue" stroke="midnightblue" points="583.685,-57.5001 573.685,-61 583.685,-64.5001 583.685,-57.5001"/>
</g>
<!-- Node8 -->
<g id="node8" class="node"><title>Node8</title>
<g id="a_node8"><a xlink:href="classICED_1_1TestingObject.html#a21159bd2efac623e5a5079f6a20f3444" target="_top" xlink:title="Runs a list of tests specified by name. ">
<polygon fill="none" stroke="black" points="486,-0 486,-30 594,-30 594,-0 486,-0"/>
<text text-anchor="start" x="494" y="-18" font-family="Helvetica,sans-Serif" font-size="10.00">ICED::TestingObject</text>
<text text-anchor="middle" x="540" y="-7" font-family="Helvetica,sans-Serif" font-size="10.00">::ProcessTests</text>
</a>
</g>
</g>
<!-- Node7&#45;&gt;Node8 -->
<g id="edge7" class="edge"><title>Node7&#45;&gt;Node8</title>
<path fill="none" stroke="midnightblue" d="M460.517,-15C468.996,-15 477.618,-15 485.894,-15"/>
<polygon fill="midnightblue" stroke="midnightblue" points="460.28,-11.5001 450.28,-15 460.28,-18.5001 460.28,-11.5001"/>
</g>
<!-- Node7&#45;&gt;Node5 -->
<g id="edge8" class="edge"><title>Node7&#45;&gt;Node5</title>
<path fill="none" stroke="midnightblue" d="M453.084,-33.1681C472.316,-39.3981 493.077,-46.1236 509.373,-51.4024"/>
<polygon fill="midnightblue" stroke="midnightblue" points="454.088,-29.8143 443.496,-30.0621 451.931,-36.4736 454.088,-29.8143"/>
</g>
</g>
</svg>
