<?xml version="1.0" encoding="UTF-8" standalone="no"?>
<!DOCTYPE svg PUBLIC "-//W3C//DTD SVG 1.1//EN"
 "http://www.w3.org/Graphics/SVG/1.1/DTD/svg11.dtd">
<!-- Generated by graphviz version 2.30.1 (20150305.2338)
 -->
<!-- Title: Process Pages: 1 -->
<svg width="988pt" height="688pt"
 viewBox="0.00 0.00 988.00 687.73" xmlns="http://www.w3.org/2000/svg" xmlns:xlink="http://www.w3.org/1999/xlink">
<g id="graph0" class="graph" transform="scale(1 1) rotate(0) translate(4 683.733)">
<title>Process</title>
<!-- Node1 -->
<g id="node1" class="node"><title>Node1</title>
<polygon fill="#bfbfbf" stroke="black" points="0.5,-337.233 0.5,-356.233 53.5,-356.233 53.5,-337.233 0.5,-337.233"/>
<text text-anchor="middle" x="27" y="-344.233" font-family="Helvetica,sans-Serif" font-size="10.00">Process</text>
</g>
<!-- Node2 -->
<g id="node2" class="node"><title>Node2</title>
<g id="a_node2"><a xlink:href="classICED_1_1TestingObject_aa25f45634aafbb580d94840ad8452745.html#aa25f45634aafbb580d94840ad8452745" target="_top" xlink:title="Tears down the testing fixtures if needed. ">
<polygon fill="none" stroke="black" points="136,-660.233 136,-679.233 190,-679.233 190,-660.233 136,-660.233"/>
<text text-anchor="middle" x="163" y="-667.233" font-family="Helvetica,sans-Serif" font-size="10.00">Epilogue</text>
</a>
</g>
</g>
<!-- Node1&#45;&gt;Node2 -->
<g id="edge1" class="edge"><title>Node1&#45;&gt;Node2</title>
<path fill="none" stroke="midnightblue" d="M28.6327,-356.456C31.8831,-403.439 48.2008,-606.489 90,-650.733 99.247,-660.521 112.888,-665.49 125.817,-667.94"/>
<polygon fill="midnightblue" stroke="midnightblue" points="125.536,-671.436 135.935,-669.409 126.542,-664.509 125.536,-671.436"/>
</g>
<!-- Node3 -->
<g id="node3" class="node"><title>Node3</title>
<g id="a_node3"><a xlink:href="classICED_1_1TestingObject_aa3cdb6d60e9d9834c19efaab0b044421.html#aa3cdb6d60e9d9834c19efaab0b044421" target="_top" xlink:title="Sets up the data fixtures for the tests. ">
<polygon fill="none" stroke="black" points="135.5,-622.233 135.5,-641.233 190.5,-641.233 190.5,-622.233 135.5,-622.233"/>
<text text-anchor="middle" x="163" y="-629.233" font-family="Helvetica,sans-Serif" font-size="10.00">Prologue</text>
</a>
</g>
</g>
<!-- Node1&#45;&gt;Node3 -->
<g id="edge2" class="edge"><title>Node1&#45;&gt;Node3</title>
<path fill="none" stroke="midnightblue" d="M29.0451,-356.428C33.8213,-399.048 54.8625,-569.339 90,-607.733 99.1249,-617.704 112.497,-623.538 125.248,-626.949"/>
<polygon fill="midnightblue" stroke="midnightblue" points="124.724,-630.418 135.248,-629.198 126.26,-623.589 124.724,-630.418"/>
</g>
<!-- Node4 -->
<g id="node4" class="node"><title>Node4</title>
<g id="a_node4"><a xlink:href="classICED_1_1TestingObject_aea517fa85afb367c872ce72c26a0d643.html#aea517fa85afb367c872ce72c26a0d643" target="_top" xlink:title="Test for ICED::ActivitCoefficient module. ">
<polygon fill="none" stroke="black" points="99.5,-52.2333 99.5,-71.2333 226.5,-71.2333 226.5,-52.2333 99.5,-52.2333"/>
<text text-anchor="middle" x="163" y="-59.2333" font-family="Helvetica,sans-Serif" font-size="10.00">Test__ActivityCoefficient</text>
</a>
</g>
</g>
<!-- Node1&#45;&gt;Node4 -->
<g id="edge3" class="edge"><title>Node1&#45;&gt;Node4</title>
<path fill="none" stroke="midnightblue" d="M28.9295,-337.089C33.2801,-293.913 52.9952,-118.828 90,-80.7333 91.2695,-79.4263 92.6175,-78.2057 94.0315,-77.0659"/>
<polygon fill="midnightblue" stroke="midnightblue" points="96.2919,-79.7708 102.764,-71.3823 92.4734,-73.904 96.2919,-79.7708"/>
</g>
<!-- Node14 -->
<g id="node14" class="node"><title>Node14</title>
<g id="a_node14"><a xlink:href="classICED_1_1TestingObject_a2f898efd73e9aaf601f0733cb31fc340.html#a2f898efd73e9aaf601f0733cb31fc340" target="_top" xlink:title="Test for ICED::ButlerVolmer. ">
<polygon fill="none" stroke="black" points="313.5,-520.233 313.5,-539.233 416.5,-539.233 416.5,-520.233 313.5,-520.233"/>
<text text-anchor="middle" x="365" y="-527.233" font-family="Helvetica,sans-Serif" font-size="10.00">Test__ButlerVolmer</text>
</a>
</g>
</g>
<!-- Node1&#45;&gt;Node14 -->
<g id="edge13" class="edge"><title>Node1&#45;&gt;Node14</title>
<path fill="none" stroke="midnightblue" d="M30.4322,-356.375C36.5012,-378.406 54.4447,-432.689 90,-460.733 107.117,-474.234 232.585,-502.257 307.671,-518.123"/>
<polygon fill="midnightblue" stroke="midnightblue" points="306.959,-521.55 317.465,-520.184 308.401,-514.7 306.959,-521.55"/>
</g>
<!-- Node15 -->
<g id="node15" class="node"><title>Node15</title>
<g id="a_node15"><a xlink:href="classICED_1_1TestingObject_a7bac98c894f8cfff372d495eae083cd5.html#a7bac98c894f8cfff372d495eae083cd5" target="_top" xlink:title="Tests the input file error checking functions using testModule and a generated &quot;bad&quot; input file...">
<polygon fill="none" stroke="black" points="302,-394.233 302,-413.233 428,-413.233 428,-394.233 302,-394.233"/>
<text text-anchor="middle" x="365" y="-401.233" font-family="Helvetica,sans-Serif" font-size="10.00">Test__CheckParamsBad</text>
</a>
</g>
</g>
<!-- Node1&#45;&gt;Node15 -->
<g id="edge15" class="edge"><title>Node1&#45;&gt;Node15</title>
<path fill="none" stroke="midnightblue" d="M51.1966,-356.295C62.6931,-360.69 76.89,-365.608 90,-368.733 157.41,-384.803 236.023,-393.883 291.712,-398.744"/>
<polygon fill="midnightblue" stroke="midnightblue" points="291.576,-402.245 301.836,-399.603 292.168,-395.27 291.576,-402.245"/>
</g>
<!-- Node16 -->
<g id="node16" class="node"><title>Node16</title>
<g id="a_node16"><a xlink:href="classICED_1_1TestingObject_afedc7e682315a3e766d614e09631ab04.html#afedc7e682315a3e766d614e09631ab04" target="_top" xlink:title="Tests the input file error checking functions using testModule and a generated &quot;good&quot; input file...">
<polygon fill="none" stroke="black" points="299,-356.233 299,-375.233 431,-375.233 431,-356.233 299,-356.233"/>
<text text-anchor="middle" x="365" y="-363.233" font-family="Helvetica,sans-Serif" font-size="10.00">Test__CheckParamsGood</text>
</a>
</g>
</g>
<!-- Node1&#45;&gt;Node16 -->
<g id="edge17" class="edge"><title>Node1&#45;&gt;Node16</title>
<path fill="none" stroke="midnightblue" d="M53.5304,-348.177C102.968,-350.973 213.486,-357.222 288.409,-361.459"/>
<polygon fill="midnightblue" stroke="midnightblue" points="288.553,-364.972 298.735,-362.043 288.948,-357.984 288.553,-364.972"/>
</g>
<!-- Node17 -->
<g id="node17" class="node"><title>Node17</title>
<g id="a_node17"><a xlink:href="classICED_1_1TestingObject_a8218a8aab213585d0fba3f2e1aa24b76.html#a8218a8aab213585d0fba3f2e1aa24b76" target="_top" xlink:title="Test for ICED::ComponentBoundaryConditions. ">
<polygon fill="none" stroke="black" points="272.5,-318.233 272.5,-337.233 457.5,-337.233 457.5,-318.233 272.5,-318.233"/>
<text text-anchor="middle" x="365" y="-325.233" font-family="Helvetica,sans-Serif" font-size="10.00">Test__ComponentBoundaryConditions</text>
</a>
</g>
</g>
<!-- Node1&#45;&gt;Node17 -->
<g id="edge19" class="edge"><title>Node1&#45;&gt;Node17</title>
<path fill="none" stroke="midnightblue" d="M53.5304,-345.29C97.4833,-342.804 189.715,-337.589 262.289,-333.485"/>
<polygon fill="midnightblue" stroke="midnightblue" points="262.606,-336.973 272.392,-332.913 262.211,-329.984 262.606,-336.973"/>
</g>
<!-- Node18 -->
<g id="node18" class="node"><title>Node18</title>
<g id="a_node18"><a xlink:href="classICED_1_1TestingObject_a96409144efe94cf3e37a534e524c6e36.html#a96409144efe94cf3e37a534e524c6e36" target="_top" xlink:title="Test for ICED::ConcentrationDiffusion. ">
<polygon fill="none" stroke="black" points="90,-14.2333 90,-33.2333 236,-33.2333 236,-14.2333 90,-14.2333"/>
<text text-anchor="middle" x="163" y="-21.2333" font-family="Helvetica,sans-Serif" font-size="10.00">Test__ConcentrationDiffusion</text>
</a>
</g>
</g>
<!-- Node1&#45;&gt;Node18 -->
<g id="edge21" class="edge"><title>Node1&#45;&gt;Node18</title>
<path fill="none" stroke="midnightblue" d="M28.6327,-337.01C31.8831,-290.028 48.2008,-86.9776 90,-42.7333 91.2513,-41.4088 92.583,-40.1726 93.9825,-39.019"/>
<polygon fill="midnightblue" stroke="midnightblue" points="96.2487,-41.716 102.651,-33.2745 92.3819,-35.8809 96.2487,-41.716"/>
</g>
<!-- Node19 -->
<g id="node19" class="node"><title>Node19</title>
<g id="a_node19"><a xlink:href="classICED_1_1TestingObject_a20a3def5cfb0861690599ae120367987.html#a20a3def5cfb0861690599ae120367987" target="_top" xlink:title="Test for ICED::DeviceData. ">
<polygon fill="none" stroke="black" points="114,-432.233 114,-451.233 212,-451.233 212,-432.233 114,-432.233"/>
<text text-anchor="middle" x="163" y="-439.233" font-family="Helvetica,sans-Serif" font-size="10.00">Test__DeviceData</text>
</a>
</g>
</g>
<!-- Node1&#45;&gt;Node19 -->
<g id="edge24" class="edge"><title>Node1&#45;&gt;Node19</title>
<path fill="none" stroke="midnightblue" d="M34.0063,-356.463C43.8719,-371.668 64.9354,-401.047 90,-417.733 96.5551,-422.097 103.974,-425.732 111.495,-428.739"/>
<polygon fill="midnightblue" stroke="midnightblue" points="110.427,-432.075 121.021,-432.222 112.83,-425.501 110.427,-432.075"/>
</g>
<!-- Node21 -->
<g id="node21" class="node"><title>Node21</title>
<g id="a_node21"><a xlink:href="classICED_1_1TestingObject_a43dbcae20e4ab6f8b30751e9b5e5b2c2.html#a43dbcae20e4ab6f8b30751e9b5e5b2c2" target="_top" xlink:title="Test for ICED::DeviceDataMapping. ">
<polygon fill="none" stroke="black" points="297.5,-634.233 297.5,-653.233 432.5,-653.233 432.5,-634.233 297.5,-634.233"/>
<text text-anchor="middle" x="365" y="-641.233" font-family="Helvetica,sans-Serif" font-size="10.00">Test__DeviceDataMapping</text>
</a>
</g>
</g>
<!-- Node1&#45;&gt;Node21 -->
<g id="edge27" class="edge"><title>Node1&#45;&gt;Node21</title>
<path fill="none" stroke="midnightblue" d="M27.4721,-356.637C26.1696,-391.837 26.7152,-512.134 90,-574.733 137.669,-621.887 171.714,-593.676 236,-612.733 252.17,-617.527 255.713,-620.353 272,-624.733 281.686,-627.338 292.028,-629.788 302.151,-632.007"/>
<polygon fill="midnightblue" stroke="midnightblue" points="301.659,-635.481 312.17,-634.146 303.121,-628.635 301.659,-635.481"/>
</g>
<!-- Node23 -->
<g id="node23" class="node"><title>Node23</title>
<g id="a_node23"><a xlink:href="classICED_1_1TestingObject_a06cf16fc934c4e87f6886a7beb771b0e.html#a06cf16fc934c4e87f6886a7beb771b0e" target="_top" xlink:title="Test for ICED::Diffusion module. ">
<polygon fill="none" stroke="black" points="120,-242.233 120,-261.233 206,-261.233 206,-242.233 120,-242.233"/>
<text text-anchor="middle" x="163" y="-249.233" font-family="Helvetica,sans-Serif" font-size="10.00">Test__Diffusion</text>
</a>
</g>
</g>
<!-- Node1&#45;&gt;Node23 -->
<g id="edge31" class="edge"><title>Node1&#45;&gt;Node23</title>
<path fill="none" stroke="midnightblue" d="M33.103,-337.165C42.2657,-320.93 63.0875,-288.069 90,-270.733 96.127,-266.787 103.047,-263.657 110.114,-261.175"/>
<polygon fill="midnightblue" stroke="midnightblue" points="111.266,-264.483 119.781,-258.178 109.193,-257.797 111.266,-264.483"/>
</g>
<!-- Node24 -->
<g id="node24" class="node"><title>Node24</title>
<g id="a_node24"><a xlink:href="classICED_1_1TestingObject_adcd8b620aa1ea5a579a671ac15b5620b.html#adcd8b620aa1ea5a579a671ac15b5620b" target="_top" xlink:title="Test for ICED::Intercalation. ">
<polygon fill="none" stroke="black" points="113,-546.233 113,-565.233 213,-565.233 213,-546.233 113,-546.233"/>
<text text-anchor="middle" x="163" y="-553.233" font-family="Helvetica,sans-Serif" font-size="10.00">Test__Intercalation</text>
</a>
</g>
</g>
<!-- Node1&#45;&gt;Node24 -->
<g id="edge34" class="edge"><title>Node1&#45;&gt;Node24</title>
<path fill="none" stroke="midnightblue" d="M28.3383,-356.324C29.926,-386.537 38.9402,-480.756 90,-531.733 93.9629,-535.69 98.5944,-538.994 103.563,-541.754"/>
<polygon fill="midnightblue" stroke="midnightblue" points="102.267,-545.013 112.8,-546.156 105.279,-538.694 102.267,-545.013"/>
</g>
<!-- Node26 -->
<g id="node26" class="node"><title>Node26</title>
<g id="a_node26"><a xlink:href="classICED_1_1TestingObject_af46c6cb015fb4151707a8c08084f4525.html#af46c6cb015fb4151707a8c08084f4525" target="_top" xlink:title="Test for ICED::IonMigration module. ">
<polygon fill="none" stroke="black" points="113,-204.233 113,-223.233 213,-223.233 213,-204.233 113,-204.233"/>
<text text-anchor="middle" x="163" y="-211.233" font-family="Helvetica,sans-Serif" font-size="10.00">Test__IonMigration</text>
</a>
</g>
</g>
<!-- Node1&#45;&gt;Node26 -->
<g id="edge37" class="edge"><title>Node1&#45;&gt;Node26</title>
<path fill="none" stroke="midnightblue" d="M30.4225,-337.079C36.4712,-315.023 54.3749,-260.688 90,-232.733 94.0904,-229.523 98.6727,-226.853 103.491,-224.632"/>
<polygon fill="midnightblue" stroke="midnightblue" points="104.962,-227.815 112.982,-220.891 102.395,-221.302 104.962,-227.815"/>
</g>
<!-- Node27 -->
<g id="node27" class="node"><title>Node27</title>
<g id="a_node27"><a xlink:href="classICED_1_1TestingObject_a263e8cc9d4d10cb3b749c8946ebcae72.html#a263e8cc9d4d10cb3b749c8946ebcae72" target="_top" xlink:title="Test for ICED::DeviceComponent. ">
<polygon fill="none" stroke="black" points="310.5,-558.233 310.5,-577.233 419.5,-577.233 419.5,-558.233 310.5,-558.233"/>
<text text-anchor="middle" x="365" y="-565.233" font-family="Helvetica,sans-Serif" font-size="10.00">Test__ModulePriority</text>
</a>
</g>
</g>
<!-- Node1&#45;&gt;Node27 -->
<g id="edge40" class="edge"><title>Node1&#45;&gt;Node27</title>
<path fill="none" stroke="midnightblue" d="M29.1216,-356.407C32.7143,-382.876 46.384,-457.082 90,-495.733 140.442,-540.434 171.567,-516.96 236,-536.733 252.123,-541.681 255.713,-544.353 272,-548.733 281.686,-551.338 292.028,-553.788 302.151,-556.007"/>
<polygon fill="midnightblue" stroke="midnightblue" points="301.659,-559.481 312.17,-558.146 303.121,-552.635 301.659,-559.481"/>
</g>
<!-- Node28 -->
<g id="node28" class="node"><title>Node28</title>
<g id="a_node28"><a xlink:href="classICED_1_1TestingObject_a4f825a89973b92c36e2fe2cbe6a653a0.html#a4f825a89973b92c36e2fe2cbe6a653a0" target="_top" xlink:title="Test for ICED::OhmsLawElectrolyte. ">
<polygon fill="none" stroke="black" points="94.5,-166.233 94.5,-185.233 231.5,-185.233 231.5,-166.233 94.5,-166.233"/>
<text text-anchor="middle" x="163" y="-173.233" font-family="Helvetica,sans-Serif" font-size="10.00">Test__OhmsLawElectrolyte</text>
</a>
</g>
</g>
<!-- Node1&#45;&gt;Node28 -->
<g id="edge42" class="edge"><title>Node1&#45;&gt;Node28</title>
<path fill="none" stroke="midnightblue" d="M28.9768,-337.219C32.2437,-310.478 45.2488,-234.043 90,-194.733 91.7756,-193.174 93.6648,-191.74 95.6423,-190.422"/>
<polygon fill="midnightblue" stroke="midnightblue" points="97.745,-193.258 104.8,-185.354 94.3555,-187.134 97.745,-193.258"/>
</g>
<!-- Node29 -->
<g id="node29" class="node"><title>Node29</title>
<g id="a_node29"><a xlink:href="classICED_1_1TestingObject_ab656a16700e242a40e0b21d7693a6ae0.html#ab656a16700e242a40e0b21d7693a6ae0" target="_top" xlink:title="Test for ICED::OhmsLawSolid. ">
<polygon fill="none" stroke="black" points="106.5,-128.233 106.5,-147.233 219.5,-147.233 219.5,-128.233 106.5,-128.233"/>
<text text-anchor="middle" x="163" y="-135.233" font-family="Helvetica,sans-Serif" font-size="10.00">Test__OhmsLawSolid</text>
</a>
</g>
</g>
<!-- Node1&#45;&gt;Node29 -->
<g id="edge45" class="edge"><title>Node1&#45;&gt;Node29</title>
<path fill="none" stroke="midnightblue" d="M28.0992,-337.185C28.9593,-306.23 36.0094,-207.71 90,-156.733 92.2766,-154.584 94.7668,-152.671 97.4099,-150.969"/>
<polygon fill="midnightblue" stroke="midnightblue" points="99.1258,-154.021 106.297,-146.222 95.8275,-147.847 99.1258,-154.021"/>
</g>
<!-- Node30 -->
<g id="node30" class="node"><title>Node30</title>
<g id="a_node30"><a xlink:href="classICED_1_1TestingObject_aacdc6512e5ce8094c62997f4d1f02634.html#aacdc6512e5ce8094c62997f4d1f02634" target="_top" xlink:title="Test for ICED::TransferenceNumber. ">
<polygon fill="none" stroke="black" points="94,-90.2333 94,-109.233 232,-109.233 232,-90.2333 94,-90.2333"/>
<text text-anchor="middle" x="163" y="-97.2333" font-family="Helvetica,sans-Serif" font-size="10.00">Test__TransferenceNumber</text>
</a>
</g>
</g>
<!-- Node1&#45;&gt;Node30 -->
<g id="edge48" class="edge"><title>Node1&#45;&gt;Node30</title>
<path fill="none" stroke="midnightblue" d="M27.4795,-336.837C26.2019,-301.662 26.8212,-181.44 90,-118.733 91.4452,-117.299 92.985,-115.969 94.6025,-114.736"/>
<polygon fill="midnightblue" stroke="midnightblue" points="96.6177,-117.605 103.257,-109.348 92.918,-111.662 96.6177,-117.605"/>
</g>
<!-- Node31 -->
<g id="node31" class="node"><title>Node31</title>
<g id="a_node31"><a xlink:href="classICED_1_1TestingObject_a9bbc638a5bd612413bdd4c03b6c66d0c.html#a9bbc638a5bd612413bdd4c03b6c66d0c" target="_top" xlink:title="Test for ICED::wallFlux. ">
<polygon fill="none" stroke="black" points="120.5,-280.233 120.5,-299.233 205.5,-299.233 205.5,-280.233 120.5,-280.233"/>
<text text-anchor="middle" x="163" y="-287.233" font-family="Helvetica,sans-Serif" font-size="10.00">Test__WallFlux</text>
</a>
</g>
</g>
<!-- Node1&#45;&gt;Node31 -->
<g id="edge51" class="edge"><title>Node1&#45;&gt;Node31</title>
<path fill="none" stroke="midnightblue" d="M44.2098,-337.14C56.5088,-330.102 73.9767,-320.611 90,-313.733 99.535,-309.641 110.017,-305.795 119.961,-302.431"/>
<polygon fill="midnightblue" stroke="midnightblue" points="121.265,-305.687 129.671,-299.237 119.078,-299.037 121.265,-305.687"/>
</g>
<!-- Node5 -->
<g id="node5" class="node"><title>Node5</title>
<g id="a_node5"><a xlink:href="classICED_1_1HalfCell_1_1DeviceData_ac62391584f55efe6bd7916ebf7d2e92b.html#ac62391584f55efe6bd7916ebf7d2e92b" target="_top" xlink:title="Initialization of the entire device data structure. ">
<polygon fill="none" stroke="black" points="494,-312.733 494,-342.733 634,-342.733 634,-312.733 494,-312.733"/>
<text text-anchor="start" x="502" y="-330.733" font-family="Helvetica,sans-Serif" font-size="10.00">ICED::HalfCell::DeviceData</text>
<text text-anchor="middle" x="564" y="-319.733" font-family="Helvetica,sans-Serif" font-size="10.00">::BuildDevice</text>
</a>
</g>
</g>
<!-- Node4&#45;&gt;Node5 -->
<g id="edge4" class="edge"><title>Node4&#45;&gt;Node5</title>
<path fill="none" stroke="midnightblue" d="M206.774,-52.2071C268.434,-41.062 383.096,-30.309 458,-83.7333 531.63,-136.249 554.069,-251.494 560.538,-302.542"/>
<polygon fill="midnightblue" stroke="midnightblue" points="557.087,-303.163 561.718,-312.692 564.04,-302.354 557.087,-303.163"/>
</g>
<!-- Node13 -->
<g id="node13" class="node"><title>Node13</title>
<g id="a_node13"><a xlink:href="classICED_1_1TestingObject_a01777cfc8b6084a272d3aec03e253b7c.html#a01777cfc8b6084a272d3aec03e253b7c" target="_top" xlink:title="Initializes the test solution data. ">
<polygon fill="none" stroke="black" points="298,-128.233 298,-147.233 432,-147.233 432,-128.233 298,-128.233"/>
<text text-anchor="middle" x="365" y="-135.233" font-family="Helvetica,sans-Serif" font-size="10.00">GenerateParabolicFunction</text>
</a>
</g>
</g>
<!-- Node4&#45;&gt;Node13 -->
<g id="edge12" class="edge"><title>Node4&#45;&gt;Node13</title>
<path fill="none" stroke="midnightblue" d="M204.712,-71.2554C215.02,-73.9988 226.001,-77.2132 236,-80.7333 271.199,-93.1243 310.175,-111.132 335.763,-123.577"/>
<polygon fill="midnightblue" stroke="midnightblue" points="334.359,-126.786 344.878,-128.05 337.443,-120.502 334.359,-126.786"/>
</g>
<!-- Node6 -->
<g id="node6" class="node"><title>Node6</title>
<g id="a_node6"><a xlink:href="classICED_1_1HalfCell_1_1SolutionData_a16b07d4b06e74431a0783cbd6dd6e731.html#a16b07d4b06e74431a0783cbd6dd6e731" target="_top" xlink:title="Initialization of the input data from input file. ">
<polygon fill="none" stroke="black" points="683,-312.733 683,-342.733 807,-342.733 807,-312.733 683,-312.733"/>
<text text-anchor="start" x="691" y="-330.733" font-family="Helvetica,sans-Serif" font-size="10.00">ICED::HalfCell::Solution</text>
<text text-anchor="middle" x="745" y="-319.733" font-family="Helvetica,sans-Serif" font-size="10.00">Data::SetData</text>
</a>
</g>
</g>
<!-- Node5&#45;&gt;Node6 -->
<g id="edge5" class="edge"><title>Node5&#45;&gt;Node6</title>
<path fill="none" stroke="midnightblue" d="M634.206,-327.733C646.859,-327.733 660.084,-327.733 672.794,-327.733"/>
<polygon fill="midnightblue" stroke="midnightblue" points="672.857,-331.233 682.857,-327.733 672.857,-324.233 672.857,-331.233"/>
</g>
<!-- Node7 -->
<g id="node7" class="node"><title>Node7</title>
<g id="a_node7"><a xlink:href="classICED_1_1HalfCell_1_1DeviceData_a16b07d4b06e74431a0783cbd6dd6e731.html#a16b07d4b06e74431a0783cbd6dd6e731" target="_top" xlink:title="Initialization of the input data from a parameter list. ">
<polygon fill="none" stroke="black" points="675,-263.733 675,-293.733 815,-293.733 815,-263.733 675,-263.733"/>
<text text-anchor="start" x="683" y="-281.733" font-family="Helvetica,sans-Serif" font-size="10.00">ICED::HalfCell::DeviceData</text>
<text text-anchor="middle" x="745" y="-270.733" font-family="Helvetica,sans-Serif" font-size="10.00">::SetData</text>
</a>
</g>
</g>
<!-- Node5&#45;&gt;Node7 -->
<g id="edge6" class="edge"><title>Node5&#45;&gt;Node7</title>
<path fill="none" stroke="midnightblue" d="M620.166,-312.632C638.884,-307.508 659.963,-301.738 679.353,-296.43"/>
<polygon fill="midnightblue" stroke="midnightblue" points="680.295,-299.801 689.016,-293.785 678.446,-293.049 680.295,-299.801"/>
</g>
<!-- Node8 -->
<g id="node8" class="node"><title>Node8</title>
<g id="a_node8"><a xlink:href="classICED_1_1HalfCell_1_1DeviceData_a9dce6b5d6a4272a04fb399b6b7723c96.html#a9dce6b5d6a4272a04fb399b6b7723c96" target="_top" xlink:title="Initialization of the components from a parameter list. ">
<polygon fill="none" stroke="black" points="675,-214.733 675,-244.733 815,-244.733 815,-214.733 675,-214.733"/>
<text text-anchor="start" x="683" y="-232.733" font-family="Helvetica,sans-Serif" font-size="10.00">ICED::HalfCell::DeviceData</text>
<text text-anchor="middle" x="745" y="-221.733" font-family="Helvetica,sans-Serif" font-size="10.00">::LoadComponents</text>
</a>
</g>
</g>
<!-- Node5&#45;&gt;Node8 -->
<g id="edge7" class="edge"><title>Node5&#45;&gt;Node8</title>
<path fill="none" stroke="midnightblue" d="M582.895,-312.569C602.983,-296.177 637.089,-270.193 670,-253.733 673.737,-251.864 677.652,-250.096 681.646,-248.433"/>
<polygon fill="midnightblue" stroke="midnightblue" points="683.033,-251.648 691.066,-244.741 680.479,-245.131 683.033,-251.648"/>
</g>
<!-- Node9 -->
<g id="node9" class="node"><title>Node9</title>
<g id="a_node9"><a xlink:href="classICED_1_1HalfCell_1_1DeviceData_abea9dd513340105152db94ed9f24211a.html#abea9dd513340105152db94ed9f24211a" target="_top" xlink:title="Setup of the global device data structure. ">
<polygon fill="none" stroke="black" points="675,-410.733 675,-440.733 815,-440.733 815,-410.733 675,-410.733"/>
<text text-anchor="start" x="683" y="-428.733" font-family="Helvetica,sans-Serif" font-size="10.00">ICED::HalfCell::DeviceData</text>
<text text-anchor="middle" x="745" y="-417.733" font-family="Helvetica,sans-Serif" font-size="10.00">::SetupGlobalData</text>
</a>
</g>
</g>
<!-- Node5&#45;&gt;Node9 -->
<g id="edge8" class="edge"><title>Node5&#45;&gt;Node9</title>
<path fill="none" stroke="midnightblue" d="M583.336,-342.894C603.536,-359 637.482,-384.352 670,-400.733 674.314,-402.907 678.861,-404.959 683.492,-406.883"/>
<polygon fill="midnightblue" stroke="midnightblue" points="682.48,-410.246 693.068,-410.647 685.041,-403.731 682.48,-410.246"/>
</g>
<!-- Node11 -->
<g id="node11" class="node"><title>Node11</title>
<g id="a_node11"><a xlink:href="classICED_1_1HalfCell_1_1DeviceData_a9e170c875ec6749900cb89bfb977379a.html#a9e170c875ec6749900cb89bfb977379a" target="_top" xlink:title="Copy device data from the component level. ">
<polygon fill="none" stroke="black" points="672.5,-490.733 672.5,-520.733 817.5,-520.733 817.5,-490.733 672.5,-490.733"/>
<text text-anchor="start" x="680.5" y="-508.733" font-family="Helvetica,sans-Serif" font-size="10.00">ICED::HalfCell::DeviceData</text>
<text text-anchor="middle" x="745" y="-497.733" font-family="Helvetica,sans-Serif" font-size="10.00">::CopyDataFromComponents</text>
</a>
</g>
</g>
<!-- Node5&#45;&gt;Node11 -->
<g id="edge10" class="edge"><title>Node5&#45;&gt;Node11</title>
<path fill="none" stroke="midnightblue" d="M576.35,-342.903C594.673,-366.909 632.517,-414.535 670,-449.733 683.422,-462.337 699.607,-474.848 713.414,-484.837"/>
<polygon fill="midnightblue" stroke="midnightblue" points="711.482,-487.758 721.658,-490.709 715.543,-482.056 711.482,-487.758"/>
</g>
<!-- Node12 -->
<g id="node12" class="node"><title>Node12</title>
<g id="a_node12"><a xlink:href="classICED_1_1HalfCell_1_1DeviceData_af4d13d54a16ba494be74358656df1381.html#af4d13d54a16ba494be74358656df1381" target="_top" xlink:title="Copy device data to global storage for the non&#45;linear solver. ">
<polygon fill="none" stroke="black" points="670.5,-361.733 670.5,-391.733 819.5,-391.733 819.5,-361.733 670.5,-361.733"/>
<text text-anchor="start" x="678.5" y="-379.733" font-family="Helvetica,sans-Serif" font-size="10.00">ICED::HalfCell::DeviceData</text>
<text text-anchor="middle" x="745" y="-368.733" font-family="Helvetica,sans-Serif" font-size="10.00">::CopyDeviceToGlobalStorage</text>
</a>
</g>
</g>
<!-- Node5&#45;&gt;Node12 -->
<g id="edge11" class="edge"><title>Node5&#45;&gt;Node12</title>
<path fill="none" stroke="midnightblue" d="M620.166,-342.835C638.884,-347.959 659.963,-353.729 679.353,-359.036"/>
<polygon fill="midnightblue" stroke="midnightblue" points="678.446,-362.417 689.016,-361.682 680.295,-355.666 678.446,-362.417"/>
</g>
<!-- Node10 -->
<g id="node10" class="node"><title>Node10</title>
<g id="a_node10"><a xlink:href="classICED_1_1HalfCell_1_1SolutionData_a80aaf93c79fb804885351b17786981e4.html#a80aaf93c79fb804885351b17786981e4" target="_top" xlink:title="Setup of the trilinosdata structure. ">
<polygon fill="none" stroke="black" points="856,-410.733 856,-440.733 980,-440.733 980,-410.733 856,-410.733"/>
<text text-anchor="start" x="864" y="-428.733" font-family="Helvetica,sans-Serif" font-size="10.00">ICED::HalfCell::Solution</text>
<text text-anchor="middle" x="918" y="-417.733" font-family="Helvetica,sans-Serif" font-size="10.00">Data::BuildSolutionData</text>
</a>
</g>
</g>
<!-- Node9&#45;&gt;Node10 -->
<g id="edge9" class="edge"><title>Node9&#45;&gt;Node10</title>
<path fill="none" stroke="midnightblue" d="M815.059,-425.733C825.209,-425.733 835.68,-425.733 845.871,-425.733"/>
<polygon fill="midnightblue" stroke="midnightblue" points="845.946,-429.233 855.946,-425.733 845.946,-422.233 845.946,-429.233"/>
</g>
<!-- Node14&#45;&gt;Node5 -->
<g id="edge14" class="edge"><title>Node14&#45;&gt;Node5</title>
<path fill="none" stroke="midnightblue" d="M416.897,-526.355C431.222,-523.457 446.12,-518.409 458,-509.733 512.625,-469.839 543.206,-392.25 555.915,-352.505"/>
<polygon fill="midnightblue" stroke="midnightblue" points="559.302,-353.397 558.898,-342.81 552.612,-351.338 559.302,-353.397"/>
</g>
<!-- Node15&#45;&gt;Node5 -->
<g id="edge16" class="edge"><title>Node15&#45;&gt;Node5</title>
<path fill="none" stroke="midnightblue" d="M425.123,-394.204C436.21,-391.667 447.584,-388.541 458,-384.733 483.678,-375.345 510.75,-360.513 530.973,-348.333"/>
<polygon fill="midnightblue" stroke="midnightblue" points="533.056,-351.161 539.753,-342.952 529.398,-345.193 533.056,-351.161"/>
</g>
<!-- Node16&#45;&gt;Node5 -->
<g id="edge18" class="edge"><title>Node16&#45;&gt;Node5</title>
<path fill="none" stroke="midnightblue" d="M415.457,-356.193C436.108,-352.21 460.62,-347.482 483.674,-343.035"/>
<polygon fill="midnightblue" stroke="midnightblue" points="484.64,-346.413 493.796,-341.082 483.314,-339.54 484.64,-346.413"/>
</g>
<!-- Node17&#45;&gt;Node5 -->
<g id="edge20" class="edge"><title>Node17&#45;&gt;Node5</title>
<path fill="none" stroke="midnightblue" d="M457.579,-327.733C466.223,-327.733 474.938,-327.733 483.456,-327.733"/>
<polygon fill="midnightblue" stroke="midnightblue" points="483.731,-331.233 493.731,-327.733 483.731,-324.233 483.731,-331.233"/>
</g>
<!-- Node18&#45;&gt;Node5 -->
<g id="edge22" class="edge"><title>Node18&#45;&gt;Node5</title>
<path fill="none" stroke="midnightblue" d="M199.824,-14.1896C259.727,-0.515191 381.202,17.1817 458,-39.7333 543.961,-103.439 559.665,-244.705 562.445,-302.422"/>
<polygon fill="midnightblue" stroke="midnightblue" points="558.951,-302.64 562.837,-312.497 565.946,-302.368 558.951,-302.64"/>
</g>
<!-- Node18&#45;&gt;Node13 -->
<g id="edge23" class="edge"><title>Node18&#45;&gt;Node13</title>
<path fill="none" stroke="midnightblue" d="M210.641,-33.2596C219.284,-35.7969 228.077,-38.9234 236,-42.7333 279.504,-63.6539 323.15,-100.171 346.547,-121.318"/>
<polygon fill="midnightblue" stroke="midnightblue" points="344.21,-123.924 353.945,-128.106 348.943,-118.766 344.21,-123.924"/>
</g>
<!-- Node19&#45;&gt;Node5 -->
<g id="edge25" class="edge"><title>Node19&#45;&gt;Node5</title>
<path fill="none" stroke="midnightblue" d="M212.016,-448.004C272.107,-453.792 376.969,-456.991 458,-422.733 494.5,-407.302 526.667,-373.635 545.485,-350.818"/>
<polygon fill="midnightblue" stroke="midnightblue" points="548.265,-352.945 551.797,-342.956 542.807,-348.562 548.265,-352.945"/>
</g>
<!-- Node20 -->
<g id="node20" class="node"><title>Node20</title>
<g id="a_node20"><a xlink:href="classICED_1_1HalfCell_1_1DeviceData_a3fe7f3b792b8be799a077bf9efe05d0c.html#a3fe7f3b792b8be799a077bf9efe05d0c" target="_top" xlink:title="Initialization of the component parameter objects. ">
<polygon fill="none" stroke="black" points="280,-470.733 280,-500.733 450,-500.733 450,-470.733 280,-470.733"/>
<text text-anchor="start" x="288" y="-488.733" font-family="Helvetica,sans-Serif" font-size="10.00">ICED::HalfCell::DeviceData</text>
<text text-anchor="middle" x="365" y="-477.733" font-family="Helvetica,sans-Serif" font-size="10.00">::GetDeviceComponentParameters</text>
</a>
</g>
</g>
<!-- Node19&#45;&gt;Node20 -->
<g id="edge26" class="edge"><title>Node19&#45;&gt;Node20</title>
<path fill="none" stroke="midnightblue" d="M207.397,-451.281C230.216,-456.301 258.899,-462.611 285.461,-468.455"/>
<polygon fill="midnightblue" stroke="midnightblue" points="285.003,-471.937 295.521,-470.668 286.507,-465.101 285.003,-471.937"/>
</g>
<!-- Node21&#45;&gt;Node5 -->
<g id="edge28" class="edge"><title>Node21&#45;&gt;Node5</title>
<path fill="none" stroke="midnightblue" d="M432.71,-638.533C441.953,-635.478 450.749,-631.059 458,-624.733 479.467,-606.007 535.543,-421.029 555.673,-352.822"/>
<polygon fill="midnightblue" stroke="midnightblue" points="559.121,-353.502 558.584,-342.921 552.405,-351.528 559.121,-353.502"/>
</g>
<!-- Node21&#45;&gt;Node11 -->
<g id="edge29" class="edge"><title>Node21&#45;&gt;Node11</title>
<path fill="none" stroke="midnightblue" d="M420.921,-634.177C433.234,-631.542 446.155,-628.384 458,-624.733 548.42,-596.864 649.64,-551.096 704.108,-525.194"/>
<polygon fill="midnightblue" stroke="midnightblue" points="705.888,-528.222 713.401,-520.751 702.869,-521.907 705.888,-528.222"/>
</g>
<!-- Node22 -->
<g id="node22" class="node"><title>Node22</title>
<g id="a_node22"><a xlink:href="classICED_1_1HalfCell_1_1DeviceData_a4c576785732499156ac44948922e6fca.html#a4c576785732499156ac44948922e6fca" target="_top" xlink:title="Copy device data to the component level. ">
<polygon fill="none" stroke="black" points="494,-628.733 494,-658.733 634,-658.733 634,-628.733 494,-628.733"/>
<text text-anchor="start" x="502" y="-646.733" font-family="Helvetica,sans-Serif" font-size="10.00">ICED::HalfCell::DeviceData</text>
<text text-anchor="middle" x="564" y="-635.733" font-family="Helvetica,sans-Serif" font-size="10.00">::CopyDataToComponents</text>
</a>
</g>
</g>
<!-- Node21&#45;&gt;Node22 -->
<g id="edge30" class="edge"><title>Node21&#45;&gt;Node22</title>
<path fill="none" stroke="midnightblue" d="M432.695,-643.733C448.964,-643.733 466.53,-643.733 483.336,-643.733"/>
<polygon fill="midnightblue" stroke="midnightblue" points="483.684,-647.233 493.684,-643.733 483.684,-640.233 483.684,-647.233"/>
</g>
<!-- Node23&#45;&gt;Node5 -->
<g id="edge32" class="edge"><title>Node23&#45;&gt;Node5</title>
<path fill="none" stroke="midnightblue" d="M206.371,-254.588C263.963,-259.093 369.878,-269.603 458,-290.733 477.506,-295.41 498.453,-302.376 516.467,-309.006"/>
<polygon fill="midnightblue" stroke="midnightblue" points="515.553,-312.402 526.145,-312.638 518.012,-305.848 515.553,-312.402"/>
</g>
<!-- Node23&#45;&gt;Node13 -->
<g id="edge33" class="edge"><title>Node23&#45;&gt;Node13</title>
<path fill="none" stroke="midnightblue" d="M206.084,-243.496C216.153,-240.752 226.679,-237.215 236,-232.733 279.504,-211.813 323.15,-175.295 346.547,-154.149"/>
<polygon fill="midnightblue" stroke="midnightblue" points="348.943,-156.701 353.945,-147.361 344.21,-151.543 348.943,-156.701"/>
</g>
<!-- Node25 -->
<g id="node25" class="node"><title>Node25</title>
<g id="a_node25"><a xlink:href="classICED_1_1TestingObject_a7995a39337d2ec045b02982b1b346b28.html#a7995a39337d2ec045b02982b1b346b28" target="_top" xlink:title="Function called by Test__Intercalation. ">
<polygon fill="none" stroke="black" points="305.5,-596.233 305.5,-615.233 424.5,-615.233 424.5,-596.233 305.5,-596.233"/>
<text text-anchor="middle" x="365" y="-603.233" font-family="Helvetica,sans-Serif" font-size="10.00">RunIntercalationModule</text>
</a>
</g>
</g>
<!-- Node24&#45;&gt;Node25 -->
<g id="edge35" class="edge"><title>Node24&#45;&gt;Node25</title>
<path fill="none" stroke="midnightblue" d="M195.025,-565.315C216.52,-571.788 245.862,-580.293 272,-586.733 282.427,-589.302 293.576,-591.807 304.386,-594.11"/>
<polygon fill="midnightblue" stroke="midnightblue" points="303.683,-597.539 314.189,-596.165 305.119,-590.688 303.683,-597.539"/>
</g>
<!-- Node25&#45;&gt;Node5 -->
<g id="edge36" class="edge"><title>Node25&#45;&gt;Node5</title>
<path fill="none" stroke="midnightblue" d="M424.844,-602.412C436.815,-599.436 448.602,-594.563 458,-586.733 531.431,-525.552 554.025,-405.171 560.54,-352.923"/>
<polygon fill="midnightblue" stroke="midnightblue" points="564.032,-353.188 561.698,-342.854 557.078,-352.388 564.032,-353.188"/>
</g>
<!-- Node26&#45;&gt;Node5 -->
<g id="edge38" class="edge"><title>Node26&#45;&gt;Node5</title>
<path fill="none" stroke="midnightblue" d="M213.006,-214.578C272.752,-217.055 375.905,-226.054 458,-257.733 487.821,-269.241 517.756,-290.368 537.988,-306.412"/>
<polygon fill="midnightblue" stroke="midnightblue" points="535.799,-309.143 545.773,-312.716 540.204,-303.703 535.799,-309.143"/>
</g>
<!-- Node26&#45;&gt;Node13 -->
<g id="edge39" class="edge"><title>Node26&#45;&gt;Node13</title>
<path fill="none" stroke="midnightblue" d="M204.712,-204.211C215.02,-201.468 226.001,-198.253 236,-194.733 271.199,-182.342 310.175,-164.334 335.763,-151.89"/>
<polygon fill="midnightblue" stroke="midnightblue" points="337.443,-154.964 344.878,-147.416 334.359,-148.68 337.443,-154.964"/>
</g>
<!-- Node27&#45;&gt;Node5 -->
<g id="edge41" class="edge"><title>Node27&#45;&gt;Node5</title>
<path fill="none" stroke="midnightblue" d="M419.711,-565.083C433.289,-562.262 447.095,-557.292 458,-548.733 522.17,-498.367 549.152,-399.201 558.629,-352.793"/>
<polygon fill="midnightblue" stroke="midnightblue" points="562.069,-353.44 560.534,-342.957 555.197,-352.109 562.069,-353.44"/>
</g>
<!-- Node28&#45;&gt;Node5 -->
<g id="edge43" class="edge"><title>Node28&#45;&gt;Node5</title>
<path fill="none" stroke="midnightblue" d="M231.745,-172.401C293.937,-172.154 386.934,-179.057 458,-215.733 497.619,-236.18 530.294,-277.726 548.183,-304.068"/>
<polygon fill="midnightblue" stroke="midnightblue" points="545.448,-306.278 553.881,-312.692 551.288,-302.419 545.448,-306.278"/>
</g>
<!-- Node28&#45;&gt;Node13 -->
<g id="edge44" class="edge"><title>Node28&#45;&gt;Node13</title>
<path fill="none" stroke="midnightblue" d="M214.21,-166.193C241.433,-161.021 275.264,-154.593 303.883,-149.156"/>
<polygon fill="midnightblue" stroke="midnightblue" points="304.598,-152.582 313.769,-147.277 303.291,-145.705 304.598,-152.582"/>
</g>
<!-- Node29&#45;&gt;Node5 -->
<g id="edge46" class="edge"><title>Node29&#45;&gt;Node5</title>
<path fill="none" stroke="midnightblue" d="M211.182,-128.208C283.59,-114.655 417.948,-94.0326 458,-118.733 524.234,-159.581 550.144,-256.391 558.986,-302.489"/>
<polygon fill="midnightblue" stroke="midnightblue" points="555.58,-303.321 560.795,-312.543 562.469,-302.081 555.58,-303.321"/>
</g>
<!-- Node29&#45;&gt;Node13 -->
<g id="edge47" class="edge"><title>Node29&#45;&gt;Node13</title>
<path fill="none" stroke="midnightblue" d="M219.711,-137.733C240.76,-137.733 265.089,-137.733 287.703,-137.733"/>
<polygon fill="midnightblue" stroke="midnightblue" points="287.954,-141.233 297.954,-137.733 287.954,-134.233 287.954,-141.233"/>
</g>
<!-- Node30&#45;&gt;Node5 -->
<g id="edge49" class="edge"><title>Node30&#45;&gt;Node5</title>
<path fill="none" stroke="midnightblue" d="M232.236,-92.5264C307.3,-85.9947 422.078,-80.5542 458,-103.733 527.954,-148.872 552.171,-254.08 559.808,-302.511"/>
<polygon fill="midnightblue" stroke="midnightblue" points="556.355,-303.088 561.268,-312.474 563.281,-302.072 556.355,-303.088"/>
</g>
<!-- Node30&#45;&gt;Node13 -->
<g id="edge50" class="edge"><title>Node30&#45;&gt;Node13</title>
<path fill="none" stroke="midnightblue" d="M214.21,-109.273C241.433,-114.445 275.264,-120.873 303.883,-126.311"/>
<polygon fill="midnightblue" stroke="midnightblue" points="303.291,-129.761 313.769,-128.189 304.598,-122.884 303.291,-129.761"/>
</g>
<!-- Node31&#45;&gt;Node5 -->
<g id="edge52" class="edge"><title>Node31&#45;&gt;Node5</title>
<path fill="none" stroke="midnightblue" d="M205.524,-290.919C262.593,-292.891 368.392,-297.767 458,-308.733 466.484,-309.771 475.32,-311.053 484.106,-312.455"/>
<polygon fill="midnightblue" stroke="midnightblue" points="483.547,-315.91 493.983,-314.084 484.686,-309.004 483.547,-315.91"/>
</g>
<!-- Node31&#45;&gt;Node13 -->
<g id="edge53" class="edge"><title>Node31&#45;&gt;Node13</title>
<path fill="none" stroke="midnightblue" d="M205.528,-282.878C215.928,-280.078 226.749,-276.17 236,-270.733 287.109,-240.7 331.189,-184.627 351.713,-155.827"/>
<polygon fill="midnightblue" stroke="midnightblue" points="354.67,-157.705 357.528,-147.503 348.932,-153.697 354.67,-157.705"/>
</g>
</g>
</svg>
