<?xml version="1.0" encoding="UTF-8" standalone="no"?>
<!DOCTYPE svg PUBLIC "-//W3C//DTD SVG 1.1//EN"
 "http://www.w3.org/Graphics/SVG/1.1/DTD/svg11.dtd">
<!-- Generated by graphviz version 2.30.1 (20150305.2338)
 -->
<!-- Title: Test__IonMigration Pages: 1 -->
<svg width="386pt" height="66pt"
 viewBox="0.00 0.00 386.00 66.00" xmlns="http://www.w3.org/2000/svg" xmlns:xlink="http://www.w3.org/1999/xlink">
<g id="graph0" class="graph" transform="scale(1 1) rotate(0) translate(4 62)">
<title>Test__IonMigration</title>
<!-- Node1 -->
<g id="node1" class="node"><title>Node1</title>
<polygon fill="#bfbfbf" stroke="black" points="0,-19.5 0,-38.5 100,-38.5 100,-19.5 0,-19.5"/>
<text text-anchor="middle" x="50" y="-26.5" font-family="Helvetica,sans-Serif" font-size="10.00">Test__IonMigration</text>
</g>
<!-- Node2 -->
<g id="node2" class="node"><title>Node2</title>
<g id="a_node2"><a xlink:href="classICED_1_1TestingObject.html#a046f7ab06db0acf616b0d2bf3d3146aa" target="_top" xlink:title="Runs all tests implemented by the ICED::TestingObject. ">
<polygon fill="none" stroke="black" points="136.5,-38.5 136.5,-57.5 189.5,-57.5 189.5,-38.5 136.5,-38.5"/>
<text text-anchor="middle" x="163" y="-45.5" font-family="Helvetica,sans-Serif" font-size="10.00">Process</text>
</a>
</g>
</g>
<!-- Node1&#45;&gt;Node2 -->
<g id="edge1" class="edge"><title>Node1&#45;&gt;Node2</title>
<path fill="none" stroke="midnightblue" d="M110.052,-39.108C119.304,-40.6917 128.424,-42.2527 136.378,-43.6142"/>
<polygon fill="midnightblue" stroke="midnightblue" points="110.457,-35.6264 100.009,-37.389 109.275,-42.5261 110.457,-35.6264"/>
</g>
<!-- Node5 -->
<g id="node5" class="node"><title>Node5</title>
<g id="a_node5"><a xlink:href="classICED_1_1TestingObject.html#af1f07f14b9af7708e4264bb38937eed2" target="_top" xlink:title="Runs a test specified by name. ">
<polygon fill="none" stroke="black" points="136,-0.5 136,-19.5 190,-19.5 190,-0.5 136,-0.5"/>
<text text-anchor="middle" x="163" y="-7.5" font-family="Helvetica,sans-Serif" font-size="10.00">RunTest</text>
</a>
</g>
</g>
<!-- Node1&#45;&gt;Node5 -->
<g id="edge4" class="edge"><title>Node1&#45;&gt;Node5</title>
<path fill="none" stroke="midnightblue" d="M110.156,-18.8743C119.139,-17.3366 127.994,-15.8209 135.774,-14.4892"/>
<polygon fill="midnightblue" stroke="midnightblue" points="109.275,-15.4739 100.009,-20.611 110.457,-22.3736 109.275,-15.4739"/>
</g>
<!-- Node3 -->
<g id="node3" class="node"><title>Node3</title>
<g id="a_node3"><a xlink:href="namespaceICED.html#acf52cefdb153ca8751acb1e183d3a405" target="_top" xlink:title="Drives the ICED::TestObject. ">
<polygon fill="none" stroke="black" points="231.5,-38.5 231.5,-57.5 298.5,-57.5 298.5,-38.5 231.5,-38.5"/>
<text text-anchor="middle" x="265" y="-45.5" font-family="Helvetica,sans-Serif" font-size="10.00">ICED::Test</text>
</a>
</g>
</g>
<!-- Node2&#45;&gt;Node3 -->
<g id="edge2" class="edge"><title>Node2&#45;&gt;Node3</title>
<path fill="none" stroke="midnightblue" d="M199.973,-48C210.149,-48 221.168,-48 231.15,-48"/>
<polygon fill="midnightblue" stroke="midnightblue" points="199.753,-44.5001 189.752,-48 199.752,-51.5001 199.753,-44.5001"/>
</g>
<!-- Node4 -->
<g id="node4" class="node"><title>Node4</title>
<g id="a_node4"><a xlink:href="TestICED_8C.html#a0ddf1224851353fc92bfbff6f499fa97" target="_top" xlink:title="main">
<polygon fill="none" stroke="black" points="340,-38.5 340,-57.5 378,-57.5 378,-38.5 340,-38.5"/>
<text text-anchor="middle" x="359" y="-45.5" font-family="Helvetica,sans-Serif" font-size="10.00">main</text>
</a>
</g>
</g>
<!-- Node3&#45;&gt;Node4 -->
<g id="edge3" class="edge"><title>Node3&#45;&gt;Node4</title>
<path fill="none" stroke="midnightblue" d="M308.981,-48C319.865,-48 330.976,-48 339.862,-48"/>
<polygon fill="midnightblue" stroke="midnightblue" points="308.695,-44.5001 298.695,-48 308.695,-51.5001 308.695,-44.5001"/>
</g>
<!-- Node6 -->
<g id="node6" class="node"><title>Node6</title>
<g id="a_node6"><a xlink:href="classICED_1_1TestingObject.html#a21159bd2efac623e5a5079f6a20f3444" target="_top" xlink:title="Runs a list of tests specified by name. ">
<polygon fill="none" stroke="black" points="226.5,-0.5 226.5,-19.5 303.5,-19.5 303.5,-0.5 226.5,-0.5"/>
<text text-anchor="middle" x="265" y="-7.5" font-family="Helvetica,sans-Serif" font-size="10.00">ProcessTests</text>
</a>
</g>
</g>
<!-- Node5&#45;&gt;Node6 -->
<g id="edge5" class="edge"><title>Node5&#45;&gt;Node6</title>
<path fill="none" stroke="midnightblue" d="M200.092,-10C208.658,-10 217.815,-10 226.444,-10"/>
<polygon fill="midnightblue" stroke="midnightblue" points="200.013,-6.5001 190.013,-10 200.013,-13.5001 200.013,-6.5001"/>
</g>
<!-- Node5&#45;&gt;Node3 -->
<g id="edge6" class="edge"><title>Node5&#45;&gt;Node3</title>
<path fill="none" stroke="midnightblue" d="M198.907,-23.2646C212.035,-28.2533 226.695,-33.8241 238.774,-38.4141"/>
<polygon fill="midnightblue" stroke="midnightblue" points="199.825,-19.8695 189.234,-19.589 197.339,-26.413 199.825,-19.8695"/>
</g>
</g>
</svg>
