<?xml version="1.0" encoding="UTF-8" standalone="no"?>
<!DOCTYPE svg PUBLIC "-//W3C//DTD SVG 1.1//EN"
 "http://www.w3.org/Graphics/SVG/1.1/DTD/svg11.dtd">
<!-- Generated by graphviz version 2.30.1 (20150305.2338)
 -->
<!-- Title: CopyDeviceToGlobalStorage Pages: 1 -->
<!--zoomable 761 -->
<svg id="main" version="1.1" xmlns="http://www.w3.org/2000/svg" xmlns:xlink="http://www.w3.org/1999/xlink" xml:space="preserve" onload="init(evt)">
<style type="text/css"><![CDATA[
.edge:hover path { stroke: red; }
.edge:hover polygon { stroke: red; fill: red; }
]]></style>
<script type="text/javascript"><![CDATA[
var edges = document.getElementsByTagName('g');
if (edges && edges.length) {
  for (var i=0;i<edges.length;i++) {
    if (edges[i].id.substr(0,4)=='edge') {
      edges[i].setAttribute('class','edge');
    }
  }
}
]]></script>
        <defs>
                <circle id="rim" cx="0" cy="0" r="7"/>
                <circle id="rim2" cx="0" cy="0" r="3.5"/>
                <g id="zoomPlus">
                        <use xlink:href="#rim" fill="#404040">
                                <set attributeName="fill" to="#808080" begin="zoomplus.mouseover" end="zoomplus.mouseout"/>
                        </use>
                        <path d="M-4,0h8M0,-4v8" fill="none" stroke="white" stroke-width="1.5" pointer-events="none"/>
                </g>
                <g id="zoomMin">
                        <use xlink:href="#rim" fill="#404040">
                                <set attributeName="fill" to="#808080" begin="zoomminus.mouseover" end="zoomminus.mouseout"/>
                        </use>
                        <path d="M-4,0h8" fill="none" stroke="white" stroke-width="1.5" pointer-events="none"/>
                </g>
                <g id="dirArrow">
                        <path fill="none" stroke="white" stroke-width="1.5" d="M0,-3.0v7 M-2.5,-0.5L0,-3.0L2.5,-0.5"/>
                </g>
               <g id="resetDef">
                       <use xlink:href="#rim2" fill="#404040">
                               <set attributeName="fill" to="#808080" begin="reset.mouseover" end="reset.mouseout"/>
                       </use>
               </g>
        </defs>

<script type="text/javascript">
var viewWidth = 1022;
var viewHeight = 761;
var sectionId = 'dynsection-0';
</script>
<script xlink:href="svgpan.js"/>
<svg id="graph" class="graph">
<g id="viewport">
<title>CopyDeviceToGlobalStorage</title>
<!-- Node1 -->
<g id="node1" class="node"><title>Node1</title>
<polygon fill="#bfbfbf" stroke="black" points="0.5,-367.5 0.5,-386.5 143.5,-386.5 143.5,-367.5 0.5,-367.5"/>
<text text-anchor="middle" x="72" y="-374.5" font-family="Helvetica,sans-Serif" font-size="10.00">CopyDeviceToGlobalStorage</text>
</g>
<!-- Node2 -->
<g id="node2" class="node"><title>Node2</title>
<g id="a_node2"><a xlink:href="classICED_1_1HalfCell_1_1DeviceData_ac62391584f55efe6bd7916ebf7d2e92b.html#ac62391584f55efe6bd7916ebf7d2e92b" target="_top" xlink:title="Initialization of the entire device data structure. ">
<polygon fill="none" stroke="black" points="180.5,-367.5 180.5,-386.5 249.5,-386.5 249.5,-367.5 180.5,-367.5"/>
<text text-anchor="middle" x="215" y="-374.5" font-family="Helvetica,sans-Serif" font-size="10.00">BuildDevice</text>
</a>
</g>
</g>
<!-- Node1&#45;&gt;Node2 -->
<g id="edge1" class="edge"><title>Node1&#45;&gt;Node2</title>
<path fill="none" stroke="midnightblue" d="M154.042,-377C163.316,-377 172.341,-377 180.455,-377"/>
<polygon fill="midnightblue" stroke="midnightblue" points="153.913,-373.5 143.913,-377 153.913,-380.5 153.913,-373.5"/>
</g>
<!-- Node3 -->
<g id="node3" class="node"><title>Node3</title>
<g id="a_node3"><a xlink:href="classICED_1_1TestingObject_a7995a39337d2ec045b02982b1b346b28.html#a7995a39337d2ec045b02982b1b346b28" target="_top" xlink:title="Function called by Test__Intercalation. ">
<polygon fill="none" stroke="black" points="292.5,-425 292.5,-455 417.5,-455 417.5,-425 292.5,-425"/>
<text text-anchor="start" x="300.5" y="-443" font-family="Helvetica,sans-Serif" font-size="10.00">ICED::TestingObject</text>
<text text-anchor="middle" x="355" y="-432" font-family="Helvetica,sans-Serif" font-size="10.00">::RunIntercalationModule</text>
</a>
</g>
</g>
<!-- Node2&#45;&gt;Node3 -->
<g id="edge2" class="edge"><title>Node2&#45;&gt;Node3</title>
<path fill="none" stroke="midnightblue" d="M244.953,-390.848C257.533,-396.813 272.461,-403.823 286,-410 296.8,-414.927 308.62,-420.188 319.332,-424.905"/>
<polygon fill="midnightblue" stroke="midnightblue" points="246.386,-387.654 235.852,-386.521 243.381,-393.976 246.386,-387.654"/>
</g>
<!-- Node10 -->
<g id="node10" class="node"><title>Node10</title>
<g id="a_node10"><a xlink:href="classICED_1_1TestingObject_aea517fa85afb367c872ce72c26a0d643.html#aea517fa85afb367c872ce72c26a0d643" target="_top" xlink:title="Test for ICED::ActivitCoefficient module. ">
<polygon fill="none" stroke="black" points="489.5,-392 489.5,-422 622.5,-422 622.5,-392 489.5,-392"/>
<text text-anchor="start" x="497.5" y="-410" font-family="Helvetica,sans-Serif" font-size="10.00">ICED::TestingObject</text>
<text text-anchor="middle" x="556" y="-399" font-family="Helvetica,sans-Serif" font-size="10.00">::Test__ActivityCoefficient</text>
</a>
</g>
</g>
<!-- Node2&#45;&gt;Node10 -->
<g id="edge10" class="edge"><title>Node2&#45;&gt;Node10</title>
<path fill="none" stroke="midnightblue" d="M259.731,-380.87C317.998,-386.026 421.591,-395.194 489.283,-401.184"/>
<polygon fill="midnightblue" stroke="midnightblue" points="260.014,-377.381 249.744,-379.986 259.396,-384.354 260.014,-377.381"/>
</g>
<!-- Node11 -->
<g id="node11" class="node"><title>Node11</title>
<g id="a_node11"><a xlink:href="classICED_1_1TestingObject_a2f898efd73e9aaf601f0733cb31fc340.html#a2f898efd73e9aaf601f0733cb31fc340" target="_top" xlink:title="Test for ICED::ButlerVolmer. ">
<polygon fill="none" stroke="black" points="501.5,-343 501.5,-373 610.5,-373 610.5,-343 501.5,-343"/>
<text text-anchor="start" x="509.5" y="-361" font-family="Helvetica,sans-Serif" font-size="10.00">ICED::TestingObject</text>
<text text-anchor="middle" x="556" y="-350" font-family="Helvetica,sans-Serif" font-size="10.00">::Test__ButlerVolmer</text>
</a>
</g>
</g>
<!-- Node2&#45;&gt;Node11 -->
<g id="edge13" class="edge"><title>Node2&#45;&gt;Node11</title>
<path fill="none" stroke="midnightblue" d="M259.964,-374.536C321.903,-371.064 434.73,-364.741 501.472,-361"/>
<polygon fill="midnightblue" stroke="midnightblue" points="259.532,-371.055 249.744,-375.109 259.924,-378.044 259.532,-371.055"/>
</g>
<!-- Node12 -->
<g id="node12" class="node"><title>Node12</title>
<g id="a_node12"><a xlink:href="classICED_1_1TestingObject_a7bac98c894f8cfff372d495eae083cd5.html#a7bac98c894f8cfff372d495eae083cd5" target="_top" xlink:title="Tests the input file error checking functions using testModule and a generated &quot;bad&quot; input file...">
<polygon fill="none" stroke="black" points="289,-718 289,-748 421,-748 421,-718 289,-718"/>
<text text-anchor="start" x="297" y="-736" font-family="Helvetica,sans-Serif" font-size="10.00">ICED::TestingObject</text>
<text text-anchor="middle" x="355" y="-725" font-family="Helvetica,sans-Serif" font-size="10.00">::Test__CheckParamsBad</text>
</a>
</g>
</g>
<!-- Node2&#45;&gt;Node12 -->
<g id="edge16" class="edge"><title>Node2&#45;&gt;Node12</title>
<path fill="none" stroke="midnightblue" d="M215.633,-396.817C215.615,-449.057 221.79,-592.955 286,-687 294.84,-699.948 308.639,-710.262 321.502,-717.815"/>
<polygon fill="midnightblue" stroke="midnightblue" points="219.135,-396.629 215.721,-386.599 212.135,-396.568 219.135,-396.629"/>
</g>
<!-- Node13 -->
<g id="node13" class="node"><title>Node13</title>
<g id="a_node13"><a xlink:href="classICED_1_1TestingObject_afedc7e682315a3e766d614e09631ab04.html#afedc7e682315a3e766d614e09631ab04" target="_top" xlink:title="Tests the input file error checking functions using testModule and a generated &quot;good&quot; input file...">
<polygon fill="none" stroke="black" points="286,-648 286,-678 424,-678 424,-648 286,-648"/>
<text text-anchor="start" x="294" y="-666" font-family="Helvetica,sans-Serif" font-size="10.00">ICED::TestingObject</text>
<text text-anchor="middle" x="355" y="-655" font-family="Helvetica,sans-Serif" font-size="10.00">::Test__CheckParamsGood</text>
</a>
</g>
</g>
<!-- Node2&#45;&gt;Node13 -->
<g id="edge18" class="edge"><title>Node2&#45;&gt;Node13</title>
<path fill="none" stroke="midnightblue" d="M216.841,-396.593C219.683,-441.129 232.082,-551.552 286,-622 294.295,-632.838 306.343,-641.425 318.002,-647.881"/>
<polygon fill="midnightblue" stroke="midnightblue" points="220.332,-396.326 216.295,-386.53 213.342,-396.705 220.332,-396.326"/>
</g>
<!-- Node14 -->
<g id="node14" class="node"><title>Node14</title>
<g id="a_node14"><a xlink:href="classICED_1_1TestingObject_a8218a8aab213585d0fba3f2e1aa24b76.html#a8218a8aab213585d0fba3f2e1aa24b76" target="_top" xlink:title="Test for ICED::ComponentBoundaryConditions. ">
<polygon fill="none" stroke="black" points="460.5,-196 460.5,-226 651.5,-226 651.5,-196 460.5,-196"/>
<text text-anchor="start" x="468.5" y="-214" font-family="Helvetica,sans-Serif" font-size="10.00">ICED::TestingObject</text>
<text text-anchor="middle" x="556" y="-203" font-family="Helvetica,sans-Serif" font-size="10.00">::Test__ComponentBoundaryConditions</text>
</a>
</g>
</g>
<!-- Node2&#45;&gt;Node14 -->
<g id="edge20" class="edge"><title>Node2&#45;&gt;Node14</title>
<path fill="none" stroke="midnightblue" d="M225.057,-358.285C236.37,-336.89 257.729,-302.339 286,-283 337.574,-247.721 405.641,-229.712 460.399,-220.528"/>
<polygon fill="midnightblue" stroke="midnightblue" points="221.862,-356.847 220.451,-367.348 228.102,-360.019 221.862,-356.847"/>
</g>
<!-- Node15 -->
<g id="node15" class="node"><title>Node15</title>
<g id="a_node15"><a xlink:href="classICED_1_1TestingObject_a96409144efe94cf3e37a534e524c6e36.html#a96409144efe94cf3e37a534e524c6e36" target="_top" xlink:title="Test for ICED::ConcentrationDiffusion. ">
<polygon fill="none" stroke="black" points="480,-147 480,-177 632,-177 632,-147 480,-147"/>
<text text-anchor="start" x="488" y="-165" font-family="Helvetica,sans-Serif" font-size="10.00">ICED::TestingObject</text>
<text text-anchor="middle" x="556" y="-154" font-family="Helvetica,sans-Serif" font-size="10.00">::Test__ConcentrationDiffusion</text>
</a>
</g>
</g>
<!-- Node2&#45;&gt;Node15 -->
<g id="edge23" class="edge"><title>Node2&#45;&gt;Node15</title>
<path fill="none" stroke="midnightblue" d="M219.401,-357.434C226.103,-324.973 244.17,-260.184 286,-226 340.642,-181.346 421.228,-166.872 479.946,-162.641"/>
<polygon fill="midnightblue" stroke="midnightblue" points="215.923,-356.985 217.483,-367.464 222.799,-358.299 215.923,-356.985"/>
</g>
<!-- Node16 -->
<g id="node16" class="node"><title>Node16</title>
<g id="a_node16"><a xlink:href="classICED_1_1TestingObject_a20a3def5cfb0861690599ae120367987.html#a20a3def5cfb0861690599ae120367987" target="_top" xlink:title="Test for ICED::DeviceData. ">
<polygon fill="none" stroke="black" points="502,-98 502,-128 610,-128 610,-98 502,-98"/>
<text text-anchor="start" x="510" y="-116" font-family="Helvetica,sans-Serif" font-size="10.00">ICED::TestingObject</text>
<text text-anchor="middle" x="556" y="-105" font-family="Helvetica,sans-Serif" font-size="10.00">::Test__DeviceData</text>
</a>
</g>
</g>
<!-- Node2&#45;&gt;Node16 -->
<g id="edge26" class="edge"><title>Node2&#45;&gt;Node16</title>
<path fill="none" stroke="midnightblue" d="M216.328,-357.107C218.165,-314.979 228.715,-216.497 286,-166 345.72,-113.357 442.224,-106.878 501.958,-108.712"/>
<polygon fill="midnightblue" stroke="midnightblue" points="212.826,-357.089 216.013,-367.193 219.823,-357.307 212.826,-357.089"/>
</g>
<!-- Node17 -->
<g id="node17" class="node"><title>Node17</title>
<g id="a_node17"><a xlink:href="classICED_1_1TestingObject_a43dbcae20e4ab6f8b30751e9b5e5b2c2.html#a43dbcae20e4ab6f8b30751e9b5e5b2c2" target="_top" xlink:title="Test for ICED::DeviceDataMapping. ">
<polygon fill="none" stroke="black" points="485.5,-49 485.5,-79 626.5,-79 626.5,-49 485.5,-49"/>
<text text-anchor="start" x="493.5" y="-67" font-family="Helvetica,sans-Serif" font-size="10.00">ICED::TestingObject</text>
<text text-anchor="middle" x="556" y="-56" font-family="Helvetica,sans-Serif" font-size="10.00">::Test__DeviceDataMapping</text>
</a>
</g>
</g>
<!-- Node2&#45;&gt;Node17 -->
<g id="edge29" class="edge"><title>Node2&#45;&gt;Node17</title>
<path fill="none" stroke="midnightblue" d="M218.355,-357.474C225.496,-301.629 248.725,-143.072 286,-109 339.473,-60.1221 425.114,-53.5949 485.372,-56.2549"/>
<polygon fill="midnightblue" stroke="midnightblue" points="214.872,-357.124 217.109,-367.48 221.818,-357.989 214.872,-357.124"/>
</g>
<!-- Node18 -->
<g id="node18" class="node"><title>Node18</title>
<g id="a_node18"><a xlink:href="classICED_1_1TestingObject_a06cf16fc934c4e87f6886a7beb771b0e.html#a06cf16fc934c4e87f6886a7beb771b0e" target="_top" xlink:title="Test for ICED::Diffusion module. ">
<polygon fill="none" stroke="black" points="502,-0 502,-30 610,-30 610,-0 502,-0"/>
<text text-anchor="start" x="510" y="-18" font-family="Helvetica,sans-Serif" font-size="10.00">ICED::TestingObject</text>
<text text-anchor="middle" x="556" y="-7" font-family="Helvetica,sans-Serif" font-size="10.00">::Test__Diffusion</text>
</a>
</g>
</g>
<!-- Node2&#45;&gt;Node18 -->
<g id="edge32" class="edge"><title>Node2&#45;&gt;Node18</title>
<path fill="none" stroke="midnightblue" d="M217.43,-356.883C222.407,-292.896 241.17,-95.8205 286,-54 343.884,-0.00175492 441.413,-0.0247933 501.775,-6.45763"/>
<polygon fill="midnightblue" stroke="midnightblue" points="213.913,-356.981 216.658,-367.214 220.894,-357.503 213.913,-356.981"/>
</g>
<!-- Node19 -->
<g id="node19" class="node"><title>Node19</title>
<g id="a_node19"><a xlink:href="classICED_1_1TestingObject_af46c6cb015fb4151707a8c08084f4525.html#af46c6cb015fb4151707a8c08084f4525" target="_top" xlink:title="Test for ICED::IonMigration module. ">
<polygon fill="none" stroke="black" points="502,-637 502,-667 610,-667 610,-637 502,-637"/>
<text text-anchor="start" x="510" y="-655" font-family="Helvetica,sans-Serif" font-size="10.00">ICED::TestingObject</text>
<text text-anchor="middle" x="556" y="-644" font-family="Helvetica,sans-Serif" font-size="10.00">::Test__IonMigration</text>
</a>
</g>
</g>
<!-- Node2&#45;&gt;Node19 -->
<g id="edge35" class="edge"><title>Node2&#45;&gt;Node19</title>
<path fill="none" stroke="midnightblue" d="M217.247,-396.903C220.815,-436.583 234.45,-525.936 286,-575 317.009,-604.513 432.826,-629.886 501.976,-642.83"/>
<polygon fill="midnightblue" stroke="midnightblue" points="220.733,-396.595 216.47,-386.896 213.754,-397.137 220.733,-396.595"/>
</g>
<!-- Node20 -->
<g id="node20" class="node"><title>Node20</title>
<g id="a_node20"><a xlink:href="classICED_1_1TestingObject_a263e8cc9d4d10cb3b749c8946ebcae72.html#a263e8cc9d4d10cb3b749c8946ebcae72" target="_top" xlink:title="Test for ICED::DeviceComponent. ">
<polygon fill="none" stroke="black" points="498.5,-588 498.5,-618 613.5,-618 613.5,-588 498.5,-588"/>
<text text-anchor="start" x="506.5" y="-606" font-family="Helvetica,sans-Serif" font-size="10.00">ICED::TestingObject</text>
<text text-anchor="middle" x="556" y="-595" font-family="Helvetica,sans-Serif" font-size="10.00">::Test__ModulePriority</text>
</a>
</g>
</g>
<!-- Node2&#45;&gt;Node20 -->
<g id="edge38" class="edge"><title>Node2&#45;&gt;Node20</title>
<path fill="none" stroke="midnightblue" d="M218.843,-396.874C224.822,-431.09 241.976,-501.003 286,-538 317.77,-564.699 429.155,-584.963 498.239,-595.319"/>
<polygon fill="midnightblue" stroke="midnightblue" points="222.258,-396.06 217.222,-386.738 215.346,-397.165 222.258,-396.06"/>
</g>
<!-- Node21 -->
<g id="node21" class="node"><title>Node21</title>
<g id="a_node21"><a xlink:href="classICED_1_1TestingObject_a4f825a89973b92c36e2fe2cbe6a653a0.html#a4f825a89973b92c36e2fe2cbe6a653a0" target="_top" xlink:title="Test for ICED::OhmsLawElectrolyte. ">
<polygon fill="none" stroke="black" points="484.5,-539 484.5,-569 627.5,-569 627.5,-539 484.5,-539"/>
<text text-anchor="start" x="492.5" y="-557" font-family="Helvetica,sans-Serif" font-size="10.00">ICED::TestingObject</text>
<text text-anchor="middle" x="556" y="-546" font-family="Helvetica,sans-Serif" font-size="10.00">::Test__OhmsLawElectrolyte</text>
</a>
</g>
</g>
<!-- Node2&#45;&gt;Node21 -->
<g id="edge41" class="edge"><title>Node2&#45;&gt;Node21</title>
<path fill="none" stroke="midnightblue" d="M221.601,-396.253C230.548,-423.42 250.749,-472.525 286,-498 343.898,-539.842 426.106,-551.894 484.372,-554.691"/>
<polygon fill="midnightblue" stroke="midnightblue" points="224.941,-395.207 218.624,-386.701 218.258,-397.289 224.941,-395.207"/>
</g>
<!-- Node22 -->
<g id="node22" class="node"><title>Node22</title>
<g id="a_node22"><a xlink:href="classICED_1_1TestingObject_ab656a16700e242a40e0b21d7693a6ae0.html#ab656a16700e242a40e0b21d7693a6ae0" target="_top" xlink:title="Test for ICED::OhmsLawSolid. ">
<polygon fill="none" stroke="black" points="496.5,-490 496.5,-520 615.5,-520 615.5,-490 496.5,-490"/>
<text text-anchor="start" x="504.5" y="-508" font-family="Helvetica,sans-Serif" font-size="10.00">ICED::TestingObject</text>
<text text-anchor="middle" x="556" y="-497" font-family="Helvetica,sans-Serif" font-size="10.00">::Test__OhmsLawSolid</text>
</a>
</g>
</g>
<!-- Node2&#45;&gt;Node22 -->
<g id="edge44" class="edge"><title>Node2&#45;&gt;Node22</title>
<path fill="none" stroke="midnightblue" d="M225.382,-395.482C236.773,-415.856 257.988,-447.877 286,-464 351.1,-501.469 439.102,-508.21 496.445,-507.94"/>
<polygon fill="midnightblue" stroke="midnightblue" points="228.399,-393.7 220.593,-386.536 222.227,-397.004 228.399,-393.7"/>
</g>
<!-- Node23 -->
<g id="node23" class="node"><title>Node23</title>
<g id="a_node23"><a xlink:href="classICED_1_1TestingObject_aacdc6512e5ce8094c62997f4d1f02634.html#aacdc6512e5ce8094c62997f4d1f02634" target="_top" xlink:title="Test for ICED::TransferenceNumber. ">
<polygon fill="none" stroke="black" points="484,-294 484,-324 628,-324 628,-294 484,-294"/>
<text text-anchor="start" x="492" y="-312" font-family="Helvetica,sans-Serif" font-size="10.00">ICED::TestingObject</text>
<text text-anchor="middle" x="556" y="-301" font-family="Helvetica,sans-Serif" font-size="10.00">::Test__TransferenceNumber</text>
</a>
</g>
</g>
<!-- Node2&#45;&gt;Node23 -->
<g id="edge47" class="edge"><title>Node2&#45;&gt;Node23</title>
<path fill="none" stroke="midnightblue" d="M259.77,-367.504C268.456,-365.653 277.512,-363.745 286,-362 353.021,-348.218 429.593,-333.202 483.856,-322.684"/>
<polygon fill="midnightblue" stroke="midnightblue" points="258.846,-364.123 249.8,-369.639 260.312,-370.967 258.846,-364.123"/>
</g>
<!-- Node24 -->
<g id="node24" class="node"><title>Node24</title>
<g id="a_node24"><a xlink:href="classICED_1_1TestingObject_a9bbc638a5bd612413bdd4c03b6c66d0c.html#a9bbc638a5bd612413bdd4c03b6c66d0c" target="_top" xlink:title="Test for ICED::wallFlux. ">
<polygon fill="none" stroke="black" points="502,-245 502,-275 610,-275 610,-245 502,-245"/>
<text text-anchor="start" x="510" y="-263" font-family="Helvetica,sans-Serif" font-size="10.00">ICED::TestingObject</text>
<text text-anchor="middle" x="556" y="-252" font-family="Helvetica,sans-Serif" font-size="10.00">::Test__WallFlux</text>
</a>
</g>
</g>
<!-- Node2&#45;&gt;Node24 -->
<g id="edge50" class="edge"><title>Node2&#45;&gt;Node24</title>
<path fill="none" stroke="midnightblue" d="M236.338,-361.577C249.829,-351.953 268.255,-339.93 286,-332 357.505,-300.046 446.233,-279.702 501.752,-269.069"/>
<polygon fill="midnightblue" stroke="midnightblue" points="234.255,-358.764 228.242,-367.487 238.383,-364.417 234.255,-358.764"/>
</g>
<!-- Node4 -->
<g id="node4" class="node"><title>Node4</title>
<g id="a_node4"><a xlink:href="classICED_1_1TestingObject_adcd8b620aa1ea5a579a671ac15b5620b.html#adcd8b620aa1ea5a579a671ac15b5620b" target="_top" xlink:title="Test for ICED::Intercalation. ">
<polygon fill="none" stroke="black" points="502,-441 502,-471 610,-471 610,-441 502,-441"/>
<text text-anchor="start" x="510" y="-459" font-family="Helvetica,sans-Serif" font-size="10.00">ICED::TestingObject</text>
<text text-anchor="middle" x="556" y="-448" font-family="Helvetica,sans-Serif" font-size="10.00">::Test__Intercalation</text>
</a>
</g>
</g>
<!-- Node3&#45;&gt;Node4 -->
<g id="edge3" class="edge"><title>Node3&#45;&gt;Node4</title>
<path fill="none" stroke="midnightblue" d="M427.889,-445.78C452.281,-447.741 479.077,-449.896 501.751,-451.719"/>
<polygon fill="midnightblue" stroke="midnightblue" points="427.85,-442.266 417.602,-444.953 427.289,-449.243 427.85,-442.266"/>
</g>
<!-- Node5 -->
<g id="node5" class="node"><title>Node5</title>
<g id="a_node5"><a xlink:href="classICED_1_1TestingObject_a046f7ab06db0acf616b0d2bf3d3146aa.html#a046f7ab06db0acf616b0d2bf3d3146aa" target="_top" xlink:title="Runs all tests implemented by the ICED::TestingObject. ">
<polygon fill="none" stroke="black" points="688,-367 688,-397 796,-397 796,-367 688,-367"/>
<text text-anchor="start" x="696" y="-385" font-family="Helvetica,sans-Serif" font-size="10.00">ICED::TestingObject</text>
<text text-anchor="middle" x="742" y="-374" font-family="Helvetica,sans-Serif" font-size="10.00">::Process</text>
</a>
</g>
</g>
<!-- Node4&#45;&gt;Node5 -->
<g id="edge4" class="edge"><title>Node4&#45;&gt;Node5</title>
<path fill="none" stroke="midnightblue" d="M619.895,-441.789C630.752,-438.675 641.815,-435.071 652,-431 675.093,-421.768 699.747,-407.841 717.236,-397.192"/>
<polygon fill="midnightblue" stroke="midnightblue" points="618.725,-438.481 610.013,-444.51 620.583,-445.229 618.725,-438.481"/>
</g>
<!-- Node8 -->
<g id="node8" class="node"><title>Node8</title>
<g id="a_node8"><a xlink:href="classICED_1_1TestingObject_af1f07f14b9af7708e4264bb38937eed2.html#af1f07f14b9af7708e4264bb38937eed2" target="_top" xlink:title="Runs a test specified by name. ">
<polygon fill="none" stroke="black" points="688,-318 688,-348 796,-348 796,-318 688,-318"/>
<text text-anchor="start" x="696" y="-336" font-family="Helvetica,sans-Serif" font-size="10.00">ICED::TestingObject</text>
<text text-anchor="middle" x="742" y="-325" font-family="Helvetica,sans-Serif" font-size="10.00">::RunTest</text>
</a>
</g>
</g>
<!-- Node4&#45;&gt;Node8 -->
<g id="edge7" class="edge"><title>Node4&#45;&gt;Node8</title>
<path fill="none" stroke="midnightblue" d="M619.812,-447.635C631.391,-443.928 642.734,-438.611 652,-431 680.262,-407.785 661.784,-382.503 688,-357 691.475,-353.619 695.511,-350.663 699.774,-348.09"/>
<polygon fill="midnightblue" stroke="midnightblue" points="618.742,-444.301 610.07,-450.387 620.645,-451.037 618.742,-444.301"/>
</g>
<!-- Node6 -->
<g id="node6" class="node"><title>Node6</title>
<g id="a_node6"><a xlink:href="namespaceICED_acf52cefdb153ca8751acb1e183d3a405.html#acf52cefdb153ca8751acb1e183d3a405" target="_top" xlink:title="Drives the ICED::TestObject. ">
<polygon fill="none" stroke="black" points="852.5,-369.5 852.5,-388.5 919.5,-388.5 919.5,-369.5 852.5,-369.5"/>
<text text-anchor="middle" x="886" y="-376.5" font-family="Helvetica,sans-Serif" font-size="10.00">ICED::Test</text>
</a>
</g>
</g>
<!-- Node5&#45;&gt;Node6 -->
<g id="edge5" class="edge"><title>Node5&#45;&gt;Node6</title>
<path fill="none" stroke="midnightblue" d="M806.6,-380.656C822.467,-380.321 838.831,-379.975 852.478,-379.687"/>
<polygon fill="midnightblue" stroke="midnightblue" points="806.203,-377.164 796.28,-380.874 806.351,-384.162 806.203,-377.164"/>
</g>
<!-- Node7 -->
<g id="node7" class="node"><title>Node7</title>
<g id="a_node7"><a xlink:href="TestICED_8C_a0ddf1224851353fc92bfbff6f499fa97.html#a0ddf1224851353fc92bfbff6f499fa97" target="_top" xlink:title="main">
<polygon fill="none" stroke="black" points="976,-369.5 976,-388.5 1014,-388.5 1014,-369.5 976,-369.5"/>
<text text-anchor="middle" x="995" y="-376.5" font-family="Helvetica,sans-Serif" font-size="10.00">main</text>
</a>
</g>
</g>
<!-- Node6&#45;&gt;Node7 -->
<g id="edge6" class="edge"><title>Node6&#45;&gt;Node7</title>
<path fill="none" stroke="midnightblue" d="M929.939,-379C945.927,-379 963.225,-379 975.811,-379"/>
<polygon fill="midnightblue" stroke="midnightblue" points="929.685,-375.5 919.685,-379 929.685,-382.5 929.685,-375.5"/>
</g>
<!-- Node9 -->
<g id="node9" class="node"><title>Node9</title>
<g id="a_node9"><a xlink:href="classICED_1_1TestingObject_a21159bd2efac623e5a5079f6a20f3444.html#a21159bd2efac623e5a5079f6a20f3444" target="_top" xlink:title="Runs a list of tests specified by name. ">
<polygon fill="none" stroke="black" points="832,-318 832,-348 940,-348 940,-318 832,-318"/>
<text text-anchor="start" x="840" y="-336" font-family="Helvetica,sans-Serif" font-size="10.00">ICED::TestingObject</text>
<text text-anchor="middle" x="886" y="-325" font-family="Helvetica,sans-Serif" font-size="10.00">::ProcessTests</text>
</a>
</g>
</g>
<!-- Node8&#45;&gt;Node9 -->
<g id="edge8" class="edge"><title>Node8&#45;&gt;Node9</title>
<path fill="none" stroke="midnightblue" d="M806.517,-333C814.996,-333 823.618,-333 831.894,-333"/>
<polygon fill="midnightblue" stroke="midnightblue" points="806.28,-329.5 796.28,-333 806.28,-336.5 806.28,-329.5"/>
</g>
<!-- Node8&#45;&gt;Node6 -->
<g id="edge9" class="edge"><title>Node8&#45;&gt;Node6</title>
<path fill="none" stroke="midnightblue" d="M799.084,-351.168C818.316,-357.398 839.077,-364.124 855.373,-369.402"/>
<polygon fill="midnightblue" stroke="midnightblue" points="800.088,-347.814 789.496,-348.062 797.931,-354.474 800.088,-347.814"/>
</g>
<!-- Node10&#45;&gt;Node5 -->
<g id="edge11" class="edge"><title>Node10&#45;&gt;Node5</title>
<path fill="none" stroke="midnightblue" d="M632.795,-396.702C651.261,-394.193 670.625,-391.562 687.786,-389.23"/>
<polygon fill="midnightblue" stroke="midnightblue" points="632.087,-393.266 622.649,-398.08 633.029,-400.202 632.087,-393.266"/>
</g>
<!-- Node10&#45;&gt;Node8 -->
<g id="edge12" class="edge"><title>Node10&#45;&gt;Node8</title>
<path fill="none" stroke="midnightblue" d="M632.548,-389.738C639.235,-387.429 645.809,-384.856 652,-382 669.689,-373.841 671.058,-366.613 688,-357 693.535,-353.86 699.555,-350.811 705.487,-348"/>
<polygon fill="midnightblue" stroke="midnightblue" points="631.133,-386.518 622.703,-392.936 633.295,-393.176 631.133,-386.518"/>
</g>
<!-- Node11&#45;&gt;Node5 -->
<g id="edge14" class="edge"><title>Node11&#45;&gt;Node5</title>
<path fill="none" stroke="midnightblue" d="M620.899,-366.335C642.751,-369.185 666.943,-372.34 687.854,-375.068"/>
<polygon fill="midnightblue" stroke="midnightblue" points="621.084,-362.829 610.715,-365.006 620.178,-369.77 621.084,-362.829"/>
</g>
<!-- Node11&#45;&gt;Node8 -->
<g id="edge15" class="edge"><title>Node11&#45;&gt;Node8</title>
<path fill="none" stroke="midnightblue" d="M620.899,-349.318C642.751,-346.349 666.943,-343.062 687.854,-340.221"/>
<polygon fill="midnightblue" stroke="midnightblue" points="620.153,-345.887 610.715,-350.702 621.095,-352.823 620.153,-345.887"/>
</g>
<!-- Node12&#45;&gt;Node5 -->
<g id="edge17" class="edge"><title>Node12&#45;&gt;Node5</title>
<path fill="none" stroke="midnightblue" d="M431.403,-747.963C497.184,-756.417 591.336,-756.77 652,-706 701.096,-664.911 731.43,-456.088 739.082,-397.375"/>
<polygon fill="midnightblue" stroke="midnightblue" points="431.483,-744.441 421.099,-746.544 430.528,-751.376 431.483,-744.441"/>
</g>
<!-- Node13&#45;&gt;Node5 -->
<g id="edge19" class="edge"><title>Node13&#45;&gt;Node5</title>
<path fill="none" stroke="midnightblue" d="M402.756,-681.615C465.946,-703.407 579.071,-730.12 652,-676 698.68,-641.359 730.397,-452.519 738.785,-397.221"/>
<polygon fill="midnightblue" stroke="midnightblue" points="403.652,-678.219 393.057,-678.173 401.311,-684.816 403.652,-678.219"/>
</g>
<!-- Node14&#45;&gt;Node5 -->
<g id="edge21" class="edge"><title>Node14&#45;&gt;Node5</title>
<path fill="none" stroke="midnightblue" d="M648.549,-231.93C649.737,-232.909 650.889,-233.932 652,-235 692.757,-274.178 651.214,-314.072 688,-357 691.31,-360.863 695.349,-364.17 699.705,-366.992"/>
<polygon fill="midnightblue" stroke="midnightblue" points="650.423,-228.969 640.23,-226.082 646.398,-234.696 650.423,-228.969"/>
</g>
<!-- Node14&#45;&gt;Node8 -->
<g id="edge22" class="edge"><title>Node14&#45;&gt;Node8</title>
<path fill="none" stroke="midnightblue" d="M643.148,-230.233C646.193,-231.707 649.156,-233.293 652,-235 687.473,-256.286 717.062,-296.088 731.505,-317.845"/>
<polygon fill="midnightblue" stroke="midnightblue" points="644.359,-226.943 633.795,-226.14 641.553,-233.356 644.359,-226.943"/>
</g>
<!-- Node15&#45;&gt;Node5 -->
<g id="edge24" class="edge"><title>Node15&#45;&gt;Node5</title>
<path fill="none" stroke="midnightblue" d="M641.093,-177.097C645.052,-179.648 648.729,-182.596 652,-186 705.81,-242.004 639.845,-296.065 688,-357 691.028,-360.831 694.783,-364.105 698.888,-366.895"/>
<polygon fill="midnightblue" stroke="midnightblue" points="642.48,-173.866 632.029,-172.124 639.113,-180.003 642.48,-173.866"/>
</g>
<!-- Node15&#45;&gt;Node8 -->
<g id="edge25" class="edge"><title>Node15&#45;&gt;Node8</title>
<path fill="none" stroke="midnightblue" d="M641.222,-179.241C644.997,-181.252 648.615,-183.496 652,-186 698.77,-220.599 725.928,-287.78 736.215,-317.832"/>
<polygon fill="midnightblue" stroke="midnightblue" points="642.702,-176.069 632.166,-174.958 639.71,-182.397 642.702,-176.069"/>
</g>
<!-- Node16&#45;&gt;Node5 -->
<g id="edge27" class="edge"><title>Node16&#45;&gt;Node5</title>
<path fill="none" stroke="midnightblue" d="M620.168,-118.177C632.149,-121.909 643.557,-127.805 652,-137 719.01,-209.981 628.346,-277.894 688,-357 690.879,-360.818 694.487,-364.076 698.46,-366.852"/>
<polygon fill="midnightblue" stroke="midnightblue" points="621.045,-114.789 610.483,-115.626 619.262,-121.558 621.045,-114.789"/>
</g>
<!-- Node16&#45;&gt;Node8 -->
<g id="edge28" class="edge"><title>Node16&#45;&gt;Node8</title>
<path fill="none" stroke="midnightblue" d="M619.949,-120.459C631.518,-124.064 642.821,-129.331 652,-137 710.362,-185.761 732.177,-280.852 738.67,-317.804"/>
<polygon fill="midnightblue" stroke="midnightblue" points="620.779,-117.057 610.21,-117.805 618.938,-123.811 620.779,-117.057"/>
</g>
<!-- Node17&#45;&gt;Node5 -->
<g id="edge30" class="edge"><title>Node17&#45;&gt;Node5</title>
<path fill="none" stroke="midnightblue" d="M635.956,-75.502C641.954,-78.78 647.436,-82.8816 652,-88 732.276,-178.029 616.786,-259.644 688,-357 690.823,-360.859 694.396,-364.144 698.348,-366.936"/>
<polygon fill="midnightblue" stroke="midnightblue" points="637.389,-72.3086 626.845,-71.2661 634.437,-78.656 637.389,-72.3086"/>
</g>
<!-- Node17&#45;&gt;Node8 -->
<g id="edge31" class="edge"><title>Node17&#45;&gt;Node8</title>
<path fill="none" stroke="midnightblue" d="M636.182,-77.2798C641.91,-80.2011 647.279,-83.7333 652,-88 722.337,-151.57 737.157,-275.173 740.22,-317.979"/>
<polygon fill="midnightblue" stroke="midnightblue" points="637.488,-74.0303 626.927,-73.1744 634.649,-80.4289 637.488,-74.0303"/>
</g>
<!-- Node18&#45;&gt;Node5 -->
<g id="edge33" class="edge"><title>Node18&#45;&gt;Node5</title>
<path fill="none" stroke="midnightblue" d="M620.133,-19.7423C632.233,-23.487 643.699,-29.4977 652,-39 745.578,-146.118 605.195,-241.352 688,-357 690.724,-360.805 694.181,-364.05 698.019,-366.813"/>
<polygon fill="midnightblue" stroke="midnightblue" points="620.901,-16.3255 610.342,-17.2015 619.142,-23.1011 620.901,-16.3255"/>
</g>
<!-- Node18&#45;&gt;Node8 -->
<g id="edge34" class="edge"><title>Node18&#45;&gt;Node8</title>
<path fill="none" stroke="midnightblue" d="M620.014,-21.285C631.789,-24.964 643.156,-30.5576 652,-39 734.359,-117.616 741.248,-269.589 741.265,-317.882"/>
<polygon fill="midnightblue" stroke="midnightblue" points="620.638,-17.8288 610.073,-18.6244 618.828,-24.5908 620.638,-17.8288"/>
</g>
<!-- Node19&#45;&gt;Node5 -->
<g id="edge36" class="edge"><title>Node19&#45;&gt;Node5</title>
<path fill="none" stroke="midnightblue" d="M620.074,-644.507C631.737,-640.736 643.045,-635.174 652,-627 721.856,-563.236 736.97,-440.29 740.166,-397.294"/>
<polygon fill="midnightblue" stroke="midnightblue" points="618.917,-641.196 610.237,-647.271 620.811,-647.935 618.917,-641.196"/>
</g>
<!-- Node19&#45;&gt;Node8 -->
<g id="edge37" class="edge"><title>Node19&#45;&gt;Node8</title>
<path fill="none" stroke="midnightblue" d="M620.03,-646.435C632.136,-642.572 643.63,-636.485 652,-627 732.1,-536.226 615.793,-454.17 688,-357 690.53,-353.595 693.657,-350.661 697.116,-348.136"/>
<polygon fill="midnightblue" stroke="midnightblue" points="618.98,-643.093 610.238,-649.078 620.804,-649.851 618.98,-643.093"/>
</g>
<!-- Node20&#45;&gt;Node5 -->
<g id="edge39" class="edge"><title>Node20&#45;&gt;Node5</title>
<path fill="none" stroke="midnightblue" d="M623.302,-593.707C633.693,-590.05 643.717,-584.99 652,-578 710.121,-528.952 732.078,-434.03 738.639,-397.16"/>
<polygon fill="midnightblue" stroke="midnightblue" points="622.21,-590.382 613.696,-596.687 624.284,-597.067 622.21,-590.382"/>
</g>
<!-- Node20&#45;&gt;Node8 -->
<g id="edge40" class="edge"><title>Node20&#45;&gt;Node8</title>
<path fill="none" stroke="midnightblue" d="M623.555,-595.986C634.295,-592.117 644.372,-586.396 652,-578 718.917,-504.341 627.494,-436.01 688,-357 690.579,-353.632 693.739,-350.723 697.219,-348.213"/>
<polygon fill="midnightblue" stroke="midnightblue" points="622.52,-592.643 613.993,-598.93 624.58,-599.333 622.52,-592.643"/>
</g>
<!-- Node21&#45;&gt;Node5 -->
<g id="edge42" class="edge"><title>Node21&#45;&gt;Node5</title>
<path fill="none" stroke="midnightblue" d="M637.351,-537.838C642.53,-535.308 647.475,-532.382 652,-529 698.598,-494.171 725.846,-427.11 736.186,-397.129"/>
<polygon fill="midnightblue" stroke="midnightblue" points="635.592,-534.786 627.813,-541.979 638.379,-541.207 635.592,-534.786"/>
</g>
<!-- Node21&#45;&gt;Node8 -->
<g id="edge43" class="edge"><title>Node21&#45;&gt;Node8</title>
<path fill="none" stroke="midnightblue" d="M636.896,-540.561C642.467,-537.431 647.606,-533.625 652,-529 705.8,-472.384 639.137,-417.927 688,-357 690.717,-353.612 694.017,-350.685 697.627,-348.159"/>
<polygon fill="midnightblue" stroke="midnightblue" points="635.311,-537.439 627.829,-544.941 638.356,-543.742 635.311,-537.439"/>
</g>
<!-- Node22&#45;&gt;Node5 -->
<g id="edge45" class="edge"><title>Node22&#45;&gt;Node5</title>
<path fill="none" stroke="midnightblue" d="M625.568,-492.08C634.806,-488.89 643.884,-484.925 652,-480 687.367,-458.539 717,-418.808 731.477,-397.109"/>
<polygon fill="midnightblue" stroke="midnightblue" points="624.396,-488.779 615.917,-495.131 626.507,-495.454 624.396,-488.779"/>
</g>
<!-- Node22&#45;&gt;Node8 -->
<g id="edge46" class="edge"><title>Node22&#45;&gt;Node8</title>
<path fill="none" stroke="midnightblue" d="M625.225,-496.28C635.13,-492.537 644.497,-487.3 652,-480 692.825,-440.279 650.649,-400.004 688,-357 690.981,-353.568 694.551,-350.601 698.412,-348.042"/>
<polygon fill="midnightblue" stroke="midnightblue" points="624.02,-492.991 615.606,-499.43 626.199,-499.644 624.02,-492.991"/>
</g>
<!-- Node23&#45;&gt;Node5 -->
<g id="edge48" class="edge"><title>Node23&#45;&gt;Node5</title>
<path fill="none" stroke="midnightblue" d="M637.556,-327.273C642.505,-329.033 647.357,-330.939 652,-333 669.576,-340.801 671.259,-347.539 688,-357 694.111,-360.454 700.779,-363.862 707.258,-366.998"/>
<polygon fill="midnightblue" stroke="midnightblue" points="638.541,-323.912 627.947,-324.066 636.325,-330.552 638.541,-323.912"/>
</g>
<!-- Node23&#45;&gt;Node8 -->
<g id="edge49" class="edge"><title>Node23&#45;&gt;Node8</title>
<path fill="none" stroke="midnightblue" d="M638.46,-319.625C655.166,-321.804 672.342,-324.045 687.745,-326.054"/>
<polygon fill="midnightblue" stroke="midnightblue" points="638.508,-316.102 628.139,-318.279 637.602,-323.043 638.508,-316.102"/>
</g>
<!-- Node24&#45;&gt;Node5 -->
<g id="edge51" class="edge"><title>Node24&#45;&gt;Node5</title>
<path fill="none" stroke="midnightblue" d="M619.758,-267.691C631.342,-271.278 642.7,-276.479 652,-284 680.128,-306.748 662.199,-331.644 688,-357 691.846,-360.779 696.371,-364.065 701.129,-366.9"/>
<polygon fill="midnightblue" stroke="midnightblue" points="620.583,-264.289 610.015,-265.043 618.746,-271.044 620.583,-264.289"/>
</g>
<!-- Node24&#45;&gt;Node8 -->
<g id="edge52" class="edge"><title>Node24&#45;&gt;Node8</title>
<path fill="none" stroke="midnightblue" d="M619.905,-273.471C630.761,-276.479 641.821,-279.989 652,-284 675.303,-293.182 700.137,-307.254 717.635,-317.966"/>
<polygon fill="midnightblue" stroke="midnightblue" points="620.587,-270.03 610.023,-270.849 618.792,-276.796 620.587,-270.03"/>
</g>
</g>
</svg>
        <g id="navigator" transform="translate(0 0)" fill="#404254">
                <rect fill="#f2f5e9" fill-opacity="0.5" stroke="#606060" stroke-width=".5" x="0" y="0" width="60" height="60"/>
                <use id="zoomplus" xlink:href="#zoomPlus" x="17" y="9" onmousedown="handleZoom(evt,'in')"/>
                <use id="zoomminus" xlink:href="#zoomMin" x="42" y="9" onmousedown="handleZoom(evt,'out')"/>
                <use id="reset" xlink:href="#resetDef" x="30" y="36" onmousedown="handleReset()"/>
                <g id="arrowUp" xlink:href="#dirArrow" transform="translate(30 24)" onmousedown="handlePan(0,-1)">
                  <use xlink:href="#rim" fill="#404040">
                        <set attributeName="fill" to="#808080" begin="arrowUp.mouseover" end="arrowUp.mouseout"/>
                  </use>
                  <path fill="none" stroke="white" stroke-width="1.5" d="M0,-3.0v7 M-2.5,-0.5L0,-3.0L2.5,-0.5"/>
                </g>
                <g id="arrowRight" xlink:href="#dirArrow" transform="rotate(90) translate(36 -43)" onmousedown="handlePan(1,0)">
                  <use xlink:href="#rim" fill="#404040">
                        <set attributeName="fill" to="#808080" begin="arrowRight.mouseover" end="arrowRight.mouseout"/>
                  </use>
                  <path fill="none" stroke="white" stroke-width="1.5" d="M0,-3.0v7 M-2.5,-0.5L0,-3.0L2.5,-0.5"/>
                </g>
                <g id="arrowDown" xlink:href="#dirArrow" transform="rotate(180) translate(-30 -48)" onmousedown="handlePan(0,1)">
                  <use xlink:href="#rim" fill="#404040">
                        <set attributeName="fill" to="#808080" begin="arrowDown.mouseover" end="arrowDown.mouseout"/>
                  </use>
                  <path fill="none" stroke="white" stroke-width="1.5" d="M0,-3.0v7 M-2.5,-0.5L0,-3.0L2.5,-0.5"/>
                </g>
                <g id="arrowLeft" xlink:href="#dirArrow" transform="rotate(270) translate(-36 17)" onmousedown="handlePan(-1,0)">
                  <use xlink:href="#rim" fill="#404040">
                        <set attributeName="fill" to="#808080" begin="arrowLeft.mouseover" end="arrowLeft.mouseout"/>
                  </use>
                  <path fill="none" stroke="white" stroke-width="1.5" d="M0,-3.0v7 M-2.5,-0.5L0,-3.0L2.5,-0.5"/>
                </g>
        </g>
        <svg viewBox="0 0 15 15" width="100%" height="30px" preserveAspectRatio="xMaxYMin meet">
         <g id="arrow_out" transform="scale(0.3 0.3)">
          <a xlink:href="classICED_1_1HalfCell_1_1DeviceData_af4d13d54a16ba494be74358656df1381_af4d13d54a16ba494be74358656df1381_icgraph_org.svg" target="_base">
           <rect id="button" ry="5" rx="5" y="6" x="6" height="38" width="38"
                fill="#f2f5e9" fill-opacity="0.5" stroke="#606060" stroke-width="1.0"/>
           <path id="arrow"
             d="M 11.500037,31.436501 C 11.940474,20.09759 22.043105,11.32322 32.158766,21.979434 L 37.068811,17.246167 C 37.068811,17.246167 37.088388,32 37.088388,32 L 22.160133,31.978069 C 22.160133,31.978069 26.997745,27.140456 26.997745,27.140456 C 18.528582,18.264221 13.291696,25.230495 11.500037,31.436501 z"
             style="fill:#404040;"/>
          </a>
         </g>
        </svg>
</svg>
