<?xml version="1.0" encoding="UTF-8" standalone="no"?>
<!DOCTYPE svg PUBLIC "-//W3C//DTD SVG 1.1//EN"
 "http://www.w3.org/Graphics/SVG/1.1/DTD/svg11.dtd">
<!-- Generated by graphviz version 2.30.1 (20150305.2338)
 -->
<!-- Title: PhysicsModule Pages: 1 -->
<!--zoomable 484 -->
<svg id="main" version="1.1" xmlns="http://www.w3.org/2000/svg" xmlns:xlink="http://www.w3.org/1999/xlink" xml:space="preserve" onload="init(evt)">
<style type="text/css"><![CDATA[
.edge:hover path { stroke: red; }
.edge:hover polygon { stroke: red; fill: red; }
]]></style>
<script type="text/javascript"><![CDATA[
var edges = document.getElementsByTagName('g');
if (edges && edges.length) {
  for (var i=0;i<edges.length;i++) {
    if (edges[i].id.substr(0,4)=='edge') {
      edges[i].setAttribute('class','edge');
    }
  }
}
]]></script>
        <defs>
                <circle id="rim" cx="0" cy="0" r="7"/>
                <circle id="rim2" cx="0" cy="0" r="3.5"/>
                <g id="zoomPlus">
                        <use xlink:href="#rim" fill="#404040">
                                <set attributeName="fill" to="#808080" begin="zoomplus.mouseover" end="zoomplus.mouseout"/>
                        </use>
                        <path d="M-4,0h8M0,-4v8" fill="none" stroke="white" stroke-width="1.5" pointer-events="none"/>
                </g>
                <g id="zoomMin">
                        <use xlink:href="#rim" fill="#404040">
                                <set attributeName="fill" to="#808080" begin="zoomminus.mouseover" end="zoomminus.mouseout"/>
                        </use>
                        <path d="M-4,0h8" fill="none" stroke="white" stroke-width="1.5" pointer-events="none"/>
                </g>
                <g id="dirArrow">
                        <path fill="none" stroke="white" stroke-width="1.5" d="M0,-3.0v7 M-2.5,-0.5L0,-3.0L2.5,-0.5"/>
                </g>
               <g id="resetDef">
                       <use xlink:href="#rim2" fill="#404040">
                               <set attributeName="fill" to="#808080" begin="reset.mouseover" end="reset.mouseout"/>
                       </use>
               </g>
        </defs>

<script type="text/javascript">
var viewWidth = 346;
var viewHeight = 484;
var sectionId = 'dynsection-0';
</script>
<script xlink:href="svgpan.js"/>
<svg id="graph" class="graph">
<g id="viewport">
<title>PhysicsModule</title>
<!-- Node1 -->
<g id="node1" class="node"><title>Node1</title>
<polygon fill="#bfbfbf" stroke="black" points="102.5,-228.5 102.5,-247.5 185.5,-247.5 185.5,-228.5 102.5,-228.5"/>
<text text-anchor="middle" x="144" y="-235.5" font-family="Helvetica,sans-Serif" font-size="10.00">PhysicsModule</text>
</g>
<!-- Node3 -->
<g id="node3" class="node"><title>Node3</title>
<g id="a_node3"><a xlink:href="classICED_1_1HalfCell_1_1ActivityCoefficient.html" target="_top" xlink:title="Physics module for activity coefficient of species i . ">
<polygon fill="none" stroke="black" points="231.5,-456.5 231.5,-475.5 328.5,-475.5 328.5,-456.5 231.5,-456.5"/>
<text text-anchor="middle" x="280" y="-463.5" font-family="Helvetica,sans-Serif" font-size="10.00">ActivityCoefficient</text>
</a>
</g>
</g>
<!-- Node1&#45;&gt;Node3 -->
<g id="edge2" class="edge"><title>Node1&#45;&gt;Node3</title>
<path fill="none" stroke="midnightblue" d="M146.701,-258.037C151.267,-299.257 167.432,-394.11 222,-447 225.97,-450.848 230.739,-453.917 235.806,-456.364"/>
<polygon fill="midnightblue" stroke="midnightblue" points="150.167,-257.519 145.699,-247.913 143.201,-258.209 150.167,-257.519"/>
</g>
<!-- Node4 -->
<g id="node4" class="node"><title>Node4</title>
<g id="a_node4"><a xlink:href="classICED_1_1HalfCell_1_1ButlerVolmer.html" target="_top" xlink:title="Physics module for Butler&#45;Volmer part of the system. ">
<polygon fill="none" stroke="black" points="243.5,-418.5 243.5,-437.5 316.5,-437.5 316.5,-418.5 243.5,-418.5"/>
<text text-anchor="middle" x="280" y="-425.5" font-family="Helvetica,sans-Serif" font-size="10.00">ButlerVolmer</text>
</a>
</g>
</g>
<!-- Node1&#45;&gt;Node4 -->
<g id="edge3" class="edge"><title>Node1&#45;&gt;Node4</title>
<path fill="none" stroke="midnightblue" d="M148.516,-257.747C155.833,-293.115 176.003,-367.443 222,-409 228.037,-414.454 235.687,-418.349 243.406,-421.128"/>
<polygon fill="midnightblue" stroke="midnightblue" points="151.913,-256.877 146.576,-247.725 145.041,-258.208 151.913,-256.877"/>
</g>
<!-- Node5 -->
<g id="node5" class="node"><title>Node5</title>
<g id="a_node5"><a xlink:href="classICED_1_1HalfCell_1_1ConcentrationDiffusion.html" target="_top" xlink:title="Physics module for ConcentrationDiffusion of species i. ">
<polygon fill="none" stroke="black" points="222,-380.5 222,-399.5 338,-399.5 338,-380.5 222,-380.5"/>
<text text-anchor="middle" x="280" y="-387.5" font-family="Helvetica,sans-Serif" font-size="10.00">ConcentrationDiffusion</text>
</a>
</g>
</g>
<!-- Node1&#45;&gt;Node5 -->
<g id="edge4" class="edge"><title>Node1&#45;&gt;Node5</title>
<path fill="none" stroke="midnightblue" d="M151.184,-257.33C161.378,-286.174 184.406,-340.358 222,-371 226.77,-374.888 232.37,-377.994 238.162,-380.47"/>
<polygon fill="midnightblue" stroke="midnightblue" points="154.42,-255.971 147.902,-247.618 147.788,-258.212 154.42,-255.971"/>
</g>
<!-- Node6 -->
<g id="node6" class="node"><title>Node6</title>
<g id="a_node6"><a xlink:href="classICED_1_1HalfCell_1_1Diffusion.html" target="_top" xlink:title="Physics module that handles non&#45;linear diffusion. ">
<polygon fill="none" stroke="black" points="252,-342.5 252,-361.5 308,-361.5 308,-342.5 252,-342.5"/>
<text text-anchor="middle" x="280" y="-349.5" font-family="Helvetica,sans-Serif" font-size="10.00">Diffusion</text>
</a>
</g>
</g>
<!-- Node1&#45;&gt;Node6 -->
<g id="edge5" class="edge"><title>Node1&#45;&gt;Node6</title>
<path fill="none" stroke="midnightblue" d="M155.391,-256.342C168.366,-277.672 192.486,-312.56 222,-333 230.833,-339.117 241.785,-343.388 251.721,-346.307"/>
<polygon fill="midnightblue" stroke="midnightblue" points="158.329,-254.433 150.235,-247.596 152.299,-257.988 158.329,-254.433"/>
</g>
<!-- Node7 -->
<g id="node7" class="node"><title>Node7</title>
<g id="a_node7"><a xlink:href="classICED_1_1HalfCell_1_1electronMigration.html" target="_top" xlink:title="Physics module for electron migration. ">
<polygon fill="none" stroke="black" points="234.5,-304.5 234.5,-323.5 325.5,-323.5 325.5,-304.5 234.5,-304.5"/>
<text text-anchor="middle" x="280" y="-311.5" font-family="Helvetica,sans-Serif" font-size="10.00">electronMigration</text>
</a>
</g>
</g>
<!-- Node1&#45;&gt;Node7 -->
<g id="edge6" class="edge"><title>Node1&#45;&gt;Node7</title>
<path fill="none" stroke="midnightblue" d="M163.667,-254.464C178.605,-266.96 200.536,-283.839 222,-295 229.034,-298.657 236.915,-301.818 244.52,-304.454"/>
<polygon fill="midnightblue" stroke="midnightblue" points="165.613,-251.523 155.736,-247.689 161.066,-256.845 165.613,-251.523"/>
</g>
<!-- Node8 -->
<g id="node8" class="node"><title>Node8</title>
<g id="a_node8"><a xlink:href="classICED_1_1HalfCell_1_1Intercalation.html" target="_top" xlink:title="The Intercalation function is a module that solves the time&#45;dependent, second&#45;order diffusion equatio...">
<polygon fill="none" stroke="black" points="245,-266.5 245,-285.5 315,-285.5 315,-266.5 245,-266.5"/>
<text text-anchor="middle" x="280" y="-273.5" font-family="Helvetica,sans-Serif" font-size="10.00">Intercalation</text>
</a>
</g>
</g>
<!-- Node1&#45;&gt;Node8 -->
<g id="edge7" class="edge"><title>Node1&#45;&gt;Node8</title>
<path fill="none" stroke="midnightblue" d="M188.438,-250.318C206.849,-255.539 227.98,-261.532 245.197,-266.414"/>
<polygon fill="midnightblue" stroke="midnightblue" points="189.389,-246.95 178.814,-247.589 187.48,-253.685 189.389,-246.95"/>
</g>
<!-- Node9 -->
<g id="node9" class="node"><title>Node9</title>
<g id="a_node9"><a xlink:href="classICED_1_1HalfCell_1_1ionMigration.html" target="_top" xlink:title="Physics module for ion migration. ">
<polygon fill="none" stroke="black" points="245.5,-228.5 245.5,-247.5 314.5,-247.5 314.5,-228.5 245.5,-228.5"/>
<text text-anchor="middle" x="280" y="-235.5" font-family="Helvetica,sans-Serif" font-size="10.00">ionMigration</text>
</a>
</g>
</g>
<!-- Node1&#45;&gt;Node9 -->
<g id="edge8" class="edge"><title>Node1&#45;&gt;Node9</title>
<path fill="none" stroke="midnightblue" d="M195.681,-238C212.283,-238 230.308,-238 245.332,-238"/>
<polygon fill="midnightblue" stroke="midnightblue" points="195.568,-234.5 185.568,-238 195.568,-241.5 195.568,-234.5"/>
</g>
<!-- Node10 -->
<g id="node10" class="node"><title>Node10</title>
<g id="a_node10"><a xlink:href="classICED_1_1HalfCell_1_1IonMigration.html" target="_top" xlink:title="Physics module for ion migration. ">
<polygon fill="none" stroke="black" points="245,-190.5 245,-209.5 315,-209.5 315,-190.5 245,-190.5"/>
<text text-anchor="middle" x="280" y="-197.5" font-family="Helvetica,sans-Serif" font-size="10.00">IonMigration</text>
</a>
</g>
</g>
<!-- Node1&#45;&gt;Node10 -->
<g id="edge9" class="edge"><title>Node1&#45;&gt;Node10</title>
<path fill="none" stroke="midnightblue" d="M188.438,-225.682C206.849,-220.461 227.98,-214.468 245.197,-209.586"/>
<polygon fill="midnightblue" stroke="midnightblue" points="187.48,-222.315 178.814,-228.411 189.389,-229.05 187.48,-222.315"/>
</g>
<!-- Node11 -->
<g id="node11" class="node"><title>Node11</title>
<g id="a_node11"><a xlink:href="classICED_1_1HalfCell_1_1OhmsLawElectrolyte.html" target="_top" xlink:title="Physics module for Ohms Law equation for the electrolyte. ">
<polygon fill="none" stroke="black" points="226.5,-152.5 226.5,-171.5 333.5,-171.5 333.5,-152.5 226.5,-152.5"/>
<text text-anchor="middle" x="280" y="-159.5" font-family="Helvetica,sans-Serif" font-size="10.00">OhmsLawElectrolyte</text>
</a>
</g>
</g>
<!-- Node1&#45;&gt;Node11 -->
<g id="edge10" class="edge"><title>Node1&#45;&gt;Node11</title>
<path fill="none" stroke="midnightblue" d="M163.667,-221.536C178.605,-209.04 200.536,-192.161 222,-181 229.034,-177.343 236.915,-174.182 244.52,-171.546"/>
<polygon fill="midnightblue" stroke="midnightblue" points="161.066,-219.155 155.736,-228.311 165.613,-224.477 161.066,-219.155"/>
</g>
<!-- Node12 -->
<g id="node12" class="node"><title>Node12</title>
<g id="a_node12"><a xlink:href="classICED_1_1HalfCell_1_1OhmsLawSolid.html" target="_top" xlink:title="Physics module for Ohms Law in the solid phase. ">
<polygon fill="none" stroke="black" points="238.5,-114.5 238.5,-133.5 321.5,-133.5 321.5,-114.5 238.5,-114.5"/>
<text text-anchor="middle" x="280" y="-121.5" font-family="Helvetica,sans-Serif" font-size="10.00">OhmsLawSolid</text>
</a>
</g>
</g>
<!-- Node1&#45;&gt;Node12 -->
<g id="edge11" class="edge"><title>Node1&#45;&gt;Node12</title>
<path fill="none" stroke="midnightblue" d="M155.391,-219.658C168.366,-198.328 192.486,-163.44 222,-143 227.574,-139.14 233.992,-136.015 240.466,-133.501"/>
<polygon fill="midnightblue" stroke="midnightblue" points="152.299,-218.012 150.235,-228.404 158.329,-221.567 152.299,-218.012"/>
</g>
<!-- Node13 -->
<g id="node13" class="node"><title>Node13</title>
<g id="a_node13"><a xlink:href="classICED_1_1HalfCell_1_1testModule.html" target="_top" xlink:title="Physics module for testing. ">
<polygon fill="none" stroke="black" points="247.5,-76.5 247.5,-95.5 312.5,-95.5 312.5,-76.5 247.5,-76.5"/>
<text text-anchor="middle" x="280" y="-83.5" font-family="Helvetica,sans-Serif" font-size="10.00">testModule</text>
</a>
</g>
</g>
<!-- Node1&#45;&gt;Node13 -->
<g id="edge12" class="edge"><title>Node1&#45;&gt;Node13</title>
<path fill="none" stroke="midnightblue" d="M151.184,-218.67C161.378,-189.826 184.406,-135.642 222,-105 229.277,-99.0686 238.482,-94.9594 247.361,-92.1243"/>
<polygon fill="midnightblue" stroke="midnightblue" points="147.788,-217.788 147.902,-228.382 154.42,-220.029 147.788,-217.788"/>
</g>
<!-- Node14 -->
<g id="node14" class="node"><title>Node14</title>
<g id="a_node14"><a xlink:href="classICED_1_1HalfCell_1_1TransferenceNumber.html" target="_top" xlink:title="Physics module for transference number of species i. ">
<polygon fill="none" stroke="black" points="226,-38.5 226,-57.5 334,-57.5 334,-38.5 226,-38.5"/>
<text text-anchor="middle" x="280" y="-45.5" font-family="Helvetica,sans-Serif" font-size="10.00">TransferenceNumber</text>
</a>
</g>
</g>
<!-- Node1&#45;&gt;Node14 -->
<g id="edge13" class="edge"><title>Node1&#45;&gt;Node14</title>
<path fill="none" stroke="midnightblue" d="M148.516,-218.253C155.833,-182.885 176.003,-108.557 222,-67 226.257,-63.1539 231.316,-60.0835 236.635,-57.6329"/>
<polygon fill="midnightblue" stroke="midnightblue" points="145.041,-217.792 146.576,-228.275 151.913,-219.123 145.041,-217.792"/>
</g>
<!-- Node15 -->
<g id="node15" class="node"><title>Node15</title>
<g id="a_node15"><a xlink:href="classICED_1_1HalfCell_1_1WallFlux.html" target="_top" xlink:title="Physics module for Wall Flux. ">
<polygon fill="none" stroke="black" points="252.5,-0.5 252.5,-19.5 307.5,-19.5 307.5,-0.5 252.5,-0.5"/>
<text text-anchor="middle" x="280" y="-7.5" font-family="Helvetica,sans-Serif" font-size="10.00">WallFlux</text>
</a>
</g>
</g>
<!-- Node1&#45;&gt;Node15 -->
<g id="edge14" class="edge"><title>Node1&#45;&gt;Node15</title>
<path fill="none" stroke="midnightblue" d="M146.701,-217.963C151.267,-176.743 167.432,-81.8897 222,-29 230.164,-21.0868 241.71,-16.4677 252.277,-13.7721"/>
<polygon fill="midnightblue" stroke="midnightblue" points="143.201,-217.791 145.699,-228.087 150.167,-218.481 143.201,-217.791"/>
</g>
<!-- Node2 -->
<g id="node2" class="node"><title>Node2</title>
<polygon fill="none" stroke="#bfbfbf" points="0,-228.5 0,-247.5 66,-247.5 66,-228.5 0,-228.5"/>
<text text-anchor="middle" x="33" y="-235.5" font-family="Helvetica,sans-Serif" font-size="10.00">GlobalType</text>
</g>
<!-- Node2&#45;&gt;Node1 -->
<g id="edge1" class="edge"><title>Node2&#45;&gt;Node1</title>
<path fill="none" stroke="midnightblue" d="M76.246,-238C84.7733,-238 93.7227,-238 102.199,-238"/>
<polygon fill="midnightblue" stroke="midnightblue" points="76.1141,-234.5 66.1141,-238 76.114,-241.5 76.1141,-234.5"/>
</g>
</g>
</svg>
        <g id="navigator" transform="translate(0 0)" fill="#404254">
                <rect fill="#f2f5e9" fill-opacity="0.5" stroke="#606060" stroke-width=".5" x="0" y="0" width="60" height="60"/>
                <use id="zoomplus" xlink:href="#zoomPlus" x="17" y="9" onmousedown="handleZoom(evt,'in')"/>
                <use id="zoomminus" xlink:href="#zoomMin" x="42" y="9" onmousedown="handleZoom(evt,'out')"/>
                <use id="reset" xlink:href="#resetDef" x="30" y="36" onmousedown="handleReset()"/>
                <g id="arrowUp" xlink:href="#dirArrow" transform="translate(30 24)" onmousedown="handlePan(0,-1)">
                  <use xlink:href="#rim" fill="#404040">
                        <set attributeName="fill" to="#808080" begin="arrowUp.mouseover" end="arrowUp.mouseout"/>
                  </use>
                  <path fill="none" stroke="white" stroke-width="1.5" d="M0,-3.0v7 M-2.5,-0.5L0,-3.0L2.5,-0.5"/>
                </g>
                <g id="arrowRight" xlink:href="#dirArrow" transform="rotate(90) translate(36 -43)" onmousedown="handlePan(1,0)">
                  <use xlink:href="#rim" fill="#404040">
                        <set attributeName="fill" to="#808080" begin="arrowRight.mouseover" end="arrowRight.mouseout"/>
                  </use>
                  <path fill="none" stroke="white" stroke-width="1.5" d="M0,-3.0v7 M-2.5,-0.5L0,-3.0L2.5,-0.5"/>
                </g>
                <g id="arrowDown" xlink:href="#dirArrow" transform="rotate(180) translate(-30 -48)" onmousedown="handlePan(0,1)">
                  <use xlink:href="#rim" fill="#404040">
                        <set attributeName="fill" to="#808080" begin="arrowDown.mouseover" end="arrowDown.mouseout"/>
                  </use>
                  <path fill="none" stroke="white" stroke-width="1.5" d="M0,-3.0v7 M-2.5,-0.5L0,-3.0L2.5,-0.5"/>
                </g>
                <g id="arrowLeft" xlink:href="#dirArrow" transform="rotate(270) translate(-36 17)" onmousedown="handlePan(-1,0)">
                  <use xlink:href="#rim" fill="#404040">
                        <set attributeName="fill" to="#808080" begin="arrowLeft.mouseover" end="arrowLeft.mouseout"/>
                  </use>
                  <path fill="none" stroke="white" stroke-width="1.5" d="M0,-3.0v7 M-2.5,-0.5L0,-3.0L2.5,-0.5"/>
                </g>
        </g>
        <svg viewBox="0 0 15 15" width="100%" height="30px" preserveAspectRatio="xMaxYMin meet">
         <g id="arrow_out" transform="scale(0.3 0.3)">
          <a xlink:href="classICED_1_1HalfCell_1_1PhysicsModule__inherit__graph_org.svg" target="_base">
           <rect id="button" ry="5" rx="5" y="6" x="6" height="38" width="38"
                fill="#f2f5e9" fill-opacity="0.5" stroke="#606060" stroke-width="1.0"/>
           <path id="arrow"
             d="M 11.500037,31.436501 C 11.940474,20.09759 22.043105,11.32322 32.158766,21.979434 L 37.068811,17.246167 C 37.068811,17.246167 37.088388,32 37.088388,32 L 22.160133,31.978069 C 22.160133,31.978069 26.997745,27.140456 26.997745,27.140456 C 18.528582,18.264221 13.291696,25.230495 11.500037,31.436501 z"
             style="fill:#404040;"/>
          </a>
         </g>
        </svg>
</svg>
