<?xml version="1.0" encoding="UTF-8" standalone="no"?>
<!DOCTYPE svg PUBLIC "-//W3C//DTD SVG 1.1//EN"
 "http://www.w3.org/Graphics/SVG/1.1/DTD/svg11.dtd">
<!-- Generated by graphviz version 2.30.1 (20150305.2338)
 -->
<!-- Title: SolveComponent Pages: 1 -->
<svg width="242pt" height="142pt"
 viewBox="0.00 0.00 242.00 142.00" xmlns="http://www.w3.org/2000/svg" xmlns:xlink="http://www.w3.org/1999/xlink">
<g id="graph0" class="graph" transform="scale(1 1) rotate(0) translate(4 138)">
<title>SolveComponent</title>
<!-- Node1 -->
<g id="node1" class="node"><title>Node1</title>
<polygon fill="#bfbfbf" stroke="black" points="0,-57.5 0,-76.5 92,-76.5 92,-57.5 0,-57.5"/>
<text text-anchor="middle" x="46" y="-64.5" font-family="Helvetica,sans-Serif" font-size="10.00">SolveComponent</text>
</g>
<!-- Node2 -->
<g id="node2" class="node"><title>Node2</title>
<g id="a_node2"><a xlink:href="classICED_1_1HalfCell_1_1DeviceComponent.html#ac8182d981838fc978dce91b0eadefa5b" target="_top" xlink:title="Apply the appropriate component boundary conditions. ">
<polygon fill="none" stroke="black" points="128,-114.5 128,-133.5 234,-133.5 234,-114.5 128,-114.5"/>
<text text-anchor="middle" x="181" y="-121.5" font-family="Helvetica,sans-Serif" font-size="10.00">ApplyComponentBC</text>
</a>
</g>
</g>
<!-- Node1&#45;&gt;Node2 -->
<g id="edge1" class="edge"><title>Node1&#45;&gt;Node2</title>
<path fill="none" stroke="midnightblue" d="M66.0978,-76.544C82.3778,-84.5381 106.49,-96.0452 128,-105 132.812,-107.003 137.92,-109.011 142.981,-110.93"/>
<polygon fill="midnightblue" stroke="midnightblue" points="141.974,-114.29 152.567,-114.49 144.411,-107.728 141.974,-114.29"/>
</g>
<!-- Node3 -->
<g id="node3" class="node"><title>Node3</title>
<g id="a_node3"><a xlink:href="classICED_1_1HalfCell_1_1DeviceComponent.html#afa213bcdb22f5b302ef7f0339075c3a0" target="_top" xlink:title="Apply internal boundary conditions. ">
<polygon fill="none" stroke="black" points="137,-76.5 137,-95.5 225,-95.5 225,-76.5 137,-76.5"/>
<text text-anchor="middle" x="181" y="-83.5" font-family="Helvetica,sans-Serif" font-size="10.00">ApplyInternalBC</text>
</a>
</g>
</g>
<!-- Node1&#45;&gt;Node3 -->
<g id="edge2" class="edge"><title>Node1&#45;&gt;Node3</title>
<path fill="none" stroke="midnightblue" d="M92.0277,-73.4325C103.219,-75.0312 115.318,-76.7598 126.859,-78.4084"/>
<polygon fill="midnightblue" stroke="midnightblue" points="126.424,-81.8818 136.819,-79.8312 127.414,-74.9521 126.424,-81.8818"/>
</g>
<!-- Node4 -->
<g id="node4" class="node"><title>Node4</title>
<g id="a_node4"><a xlink:href="classICED_1_1HalfCell_1_1DeviceComponent.html#ae19ad2b18c0ad3874e344772a050d04d" target="_top" xlink:title="Performs finalization required after calculating component level solutions. ">
<polygon fill="none" stroke="black" points="130.5,-38.5 130.5,-57.5 231.5,-57.5 231.5,-38.5 130.5,-38.5"/>
<text text-anchor="middle" x="181" y="-45.5" font-family="Helvetica,sans-Serif" font-size="10.00">FinalizeComponent</text>
</a>
</g>
</g>
<!-- Node1&#45;&gt;Node4 -->
<g id="edge3" class="edge"><title>Node1&#45;&gt;Node4</title>
<path fill="none" stroke="midnightblue" d="M92.0277,-60.5675C101.104,-59.2709 110.778,-57.8889 120.266,-56.5334"/>
<polygon fill="midnightblue" stroke="midnightblue" points="121.048,-59.9574 130.452,-55.0783 120.058,-53.0277 121.048,-59.9574"/>
</g>
<!-- Node5 -->
<g id="node5" class="node"><title>Node5</title>
<g id="a_node5"><a xlink:href="classICED_1_1HalfCell_1_1DeviceComponent.html#a5cdfd806fa59b599cd9820bcf7cda2f3" target="_top" xlink:title="Performs initialization required to calculate component level solutions. ">
<polygon fill="none" stroke="black" points="129.5,-0.5 129.5,-19.5 232.5,-19.5 232.5,-0.5 129.5,-0.5"/>
<text text-anchor="middle" x="181" y="-7.5" font-family="Helvetica,sans-Serif" font-size="10.00">InitializeComponent</text>
</a>
</g>
</g>
<!-- Node1&#45;&gt;Node5 -->
<g id="edge4" class="edge"><title>Node1&#45;&gt;Node5</title>
<path fill="none" stroke="midnightblue" d="M66.0978,-57.456C82.3778,-49.4619 106.49,-37.9548 128,-29 132.812,-26.9966 137.92,-24.9893 142.981,-23.0696"/>
<polygon fill="midnightblue" stroke="midnightblue" points="144.411,-26.2722 152.567,-19.5102 141.974,-19.71 144.411,-26.2722"/>
</g>
</g>
</svg>
