<?xml version="1.0" encoding="UTF-8" standalone="no"?>
<!DOCTYPE svg PUBLIC "-//W3C//DTD SVG 1.1//EN"
 "http://www.w3.org/Graphics/SVG/1.1/DTD/svg11.dtd">
<!-- Generated by graphviz version 2.30.1 (20150305.2338)
 -->
<!-- Title: ApplyComponentBC Pages: 1 -->
<svg width="288pt" height="66pt"
 viewBox="0.00 0.00 288.00 66.00" xmlns="http://www.w3.org/2000/svg" xmlns:xlink="http://www.w3.org/1999/xlink">
<g id="graph0" class="graph" transform="scale(1 1) rotate(0) translate(4 62)">
<title>ApplyComponentBC</title>
<!-- Node1 -->
<g id="node1" class="node"><title>Node1</title>
<polygon fill="#bfbfbf" stroke="black" points="0,-19.5 0,-38.5 106,-38.5 106,-19.5 0,-19.5"/>
<text text-anchor="middle" x="53" y="-26.5" font-family="Helvetica,sans-Serif" font-size="10.00">ApplyComponentBC</text>
</g>
<!-- Node2 -->
<g id="node2" class="node"><title>Node2</title>
<g id="a_node2"><a xlink:href="classICED_1_1HalfCell_1_1DeviceComponent_ac3e788385c83425108793038c831b363.html#ac3e788385c83425108793038c831b363" target="_top" xlink:title="Performs initialization of physics module data outside of timestepping. ">
<polygon fill="none" stroke="black" points="142,-38.5 142,-57.5 280,-57.5 280,-38.5 142,-38.5"/>
<text text-anchor="middle" x="211" y="-45.5" font-family="Helvetica,sans-Serif" font-size="10.00">InitializeComponentPhysics</text>
</a>
</g>
</g>
<!-- Node1&#45;&gt;Node2 -->
<g id="edge1" class="edge"><title>Node1&#45;&gt;Node2</title>
<path fill="none" stroke="midnightblue" d="M116.461,-36.6074C124.849,-37.6291 133.488,-38.6812 141.967,-39.7139"/>
<polygon fill="midnightblue" stroke="midnightblue" points="116.73,-33.1144 106.38,-35.3796 115.883,-40.063 116.73,-33.1144"/>
</g>
<!-- Node3 -->
<g id="node3" class="node"><title>Node3</title>
<g id="a_node3"><a xlink:href="classICED_1_1HalfCell_1_1DeviceComponent_a31e18fc12be0455b47cddcf599131bc3.html#a31e18fc12be0455b47cddcf599131bc3" target="_top" xlink:title="Populate the component solution matricies. ">
<polygon fill="none" stroke="black" points="165,-0.5 165,-19.5 257,-19.5 257,-0.5 165,-0.5"/>
<text text-anchor="middle" x="211" y="-7.5" font-family="Helvetica,sans-Serif" font-size="10.00">SolveComponent</text>
</a>
</g>
</g>
<!-- Node1&#45;&gt;Node3 -->
<g id="edge2" class="edge"><title>Node1&#45;&gt;Node3</title>
<path fill="none" stroke="midnightblue" d="M116.321,-21.4096C132.526,-19.4359 149.673,-17.3476 164.805,-15.5046"/>
<polygon fill="midnightblue" stroke="midnightblue" points="115.883,-17.937 106.38,-22.6204 116.73,-24.8856 115.883,-17.937"/>
</g>
</g>
</svg>
