<?xml version="1.0" encoding="UTF-8" standalone="no"?>
<!DOCTYPE svg PUBLIC "-//W3C//DTD SVG 1.1//EN"
 "http://www.w3.org/Graphics/SVG/1.1/DTD/svg11.dtd">
<!-- Generated by graphviz version 2.30.1 (20150305.2338)
 -->
<!-- Title: InitializeComponent Pages: 1 -->
<svg width="286pt" height="66pt"
 viewBox="0.00 0.00 286.00 66.00" xmlns="http://www.w3.org/2000/svg" xmlns:xlink="http://www.w3.org/1999/xlink">
<g id="graph0" class="graph" transform="scale(1 1) rotate(0) translate(4 62)">
<title>InitializeComponent</title>
<!-- Node1 -->
<g id="node1" class="node"><title>Node1</title>
<polygon fill="#bfbfbf" stroke="black" points="0.5,-19.5 0.5,-38.5 103.5,-38.5 103.5,-19.5 0.5,-19.5"/>
<text text-anchor="middle" x="52" y="-26.5" font-family="Helvetica,sans-Serif" font-size="10.00">InitializeComponent</text>
</g>
<!-- Node2 -->
<g id="node2" class="node"><title>Node2</title>
<g id="a_node2"><a xlink:href="classICED_1_1HalfCell_1_1DeviceComponent.html#ac3e788385c83425108793038c831b363" target="_top" xlink:title="Performs initialization of physics module data outside of timestepping. ">
<polygon fill="none" stroke="black" points="140,-38.5 140,-57.5 278,-57.5 278,-38.5 140,-38.5"/>
<text text-anchor="middle" x="209" y="-45.5" font-family="Helvetica,sans-Serif" font-size="10.00">InitializeComponentPhysics</text>
</a>
</g>
</g>
<!-- Node1&#45;&gt;Node2 -->
<g id="edge1" class="edge"><title>Node1&#45;&gt;Node2</title>
<path fill="none" stroke="midnightblue" d="M113.699,-36.4406C122.309,-37.496 131.21,-38.587 139.948,-39.6581"/>
<polygon fill="midnightblue" stroke="midnightblue" points="114.104,-32.9641 103.753,-35.2213 113.253,-39.9121 114.104,-32.9641"/>
</g>
<!-- Node3 -->
<g id="node3" class="node"><title>Node3</title>
<g id="a_node3"><a xlink:href="classICED_1_1HalfCell_1_1DeviceComponent.html#a31e18fc12be0455b47cddcf599131bc3" target="_top" xlink:title="Populate the component solution matricies. ">
<polygon fill="none" stroke="black" points="163,-0.5 163,-19.5 255,-19.5 255,-0.5 163,-0.5"/>
<text text-anchor="middle" x="209" y="-7.5" font-family="Helvetica,sans-Serif" font-size="10.00">SolveComponent</text>
</a>
</g>
</g>
<!-- Node1&#45;&gt;Node3 -->
<g id="edge2" class="edge"><title>Node1&#45;&gt;Node3</title>
<path fill="none" stroke="midnightblue" d="M113.777,-21.55C130.137,-19.5445 147.541,-17.4111 162.881,-15.5307"/>
<polygon fill="midnightblue" stroke="midnightblue" points="113.253,-18.0879 103.753,-22.7787 114.104,-25.0359 113.253,-18.0879"/>
</g>
</g>
</svg>
