<?xml version="1.0" encoding="UTF-8" standalone="no"?>
<!DOCTYPE svg PUBLIC "-//W3C//DTD SVG 1.1//EN"
 "http://www.w3.org/Graphics/SVG/1.1/DTD/svg11.dtd">
<!-- Generated by graphviz version 2.30.1 (20150305.2338)
 -->
<!-- Title: BuildSolutionData Pages: 1 -->
<!--zoomable 761 -->
<svg id="main" version="1.1" xmlns="http://www.w3.org/2000/svg" xmlns:xlink="http://www.w3.org/1999/xlink" xml:space="preserve" onload="init(evt)">
<style type="text/css"><![CDATA[
.edge:hover path { stroke: red; }
.edge:hover polygon { stroke: red; fill: red; }
]]></style>
<script type="text/javascript"><![CDATA[
var edges = document.getElementsByTagName('g');
if (edges && edges.length) {
  for (var i=0;i<edges.length;i++) {
    if (edges[i].id.substr(0,4)=='edge') {
      edges[i].setAttribute('class','edge');
    }
  }
}
]]></script>
        <defs>
                <circle id="rim" cx="0" cy="0" r="7"/>
                <circle id="rim2" cx="0" cy="0" r="3.5"/>
                <g id="zoomPlus">
                        <use xlink:href="#rim" fill="#404040">
                                <set attributeName="fill" to="#808080" begin="zoomplus.mouseover" end="zoomplus.mouseout"/>
                        </use>
                        <path d="M-4,0h8M0,-4v8" fill="none" stroke="white" stroke-width="1.5" pointer-events="none"/>
                </g>
                <g id="zoomMin">
                        <use xlink:href="#rim" fill="#404040">
                                <set attributeName="fill" to="#808080" begin="zoomminus.mouseover" end="zoomminus.mouseout"/>
                        </use>
                        <path d="M-4,0h8" fill="none" stroke="white" stroke-width="1.5" pointer-events="none"/>
                </g>
                <g id="dirArrow">
                        <path fill="none" stroke="white" stroke-width="1.5" d="M0,-3.0v7 M-2.5,-0.5L0,-3.0L2.5,-0.5"/>
                </g>
               <g id="resetDef">
                       <use xlink:href="#rim2" fill="#404040">
                               <set attributeName="fill" to="#808080" begin="reset.mouseover" end="reset.mouseout"/>
                       </use>
               </g>
        </defs>

<script type="text/javascript">
var viewWidth = 1250;
var viewHeight = 761;
var sectionId = 'dynsection-4';
</script>
<script xlink:href="svgpan.js"/>
<svg id="graph" class="graph">
<g id="viewport">
<title>BuildSolutionData</title>
<!-- Node1 -->
<g id="node1" class="node"><title>Node1</title>
<polygon fill="#bfbfbf" stroke="black" points="0.5,-391.5 0.5,-410.5 95.5,-410.5 95.5,-391.5 0.5,-391.5"/>
<text text-anchor="middle" x="48" y="-398.5" font-family="Helvetica,sans-Serif" font-size="10.00">BuildSolutionData</text>
</g>
<!-- Node2 -->
<g id="node2" class="node"><title>Node2</title>
<g id="a_node2"><a xlink:href="classICED_1_1HalfCell_1_1DeviceComponent.html#ab6da304d530af3635e675488d0cefc69" target="_top" xlink:title="Setup the component to global mapping for this component. ">
<polygon fill="none" stroke="black" points="132,-411 132,-441 302,-441 302,-411 132,-411"/>
<text text-anchor="start" x="140" y="-429" font-family="Helvetica,sans-Serif" font-size="10.00">ICED::HalfCell::DeviceComponent</text>
<text text-anchor="middle" x="217" y="-418" font-family="Helvetica,sans-Serif" font-size="10.00">::SetupComponentMesh</text>
</a>
</g>
</g>
<!-- Node1&#45;&gt;Node2 -->
<g id="edge1" class="edge"><title>Node1&#45;&gt;Node2</title>
<path fill="none" stroke="midnightblue" d="M105.656,-409.481C114.157,-410.754 123.074,-412.089 131.999,-413.425"/>
<polygon fill="midnightblue" stroke="midnightblue" points="105.927,-405.983 95.5188,-407.964 104.89,-412.906 105.927,-405.983"/>
</g>
<!-- Node3 -->
<g id="node3" class="node"><title>Node3</title>
<g id="a_node3"><a xlink:href="classICED_1_1HalfCell_1_1DeviceData.html#abea9dd513340105152db94ed9f24211a" target="_top" xlink:title="Setup of the global device data structure. ">
<polygon fill="none" stroke="black" points="147,-362 147,-392 287,-392 287,-362 147,-362"/>
<text text-anchor="start" x="155" y="-380" font-family="Helvetica,sans-Serif" font-size="10.00">ICED::HalfCell::DeviceData</text>
<text text-anchor="middle" x="217" y="-369" font-family="Helvetica,sans-Serif" font-size="10.00">::SetupGlobalData</text>
</a>
</g>
</g>
<!-- Node1&#45;&gt;Node3 -->
<g id="edge2" class="edge"><title>Node1&#45;&gt;Node3</title>
<path fill="none" stroke="midnightblue" d="M105.475,-392.884C118.791,-390.97 133.134,-388.909 146.935,-386.925"/>
<polygon fill="midnightblue" stroke="midnightblue" points="104.919,-389.428 95.5188,-394.315 105.915,-396.356 104.919,-389.428"/>
</g>
<!-- Node4 -->
<g id="node4" class="node"><title>Node4</title>
<g id="a_node4"><a xlink:href="classICED_1_1HalfCell_1_1DeviceData.html#ac62391584f55efe6bd7916ebf7d2e92b" target="_top" xlink:title="Initialization of the entire device data structure. ">
<polygon fill="none" stroke="black" points="338,-362 338,-392 478,-392 478,-362 338,-362"/>
<text text-anchor="start" x="346" y="-380" font-family="Helvetica,sans-Serif" font-size="10.00">ICED::HalfCell::DeviceData</text>
<text text-anchor="middle" x="408" y="-369" font-family="Helvetica,sans-Serif" font-size="10.00">::BuildDevice</text>
</a>
</g>
</g>
<!-- Node3&#45;&gt;Node4 -->
<g id="edge3" class="edge"><title>Node3&#45;&gt;Node4</title>
<path fill="none" stroke="midnightblue" d="M297.245,-377C310.729,-377 324.638,-377 337.835,-377"/>
<polygon fill="midnightblue" stroke="midnightblue" points="297.036,-373.5 287.036,-377 297.036,-380.5 297.036,-373.5"/>
</g>
<!-- Node5 -->
<g id="node5" class="node"><title>Node5</title>
<g id="a_node5"><a xlink:href="classICED_1_1TestingObject.html#a7995a39337d2ec045b02982b1b346b28" target="_top" xlink:title="Function called by Test__Intercalation. ">
<polygon fill="none" stroke="black" points="520.5,-425 520.5,-455 645.5,-455 645.5,-425 520.5,-425"/>
<text text-anchor="start" x="528.5" y="-443" font-family="Helvetica,sans-Serif" font-size="10.00">ICED::TestingObject</text>
<text text-anchor="middle" x="583" y="-432" font-family="Helvetica,sans-Serif" font-size="10.00">::RunIntercalationModule</text>
</a>
</g>
</g>
<!-- Node4&#45;&gt;Node5 -->
<g id="edge4" class="edge"><title>Node4&#45;&gt;Node5</title>
<path fill="none" stroke="midnightblue" d="M460.007,-395.575C485.685,-404.926 516.41,-416.114 540.601,-424.924"/>
<polygon fill="midnightblue" stroke="midnightblue" points="461.032,-392.223 450.438,-392.09 458.637,-398.801 461.032,-392.223"/>
</g>
<!-- Node12 -->
<g id="node12" class="node"><title>Node12</title>
<g id="a_node12"><a xlink:href="classICED_1_1TestingObject.html#aea517fa85afb367c872ce72c26a0d643" target="_top" xlink:title="Test for ICED::ActivitCoefficient module. ">
<polygon fill="none" stroke="black" points="717.5,-392 717.5,-422 850.5,-422 850.5,-392 717.5,-392"/>
<text text-anchor="start" x="725.5" y="-410" font-family="Helvetica,sans-Serif" font-size="10.00">ICED::TestingObject</text>
<text text-anchor="middle" x="784" y="-399" font-family="Helvetica,sans-Serif" font-size="10.00">::Test__ActivityCoefficient</text>
</a>
</g>
</g>
<!-- Node4&#45;&gt;Node12 -->
<g id="edge12" class="edge"><title>Node4&#45;&gt;Node12</title>
<path fill="none" stroke="midnightblue" d="M488.28,-383.359C556.357,-388.82 653.335,-396.599 717.192,-401.721"/>
<polygon fill="midnightblue" stroke="midnightblue" points="488.281,-379.848 478.033,-382.537 487.721,-386.826 488.281,-379.848"/>
</g>
<!-- Node13 -->
<g id="node13" class="node"><title>Node13</title>
<g id="a_node13"><a xlink:href="classICED_1_1TestingObject.html#a2f898efd73e9aaf601f0733cb31fc340" target="_top" xlink:title="Test for ICED::ButlerVolmer. ">
<polygon fill="none" stroke="black" points="729.5,-343 729.5,-373 838.5,-373 838.5,-343 729.5,-343"/>
<text text-anchor="start" x="737.5" y="-361" font-family="Helvetica,sans-Serif" font-size="10.00">ICED::TestingObject</text>
<text text-anchor="middle" x="784" y="-350" font-family="Helvetica,sans-Serif" font-size="10.00">::Test__ButlerVolmer</text>
</a>
</g>
</g>
<!-- Node4&#45;&gt;Node13 -->
<g id="edge15" class="edge"><title>Node4&#45;&gt;Node13</title>
<path fill="none" stroke="midnightblue" d="M488.053,-372.984C560.672,-369.295 666.319,-363.928 729.496,-360.718"/>
<polygon fill="midnightblue" stroke="midnightblue" points="487.843,-369.49 478.033,-373.493 488.198,-376.481 487.843,-369.49"/>
</g>
<!-- Node14 -->
<g id="node14" class="node"><title>Node14</title>
<g id="a_node14"><a xlink:href="classICED_1_1TestingObject.html#a7bac98c894f8cfff372d495eae083cd5" target="_top" xlink:title="Tests the input file error checking functions using testModule and a generated &quot;bad&quot; input file...">
<polygon fill="none" stroke="black" points="517,-718 517,-748 649,-748 649,-718 517,-718"/>
<text text-anchor="start" x="525" y="-736" font-family="Helvetica,sans-Serif" font-size="10.00">ICED::TestingObject</text>
<text text-anchor="middle" x="583" y="-725" font-family="Helvetica,sans-Serif" font-size="10.00">::Test__CheckParamsBad</text>
</a>
</g>
</g>
<!-- Node4&#45;&gt;Node14 -->
<g id="edge18" class="edge"><title>Node4&#45;&gt;Node14</title>
<path fill="none" stroke="midnightblue" d="M412.021,-402.302C419.851,-458.681 445.212,-596.76 514,-687 523.764,-699.809 538.157,-710.273 551.191,-717.966"/>
<polygon fill="midnightblue" stroke="midnightblue" points="415.461,-401.609 410.682,-392.153 408.521,-402.525 415.461,-401.609"/>
</g>
<!-- Node15 -->
<g id="node15" class="node"><title>Node15</title>
<g id="a_node15"><a xlink:href="classICED_1_1TestingObject.html#afedc7e682315a3e766d614e09631ab04" target="_top" xlink:title="Tests the input file error checking functions using testModule and a generated &quot;good&quot; input file...">
<polygon fill="none" stroke="black" points="514,-648 514,-678 652,-678 652,-648 514,-648"/>
<text text-anchor="start" x="522" y="-666" font-family="Helvetica,sans-Serif" font-size="10.00">ICED::TestingObject</text>
<text text-anchor="middle" x="583" y="-655" font-family="Helvetica,sans-Serif" font-size="10.00">::Test__CheckParamsGood</text>
</a>
</g>
</g>
<!-- Node4&#45;&gt;Node15 -->
<g id="edge20" class="edge"><title>Node4&#45;&gt;Node15</title>
<path fill="none" stroke="midnightblue" d="M414.305,-402.04C425.477,-449.698 455.367,-554.682 514,-622 523.235,-632.603 535.906,-641.266 547.809,-647.851"/>
<polygon fill="midnightblue" stroke="midnightblue" points="417.711,-401.232 412.087,-392.252 410.884,-402.778 417.711,-401.232"/>
</g>
<!-- Node16 -->
<g id="node16" class="node"><title>Node16</title>
<g id="a_node16"><a xlink:href="classICED_1_1TestingObject.html#a8218a8aab213585d0fba3f2e1aa24b76" target="_top" xlink:title="Test for ICED::ComponentBoundaryConditions. ">
<polygon fill="none" stroke="black" points="688.5,-196 688.5,-226 879.5,-226 879.5,-196 688.5,-196"/>
<text text-anchor="start" x="696.5" y="-214" font-family="Helvetica,sans-Serif" font-size="10.00">ICED::TestingObject</text>
<text text-anchor="middle" x="784" y="-203" font-family="Helvetica,sans-Serif" font-size="10.00">::Test__ComponentBoundaryConditions</text>
</a>
</g>
</g>
<!-- Node4&#45;&gt;Node16 -->
<g id="edge22" class="edge"><title>Node4&#45;&gt;Node16</title>
<path fill="none" stroke="midnightblue" d="M430.296,-354.685C450.259,-334.925 481.782,-306.569 514,-289 571.205,-257.806 642.226,-237.897 696.926,-226.006"/>
<polygon fill="midnightblue" stroke="midnightblue" points="427.797,-352.234 423.234,-361.796 432.764,-357.167 427.797,-352.234"/>
</g>
<!-- Node17 -->
<g id="node17" class="node"><title>Node17</title>
<g id="a_node17"><a xlink:href="classICED_1_1TestingObject.html#a96409144efe94cf3e37a534e524c6e36" target="_top" xlink:title="Test for ICED::ConcentrationDiffusion. ">
<polygon fill="none" stroke="black" points="708,-147 708,-177 860,-177 860,-147 708,-147"/>
<text text-anchor="start" x="716" y="-165" font-family="Helvetica,sans-Serif" font-size="10.00">ICED::TestingObject</text>
<text text-anchor="middle" x="784" y="-154" font-family="Helvetica,sans-Serif" font-size="10.00">::Test__ConcentrationDiffusion</text>
</a>
</g>
</g>
<!-- Node4&#45;&gt;Node17 -->
<g id="edge25" class="edge"><title>Node4&#45;&gt;Node17</title>
<path fill="none" stroke="midnightblue" d="M420.327,-352.742C436.542,-320.693 469.409,-264.723 514,-234 571.825,-194.159 650.63,-176.349 707.992,-168.397"/>
<polygon fill="midnightblue" stroke="midnightblue" points="417.112,-351.348 415.835,-361.865 423.392,-354.44 417.112,-351.348"/>
</g>
<!-- Node18 -->
<g id="node18" class="node"><title>Node18</title>
<g id="a_node18"><a xlink:href="classICED_1_1TestingObject.html#a20a3def5cfb0861690599ae120367987" target="_top" xlink:title="Test for ICED::DeviceData. ">
<polygon fill="none" stroke="black" points="730,-98 730,-128 838,-128 838,-98 730,-98"/>
<text text-anchor="start" x="738" y="-116" font-family="Helvetica,sans-Serif" font-size="10.00">ICED::TestingObject</text>
<text text-anchor="middle" x="784" y="-105" font-family="Helvetica,sans-Serif" font-size="10.00">::Test__DeviceData</text>
</a>
</g>
</g>
<!-- Node4&#45;&gt;Node18 -->
<g id="edge28" class="edge"><title>Node4&#45;&gt;Node18</title>
<path fill="none" stroke="midnightblue" d="M414.815,-351.95C426.14,-308.986 455.353,-221.491 514,-176 576.914,-127.2 671.343,-115.198 729.963,-112.79"/>
<polygon fill="midnightblue" stroke="midnightblue" points="411.368,-351.308 412.315,-361.861 418.155,-353.021 411.368,-351.308"/>
</g>
<!-- Node19 -->
<g id="node19" class="node"><title>Node19</title>
<g id="a_node19"><a xlink:href="classICED_1_1TestingObject.html#a43dbcae20e4ab6f8b30751e9b5e5b2c2" target="_top" xlink:title="Test for ICED::DeviceDataMapping. ">
<polygon fill="none" stroke="black" points="713.5,-49 713.5,-79 854.5,-79 854.5,-49 713.5,-49"/>
<text text-anchor="start" x="721.5" y="-67" font-family="Helvetica,sans-Serif" font-size="10.00">ICED::TestingObject</text>
<text text-anchor="middle" x="784" y="-56" font-family="Helvetica,sans-Serif" font-size="10.00">::Test__DeviceDataMapping</text>
</a>
</g>
</g>
<!-- Node4&#45;&gt;Node19 -->
<g id="edge31" class="edge"><title>Node4&#45;&gt;Node19</title>
<path fill="none" stroke="midnightblue" d="M411.433,-351.778C417.897,-299.468 440.4,-178.977 514,-118 569.753,-71.8087 654.133,-61.4324 713.489,-60.6251"/>
<polygon fill="midnightblue" stroke="midnightblue" points="407.939,-351.528 410.285,-361.859 414.894,-352.32 407.939,-351.528"/>
</g>
<!-- Node20 -->
<g id="node20" class="node"><title>Node20</title>
<g id="a_node20"><a xlink:href="classICED_1_1TestingObject.html#a06cf16fc934c4e87f6886a7beb771b0e" target="_top" xlink:title="Test for ICED::Diffusion module. ">
<polygon fill="none" stroke="black" points="730,-0 730,-30 838,-30 838,-0 730,-0"/>
<text text-anchor="start" x="738" y="-18" font-family="Helvetica,sans-Serif" font-size="10.00">ICED::TestingObject</text>
<text text-anchor="middle" x="784" y="-7" font-family="Helvetica,sans-Serif" font-size="10.00">::Test__Diffusion</text>
</a>
</g>
</g>
<!-- Node4&#45;&gt;Node20 -->
<g id="edge34" class="edge"><title>Node4&#45;&gt;Node20</title>
<path fill="none" stroke="midnightblue" d="M409.241,-351.793C411.28,-291.501 425.389,-138.32 514,-62 573.989,-10.3318 670.185,-6.07353 729.82,-9.35753"/>
<polygon fill="midnightblue" stroke="midnightblue" points="405.738,-351.845 408.985,-361.93 412.736,-352.021 405.738,-351.845"/>
</g>
<!-- Node21 -->
<g id="node21" class="node"><title>Node21</title>
<g id="a_node21"><a xlink:href="classICED_1_1TestingObject.html#af46c6cb015fb4151707a8c08084f4525" target="_top" xlink:title="Test for ICED::IonMigration module. ">
<polygon fill="none" stroke="black" points="730,-637 730,-667 838,-667 838,-637 730,-637"/>
<text text-anchor="start" x="738" y="-655" font-family="Helvetica,sans-Serif" font-size="10.00">ICED::TestingObject</text>
<text text-anchor="middle" x="784" y="-644" font-family="Helvetica,sans-Serif" font-size="10.00">::Test__IonMigration</text>
</a>
</g>
</g>
<!-- Node4&#45;&gt;Node21 -->
<g id="edge37" class="edge"><title>Node4&#45;&gt;Node21</title>
<path fill="none" stroke="midnightblue" d="M415.456,-401.782C427.608,-443.524 457.85,-527.81 514,-574 576.336,-625.279 670.937,-642.852 729.748,-648.871"/>
<polygon fill="midnightblue" stroke="midnightblue" points="418.821,-400.82 412.752,-392.136 412.081,-402.709 418.821,-400.82"/>
</g>
<!-- Node22 -->
<g id="node22" class="node"><title>Node22</title>
<g id="a_node22"><a xlink:href="classICED_1_1TestingObject.html#a263e8cc9d4d10cb3b749c8946ebcae72" target="_top" xlink:title="Test for ICED::DeviceComponent. ">
<polygon fill="none" stroke="black" points="726.5,-588 726.5,-618 841.5,-618 841.5,-588 726.5,-588"/>
<text text-anchor="start" x="734.5" y="-606" font-family="Helvetica,sans-Serif" font-size="10.00">ICED::TestingObject</text>
<text text-anchor="middle" x="784" y="-595" font-family="Helvetica,sans-Serif" font-size="10.00">::Test__ModulePriority</text>
</a>
</g>
</g>
<!-- Node4&#45;&gt;Node22 -->
<g id="edge40" class="edge"><title>Node4&#45;&gt;Node22</title>
<path fill="none" stroke="midnightblue" d="M418.766,-401.505C433.873,-436.195 466.239,-499.157 514,-533 577.687,-578.128 668.284,-594.175 726.36,-599.873"/>
<polygon fill="midnightblue" stroke="midnightblue" points="421.915,-399.963 414.799,-392.114 415.466,-402.687 421.915,-399.963"/>
</g>
<!-- Node23 -->
<g id="node23" class="node"><title>Node23</title>
<g id="a_node23"><a xlink:href="classICED_1_1TestingObject.html#a4f825a89973b92c36e2fe2cbe6a653a0" target="_top" xlink:title="Test for ICED::OhmsLawElectrolyte. ">
<polygon fill="none" stroke="black" points="712.5,-539 712.5,-569 855.5,-569 855.5,-539 712.5,-539"/>
<text text-anchor="start" x="720.5" y="-557" font-family="Helvetica,sans-Serif" font-size="10.00">ICED::TestingObject</text>
<text text-anchor="middle" x="784" y="-546" font-family="Helvetica,sans-Serif" font-size="10.00">::Test__OhmsLawElectrolyte</text>
</a>
</g>
</g>
<!-- Node4&#45;&gt;Node23 -->
<g id="edge43" class="edge"><title>Node4&#45;&gt;Node23</title>
<path fill="none" stroke="midnightblue" d="M423.248,-400.778C440.972,-428.186 473.849,-472.47 514,-496 575.003,-531.75 655.379,-545.549 712.338,-550.83"/>
<polygon fill="midnightblue" stroke="midnightblue" points="426.124,-398.777 417.83,-392.185 420.203,-402.51 426.124,-398.777"/>
</g>
<!-- Node24 -->
<g id="node24" class="node"><title>Node24</title>
<g id="a_node24"><a xlink:href="classICED_1_1TestingObject.html#ab656a16700e242a40e0b21d7693a6ae0" target="_top" xlink:title="Test for ICED::OhmsLawSolid. ">
<polygon fill="none" stroke="black" points="724.5,-490 724.5,-520 843.5,-520 843.5,-490 724.5,-490"/>
<text text-anchor="start" x="732.5" y="-508" font-family="Helvetica,sans-Serif" font-size="10.00">ICED::TestingObject</text>
<text text-anchor="middle" x="784" y="-497" font-family="Helvetica,sans-Serif" font-size="10.00">::Test__OhmsLawSolid</text>
</a>
</g>
</g>
<!-- Node4&#45;&gt;Node24 -->
<g id="edge46" class="edge"><title>Node4&#45;&gt;Node24</title>
<path fill="none" stroke="midnightblue" d="M429.099,-399.512C448.658,-419.864 480.289,-448.882 514,-464 581.889,-494.447 668.063,-502.949 724.326,-504.984"/>
<polygon fill="midnightblue" stroke="midnightblue" points="431.613,-397.075 422.215,-392.183 426.511,-401.868 431.613,-397.075"/>
</g>
<!-- Node25 -->
<g id="node25" class="node"><title>Node25</title>
<g id="a_node25"><a xlink:href="classICED_1_1TestingObject.html#aacdc6512e5ce8094c62997f4d1f02634" target="_top" xlink:title="Test for ICED::TransferenceNumber. ">
<polygon fill="none" stroke="black" points="712,-294 712,-324 856,-324 856,-294 712,-294"/>
<text text-anchor="start" x="720" y="-312" font-family="Helvetica,sans-Serif" font-size="10.00">ICED::TestingObject</text>
<text text-anchor="middle" x="784" y="-301" font-family="Helvetica,sans-Serif" font-size="10.00">::Test__TransferenceNumber</text>
</a>
</g>
</g>
<!-- Node4&#45;&gt;Node25 -->
<g id="edge49" class="edge"><title>Node4&#45;&gt;Node25</title>
<path fill="none" stroke="midnightblue" d="M488.005,-362.635C554.217,-350.597 647.911,-333.562 711.826,-321.941"/>
<polygon fill="midnightblue" stroke="midnightblue" points="487.246,-359.216 478.033,-364.449 488.498,-366.103 487.246,-359.216"/>
</g>
<!-- Node26 -->
<g id="node26" class="node"><title>Node26</title>
<g id="a_node26"><a xlink:href="classICED_1_1TestingObject.html#a9bbc638a5bd612413bdd4c03b6c66d0c" target="_top" xlink:title="Test for ICED::wallFlux. ">
<polygon fill="none" stroke="black" points="730,-245 730,-275 838,-275 838,-245 730,-245"/>
<text text-anchor="start" x="738" y="-263" font-family="Helvetica,sans-Serif" font-size="10.00">ICED::TestingObject</text>
<text text-anchor="middle" x="784" y="-252" font-family="Helvetica,sans-Serif" font-size="10.00">::Test__WallFlux</text>
</a>
</g>
</g>
<!-- Node4&#45;&gt;Node26 -->
<g id="edge52" class="edge"><title>Node4&#45;&gt;Node26</title>
<path fill="none" stroke="midnightblue" d="M447.491,-357.432C467.067,-347.991 491.435,-337.006 514,-329 589.28,-302.292 610.611,-303.783 688,-284 701.515,-280.545 716.118,-276.841 729.727,-273.402"/>
<polygon fill="midnightblue" stroke="midnightblue" points="445.745,-354.39 438.296,-361.924 448.817,-360.68 445.745,-354.39"/>
</g>
<!-- Node6 -->
<g id="node6" class="node"><title>Node6</title>
<g id="a_node6"><a xlink:href="classICED_1_1TestingObject.html#adcd8b620aa1ea5a579a671ac15b5620b" target="_top" xlink:title="Test for ICED::Intercalation. ">
<polygon fill="none" stroke="black" points="730,-441 730,-471 838,-471 838,-441 730,-441"/>
<text text-anchor="start" x="738" y="-459" font-family="Helvetica,sans-Serif" font-size="10.00">ICED::TestingObject</text>
<text text-anchor="middle" x="784" y="-448" font-family="Helvetica,sans-Serif" font-size="10.00">::Test__Intercalation</text>
</a>
</g>
</g>
<!-- Node5&#45;&gt;Node6 -->
<g id="edge5" class="edge"><title>Node5&#45;&gt;Node6</title>
<path fill="none" stroke="midnightblue" d="M655.889,-445.78C680.281,-447.741 707.077,-449.896 729.751,-451.719"/>
<polygon fill="midnightblue" stroke="midnightblue" points="655.85,-442.266 645.602,-444.953 655.289,-449.243 655.85,-442.266"/>
</g>
<!-- Node7 -->
<g id="node7" class="node"><title>Node7</title>
<g id="a_node7"><a xlink:href="classICED_1_1TestingObject.html#a046f7ab06db0acf616b0d2bf3d3146aa" target="_top" xlink:title="Runs all tests implemented by the ICED::TestingObject. ">
<polygon fill="none" stroke="black" points="916,-367 916,-397 1024,-397 1024,-367 916,-367"/>
<text text-anchor="start" x="924" y="-385" font-family="Helvetica,sans-Serif" font-size="10.00">ICED::TestingObject</text>
<text text-anchor="middle" x="970" y="-374" font-family="Helvetica,sans-Serif" font-size="10.00">::Process</text>
</a>
</g>
</g>
<!-- Node6&#45;&gt;Node7 -->
<g id="edge6" class="edge"><title>Node6&#45;&gt;Node7</title>
<path fill="none" stroke="midnightblue" d="M847.895,-441.789C858.752,-438.675 869.815,-435.071 880,-431 903.093,-421.768 927.747,-407.841 945.236,-397.192"/>
<polygon fill="midnightblue" stroke="midnightblue" points="846.725,-438.481 838.013,-444.51 848.583,-445.229 846.725,-438.481"/>
</g>
<!-- Node10 -->
<g id="node10" class="node"><title>Node10</title>
<g id="a_node10"><a xlink:href="classICED_1_1TestingObject.html#af1f07f14b9af7708e4264bb38937eed2" target="_top" xlink:title="Runs a test specified by name. ">
<polygon fill="none" stroke="black" points="916,-318 916,-348 1024,-348 1024,-318 916,-318"/>
<text text-anchor="start" x="924" y="-336" font-family="Helvetica,sans-Serif" font-size="10.00">ICED::TestingObject</text>
<text text-anchor="middle" x="970" y="-325" font-family="Helvetica,sans-Serif" font-size="10.00">::RunTest</text>
</a>
</g>
</g>
<!-- Node6&#45;&gt;Node10 -->
<g id="edge9" class="edge"><title>Node6&#45;&gt;Node10</title>
<path fill="none" stroke="midnightblue" d="M847.812,-447.635C859.391,-443.928 870.734,-438.611 880,-431 908.262,-407.785 889.784,-382.503 916,-357 919.475,-353.619 923.511,-350.663 927.774,-348.09"/>
<polygon fill="midnightblue" stroke="midnightblue" points="846.742,-444.301 838.07,-450.387 848.645,-451.037 846.742,-444.301"/>
</g>
<!-- Node8 -->
<g id="node8" class="node"><title>Node8</title>
<g id="a_node8"><a xlink:href="namespaceICED.html#acf52cefdb153ca8751acb1e183d3a405" target="_top" xlink:title="Drives the ICED::TestObject. ">
<polygon fill="none" stroke="black" points="1080.5,-369.5 1080.5,-388.5 1147.5,-388.5 1147.5,-369.5 1080.5,-369.5"/>
<text text-anchor="middle" x="1114" y="-376.5" font-family="Helvetica,sans-Serif" font-size="10.00">ICED::Test</text>
</a>
</g>
</g>
<!-- Node7&#45;&gt;Node8 -->
<g id="edge7" class="edge"><title>Node7&#45;&gt;Node8</title>
<path fill="none" stroke="midnightblue" d="M1034.6,-380.656C1050.47,-380.321 1066.83,-379.975 1080.48,-379.687"/>
<polygon fill="midnightblue" stroke="midnightblue" points="1034.2,-377.164 1024.28,-380.874 1034.35,-384.162 1034.2,-377.164"/>
</g>
<!-- Node9 -->
<g id="node9" class="node"><title>Node9</title>
<g id="a_node9"><a xlink:href="TestICED_8C.html#a0ddf1224851353fc92bfbff6f499fa97" target="_top" xlink:title="main">
<polygon fill="none" stroke="black" points="1204,-369.5 1204,-388.5 1242,-388.5 1242,-369.5 1204,-369.5"/>
<text text-anchor="middle" x="1223" y="-376.5" font-family="Helvetica,sans-Serif" font-size="10.00">main</text>
</a>
</g>
</g>
<!-- Node8&#45;&gt;Node9 -->
<g id="edge8" class="edge"><title>Node8&#45;&gt;Node9</title>
<path fill="none" stroke="midnightblue" d="M1157.94,-379C1173.93,-379 1191.22,-379 1203.81,-379"/>
<polygon fill="midnightblue" stroke="midnightblue" points="1157.68,-375.5 1147.68,-379 1157.68,-382.5 1157.68,-375.5"/>
</g>
<!-- Node11 -->
<g id="node11" class="node"><title>Node11</title>
<g id="a_node11"><a xlink:href="classICED_1_1TestingObject.html#a21159bd2efac623e5a5079f6a20f3444" target="_top" xlink:title="Runs a list of tests specified by name. ">
<polygon fill="none" stroke="black" points="1060,-318 1060,-348 1168,-348 1168,-318 1060,-318"/>
<text text-anchor="start" x="1068" y="-336" font-family="Helvetica,sans-Serif" font-size="10.00">ICED::TestingObject</text>
<text text-anchor="middle" x="1114" y="-325" font-family="Helvetica,sans-Serif" font-size="10.00">::ProcessTests</text>
</a>
</g>
</g>
<!-- Node10&#45;&gt;Node11 -->
<g id="edge10" class="edge"><title>Node10&#45;&gt;Node11</title>
<path fill="none" stroke="midnightblue" d="M1034.52,-333C1043,-333 1051.62,-333 1059.89,-333"/>
<polygon fill="midnightblue" stroke="midnightblue" points="1034.28,-329.5 1024.28,-333 1034.28,-336.5 1034.28,-329.5"/>
</g>
<!-- Node10&#45;&gt;Node8 -->
<g id="edge11" class="edge"><title>Node10&#45;&gt;Node8</title>
<path fill="none" stroke="midnightblue" d="M1027.08,-351.168C1046.32,-357.398 1067.08,-364.124 1083.37,-369.402"/>
<polygon fill="midnightblue" stroke="midnightblue" points="1028.09,-347.814 1017.5,-348.062 1025.93,-354.474 1028.09,-347.814"/>
</g>
<!-- Node12&#45;&gt;Node7 -->
<g id="edge13" class="edge"><title>Node12&#45;&gt;Node7</title>
<path fill="none" stroke="midnightblue" d="M860.795,-396.702C879.261,-394.193 898.625,-391.562 915.786,-389.23"/>
<polygon fill="midnightblue" stroke="midnightblue" points="860.087,-393.266 850.649,-398.08 861.029,-400.202 860.087,-393.266"/>
</g>
<!-- Node12&#45;&gt;Node10 -->
<g id="edge14" class="edge"><title>Node12&#45;&gt;Node10</title>
<path fill="none" stroke="midnightblue" d="M860.548,-389.738C867.235,-387.429 873.809,-384.856 880,-382 897.689,-373.841 899.058,-366.613 916,-357 921.535,-353.86 927.555,-350.811 933.487,-348"/>
<polygon fill="midnightblue" stroke="midnightblue" points="859.133,-386.518 850.703,-392.936 861.295,-393.176 859.133,-386.518"/>
</g>
<!-- Node13&#45;&gt;Node7 -->
<g id="edge16" class="edge"><title>Node13&#45;&gt;Node7</title>
<path fill="none" stroke="midnightblue" d="M848.899,-366.335C870.751,-369.185 894.943,-372.34 915.854,-375.068"/>
<polygon fill="midnightblue" stroke="midnightblue" points="849.084,-362.829 838.715,-365.006 848.178,-369.77 849.084,-362.829"/>
</g>
<!-- Node13&#45;&gt;Node10 -->
<g id="edge17" class="edge"><title>Node13&#45;&gt;Node10</title>
<path fill="none" stroke="midnightblue" d="M848.899,-349.318C870.751,-346.349 894.943,-343.062 915.854,-340.221"/>
<polygon fill="midnightblue" stroke="midnightblue" points="848.153,-345.887 838.715,-350.702 849.095,-352.823 848.153,-345.887"/>
</g>
<!-- Node14&#45;&gt;Node7 -->
<g id="edge19" class="edge"><title>Node14&#45;&gt;Node7</title>
<path fill="none" stroke="midnightblue" d="M659.403,-747.963C725.184,-756.417 819.336,-756.77 880,-706 929.096,-664.911 959.43,-456.088 967.082,-397.375"/>
<polygon fill="midnightblue" stroke="midnightblue" points="659.483,-744.441 649.099,-746.544 658.528,-751.376 659.483,-744.441"/>
</g>
<!-- Node15&#45;&gt;Node7 -->
<g id="edge21" class="edge"><title>Node15&#45;&gt;Node7</title>
<path fill="none" stroke="midnightblue" d="M630.756,-681.615C693.946,-703.407 807.071,-730.12 880,-676 926.68,-641.359 958.397,-452.519 966.785,-397.221"/>
<polygon fill="midnightblue" stroke="midnightblue" points="631.652,-678.219 621.057,-678.173 629.311,-684.816 631.652,-678.219"/>
</g>
<!-- Node16&#45;&gt;Node7 -->
<g id="edge23" class="edge"><title>Node16&#45;&gt;Node7</title>
<path fill="none" stroke="midnightblue" d="M876.549,-231.93C877.737,-232.909 878.889,-233.932 880,-235 920.757,-274.178 879.214,-314.072 916,-357 919.31,-360.863 923.349,-364.17 927.705,-366.992"/>
<polygon fill="midnightblue" stroke="midnightblue" points="878.423,-228.969 868.23,-226.082 874.398,-234.696 878.423,-228.969"/>
</g>
<!-- Node16&#45;&gt;Node10 -->
<g id="edge24" class="edge"><title>Node16&#45;&gt;Node10</title>
<path fill="none" stroke="midnightblue" d="M871.148,-230.233C874.193,-231.707 877.156,-233.293 880,-235 915.473,-256.286 945.062,-296.088 959.505,-317.845"/>
<polygon fill="midnightblue" stroke="midnightblue" points="872.359,-226.943 861.795,-226.14 869.553,-233.356 872.359,-226.943"/>
</g>
<!-- Node17&#45;&gt;Node7 -->
<g id="edge26" class="edge"><title>Node17&#45;&gt;Node7</title>
<path fill="none" stroke="midnightblue" d="M869.093,-177.097C873.052,-179.648 876.729,-182.596 880,-186 933.81,-242.004 867.845,-296.065 916,-357 919.028,-360.831 922.783,-364.105 926.888,-366.895"/>
<polygon fill="midnightblue" stroke="midnightblue" points="870.48,-173.866 860.029,-172.124 867.113,-180.003 870.48,-173.866"/>
</g>
<!-- Node17&#45;&gt;Node10 -->
<g id="edge27" class="edge"><title>Node17&#45;&gt;Node10</title>
<path fill="none" stroke="midnightblue" d="M869.222,-179.241C872.997,-181.252 876.615,-183.496 880,-186 926.77,-220.599 953.928,-287.78 964.215,-317.832"/>
<polygon fill="midnightblue" stroke="midnightblue" points="870.702,-176.069 860.166,-174.958 867.71,-182.397 870.702,-176.069"/>
</g>
<!-- Node18&#45;&gt;Node7 -->
<g id="edge29" class="edge"><title>Node18&#45;&gt;Node7</title>
<path fill="none" stroke="midnightblue" d="M848.168,-118.177C860.149,-121.909 871.557,-127.805 880,-137 947.01,-209.981 856.346,-277.894 916,-357 918.879,-360.818 922.487,-364.076 926.46,-366.852"/>
<polygon fill="midnightblue" stroke="midnightblue" points="849.045,-114.789 838.483,-115.626 847.262,-121.558 849.045,-114.789"/>
</g>
<!-- Node18&#45;&gt;Node10 -->
<g id="edge30" class="edge"><title>Node18&#45;&gt;Node10</title>
<path fill="none" stroke="midnightblue" d="M847.949,-120.459C859.518,-124.064 870.821,-129.331 880,-137 938.362,-185.761 960.177,-280.852 966.67,-317.804"/>
<polygon fill="midnightblue" stroke="midnightblue" points="848.779,-117.057 838.21,-117.805 846.938,-123.811 848.779,-117.057"/>
</g>
<!-- Node19&#45;&gt;Node7 -->
<g id="edge32" class="edge"><title>Node19&#45;&gt;Node7</title>
<path fill="none" stroke="midnightblue" d="M863.956,-75.502C869.954,-78.78 875.436,-82.8816 880,-88 960.276,-178.029 844.786,-259.644 916,-357 918.823,-360.859 922.396,-364.144 926.348,-366.936"/>
<polygon fill="midnightblue" stroke="midnightblue" points="865.389,-72.3086 854.845,-71.2661 862.437,-78.656 865.389,-72.3086"/>
</g>
<!-- Node19&#45;&gt;Node10 -->
<g id="edge33" class="edge"><title>Node19&#45;&gt;Node10</title>
<path fill="none" stroke="midnightblue" d="M864.182,-77.2798C869.91,-80.2011 875.279,-83.7333 880,-88 950.337,-151.57 965.157,-275.173 968.22,-317.979"/>
<polygon fill="midnightblue" stroke="midnightblue" points="865.488,-74.0303 854.927,-73.1744 862.649,-80.4289 865.488,-74.0303"/>
</g>
<!-- Node20&#45;&gt;Node7 -->
<g id="edge35" class="edge"><title>Node20&#45;&gt;Node7</title>
<path fill="none" stroke="midnightblue" d="M848.133,-19.7423C860.233,-23.487 871.699,-29.4977 880,-39 973.578,-146.118 833.195,-241.352 916,-357 918.724,-360.805 922.181,-364.05 926.019,-366.813"/>
<polygon fill="midnightblue" stroke="midnightblue" points="848.901,-16.3255 838.342,-17.2015 847.142,-23.1011 848.901,-16.3255"/>
</g>
<!-- Node20&#45;&gt;Node10 -->
<g id="edge36" class="edge"><title>Node20&#45;&gt;Node10</title>
<path fill="none" stroke="midnightblue" d="M848.014,-21.285C859.789,-24.964 871.156,-30.5576 880,-39 962.359,-117.616 969.248,-269.589 969.265,-317.882"/>
<polygon fill="midnightblue" stroke="midnightblue" points="848.638,-17.8288 838.073,-18.6244 846.828,-24.5908 848.638,-17.8288"/>
</g>
<!-- Node21&#45;&gt;Node7 -->
<g id="edge38" class="edge"><title>Node21&#45;&gt;Node7</title>
<path fill="none" stroke="midnightblue" d="M848.074,-644.507C859.737,-640.736 871.045,-635.174 880,-627 949.856,-563.236 964.97,-440.29 968.166,-397.294"/>
<polygon fill="midnightblue" stroke="midnightblue" points="846.917,-641.196 838.237,-647.271 848.811,-647.935 846.917,-641.196"/>
</g>
<!-- Node21&#45;&gt;Node10 -->
<g id="edge39" class="edge"><title>Node21&#45;&gt;Node10</title>
<path fill="none" stroke="midnightblue" d="M848.03,-646.435C860.136,-642.572 871.63,-636.485 880,-627 960.1,-536.226 843.793,-454.17 916,-357 918.53,-353.595 921.657,-350.661 925.116,-348.136"/>
<polygon fill="midnightblue" stroke="midnightblue" points="846.98,-643.093 838.238,-649.078 848.804,-649.851 846.98,-643.093"/>
</g>
<!-- Node22&#45;&gt;Node7 -->
<g id="edge41" class="edge"><title>Node22&#45;&gt;Node7</title>
<path fill="none" stroke="midnightblue" d="M851.302,-593.707C861.693,-590.05 871.717,-584.99 880,-578 938.121,-528.952 960.078,-434.03 966.639,-397.16"/>
<polygon fill="midnightblue" stroke="midnightblue" points="850.21,-590.382 841.696,-596.687 852.284,-597.067 850.21,-590.382"/>
</g>
<!-- Node22&#45;&gt;Node10 -->
<g id="edge42" class="edge"><title>Node22&#45;&gt;Node10</title>
<path fill="none" stroke="midnightblue" d="M851.555,-595.986C862.295,-592.117 872.372,-586.396 880,-578 946.917,-504.341 855.494,-436.01 916,-357 918.579,-353.632 921.739,-350.723 925.219,-348.213"/>
<polygon fill="midnightblue" stroke="midnightblue" points="850.52,-592.643 841.993,-598.93 852.58,-599.333 850.52,-592.643"/>
</g>
<!-- Node23&#45;&gt;Node7 -->
<g id="edge44" class="edge"><title>Node23&#45;&gt;Node7</title>
<path fill="none" stroke="midnightblue" d="M865.351,-537.838C870.53,-535.308 875.475,-532.382 880,-529 926.598,-494.171 953.846,-427.11 964.186,-397.129"/>
<polygon fill="midnightblue" stroke="midnightblue" points="863.592,-534.786 855.813,-541.979 866.379,-541.207 863.592,-534.786"/>
</g>
<!-- Node23&#45;&gt;Node10 -->
<g id="edge45" class="edge"><title>Node23&#45;&gt;Node10</title>
<path fill="none" stroke="midnightblue" d="M864.896,-540.561C870.467,-537.431 875.606,-533.625 880,-529 933.8,-472.384 867.137,-417.927 916,-357 918.717,-353.612 922.017,-350.685 925.627,-348.159"/>
<polygon fill="midnightblue" stroke="midnightblue" points="863.311,-537.439 855.829,-544.941 866.356,-543.742 863.311,-537.439"/>
</g>
<!-- Node24&#45;&gt;Node7 -->
<g id="edge47" class="edge"><title>Node24&#45;&gt;Node7</title>
<path fill="none" stroke="midnightblue" d="M853.568,-492.08C862.806,-488.89 871.884,-484.925 880,-480 915.367,-458.539 945,-418.808 959.477,-397.109"/>
<polygon fill="midnightblue" stroke="midnightblue" points="852.396,-488.779 843.917,-495.131 854.507,-495.454 852.396,-488.779"/>
</g>
<!-- Node24&#45;&gt;Node10 -->
<g id="edge48" class="edge"><title>Node24&#45;&gt;Node10</title>
<path fill="none" stroke="midnightblue" d="M853.225,-496.28C863.13,-492.537 872.497,-487.3 880,-480 920.825,-440.279 878.649,-400.004 916,-357 918.981,-353.568 922.551,-350.601 926.412,-348.042"/>
<polygon fill="midnightblue" stroke="midnightblue" points="852.02,-492.991 843.606,-499.43 854.199,-499.644 852.02,-492.991"/>
</g>
<!-- Node25&#45;&gt;Node7 -->
<g id="edge50" class="edge"><title>Node25&#45;&gt;Node7</title>
<path fill="none" stroke="midnightblue" d="M865.556,-327.273C870.505,-329.033 875.357,-330.939 880,-333 897.576,-340.801 899.259,-347.539 916,-357 922.111,-360.454 928.779,-363.862 935.258,-366.998"/>
<polygon fill="midnightblue" stroke="midnightblue" points="866.541,-323.912 855.947,-324.066 864.325,-330.552 866.541,-323.912"/>
</g>
<!-- Node25&#45;&gt;Node10 -->
<g id="edge51" class="edge"><title>Node25&#45;&gt;Node10</title>
<path fill="none" stroke="midnightblue" d="M866.46,-319.625C883.166,-321.804 900.342,-324.045 915.745,-326.054"/>
<polygon fill="midnightblue" stroke="midnightblue" points="866.508,-316.102 856.139,-318.279 865.602,-323.043 866.508,-316.102"/>
</g>
<!-- Node26&#45;&gt;Node7 -->
<g id="edge53" class="edge"><title>Node26&#45;&gt;Node7</title>
<path fill="none" stroke="midnightblue" d="M847.758,-267.691C859.342,-271.278 870.7,-276.479 880,-284 908.128,-306.748 890.199,-331.644 916,-357 919.846,-360.779 924.371,-364.065 929.129,-366.9"/>
<polygon fill="midnightblue" stroke="midnightblue" points="848.583,-264.289 838.015,-265.043 846.746,-271.044 848.583,-264.289"/>
</g>
<!-- Node26&#45;&gt;Node10 -->
<g id="edge54" class="edge"><title>Node26&#45;&gt;Node10</title>
<path fill="none" stroke="midnightblue" d="M847.905,-273.471C858.761,-276.479 869.821,-279.989 880,-284 903.303,-293.182 928.137,-307.254 945.635,-317.966"/>
<polygon fill="midnightblue" stroke="midnightblue" points="848.587,-270.03 838.023,-270.849 846.792,-276.796 848.587,-270.03"/>
</g>
</g>
</svg>
        <g id="navigator" transform="translate(0 0)" fill="#404254">
                <rect fill="#f2f5e9" fill-opacity="0.5" stroke="#606060" stroke-width=".5" x="0" y="0" width="60" height="60"/>
                <use id="zoomplus" xlink:href="#zoomPlus" x="17" y="9" onmousedown="handleZoom(evt,'in')"/>
                <use id="zoomminus" xlink:href="#zoomMin" x="42" y="9" onmousedown="handleZoom(evt,'out')"/>
                <use id="reset" xlink:href="#resetDef" x="30" y="36" onmousedown="handleReset()"/>
                <g id="arrowUp" xlink:href="#dirArrow" transform="translate(30 24)" onmousedown="handlePan(0,-1)">
                  <use xlink:href="#rim" fill="#404040">
                        <set attributeName="fill" to="#808080" begin="arrowUp.mouseover" end="arrowUp.mouseout"/>
                  </use>
                  <path fill="none" stroke="white" stroke-width="1.5" d="M0,-3.0v7 M-2.5,-0.5L0,-3.0L2.5,-0.5"/>
                </g>
                <g id="arrowRight" xlink:href="#dirArrow" transform="rotate(90) translate(36 -43)" onmousedown="handlePan(1,0)">
                  <use xlink:href="#rim" fill="#404040">
                        <set attributeName="fill" to="#808080" begin="arrowRight.mouseover" end="arrowRight.mouseout"/>
                  </use>
                  <path fill="none" stroke="white" stroke-width="1.5" d="M0,-3.0v7 M-2.5,-0.5L0,-3.0L2.5,-0.5"/>
                </g>
                <g id="arrowDown" xlink:href="#dirArrow" transform="rotate(180) translate(-30 -48)" onmousedown="handlePan(0,1)">
                  <use xlink:href="#rim" fill="#404040">
                        <set attributeName="fill" to="#808080" begin="arrowDown.mouseover" end="arrowDown.mouseout"/>
                  </use>
                  <path fill="none" stroke="white" stroke-width="1.5" d="M0,-3.0v7 M-2.5,-0.5L0,-3.0L2.5,-0.5"/>
                </g>
                <g id="arrowLeft" xlink:href="#dirArrow" transform="rotate(270) translate(-36 17)" onmousedown="handlePan(-1,0)">
                  <use xlink:href="#rim" fill="#404040">
                        <set attributeName="fill" to="#808080" begin="arrowLeft.mouseover" end="arrowLeft.mouseout"/>
                  </use>
                  <path fill="none" stroke="white" stroke-width="1.5" d="M0,-3.0v7 M-2.5,-0.5L0,-3.0L2.5,-0.5"/>
                </g>
        </g>
        <svg viewBox="0 0 15 15" width="100%" height="30px" preserveAspectRatio="xMaxYMin meet">
         <g id="arrow_out" transform="scale(0.3 0.3)">
          <a xlink:href="classICED_1_1HalfCell_1_1SolutionData_a80aaf93c79fb804885351b17786981e4_icgraph_org.svg" target="_base">
           <rect id="button" ry="5" rx="5" y="6" x="6" height="38" width="38"
                fill="#f2f5e9" fill-opacity="0.5" stroke="#606060" stroke-width="1.0"/>
           <path id="arrow"
             d="M 11.500037,31.436501 C 11.940474,20.09759 22.043105,11.32322 32.158766,21.979434 L 37.068811,17.246167 C 37.068811,17.246167 37.088388,32 37.088388,32 L 22.160133,31.978069 C 22.160133,31.978069 26.997745,27.140456 26.997745,27.140456 C 18.528582,18.264221 13.291696,25.230495 11.500037,31.436501 z"
             style="fill:#404040;"/>
          </a>
         </g>
        </svg>
</svg>
