<?xml version="1.0" encoding="UTF-8" standalone="no"?>
<!DOCTYPE svg PUBLIC "-//W3C//DTD SVG 1.1//EN"
 "http://www.w3.org/Graphics/SVG/1.1/DTD/svg11.dtd">
<!-- Generated by graphviz version 2.30.1 (20150305.2338)
 -->
<!-- Title: DeviceData Pages: 1 -->
<svg width="2126pt" height="836pt"
 viewBox="0.00 0.00 2126.00 836.00" xmlns="http://www.w3.org/2000/svg" xmlns:xlink="http://www.w3.org/1999/xlink">
<g id="graph0" class="graph" transform="scale(1 1) rotate(0) translate(4 832)">
<title>DeviceData</title>
<!-- Node1 -->
<g id="node1" class="node"><title>Node1</title>
<polygon fill="#bfbfbf" stroke="black" points="2050,-469.5 2050,-488.5 2118,-488.5 2118,-469.5 2050,-469.5"/>
<text text-anchor="middle" x="2084" y="-476.5" font-family="Helvetica,sans-Serif" font-size="10.00">DeviceData</text>
</g>
<!-- Node2 -->
<g id="node2" class="node"><title>Node2</title>
<polygon fill="none" stroke="#bfbfbf" points="649,-640.5 649,-659.5 715,-659.5 715,-640.5 649,-640.5"/>
<text text-anchor="middle" x="682" y="-647.5" font-family="Helvetica,sans-Serif" font-size="10.00">GlobalType</text>
</g>
<!-- Node2&#45;&gt;Node1 -->
<g id="edge1" class="edge"><title>Node2&#45;&gt;Node1</title>
<path fill="none" stroke="midnightblue" d="M725.506,-657.991C875.877,-685.995 1382.44,-778 1547,-778 1547,-778 1547,-778 1867,-778 2013.33,-778 2070.52,-539.788 2081.12,-488.61"/>
<polygon fill="midnightblue" stroke="midnightblue" points="725.777,-654.481 715.305,-656.088 724.493,-661.363 725.777,-654.481"/>
</g>
<!-- Node7 -->
<g id="node7" class="node"><title>Node7</title>
<g id="a_node7"><a xlink:href="classICED_1_1HalfCell_1_1DeviceComponent.html" target="_top" xlink:title="Class to hold the solution data for the electro&#45;chemical device solver. ">
<polygon fill="none" stroke="black" points="1628,-387.5 1628,-406.5 1726,-406.5 1726,-387.5 1628,-387.5"/>
<text text-anchor="middle" x="1677" y="-394.5" font-family="Helvetica,sans-Serif" font-size="10.00">DeviceComponent</text>
</a>
</g>
</g>
<!-- Node2&#45;&gt;Node7 -->
<g id="edge7" class="edge"><title>Node2&#45;&gt;Node7</title>
<path fill="none" stroke="midnightblue" d="M725.103,-638.315C739.317,-634.518 755.304,-630.409 770,-627 871.551,-603.445 896.779,-595.589 1000,-581 1134.69,-561.964 1497.48,-606.446 1610,-530 1653.92,-500.158 1669.89,-432.223 1674.46,-406.824"/>
<polygon fill="midnightblue" stroke="midnightblue" points="723.854,-635.027 715.11,-641.01 725.676,-641.785 723.854,-635.027"/>
</g>
<!-- Node9 -->
<g id="node9" class="node"><title>Node9</title>
<g id="a_node9"><a xlink:href="classICED_1_1HalfCell_1_1PhysicsModule.html" target="_top" xlink:title="Virtual class for physics modules. ">
<polygon fill="none" stroke="black" points="1148.5,-593.5 1148.5,-612.5 1231.5,-612.5 1231.5,-593.5 1148.5,-593.5"/>
<text text-anchor="middle" x="1190" y="-600.5" font-family="Helvetica,sans-Serif" font-size="10.00">PhysicsModule</text>
</a>
</g>
</g>
<!-- Node2&#45;&gt;Node9 -->
<g id="edge11" class="edge"><title>Node2&#45;&gt;Node9</title>
<path fill="none" stroke="midnightblue" d="M725.372,-646.134C767.213,-642.311 833.021,-636.283 890,-631 982.407,-622.432 1090.87,-612.242 1148.38,-606.828"/>
<polygon fill="midnightblue" stroke="midnightblue" points="724.911,-642.661 715.271,-647.056 725.548,-649.632 724.911,-642.661"/>
</g>
<!-- Node10 -->
<g id="node10" class="node"><title>Node10</title>
<g id="a_node10"><a xlink:href="classICED_1_1HalfCell_1_1SolutionData.html" target="_top" xlink:title="Class to hold the solution data for the electro&#45;chemical device solver. ">
<polygon fill="none" stroke="black" points="908.5,-396.5 908.5,-415.5 981.5,-415.5 981.5,-396.5 908.5,-396.5"/>
<text text-anchor="middle" x="945" y="-403.5" font-family="Helvetica,sans-Serif" font-size="10.00">SolutionData</text>
</a>
</g>
</g>
<!-- Node2&#45;&gt;Node10 -->
<g id="edge13" class="edge"><title>Node2&#45;&gt;Node10</title>
<path fill="none" stroke="midnightblue" d="M725.02,-644.48C734.812,-641.505 744.543,-636.953 752,-630 768.969,-614.178 753.889,-597.695 770,-581 810.003,-539.546 848.916,-572.383 890,-532 924.455,-498.133 938.222,-438.748 942.445,-415.611"/>
<polygon fill="midnightblue" stroke="midnightblue" points="724.115,-641.099 715.29,-646.961 725.844,-647.882 724.115,-641.099"/>
</g>
<!-- Node3 -->
<g id="node3" class="node"><title>Node3</title>
<polygon fill="none" stroke="#bfbfbf" points="633.5,-161.5 633.5,-180.5 730.5,-180.5 730.5,-161.5 633.5,-161.5"/>
<text text-anchor="middle" x="682" y="-168.5" font-family="Helvetica,sans-Serif" font-size="10.00">vector&lt; double * &gt;</text>
</g>
<!-- Node3&#45;&gt;Node1 -->
<g id="edge2" class="edge"><title>Node3&#45;&gt;Node1</title>
<path fill="none" stroke="#9a32cd" stroke-dasharray="5,2" d="M734.488,-159.195C867.911,-129.675 1236.14,-55 1547,-55 1547,-55 1547,-55 1867,-55 2059.49,-55 2080.52,-406.235 2082.74,-469.348"/>
<polygon fill="#9a32cd" stroke="#9a32cd" points="733.544,-155.82 724.544,-161.409 735.065,-162.653 733.544,-155.82"/>
<text text-anchor="middle" x="1408" y="-67" font-family="Helvetica,sans-Serif" font-size="10.00"> inputDataDouble</text>
</g>
<!-- Node3&#45;&gt;Node7 -->
<g id="edge8" class="edge"><title>Node3&#45;&gt;Node7</title>
<path fill="none" stroke="#9a32cd" stroke-dasharray="5,2" d="M740.943,-168.604C933.037,-161.18 1540.71,-142.053 1610,-194 1674.05,-242.018 1677,-353.524 1676.36,-387.198"/>
<polygon fill="#9a32cd" stroke="#9a32cd" points="740.624,-165.114 730.768,-169.001 740.897,-172.108 740.624,-165.114"/>
<text text-anchor="middle" x="1190" y="-163" font-family="Helvetica,sans-Serif" font-size="10.00"> inputDataDouble</text>
</g>
<!-- Node3&#45;&gt;Node10 -->
<g id="edge14" class="edge"><title>Node3&#45;&gt;Node10</title>
<path fill="none" stroke="#9a32cd" stroke-dasharray="5,2" d="M699.657,-187.549C716.285,-203.317 743.16,-226.836 770,-242 819.326,-269.868 848.453,-246.484 890,-285 924.077,-316.591 937.998,-373.665 942.354,-396.337"/>
<polygon fill="#9a32cd" stroke="#9a32cd" points="701.987,-184.933 692.363,-180.502 697.123,-189.968 701.987,-184.933"/>
<text text-anchor="middle" x="830" y="-288" font-family="Helvetica,sans-Serif" font-size="10.00"> inputDataDouble</text>
</g>
<!-- Node4 -->
<g id="node4" class="node"><title>Node4</title>
<g id="a_node4"><a xlink:title="STL class. ">
<polygon fill="none" stroke="#bfbfbf" points="129,-313.5 129,-332.5 197,-332.5 197,-313.5 129,-313.5"/>
<text text-anchor="middle" x="163" y="-320.5" font-family="Helvetica,sans-Serif" font-size="10.00">vector&lt; T &gt;</text>
</a>
</g>
</g>
<!-- Node4&#45;&gt;Node3 -->
<g id="edge3" class="edge"><title>Node4&#45;&gt;Node3</title>
<path fill="none" stroke="orange" stroke-dasharray="5,2" d="M177.287,-305.591C190.122,-290 210.961,-267.693 234,-255 365.405,-182.602 547.982,-171.399 633.389,-170.435"/>
<polygon fill="orange" stroke="orange" points="174.512,-303.457 171.017,-313.459 179.987,-307.82 174.512,-303.457"/>
<text text-anchor="middle" x="400" y="-212" font-family="Helvetica,sans-Serif" font-size="10.00"> &lt; double * &gt;</text>
</g>
<!-- Node11 -->
<g id="node11" class="node"><title>Node11</title>
<polygon fill="none" stroke="#bfbfbf" points="642.5,-116.5 642.5,-135.5 721.5,-135.5 721.5,-116.5 642.5,-116.5"/>
<text text-anchor="middle" x="682" y="-123.5" font-family="Helvetica,sans-Serif" font-size="10.00">vector&lt; int * &gt;</text>
</g>
<!-- Node4&#45;&gt;Node11 -->
<g id="edge16" class="edge"><title>Node4&#45;&gt;Node11</title>
<path fill="none" stroke="orange" stroke-dasharray="5,2" d="M171.771,-304.005C182.479,-279.991 203.918,-238.798 234,-214 355.45,-113.882 558.189,-116.241 642.45,-122.255"/>
<polygon fill="orange" stroke="orange" points="168.455,-302.859 167.729,-313.429 174.888,-305.618 168.455,-302.859"/>
<text text-anchor="middle" x="400" y="-157" font-family="Helvetica,sans-Serif" font-size="10.00"> &lt; int * &gt;</text>
</g>
<!-- Node13 -->
<g id="node13" class="node"><title>Node13</title>
<polygon fill="none" stroke="#bfbfbf" points="355,-342.5 355,-361.5 445,-361.5 445,-342.5 355,-342.5"/>
<text text-anchor="middle" x="400" y="-349.5" font-family="Helvetica,sans-Serif" font-size="10.00">vector&lt; double &gt;</text>
</g>
<!-- Node4&#45;&gt;Node13 -->
<g id="edge19" class="edge"><title>Node4&#45;&gt;Node13</title>
<path fill="none" stroke="orange" stroke-dasharray="5,2" d="M207.349,-328.349C249.288,-333.525 312.541,-341.331 354.775,-346.542"/>
<polygon fill="orange" stroke="orange" points="207.525,-324.845 197.171,-327.093 206.667,-331.792 207.525,-324.845"/>
<text text-anchor="middle" x="279" y="-346" font-family="Helvetica,sans-Serif" font-size="10.00"> &lt; double &gt;</text>
</g>
<!-- Node12 -->
<g id="node12" class="node"><title>Node12</title>
<polygon fill="none" stroke="#bfbfbf" points="632.5,-503 632.5,-533 731.5,-533 731.5,-503 632.5,-503"/>
<text text-anchor="start" x="640.5" y="-521" font-family="Helvetica,sans-Serif" font-size="10.00">vector&lt; std::vector</text>
<text text-anchor="middle" x="682" y="-510" font-family="Helvetica,sans-Serif" font-size="10.00">&lt; double &gt; &gt;</text>
</g>
<!-- Node4&#45;&gt;Node12 -->
<g id="edge20" class="edge"><title>Node4&#45;&gt;Node12</title>
<path fill="none" stroke="orange" stroke-dasharray="5,2" d="M191.078,-337.42C203.927,-344.034 219.589,-351.771 234,-358 398.305,-429.024 442.31,-440.029 612,-497 618.529,-499.192 625.437,-501.411 632.261,-503.545"/>
<polygon fill="orange" stroke="orange" points="192.355,-334.139 181.869,-332.625 189.122,-340.348 192.355,-334.139"/>
<text text-anchor="middle" x="400" y="-449" font-family="Helvetica,sans-Serif" font-size="10.00"> &lt; std::vector&lt; double &gt; &gt;</text>
</g>
<!-- Node14 -->
<g id="node14" class="node"><title>Node14</title>
<polygon fill="none" stroke="#bfbfbf" points="632.5,-552 632.5,-582 731.5,-582 731.5,-552 632.5,-552"/>
<text text-anchor="start" x="640.5" y="-570" font-family="Helvetica,sans-Serif" font-size="10.00">vector&lt; std::vector</text>
<text text-anchor="middle" x="682" y="-559" font-family="Helvetica,sans-Serif" font-size="10.00">&lt; double &gt; * &gt;</text>
</g>
<!-- Node4&#45;&gt;Node14 -->
<g id="edge23" class="edge"><title>Node4&#45;&gt;Node14</title>
<path fill="none" stroke="orange" stroke-dasharray="5,2" d="M180.174,-340.52C193.841,-354.866 214.286,-375.286 234,-391 278.729,-426.655 290.225,-436.685 342,-461 440.793,-507.397 565.03,-540.308 632.3,-556.202"/>
<polygon fill="orange" stroke="orange" points="182.368,-337.743 172.967,-332.856 177.268,-342.539 182.368,-337.743"/>
<text text-anchor="start" x="351.5" y="-521" font-family="Helvetica,sans-Serif" font-size="10.00"> &lt; std::vector&lt; double</text>
<text text-anchor="middle" x="400" y="-510" font-family="Helvetica,sans-Serif" font-size="10.00"> &gt; * &gt;</text>
</g>
<!-- Node15 -->
<g id="node15" class="node"><title>Node15</title>
<polygon fill="none" stroke="#bfbfbf" points="646,-243.5 646,-262.5 718,-262.5 718,-243.5 646,-243.5"/>
<text text-anchor="middle" x="682" y="-250.5" font-family="Helvetica,sans-Serif" font-size="10.00">vector&lt; int &gt;</text>
</g>
<!-- Node4&#45;&gt;Node15 -->
<g id="edge25" class="edge"><title>Node4&#45;&gt;Node15</title>
<path fill="none" stroke="orange" stroke-dasharray="5,2" d="M185.017,-307.174C198.347,-297.979 216.353,-287.047 234,-281 380.197,-230.907 568.816,-241.718 645.868,-249.059"/>
<polygon fill="orange" stroke="orange" points="182.705,-304.524 176.597,-313.181 186.771,-310.222 182.705,-304.524"/>
<text text-anchor="middle" x="400" y="-258" font-family="Helvetica,sans-Serif" font-size="10.00"> &lt; int &gt;</text>
</g>
<!-- Node16 -->
<g id="node16" class="node"><title>Node16</title>
<polygon fill="none" stroke="#bfbfbf" points="476.5,-268.5 476.5,-309.5 593.5,-309.5 593.5,-268.5 476.5,-268.5"/>
<text text-anchor="start" x="484.5" y="-297.5" font-family="Helvetica,sans-Serif" font-size="10.00">vector&lt; std::vector</text>
<text text-anchor="start" x="484.5" y="-286.5" font-family="Helvetica,sans-Serif" font-size="10.00">&lt; std::vector&lt; std::</text>
<text text-anchor="middle" x="535" y="-275.5" font-family="Helvetica,sans-Serif" font-size="10.00">vector&lt; double &gt; &gt; &gt; &gt;</text>
</g>
<!-- Node4&#45;&gt;Node16 -->
<g id="edge27" class="edge"><title>Node4&#45;&gt;Node16</title>
<path fill="none" stroke="orange" stroke-dasharray="5,2" d="M192.729,-309.344C205.132,-304.132 219.986,-298.778 234,-296 317.042,-279.535 415.538,-281.153 476.408,-284.53"/>
<polygon fill="orange" stroke="orange" points="191.127,-306.225 183.371,-313.442 193.935,-312.637 191.127,-306.225"/>
<text text-anchor="start" x="234.5" y="-321" font-family="Helvetica,sans-Serif" font-size="10.00"> &lt; std::vector&lt; std</text>
<text text-anchor="start" x="234.5" y="-310" font-family="Helvetica,sans-Serif" font-size="10.00">::vector&lt; std::vector</text>
<text text-anchor="middle" x="279" y="-299" font-family="Helvetica,sans-Serif" font-size="10.00">&lt; double &gt; &gt; &gt; &gt;</text>
</g>
<!-- Node17 -->
<g id="node17" class="node"><title>Node17</title>
<polygon fill="none" stroke="#bfbfbf" points="629.5,-601.5 629.5,-620.5 734.5,-620.5 734.5,-601.5 629.5,-601.5"/>
<text text-anchor="middle" x="682" y="-608.5" font-family="Helvetica,sans-Serif" font-size="10.00">vector&lt; std::string &gt;</text>
</g>
<!-- Node4&#45;&gt;Node17 -->
<g id="edge31" class="edge"><title>Node4&#45;&gt;Node17</title>
<path fill="none" stroke="orange" stroke-dasharray="5,2" d="M173.348,-341.851C195.7,-384.627 256.791,-488.75 342,-533 436.061,-581.846 560.477,-600.378 629.422,-607.202"/>
<polygon fill="orange" stroke="orange" points="176.394,-340.12 168.726,-332.809 170.161,-343.306 176.394,-340.12"/>
<text text-anchor="middle" x="400" y="-579" font-family="Helvetica,sans-Serif" font-size="10.00"> &lt; std::string &gt;</text>
</g>
<!-- Node8 -->
<g id="node8" class="node"><title>Node8</title>
<polygon fill="none" stroke="#bfbfbf" points="1348.5,-594 1348.5,-624 1467.5,-624 1467.5,-594 1348.5,-594"/>
<text text-anchor="start" x="1356.5" y="-612" font-family="Helvetica,sans-Serif" font-size="10.00">vector&lt; ICED::HalfCell</text>
<text text-anchor="middle" x="1408" y="-601" font-family="Helvetica,sans-Serif" font-size="10.00">::PhysicsModule * &gt;</text>
</g>
<!-- Node4&#45;&gt;Node8 -->
<g id="edge34" class="edge"><title>Node4&#45;&gt;Node8</title>
<path fill="none" stroke="orange" stroke-dasharray="5,2" d="M168.873,-342.471C177.847,-375.754 199.307,-444.759 234,-494 315.021,-608.997 343.237,-651.497 476,-698 638.435,-754.896 1170.31,-656.523 1348.34,-621.026"/>
<polygon fill="orange" stroke="orange" points="172.218,-341.426 166.307,-332.633 165.444,-343.193 172.218,-341.426"/>
<text text-anchor="start" x="770" y="-723" font-family="Helvetica,sans-Serif" font-size="10.00"> &lt; ICED::HalfCell::Physics</text>
<text text-anchor="middle" x="830" y="-712" font-family="Helvetica,sans-Serif" font-size="10.00">Module * &gt;</text>
</g>
<!-- Node6 -->
<g id="node6" class="node"><title>Node6</title>
<polygon fill="none" stroke="#bfbfbf" points="1806.5,-382 1806.5,-412 1925.5,-412 1925.5,-382 1806.5,-382"/>
<text text-anchor="start" x="1814.5" y="-400" font-family="Helvetica,sans-Serif" font-size="10.00">vector&lt; ICED::HalfCell</text>
<text text-anchor="middle" x="1866" y="-389" font-family="Helvetica,sans-Serif" font-size="10.00">::DeviceComponent * &gt;</text>
</g>
<!-- Node4&#45;&gt;Node6 -->
<g id="edge41" class="edge"><title>Node4&#45;&gt;Node6</title>
<path fill="none" stroke="orange" stroke-dasharray="5,2" d="M168.135,-303.182C184.062,-232.933 248.24,-0 399,-0 399,-0 399,-0 1059,-0 1192.16,-0 1218.5,-47.989 1348,-79 1463.62,-106.689 1505.83,-75.6875 1610,-133 1728.08,-197.968 1825.1,-335.783 1855.27,-381.731"/>
<polygon fill="orange" stroke="orange" points="164.632,-302.817 165.917,-313.333 171.471,-304.311 164.632,-302.817"/>
<text text-anchor="start" x="1000.5" y="-14" font-family="Helvetica,sans-Serif" font-size="10.00"> &lt; ICED::HalfCell::Device</text>
<text text-anchor="middle" x="1058" y="-3" font-family="Helvetica,sans-Serif" font-size="10.00">Component * &gt;</text>
</g>
<!-- Node5 -->
<g id="node5" class="node"><title>Node5</title>
<polygon fill="none" stroke="#bfbfbf" points="0.5,-313.5 0.5,-332.5 29.5,-332.5 29.5,-313.5 0.5,-313.5"/>
<text text-anchor="middle" x="15" y="-320.5" font-family="Helvetica,sans-Serif" font-size="10.00">T</text>
</g>
<!-- Node5&#45;&gt;Node4 -->
<g id="edge4" class="edge"><title>Node5&#45;&gt;Node4</title>
<path fill="none" stroke="#9a32cd" stroke-dasharray="5,2" d="M39.8232,-323C64.033,-323 101.731,-323 128.85,-323"/>
<polygon fill="#9a32cd" stroke="#9a32cd" points="39.7354,-319.5 29.7353,-323 39.7353,-326.5 39.7354,-319.5"/>
<text text-anchor="middle" x="70" y="-326" font-family="Helvetica,sans-Serif" font-size="10.00"> elements</text>
</g>
<!-- Node6&#45;&gt;Node1 -->
<g id="edge5" class="edge"><title>Node6&#45;&gt;Node1</title>
<path fill="none" stroke="#9a32cd" stroke-dasharray="5,2" d="M1916,-415.603C1960.11,-432.348 2023.16,-456.285 2057.81,-469.436"/>
<polygon fill="#9a32cd" stroke="#9a32cd" points="1917.21,-412.317 1906.62,-412.04 1914.72,-418.861 1917.21,-412.317"/>
<text text-anchor="middle" x="1988" y="-463" font-family="Helvetica,sans-Serif" font-size="10.00"> deviceComponents</text>
</g>
<!-- Node7&#45;&gt;Node6 -->
<g id="edge6" class="edge"><title>Node7&#45;&gt;Node6</title>
<path fill="none" stroke="#9a32cd" stroke-dasharray="5,2" d="M1736.17,-397C1758.49,-397 1783.96,-397 1806.33,-397"/>
<polygon fill="#9a32cd" stroke="#9a32cd" points="1736.16,-393.5 1726.16,-397 1736.16,-400.5 1736.16,-393.5"/>
<text text-anchor="middle" x="1766" y="-400" font-family="Helvetica,sans-Serif" font-size="10.00"> elements</text>
</g>
<!-- Node8&#45;&gt;Node7 -->
<g id="edge9" class="edge"><title>Node8&#45;&gt;Node7</title>
<path fill="none" stroke="#9a32cd" stroke-dasharray="5,2" d="M1477.72,-615.449C1520.23,-615.725 1573.46,-608.881 1610,-579 1665.42,-533.677 1674.31,-437.78 1675.73,-406.843"/>
<polygon fill="#9a32cd" stroke="#9a32cd" points="1477.78,-611.949 1467.72,-615.253 1477.65,-618.948 1477.78,-611.949"/>
<text text-anchor="middle" x="1548" y="-619" font-family="Helvetica,sans-Serif" font-size="10.00"> componentPhysicsModules</text>
</g>
<!-- Node9&#45;&gt;Node8 -->
<g id="edge10" class="edge"><title>Node9&#45;&gt;Node8</title>
<path fill="none" stroke="#9a32cd" stroke-dasharray="5,2" d="M1241.63,-604.406C1273.54,-605.293 1314.85,-606.44 1348.2,-607.367"/>
<polygon fill="#9a32cd" stroke="#9a32cd" points="1241.72,-600.908 1231.63,-604.129 1241.53,-607.905 1241.72,-600.908"/>
<text text-anchor="middle" x="1297" y="-610" font-family="Helvetica,sans-Serif" font-size="10.00"> elements</text>
</g>
<!-- Node10&#45;&gt;Node9 -->
<g id="edge12" class="edge"><title>Node10&#45;&gt;Node9</title>
<path fill="none" stroke="#9a32cd" stroke-dasharray="5,2" d="M949.773,-425.856C955.85,-452.69 970.268,-500.449 1000,-529 1041.3,-568.662 1106.32,-587.788 1148.31,-596.469"/>
<polygon fill="#9a32cd" stroke="#9a32cd" points="953.133,-424.825 947.659,-415.754 946.282,-426.259 953.133,-424.825"/>
<text text-anchor="middle" x="1058" y="-592" font-family="Helvetica,sans-Serif" font-size="10.00"> pSolutionData</text>
</g>
<!-- Node10&#45;&gt;Node7 -->
<g id="edge36" class="edge"><title>Node10&#45;&gt;Node7</title>
<path fill="none" stroke="#9a32cd" stroke-dasharray="5,2" d="M991.754,-405.436C1122.15,-403.828 1494.79,-399.234 1627.96,-397.592"/>
<polygon fill="#9a32cd" stroke="#9a32cd" points="991.66,-401.937 981.704,-405.56 991.746,-408.936 991.66,-401.937"/>
<text text-anchor="middle" x="1297" y="-406" font-family="Helvetica,sans-Serif" font-size="10.00"> pSolutionData</text>
</g>
<!-- Node10&#45;&gt;Node1 -->
<g id="edge43" class="edge"><title>Node10&#45;&gt;Node1</title>
<path fill="none" stroke="#9a32cd" stroke-dasharray="5,2" d="M965.884,-421.941C1005.71,-452.207 1099.16,-515 1189,-515 1189,-515 1189,-515 1867,-515 1932.58,-515 2007.85,-498.654 2049.98,-487.991"/>
<polygon fill="#9a32cd" stroke="#9a32cd" points="967.842,-419.03 957.793,-415.673 963.555,-424.564 967.842,-419.03"/>
<text text-anchor="middle" x="1548" y="-518" font-family="Helvetica,sans-Serif" font-size="10.00"> pSolutionData</text>
</g>
<!-- Node11&#45;&gt;Node10 -->
<g id="edge15" class="edge"><title>Node11&#45;&gt;Node10</title>
<path fill="none" stroke="#9a32cd" stroke-dasharray="5,2" d="M731.363,-136.992C778.759,-150.288 849.594,-177.337 890,-227 933.225,-280.127 941.88,-367.279 943.588,-396.276"/>
<polygon fill="#9a32cd" stroke="#9a32cd" points="732.191,-133.591 721.624,-134.361 730.365,-140.348 732.191,-133.591"/>
<text text-anchor="middle" x="830" y="-230" font-family="Helvetica,sans-Serif" font-size="10.00"> inputDataInt</text>
</g>
<!-- Node11&#45;&gt;Node7 -->
<g id="edge35" class="edge"><title>Node11&#45;&gt;Node7</title>
<path fill="none" stroke="#9a32cd" stroke-dasharray="5,2" d="M731.794,-124.738C913.121,-120.492 1541.26,-109.908 1610,-165 1646.27,-194.07 1669.27,-347.189 1674.74,-387.348"/>
<polygon fill="#9a32cd" stroke="#9a32cd" points="731.661,-121.24 721.747,-124.977 731.828,-128.238 731.661,-121.24"/>
<text text-anchor="middle" x="1190" y="-127" font-family="Helvetica,sans-Serif" font-size="10.00"> inputDataInt</text>
</g>
<!-- Node11&#45;&gt;Node1 -->
<g id="edge42" class="edge"><title>Node11&#45;&gt;Node1</title>
<path fill="none" stroke="#9a32cd" stroke-dasharray="5,2" d="M732.059,-114.537C863.373,-84.8932 1234.14,-8 1547,-8 1547,-8 1547,-8 1867,-8 1945.98,-8 1983.71,-11.4971 2032,-74 2081.82,-138.494 2083.29,-414.012 2083.07,-469.312"/>
<polygon fill="#9a32cd" stroke="#9a32cd" points="730.9,-111.211 721.923,-116.839 732.45,-118.037 730.9,-111.211"/>
<text text-anchor="middle" x="1408" y="-20" font-family="Helvetica,sans-Serif" font-size="10.00"> inputDataInt</text>
</g>
<!-- Node12&#45;&gt;Node10 -->
<g id="edge17" class="edge"><title>Node12&#45;&gt;Node10</title>
<path fill="none" stroke="#9a32cd" stroke-dasharray="5,2" d="M740.387,-498.394C744.694,-495.392 748.656,-491.948 752,-488 773.321,-462.832 744.594,-437.037 770,-416 790.276,-399.211 863.373,-400.625 908.12,-403.253"/>
<polygon fill="#9a32cd" stroke="#9a32cd" points="738.481,-495.457 731.749,-503.639 742.113,-501.441 738.481,-495.457"/>
<text text-anchor="middle" x="830" y="-430" font-family="Helvetica,sans-Serif" font-size="10.00"> function</text>
<text text-anchor="middle" x="830" y="-419" font-family="Helvetica,sans-Serif" font-size="10.00">solutionData</text>
</g>
<!-- Node13&#45;&gt;Node12 -->
<g id="edge18" class="edge"><title>Node13&#45;&gt;Node12</title>
<path fill="none" stroke="#9a32cd" stroke-dasharray="5,2" d="M455.209,-362.85C510.558,-374.155 589.074,-390.919 594,-396 623.002,-425.913 585.901,-455.523 612,-488 617.4,-494.72 624.602,-499.969 632.318,-504.059"/>
<polygon fill="#9a32cd" stroke="#9a32cd" points="455.664,-359.371 445.167,-360.806 454.268,-366.23 455.664,-359.371"/>
<text text-anchor="middle" x="535" y="-399" font-family="Helvetica,sans-Serif" font-size="10.00"> elements</text>
</g>
<!-- Node13&#45;&gt;Node14 -->
<g id="edge22" class="edge"><title>Node13&#45;&gt;Node14</title>
<path fill="none" stroke="#9a32cd" stroke-dasharray="5,2" d="M421.761,-367.599C465.658,-400.819 566.145,-478.189 594,-511 604.311,-523.146 599.775,-531.783 612,-542 617.964,-546.984 625.003,-551.012 632.267,-554.258"/>
<polygon fill="#9a32cd" stroke="#9a32cd" points="423.864,-364.802 413.774,-361.57 419.647,-370.389 423.864,-364.802"/>
<text text-anchor="middle" x="535" y="-514" font-family="Helvetica,sans-Serif" font-size="10.00"> elements</text>
</g>
<!-- Node13&#45;&gt;Node10 -->
<g id="edge32" class="edge"><title>Node13&#45;&gt;Node10</title>
<path fill="none" stroke="#9a32cd" stroke-dasharray="5,2" d="M455.31,-347.665C524.841,-343.416 648.684,-340.243 752,-361 760.415,-362.691 761.782,-365.521 770,-368 817.069,-382.197 872.791,-393.418 908.26,-399.882"/>
<polygon fill="#9a32cd" stroke="#9a32cd" points="454.796,-344.191 445.041,-348.325 455.245,-351.176 454.796,-344.191"/>
<text text-anchor="middle" x="682" y="-485" font-family="Helvetica,sans-Serif" font-size="10.00"> xCoords</text>
<text text-anchor="middle" x="682" y="-474" font-family="Helvetica,sans-Serif" font-size="10.00">activityCoefficientDer</text>
<text text-anchor="middle" x="682" y="-463" font-family="Helvetica,sans-Serif" font-size="10.00">activityCoefficients</text>
<text text-anchor="middle" x="682" y="-452" font-family="Helvetica,sans-Serif" font-size="10.00">transferenceNumberDerDer</text>
<text text-anchor="middle" x="682" y="-441" font-family="Helvetica,sans-Serif" font-size="10.00">concentrationDiffusionDerDer</text>
<text text-anchor="middle" x="682" y="-430" font-family="Helvetica,sans-Serif" font-size="10.00">activityCoefficientDerDer</text>
<text text-anchor="start" x="612.5" y="-419" font-family="Helvetica,sans-Serif" font-size="10.00">diffusionElectrolyteConductivity</text>
<text text-anchor="middle" x="682" y="-408" font-family="Helvetica,sans-Serif" font-size="10.00">Der</text>
<text text-anchor="middle" x="682" y="-397" font-family="Helvetica,sans-Serif" font-size="10.00">transferenceNumber</text>
<text text-anchor="middle" x="682" y="-386" font-family="Helvetica,sans-Serif" font-size="10.00">concentrationDiffusionDer</text>
<text text-anchor="middle" x="682" y="-375" font-family="Helvetica,sans-Serif" font-size="10.00">openCircuitPotentialVector</text>
<text text-anchor="middle" x="682" y="-364" font-family="Helvetica,sans-Serif" font-size="10.00">...</text>
</g>
<!-- Node13&#45;&gt;Node7 -->
<g id="edge40" class="edge"><title>Node13&#45;&gt;Node7</title>
<path fill="none" stroke="#9a32cd" stroke-dasharray="5,2" d="M455.427,-343.489C508.951,-334.639 584.059,-320.741 594,-311 619.102,-286.403 586.336,-258.011 612,-234 671.192,-178.622 1013.75,-208 1057,-208 1057,-208 1057,-208 1409,-208 1501.86,-208 1538.49,-205.769 1610,-265 1650.45,-298.504 1668.44,-362.994 1674,-387.36"/>
<polygon fill="#9a32cd" stroke="#9a32cd" points="454.674,-340.066 445.371,-345.135 455.805,-346.974 454.674,-340.066"/>
<text text-anchor="middle" x="1058" y="-222" font-family="Helvetica,sans-Serif" font-size="10.00"> rightBCValue</text>
<text text-anchor="middle" x="1058" y="-211" font-family="Helvetica,sans-Serif" font-size="10.00">leftBCValue</text>
</g>
<!-- Node14&#45;&gt;Node10 -->
<g id="edge21" class="edge"><title>Node14&#45;&gt;Node10</title>
<path fill="none" stroke="#9a32cd" stroke-dasharray="5,2" d="M740.745,-551.525C744.919,-548.842 748.754,-545.694 752,-542 776.343,-514.297 743.544,-486.692 770,-461 808.957,-423.168 839.218,-457.24 890,-438 904.878,-432.363 920.35,-422.748 930.899,-415.525"/>
<polygon fill="#9a32cd" stroke="#9a32cd" points="738.893,-548.549 731.785,-556.406 742.241,-554.696 738.893,-548.549"/>
<text text-anchor="middle" x="830" y="-464" font-family="Helvetica,sans-Serif" font-size="10.00"> inputDataVector</text>
</g>
<!-- Node15&#45;&gt;Node10 -->
<g id="edge24" class="edge"><title>Node15&#45;&gt;Node10</title>
<path fill="none" stroke="#9a32cd" stroke-dasharray="5,2" d="M719.062,-266.391C729.972,-271.041 741.766,-276.691 752,-283 760.865,-288.465 760.587,-293.545 770,-298 819.084,-321.231 845.092,-290.468 890,-321 917.759,-339.873 934.255,-378.249 940.767,-396.257"/>
<polygon fill="#9a32cd" stroke="#9a32cd" points="720.344,-263.134 709.764,-262.571 717.684,-269.609 720.344,-263.134"/>
<text text-anchor="middle" x="830" y="-335" font-family="Helvetica,sans-Serif" font-size="10.00"> iFirstGlobalDevice</text>
<text text-anchor="middle" x="830" y="-324" font-family="Helvetica,sans-Serif" font-size="10.00">iLastGlobalDevice</text>
</g>
<!-- Node15&#45;&gt;Node7 -->
<g id="edge38" class="edge"><title>Node15&#45;&gt;Node7</title>
<path fill="none" stroke="#9a32cd" stroke-dasharray="5,2" d="M728.337,-253.199C798.693,-253.491 938.42,-254 1057,-254 1057,-254 1057,-254 1409,-254 1522.06,-254 1633.54,-354.863 1666.35,-387.171"/>
<polygon fill="#9a32cd" stroke="#9a32cd" points="728.077,-249.698 718.062,-253.156 728.048,-256.698 728.077,-249.698"/>
<text text-anchor="middle" x="1190" y="-279" font-family="Helvetica,sans-Serif" font-size="10.00"> inputDataModulePriority</text>
<text text-anchor="middle" x="1190" y="-268" font-family="Helvetica,sans-Serif" font-size="10.00">rightBCType</text>
<text text-anchor="middle" x="1190" y="-257" font-family="Helvetica,sans-Serif" font-size="10.00">leftBCType</text>
</g>
<!-- Node16&#45;&gt;Node10 -->
<g id="edge26" class="edge"><title>Node16&#45;&gt;Node10</title>
<path fill="none" stroke="#9a32cd" stroke-dasharray="5,2" d="M603.82,-285.348C648.735,-285.936 707.369,-292.691 752,-319 763.486,-325.771 758.834,-335.712 770,-343 815.862,-372.933 839.603,-349.565 890,-371 905.421,-377.559 921.31,-388.448 931.824,-396.341"/>
<polygon fill="#9a32cd" stroke="#9a32cd" points="603.598,-281.848 593.587,-285.317 603.576,-288.848 603.598,-281.848"/>
<text text-anchor="middle" x="682" y="-322" font-family="Helvetica,sans-Serif" font-size="10.00"> jacobian</text>
</g>
<!-- Node17&#45;&gt;Node10 -->
<g id="edge28" class="edge"><title>Node17&#45;&gt;Node10</title>
<path fill="none" stroke="#9a32cd" stroke-dasharray="5,2" d="M743.412,-598.296C746.559,-596.211 749.462,-593.797 752,-591 781.175,-558.856 739.366,-525.757 770,-495 808.322,-456.524 843.345,-499.79 890,-472 913.149,-458.211 930.677,-430.67 938.875,-415.9"/>
<polygon fill="#9a32cd" stroke="#9a32cd" points="741.721,-595.231 734.6,-603.076 745.059,-601.384 741.721,-595.231"/>
<text text-anchor="middle" x="830" y="-520" font-family="Helvetica,sans-Serif" font-size="10.00"> inputDataIntString</text>
<text text-anchor="middle" x="830" y="-509" font-family="Helvetica,sans-Serif" font-size="10.00">inputDataVectorString</text>
<text text-anchor="middle" x="830" y="-498" font-family="Helvetica,sans-Serif" font-size="10.00">inputDataDoubleString</text>
</g>
<!-- Node17&#45;&gt;Node7 -->
<g id="edge39" class="edge"><title>Node17&#45;&gt;Node7</title>
<path fill="none" stroke="#9a32cd" stroke-dasharray="5,2" d="M734.29,-598.285C740.378,-596.151 746.409,-593.727 752,-591 760.869,-586.674 760.949,-581.931 770,-578 1118.98,-426.439 1238.37,-494.505 1610,-413 1619.1,-411.005 1628.87,-408.717 1638.02,-406.508"/>
<polygon fill="#9a32cd" stroke="#9a32cd" points="733.152,-594.975 724.731,-601.405 735.324,-601.63 733.152,-594.975"/>
<text text-anchor="middle" x="1190" y="-511" font-family="Helvetica,sans-Serif" font-size="10.00"> inputDataBoundaryString</text>
<text text-anchor="middle" x="1190" y="-500" font-family="Helvetica,sans-Serif" font-size="10.00">inputDataModuleString</text>
<text text-anchor="middle" x="1190" y="-489" font-family="Helvetica,sans-Serif" font-size="10.00">inputDataIntString</text>
<text text-anchor="middle" x="1190" y="-478" font-family="Helvetica,sans-Serif" font-size="10.00">inputDataDoubleString</text>
</g>
<!-- Node17&#45;&gt;Node1 -->
<g id="edge44" class="edge"><title>Node17&#45;&gt;Node1</title>
<path fill="none" stroke="#9a32cd" stroke-dasharray="5,2" d="M745.068,-616.648C786.203,-620.477 841.352,-625.775 890,-631 1070.66,-650.405 1114.3,-679 1296,-679 1296,-679 1296,-679 1867,-679 1980.46,-679 2059.57,-528.597 2078.59,-488.646"/>
<polygon fill="#9a32cd" stroke="#9a32cd" points="745.205,-613.146 734.924,-615.707 744.558,-620.116 745.205,-613.146"/>
<text text-anchor="middle" x="1408" y="-704" font-family="Helvetica,sans-Serif" font-size="10.00"> inputDataIntString</text>
<text text-anchor="middle" x="1408" y="-693" font-family="Helvetica,sans-Serif" font-size="10.00">inputDataEcdcString</text>
<text text-anchor="middle" x="1408" y="-682" font-family="Helvetica,sans-Serif" font-size="10.00">inputDataDoubleString</text>
</g>
<!-- Node18 -->
<g id="node18" class="node"><title>Node18</title>
<g id="a_node18"><a xlink:title="STL class. ">
<polygon fill="none" stroke="#bfbfbf" points="379.5,-758.5 379.5,-777.5 420.5,-777.5 420.5,-758.5 379.5,-758.5"/>
<text text-anchor="middle" x="400" y="-765.5" font-family="Helvetica,sans-Serif" font-size="10.00">string</text>
</a>
</g>
</g>
<!-- Node18&#45;&gt;Node17 -->
<g id="edge29" class="edge"><title>Node18&#45;&gt;Node17</title>
<path fill="none" stroke="#9a32cd" stroke-dasharray="5,2" d="M421.377,-751.809C457.712,-723.637 536.938,-665.334 612,-631 620.96,-626.902 630.961,-623.428 640.507,-620.584"/>
<polygon fill="#9a32cd" stroke="#9a32cd" points="418.812,-749.371 413.091,-758.289 423.125,-754.885 418.812,-749.371"/>
<text text-anchor="middle" x="535" y="-714" font-family="Helvetica,sans-Serif" font-size="10.00"> elements</text>
</g>
<!-- Node18&#45;&gt;Node9 -->
<g id="edge33" class="edge"><title>Node18&#45;&gt;Node9</title>
<path fill="none" stroke="#9a32cd" stroke-dasharray="5,2" d="M430.95,-769.871C508.285,-773.913 720.464,-779.972 890,-738 1004.72,-709.599 1129.91,-638.546 1173.22,-612.642"/>
<polygon fill="#9a32cd" stroke="#9a32cd" points="431.129,-766.376 420.952,-769.32 430.743,-773.365 431.129,-766.376"/>
<text text-anchor="middle" x="830" y="-763" font-family="Helvetica,sans-Serif" font-size="10.00"> moduleName</text>
</g>
<!-- Node18&#45;&gt;Node7 -->
<g id="edge37" class="edge"><title>Node18&#45;&gt;Node7</title>
<path fill="none" stroke="#9a32cd" stroke-dasharray="5,2" d="M430.428,-776.585C444.168,-780.3 460.809,-784.388 476,-787 566.178,-802.504 589.498,-806 681,-806 681,-806 681,-806 1059,-806 1315.94,-806 1453.86,-835.056 1610,-631 1665.66,-558.258 1674.38,-440.702 1675.75,-406.573"/>
<polygon fill="#9a32cd" stroke="#9a32cd" points="431.131,-773.147 420.559,-773.846 429.259,-779.892 431.131,-773.147"/>
<text text-anchor="middle" x="1058" y="-820" font-family="Helvetica,sans-Serif" font-size="10.00"> componentInputFile</text>
<text text-anchor="middle" x="1058" y="-809" font-family="Helvetica,sans-Serif" font-size="10.00">componentName</text>
</g>
<!-- Node19 -->
<g id="node19" class="node"><title>Node19</title>
<g id="a_node19"><a xlink:title="STL class. ">
<polygon fill="none" stroke="#bfbfbf" points="110,-758.5 110,-777.5 216,-777.5 216,-758.5 110,-758.5"/>
<text text-anchor="middle" x="163" y="-765.5" font-family="Helvetica,sans-Serif" font-size="10.00">basic_string&lt; char &gt;</text>
</a>
</g>
</g>
<!-- Node19&#45;&gt;Node18 -->
<g id="edge30" class="edge"><title>Node19&#45;&gt;Node18</title>
<path fill="none" stroke="midnightblue" d="M226.405,-768C277.314,-768 346.06,-768 379.334,-768"/>
<polygon fill="midnightblue" stroke="midnightblue" points="226.154,-764.5 216.154,-768 226.154,-771.5 226.154,-764.5"/>
</g>
</g>
</svg>
