<?xml version="1.0" encoding="UTF-8" standalone="no"?>
<!DOCTYPE svg PUBLIC "-//W3C//DTD SVG 1.1//EN"
 "http://www.w3.org/Graphics/SVG/1.1/DTD/svg11.dtd">
<!-- Generated by graphviz version 2.30.1 (20150305.2338)
 -->
<!-- Title: Test__CheckParamsBad Pages: 1 -->
<!--zoomable 283 -->
<svg id="main" version="1.1" xmlns="http://www.w3.org/2000/svg" xmlns:xlink="http://www.w3.org/1999/xlink" xml:space="preserve" onload="init(evt)">
<style type="text/css"><![CDATA[
.edge:hover path { stroke: red; }
.edge:hover polygon { stroke: red; fill: red; }
]]></style>
<script type="text/javascript"><![CDATA[
var edges = document.getElementsByTagName('g');
if (edges && edges.length) {
  for (var i=0;i<edges.length;i++) {
    if (edges[i].id.substr(0,4)=='edge') {
      edges[i].setAttribute('class','edge');
    }
  }
}
]]></script>
        <defs>
                <circle id="rim" cx="0" cy="0" r="7"/>
                <circle id="rim2" cx="0" cy="0" r="3.5"/>
                <g id="zoomPlus">
                        <use xlink:href="#rim" fill="#404040">
                                <set attributeName="fill" to="#808080" begin="zoomplus.mouseover" end="zoomplus.mouseout"/>
                        </use>
                        <path d="M-4,0h8M0,-4v8" fill="none" stroke="white" stroke-width="1.5" pointer-events="none"/>
                </g>
                <g id="zoomMin">
                        <use xlink:href="#rim" fill="#404040">
                                <set attributeName="fill" to="#808080" begin="zoomminus.mouseover" end="zoomminus.mouseout"/>
                        </use>
                        <path d="M-4,0h8" fill="none" stroke="white" stroke-width="1.5" pointer-events="none"/>
                </g>
                <g id="dirArrow">
                        <path fill="none" stroke="white" stroke-width="1.5" d="M0,-3.0v7 M-2.5,-0.5L0,-3.0L2.5,-0.5"/>
                </g>
               <g id="resetDef">
                       <use xlink:href="#rim2" fill="#404040">
                               <set attributeName="fill" to="#808080" begin="reset.mouseover" end="reset.mouseout"/>
                       </use>
               </g>
        </defs>

<script type="text/javascript">
var viewWidth = 656;
var viewHeight = 283;
var sectionId = 'dynsection-0';
</script>
<script xlink:href="svgpan.js"/>
<svg id="graph" class="graph">
<g id="viewport">
<title>Test__CheckParamsBad</title>
<!-- Node1 -->
<g id="node1" class="node"><title>Node1</title>
<polygon fill="#bfbfbf" stroke="black" points="0,-127.5 0,-146.5 126,-146.5 126,-127.5 0,-127.5"/>
<text text-anchor="middle" x="63" y="-134.5" font-family="Helvetica,sans-Serif" font-size="10.00">Test__CheckParamsBad</text>
</g>
<!-- Node2 -->
<g id="node2" class="node"><title>Node2</title>
<g id="a_node2"><a xlink:href="classICED_1_1HalfCell_1_1DeviceData_ac62391584f55efe6bd7916ebf7d2e92b.html#ac62391584f55efe6bd7916ebf7d2e92b" target="_top" xlink:title="Initialization of the entire device data structure. ">
<polygon fill="none" stroke="black" points="162,-122 162,-152 302,-152 302,-122 162,-122"/>
<text text-anchor="start" x="170" y="-140" font-family="Helvetica,sans-Serif" font-size="10.00">ICED::HalfCell::DeviceData</text>
<text text-anchor="middle" x="232" y="-129" font-family="Helvetica,sans-Serif" font-size="10.00">::BuildDevice</text>
</a>
</g>
</g>
<!-- Node1&#45;&gt;Node2 -->
<g id="edge1" class="edge"><title>Node1&#45;&gt;Node2</title>
<path fill="none" stroke="midnightblue" d="M126.185,-137C134.516,-137 143.151,-137 151.727,-137"/>
<polygon fill="midnightblue" stroke="midnightblue" points="151.745,-140.5 161.745,-137 151.745,-133.5 151.745,-140.5"/>
</g>
<!-- Node3 -->
<g id="node3" class="node"><title>Node3</title>
<g id="a_node3"><a xlink:href="classICED_1_1HalfCell_1_1SolutionData_a16b07d4b06e74431a0783cbd6dd6e731.html#a16b07d4b06e74431a0783cbd6dd6e731" target="_top" xlink:title="Initialization of the input data from input file. ">
<polygon fill="none" stroke="black" points="351,-245 351,-275 475,-275 475,-245 351,-245"/>
<text text-anchor="start" x="359" y="-263" font-family="Helvetica,sans-Serif" font-size="10.00">ICED::HalfCell::Solution</text>
<text text-anchor="middle" x="413" y="-252" font-family="Helvetica,sans-Serif" font-size="10.00">Data::SetData</text>
</a>
</g>
</g>
<!-- Node2&#45;&gt;Node3 -->
<g id="edge2" class="edge"><title>Node2&#45;&gt;Node3</title>
<path fill="none" stroke="midnightblue" d="M245.383,-152.053C263.612,-173.32 299.679,-212.115 338,-235 341.438,-237.053 345.068,-238.966 348.799,-240.742"/>
<polygon fill="midnightblue" stroke="midnightblue" points="347.668,-244.068 358.232,-244.881 350.481,-237.658 347.668,-244.068"/>
</g>
<!-- Node4 -->
<g id="node4" class="node"><title>Node4</title>
<g id="a_node4"><a xlink:href="classICED_1_1HalfCell_1_1DeviceData_a16b07d4b06e74431a0783cbd6dd6e731.html#a16b07d4b06e74431a0783cbd6dd6e731" target="_top" xlink:title="Initialization of the input data from a parameter list. ">
<polygon fill="none" stroke="black" points="343,-196 343,-226 483,-226 483,-196 343,-196"/>
<text text-anchor="start" x="351" y="-214" font-family="Helvetica,sans-Serif" font-size="10.00">ICED::HalfCell::DeviceData</text>
<text text-anchor="middle" x="413" y="-203" font-family="Helvetica,sans-Serif" font-size="10.00">::SetData</text>
</a>
</g>
</g>
<!-- Node2&#45;&gt;Node4 -->
<g id="edge3" class="edge"><title>Node2&#45;&gt;Node4</title>
<path fill="none" stroke="midnightblue" d="M262.936,-152.052C283.733,-162.24 312.232,-175.672 338,-186 343.483,-188.198 349.243,-190.372 355.027,-192.466"/>
<polygon fill="midnightblue" stroke="midnightblue" points="354.143,-195.866 364.738,-195.905 356.48,-189.267 354.143,-195.866"/>
</g>
<!-- Node5 -->
<g id="node5" class="node"><title>Node5</title>
<g id="a_node5"><a xlink:href="classICED_1_1HalfCell_1_1DeviceData_a9dce6b5d6a4272a04fb399b6b7723c96.html#a9dce6b5d6a4272a04fb399b6b7723c96" target="_top" xlink:title="Initialization of the components from a parameter list. ">
<polygon fill="none" stroke="black" points="343,-147 343,-177 483,-177 483,-147 343,-147"/>
<text text-anchor="start" x="351" y="-165" font-family="Helvetica,sans-Serif" font-size="10.00">ICED::HalfCell::DeviceData</text>
<text text-anchor="middle" x="413" y="-154" font-family="Helvetica,sans-Serif" font-size="10.00">::LoadComponents</text>
</a>
</g>
</g>
<!-- Node2&#45;&gt;Node5 -->
<g id="edge4" class="edge"><title>Node2&#45;&gt;Node5</title>
<path fill="none" stroke="midnightblue" d="M302.206,-146.666C312.241,-148.067 322.635,-149.519 332.847,-150.945"/>
<polygon fill="midnightblue" stroke="midnightblue" points="332.59,-154.443 342.978,-152.36 333.558,-147.51 332.59,-154.443"/>
</g>
<!-- Node6 -->
<g id="node6" class="node"><title>Node6</title>
<g id="a_node6"><a xlink:href="classICED_1_1HalfCell_1_1DeviceData_abea9dd513340105152db94ed9f24211a.html#abea9dd513340105152db94ed9f24211a" target="_top" xlink:title="Setup of the global device data structure. ">
<polygon fill="none" stroke="black" points="343,-98 343,-128 483,-128 483,-98 343,-98"/>
<text text-anchor="start" x="351" y="-116" font-family="Helvetica,sans-Serif" font-size="10.00">ICED::HalfCell::DeviceData</text>
<text text-anchor="middle" x="413" y="-105" font-family="Helvetica,sans-Serif" font-size="10.00">::SetupGlobalData</text>
</a>
</g>
</g>
<!-- Node2&#45;&gt;Node6 -->
<g id="edge5" class="edge"><title>Node2&#45;&gt;Node6</title>
<path fill="none" stroke="midnightblue" d="M302.206,-127.721C312.241,-126.376 322.635,-124.982 332.847,-123.613"/>
<polygon fill="midnightblue" stroke="midnightblue" points="333.532,-127.052 342.978,-122.254 332.602,-120.114 333.532,-127.052"/>
</g>
<!-- Node8 -->
<g id="node8" class="node"><title>Node8</title>
<g id="a_node8"><a xlink:href="classICED_1_1HalfCell_1_1DeviceData_a9e170c875ec6749900cb89bfb977379a.html#a9e170c875ec6749900cb89bfb977379a" target="_top" xlink:title="Copy device data from the component level. ">
<polygon fill="none" stroke="black" points="340.5,-49 340.5,-79 485.5,-79 485.5,-49 340.5,-49"/>
<text text-anchor="start" x="348.5" y="-67" font-family="Helvetica,sans-Serif" font-size="10.00">ICED::HalfCell::DeviceData</text>
<text text-anchor="middle" x="413" y="-56" font-family="Helvetica,sans-Serif" font-size="10.00">::CopyDataFromComponents</text>
</a>
</g>
</g>
<!-- Node2&#45;&gt;Node8 -->
<g id="edge7" class="edge"><title>Node2&#45;&gt;Node8</title>
<path fill="none" stroke="midnightblue" d="M263.88,-121.867C284.608,-111.962 312.658,-99.0424 338,-89 343.573,-86.7917 349.427,-84.6007 355.3,-82.4868"/>
<polygon fill="midnightblue" stroke="midnightblue" points="356.887,-85.6385 365.154,-79.0126 354.559,-79.0368 356.887,-85.6385"/>
</g>
<!-- Node9 -->
<g id="node9" class="node"><title>Node9</title>
<g id="a_node9"><a xlink:href="classICED_1_1HalfCell_1_1DeviceData_af4d13d54a16ba494be74358656df1381.html#af4d13d54a16ba494be74358656df1381" target="_top" xlink:title="Copy device data to global storage for the non&#45;linear solver. ">
<polygon fill="none" stroke="black" points="338.5,-0 338.5,-30 487.5,-30 487.5,-0 338.5,-0"/>
<text text-anchor="start" x="346.5" y="-18" font-family="Helvetica,sans-Serif" font-size="10.00">ICED::HalfCell::DeviceData</text>
<text text-anchor="middle" x="413" y="-7" font-family="Helvetica,sans-Serif" font-size="10.00">::CopyDeviceToGlobalStorage</text>
</a>
</g>
</g>
<!-- Node2&#45;&gt;Node9 -->
<g id="edge8" class="edge"><title>Node2&#45;&gt;Node9</title>
<path fill="none" stroke="midnightblue" d="M245.724,-121.754C264.09,-100.639 300.016,-62.5528 338,-40 341.443,-37.9555 345.077,-36.05 348.811,-34.2787"/>
<polygon fill="midnightblue" stroke="midnightblue" points="350.491,-37.3641 358.25,-30.1492 347.685,-30.9511 350.491,-37.3641"/>
</g>
<!-- Node7 -->
<g id="node7" class="node"><title>Node7</title>
<g id="a_node7"><a xlink:href="classICED_1_1HalfCell_1_1SolutionData_a80aaf93c79fb804885351b17786981e4.html#a80aaf93c79fb804885351b17786981e4" target="_top" xlink:title="Setup of the trilinosdata structure. ">
<polygon fill="none" stroke="black" points="524,-98 524,-128 648,-128 648,-98 524,-98"/>
<text text-anchor="start" x="532" y="-116" font-family="Helvetica,sans-Serif" font-size="10.00">ICED::HalfCell::Solution</text>
<text text-anchor="middle" x="586" y="-105" font-family="Helvetica,sans-Serif" font-size="10.00">Data::BuildSolutionData</text>
</a>
</g>
</g>
<!-- Node6&#45;&gt;Node7 -->
<g id="edge6" class="edge"><title>Node6&#45;&gt;Node7</title>
<path fill="none" stroke="midnightblue" d="M483.059,-113C493.209,-113 503.68,-113 513.871,-113"/>
<polygon fill="midnightblue" stroke="midnightblue" points="513.946,-116.5 523.946,-113 513.946,-109.5 513.946,-116.5"/>
</g>
</g>
</svg>
        <g id="navigator" transform="translate(0 0)" fill="#404254">
                <rect fill="#f2f5e9" fill-opacity="0.5" stroke="#606060" stroke-width=".5" x="0" y="0" width="60" height="60"/>
                <use id="zoomplus" xlink:href="#zoomPlus" x="17" y="9" onmousedown="handleZoom(evt,'in')"/>
                <use id="zoomminus" xlink:href="#zoomMin" x="42" y="9" onmousedown="handleZoom(evt,'out')"/>
                <use id="reset" xlink:href="#resetDef" x="30" y="36" onmousedown="handleReset()"/>
                <g id="arrowUp" xlink:href="#dirArrow" transform="translate(30 24)" onmousedown="handlePan(0,-1)">
                  <use xlink:href="#rim" fill="#404040">
                        <set attributeName="fill" to="#808080" begin="arrowUp.mouseover" end="arrowUp.mouseout"/>
                  </use>
                  <path fill="none" stroke="white" stroke-width="1.5" d="M0,-3.0v7 M-2.5,-0.5L0,-3.0L2.5,-0.5"/>
                </g>
                <g id="arrowRight" xlink:href="#dirArrow" transform="rotate(90) translate(36 -43)" onmousedown="handlePan(1,0)">
                  <use xlink:href="#rim" fill="#404040">
                        <set attributeName="fill" to="#808080" begin="arrowRight.mouseover" end="arrowRight.mouseout"/>
                  </use>
                  <path fill="none" stroke="white" stroke-width="1.5" d="M0,-3.0v7 M-2.5,-0.5L0,-3.0L2.5,-0.5"/>
                </g>
                <g id="arrowDown" xlink:href="#dirArrow" transform="rotate(180) translate(-30 -48)" onmousedown="handlePan(0,1)">
                  <use xlink:href="#rim" fill="#404040">
                        <set attributeName="fill" to="#808080" begin="arrowDown.mouseover" end="arrowDown.mouseout"/>
                  </use>
                  <path fill="none" stroke="white" stroke-width="1.5" d="M0,-3.0v7 M-2.5,-0.5L0,-3.0L2.5,-0.5"/>
                </g>
                <g id="arrowLeft" xlink:href="#dirArrow" transform="rotate(270) translate(-36 17)" onmousedown="handlePan(-1,0)">
                  <use xlink:href="#rim" fill="#404040">
                        <set attributeName="fill" to="#808080" begin="arrowLeft.mouseover" end="arrowLeft.mouseout"/>
                  </use>
                  <path fill="none" stroke="white" stroke-width="1.5" d="M0,-3.0v7 M-2.5,-0.5L0,-3.0L2.5,-0.5"/>
                </g>
        </g>
        <svg viewBox="0 0 15 15" width="100%" height="30px" preserveAspectRatio="xMaxYMin meet">
         <g id="arrow_out" transform="scale(0.3 0.3)">
          <a xlink:href="classICED_1_1TestingObject_a7bac98c894f8cfff372d495eae083cd5_a7bac98c894f8cfff372d495eae083cd5_cgraph_org.svg" target="_base">
           <rect id="button" ry="5" rx="5" y="6" x="6" height="38" width="38"
                fill="#f2f5e9" fill-opacity="0.5" stroke="#606060" stroke-width="1.0"/>
           <path id="arrow"
             d="M 11.500037,31.436501 C 11.940474,20.09759 22.043105,11.32322 32.158766,21.979434 L 37.068811,17.246167 C 37.068811,17.246167 37.088388,32 37.088388,32 L 22.160133,31.978069 C 22.160133,31.978069 26.997745,27.140456 26.997745,27.140456 C 18.528582,18.264221 13.291696,25.230495 11.500037,31.436501 z"
             style="fill:#404040;"/>
          </a>
         </g>
        </svg>
</svg>
