<?xml version="1.0" encoding="UTF-8" standalone="no"?>
<!DOCTYPE svg PUBLIC "-//W3C//DTD SVG 1.1//EN"
 "http://www.w3.org/Graphics/SVG/1.1/DTD/svg11.dtd">
<!-- Generated by graphviz version 2.30.1 (20150305.2338)
 -->
<!-- Title: FinalizeComponent Pages: 1 -->
<svg width="284pt" height="66pt"
 viewBox="0.00 0.00 284.00 66.00" xmlns="http://www.w3.org/2000/svg" xmlns:xlink="http://www.w3.org/1999/xlink">
<g id="graph0" class="graph" transform="scale(1 1) rotate(0) translate(4 62)">
<title>FinalizeComponent</title>
<!-- Node1 -->
<g id="node1" class="node"><title>Node1</title>
<polygon fill="#bfbfbf" stroke="black" points="0.5,-19.5 0.5,-38.5 101.5,-38.5 101.5,-19.5 0.5,-19.5"/>
<text text-anchor="middle" x="51" y="-26.5" font-family="Helvetica,sans-Serif" font-size="10.00">FinalizeComponent</text>
</g>
<!-- Node2 -->
<g id="node2" class="node"><title>Node2</title>
<g id="a_node2"><a xlink:href="classICED_1_1HalfCell_1_1DeviceComponent.html#ac3e788385c83425108793038c831b363" target="_top" xlink:title="Performs initialization of physics module data outside of timestepping. ">
<polygon fill="none" stroke="black" points="138,-38.5 138,-57.5 276,-57.5 276,-38.5 138,-38.5"/>
<text text-anchor="middle" x="207" y="-45.5" font-family="Helvetica,sans-Serif" font-size="10.00">InitializeComponentPhysics</text>
</a>
</g>
</g>
<!-- Node1&#45;&gt;Node2 -->
<g id="edge1" class="edge"><title>Node1&#45;&gt;Node2</title>
<path fill="none" stroke="midnightblue" d="M111.566,-36.3491C120.223,-37.4171 129.19,-38.5235 137.998,-39.6102"/>
<polygon fill="midnightblue" stroke="midnightblue" points="111.928,-32.8672 101.574,-35.1163 111.07,-39.8145 111.928,-32.8672"/>
</g>
<!-- Node3 -->
<g id="node3" class="node"><title>Node3</title>
<g id="a_node3"><a xlink:href="classICED_1_1HalfCell_1_1DeviceComponent.html#a31e18fc12be0455b47cddcf599131bc3" target="_top" xlink:title="Populate the component solution matricies. ">
<polygon fill="none" stroke="black" points="161,-0.5 161,-19.5 253,-19.5 253,-0.5 161,-0.5"/>
<text text-anchor="middle" x="207" y="-7.5" font-family="Helvetica,sans-Serif" font-size="10.00">SolveComponent</text>
</a>
</g>
</g>
<!-- Node1&#45;&gt;Node3 -->
<g id="edge2" class="edge"><title>Node1&#45;&gt;Node3</title>
<path fill="none" stroke="midnightblue" d="M111.613,-21.6451C128.012,-19.6219 145.522,-17.4616 160.951,-15.5581"/>
<polygon fill="midnightblue" stroke="midnightblue" points="111.07,-18.1855 101.574,-22.8837 111.928,-25.1328 111.07,-18.1855"/>
</g>
</g>
</svg>
