<?xml version="1.0" encoding="UTF-8" standalone="no"?>
<!DOCTYPE svg PUBLIC "-//W3C//DTD SVG 1.1//EN"
 "http://www.w3.org/Graphics/SVG/1.1/DTD/svg11.dtd">
<!-- Generated by graphviz version 2.30.1 (20150305.2338)
 -->
<!-- Title: GenerateParabolicFunction Pages: 1 -->
<svg width="602pt" height="294pt"
 viewBox="0.00 0.00 602.00 294.00" xmlns="http://www.w3.org/2000/svg" xmlns:xlink="http://www.w3.org/1999/xlink">
<g id="graph0" class="graph" transform="scale(1 1) rotate(0) translate(4 290)">
<title>GenerateParabolicFunction</title>
<!-- Node1 -->
<g id="node1" class="node"><title>Node1</title>
<polygon fill="#bfbfbf" stroke="black" points="0,-133.5 0,-152.5 134,-152.5 134,-133.5 0,-133.5"/>
<text text-anchor="middle" x="67" y="-140.5" font-family="Helvetica,sans-Serif" font-size="10.00">GenerateParabolicFunction</text>
</g>
<!-- Node2 -->
<g id="node2" class="node"><title>Node2</title>
<g id="a_node2"><a xlink:href="classICED_1_1TestingObject_aea517fa85afb367c872ce72c26a0d643.html#aea517fa85afb367c872ce72c26a0d643" target="_top" xlink:title="Test for ICED::ActivitCoefficient module. ">
<polygon fill="none" stroke="black" points="179.5,-38.5 179.5,-57.5 306.5,-57.5 306.5,-38.5 179.5,-38.5"/>
<text text-anchor="middle" x="243" y="-45.5" font-family="Helvetica,sans-Serif" font-size="10.00">Test__ActivityCoefficient</text>
</a>
</g>
</g>
<!-- Node1&#45;&gt;Node2 -->
<g id="edge1" class="edge"><title>Node1&#45;&gt;Node2</title>
<path fill="none" stroke="midnightblue" d="M85.5438,-126.584C104.84,-109.371 137.45,-82.6904 170,-67 177.919,-63.1827 186.711,-60.0528 195.354,-57.5144"/>
<polygon fill="midnightblue" stroke="midnightblue" points="83.1762,-124.006 78.1282,-133.321 87.8833,-129.187 83.1762,-124.006"/>
</g>
<!-- Node8 -->
<g id="node8" class="node"><title>Node8</title>
<g id="a_node8"><a xlink:href="classICED_1_1TestingObject_a96409144efe94cf3e37a534e524c6e36.html#a96409144efe94cf3e37a534e524c6e36" target="_top" xlink:title="Test for ICED::ConcentrationDiffusion. ">
<polygon fill="none" stroke="black" points="170,-0.5 170,-19.5 316,-19.5 316,-0.5 170,-0.5"/>
<text text-anchor="middle" x="243" y="-7.5" font-family="Helvetica,sans-Serif" font-size="10.00">Test__ConcentrationDiffusion</text>
</a>
</g>
</g>
<!-- Node1&#45;&gt;Node8 -->
<g id="edge8" class="edge"><title>Node1&#45;&gt;Node8</title>
<path fill="none" stroke="midnightblue" d="M79.3446,-124.674C96.0338,-99.2755 129.634,-53.7184 170,-29 176.284,-25.1518 183.34,-22.0753 190.511,-19.6177"/>
<polygon fill="midnightblue" stroke="midnightblue" points="76.2433,-123.026 73.7975,-133.335 82.138,-126.802 76.2433,-123.026"/>
</g>
<!-- Node9 -->
<g id="node9" class="node"><title>Node9</title>
<g id="a_node9"><a xlink:href="classICED_1_1TestingObject_a06cf16fc934c4e87f6886a7beb771b0e.html#a06cf16fc934c4e87f6886a7beb771b0e" target="_top" xlink:title="Test for ICED::Diffusion module. ">
<polygon fill="none" stroke="black" points="200,-266.5 200,-285.5 286,-285.5 286,-266.5 200,-266.5"/>
<text text-anchor="middle" x="243" y="-273.5" font-family="Helvetica,sans-Serif" font-size="10.00">Test__Diffusion</text>
</a>
</g>
</g>
<!-- Node1&#45;&gt;Node9 -->
<g id="edge11" class="edge"><title>Node1&#45;&gt;Node9</title>
<path fill="none" stroke="midnightblue" d="M79.3446,-161.326C96.0338,-186.725 129.634,-232.282 170,-257 179.041,-262.536 189.677,-266.475 199.959,-269.272"/>
<polygon fill="midnightblue" stroke="midnightblue" points="82.138,-159.198 73.7975,-152.665 76.2433,-162.974 82.138,-159.198"/>
</g>
<!-- Node10 -->
<g id="node10" class="node"><title>Node10</title>
<g id="a_node10"><a xlink:href="classICED_1_1TestingObject_af46c6cb015fb4151707a8c08084f4525.html#af46c6cb015fb4151707a8c08084f4525" target="_top" xlink:title="Test for ICED::IonMigration module. ">
<polygon fill="none" stroke="black" points="193,-228.5 193,-247.5 293,-247.5 293,-228.5 193,-228.5"/>
<text text-anchor="middle" x="243" y="-235.5" font-family="Helvetica,sans-Serif" font-size="10.00">Test__IonMigration</text>
</a>
</g>
</g>
<!-- Node1&#45;&gt;Node10 -->
<g id="edge14" class="edge"><title>Node1&#45;&gt;Node10</title>
<path fill="none" stroke="midnightblue" d="M85.5438,-159.416C104.84,-176.629 137.45,-203.31 170,-219 177.919,-222.817 186.711,-225.947 195.354,-228.486"/>
<polygon fill="midnightblue" stroke="midnightblue" points="87.8833,-156.813 78.1282,-152.679 83.1762,-161.994 87.8833,-156.813"/>
</g>
<!-- Node11 -->
<g id="node11" class="node"><title>Node11</title>
<g id="a_node11"><a xlink:href="classICED_1_1TestingObject_a4f825a89973b92c36e2fe2cbe6a653a0.html#a4f825a89973b92c36e2fe2cbe6a653a0" target="_top" xlink:title="Test for ICED::OhmsLawElectrolyte. ">
<polygon fill="none" stroke="black" points="174.5,-190.5 174.5,-209.5 311.5,-209.5 311.5,-190.5 174.5,-190.5"/>
<text text-anchor="middle" x="243" y="-197.5" font-family="Helvetica,sans-Serif" font-size="10.00">Test__OhmsLawElectrolyte</text>
</a>
</g>
</g>
<!-- Node1&#45;&gt;Node11 -->
<g id="edge17" class="edge"><title>Node1&#45;&gt;Node11</title>
<path fill="none" stroke="midnightblue" d="M101.166,-156.301C120.976,-164.008 146.733,-173.616 170,-181 180.597,-184.363 192.2,-187.611 202.936,-190.441"/>
<polygon fill="midnightblue" stroke="midnightblue" points="102.263,-152.972 91.6754,-152.578 99.7062,-159.488 102.263,-152.972"/>
</g>
<!-- Node12 -->
<g id="node12" class="node"><title>Node12</title>
<g id="a_node12"><a xlink:href="classICED_1_1TestingObject_ab656a16700e242a40e0b21d7693a6ae0.html#ab656a16700e242a40e0b21d7693a6ae0" target="_top" xlink:title="Test for ICED::OhmsLawSolid. ">
<polygon fill="none" stroke="black" points="186.5,-152.5 186.5,-171.5 299.5,-171.5 299.5,-152.5 186.5,-152.5"/>
<text text-anchor="middle" x="243" y="-159.5" font-family="Helvetica,sans-Serif" font-size="10.00">Test__OhmsLawSolid</text>
</a>
</g>
</g>
<!-- Node1&#45;&gt;Node12 -->
<g id="edge20" class="edge"><title>Node1&#45;&gt;Node12</title>
<path fill="none" stroke="midnightblue" d="M144.461,-151.349C158.565,-152.889 173.045,-154.47 186.387,-155.927"/>
<polygon fill="midnightblue" stroke="midnightblue" points="144.599,-147.844 134.278,-150.237 143.839,-154.802 144.599,-147.844"/>
</g>
<!-- Node13 -->
<g id="node13" class="node"><title>Node13</title>
<g id="a_node13"><a xlink:href="classICED_1_1TestingObject_aacdc6512e5ce8094c62997f4d1f02634.html#aacdc6512e5ce8094c62997f4d1f02634" target="_top" xlink:title="Test for ICED::TransferenceNumber. ">
<polygon fill="none" stroke="black" points="174,-114.5 174,-133.5 312,-133.5 312,-114.5 174,-114.5"/>
<text text-anchor="middle" x="243" y="-121.5" font-family="Helvetica,sans-Serif" font-size="10.00">Test__TransferenceNumber</text>
</a>
</g>
</g>
<!-- Node1&#45;&gt;Node13 -->
<g id="edge23" class="edge"><title>Node1&#45;&gt;Node13</title>
<path fill="none" stroke="midnightblue" d="M144.415,-134.656C154.226,-133.585 164.219,-132.493 173.885,-131.438"/>
<polygon fill="midnightblue" stroke="midnightblue" points="143.839,-131.198 134.278,-135.763 144.599,-138.156 143.839,-131.198"/>
</g>
<!-- Node14 -->
<g id="node14" class="node"><title>Node14</title>
<g id="a_node14"><a xlink:href="classICED_1_1TestingObject_a9bbc638a5bd612413bdd4c03b6c66d0c.html#a9bbc638a5bd612413bdd4c03b6c66d0c" target="_top" xlink:title="Test for ICED::wallFlux. ">
<polygon fill="none" stroke="black" points="200.5,-76.5 200.5,-95.5 285.5,-95.5 285.5,-76.5 200.5,-76.5"/>
<text text-anchor="middle" x="243" y="-83.5" font-family="Helvetica,sans-Serif" font-size="10.00">Test__WallFlux</text>
</a>
</g>
</g>
<!-- Node1&#45;&gt;Node14 -->
<g id="edge26" class="edge"><title>Node1&#45;&gt;Node14</title>
<path fill="none" stroke="midnightblue" d="M101.166,-129.699C120.976,-121.992 146.733,-112.384 170,-105 180.597,-101.637 192.2,-98.389 202.936,-95.5587"/>
<polygon fill="midnightblue" stroke="midnightblue" points="99.7062,-126.512 91.6754,-133.422 102.263,-133.028 99.7062,-126.512"/>
</g>
<!-- Node3 -->
<g id="node3" class="node"><title>Node3</title>
<g id="a_node3"><a xlink:href="classICED_1_1TestingObject_a046f7ab06db0acf616b0d2bf3d3146aa.html#a046f7ab06db0acf616b0d2bf3d3146aa" target="_top" xlink:title="Runs all tests implemented by the ICED::TestingObject. ">
<polygon fill="none" stroke="black" points="352.5,-152.5 352.5,-171.5 405.5,-171.5 405.5,-152.5 352.5,-152.5"/>
<text text-anchor="middle" x="379" y="-159.5" font-family="Helvetica,sans-Serif" font-size="10.00">Process</text>
</a>
</g>
</g>
<!-- Node2&#45;&gt;Node3 -->
<g id="edge2" class="edge"><title>Node2&#45;&gt;Node3</title>
<path fill="none" stroke="midnightblue" d="M309.493,-62.3417C311.774,-63.7529 313.955,-65.3013 316,-67 344.749,-90.8835 328.179,-114.199 352,-143 354.922,-146.533 358.639,-149.752 362.343,-152.495"/>
<polygon fill="midnightblue" stroke="midnightblue" points="310.753,-59.0524 300.265,-57.5502 307.527,-65.2648 310.753,-59.0524"/>
</g>
<!-- Node6 -->
<g id="node6" class="node"><title>Node6</title>
<g id="a_node6"><a xlink:href="classICED_1_1TestingObject_af1f07f14b9af7708e4264bb38937eed2.html#af1f07f14b9af7708e4264bb38937eed2" target="_top" xlink:title="Runs a test specified by name. ">
<polygon fill="none" stroke="black" points="352,-114.5 352,-133.5 406,-133.5 406,-114.5 352,-114.5"/>
<text text-anchor="middle" x="379" y="-121.5" font-family="Helvetica,sans-Serif" font-size="10.00">RunTest</text>
</a>
</g>
</g>
<!-- Node2&#45;&gt;Node6 -->
<g id="edge5" class="edge"><title>Node2&#45;&gt;Node6</title>
<path fill="none" stroke="midnightblue" d="M302.78,-60.91C307.362,-62.695 311.825,-64.7154 316,-67 338.575,-79.3534 359.414,-101.662 370.234,-114.399"/>
<polygon fill="midnightblue" stroke="midnightblue" points="303.857,-57.5787 293.262,-57.5675 301.538,-64.1833 303.857,-57.5787"/>
</g>
<!-- Node4 -->
<g id="node4" class="node"><title>Node4</title>
<g id="a_node4"><a xlink:href="namespaceICED_acf52cefdb153ca8751acb1e183d3a405.html#acf52cefdb153ca8751acb1e183d3a405" target="_top" xlink:title="Drives the ICED::TestObject. ">
<polygon fill="none" stroke="black" points="447.5,-152.5 447.5,-171.5 514.5,-171.5 514.5,-152.5 447.5,-152.5"/>
<text text-anchor="middle" x="481" y="-159.5" font-family="Helvetica,sans-Serif" font-size="10.00">ICED::Test</text>
</a>
</g>
</g>
<!-- Node3&#45;&gt;Node4 -->
<g id="edge3" class="edge"><title>Node3&#45;&gt;Node4</title>
<path fill="none" stroke="midnightblue" d="M415.973,-162C426.149,-162 437.168,-162 447.15,-162"/>
<polygon fill="midnightblue" stroke="midnightblue" points="415.753,-158.5 405.752,-162 415.752,-165.5 415.753,-158.5"/>
</g>
<!-- Node5 -->
<g id="node5" class="node"><title>Node5</title>
<g id="a_node5"><a xlink:href="TestICED_8C_a0ddf1224851353fc92bfbff6f499fa97.html#a0ddf1224851353fc92bfbff6f499fa97" target="_top" xlink:title="main">
<polygon fill="none" stroke="black" points="556,-152.5 556,-171.5 594,-171.5 594,-152.5 556,-152.5"/>
<text text-anchor="middle" x="575" y="-159.5" font-family="Helvetica,sans-Serif" font-size="10.00">main</text>
</a>
</g>
</g>
<!-- Node4&#45;&gt;Node5 -->
<g id="edge4" class="edge"><title>Node4&#45;&gt;Node5</title>
<path fill="none" stroke="midnightblue" d="M524.981,-162C535.865,-162 546.976,-162 555.862,-162"/>
<polygon fill="midnightblue" stroke="midnightblue" points="524.695,-158.5 514.695,-162 524.695,-165.5 524.695,-158.5"/>
</g>
<!-- Node7 -->
<g id="node7" class="node"><title>Node7</title>
<g id="a_node7"><a xlink:href="classICED_1_1TestingObject_a21159bd2efac623e5a5079f6a20f3444.html#a21159bd2efac623e5a5079f6a20f3444" target="_top" xlink:title="Runs a list of tests specified by name. ">
<polygon fill="none" stroke="black" points="442.5,-114.5 442.5,-133.5 519.5,-133.5 519.5,-114.5 442.5,-114.5"/>
<text text-anchor="middle" x="481" y="-121.5" font-family="Helvetica,sans-Serif" font-size="10.00">ProcessTests</text>
</a>
</g>
</g>
<!-- Node6&#45;&gt;Node7 -->
<g id="edge6" class="edge"><title>Node6&#45;&gt;Node7</title>
<path fill="none" stroke="midnightblue" d="M416.092,-124C424.658,-124 433.815,-124 442.444,-124"/>
<polygon fill="midnightblue" stroke="midnightblue" points="416.013,-120.5 406.013,-124 416.013,-127.5 416.013,-120.5"/>
</g>
<!-- Node6&#45;&gt;Node4 -->
<g id="edge7" class="edge"><title>Node6&#45;&gt;Node4</title>
<path fill="none" stroke="midnightblue" d="M414.907,-137.265C428.035,-142.253 442.695,-147.824 454.774,-152.414"/>
<polygon fill="midnightblue" stroke="midnightblue" points="415.825,-133.869 405.234,-133.589 413.339,-140.413 415.825,-133.869"/>
</g>
<!-- Node8&#45;&gt;Node3 -->
<g id="edge9" class="edge"><title>Node8&#45;&gt;Node3</title>
<path fill="none" stroke="midnightblue" d="M311.205,-24.9948C312.887,-26.2291 314.491,-27.5616 316,-29 354.459,-65.6607 321.007,-99.8428 352,-143 354.544,-146.542 357.951,-149.689 361.46,-152.354"/>
<polygon fill="midnightblue" stroke="midnightblue" points="312.606,-21.754 302.232,-19.606 309.003,-27.755 312.606,-21.754"/>
</g>
<!-- Node8&#45;&gt;Node6 -->
<g id="edge10" class="edge"><title>Node8&#45;&gt;Node6</title>
<path fill="none" stroke="midnightblue" d="M307.498,-23.779C310.472,-25.3367 313.327,-27.0704 316,-29 347.138,-51.4795 366.813,-94.8334 374.421,-114.218"/>
<polygon fill="midnightblue" stroke="midnightblue" points="308.836,-20.5427 298.282,-19.614 305.953,-26.9216 308.836,-20.5427"/>
</g>
<!-- Node9&#45;&gt;Node3 -->
<g id="edge12" class="edge"><title>Node9&#45;&gt;Node3</title>
<path fill="none" stroke="midnightblue" d="M296.027,-267.234C303.127,-264.655 310.019,-261.318 316,-257 347.138,-234.52 366.813,-191.167 374.421,-171.782"/>
<polygon fill="midnightblue" stroke="midnightblue" points="294.77,-263.96 286.283,-270.301 296.872,-270.637 294.77,-263.96"/>
</g>
<!-- Node9&#45;&gt;Node6 -->
<g id="edge13" class="edge"><title>Node9&#45;&gt;Node6</title>
<path fill="none" stroke="midnightblue" d="M295.685,-269.217C303.176,-266.39 310.276,-262.457 316,-257 354.459,-220.339 321.007,-186.157 352,-143 354.544,-139.458 357.951,-136.311 361.46,-133.646"/>
<polygon fill="midnightblue" stroke="midnightblue" points="294.555,-265.904 286.062,-272.238 296.651,-272.583 294.555,-265.904"/>
</g>
<!-- Node10&#45;&gt;Node3 -->
<g id="edge15" class="edge"><title>Node10&#45;&gt;Node3</title>
<path fill="none" stroke="midnightblue" d="M302.78,-225.09C307.362,-223.305 311.825,-221.285 316,-219 338.575,-206.647 359.414,-184.338 370.234,-171.601"/>
<polygon fill="midnightblue" stroke="midnightblue" points="301.538,-221.817 293.262,-228.433 303.857,-228.421 301.538,-221.817"/>
</g>
<!-- Node10&#45;&gt;Node6 -->
<g id="edge16" class="edge"><title>Node10&#45;&gt;Node6</title>
<path fill="none" stroke="midnightblue" d="M302.703,-227.341C307.481,-225.07 312.001,-222.323 316,-219 344.749,-195.116 328.179,-171.801 352,-143 354.922,-139.467 358.639,-136.248 362.343,-133.505"/>
<polygon fill="midnightblue" stroke="midnightblue" points="301.23,-224.161 293.265,-231.148 303.848,-230.653 301.23,-224.161"/>
</g>
<!-- Node11&#45;&gt;Node3 -->
<g id="edge18" class="edge"><title>Node11&#45;&gt;Node3</title>
<path fill="none" stroke="midnightblue" d="M291.329,-187.795C299.569,-185.589 308.045,-183.268 316,-181 328.018,-177.574 341.27,-173.547 352.427,-170.084"/>
<polygon fill="midnightblue" stroke="midnightblue" points="290.214,-184.469 281.446,-190.417 292.009,-191.235 290.214,-184.469"/>
</g>
<!-- Node11&#45;&gt;Node6 -->
<g id="edge19" class="edge"><title>Node11&#45;&gt;Node6</title>
<path fill="none" stroke="midnightblue" d="M304.297,-186.848C308.366,-185.128 312.31,-183.188 316,-181 336.011,-169.135 334.537,-158.371 352,-143 355.693,-139.749 359.919,-136.489 363.876,-133.609"/>
<polygon fill="midnightblue" stroke="midnightblue" points="302.767,-183.684 294.634,-190.473 305.226,-190.237 302.767,-183.684"/>
</g>
<!-- Node12&#45;&gt;Node3 -->
<g id="edge21" class="edge"><title>Node12&#45;&gt;Node3</title>
<path fill="none" stroke="midnightblue" d="M310.023,-162C325.054,-162 340.151,-162 352.286,-162"/>
<polygon fill="midnightblue" stroke="midnightblue" points="309.664,-158.5 299.664,-162 309.664,-165.5 309.664,-158.5"/>
</g>
<!-- Node12&#45;&gt;Node6 -->
<g id="edge22" class="edge"><title>Node12&#45;&gt;Node6</title>
<path fill="none" stroke="midnightblue" d="M291.329,-149.795C299.569,-147.589 308.045,-145.268 316,-143 327.801,-139.636 340.793,-135.692 351.822,-132.272"/>
<polygon fill="midnightblue" stroke="midnightblue" points="290.214,-146.469 281.446,-152.417 292.009,-153.235 290.214,-146.469"/>
</g>
<!-- Node13&#45;&gt;Node3 -->
<g id="edge24" class="edge"><title>Node13&#45;&gt;Node3</title>
<path fill="none" stroke="midnightblue" d="M291.329,-136.205C299.569,-138.411 308.045,-140.732 316,-143 328.018,-146.426 341.27,-150.453 352.427,-153.916"/>
<polygon fill="midnightblue" stroke="midnightblue" points="292.009,-132.765 281.446,-133.583 290.214,-139.531 292.009,-132.765"/>
</g>
<!-- Node13&#45;&gt;Node6 -->
<g id="edge25" class="edge"><title>Node13&#45;&gt;Node6</title>
<path fill="none" stroke="midnightblue" d="M322.371,-124C332.915,-124 343.073,-124 351.757,-124"/>
<polygon fill="midnightblue" stroke="midnightblue" points="322.178,-120.5 312.178,-124 322.178,-127.5 322.178,-120.5"/>
</g>
<!-- Node14&#45;&gt;Node3 -->
<g id="edge27" class="edge"><title>Node14&#45;&gt;Node3</title>
<path fill="none" stroke="midnightblue" d="M295.367,-95.7726C302.561,-98.2084 309.655,-101.238 316,-105 336.011,-116.865 334.537,-127.629 352,-143 355.693,-146.251 359.919,-149.511 363.876,-152.391"/>
<polygon fill="midnightblue" stroke="midnightblue" points="296.142,-92.3505 285.557,-92.8056 294.116,-99.0507 296.142,-92.3505"/>
</g>
<!-- Node14&#45;&gt;Node6 -->
<g id="edge28" class="edge"><title>Node14&#45;&gt;Node6</title>
<path fill="none" stroke="midnightblue" d="M291.329,-98.2054C299.569,-100.411 308.045,-102.732 316,-105 327.801,-108.364 340.793,-112.308 351.822,-115.728"/>
<polygon fill="midnightblue" stroke="midnightblue" points="292.009,-94.7649 281.446,-95.5828 290.214,-101.531 292.009,-94.7649"/>
</g>
</g>
</svg>
