<?xml version="1.0" encoding="UTF-8" standalone="no"?>
<!DOCTYPE svg PUBLIC "-//W3C//DTD SVG 1.1//EN"
 "http://www.w3.org/Graphics/SVG/1.1/DTD/svg11.dtd">
<!-- Generated by graphviz version 2.30.1 (20150305.2338)
 -->
<!-- Title: Test__DeviceData Pages: 1 -->
<svg width="658pt" height="283pt"
 viewBox="0.00 0.00 658.00 283.00" xmlns="http://www.w3.org/2000/svg" xmlns:xlink="http://www.w3.org/1999/xlink">
<g id="graph0" class="graph" transform="scale(1 1) rotate(0) translate(4 279)">
<title>Test__DeviceData</title>
<!-- Node1 -->
<g id="node1" class="node"><title>Node1</title>
<polygon fill="#bfbfbf" stroke="black" points="0,-102.5 0,-121.5 98,-121.5 98,-102.5 0,-102.5"/>
<text text-anchor="middle" x="49" y="-109.5" font-family="Helvetica,sans-Serif" font-size="10.00">Test__DeviceData</text>
</g>
<!-- Node2 -->
<g id="node2" class="node"><title>Node2</title>
<g id="a_node2"><a xlink:href="classICED_1_1HalfCell_1_1DeviceData.html#ac62391584f55efe6bd7916ebf7d2e92b" target="_top" xlink:title="Initialization of the entire device data structure. ">
<polygon fill="none" stroke="black" points="149,-122 149,-152 289,-152 289,-122 149,-122"/>
<text text-anchor="start" x="157" y="-140" font-family="Helvetica,sans-Serif" font-size="10.00">ICED::HalfCell::DeviceData</text>
<text text-anchor="middle" x="219" y="-129" font-family="Helvetica,sans-Serif" font-size="10.00">::BuildDevice</text>
</a>
</g>
</g>
<!-- Node1&#45;&gt;Node2 -->
<g id="edge1" class="edge"><title>Node1&#45;&gt;Node2</title>
<path fill="none" stroke="midnightblue" d="M98.1421,-119.164C110.86,-121.057 124.927,-123.15 138.819,-125.217"/>
<polygon fill="midnightblue" stroke="midnightblue" points="138.475,-128.704 148.881,-126.714 139.505,-121.781 138.475,-128.704"/>
</g>
<!-- Node10 -->
<g id="node10" class="node"><title>Node10</title>
<g id="a_node10"><a xlink:href="classICED_1_1HalfCell_1_1DeviceData.html#a3fe7f3b792b8be799a077bf9efe05d0c" target="_top" xlink:title="Initialization of the component parameter objects. ">
<polygon fill="none" stroke="black" points="134,-73 134,-103 304,-103 304,-73 134,-73"/>
<text text-anchor="start" x="142" y="-91" font-family="Helvetica,sans-Serif" font-size="10.00">ICED::HalfCell::DeviceData</text>
<text text-anchor="middle" x="219" y="-80" font-family="Helvetica,sans-Serif" font-size="10.00">::GetDeviceComponentParameters</text>
</a>
</g>
</g>
<!-- Node1&#45;&gt;Node10 -->
<g id="edge9" class="edge"><title>Node1&#45;&gt;Node10</title>
<path fill="none" stroke="midnightblue" d="M98.1421,-105.123C106.314,-103.955 115.043,-102.708 123.925,-101.439"/>
<polygon fill="midnightblue" stroke="midnightblue" points="124.592,-104.88 133.996,-100.001 123.602,-97.95 124.592,-104.88"/>
</g>
<!-- Node3 -->
<g id="node3" class="node"><title>Node3</title>
<g id="a_node3"><a xlink:href="classICED_1_1HalfCell_1_1SolutionData.html#a16b07d4b06e74431a0783cbd6dd6e731" target="_top" xlink:title="Initialization of the input data from input file. ">
<polygon fill="none" stroke="black" points="353,-245 353,-275 477,-275 477,-245 353,-245"/>
<text text-anchor="start" x="361" y="-263" font-family="Helvetica,sans-Serif" font-size="10.00">ICED::HalfCell::Solution</text>
<text text-anchor="middle" x="415" y="-252" font-family="Helvetica,sans-Serif" font-size="10.00">Data::SetData</text>
</a>
</g>
</g>
<!-- Node2&#45;&gt;Node3 -->
<g id="edge2" class="edge"><title>Node2&#45;&gt;Node3</title>
<path fill="none" stroke="midnightblue" d="M234.964,-152.295C256.455,-173.498 298.105,-211.823 340,-235 343.91,-237.163 348.04,-239.184 352.268,-241.062"/>
<polygon fill="midnightblue" stroke="midnightblue" points="351.055,-244.349 361.633,-244.949 353.738,-237.883 351.055,-244.349"/>
</g>
<!-- Node4 -->
<g id="node4" class="node"><title>Node4</title>
<g id="a_node4"><a xlink:href="classICED_1_1HalfCell_1_1DeviceData.html#a16b07d4b06e74431a0783cbd6dd6e731" target="_top" xlink:title="Initialization of the input data from input file. ">
<polygon fill="none" stroke="black" points="345,-196 345,-226 485,-226 485,-196 345,-196"/>
<text text-anchor="start" x="353" y="-214" font-family="Helvetica,sans-Serif" font-size="10.00">ICED::HalfCell::DeviceData</text>
<text text-anchor="middle" x="415" y="-203" font-family="Helvetica,sans-Serif" font-size="10.00">::SetData</text>
</a>
</g>
</g>
<!-- Node2&#45;&gt;Node4 -->
<g id="edge3" class="edge"><title>Node2&#45;&gt;Node4</title>
<path fill="none" stroke="midnightblue" d="M255.217,-152.051C279.012,-162.055 311.217,-175.273 340,-186 345.921,-188.206 352.137,-190.438 358.346,-192.612"/>
<polygon fill="midnightblue" stroke="midnightblue" points="357.459,-196.008 368.053,-195.97 359.747,-189.393 357.459,-196.008"/>
</g>
<!-- Node5 -->
<g id="node5" class="node"><title>Node5</title>
<g id="a_node5"><a xlink:href="classICED_1_1HalfCell_1_1DeviceData.html#a9dce6b5d6a4272a04fb399b6b7723c96" target="_top" xlink:title="Initialization of the components from input file. ">
<polygon fill="none" stroke="black" points="345,-147 345,-177 485,-177 485,-147 345,-147"/>
<text text-anchor="start" x="353" y="-165" font-family="Helvetica,sans-Serif" font-size="10.00">ICED::HalfCell::DeviceData</text>
<text text-anchor="middle" x="415" y="-154" font-family="Helvetica,sans-Serif" font-size="10.00">::LoadComponents</text>
</a>
</g>
</g>
<!-- Node2&#45;&gt;Node5 -->
<g id="edge4" class="edge"><title>Node2&#45;&gt;Node5</title>
<path fill="none" stroke="midnightblue" d="M289.217,-145.92C303.893,-147.811 319.497,-149.822 334.52,-151.758"/>
<polygon fill="midnightblue" stroke="midnightblue" points="334.445,-155.277 344.81,-153.084 335.339,-148.334 334.445,-155.277"/>
</g>
<!-- Node6 -->
<g id="node6" class="node"><title>Node6</title>
<g id="a_node6"><a xlink:href="classICED_1_1HalfCell_1_1DeviceData.html#abea9dd513340105152db94ed9f24211a" target="_top" xlink:title="Setup of the global device data structure. ">
<polygon fill="none" stroke="black" points="345,-98 345,-128 485,-128 485,-98 345,-98"/>
<text text-anchor="start" x="353" y="-116" font-family="Helvetica,sans-Serif" font-size="10.00">ICED::HalfCell::DeviceData</text>
<text text-anchor="middle" x="415" y="-105" font-family="Helvetica,sans-Serif" font-size="10.00">::SetupGlobalData</text>
</a>
</g>
</g>
<!-- Node2&#45;&gt;Node6 -->
<g id="edge5" class="edge"><title>Node2&#45;&gt;Node6</title>
<path fill="none" stroke="midnightblue" d="M289.217,-128.437C303.893,-126.621 319.497,-124.691 334.52,-122.833"/>
<polygon fill="midnightblue" stroke="midnightblue" points="335.315,-126.261 344.81,-121.56 334.456,-119.314 335.315,-126.261"/>
</g>
<!-- Node8 -->
<g id="node8" class="node"><title>Node8</title>
<g id="a_node8"><a xlink:href="classICED_1_1HalfCell_1_1DeviceData.html#a9e170c875ec6749900cb89bfb977379a" target="_top" xlink:title="Copy device data from the component level. ">
<polygon fill="none" stroke="black" points="342.5,-49 342.5,-79 487.5,-79 487.5,-49 342.5,-49"/>
<text text-anchor="start" x="350.5" y="-67" font-family="Helvetica,sans-Serif" font-size="10.00">ICED::HalfCell::DeviceData</text>
<text text-anchor="middle" x="415" y="-56" font-family="Helvetica,sans-Serif" font-size="10.00">::CopyDataFromComponents</text>
</a>
</g>
</g>
<!-- Node2&#45;&gt;Node8 -->
<g id="edge7" class="edge"><title>Node2&#45;&gt;Node8</title>
<path fill="none" stroke="midnightblue" d="M278.615,-121.855C287.274,-118.96 295.974,-115.67 304,-112 321.267,-104.104 322.88,-97.21 340,-89 344.62,-86.7846 349.487,-84.6786 354.43,-82.698"/>
<polygon fill="midnightblue" stroke="midnightblue" points="355.888,-85.8875 363.98,-79.0478 353.389,-79.3488 355.888,-85.8875"/>
</g>
<!-- Node9 -->
<g id="node9" class="node"><title>Node9</title>
<g id="a_node9"><a xlink:href="classICED_1_1HalfCell_1_1DeviceData.html#af4d13d54a16ba494be74358656df1381" target="_top" xlink:title="Copy device data to global storage for the non&#45;linear solver. ">
<polygon fill="none" stroke="black" points="340.5,-0 340.5,-30 489.5,-30 489.5,-0 340.5,-0"/>
<text text-anchor="start" x="348.5" y="-18" font-family="Helvetica,sans-Serif" font-size="10.00">ICED::HalfCell::DeviceData</text>
<text text-anchor="middle" x="415" y="-7" font-family="Helvetica,sans-Serif" font-size="10.00">::CopyDeviceToGlobalStorage</text>
</a>
</g>
</g>
<!-- Node2&#45;&gt;Node9 -->
<g id="edge8" class="edge"><title>Node2&#45;&gt;Node9</title>
<path fill="none" stroke="midnightblue" d="M288.532,-121.996C294.082,-119.213 299.338,-115.912 304,-112 331.405,-89.0008 313.02,-63.4959 340,-40 341.924,-38.3246 343.965,-36.7605 346.095,-35.3003"/>
<polygon fill="midnightblue" stroke="midnightblue" points="347.901,-38.2981 354.695,-30.1679 344.314,-32.2871 347.901,-38.2981"/>
</g>
<!-- Node7 -->
<g id="node7" class="node"><title>Node7</title>
<g id="a_node7"><a xlink:href="classICED_1_1HalfCell_1_1SolutionData.html#a80aaf93c79fb804885351b17786981e4" target="_top" xlink:title="Setup of the trilinosdata structure. ">
<polygon fill="none" stroke="black" points="526,-98 526,-128 650,-128 650,-98 526,-98"/>
<text text-anchor="start" x="534" y="-116" font-family="Helvetica,sans-Serif" font-size="10.00">ICED::HalfCell::Solution</text>
<text text-anchor="middle" x="588" y="-105" font-family="Helvetica,sans-Serif" font-size="10.00">Data::BuildSolutionData</text>
</a>
</g>
</g>
<!-- Node6&#45;&gt;Node7 -->
<g id="edge6" class="edge"><title>Node6&#45;&gt;Node7</title>
<path fill="none" stroke="midnightblue" d="M485.059,-113C495.209,-113 505.68,-113 515.871,-113"/>
<polygon fill="midnightblue" stroke="midnightblue" points="515.946,-116.5 525.946,-113 515.946,-109.5 515.946,-116.5"/>
</g>
</g>
</svg>
