<?xml version="1.0" encoding="UTF-8" standalone="no"?>
<!DOCTYPE svg PUBLIC "-//W3C//DTD SVG 1.1//EN"
 "http://www.w3.org/Graphics/SVG/1.1/DTD/svg11.dtd">
<!-- Generated by graphviz version 2.30.1 (20150305.2338)
 -->
<!-- Title: Test__CheckParamsGood Pages: 1 -->
<svg width="408pt" height="28pt"
 viewBox="0.00 0.00 408.00 28.00" xmlns="http://www.w3.org/2000/svg" xmlns:xlink="http://www.w3.org/1999/xlink">
<g id="graph0" class="graph" transform="scale(1 1) rotate(0) translate(4 24)">
<title>Test__CheckParamsGood</title>
<!-- Node1 -->
<g id="node1" class="node"><title>Node1</title>
<polygon fill="#bfbfbf" stroke="black" points="0,-0.5 0,-19.5 132,-19.5 132,-0.5 0,-0.5"/>
<text text-anchor="middle" x="66" y="-7.5" font-family="Helvetica,sans-Serif" font-size="10.00">Test__CheckParamsGood</text>
</g>
<!-- Node2 -->
<g id="node2" class="node"><title>Node2</title>
<g id="a_node2"><a xlink:href="classICED_1_1TestingObject.html#a046f7ab06db0acf616b0d2bf3d3146aa" target="_top" xlink:title="Runs all tests implemented by the ICED::TestingObject. ">
<polygon fill="none" stroke="black" points="168.5,-0.5 168.5,-19.5 221.5,-19.5 221.5,-0.5 168.5,-0.5"/>
<text text-anchor="middle" x="195" y="-7.5" font-family="Helvetica,sans-Serif" font-size="10.00">Process</text>
</a>
</g>
</g>
<!-- Node1&#45;&gt;Node2 -->
<g id="edge1" class="edge"><title>Node1&#45;&gt;Node2</title>
<path fill="none" stroke="midnightblue" d="M142.471,-10C151.698,-10 160.575,-10 168.284,-10"/>
<polygon fill="midnightblue" stroke="midnightblue" points="142.36,-6.5001 132.36,-10 142.36,-13.5001 142.36,-6.5001"/>
</g>
<!-- Node3 -->
<g id="node3" class="node"><title>Node3</title>
<g id="a_node3"><a xlink:href="namespaceICED.html#acf52cefdb153ca8751acb1e183d3a405" target="_top" xlink:title="Drives the ICED::TestObject. ">
<polygon fill="none" stroke="black" points="258.5,-0.5 258.5,-19.5 325.5,-19.5 325.5,-0.5 258.5,-0.5"/>
<text text-anchor="middle" x="292" y="-7.5" font-family="Helvetica,sans-Serif" font-size="10.00">ICED::Test</text>
</a>
</g>
</g>
<!-- Node2&#45;&gt;Node3 -->
<g id="edge2" class="edge"><title>Node2&#45;&gt;Node3</title>
<path fill="none" stroke="midnightblue" d="M232.105,-10C240.705,-10 249.834,-10 258.273,-10"/>
<polygon fill="midnightblue" stroke="midnightblue" points="231.959,-6.5001 221.959,-10 231.959,-13.5001 231.959,-6.5001"/>
</g>
<!-- Node4 -->
<g id="node4" class="node"><title>Node4</title>
<g id="a_node4"><a xlink:href="TestICED_8C.html#a0ddf1224851353fc92bfbff6f499fa97" target="_top" xlink:title="main">
<polygon fill="none" stroke="black" points="362,-0.5 362,-19.5 400,-19.5 400,-0.5 362,-0.5"/>
<text text-anchor="middle" x="381" y="-7.5" font-family="Helvetica,sans-Serif" font-size="10.00">main</text>
</a>
</g>
</g>
<!-- Node3&#45;&gt;Node4 -->
<g id="edge3" class="edge"><title>Node3&#45;&gt;Node4</title>
<path fill="none" stroke="midnightblue" d="M336.017,-10C345.071,-10 354.152,-10 361.692,-10"/>
<polygon fill="midnightblue" stroke="midnightblue" points="335.891,-6.5001 325.891,-10 335.891,-13.5001 335.891,-6.5001"/>
</g>
</g>
</svg>
