<?xml version="1.0" encoding="UTF-8" standalone="no"?>
<!DOCTYPE svg PUBLIC "-//W3C//DTD SVG 1.1//EN"
 "http://www.w3.org/Graphics/SVG/1.1/DTD/svg11.dtd">
<!-- Generated by graphviz version 2.30.1 (20150305.2338)
 -->
<!-- Title: ApplyInternalBC Pages: 1 -->
<svg width="270pt" height="66pt"
 viewBox="0.00 0.00 270.00 66.00" xmlns="http://www.w3.org/2000/svg" xmlns:xlink="http://www.w3.org/1999/xlink">
<g id="graph0" class="graph" transform="scale(1 1) rotate(0) translate(4 62)">
<title>ApplyInternalBC</title>
<!-- Node1 -->
<g id="node1" class="node"><title>Node1</title>
<polygon fill="#bfbfbf" stroke="black" points="0,-19.5 0,-38.5 88,-38.5 88,-19.5 0,-19.5"/>
<text text-anchor="middle" x="44" y="-26.5" font-family="Helvetica,sans-Serif" font-size="10.00">ApplyInternalBC</text>
</g>
<!-- Node2 -->
<g id="node2" class="node"><title>Node2</title>
<g id="a_node2"><a xlink:href="classICED_1_1HalfCell_1_1DeviceComponent_ac3e788385c83425108793038c831b363.html#ac3e788385c83425108793038c831b363" target="_top" xlink:title="Performs initialization of physics module data outside of timestepping. ">
<polygon fill="none" stroke="black" points="124,-38.5 124,-57.5 262,-57.5 262,-38.5 124,-38.5"/>
<text text-anchor="middle" x="193" y="-45.5" font-family="Helvetica,sans-Serif" font-size="10.00">InitializeComponentPhysics</text>
</a>
</g>
</g>
<!-- Node1&#45;&gt;Node2 -->
<g id="edge1" class="edge"><title>Node1&#45;&gt;Node2</title>
<path fill="none" stroke="midnightblue" d="M98.2549,-35.8833C106.587,-36.9603 115.296,-38.0859 123.906,-39.1987"/>
<polygon fill="midnightblue" stroke="midnightblue" points="98.676,-32.4087 88.3098,-34.5979 97.7786,-39.3509 98.676,-32.4087"/>
</g>
<!-- Node3 -->
<g id="node3" class="node"><title>Node3</title>
<g id="a_node3"><a xlink:href="classICED_1_1HalfCell_1_1DeviceComponent_a31e18fc12be0455b47cddcf599131bc3.html#a31e18fc12be0455b47cddcf599131bc3" target="_top" xlink:title="Populate the component solution matricies. ">
<polygon fill="none" stroke="black" points="147,-0.5 147,-19.5 239,-19.5 239,-0.5 147,-0.5"/>
<text text-anchor="middle" x="193" y="-7.5" font-family="Helvetica,sans-Serif" font-size="10.00">SolveComponent</text>
</a>
</g>
</g>
<!-- Node1&#45;&gt;Node3 -->
<g id="edge2" class="edge"><title>Node1&#45;&gt;Node3</title>
<path fill="none" stroke="midnightblue" d="M98.5255,-22.0817C114.419,-20.0274 131.662,-17.7988 146.959,-15.8217"/>
<polygon fill="midnightblue" stroke="midnightblue" points="97.7786,-18.6491 88.3098,-23.4021 98.676,-25.5913 97.7786,-18.6491"/>
</g>
</g>
</svg>
