<?xml version="1.0" encoding="UTF-8" standalone="no"?>
<!DOCTYPE svg PUBLIC "-//W3C//DTD SVG 1.1//EN"
 "http://www.w3.org/Graphics/SVG/1.1/DTD/svg11.dtd">
<!-- Generated by graphviz version 2.30.1 (20150305.2338)
 -->
<!-- Title: Prologue Pages: 1 -->
<svg width="342pt" height="94pt"
 viewBox="0.00 0.00 342.00 94.00" xmlns="http://www.w3.org/2000/svg" xmlns:xlink="http://www.w3.org/1999/xlink">
<g id="graph0" class="graph" transform="scale(1 1) rotate(0) translate(4 90)">
<title>Prologue</title>
<!-- Node1 -->
<g id="node1" class="node"><title>Node1</title>
<polygon fill="#bfbfbf" stroke="black" points="0.5,-28.5 0.5,-47.5 55.5,-47.5 55.5,-28.5 0.5,-28.5"/>
<text text-anchor="middle" x="28" y="-35.5" font-family="Helvetica,sans-Serif" font-size="10.00">Prologue</text>
</g>
<!-- Node2 -->
<g id="node2" class="node"><title>Node2</title>
<g id="a_node2"><a xlink:href="classICED_1_1TestingObject_a046f7ab06db0acf616b0d2bf3d3146aa.html#a046f7ab06db0acf616b0d2bf3d3146aa" target="_top" xlink:title="Runs all tests implemented by the ICED::TestingObject. ">
<polygon fill="none" stroke="black" points="92.5,-66.5 92.5,-85.5 145.5,-85.5 145.5,-66.5 92.5,-66.5"/>
<text text-anchor="middle" x="119" y="-73.5" font-family="Helvetica,sans-Serif" font-size="10.00">Process</text>
</a>
</g>
</g>
<!-- Node1&#45;&gt;Node2 -->
<g id="edge1" class="edge"><title>Node1&#45;&gt;Node2</title>
<path fill="none" stroke="midnightblue" d="M60.7558,-51.5587C72.2619,-56.4714 85.0093,-61.9141 95.5487,-66.4141"/>
<polygon fill="midnightblue" stroke="midnightblue" points="62.0296,-48.2969 51.4585,-47.589 59.2809,-54.7347 62.0296,-48.2969"/>
</g>
<!-- Node5 -->
<g id="node5" class="node"><title>Node5</title>
<g id="a_node5"><a xlink:href="classICED_1_1TestingObject_a21159bd2efac623e5a5079f6a20f3444.html#a21159bd2efac623e5a5079f6a20f3444" target="_top" xlink:title="Runs a list of tests specified by name. ">
<polygon fill="none" stroke="black" points="182.5,-0.5 182.5,-19.5 259.5,-19.5 259.5,-0.5 182.5,-0.5"/>
<text text-anchor="middle" x="221" y="-7.5" font-family="Helvetica,sans-Serif" font-size="10.00">ProcessTests</text>
</a>
</g>
</g>
<!-- Node1&#45;&gt;Node5 -->
<g id="edge4" class="edge"><title>Node1&#45;&gt;Node5</title>
<path fill="none" stroke="midnightblue" d="M65.4316,-25.5135C74.0527,-22.9783 83.2778,-20.6012 92,-19 122.128,-13.4693 156.818,-11.2834 182.478,-10.4448"/>
<polygon fill="midnightblue" stroke="midnightblue" points="64.1813,-22.2363 55.6549,-28.5253 66.2422,-28.926 64.1813,-22.2363"/>
</g>
<!-- Node6 -->
<g id="node6" class="node"><title>Node6</title>
<g id="a_node6"><a xlink:href="classICED_1_1TestingObject_af1f07f14b9af7708e4264bb38937eed2.html#af1f07f14b9af7708e4264bb38937eed2" target="_top" xlink:title="Runs a test specified by name. ">
<polygon fill="none" stroke="black" points="92,-28.5 92,-47.5 146,-47.5 146,-28.5 92,-28.5"/>
<text text-anchor="middle" x="119" y="-35.5" font-family="Helvetica,sans-Serif" font-size="10.00">RunTest</text>
</a>
</g>
</g>
<!-- Node1&#45;&gt;Node6 -->
<g id="edge5" class="edge"><title>Node1&#45;&gt;Node6</title>
<path fill="none" stroke="midnightblue" d="M65.7427,-38C74.531,-38 83.7357,-38 91.9284,-38"/>
<polygon fill="midnightblue" stroke="midnightblue" points="65.703,-34.5001 55.7029,-38 65.7029,-41.5001 65.703,-34.5001"/>
</g>
<!-- Node3 -->
<g id="node3" class="node"><title>Node3</title>
<g id="a_node3"><a xlink:href="namespaceICED_acf52cefdb153ca8751acb1e183d3a405.html#acf52cefdb153ca8751acb1e183d3a405" target="_top" xlink:title="Drives the ICED::TestObject. ">
<polygon fill="none" stroke="black" points="187.5,-47.5 187.5,-66.5 254.5,-66.5 254.5,-47.5 187.5,-47.5"/>
<text text-anchor="middle" x="221" y="-54.5" font-family="Helvetica,sans-Serif" font-size="10.00">ICED::Test</text>
</a>
</g>
</g>
<!-- Node2&#45;&gt;Node3 -->
<g id="edge2" class="edge"><title>Node2&#45;&gt;Node3</title>
<path fill="none" stroke="midnightblue" d="M155.652,-69.2262C165.917,-67.2758 177.063,-65.158 187.15,-63.2415"/>
<polygon fill="midnightblue" stroke="midnightblue" points="154.923,-65.8019 145.752,-71.107 156.23,-72.6788 154.923,-65.8019"/>
</g>
<!-- Node4 -->
<g id="node4" class="node"><title>Node4</title>
<g id="a_node4"><a xlink:href="TestICED_8C_a0ddf1224851353fc92bfbff6f499fa97.html#a0ddf1224851353fc92bfbff6f499fa97" target="_top" xlink:title="main">
<polygon fill="none" stroke="black" points="296,-47.5 296,-66.5 334,-66.5 334,-47.5 296,-47.5"/>
<text text-anchor="middle" x="315" y="-54.5" font-family="Helvetica,sans-Serif" font-size="10.00">main</text>
</a>
</g>
</g>
<!-- Node3&#45;&gt;Node4 -->
<g id="edge3" class="edge"><title>Node3&#45;&gt;Node4</title>
<path fill="none" stroke="midnightblue" d="M264.981,-57C275.865,-57 286.976,-57 295.862,-57"/>
<polygon fill="midnightblue" stroke="midnightblue" points="264.695,-53.5001 254.695,-57 264.695,-60.5001 264.695,-53.5001"/>
</g>
<!-- Node6&#45;&gt;Node5 -->
<g id="edge6" class="edge"><title>Node6&#45;&gt;Node5</title>
<path fill="none" stroke="midnightblue" d="M155.836,-27.9658C165.603,-25.2311 176.156,-22.2764 185.827,-19.5684"/>
<polygon fill="midnightblue" stroke="midnightblue" points="154.699,-24.6497 146.013,-30.7164 156.586,-31.3904 154.699,-24.6497"/>
</g>
<!-- Node6&#45;&gt;Node3 -->
<g id="edge7" class="edge"><title>Node6&#45;&gt;Node3</title>
<path fill="none" stroke="midnightblue" d="M155.904,-44.8217C166.153,-46.7691 177.263,-48.88 187.309,-50.7888"/>
<polygon fill="midnightblue" stroke="midnightblue" points="156.49,-41.3706 146.013,-42.9424 155.184,-48.2476 156.49,-41.3706"/>
</g>
</g>
</svg>
