<?xml version="1.0" encoding="UTF-8" standalone="no"?>
<!DOCTYPE svg PUBLIC "-//W3C//DTD SVG 1.1//EN"
 "http://www.w3.org/Graphics/SVG/1.1/DTD/svg11.dtd">
<!-- Generated by graphviz version 2.30.1 (20150305.2338)
 -->
<!-- Title: Run Pages: 1 -->
<svg width="202pt" height="77pt"
 viewBox="0.00 0.00 202.00 77.00" xmlns="http://www.w3.org/2000/svg" xmlns:xlink="http://www.w3.org/1999/xlink">
<g id="graph0" class="graph" transform="scale(1 1) rotate(0) translate(4 73)">
<title>Run</title>
<!-- Node1 -->
<g id="node1" class="node"><title>Node1</title>
<polygon fill="#bfbfbf" stroke="black" points="0.5,-27.5 0.5,-46.5 35.5,-46.5 35.5,-27.5 0.5,-27.5"/>
<text text-anchor="middle" x="18" y="-34.5" font-family="Helvetica,sans-Serif" font-size="10.00">Run</text>
</g>
<!-- Node2 -->
<g id="node2" class="node"><title>Node2</title>
<g id="a_node2"><a xlink:href="namespaceICED_1_1HalfCell_a1daec1f933f4404256ab171124f5c706.html#a1daec1f933f4404256ab171124f5c706" target="_top" xlink:title="Unified driver for batterySim. ">
<polygon fill="none" stroke="black" points="75.5,-49.5 75.5,-68.5 190.5,-68.5 190.5,-49.5 75.5,-49.5"/>
<text text-anchor="middle" x="133" y="-56.5" font-family="Helvetica,sans-Serif" font-size="10.00">ICED::HalfCell::Driver</text>
</a>
</g>
</g>
<!-- Node1&#45;&gt;Node2 -->
<g id="edge1" class="edge"><title>Node1&#45;&gt;Node2</title>
<path fill="none" stroke="midnightblue" d="M45.6194,-42.1825C56.7835,-44.3561 70.133,-46.9551 82.9603,-49.4525"/>
<polygon fill="midnightblue" stroke="midnightblue" points="46.1581,-38.7218 35.6735,-40.2462 44.8204,-45.5928 46.1581,-38.7218"/>
</g>
<!-- Node3 -->
<g id="node3" class="node"><title>Node3</title>
<g id="a_node3"><a xlink:href="namespaceICED_1_1ExampleProgram_ad727542191f731d94a0e3d67ae9d2d31.html#ad727542191f731d94a0e3d67ae9d2d31" target="_top" xlink:title="Unified driver for the example programs. ">
<polygon fill="none" stroke="black" points="72,-0 72,-30 194,-30 194,-0 72,-0"/>
<text text-anchor="start" x="80" y="-18" font-family="Helvetica,sans-Serif" font-size="10.00">ICED::ExampleProgram</text>
<text text-anchor="middle" x="133" y="-7" font-family="Helvetica,sans-Serif" font-size="10.00">::Driver</text>
</a>
</g>
</g>
<!-- Node1&#45;&gt;Node3 -->
<g id="edge2" class="edge"><title>Node1&#45;&gt;Node3</title>
<path fill="none" stroke="midnightblue" d="M45.7481,-31.7924C53.7038,-30.2435 62.7606,-28.4802 71.9433,-26.6925"/>
<polygon fill="midnightblue" stroke="midnightblue" points="44.8204,-28.4072 35.6735,-33.7538 46.1581,-35.2782 44.8204,-28.4072"/>
</g>
</g>
</svg>
