<?xml version="1.0" encoding="UTF-8" standalone="no"?>
<!DOCTYPE svg PUBLIC "-//W3C//DTD SVG 1.1//EN"
 "http://www.w3.org/Graphics/SVG/1.1/DTD/svg11.dtd">
<!-- Generated by graphviz version 2.30.1 (20150305.2338)
 -->
<!-- Title: TransientSolverInterface Pages: 1 -->
<svg width="222pt" height="140pt"
 viewBox="0.00 0.00 222.00 140.00" xmlns="http://www.w3.org/2000/svg" xmlns:xlink="http://www.w3.org/1999/xlink">
<g id="graph0" class="graph" transform="scale(1 1) rotate(0) translate(4 136)">
<title>TransientSolverInterface</title>
<!-- Node1 -->
<g id="node1" class="node"><title>Node1</title>
<polygon fill="#bfbfbf" stroke="black" points="50.5,-0.5 50.5,-19.5 173.5,-19.5 173.5,-0.5 50.5,-0.5"/>
<text text-anchor="middle" x="112" y="-7.5" font-family="Helvetica,sans-Serif" font-size="10.00">TransientSolverInterface</text>
</g>
<!-- Node2 -->
<g id="node2" class="node"><title>Node2</title>
<g id="a_node2"><a xlink:href="classICED_1_1HalfCell_1_1SolverInterface.html" target="_top" xlink:title="Class to hold the interface to the Trilinos NOX Solver. ">
<polygon fill="none" stroke="black" points="70.5,-56.5 70.5,-75.5 153.5,-75.5 153.5,-56.5 70.5,-56.5"/>
<text text-anchor="middle" x="112" y="-63.5" font-family="Helvetica,sans-Serif" font-size="10.00">SolverInterface</text>
</a>
</g>
</g>
<!-- Node2&#45;&gt;Node1 -->
<g id="edge1" class="edge"><title>Node2&#45;&gt;Node1</title>
<path fill="none" stroke="midnightblue" d="M112,-45.8045C112,-36.9102 112,-26.7798 112,-19.7511"/>
<polygon fill="midnightblue" stroke="midnightblue" points="108.5,-46.083 112,-56.083 115.5,-46.083 108.5,-46.083"/>
</g>
<!-- Node3 -->
<g id="node3" class="node"><title>Node3</title>
<polygon fill="none" stroke="#bfbfbf" points="0,-112.5 0,-131.5 66,-131.5 66,-112.5 0,-112.5"/>
<text text-anchor="middle" x="33" y="-119.5" font-family="Helvetica,sans-Serif" font-size="10.00">GlobalType</text>
</g>
<!-- Node3&#45;&gt;Node2 -->
<g id="edge2" class="edge"><title>Node3&#45;&gt;Node2</title>
<path fill="none" stroke="midnightblue" d="M54.0343,-106.622C68.4661,-96.7574 87.1415,-83.9919 99.3388,-75.6545"/>
<polygon fill="midnightblue" stroke="midnightblue" points="51.9733,-103.791 45.6927,-112.324 55.9235,-109.57 51.9733,-103.791"/>
</g>
<!-- Node4 -->
<g id="node4" class="node"><title>Node4</title>
<polygon fill="none" stroke="#bfbfbf" points="84,-112.5 84,-131.5 140,-131.5 140,-112.5 84,-112.5"/>
<text text-anchor="middle" x="112" y="-119.5" font-family="Helvetica,sans-Serif" font-size="10.00">Required</text>
</g>
<!-- Node4&#45;&gt;Node2 -->
<g id="edge3" class="edge"><title>Node4&#45;&gt;Node2</title>
<path fill="none" stroke="midnightblue" d="M112,-101.805C112,-92.9102 112,-82.7798 112,-75.7511"/>
<polygon fill="midnightblue" stroke="midnightblue" points="108.5,-102.083 112,-112.083 115.5,-102.083 108.5,-102.083"/>
</g>
<!-- Node5 -->
<g id="node5" class="node"><title>Node5</title>
<polygon fill="none" stroke="#bfbfbf" points="158,-112.5 158,-131.5 214,-131.5 214,-112.5 158,-112.5"/>
<text text-anchor="middle" x="186" y="-119.5" font-family="Helvetica,sans-Serif" font-size="10.00">Jacobian</text>
</g>
<!-- Node5&#45;&gt;Node2 -->
<g id="edge4" class="edge"><title>Node5&#45;&gt;Node2</title>
<path fill="none" stroke="midnightblue" d="M165.966,-106.38C152.591,-96.6204 135.441,-84.1057 124.106,-75.8339"/>
<polygon fill="midnightblue" stroke="midnightblue" points="163.97,-109.257 174.111,-112.324 168.096,-103.602 163.97,-109.257"/>
</g>
</g>
</svg>
