<?xml version="1.0" encoding="UTF-8" standalone="no"?>
<!DOCTYPE svg PUBLIC "-//W3C//DTD SVG 1.1//EN"
 "http://www.w3.org/Graphics/SVG/1.1/DTD/svg11.dtd">
<!-- Generated by graphviz version 2.30.1 (20150305.2338)
 -->
<!-- Title: BuildDevice Pages: 1 -->
<!--zoomable 761 -->
<svg id="main" version="1.1" xmlns="http://www.w3.org/2000/svg" xmlns:xlink="http://www.w3.org/1999/xlink" xml:space="preserve" onload="init(evt)">
<style type="text/css"><![CDATA[
.edge:hover path { stroke: red; }
.edge:hover polygon { stroke: red; fill: red; }
]]></style>
<script type="text/javascript"><![CDATA[
var edges = document.getElementsByTagName('g');
if (edges && edges.length) {
  for (var i=0;i<edges.length;i++) {
    if (edges[i].id.substr(0,4)=='edge') {
      edges[i].setAttribute('class','edge');
    }
  }
}
]]></script>
        <defs>
                <circle id="rim" cx="0" cy="0" r="7"/>
                <circle id="rim2" cx="0" cy="0" r="3.5"/>
                <g id="zoomPlus">
                        <use xlink:href="#rim" fill="#404040">
                                <set attributeName="fill" to="#808080" begin="zoomplus.mouseover" end="zoomplus.mouseout"/>
                        </use>
                        <path d="M-4,0h8M0,-4v8" fill="none" stroke="white" stroke-width="1.5" pointer-events="none"/>
                </g>
                <g id="zoomMin">
                        <use xlink:href="#rim" fill="#404040">
                                <set attributeName="fill" to="#808080" begin="zoomminus.mouseover" end="zoomminus.mouseout"/>
                        </use>
                        <path d="M-4,0h8" fill="none" stroke="white" stroke-width="1.5" pointer-events="none"/>
                </g>
                <g id="dirArrow">
                        <path fill="none" stroke="white" stroke-width="1.5" d="M0,-3.0v7 M-2.5,-0.5L0,-3.0L2.5,-0.5"/>
                </g>
               <g id="resetDef">
                       <use xlink:href="#rim2" fill="#404040">
                               <set attributeName="fill" to="#808080" begin="reset.mouseover" end="reset.mouseout"/>
                       </use>
               </g>
        </defs>

<script type="text/javascript">
var viewWidth = 842;
var viewHeight = 761;
var sectionId = 'dynsection-5';
</script>
<script xlink:href="svgpan.js"/>
<svg id="graph" class="graph">
<g id="viewport">
<title>BuildDevice</title>
<!-- Node1 -->
<g id="node1" class="node"><title>Node1</title>
<polygon fill="#bfbfbf" stroke="black" points="0.5,-367.5 0.5,-386.5 69.5,-386.5 69.5,-367.5 0.5,-367.5"/>
<text text-anchor="middle" x="35" y="-374.5" font-family="Helvetica,sans-Serif" font-size="10.00">BuildDevice</text>
</g>
<!-- Node2 -->
<g id="node2" class="node"><title>Node2</title>
<g id="a_node2"><a xlink:href="classICED_1_1TestingObject.html#a7995a39337d2ec045b02982b1b346b28" target="_top" xlink:title="Function called by Test__Intercalation. ">
<polygon fill="none" stroke="black" points="112.5,-425 112.5,-455 237.5,-455 237.5,-425 112.5,-425"/>
<text text-anchor="start" x="120.5" y="-443" font-family="Helvetica,sans-Serif" font-size="10.00">ICED::TestingObject</text>
<text text-anchor="middle" x="175" y="-432" font-family="Helvetica,sans-Serif" font-size="10.00">::RunIntercalationModule</text>
</a>
</g>
</g>
<!-- Node1&#45;&gt;Node2 -->
<g id="edge1" class="edge"><title>Node1&#45;&gt;Node2</title>
<path fill="none" stroke="midnightblue" d="M64.9529,-390.848C77.5328,-396.813 92.4605,-403.823 106,-410 116.8,-414.927 128.62,-420.188 139.332,-424.905"/>
<polygon fill="midnightblue" stroke="midnightblue" points="66.3865,-387.654 55.8524,-386.521 63.3806,-393.976 66.3865,-387.654"/>
</g>
<!-- Node9 -->
<g id="node9" class="node"><title>Node9</title>
<g id="a_node9"><a xlink:href="classICED_1_1TestingObject.html#aea517fa85afb367c872ce72c26a0d643" target="_top" xlink:title="Test for ICED::ActivitCoefficient module. ">
<polygon fill="none" stroke="black" points="309.5,-392 309.5,-422 442.5,-422 442.5,-392 309.5,-392"/>
<text text-anchor="start" x="317.5" y="-410" font-family="Helvetica,sans-Serif" font-size="10.00">ICED::TestingObject</text>
<text text-anchor="middle" x="376" y="-399" font-family="Helvetica,sans-Serif" font-size="10.00">::Test__ActivityCoefficient</text>
</a>
</g>
</g>
<!-- Node1&#45;&gt;Node9 -->
<g id="edge9" class="edge"><title>Node1&#45;&gt;Node9</title>
<path fill="none" stroke="midnightblue" d="M79.7314,-380.87C137.998,-386.026 241.591,-395.194 309.283,-401.184"/>
<polygon fill="midnightblue" stroke="midnightblue" points="80.0136,-377.381 69.744,-379.986 79.3965,-384.354 80.0136,-377.381"/>
</g>
<!-- Node10 -->
<g id="node10" class="node"><title>Node10</title>
<g id="a_node10"><a xlink:href="classICED_1_1TestingObject.html#a2f898efd73e9aaf601f0733cb31fc340" target="_top" xlink:title="Test for ICED::ButlerVolmer. ">
<polygon fill="none" stroke="black" points="321.5,-343 321.5,-373 430.5,-373 430.5,-343 321.5,-343"/>
<text text-anchor="start" x="329.5" y="-361" font-family="Helvetica,sans-Serif" font-size="10.00">ICED::TestingObject</text>
<text text-anchor="middle" x="376" y="-350" font-family="Helvetica,sans-Serif" font-size="10.00">::Test__ButlerVolmer</text>
</a>
</g>
</g>
<!-- Node1&#45;&gt;Node10 -->
<g id="edge12" class="edge"><title>Node1&#45;&gt;Node10</title>
<path fill="none" stroke="midnightblue" d="M79.964,-374.536C141.903,-371.064 254.73,-364.741 321.472,-361"/>
<polygon fill="midnightblue" stroke="midnightblue" points="79.5324,-371.055 69.744,-375.109 79.9242,-378.044 79.5324,-371.055"/>
</g>
<!-- Node11 -->
<g id="node11" class="node"><title>Node11</title>
<g id="a_node11"><a xlink:href="classICED_1_1TestingObject.html#a7bac98c894f8cfff372d495eae083cd5" target="_top" xlink:title="Tests the input file error checking functions using testModule and a generated &quot;bad&quot; input file...">
<polygon fill="none" stroke="black" points="109,-718 109,-748 241,-748 241,-718 109,-718"/>
<text text-anchor="start" x="117" y="-736" font-family="Helvetica,sans-Serif" font-size="10.00">ICED::TestingObject</text>
<text text-anchor="middle" x="175" y="-725" font-family="Helvetica,sans-Serif" font-size="10.00">::Test__CheckParamsBad</text>
</a>
</g>
</g>
<!-- Node1&#45;&gt;Node11 -->
<g id="edge15" class="edge"><title>Node1&#45;&gt;Node11</title>
<path fill="none" stroke="midnightblue" d="M35.6335,-396.817C35.6152,-449.057 41.7898,-592.955 106,-687 114.84,-699.948 128.639,-710.262 141.502,-717.815"/>
<polygon fill="midnightblue" stroke="midnightblue" points="39.1351,-396.629 35.7214,-386.599 32.1354,-396.568 39.1351,-396.629"/>
</g>
<!-- Node12 -->
<g id="node12" class="node"><title>Node12</title>
<g id="a_node12"><a xlink:href="classICED_1_1TestingObject.html#afedc7e682315a3e766d614e09631ab04" target="_top" xlink:title="Tests the input file error checking functions using testModule and a generated &quot;good&quot; input file...">
<polygon fill="none" stroke="black" points="106,-648 106,-678 244,-678 244,-648 106,-648"/>
<text text-anchor="start" x="114" y="-666" font-family="Helvetica,sans-Serif" font-size="10.00">ICED::TestingObject</text>
<text text-anchor="middle" x="175" y="-655" font-family="Helvetica,sans-Serif" font-size="10.00">::Test__CheckParamsGood</text>
</a>
</g>
</g>
<!-- Node1&#45;&gt;Node12 -->
<g id="edge17" class="edge"><title>Node1&#45;&gt;Node12</title>
<path fill="none" stroke="midnightblue" d="M36.8408,-396.593C39.6826,-441.129 52.0818,-551.552 106,-622 114.295,-632.838 126.343,-641.425 138.002,-647.881"/>
<polygon fill="midnightblue" stroke="midnightblue" points="40.3316,-396.326 36.2949,-386.53 33.3419,-396.705 40.3316,-396.326"/>
</g>
<!-- Node13 -->
<g id="node13" class="node"><title>Node13</title>
<g id="a_node13"><a xlink:href="classICED_1_1TestingObject.html#a8218a8aab213585d0fba3f2e1aa24b76" target="_top" xlink:title="Test for ICED::ComponentBoundaryConditions. ">
<polygon fill="none" stroke="black" points="280.5,-196 280.5,-226 471.5,-226 471.5,-196 280.5,-196"/>
<text text-anchor="start" x="288.5" y="-214" font-family="Helvetica,sans-Serif" font-size="10.00">ICED::TestingObject</text>
<text text-anchor="middle" x="376" y="-203" font-family="Helvetica,sans-Serif" font-size="10.00">::Test__ComponentBoundaryConditions</text>
</a>
</g>
</g>
<!-- Node1&#45;&gt;Node13 -->
<g id="edge19" class="edge"><title>Node1&#45;&gt;Node13</title>
<path fill="none" stroke="midnightblue" d="M45.0575,-358.285C56.3701,-336.89 77.7288,-302.339 106,-283 157.574,-247.721 225.641,-229.712 280.399,-220.528"/>
<polygon fill="midnightblue" stroke="midnightblue" points="41.8623,-356.847 40.4511,-367.348 48.1025,-360.019 41.8623,-356.847"/>
</g>
<!-- Node14 -->
<g id="node14" class="node"><title>Node14</title>
<g id="a_node14"><a xlink:href="classICED_1_1TestingObject.html#a96409144efe94cf3e37a534e524c6e36" target="_top" xlink:title="Test for ICED::ConcentrationDiffusion. ">
<polygon fill="none" stroke="black" points="300,-147 300,-177 452,-177 452,-147 300,-147"/>
<text text-anchor="start" x="308" y="-165" font-family="Helvetica,sans-Serif" font-size="10.00">ICED::TestingObject</text>
<text text-anchor="middle" x="376" y="-154" font-family="Helvetica,sans-Serif" font-size="10.00">::Test__ConcentrationDiffusion</text>
</a>
</g>
</g>
<!-- Node1&#45;&gt;Node14 -->
<g id="edge22" class="edge"><title>Node1&#45;&gt;Node14</title>
<path fill="none" stroke="midnightblue" d="M39.4005,-357.434C46.103,-324.973 64.1696,-260.184 106,-226 160.642,-181.346 241.228,-166.872 299.946,-162.641"/>
<polygon fill="midnightblue" stroke="midnightblue" points="35.9231,-356.985 37.4834,-367.464 42.7986,-358.299 35.9231,-356.985"/>
</g>
<!-- Node15 -->
<g id="node15" class="node"><title>Node15</title>
<g id="a_node15"><a xlink:href="classICED_1_1TestingObject.html#a20a3def5cfb0861690599ae120367987" target="_top" xlink:title="Test for ICED::DeviceData. ">
<polygon fill="none" stroke="black" points="322,-98 322,-128 430,-128 430,-98 322,-98"/>
<text text-anchor="start" x="330" y="-116" font-family="Helvetica,sans-Serif" font-size="10.00">ICED::TestingObject</text>
<text text-anchor="middle" x="376" y="-105" font-family="Helvetica,sans-Serif" font-size="10.00">::Test__DeviceData</text>
</a>
</g>
</g>
<!-- Node1&#45;&gt;Node15 -->
<g id="edge25" class="edge"><title>Node1&#45;&gt;Node15</title>
<path fill="none" stroke="midnightblue" d="M36.3275,-357.107C38.1649,-314.979 48.7151,-216.497 106,-166 165.72,-113.357 262.224,-106.878 321.958,-108.712"/>
<polygon fill="midnightblue" stroke="midnightblue" points="32.8265,-357.089 36.0125,-367.193 39.8231,-357.307 32.8265,-357.089"/>
</g>
<!-- Node16 -->
<g id="node16" class="node"><title>Node16</title>
<g id="a_node16"><a xlink:href="classICED_1_1TestingObject.html#a43dbcae20e4ab6f8b30751e9b5e5b2c2" target="_top" xlink:title="Test for ICED::DeviceDataMapping. ">
<polygon fill="none" stroke="black" points="305.5,-49 305.5,-79 446.5,-79 446.5,-49 305.5,-49"/>
<text text-anchor="start" x="313.5" y="-67" font-family="Helvetica,sans-Serif" font-size="10.00">ICED::TestingObject</text>
<text text-anchor="middle" x="376" y="-56" font-family="Helvetica,sans-Serif" font-size="10.00">::Test__DeviceDataMapping</text>
</a>
</g>
</g>
<!-- Node1&#45;&gt;Node16 -->
<g id="edge28" class="edge"><title>Node1&#45;&gt;Node16</title>
<path fill="none" stroke="midnightblue" d="M38.355,-357.474C45.4957,-301.629 68.7251,-143.072 106,-109 159.473,-60.1221 245.114,-53.5949 305.372,-56.2549"/>
<polygon fill="midnightblue" stroke="midnightblue" points="34.8717,-357.124 37.109,-367.48 41.8181,-357.989 34.8717,-357.124"/>
</g>
<!-- Node17 -->
<g id="node17" class="node"><title>Node17</title>
<g id="a_node17"><a xlink:href="classICED_1_1TestingObject.html#a06cf16fc934c4e87f6886a7beb771b0e" target="_top" xlink:title="Test for ICED::Diffusion module. ">
<polygon fill="none" stroke="black" points="322,-0 322,-30 430,-30 430,-0 322,-0"/>
<text text-anchor="start" x="330" y="-18" font-family="Helvetica,sans-Serif" font-size="10.00">ICED::TestingObject</text>
<text text-anchor="middle" x="376" y="-7" font-family="Helvetica,sans-Serif" font-size="10.00">::Test__Diffusion</text>
</a>
</g>
</g>
<!-- Node1&#45;&gt;Node17 -->
<g id="edge31" class="edge"><title>Node1&#45;&gt;Node17</title>
<path fill="none" stroke="midnightblue" d="M37.43,-356.883C42.4067,-292.896 61.1697,-95.8205 106,-54 163.884,-0.00175492 261.413,-0.0247933 321.775,-6.45763"/>
<polygon fill="midnightblue" stroke="midnightblue" points="33.913,-356.981 36.658,-367.214 40.8936,-357.503 33.913,-356.981"/>
</g>
<!-- Node18 -->
<g id="node18" class="node"><title>Node18</title>
<g id="a_node18"><a xlink:href="classICED_1_1TestingObject.html#af46c6cb015fb4151707a8c08084f4525" target="_top" xlink:title="Test for ICED::IonMigration module. ">
<polygon fill="none" stroke="black" points="322,-637 322,-667 430,-667 430,-637 322,-637"/>
<text text-anchor="start" x="330" y="-655" font-family="Helvetica,sans-Serif" font-size="10.00">ICED::TestingObject</text>
<text text-anchor="middle" x="376" y="-644" font-family="Helvetica,sans-Serif" font-size="10.00">::Test__IonMigration</text>
</a>
</g>
</g>
<!-- Node1&#45;&gt;Node18 -->
<g id="edge34" class="edge"><title>Node1&#45;&gt;Node18</title>
<path fill="none" stroke="midnightblue" d="M37.2466,-396.903C40.8152,-436.583 54.4495,-525.936 106,-575 137.009,-604.513 252.826,-629.886 321.976,-642.83"/>
<polygon fill="midnightblue" stroke="midnightblue" points="40.7334,-396.595 36.4704,-386.896 33.7543,-397.137 40.7334,-396.595"/>
</g>
<!-- Node19 -->
<g id="node19" class="node"><title>Node19</title>
<g id="a_node19"><a xlink:href="classICED_1_1TestingObject.html#a263e8cc9d4d10cb3b749c8946ebcae72" target="_top" xlink:title="Test for ICED::DeviceComponent. ">
<polygon fill="none" stroke="black" points="318.5,-588 318.5,-618 433.5,-618 433.5,-588 318.5,-588"/>
<text text-anchor="start" x="326.5" y="-606" font-family="Helvetica,sans-Serif" font-size="10.00">ICED::TestingObject</text>
<text text-anchor="middle" x="376" y="-595" font-family="Helvetica,sans-Serif" font-size="10.00">::Test__ModulePriority</text>
</a>
</g>
</g>
<!-- Node1&#45;&gt;Node19 -->
<g id="edge37" class="edge"><title>Node1&#45;&gt;Node19</title>
<path fill="none" stroke="midnightblue" d="M38.8434,-396.874C44.8216,-431.09 61.976,-501.003 106,-538 137.77,-564.699 249.155,-584.963 318.239,-595.319"/>
<polygon fill="midnightblue" stroke="midnightblue" points="42.2577,-396.06 37.2218,-386.738 35.3456,-397.165 42.2577,-396.06"/>
</g>
<!-- Node20 -->
<g id="node20" class="node"><title>Node20</title>
<g id="a_node20"><a xlink:href="classICED_1_1TestingObject.html#a4f825a89973b92c36e2fe2cbe6a653a0" target="_top" xlink:title="Test for ICED::OhmsLawElectrolyte. ">
<polygon fill="none" stroke="black" points="304.5,-539 304.5,-569 447.5,-569 447.5,-539 304.5,-539"/>
<text text-anchor="start" x="312.5" y="-557" font-family="Helvetica,sans-Serif" font-size="10.00">ICED::TestingObject</text>
<text text-anchor="middle" x="376" y="-546" font-family="Helvetica,sans-Serif" font-size="10.00">::Test__OhmsLawElectrolyte</text>
</a>
</g>
</g>
<!-- Node1&#45;&gt;Node20 -->
<g id="edge40" class="edge"><title>Node1&#45;&gt;Node20</title>
<path fill="none" stroke="midnightblue" d="M41.6012,-396.253C50.5483,-423.42 70.7491,-472.525 106,-498 163.898,-539.842 246.106,-551.894 304.372,-554.691"/>
<polygon fill="midnightblue" stroke="midnightblue" points="44.9411,-395.207 38.6242,-386.701 38.2582,-397.289 44.9411,-395.207"/>
</g>
<!-- Node21 -->
<g id="node21" class="node"><title>Node21</title>
<g id="a_node21"><a xlink:href="classICED_1_1TestingObject.html#ab656a16700e242a40e0b21d7693a6ae0" target="_top" xlink:title="Test for ICED::OhmsLawSolid. ">
<polygon fill="none" stroke="black" points="316.5,-490 316.5,-520 435.5,-520 435.5,-490 316.5,-490"/>
<text text-anchor="start" x="324.5" y="-508" font-family="Helvetica,sans-Serif" font-size="10.00">ICED::TestingObject</text>
<text text-anchor="middle" x="376" y="-497" font-family="Helvetica,sans-Serif" font-size="10.00">::Test__OhmsLawSolid</text>
</a>
</g>
</g>
<!-- Node1&#45;&gt;Node21 -->
<g id="edge43" class="edge"><title>Node1&#45;&gt;Node21</title>
<path fill="none" stroke="midnightblue" d="M45.3823,-395.482C56.7729,-415.856 77.988,-447.877 106,-464 171.1,-501.469 259.102,-508.21 316.445,-507.94"/>
<polygon fill="midnightblue" stroke="midnightblue" points="48.3986,-393.7 40.593,-386.536 42.2274,-397.004 48.3986,-393.7"/>
</g>
<!-- Node22 -->
<g id="node22" class="node"><title>Node22</title>
<g id="a_node22"><a xlink:href="classICED_1_1TestingObject.html#aacdc6512e5ce8094c62997f4d1f02634" target="_top" xlink:title="Test for ICED::TransferenceNumber. ">
<polygon fill="none" stroke="black" points="304,-294 304,-324 448,-324 448,-294 304,-294"/>
<text text-anchor="start" x="312" y="-312" font-family="Helvetica,sans-Serif" font-size="10.00">ICED::TestingObject</text>
<text text-anchor="middle" x="376" y="-301" font-family="Helvetica,sans-Serif" font-size="10.00">::Test__TransferenceNumber</text>
</a>
</g>
</g>
<!-- Node1&#45;&gt;Node22 -->
<g id="edge46" class="edge"><title>Node1&#45;&gt;Node22</title>
<path fill="none" stroke="midnightblue" d="M79.7703,-367.504C88.4562,-365.653 97.5125,-363.745 106,-362 173.021,-348.218 249.593,-333.202 303.856,-322.684"/>
<polygon fill="midnightblue" stroke="midnightblue" points="78.8458,-364.123 69.8004,-369.639 80.3116,-370.967 78.8458,-364.123"/>
</g>
<!-- Node23 -->
<g id="node23" class="node"><title>Node23</title>
<g id="a_node23"><a xlink:href="classICED_1_1TestingObject.html#a9bbc638a5bd612413bdd4c03b6c66d0c" target="_top" xlink:title="Test for ICED::wallFlux. ">
<polygon fill="none" stroke="black" points="322,-245 322,-275 430,-275 430,-245 322,-245"/>
<text text-anchor="start" x="330" y="-263" font-family="Helvetica,sans-Serif" font-size="10.00">ICED::TestingObject</text>
<text text-anchor="middle" x="376" y="-252" font-family="Helvetica,sans-Serif" font-size="10.00">::Test__WallFlux</text>
</a>
</g>
</g>
<!-- Node1&#45;&gt;Node23 -->
<g id="edge49" class="edge"><title>Node1&#45;&gt;Node23</title>
<path fill="none" stroke="midnightblue" d="M56.3383,-361.577C69.829,-351.953 88.2551,-339.93 106,-332 177.505,-300.046 266.233,-279.702 321.752,-269.069"/>
<polygon fill="midnightblue" stroke="midnightblue" points="54.2551,-358.764 48.2424,-367.487 58.3827,-364.417 54.2551,-358.764"/>
</g>
<!-- Node3 -->
<g id="node3" class="node"><title>Node3</title>
<g id="a_node3"><a xlink:href="classICED_1_1TestingObject.html#adcd8b620aa1ea5a579a671ac15b5620b" target="_top" xlink:title="Test for ICED::Intercalation. ">
<polygon fill="none" stroke="black" points="322,-441 322,-471 430,-471 430,-441 322,-441"/>
<text text-anchor="start" x="330" y="-459" font-family="Helvetica,sans-Serif" font-size="10.00">ICED::TestingObject</text>
<text text-anchor="middle" x="376" y="-448" font-family="Helvetica,sans-Serif" font-size="10.00">::Test__Intercalation</text>
</a>
</g>
</g>
<!-- Node2&#45;&gt;Node3 -->
<g id="edge2" class="edge"><title>Node2&#45;&gt;Node3</title>
<path fill="none" stroke="midnightblue" d="M247.889,-445.78C272.281,-447.741 299.077,-449.896 321.751,-451.719"/>
<polygon fill="midnightblue" stroke="midnightblue" points="247.85,-442.266 237.602,-444.953 247.289,-449.243 247.85,-442.266"/>
</g>
<!-- Node4 -->
<g id="node4" class="node"><title>Node4</title>
<g id="a_node4"><a xlink:href="classICED_1_1TestingObject.html#a046f7ab06db0acf616b0d2bf3d3146aa" target="_top" xlink:title="Runs all tests implemented by the ICED::TestingObject. ">
<polygon fill="none" stroke="black" points="508,-367 508,-397 616,-397 616,-367 508,-367"/>
<text text-anchor="start" x="516" y="-385" font-family="Helvetica,sans-Serif" font-size="10.00">ICED::TestingObject</text>
<text text-anchor="middle" x="562" y="-374" font-family="Helvetica,sans-Serif" font-size="10.00">::Process</text>
</a>
</g>
</g>
<!-- Node3&#45;&gt;Node4 -->
<g id="edge3" class="edge"><title>Node3&#45;&gt;Node4</title>
<path fill="none" stroke="midnightblue" d="M439.895,-441.789C450.752,-438.675 461.815,-435.071 472,-431 495.093,-421.768 519.747,-407.841 537.236,-397.192"/>
<polygon fill="midnightblue" stroke="midnightblue" points="438.725,-438.481 430.013,-444.51 440.583,-445.229 438.725,-438.481"/>
</g>
<!-- Node7 -->
<g id="node7" class="node"><title>Node7</title>
<g id="a_node7"><a xlink:href="classICED_1_1TestingObject.html#af1f07f14b9af7708e4264bb38937eed2" target="_top" xlink:title="Runs a test specified by name. ">
<polygon fill="none" stroke="black" points="508,-318 508,-348 616,-348 616,-318 508,-318"/>
<text text-anchor="start" x="516" y="-336" font-family="Helvetica,sans-Serif" font-size="10.00">ICED::TestingObject</text>
<text text-anchor="middle" x="562" y="-325" font-family="Helvetica,sans-Serif" font-size="10.00">::RunTest</text>
</a>
</g>
</g>
<!-- Node3&#45;&gt;Node7 -->
<g id="edge6" class="edge"><title>Node3&#45;&gt;Node7</title>
<path fill="none" stroke="midnightblue" d="M439.812,-447.635C451.391,-443.928 462.734,-438.611 472,-431 500.262,-407.785 481.784,-382.503 508,-357 511.475,-353.619 515.511,-350.663 519.774,-348.09"/>
<polygon fill="midnightblue" stroke="midnightblue" points="438.742,-444.301 430.07,-450.387 440.645,-451.037 438.742,-444.301"/>
</g>
<!-- Node5 -->
<g id="node5" class="node"><title>Node5</title>
<g id="a_node5"><a xlink:href="namespaceICED.html#acf52cefdb153ca8751acb1e183d3a405" target="_top" xlink:title="Drives the ICED::TestObject. ">
<polygon fill="none" stroke="black" points="672.5,-369.5 672.5,-388.5 739.5,-388.5 739.5,-369.5 672.5,-369.5"/>
<text text-anchor="middle" x="706" y="-376.5" font-family="Helvetica,sans-Serif" font-size="10.00">ICED::Test</text>
</a>
</g>
</g>
<!-- Node4&#45;&gt;Node5 -->
<g id="edge4" class="edge"><title>Node4&#45;&gt;Node5</title>
<path fill="none" stroke="midnightblue" d="M626.6,-380.656C642.467,-380.321 658.831,-379.975 672.478,-379.687"/>
<polygon fill="midnightblue" stroke="midnightblue" points="626.203,-377.164 616.28,-380.874 626.351,-384.162 626.203,-377.164"/>
</g>
<!-- Node6 -->
<g id="node6" class="node"><title>Node6</title>
<g id="a_node6"><a xlink:href="TestICED_8C.html#a0ddf1224851353fc92bfbff6f499fa97" target="_top" xlink:title="main">
<polygon fill="none" stroke="black" points="796,-369.5 796,-388.5 834,-388.5 834,-369.5 796,-369.5"/>
<text text-anchor="middle" x="815" y="-376.5" font-family="Helvetica,sans-Serif" font-size="10.00">main</text>
</a>
</g>
</g>
<!-- Node5&#45;&gt;Node6 -->
<g id="edge5" class="edge"><title>Node5&#45;&gt;Node6</title>
<path fill="none" stroke="midnightblue" d="M749.939,-379C765.927,-379 783.225,-379 795.811,-379"/>
<polygon fill="midnightblue" stroke="midnightblue" points="749.685,-375.5 739.685,-379 749.685,-382.5 749.685,-375.5"/>
</g>
<!-- Node8 -->
<g id="node8" class="node"><title>Node8</title>
<g id="a_node8"><a xlink:href="classICED_1_1TestingObject.html#a21159bd2efac623e5a5079f6a20f3444" target="_top" xlink:title="Runs a list of tests specified by name. ">
<polygon fill="none" stroke="black" points="652,-318 652,-348 760,-348 760,-318 652,-318"/>
<text text-anchor="start" x="660" y="-336" font-family="Helvetica,sans-Serif" font-size="10.00">ICED::TestingObject</text>
<text text-anchor="middle" x="706" y="-325" font-family="Helvetica,sans-Serif" font-size="10.00">::ProcessTests</text>
</a>
</g>
</g>
<!-- Node7&#45;&gt;Node8 -->
<g id="edge7" class="edge"><title>Node7&#45;&gt;Node8</title>
<path fill="none" stroke="midnightblue" d="M626.517,-333C634.996,-333 643.618,-333 651.894,-333"/>
<polygon fill="midnightblue" stroke="midnightblue" points="626.28,-329.5 616.28,-333 626.28,-336.5 626.28,-329.5"/>
</g>
<!-- Node7&#45;&gt;Node5 -->
<g id="edge8" class="edge"><title>Node7&#45;&gt;Node5</title>
<path fill="none" stroke="midnightblue" d="M619.084,-351.168C638.316,-357.398 659.077,-364.124 675.373,-369.402"/>
<polygon fill="midnightblue" stroke="midnightblue" points="620.088,-347.814 609.496,-348.062 617.931,-354.474 620.088,-347.814"/>
</g>
<!-- Node9&#45;&gt;Node4 -->
<g id="edge10" class="edge"><title>Node9&#45;&gt;Node4</title>
<path fill="none" stroke="midnightblue" d="M452.795,-396.702C471.261,-394.193 490.625,-391.562 507.786,-389.23"/>
<polygon fill="midnightblue" stroke="midnightblue" points="452.087,-393.266 442.649,-398.08 453.029,-400.202 452.087,-393.266"/>
</g>
<!-- Node9&#45;&gt;Node7 -->
<g id="edge11" class="edge"><title>Node9&#45;&gt;Node7</title>
<path fill="none" stroke="midnightblue" d="M452.548,-389.738C459.235,-387.429 465.809,-384.856 472,-382 489.689,-373.841 491.058,-366.613 508,-357 513.535,-353.86 519.555,-350.811 525.487,-348"/>
<polygon fill="midnightblue" stroke="midnightblue" points="451.133,-386.518 442.703,-392.936 453.295,-393.176 451.133,-386.518"/>
</g>
<!-- Node10&#45;&gt;Node4 -->
<g id="edge13" class="edge"><title>Node10&#45;&gt;Node4</title>
<path fill="none" stroke="midnightblue" d="M440.899,-366.335C462.751,-369.185 486.943,-372.34 507.854,-375.068"/>
<polygon fill="midnightblue" stroke="midnightblue" points="441.084,-362.829 430.715,-365.006 440.178,-369.77 441.084,-362.829"/>
</g>
<!-- Node10&#45;&gt;Node7 -->
<g id="edge14" class="edge"><title>Node10&#45;&gt;Node7</title>
<path fill="none" stroke="midnightblue" d="M440.899,-349.318C462.751,-346.349 486.943,-343.062 507.854,-340.221"/>
<polygon fill="midnightblue" stroke="midnightblue" points="440.153,-345.887 430.715,-350.702 441.095,-352.823 440.153,-345.887"/>
</g>
<!-- Node11&#45;&gt;Node4 -->
<g id="edge16" class="edge"><title>Node11&#45;&gt;Node4</title>
<path fill="none" stroke="midnightblue" d="M251.403,-747.963C317.184,-756.417 411.336,-756.77 472,-706 521.096,-664.911 551.43,-456.088 559.082,-397.375"/>
<polygon fill="midnightblue" stroke="midnightblue" points="251.483,-744.441 241.099,-746.544 250.528,-751.376 251.483,-744.441"/>
</g>
<!-- Node12&#45;&gt;Node4 -->
<g id="edge18" class="edge"><title>Node12&#45;&gt;Node4</title>
<path fill="none" stroke="midnightblue" d="M222.756,-681.615C285.946,-703.407 399.071,-730.12 472,-676 518.68,-641.359 550.397,-452.519 558.785,-397.221"/>
<polygon fill="midnightblue" stroke="midnightblue" points="223.652,-678.219 213.057,-678.173 221.311,-684.816 223.652,-678.219"/>
</g>
<!-- Node13&#45;&gt;Node4 -->
<g id="edge20" class="edge"><title>Node13&#45;&gt;Node4</title>
<path fill="none" stroke="midnightblue" d="M468.549,-231.93C469.737,-232.909 470.889,-233.932 472,-235 512.757,-274.178 471.214,-314.072 508,-357 511.31,-360.863 515.349,-364.17 519.705,-366.992"/>
<polygon fill="midnightblue" stroke="midnightblue" points="470.423,-228.969 460.23,-226.082 466.398,-234.696 470.423,-228.969"/>
</g>
<!-- Node13&#45;&gt;Node7 -->
<g id="edge21" class="edge"><title>Node13&#45;&gt;Node7</title>
<path fill="none" stroke="midnightblue" d="M463.148,-230.233C466.193,-231.707 469.156,-233.293 472,-235 507.473,-256.286 537.062,-296.088 551.505,-317.845"/>
<polygon fill="midnightblue" stroke="midnightblue" points="464.359,-226.943 453.795,-226.14 461.553,-233.356 464.359,-226.943"/>
</g>
<!-- Node14&#45;&gt;Node4 -->
<g id="edge23" class="edge"><title>Node14&#45;&gt;Node4</title>
<path fill="none" stroke="midnightblue" d="M461.093,-177.097C465.052,-179.648 468.729,-182.596 472,-186 525.81,-242.004 459.845,-296.065 508,-357 511.028,-360.831 514.783,-364.105 518.888,-366.895"/>
<polygon fill="midnightblue" stroke="midnightblue" points="462.48,-173.866 452.029,-172.124 459.113,-180.003 462.48,-173.866"/>
</g>
<!-- Node14&#45;&gt;Node7 -->
<g id="edge24" class="edge"><title>Node14&#45;&gt;Node7</title>
<path fill="none" stroke="midnightblue" d="M461.222,-179.241C464.997,-181.252 468.615,-183.496 472,-186 518.77,-220.599 545.928,-287.78 556.215,-317.832"/>
<polygon fill="midnightblue" stroke="midnightblue" points="462.702,-176.069 452.166,-174.958 459.71,-182.397 462.702,-176.069"/>
</g>
<!-- Node15&#45;&gt;Node4 -->
<g id="edge26" class="edge"><title>Node15&#45;&gt;Node4</title>
<path fill="none" stroke="midnightblue" d="M440.168,-118.177C452.149,-121.909 463.557,-127.805 472,-137 539.01,-209.981 448.346,-277.894 508,-357 510.879,-360.818 514.487,-364.076 518.46,-366.852"/>
<polygon fill="midnightblue" stroke="midnightblue" points="441.045,-114.789 430.483,-115.626 439.262,-121.558 441.045,-114.789"/>
</g>
<!-- Node15&#45;&gt;Node7 -->
<g id="edge27" class="edge"><title>Node15&#45;&gt;Node7</title>
<path fill="none" stroke="midnightblue" d="M439.949,-120.459C451.518,-124.064 462.821,-129.331 472,-137 530.362,-185.761 552.177,-280.852 558.67,-317.804"/>
<polygon fill="midnightblue" stroke="midnightblue" points="440.779,-117.057 430.21,-117.805 438.938,-123.811 440.779,-117.057"/>
</g>
<!-- Node16&#45;&gt;Node4 -->
<g id="edge29" class="edge"><title>Node16&#45;&gt;Node4</title>
<path fill="none" stroke="midnightblue" d="M455.956,-75.502C461.954,-78.78 467.436,-82.8816 472,-88 552.276,-178.029 436.786,-259.644 508,-357 510.823,-360.859 514.396,-364.144 518.348,-366.936"/>
<polygon fill="midnightblue" stroke="midnightblue" points="457.389,-72.3086 446.845,-71.2661 454.437,-78.656 457.389,-72.3086"/>
</g>
<!-- Node16&#45;&gt;Node7 -->
<g id="edge30" class="edge"><title>Node16&#45;&gt;Node7</title>
<path fill="none" stroke="midnightblue" d="M456.182,-77.2798C461.91,-80.2011 467.279,-83.7333 472,-88 542.337,-151.57 557.157,-275.173 560.22,-317.979"/>
<polygon fill="midnightblue" stroke="midnightblue" points="457.488,-74.0303 446.927,-73.1744 454.649,-80.4289 457.488,-74.0303"/>
</g>
<!-- Node17&#45;&gt;Node4 -->
<g id="edge32" class="edge"><title>Node17&#45;&gt;Node4</title>
<path fill="none" stroke="midnightblue" d="M440.133,-19.7423C452.233,-23.487 463.699,-29.4977 472,-39 565.578,-146.118 425.195,-241.352 508,-357 510.724,-360.805 514.181,-364.05 518.019,-366.813"/>
<polygon fill="midnightblue" stroke="midnightblue" points="440.901,-16.3255 430.342,-17.2015 439.142,-23.1011 440.901,-16.3255"/>
</g>
<!-- Node17&#45;&gt;Node7 -->
<g id="edge33" class="edge"><title>Node17&#45;&gt;Node7</title>
<path fill="none" stroke="midnightblue" d="M440.014,-21.285C451.789,-24.964 463.156,-30.5576 472,-39 554.359,-117.616 561.248,-269.589 561.265,-317.882"/>
<polygon fill="midnightblue" stroke="midnightblue" points="440.638,-17.8288 430.073,-18.6244 438.828,-24.5908 440.638,-17.8288"/>
</g>
<!-- Node18&#45;&gt;Node4 -->
<g id="edge35" class="edge"><title>Node18&#45;&gt;Node4</title>
<path fill="none" stroke="midnightblue" d="M440.074,-644.507C451.737,-640.736 463.045,-635.174 472,-627 541.856,-563.236 556.97,-440.29 560.166,-397.294"/>
<polygon fill="midnightblue" stroke="midnightblue" points="438.917,-641.196 430.237,-647.271 440.811,-647.935 438.917,-641.196"/>
</g>
<!-- Node18&#45;&gt;Node7 -->
<g id="edge36" class="edge"><title>Node18&#45;&gt;Node7</title>
<path fill="none" stroke="midnightblue" d="M440.03,-646.435C452.136,-642.572 463.63,-636.485 472,-627 552.1,-536.226 435.793,-454.17 508,-357 510.53,-353.595 513.657,-350.661 517.116,-348.136"/>
<polygon fill="midnightblue" stroke="midnightblue" points="438.98,-643.093 430.238,-649.078 440.804,-649.851 438.98,-643.093"/>
</g>
<!-- Node19&#45;&gt;Node4 -->
<g id="edge38" class="edge"><title>Node19&#45;&gt;Node4</title>
<path fill="none" stroke="midnightblue" d="M443.302,-593.707C453.693,-590.05 463.717,-584.99 472,-578 530.121,-528.952 552.078,-434.03 558.639,-397.16"/>
<polygon fill="midnightblue" stroke="midnightblue" points="442.21,-590.382 433.696,-596.687 444.284,-597.067 442.21,-590.382"/>
</g>
<!-- Node19&#45;&gt;Node7 -->
<g id="edge39" class="edge"><title>Node19&#45;&gt;Node7</title>
<path fill="none" stroke="midnightblue" d="M443.555,-595.986C454.295,-592.117 464.372,-586.396 472,-578 538.917,-504.341 447.494,-436.01 508,-357 510.579,-353.632 513.739,-350.723 517.219,-348.213"/>
<polygon fill="midnightblue" stroke="midnightblue" points="442.52,-592.643 433.993,-598.93 444.58,-599.333 442.52,-592.643"/>
</g>
<!-- Node20&#45;&gt;Node4 -->
<g id="edge41" class="edge"><title>Node20&#45;&gt;Node4</title>
<path fill="none" stroke="midnightblue" d="M457.351,-537.838C462.53,-535.308 467.475,-532.382 472,-529 518.598,-494.171 545.846,-427.11 556.186,-397.129"/>
<polygon fill="midnightblue" stroke="midnightblue" points="455.592,-534.786 447.813,-541.979 458.379,-541.207 455.592,-534.786"/>
</g>
<!-- Node20&#45;&gt;Node7 -->
<g id="edge42" class="edge"><title>Node20&#45;&gt;Node7</title>
<path fill="none" stroke="midnightblue" d="M456.896,-540.561C462.467,-537.431 467.606,-533.625 472,-529 525.8,-472.384 459.137,-417.927 508,-357 510.717,-353.612 514.017,-350.685 517.627,-348.159"/>
<polygon fill="midnightblue" stroke="midnightblue" points="455.311,-537.439 447.829,-544.941 458.356,-543.742 455.311,-537.439"/>
</g>
<!-- Node21&#45;&gt;Node4 -->
<g id="edge44" class="edge"><title>Node21&#45;&gt;Node4</title>
<path fill="none" stroke="midnightblue" d="M445.568,-492.08C454.806,-488.89 463.884,-484.925 472,-480 507.367,-458.539 537,-418.808 551.477,-397.109"/>
<polygon fill="midnightblue" stroke="midnightblue" points="444.396,-488.779 435.917,-495.131 446.507,-495.454 444.396,-488.779"/>
</g>
<!-- Node21&#45;&gt;Node7 -->
<g id="edge45" class="edge"><title>Node21&#45;&gt;Node7</title>
<path fill="none" stroke="midnightblue" d="M445.225,-496.28C455.13,-492.537 464.497,-487.3 472,-480 512.825,-440.279 470.649,-400.004 508,-357 510.981,-353.568 514.551,-350.601 518.412,-348.042"/>
<polygon fill="midnightblue" stroke="midnightblue" points="444.02,-492.991 435.606,-499.43 446.199,-499.644 444.02,-492.991"/>
</g>
<!-- Node22&#45;&gt;Node4 -->
<g id="edge47" class="edge"><title>Node22&#45;&gt;Node4</title>
<path fill="none" stroke="midnightblue" d="M457.556,-327.273C462.505,-329.033 467.357,-330.939 472,-333 489.576,-340.801 491.259,-347.539 508,-357 514.111,-360.454 520.779,-363.862 527.258,-366.998"/>
<polygon fill="midnightblue" stroke="midnightblue" points="458.541,-323.912 447.947,-324.066 456.325,-330.552 458.541,-323.912"/>
</g>
<!-- Node22&#45;&gt;Node7 -->
<g id="edge48" class="edge"><title>Node22&#45;&gt;Node7</title>
<path fill="none" stroke="midnightblue" d="M458.46,-319.625C475.166,-321.804 492.342,-324.045 507.745,-326.054"/>
<polygon fill="midnightblue" stroke="midnightblue" points="458.508,-316.102 448.139,-318.279 457.602,-323.043 458.508,-316.102"/>
</g>
<!-- Node23&#45;&gt;Node4 -->
<g id="edge50" class="edge"><title>Node23&#45;&gt;Node4</title>
<path fill="none" stroke="midnightblue" d="M439.758,-267.691C451.342,-271.278 462.7,-276.479 472,-284 500.128,-306.748 482.199,-331.644 508,-357 511.846,-360.779 516.371,-364.065 521.129,-366.9"/>
<polygon fill="midnightblue" stroke="midnightblue" points="440.583,-264.289 430.015,-265.043 438.746,-271.044 440.583,-264.289"/>
</g>
<!-- Node23&#45;&gt;Node7 -->
<g id="edge51" class="edge"><title>Node23&#45;&gt;Node7</title>
<path fill="none" stroke="midnightblue" d="M439.905,-273.471C450.761,-276.479 461.821,-279.989 472,-284 495.303,-293.182 520.137,-307.254 537.635,-317.966"/>
<polygon fill="midnightblue" stroke="midnightblue" points="440.587,-270.03 430.023,-270.849 438.792,-276.796 440.587,-270.03"/>
</g>
</g>
</svg>
        <g id="navigator" transform="translate(0 0)" fill="#404254">
                <rect fill="#f2f5e9" fill-opacity="0.5" stroke="#606060" stroke-width=".5" x="0" y="0" width="60" height="60"/>
                <use id="zoomplus" xlink:href="#zoomPlus" x="17" y="9" onmousedown="handleZoom(evt,'in')"/>
                <use id="zoomminus" xlink:href="#zoomMin" x="42" y="9" onmousedown="handleZoom(evt,'out')"/>
                <use id="reset" xlink:href="#resetDef" x="30" y="36" onmousedown="handleReset()"/>
                <g id="arrowUp" xlink:href="#dirArrow" transform="translate(30 24)" onmousedown="handlePan(0,-1)">
                  <use xlink:href="#rim" fill="#404040">
                        <set attributeName="fill" to="#808080" begin="arrowUp.mouseover" end="arrowUp.mouseout"/>
                  </use>
                  <path fill="none" stroke="white" stroke-width="1.5" d="M0,-3.0v7 M-2.5,-0.5L0,-3.0L2.5,-0.5"/>
                </g>
                <g id="arrowRight" xlink:href="#dirArrow" transform="rotate(90) translate(36 -43)" onmousedown="handlePan(1,0)">
                  <use xlink:href="#rim" fill="#404040">
                        <set attributeName="fill" to="#808080" begin="arrowRight.mouseover" end="arrowRight.mouseout"/>
                  </use>
                  <path fill="none" stroke="white" stroke-width="1.5" d="M0,-3.0v7 M-2.5,-0.5L0,-3.0L2.5,-0.5"/>
                </g>
                <g id="arrowDown" xlink:href="#dirArrow" transform="rotate(180) translate(-30 -48)" onmousedown="handlePan(0,1)">
                  <use xlink:href="#rim" fill="#404040">
                        <set attributeName="fill" to="#808080" begin="arrowDown.mouseover" end="arrowDown.mouseout"/>
                  </use>
                  <path fill="none" stroke="white" stroke-width="1.5" d="M0,-3.0v7 M-2.5,-0.5L0,-3.0L2.5,-0.5"/>
                </g>
                <g id="arrowLeft" xlink:href="#dirArrow" transform="rotate(270) translate(-36 17)" onmousedown="handlePan(-1,0)">
                  <use xlink:href="#rim" fill="#404040">
                        <set attributeName="fill" to="#808080" begin="arrowLeft.mouseover" end="arrowLeft.mouseout"/>
                  </use>
                  <path fill="none" stroke="white" stroke-width="1.5" d="M0,-3.0v7 M-2.5,-0.5L0,-3.0L2.5,-0.5"/>
                </g>
        </g>
        <svg viewBox="0 0 15 15" width="100%" height="30px" preserveAspectRatio="xMaxYMin meet">
         <g id="arrow_out" transform="scale(0.3 0.3)">
          <a xlink:href="classICED_1_1HalfCell_1_1DeviceData_ac62391584f55efe6bd7916ebf7d2e92b_icgraph_org.svg" target="_base">
           <rect id="button" ry="5" rx="5" y="6" x="6" height="38" width="38"
                fill="#f2f5e9" fill-opacity="0.5" stroke="#606060" stroke-width="1.0"/>
           <path id="arrow"
             d="M 11.500037,31.436501 C 11.940474,20.09759 22.043105,11.32322 32.158766,21.979434 L 37.068811,17.246167 C 37.068811,17.246167 37.088388,32 37.088388,32 L 22.160133,31.978069 C 22.160133,31.978069 26.997745,27.140456 26.997745,27.140456 C 18.528582,18.264221 13.291696,25.230495 11.500037,31.436501 z"
             style="fill:#404040;"/>
          </a>
         </g>
        </svg>
</svg>
