<?xml version="1.0" encoding="UTF-8" standalone="no"?>
<!DOCTYPE svg PUBLIC "-//W3C//DTD SVG 1.1//EN"
 "http://www.w3.org/Graphics/SVG/1.1/DTD/svg11.dtd">
<!-- Generated by graphviz version 2.30.1 (20150305.2338)
 -->
<!-- Title: SetData Pages: 1 -->
<svg width="1002pt" height="761pt"
 viewBox="0.00 0.00 1002.00 760.54" xmlns="http://www.w3.org/2000/svg" xmlns:xlink="http://www.w3.org/1999/xlink">
<g id="graph0" class="graph" transform="scale(1 1) rotate(0) translate(4 756.541)">
<title>SetData</title>
<!-- Node1 -->
<g id="node1" class="node"><title>Node1</title>
<polygon fill="#bfbfbf" stroke="black" points="0.5,-367.5 0.5,-386.5 53.5,-386.5 53.5,-367.5 0.5,-367.5"/>
<text text-anchor="middle" x="27" y="-374.5" font-family="Helvetica,sans-Serif" font-size="10.00">SetData</text>
</g>
<!-- Node2 -->
<g id="node2" class="node"><title>Node2</title>
<g id="a_node2"><a xlink:href="classICED_1_1HalfCell_1_1DeviceData.html#ac62391584f55efe6bd7916ebf7d2e92b" target="_top" xlink:title="Initialization of the entire device data structure. ">
<polygon fill="none" stroke="black" points="90,-362 90,-392 230,-392 230,-362 90,-362"/>
<text text-anchor="start" x="98" y="-380" font-family="Helvetica,sans-Serif" font-size="10.00">ICED::HalfCell::DeviceData</text>
<text text-anchor="middle" x="160" y="-369" font-family="Helvetica,sans-Serif" font-size="10.00">::BuildDevice</text>
</a>
</g>
</g>
<!-- Node1&#45;&gt;Node2 -->
<g id="edge1" class="edge"><title>Node1&#45;&gt;Node2</title>
<path fill="none" stroke="midnightblue" d="M63.8007,-377C71.9707,-377 80.9228,-377 89.965,-377"/>
<polygon fill="midnightblue" stroke="midnightblue" points="63.5691,-373.5 53.5691,-377 63.5691,-380.5 63.5691,-373.5"/>
</g>
<!-- Node3 -->
<g id="node3" class="node"><title>Node3</title>
<g id="a_node3"><a xlink:href="classICED_1_1TestingObject.html#a7995a39337d2ec045b02982b1b346b28" target="_top" xlink:title="Function called by Test__Intercalation. ">
<polygon fill="none" stroke="black" points="272.5,-425 272.5,-455 397.5,-455 397.5,-425 272.5,-425"/>
<text text-anchor="start" x="280.5" y="-443" font-family="Helvetica,sans-Serif" font-size="10.00">ICED::TestingObject</text>
<text text-anchor="middle" x="335" y="-432" font-family="Helvetica,sans-Serif" font-size="10.00">::RunIntercalationModule</text>
</a>
</g>
</g>
<!-- Node2&#45;&gt;Node3 -->
<g id="edge2" class="edge"><title>Node2&#45;&gt;Node3</title>
<path fill="none" stroke="midnightblue" d="M212.007,-395.575C237.685,-404.926 268.41,-416.114 292.601,-424.924"/>
<polygon fill="midnightblue" stroke="midnightblue" points="213.032,-392.223 202.438,-392.09 210.637,-398.801 213.032,-392.223"/>
</g>
<!-- Node10 -->
<g id="node10" class="node"><title>Node10</title>
<g id="a_node10"><a xlink:href="classICED_1_1TestingObject.html#aea517fa85afb367c872ce72c26a0d643" target="_top" xlink:title="Test for ICED::ActivitCoefficient module. ">
<polygon fill="none" stroke="black" points="469.5,-392 469.5,-422 602.5,-422 602.5,-392 469.5,-392"/>
<text text-anchor="start" x="477.5" y="-410" font-family="Helvetica,sans-Serif" font-size="10.00">ICED::TestingObject</text>
<text text-anchor="middle" x="536" y="-399" font-family="Helvetica,sans-Serif" font-size="10.00">::Test__ActivityCoefficient</text>
</a>
</g>
</g>
<!-- Node2&#45;&gt;Node10 -->
<g id="edge10" class="edge"><title>Node2&#45;&gt;Node10</title>
<path fill="none" stroke="midnightblue" d="M240.28,-383.359C308.357,-388.82 405.335,-396.599 469.192,-401.721"/>
<polygon fill="midnightblue" stroke="midnightblue" points="240.281,-379.848 230.033,-382.537 239.721,-386.826 240.281,-379.848"/>
</g>
<!-- Node11 -->
<g id="node11" class="node"><title>Node11</title>
<g id="a_node11"><a xlink:href="classICED_1_1TestingObject.html#a2f898efd73e9aaf601f0733cb31fc340" target="_top" xlink:title="Test for ICED::ButlerVolmer. ">
<polygon fill="none" stroke="black" points="481.5,-343 481.5,-373 590.5,-373 590.5,-343 481.5,-343"/>
<text text-anchor="start" x="489.5" y="-361" font-family="Helvetica,sans-Serif" font-size="10.00">ICED::TestingObject</text>
<text text-anchor="middle" x="536" y="-350" font-family="Helvetica,sans-Serif" font-size="10.00">::Test__ButlerVolmer</text>
</a>
</g>
</g>
<!-- Node2&#45;&gt;Node11 -->
<g id="edge13" class="edge"><title>Node2&#45;&gt;Node11</title>
<path fill="none" stroke="midnightblue" d="M240.053,-372.984C312.672,-369.295 418.319,-363.928 481.496,-360.718"/>
<polygon fill="midnightblue" stroke="midnightblue" points="239.843,-369.49 230.033,-373.493 240.198,-376.481 239.843,-369.49"/>
</g>
<!-- Node12 -->
<g id="node12" class="node"><title>Node12</title>
<g id="a_node12"><a xlink:href="classICED_1_1TestingObject.html#a7bac98c894f8cfff372d495eae083cd5" target="_top" xlink:title="Tests the input file error checking functions using testModule and a generated &quot;bad&quot; input file...">
<polygon fill="none" stroke="black" points="269,-718 269,-748 401,-748 401,-718 269,-718"/>
<text text-anchor="start" x="277" y="-736" font-family="Helvetica,sans-Serif" font-size="10.00">ICED::TestingObject</text>
<text text-anchor="middle" x="335" y="-725" font-family="Helvetica,sans-Serif" font-size="10.00">::Test__CheckParamsBad</text>
</a>
</g>
</g>
<!-- Node2&#45;&gt;Node12 -->
<g id="edge16" class="edge"><title>Node2&#45;&gt;Node12</title>
<path fill="none" stroke="midnightblue" d="M164.021,-402.302C171.851,-458.681 197.212,-596.76 266,-687 275.764,-699.809 290.157,-710.273 303.191,-717.966"/>
<polygon fill="midnightblue" stroke="midnightblue" points="167.461,-401.609 162.682,-392.153 160.521,-402.525 167.461,-401.609"/>
</g>
<!-- Node13 -->
<g id="node13" class="node"><title>Node13</title>
<g id="a_node13"><a xlink:href="classICED_1_1TestingObject.html#afedc7e682315a3e766d614e09631ab04" target="_top" xlink:title="Tests the input file error checking functions using testModule and a generated &quot;good&quot; input file...">
<polygon fill="none" stroke="black" points="266,-648 266,-678 404,-678 404,-648 266,-648"/>
<text text-anchor="start" x="274" y="-666" font-family="Helvetica,sans-Serif" font-size="10.00">ICED::TestingObject</text>
<text text-anchor="middle" x="335" y="-655" font-family="Helvetica,sans-Serif" font-size="10.00">::Test__CheckParamsGood</text>
</a>
</g>
</g>
<!-- Node2&#45;&gt;Node13 -->
<g id="edge18" class="edge"><title>Node2&#45;&gt;Node13</title>
<path fill="none" stroke="midnightblue" d="M166.305,-402.04C177.477,-449.698 207.367,-554.682 266,-622 275.235,-632.603 287.906,-641.266 299.809,-647.851"/>
<polygon fill="midnightblue" stroke="midnightblue" points="169.711,-401.232 164.087,-392.252 162.884,-402.778 169.711,-401.232"/>
</g>
<!-- Node14 -->
<g id="node14" class="node"><title>Node14</title>
<g id="a_node14"><a xlink:href="classICED_1_1TestingObject.html#a8218a8aab213585d0fba3f2e1aa24b76" target="_top" xlink:title="Test for ICED::ComponentBoundaryConditions. ">
<polygon fill="none" stroke="black" points="440.5,-196 440.5,-226 631.5,-226 631.5,-196 440.5,-196"/>
<text text-anchor="start" x="448.5" y="-214" font-family="Helvetica,sans-Serif" font-size="10.00">ICED::TestingObject</text>
<text text-anchor="middle" x="536" y="-203" font-family="Helvetica,sans-Serif" font-size="10.00">::Test__ComponentBoundaryConditions</text>
</a>
</g>
</g>
<!-- Node2&#45;&gt;Node14 -->
<g id="edge20" class="edge"><title>Node2&#45;&gt;Node14</title>
<path fill="none" stroke="midnightblue" d="M182.296,-354.685C202.259,-334.925 233.782,-306.569 266,-289 323.205,-257.806 394.226,-237.897 448.926,-226.006"/>
<polygon fill="midnightblue" stroke="midnightblue" points="179.797,-352.234 175.234,-361.796 184.764,-357.167 179.797,-352.234"/>
</g>
<!-- Node15 -->
<g id="node15" class="node"><title>Node15</title>
<g id="a_node15"><a xlink:href="classICED_1_1TestingObject.html#a96409144efe94cf3e37a534e524c6e36" target="_top" xlink:title="Test for ICED::ConcentrationDiffusion. ">
<polygon fill="none" stroke="black" points="460,-147 460,-177 612,-177 612,-147 460,-147"/>
<text text-anchor="start" x="468" y="-165" font-family="Helvetica,sans-Serif" font-size="10.00">ICED::TestingObject</text>
<text text-anchor="middle" x="536" y="-154" font-family="Helvetica,sans-Serif" font-size="10.00">::Test__ConcentrationDiffusion</text>
</a>
</g>
</g>
<!-- Node2&#45;&gt;Node15 -->
<g id="edge23" class="edge"><title>Node2&#45;&gt;Node15</title>
<path fill="none" stroke="midnightblue" d="M172.327,-352.742C188.542,-320.693 221.409,-264.723 266,-234 323.825,-194.159 402.63,-176.349 459.992,-168.397"/>
<polygon fill="midnightblue" stroke="midnightblue" points="169.112,-351.348 167.835,-361.865 175.392,-354.44 169.112,-351.348"/>
</g>
<!-- Node16 -->
<g id="node16" class="node"><title>Node16</title>
<g id="a_node16"><a xlink:href="classICED_1_1TestingObject.html#a20a3def5cfb0861690599ae120367987" target="_top" xlink:title="Test for ICED::DeviceData. ">
<polygon fill="none" stroke="black" points="482,-98 482,-128 590,-128 590,-98 482,-98"/>
<text text-anchor="start" x="490" y="-116" font-family="Helvetica,sans-Serif" font-size="10.00">ICED::TestingObject</text>
<text text-anchor="middle" x="536" y="-105" font-family="Helvetica,sans-Serif" font-size="10.00">::Test__DeviceData</text>
</a>
</g>
</g>
<!-- Node2&#45;&gt;Node16 -->
<g id="edge26" class="edge"><title>Node2&#45;&gt;Node16</title>
<path fill="none" stroke="midnightblue" d="M166.815,-351.95C178.14,-308.986 207.353,-221.491 266,-176 328.914,-127.2 423.343,-115.198 481.963,-112.79"/>
<polygon fill="midnightblue" stroke="midnightblue" points="163.368,-351.308 164.315,-361.861 170.155,-353.021 163.368,-351.308"/>
</g>
<!-- Node17 -->
<g id="node17" class="node"><title>Node17</title>
<g id="a_node17"><a xlink:href="classICED_1_1TestingObject.html#a43dbcae20e4ab6f8b30751e9b5e5b2c2" target="_top" xlink:title="Test for ICED::DeviceDataMapping. ">
<polygon fill="none" stroke="black" points="465.5,-49 465.5,-79 606.5,-79 606.5,-49 465.5,-49"/>
<text text-anchor="start" x="473.5" y="-67" font-family="Helvetica,sans-Serif" font-size="10.00">ICED::TestingObject</text>
<text text-anchor="middle" x="536" y="-56" font-family="Helvetica,sans-Serif" font-size="10.00">::Test__DeviceDataMapping</text>
</a>
</g>
</g>
<!-- Node2&#45;&gt;Node17 -->
<g id="edge29" class="edge"><title>Node2&#45;&gt;Node17</title>
<path fill="none" stroke="midnightblue" d="M163.433,-351.778C169.897,-299.468 192.4,-178.977 266,-118 321.753,-71.8087 406.133,-61.4324 465.489,-60.6251"/>
<polygon fill="midnightblue" stroke="midnightblue" points="159.939,-351.528 162.285,-361.859 166.894,-352.32 159.939,-351.528"/>
</g>
<!-- Node18 -->
<g id="node18" class="node"><title>Node18</title>
<g id="a_node18"><a xlink:href="classICED_1_1TestingObject.html#a06cf16fc934c4e87f6886a7beb771b0e" target="_top" xlink:title="Test for ICED::Diffusion module. ">
<polygon fill="none" stroke="black" points="482,-0 482,-30 590,-30 590,-0 482,-0"/>
<text text-anchor="start" x="490" y="-18" font-family="Helvetica,sans-Serif" font-size="10.00">ICED::TestingObject</text>
<text text-anchor="middle" x="536" y="-7" font-family="Helvetica,sans-Serif" font-size="10.00">::Test__Diffusion</text>
</a>
</g>
</g>
<!-- Node2&#45;&gt;Node18 -->
<g id="edge32" class="edge"><title>Node2&#45;&gt;Node18</title>
<path fill="none" stroke="midnightblue" d="M161.241,-351.793C163.28,-291.501 177.389,-138.32 266,-62 325.989,-10.3318 422.185,-6.07353 481.82,-9.35753"/>
<polygon fill="midnightblue" stroke="midnightblue" points="157.738,-351.845 160.985,-361.93 164.736,-352.021 157.738,-351.845"/>
</g>
<!-- Node19 -->
<g id="node19" class="node"><title>Node19</title>
<g id="a_node19"><a xlink:href="classICED_1_1TestingObject.html#af46c6cb015fb4151707a8c08084f4525" target="_top" xlink:title="Test for ICED::IonMigration module. ">
<polygon fill="none" stroke="black" points="482,-637 482,-667 590,-667 590,-637 482,-637"/>
<text text-anchor="start" x="490" y="-655" font-family="Helvetica,sans-Serif" font-size="10.00">ICED::TestingObject</text>
<text text-anchor="middle" x="536" y="-644" font-family="Helvetica,sans-Serif" font-size="10.00">::Test__IonMigration</text>
</a>
</g>
</g>
<!-- Node2&#45;&gt;Node19 -->
<g id="edge35" class="edge"><title>Node2&#45;&gt;Node19</title>
<path fill="none" stroke="midnightblue" d="M167.456,-401.782C179.608,-443.524 209.85,-527.81 266,-574 328.336,-625.279 422.937,-642.852 481.748,-648.871"/>
<polygon fill="midnightblue" stroke="midnightblue" points="170.821,-400.82 164.752,-392.136 164.081,-402.709 170.821,-400.82"/>
</g>
<!-- Node20 -->
<g id="node20" class="node"><title>Node20</title>
<g id="a_node20"><a xlink:href="classICED_1_1TestingObject.html#a263e8cc9d4d10cb3b749c8946ebcae72" target="_top" xlink:title="Test for ICED::DeviceComponent. ">
<polygon fill="none" stroke="black" points="478.5,-588 478.5,-618 593.5,-618 593.5,-588 478.5,-588"/>
<text text-anchor="start" x="486.5" y="-606" font-family="Helvetica,sans-Serif" font-size="10.00">ICED::TestingObject</text>
<text text-anchor="middle" x="536" y="-595" font-family="Helvetica,sans-Serif" font-size="10.00">::Test__ModulePriority</text>
</a>
</g>
</g>
<!-- Node2&#45;&gt;Node20 -->
<g id="edge38" class="edge"><title>Node2&#45;&gt;Node20</title>
<path fill="none" stroke="midnightblue" d="M170.766,-401.505C185.873,-436.195 218.239,-499.157 266,-533 329.687,-578.128 420.284,-594.175 478.36,-599.873"/>
<polygon fill="midnightblue" stroke="midnightblue" points="173.915,-399.963 166.799,-392.114 167.466,-402.687 173.915,-399.963"/>
</g>
<!-- Node21 -->
<g id="node21" class="node"><title>Node21</title>
<g id="a_node21"><a xlink:href="classICED_1_1TestingObject.html#a4f825a89973b92c36e2fe2cbe6a653a0" target="_top" xlink:title="Test for ICED::OhmsLawElectrolyte. ">
<polygon fill="none" stroke="black" points="464.5,-539 464.5,-569 607.5,-569 607.5,-539 464.5,-539"/>
<text text-anchor="start" x="472.5" y="-557" font-family="Helvetica,sans-Serif" font-size="10.00">ICED::TestingObject</text>
<text text-anchor="middle" x="536" y="-546" font-family="Helvetica,sans-Serif" font-size="10.00">::Test__OhmsLawElectrolyte</text>
</a>
</g>
</g>
<!-- Node2&#45;&gt;Node21 -->
<g id="edge41" class="edge"><title>Node2&#45;&gt;Node21</title>
<path fill="none" stroke="midnightblue" d="M175.248,-400.778C192.972,-428.186 225.849,-472.47 266,-496 327.003,-531.75 407.379,-545.549 464.338,-550.83"/>
<polygon fill="midnightblue" stroke="midnightblue" points="178.124,-398.777 169.83,-392.185 172.203,-402.51 178.124,-398.777"/>
</g>
<!-- Node22 -->
<g id="node22" class="node"><title>Node22</title>
<g id="a_node22"><a xlink:href="classICED_1_1TestingObject.html#ab656a16700e242a40e0b21d7693a6ae0" target="_top" xlink:title="Test for ICED::OhmsLawSolid. ">
<polygon fill="none" stroke="black" points="476.5,-490 476.5,-520 595.5,-520 595.5,-490 476.5,-490"/>
<text text-anchor="start" x="484.5" y="-508" font-family="Helvetica,sans-Serif" font-size="10.00">ICED::TestingObject</text>
<text text-anchor="middle" x="536" y="-497" font-family="Helvetica,sans-Serif" font-size="10.00">::Test__OhmsLawSolid</text>
</a>
</g>
</g>
<!-- Node2&#45;&gt;Node22 -->
<g id="edge44" class="edge"><title>Node2&#45;&gt;Node22</title>
<path fill="none" stroke="midnightblue" d="M181.099,-399.512C200.658,-419.864 232.289,-448.882 266,-464 333.889,-494.447 420.063,-502.949 476.326,-504.984"/>
<polygon fill="midnightblue" stroke="midnightblue" points="183.613,-397.075 174.215,-392.183 178.511,-401.868 183.613,-397.075"/>
</g>
<!-- Node23 -->
<g id="node23" class="node"><title>Node23</title>
<g id="a_node23"><a xlink:href="classICED_1_1TestingObject.html#aacdc6512e5ce8094c62997f4d1f02634" target="_top" xlink:title="Test for ICED::TransferenceNumber. ">
<polygon fill="none" stroke="black" points="464,-294 464,-324 608,-324 608,-294 464,-294"/>
<text text-anchor="start" x="472" y="-312" font-family="Helvetica,sans-Serif" font-size="10.00">ICED::TestingObject</text>
<text text-anchor="middle" x="536" y="-301" font-family="Helvetica,sans-Serif" font-size="10.00">::Test__TransferenceNumber</text>
</a>
</g>
</g>
<!-- Node2&#45;&gt;Node23 -->
<g id="edge47" class="edge"><title>Node2&#45;&gt;Node23</title>
<path fill="none" stroke="midnightblue" d="M240.005,-362.635C306.217,-350.597 399.911,-333.562 463.826,-321.941"/>
<polygon fill="midnightblue" stroke="midnightblue" points="239.246,-359.216 230.033,-364.449 240.498,-366.103 239.246,-359.216"/>
</g>
<!-- Node24 -->
<g id="node24" class="node"><title>Node24</title>
<g id="a_node24"><a xlink:href="classICED_1_1TestingObject.html#a9bbc638a5bd612413bdd4c03b6c66d0c" target="_top" xlink:title="Test for ICED::wallFlux. ">
<polygon fill="none" stroke="black" points="482,-245 482,-275 590,-275 590,-245 482,-245"/>
<text text-anchor="start" x="490" y="-263" font-family="Helvetica,sans-Serif" font-size="10.00">ICED::TestingObject</text>
<text text-anchor="middle" x="536" y="-252" font-family="Helvetica,sans-Serif" font-size="10.00">::Test__WallFlux</text>
</a>
</g>
</g>
<!-- Node2&#45;&gt;Node24 -->
<g id="edge50" class="edge"><title>Node2&#45;&gt;Node24</title>
<path fill="none" stroke="midnightblue" d="M199.491,-357.432C219.067,-347.991 243.435,-337.006 266,-329 341.28,-302.292 362.611,-303.783 440,-284 453.515,-280.545 468.118,-276.841 481.727,-273.402"/>
<polygon fill="midnightblue" stroke="midnightblue" points="197.745,-354.39 190.296,-361.924 200.817,-360.68 197.745,-354.39"/>
</g>
<!-- Node4 -->
<g id="node4" class="node"><title>Node4</title>
<g id="a_node4"><a xlink:href="classICED_1_1TestingObject.html#adcd8b620aa1ea5a579a671ac15b5620b" target="_top" xlink:title="Test for ICED::Intercalation. ">
<polygon fill="none" stroke="black" points="482,-441 482,-471 590,-471 590,-441 482,-441"/>
<text text-anchor="start" x="490" y="-459" font-family="Helvetica,sans-Serif" font-size="10.00">ICED::TestingObject</text>
<text text-anchor="middle" x="536" y="-448" font-family="Helvetica,sans-Serif" font-size="10.00">::Test__Intercalation</text>
</a>
</g>
</g>
<!-- Node3&#45;&gt;Node4 -->
<g id="edge3" class="edge"><title>Node3&#45;&gt;Node4</title>
<path fill="none" stroke="midnightblue" d="M407.889,-445.78C432.281,-447.741 459.077,-449.896 481.751,-451.719"/>
<polygon fill="midnightblue" stroke="midnightblue" points="407.85,-442.266 397.602,-444.953 407.289,-449.243 407.85,-442.266"/>
</g>
<!-- Node5 -->
<g id="node5" class="node"><title>Node5</title>
<g id="a_node5"><a xlink:href="classICED_1_1TestingObject.html#a046f7ab06db0acf616b0d2bf3d3146aa" target="_top" xlink:title="Runs all tests implemented by the ICED::TestingObject. ">
<polygon fill="none" stroke="black" points="668,-367 668,-397 776,-397 776,-367 668,-367"/>
<text text-anchor="start" x="676" y="-385" font-family="Helvetica,sans-Serif" font-size="10.00">ICED::TestingObject</text>
<text text-anchor="middle" x="722" y="-374" font-family="Helvetica,sans-Serif" font-size="10.00">::Process</text>
</a>
</g>
</g>
<!-- Node4&#45;&gt;Node5 -->
<g id="edge4" class="edge"><title>Node4&#45;&gt;Node5</title>
<path fill="none" stroke="midnightblue" d="M599.895,-441.789C610.752,-438.675 621.815,-435.071 632,-431 655.093,-421.768 679.747,-407.841 697.236,-397.192"/>
<polygon fill="midnightblue" stroke="midnightblue" points="598.725,-438.481 590.013,-444.51 600.583,-445.229 598.725,-438.481"/>
</g>
<!-- Node8 -->
<g id="node8" class="node"><title>Node8</title>
<g id="a_node8"><a xlink:href="classICED_1_1TestingObject.html#af1f07f14b9af7708e4264bb38937eed2" target="_top" xlink:title="Runs a test specified by name. ">
<polygon fill="none" stroke="black" points="668,-318 668,-348 776,-348 776,-318 668,-318"/>
<text text-anchor="start" x="676" y="-336" font-family="Helvetica,sans-Serif" font-size="10.00">ICED::TestingObject</text>
<text text-anchor="middle" x="722" y="-325" font-family="Helvetica,sans-Serif" font-size="10.00">::RunTest</text>
</a>
</g>
</g>
<!-- Node4&#45;&gt;Node8 -->
<g id="edge7" class="edge"><title>Node4&#45;&gt;Node8</title>
<path fill="none" stroke="midnightblue" d="M599.812,-447.635C611.391,-443.928 622.734,-438.611 632,-431 660.262,-407.785 641.784,-382.503 668,-357 671.475,-353.619 675.511,-350.663 679.774,-348.09"/>
<polygon fill="midnightblue" stroke="midnightblue" points="598.742,-444.301 590.07,-450.387 600.645,-451.037 598.742,-444.301"/>
</g>
<!-- Node6 -->
<g id="node6" class="node"><title>Node6</title>
<g id="a_node6"><a xlink:href="namespaceICED.html#acf52cefdb153ca8751acb1e183d3a405" target="_top" xlink:title="Drives the ICED::TestObject. ">
<polygon fill="none" stroke="black" points="832.5,-369.5 832.5,-388.5 899.5,-388.5 899.5,-369.5 832.5,-369.5"/>
<text text-anchor="middle" x="866" y="-376.5" font-family="Helvetica,sans-Serif" font-size="10.00">ICED::Test</text>
</a>
</g>
</g>
<!-- Node5&#45;&gt;Node6 -->
<g id="edge5" class="edge"><title>Node5&#45;&gt;Node6</title>
<path fill="none" stroke="midnightblue" d="M786.6,-380.656C802.467,-380.321 818.831,-379.975 832.478,-379.687"/>
<polygon fill="midnightblue" stroke="midnightblue" points="786.203,-377.164 776.28,-380.874 786.351,-384.162 786.203,-377.164"/>
</g>
<!-- Node7 -->
<g id="node7" class="node"><title>Node7</title>
<g id="a_node7"><a xlink:href="TestICED_8C.html#a0ddf1224851353fc92bfbff6f499fa97" target="_top" xlink:title="main">
<polygon fill="none" stroke="black" points="956,-369.5 956,-388.5 994,-388.5 994,-369.5 956,-369.5"/>
<text text-anchor="middle" x="975" y="-376.5" font-family="Helvetica,sans-Serif" font-size="10.00">main</text>
</a>
</g>
</g>
<!-- Node6&#45;&gt;Node7 -->
<g id="edge6" class="edge"><title>Node6&#45;&gt;Node7</title>
<path fill="none" stroke="midnightblue" d="M909.939,-379C925.927,-379 943.225,-379 955.811,-379"/>
<polygon fill="midnightblue" stroke="midnightblue" points="909.685,-375.5 899.685,-379 909.685,-382.5 909.685,-375.5"/>
</g>
<!-- Node9 -->
<g id="node9" class="node"><title>Node9</title>
<g id="a_node9"><a xlink:href="classICED_1_1TestingObject.html#a21159bd2efac623e5a5079f6a20f3444" target="_top" xlink:title="Runs a list of tests specified by name. ">
<polygon fill="none" stroke="black" points="812,-318 812,-348 920,-348 920,-318 812,-318"/>
<text text-anchor="start" x="820" y="-336" font-family="Helvetica,sans-Serif" font-size="10.00">ICED::TestingObject</text>
<text text-anchor="middle" x="866" y="-325" font-family="Helvetica,sans-Serif" font-size="10.00">::ProcessTests</text>
</a>
</g>
</g>
<!-- Node8&#45;&gt;Node9 -->
<g id="edge8" class="edge"><title>Node8&#45;&gt;Node9</title>
<path fill="none" stroke="midnightblue" d="M786.517,-333C794.996,-333 803.618,-333 811.894,-333"/>
<polygon fill="midnightblue" stroke="midnightblue" points="786.28,-329.5 776.28,-333 786.28,-336.5 786.28,-329.5"/>
</g>
<!-- Node8&#45;&gt;Node6 -->
<g id="edge9" class="edge"><title>Node8&#45;&gt;Node6</title>
<path fill="none" stroke="midnightblue" d="M779.084,-351.168C798.316,-357.398 819.077,-364.124 835.373,-369.402"/>
<polygon fill="midnightblue" stroke="midnightblue" points="780.088,-347.814 769.496,-348.062 777.931,-354.474 780.088,-347.814"/>
</g>
<!-- Node10&#45;&gt;Node5 -->
<g id="edge11" class="edge"><title>Node10&#45;&gt;Node5</title>
<path fill="none" stroke="midnightblue" d="M612.795,-396.702C631.261,-394.193 650.625,-391.562 667.786,-389.23"/>
<polygon fill="midnightblue" stroke="midnightblue" points="612.087,-393.266 602.649,-398.08 613.029,-400.202 612.087,-393.266"/>
</g>
<!-- Node10&#45;&gt;Node8 -->
<g id="edge12" class="edge"><title>Node10&#45;&gt;Node8</title>
<path fill="none" stroke="midnightblue" d="M612.548,-389.738C619.235,-387.429 625.809,-384.856 632,-382 649.689,-373.841 651.058,-366.613 668,-357 673.535,-353.86 679.555,-350.811 685.487,-348"/>
<polygon fill="midnightblue" stroke="midnightblue" points="611.133,-386.518 602.703,-392.936 613.295,-393.176 611.133,-386.518"/>
</g>
<!-- Node11&#45;&gt;Node5 -->
<g id="edge14" class="edge"><title>Node11&#45;&gt;Node5</title>
<path fill="none" stroke="midnightblue" d="M600.899,-366.335C622.751,-369.185 646.943,-372.34 667.854,-375.068"/>
<polygon fill="midnightblue" stroke="midnightblue" points="601.084,-362.829 590.715,-365.006 600.178,-369.77 601.084,-362.829"/>
</g>
<!-- Node11&#45;&gt;Node8 -->
<g id="edge15" class="edge"><title>Node11&#45;&gt;Node8</title>
<path fill="none" stroke="midnightblue" d="M600.899,-349.318C622.751,-346.349 646.943,-343.062 667.854,-340.221"/>
<polygon fill="midnightblue" stroke="midnightblue" points="600.153,-345.887 590.715,-350.702 601.095,-352.823 600.153,-345.887"/>
</g>
<!-- Node12&#45;&gt;Node5 -->
<g id="edge17" class="edge"><title>Node12&#45;&gt;Node5</title>
<path fill="none" stroke="midnightblue" d="M411.403,-747.963C477.184,-756.417 571.336,-756.77 632,-706 681.096,-664.911 711.43,-456.088 719.082,-397.375"/>
<polygon fill="midnightblue" stroke="midnightblue" points="411.483,-744.441 401.099,-746.544 410.528,-751.376 411.483,-744.441"/>
</g>
<!-- Node13&#45;&gt;Node5 -->
<g id="edge19" class="edge"><title>Node13&#45;&gt;Node5</title>
<path fill="none" stroke="midnightblue" d="M382.756,-681.615C445.946,-703.407 559.071,-730.12 632,-676 678.68,-641.359 710.397,-452.519 718.785,-397.221"/>
<polygon fill="midnightblue" stroke="midnightblue" points="383.652,-678.219 373.057,-678.173 381.311,-684.816 383.652,-678.219"/>
</g>
<!-- Node14&#45;&gt;Node5 -->
<g id="edge21" class="edge"><title>Node14&#45;&gt;Node5</title>
<path fill="none" stroke="midnightblue" d="M628.549,-231.93C629.737,-232.909 630.889,-233.932 632,-235 672.757,-274.178 631.214,-314.072 668,-357 671.31,-360.863 675.349,-364.17 679.705,-366.992"/>
<polygon fill="midnightblue" stroke="midnightblue" points="630.423,-228.969 620.23,-226.082 626.398,-234.696 630.423,-228.969"/>
</g>
<!-- Node14&#45;&gt;Node8 -->
<g id="edge22" class="edge"><title>Node14&#45;&gt;Node8</title>
<path fill="none" stroke="midnightblue" d="M623.148,-230.233C626.193,-231.707 629.156,-233.293 632,-235 667.473,-256.286 697.062,-296.088 711.505,-317.845"/>
<polygon fill="midnightblue" stroke="midnightblue" points="624.359,-226.943 613.795,-226.14 621.553,-233.356 624.359,-226.943"/>
</g>
<!-- Node15&#45;&gt;Node5 -->
<g id="edge24" class="edge"><title>Node15&#45;&gt;Node5</title>
<path fill="none" stroke="midnightblue" d="M621.093,-177.097C625.052,-179.648 628.729,-182.596 632,-186 685.81,-242.004 619.845,-296.065 668,-357 671.028,-360.831 674.783,-364.105 678.888,-366.895"/>
<polygon fill="midnightblue" stroke="midnightblue" points="622.48,-173.866 612.029,-172.124 619.113,-180.003 622.48,-173.866"/>
</g>
<!-- Node15&#45;&gt;Node8 -->
<g id="edge25" class="edge"><title>Node15&#45;&gt;Node8</title>
<path fill="none" stroke="midnightblue" d="M621.222,-179.241C624.997,-181.252 628.615,-183.496 632,-186 678.77,-220.599 705.928,-287.78 716.215,-317.832"/>
<polygon fill="midnightblue" stroke="midnightblue" points="622.702,-176.069 612.166,-174.958 619.71,-182.397 622.702,-176.069"/>
</g>
<!-- Node16&#45;&gt;Node5 -->
<g id="edge27" class="edge"><title>Node16&#45;&gt;Node5</title>
<path fill="none" stroke="midnightblue" d="M600.168,-118.177C612.149,-121.909 623.557,-127.805 632,-137 699.01,-209.981 608.346,-277.894 668,-357 670.879,-360.818 674.487,-364.076 678.46,-366.852"/>
<polygon fill="midnightblue" stroke="midnightblue" points="601.045,-114.789 590.483,-115.626 599.262,-121.558 601.045,-114.789"/>
</g>
<!-- Node16&#45;&gt;Node8 -->
<g id="edge28" class="edge"><title>Node16&#45;&gt;Node8</title>
<path fill="none" stroke="midnightblue" d="M599.949,-120.459C611.518,-124.064 622.821,-129.331 632,-137 690.362,-185.761 712.177,-280.852 718.67,-317.804"/>
<polygon fill="midnightblue" stroke="midnightblue" points="600.779,-117.057 590.21,-117.805 598.938,-123.811 600.779,-117.057"/>
</g>
<!-- Node17&#45;&gt;Node5 -->
<g id="edge30" class="edge"><title>Node17&#45;&gt;Node5</title>
<path fill="none" stroke="midnightblue" d="M615.956,-75.502C621.954,-78.78 627.436,-82.8816 632,-88 712.276,-178.029 596.786,-259.644 668,-357 670.823,-360.859 674.396,-364.144 678.348,-366.936"/>
<polygon fill="midnightblue" stroke="midnightblue" points="617.389,-72.3086 606.845,-71.2661 614.437,-78.656 617.389,-72.3086"/>
</g>
<!-- Node17&#45;&gt;Node8 -->
<g id="edge31" class="edge"><title>Node17&#45;&gt;Node8</title>
<path fill="none" stroke="midnightblue" d="M616.182,-77.2798C621.91,-80.2011 627.279,-83.7333 632,-88 702.337,-151.57 717.157,-275.173 720.22,-317.979"/>
<polygon fill="midnightblue" stroke="midnightblue" points="617.488,-74.0303 606.927,-73.1744 614.649,-80.4289 617.488,-74.0303"/>
</g>
<!-- Node18&#45;&gt;Node5 -->
<g id="edge33" class="edge"><title>Node18&#45;&gt;Node5</title>
<path fill="none" stroke="midnightblue" d="M600.133,-19.7423C612.233,-23.487 623.699,-29.4977 632,-39 725.578,-146.118 585.195,-241.352 668,-357 670.724,-360.805 674.181,-364.05 678.019,-366.813"/>
<polygon fill="midnightblue" stroke="midnightblue" points="600.901,-16.3255 590.342,-17.2015 599.142,-23.1011 600.901,-16.3255"/>
</g>
<!-- Node18&#45;&gt;Node8 -->
<g id="edge34" class="edge"><title>Node18&#45;&gt;Node8</title>
<path fill="none" stroke="midnightblue" d="M600.014,-21.285C611.789,-24.964 623.156,-30.5576 632,-39 714.359,-117.616 721.248,-269.589 721.265,-317.882"/>
<polygon fill="midnightblue" stroke="midnightblue" points="600.638,-17.8288 590.073,-18.6244 598.828,-24.5908 600.638,-17.8288"/>
</g>
<!-- Node19&#45;&gt;Node5 -->
<g id="edge36" class="edge"><title>Node19&#45;&gt;Node5</title>
<path fill="none" stroke="midnightblue" d="M600.074,-644.507C611.737,-640.736 623.045,-635.174 632,-627 701.856,-563.236 716.97,-440.29 720.166,-397.294"/>
<polygon fill="midnightblue" stroke="midnightblue" points="598.917,-641.196 590.237,-647.271 600.811,-647.935 598.917,-641.196"/>
</g>
<!-- Node19&#45;&gt;Node8 -->
<g id="edge37" class="edge"><title>Node19&#45;&gt;Node8</title>
<path fill="none" stroke="midnightblue" d="M600.03,-646.435C612.136,-642.572 623.63,-636.485 632,-627 712.1,-536.226 595.793,-454.17 668,-357 670.53,-353.595 673.657,-350.661 677.116,-348.136"/>
<polygon fill="midnightblue" stroke="midnightblue" points="598.98,-643.093 590.238,-649.078 600.804,-649.851 598.98,-643.093"/>
</g>
<!-- Node20&#45;&gt;Node5 -->
<g id="edge39" class="edge"><title>Node20&#45;&gt;Node5</title>
<path fill="none" stroke="midnightblue" d="M603.302,-593.707C613.693,-590.05 623.717,-584.99 632,-578 690.121,-528.952 712.078,-434.03 718.639,-397.16"/>
<polygon fill="midnightblue" stroke="midnightblue" points="602.21,-590.382 593.696,-596.687 604.284,-597.067 602.21,-590.382"/>
</g>
<!-- Node20&#45;&gt;Node8 -->
<g id="edge40" class="edge"><title>Node20&#45;&gt;Node8</title>
<path fill="none" stroke="midnightblue" d="M603.555,-595.986C614.295,-592.117 624.372,-586.396 632,-578 698.917,-504.341 607.494,-436.01 668,-357 670.579,-353.632 673.739,-350.723 677.219,-348.213"/>
<polygon fill="midnightblue" stroke="midnightblue" points="602.52,-592.643 593.993,-598.93 604.58,-599.333 602.52,-592.643"/>
</g>
<!-- Node21&#45;&gt;Node5 -->
<g id="edge42" class="edge"><title>Node21&#45;&gt;Node5</title>
<path fill="none" stroke="midnightblue" d="M617.351,-537.838C622.53,-535.308 627.475,-532.382 632,-529 678.598,-494.171 705.846,-427.11 716.186,-397.129"/>
<polygon fill="midnightblue" stroke="midnightblue" points="615.592,-534.786 607.813,-541.979 618.379,-541.207 615.592,-534.786"/>
</g>
<!-- Node21&#45;&gt;Node8 -->
<g id="edge43" class="edge"><title>Node21&#45;&gt;Node8</title>
<path fill="none" stroke="midnightblue" d="M616.896,-540.561C622.467,-537.431 627.606,-533.625 632,-529 685.8,-472.384 619.137,-417.927 668,-357 670.717,-353.612 674.017,-350.685 677.627,-348.159"/>
<polygon fill="midnightblue" stroke="midnightblue" points="615.311,-537.439 607.829,-544.941 618.356,-543.742 615.311,-537.439"/>
</g>
<!-- Node22&#45;&gt;Node5 -->
<g id="edge45" class="edge"><title>Node22&#45;&gt;Node5</title>
<path fill="none" stroke="midnightblue" d="M605.568,-492.08C614.806,-488.89 623.884,-484.925 632,-480 667.367,-458.539 697,-418.808 711.477,-397.109"/>
<polygon fill="midnightblue" stroke="midnightblue" points="604.396,-488.779 595.917,-495.131 606.507,-495.454 604.396,-488.779"/>
</g>
<!-- Node22&#45;&gt;Node8 -->
<g id="edge46" class="edge"><title>Node22&#45;&gt;Node8</title>
<path fill="none" stroke="midnightblue" d="M605.225,-496.28C615.13,-492.537 624.497,-487.3 632,-480 672.825,-440.279 630.649,-400.004 668,-357 670.981,-353.568 674.551,-350.601 678.412,-348.042"/>
<polygon fill="midnightblue" stroke="midnightblue" points="604.02,-492.991 595.606,-499.43 606.199,-499.644 604.02,-492.991"/>
</g>
<!-- Node23&#45;&gt;Node5 -->
<g id="edge48" class="edge"><title>Node23&#45;&gt;Node5</title>
<path fill="none" stroke="midnightblue" d="M617.556,-327.273C622.505,-329.033 627.357,-330.939 632,-333 649.576,-340.801 651.259,-347.539 668,-357 674.111,-360.454 680.779,-363.862 687.258,-366.998"/>
<polygon fill="midnightblue" stroke="midnightblue" points="618.541,-323.912 607.947,-324.066 616.325,-330.552 618.541,-323.912"/>
</g>
<!-- Node23&#45;&gt;Node8 -->
<g id="edge49" class="edge"><title>Node23&#45;&gt;Node8</title>
<path fill="none" stroke="midnightblue" d="M618.46,-319.625C635.166,-321.804 652.342,-324.045 667.745,-326.054"/>
<polygon fill="midnightblue" stroke="midnightblue" points="618.508,-316.102 608.139,-318.279 617.602,-323.043 618.508,-316.102"/>
</g>
<!-- Node24&#45;&gt;Node5 -->
<g id="edge51" class="edge"><title>Node24&#45;&gt;Node5</title>
<path fill="none" stroke="midnightblue" d="M599.758,-267.691C611.342,-271.278 622.7,-276.479 632,-284 660.128,-306.748 642.199,-331.644 668,-357 671.846,-360.779 676.371,-364.065 681.129,-366.9"/>
<polygon fill="midnightblue" stroke="midnightblue" points="600.583,-264.289 590.015,-265.043 598.746,-271.044 600.583,-264.289"/>
</g>
<!-- Node24&#45;&gt;Node8 -->
<g id="edge52" class="edge"><title>Node24&#45;&gt;Node8</title>
<path fill="none" stroke="midnightblue" d="M599.905,-273.471C610.761,-276.479 621.821,-279.989 632,-284 655.303,-293.182 680.137,-307.254 697.635,-317.966"/>
<polygon fill="midnightblue" stroke="midnightblue" points="600.587,-270.03 590.023,-270.849 598.792,-276.796 600.587,-270.03"/>
</g>
</g>
</svg>
