<?xml version="1.0" encoding="UTF-8" standalone="no"?>
<!DOCTYPE svg PUBLIC "-//W3C//DTD SVG 1.1//EN"
 "http://www.w3.org/Graphics/SVG/1.1/DTD/svg11.dtd">
<!-- Generated by graphviz version 2.30.1 (20150305.2338)
 -->
<!-- Title: Test__ModulePriority Pages: 1 -->
<svg width="640pt" height="283pt"
 viewBox="0.00 0.00 640.00 283.00" xmlns="http://www.w3.org/2000/svg" xmlns:xlink="http://www.w3.org/1999/xlink">
<g id="graph0" class="graph" transform="scale(1 1) rotate(0) translate(4 279)">
<title>Test__ModulePriority</title>
<!-- Node1 -->
<g id="node1" class="node"><title>Node1</title>
<polygon fill="#bfbfbf" stroke="black" points="0.5,-127.5 0.5,-146.5 109.5,-146.5 109.5,-127.5 0.5,-127.5"/>
<text text-anchor="middle" x="55" y="-134.5" font-family="Helvetica,sans-Serif" font-size="10.00">Test__ModulePriority</text>
</g>
<!-- Node2 -->
<g id="node2" class="node"><title>Node2</title>
<g id="a_node2"><a xlink:href="classICED_1_1HalfCell_1_1DeviceData_ac62391584f55efe6bd7916ebf7d2e92b.html#ac62391584f55efe6bd7916ebf7d2e92b" target="_top" xlink:title="Initialization of the entire device data structure. ">
<polygon fill="none" stroke="black" points="146,-122 146,-152 286,-152 286,-122 146,-122"/>
<text text-anchor="start" x="154" y="-140" font-family="Helvetica,sans-Serif" font-size="10.00">ICED::HalfCell::DeviceData</text>
<text text-anchor="middle" x="216" y="-129" font-family="Helvetica,sans-Serif" font-size="10.00">::BuildDevice</text>
</a>
</g>
</g>
<!-- Node1&#45;&gt;Node2 -->
<g id="edge1" class="edge"><title>Node1&#45;&gt;Node2</title>
<path fill="none" stroke="midnightblue" d="M109.83,-137C118.119,-137 126.824,-137 135.529,-137"/>
<polygon fill="midnightblue" stroke="midnightblue" points="135.723,-140.5 145.723,-137 135.723,-133.5 135.723,-140.5"/>
</g>
<!-- Node3 -->
<g id="node3" class="node"><title>Node3</title>
<g id="a_node3"><a xlink:href="classICED_1_1HalfCell_1_1SolutionData_a16b07d4b06e74431a0783cbd6dd6e731.html#a16b07d4b06e74431a0783cbd6dd6e731" target="_top" xlink:title="Initialization of the input data from input file. ">
<polygon fill="none" stroke="black" points="335,-245 335,-275 459,-275 459,-245 335,-245"/>
<text text-anchor="start" x="343" y="-263" font-family="Helvetica,sans-Serif" font-size="10.00">ICED::HalfCell::Solution</text>
<text text-anchor="middle" x="397" y="-252" font-family="Helvetica,sans-Serif" font-size="10.00">Data::SetData</text>
</a>
</g>
</g>
<!-- Node2&#45;&gt;Node3 -->
<g id="edge2" class="edge"><title>Node2&#45;&gt;Node3</title>
<path fill="none" stroke="midnightblue" d="M229.383,-152.053C247.612,-173.32 283.679,-212.115 322,-235 325.438,-237.053 329.068,-238.966 332.799,-240.742"/>
<polygon fill="midnightblue" stroke="midnightblue" points="331.668,-244.068 342.232,-244.881 334.481,-237.658 331.668,-244.068"/>
</g>
<!-- Node4 -->
<g id="node4" class="node"><title>Node4</title>
<g id="a_node4"><a xlink:href="classICED_1_1HalfCell_1_1DeviceData_a16b07d4b06e74431a0783cbd6dd6e731.html#a16b07d4b06e74431a0783cbd6dd6e731" target="_top" xlink:title="Initialization of the input data from a parameter list. ">
<polygon fill="none" stroke="black" points="327,-196 327,-226 467,-226 467,-196 327,-196"/>
<text text-anchor="start" x="335" y="-214" font-family="Helvetica,sans-Serif" font-size="10.00">ICED::HalfCell::DeviceData</text>
<text text-anchor="middle" x="397" y="-203" font-family="Helvetica,sans-Serif" font-size="10.00">::SetData</text>
</a>
</g>
</g>
<!-- Node2&#45;&gt;Node4 -->
<g id="edge3" class="edge"><title>Node2&#45;&gt;Node4</title>
<path fill="none" stroke="midnightblue" d="M246.936,-152.052C267.733,-162.24 296.232,-175.672 322,-186 327.483,-188.198 333.243,-190.372 339.027,-192.466"/>
<polygon fill="midnightblue" stroke="midnightblue" points="338.143,-195.866 348.738,-195.905 340.48,-189.267 338.143,-195.866"/>
</g>
<!-- Node5 -->
<g id="node5" class="node"><title>Node5</title>
<g id="a_node5"><a xlink:href="classICED_1_1HalfCell_1_1DeviceData_a9dce6b5d6a4272a04fb399b6b7723c96.html#a9dce6b5d6a4272a04fb399b6b7723c96" target="_top" xlink:title="Initialization of the components from a parameter list. ">
<polygon fill="none" stroke="black" points="327,-147 327,-177 467,-177 467,-147 327,-147"/>
<text text-anchor="start" x="335" y="-165" font-family="Helvetica,sans-Serif" font-size="10.00">ICED::HalfCell::DeviceData</text>
<text text-anchor="middle" x="397" y="-154" font-family="Helvetica,sans-Serif" font-size="10.00">::LoadComponents</text>
</a>
</g>
</g>
<!-- Node2&#45;&gt;Node5 -->
<g id="edge4" class="edge"><title>Node2&#45;&gt;Node5</title>
<path fill="none" stroke="midnightblue" d="M286.206,-146.666C296.241,-148.067 306.635,-149.519 316.847,-150.945"/>
<polygon fill="midnightblue" stroke="midnightblue" points="316.59,-154.443 326.978,-152.36 317.558,-147.51 316.59,-154.443"/>
</g>
<!-- Node6 -->
<g id="node6" class="node"><title>Node6</title>
<g id="a_node6"><a xlink:href="classICED_1_1HalfCell_1_1DeviceData_abea9dd513340105152db94ed9f24211a.html#abea9dd513340105152db94ed9f24211a" target="_top" xlink:title="Setup of the global device data structure. ">
<polygon fill="none" stroke="black" points="327,-98 327,-128 467,-128 467,-98 327,-98"/>
<text text-anchor="start" x="335" y="-116" font-family="Helvetica,sans-Serif" font-size="10.00">ICED::HalfCell::DeviceData</text>
<text text-anchor="middle" x="397" y="-105" font-family="Helvetica,sans-Serif" font-size="10.00">::SetupGlobalData</text>
</a>
</g>
</g>
<!-- Node2&#45;&gt;Node6 -->
<g id="edge5" class="edge"><title>Node2&#45;&gt;Node6</title>
<path fill="none" stroke="midnightblue" d="M286.206,-127.721C296.241,-126.376 306.635,-124.982 316.847,-123.613"/>
<polygon fill="midnightblue" stroke="midnightblue" points="317.532,-127.052 326.978,-122.254 316.602,-120.114 317.532,-127.052"/>
</g>
<!-- Node8 -->
<g id="node8" class="node"><title>Node8</title>
<g id="a_node8"><a xlink:href="classICED_1_1HalfCell_1_1DeviceData_a9e170c875ec6749900cb89bfb977379a.html#a9e170c875ec6749900cb89bfb977379a" target="_top" xlink:title="Copy device data from the component level. ">
<polygon fill="none" stroke="black" points="324.5,-49 324.5,-79 469.5,-79 469.5,-49 324.5,-49"/>
<text text-anchor="start" x="332.5" y="-67" font-family="Helvetica,sans-Serif" font-size="10.00">ICED::HalfCell::DeviceData</text>
<text text-anchor="middle" x="397" y="-56" font-family="Helvetica,sans-Serif" font-size="10.00">::CopyDataFromComponents</text>
</a>
</g>
</g>
<!-- Node2&#45;&gt;Node8 -->
<g id="edge7" class="edge"><title>Node2&#45;&gt;Node8</title>
<path fill="none" stroke="midnightblue" d="M247.88,-121.867C268.608,-111.962 296.658,-99.0424 322,-89 327.573,-86.7917 333.427,-84.6007 339.3,-82.4868"/>
<polygon fill="midnightblue" stroke="midnightblue" points="340.887,-85.6385 349.154,-79.0126 338.559,-79.0368 340.887,-85.6385"/>
</g>
<!-- Node9 -->
<g id="node9" class="node"><title>Node9</title>
<g id="a_node9"><a xlink:href="classICED_1_1HalfCell_1_1DeviceData_af4d13d54a16ba494be74358656df1381.html#af4d13d54a16ba494be74358656df1381" target="_top" xlink:title="Copy device data to global storage for the non&#45;linear solver. ">
<polygon fill="none" stroke="black" points="322.5,-0 322.5,-30 471.5,-30 471.5,-0 322.5,-0"/>
<text text-anchor="start" x="330.5" y="-18" font-family="Helvetica,sans-Serif" font-size="10.00">ICED::HalfCell::DeviceData</text>
<text text-anchor="middle" x="397" y="-7" font-family="Helvetica,sans-Serif" font-size="10.00">::CopyDeviceToGlobalStorage</text>
</a>
</g>
</g>
<!-- Node2&#45;&gt;Node9 -->
<g id="edge8" class="edge"><title>Node2&#45;&gt;Node9</title>
<path fill="none" stroke="midnightblue" d="M229.724,-121.754C248.09,-100.639 284.016,-62.5528 322,-40 325.443,-37.9555 329.077,-36.05 332.811,-34.2787"/>
<polygon fill="midnightblue" stroke="midnightblue" points="334.491,-37.3641 342.25,-30.1492 331.685,-30.9511 334.491,-37.3641"/>
</g>
<!-- Node7 -->
<g id="node7" class="node"><title>Node7</title>
<g id="a_node7"><a xlink:href="classICED_1_1HalfCell_1_1SolutionData_a80aaf93c79fb804885351b17786981e4.html#a80aaf93c79fb804885351b17786981e4" target="_top" xlink:title="Setup of the trilinosdata structure. ">
<polygon fill="none" stroke="black" points="508,-98 508,-128 632,-128 632,-98 508,-98"/>
<text text-anchor="start" x="516" y="-116" font-family="Helvetica,sans-Serif" font-size="10.00">ICED::HalfCell::Solution</text>
<text text-anchor="middle" x="570" y="-105" font-family="Helvetica,sans-Serif" font-size="10.00">Data::BuildSolutionData</text>
</a>
</g>
</g>
<!-- Node6&#45;&gt;Node7 -->
<g id="edge6" class="edge"><title>Node6&#45;&gt;Node7</title>
<path fill="none" stroke="midnightblue" d="M467.059,-113C477.209,-113 487.68,-113 497.871,-113"/>
<polygon fill="midnightblue" stroke="midnightblue" points="497.946,-116.5 507.946,-113 497.946,-109.5 497.946,-116.5"/>
</g>
</g>
</svg>
