<?xml version="1.0" encoding="UTF-8" standalone="no"?>
<!DOCTYPE svg PUBLIC "-//W3C//DTD SVG 1.1//EN"
 "http://www.w3.org/Graphics/SVG/1.1/DTD/svg11.dtd">
<!-- Generated by graphviz version 2.30.1 (20150305.2338)
 -->
<!-- Title: TestingObject&lt; ResultsType &gt; Pages: 1 -->
<svg width="2454pt" height="915pt"
 viewBox="0.00 0.00 2454.00 915.00" xmlns="http://www.w3.org/2000/svg" xmlns:xlink="http://www.w3.org/1999/xlink">
<g id="graph0" class="graph" transform="scale(1 1) rotate(0) translate(4 911)">
<title>TestingObject&lt; ResultsType &gt;</title>
<!-- Node1 -->
<g id="node1" class="node"><title>Node1</title>
<polygon fill="#bfbfbf" stroke="black" points="2294.5,-769.5 2294.5,-788.5 2445.5,-788.5 2445.5,-769.5 2294.5,-769.5"/>
<text text-anchor="middle" x="2370" y="-776.5" font-family="Helvetica,sans-Serif" font-size="10.00">TestingObject&lt; ResultsType &gt;</text>
</g>
<!-- Node2 -->
<g id="node2" class="node"><title>Node2</title>
<polygon fill="none" stroke="#bfbfbf" points="2050.5,-874.5 2050.5,-893.5 2195.5,-893.5 2195.5,-874.5 2050.5,-874.5"/>
<text text-anchor="middle" x="2123" y="-881.5" font-family="Helvetica,sans-Serif" font-size="10.00">TestingObject&lt;ResultsType&gt;</text>
</g>
<!-- Node2&#45;&gt;Node1 -->
<g id="edge1" class="edge"><title>Node2&#45;&gt;Node1</title>
<path fill="none" stroke="midnightblue" d="M2205.61,-879.601C2229.13,-876.11 2254.29,-870.131 2276,-860 2313.06,-842.708 2346.59,-806.13 2361.23,-788.67"/>
<polygon fill="midnightblue" stroke="midnightblue" points="2205.08,-876.14 2195.64,-880.95 2206.02,-883.077 2205.08,-876.14"/>
</g>
<!-- Node3 -->
<g id="node3" class="node"><title>Node3</title>
<g id="a_node3"><a xlink:href="classICED_1_1HalfCell_1_1DeviceData.html" target="_top" xlink:title="Class to hold the solution data for the electro&#45;chemical device solver. ">
<polygon fill="none" stroke="black" points="2089,-595.5 2089,-614.5 2157,-614.5 2157,-595.5 2089,-595.5"/>
<text text-anchor="middle" x="2123" y="-602.5" font-family="Helvetica,sans-Serif" font-size="10.00">DeviceData</text>
</a>
</g>
</g>
<!-- Node3&#45;&gt;Node1 -->
<g id="edge2" class="edge"><title>Node3&#45;&gt;Node1</title>
<path fill="none" stroke="#9a32cd" stroke-dasharray="5,2" d="M2145.94,-620.58C2195.56,-655.824 2315.25,-740.827 2355.52,-769.427"/>
<polygon fill="#9a32cd" stroke="#9a32cd" points="2147.7,-617.54 2137.52,-614.603 2143.65,-623.247 2147.7,-617.54"/>
<text text-anchor="middle" x="2245" y="-716" font-family="Helvetica,sans-Serif" font-size="10.00"> pDeviceData</text>
</g>
<!-- Node4 -->
<g id="node4" class="node"><title>Node4</title>
<polygon fill="none" stroke="#bfbfbf" points="649,-670.5 649,-689.5 715,-689.5 715,-670.5 649,-670.5"/>
<text text-anchor="middle" x="682" y="-677.5" font-family="Helvetica,sans-Serif" font-size="10.00">GlobalType</text>
</g>
<!-- Node4&#45;&gt;Node3 -->
<g id="edge3" class="edge"><title>Node4&#45;&gt;Node3</title>
<path fill="none" stroke="midnightblue" d="M709.474,-694.239C755.679,-717.721 854.651,-762 944,-762 944,-762 944,-762 1867,-762 1979.82,-762 2084.6,-649.192 2113.9,-614.821"/>
<polygon fill="midnightblue" stroke="midnightblue" points="710.929,-691.05 700.438,-689.567 707.714,-697.269 710.929,-691.05"/>
</g>
<!-- Node9 -->
<g id="node9" class="node"><title>Node9</title>
<g id="a_node9"><a xlink:href="classICED_1_1HalfCell_1_1DeviceComponent.html" target="_top" xlink:title="Class to hold the solution data for the electro&#45;chemical device solver. ">
<polygon fill="none" stroke="black" points="1628,-441.5 1628,-460.5 1726,-460.5 1726,-441.5 1628,-441.5"/>
<text text-anchor="middle" x="1677" y="-448.5" font-family="Helvetica,sans-Serif" font-size="10.00">DeviceComponent</text>
</a>
</g>
</g>
<!-- Node4&#45;&gt;Node9 -->
<g id="edge9" class="edge"><title>Node4&#45;&gt;Node9</title>
<path fill="none" stroke="midnightblue" d="M725.461,-680.415C887.476,-681.216 1464.94,-676.686 1610,-574 1650.35,-545.436 1668.3,-484.29 1673.93,-460.627"/>
<polygon fill="midnightblue" stroke="midnightblue" points="725.42,-676.915 715.399,-680.356 725.378,-683.915 725.42,-676.915"/>
</g>
<!-- Node11 -->
<g id="node11" class="node"><title>Node11</title>
<g id="a_node11"><a xlink:href="classICED_1_1HalfCell_1_1PhysicsModule.html" target="_top" xlink:title="Virtual class for physics modules. ">
<polygon fill="none" stroke="black" points="1148.5,-600.5 1148.5,-619.5 1231.5,-619.5 1231.5,-600.5 1148.5,-600.5"/>
<text text-anchor="middle" x="1190" y="-607.5" font-family="Helvetica,sans-Serif" font-size="10.00">PhysicsModule</text>
</a>
</g>
</g>
<!-- Node4&#45;&gt;Node11 -->
<g id="edge13" class="edge"><title>Node4&#45;&gt;Node11</title>
<path fill="none" stroke="midnightblue" d="M725.485,-675.375C803.202,-666.72 973.396,-646.874 1116,-624 1126.45,-622.324 1137.69,-620.285 1148.15,-618.288"/>
<polygon fill="midnightblue" stroke="midnightblue" points="724.699,-671.94 715.145,-676.521 725.47,-678.898 724.699,-671.94"/>
</g>
<!-- Node12 -->
<g id="node12" class="node"><title>Node12</title>
<g id="a_node12"><a xlink:href="classICED_1_1HalfCell_1_1SolutionData.html" target="_top" xlink:title="Class to hold the solution data for the electro&#45;chemical device solver. ">
<polygon fill="none" stroke="black" points="908.5,-370.5 908.5,-389.5 981.5,-389.5 981.5,-370.5 908.5,-370.5"/>
<text text-anchor="middle" x="945" y="-377.5" font-family="Helvetica,sans-Serif" font-size="10.00">SolutionData</text>
</a>
</g>
</g>
<!-- Node4&#45;&gt;Node12 -->
<g id="edge15" class="edge"><title>Node4&#45;&gt;Node12</title>
<path fill="none" stroke="midnightblue" d="M692.809,-661.435C706.867,-636.423 734.956,-591.94 770,-565 815.672,-529.889 849.463,-556.932 890,-516 926.646,-478.997 939.229,-414.046 942.788,-389.636"/>
<polygon fill="midnightblue" stroke="midnightblue" points="689.7,-659.827 687.969,-670.28 695.84,-663.187 689.7,-659.827"/>
</g>
<!-- Node5 -->
<g id="node5" class="node"><title>Node5</title>
<polygon fill="none" stroke="#bfbfbf" points="633.5,-152.5 633.5,-171.5 730.5,-171.5 730.5,-152.5 633.5,-152.5"/>
<text text-anchor="middle" x="682" y="-159.5" font-family="Helvetica,sans-Serif" font-size="10.00">vector&lt; double * &gt;</text>
</g>
<!-- Node5&#45;&gt;Node3 -->
<g id="edge4" class="edge"><title>Node5&#45;&gt;Node3</title>
<path fill="none" stroke="#9a32cd" stroke-dasharray="5,2" d="M740.806,-158.863C793.682,-156.266 874.078,-153 944,-153 944,-153 944,-153 1867,-153 2077.38,-153 2116.13,-529.038 2121.31,-595.139"/>
<polygon fill="#9a32cd" stroke="#9a32cd" points="740.422,-155.378 730.609,-159.373 740.772,-162.369 740.422,-155.378"/>
<text text-anchor="middle" x="1408" y="-156" font-family="Helvetica,sans-Serif" font-size="10.00"> inputDataDouble</text>
</g>
<!-- Node5&#45;&gt;Node9 -->
<g id="edge10" class="edge"><title>Node5&#45;&gt;Node9</title>
<path fill="none" stroke="#9a32cd" stroke-dasharray="5,2" d="M738.669,-175.929C743.573,-178.7 748.133,-182.02 752,-186 770.512,-205.054 749.22,-226.448 770,-243 830.686,-291.336 866.417,-257 944,-257 944,-257 944,-257 1409,-257 1501.62,-257 1539,-252.526 1610,-312 1652.19,-347.338 1669.22,-415.809 1674.26,-441.208"/>
<polygon fill="#9a32cd" stroke="#9a32cd" points="740.073,-172.72 729.547,-171.514 737.023,-179.021 740.073,-172.72"/>
<text text-anchor="middle" x="1190" y="-260" font-family="Helvetica,sans-Serif" font-size="10.00"> inputDataDouble</text>
</g>
<!-- Node5&#45;&gt;Node12 -->
<g id="edge16" class="edge"><title>Node5&#45;&gt;Node12</title>
<path fill="none" stroke="#9a32cd" stroke-dasharray="5,2" d="M707.761,-177.382C722.414,-187.596 740.333,-202.193 752,-219 765.946,-239.091 752.801,-253.613 770,-271 809.843,-311.277 843.713,-281.333 890,-314 911.773,-329.366 929.624,-355.753 938.305,-370.066"/>
<polygon fill="#9a32cd" stroke="#9a32cd" points="709.4,-174.267 699.144,-171.608 705.503,-180.082 709.4,-174.267"/>
<text text-anchor="middle" x="830" y="-317" font-family="Helvetica,sans-Serif" font-size="10.00"> inputDataDouble</text>
</g>
<!-- Node6 -->
<g id="node6" class="node"><title>Node6</title>
<g id="a_node6"><a xlink:title="STL class. ">
<polygon fill="none" stroke="#bfbfbf" points="129,-397.5 129,-416.5 197,-416.5 197,-397.5 129,-397.5"/>
<text text-anchor="middle" x="163" y="-404.5" font-family="Helvetica,sans-Serif" font-size="10.00">vector&lt; T &gt;</text>
</a>
</g>
</g>
<!-- Node6&#45;&gt;Node5 -->
<g id="edge5" class="edge"><title>Node6&#45;&gt;Node5</title>
<path fill="none" stroke="orange" stroke-dasharray="5,2" d="M168.302,-387.034C176.075,-355.572 195.369,-294.405 234,-259 346.841,-155.582 543.165,-152.907 633.288,-157.899"/>
<polygon fill="orange" stroke="orange" points="164.799,-386.646 165.945,-397.178 171.617,-388.23 164.799,-386.646"/>
<text text-anchor="middle" x="400" y="-197" font-family="Helvetica,sans-Serif" font-size="10.00"> &lt; double * &gt;</text>
</g>
<!-- Node13 -->
<g id="node13" class="node"><title>Node13</title>
<polygon fill="none" stroke="#bfbfbf" points="642.5,-114.5 642.5,-133.5 721.5,-133.5 721.5,-114.5 642.5,-114.5"/>
<text text-anchor="middle" x="682" y="-121.5" font-family="Helvetica,sans-Serif" font-size="10.00">vector&lt; int * &gt;</text>
</g>
<!-- Node6&#45;&gt;Node13 -->
<g id="edge18" class="edge"><title>Node6&#45;&gt;Node13</title>
<path fill="none" stroke="orange" stroke-dasharray="5,2" d="M165.569,-387.492C169.747,-347.655 184.471,-256.079 234,-201 339.703,-83.4515 554.503,-102.911 642.296,-116.786"/>
<polygon fill="orange" stroke="orange" points="162.08,-387.205 164.633,-397.488 169.05,-387.857 162.08,-387.205"/>
<text text-anchor="middle" x="400" y="-134" font-family="Helvetica,sans-Serif" font-size="10.00"> &lt; int * &gt;</text>
</g>
<!-- Node15 -->
<g id="node15" class="node"><title>Node15</title>
<polygon fill="none" stroke="#bfbfbf" points="355,-286.5 355,-305.5 445,-305.5 445,-286.5 355,-286.5"/>
<text text-anchor="middle" x="400" y="-293.5" font-family="Helvetica,sans-Serif" font-size="10.00">vector&lt; double &gt;</text>
</g>
<!-- Node6&#45;&gt;Node15 -->
<g id="edge21" class="edge"><title>Node6&#45;&gt;Node15</title>
<path fill="none" stroke="orange" stroke-dasharray="5,2" d="M193.785,-392.932C242.334,-370 337.271,-325.157 378.771,-305.555"/>
<polygon fill="orange" stroke="orange" points="191.991,-389.908 184.444,-397.344 194.981,-396.237 191.991,-389.908"/>
<text text-anchor="middle" x="279" y="-375" font-family="Helvetica,sans-Serif" font-size="10.00"> &lt; double &gt;</text>
</g>
<!-- Node14 -->
<g id="node14" class="node"><title>Node14</title>
<polygon fill="none" stroke="#bfbfbf" points="632.5,-447 632.5,-477 731.5,-477 731.5,-447 632.5,-447"/>
<text text-anchor="start" x="640.5" y="-465" font-family="Helvetica,sans-Serif" font-size="10.00">vector&lt; std::vector</text>
<text text-anchor="middle" x="682" y="-454" font-family="Helvetica,sans-Serif" font-size="10.00">&lt; double &gt; &gt;</text>
</g>
<!-- Node6&#45;&gt;Node14 -->
<g id="edge22" class="edge"><title>Node6&#45;&gt;Node14</title>
<path fill="none" stroke="orange" stroke-dasharray="5,2" d="M207.26,-410.141C264.636,-414.43 369.033,-422.661 458,-432 518.582,-438.36 533.65,-440.72 594,-449 606.407,-450.702 619.792,-452.648 632.255,-454.506"/>
<polygon fill="orange" stroke="orange" points="207.34,-406.637 197.108,-409.387 206.822,-413.618 207.34,-406.637"/>
<text text-anchor="middle" x="400" y="-435" font-family="Helvetica,sans-Serif" font-size="10.00"> &lt; std::vector&lt; double &gt; &gt;</text>
</g>
<!-- Node16 -->
<g id="node16" class="node"><title>Node16</title>
<polygon fill="none" stroke="#bfbfbf" points="632.5,-229 632.5,-259 731.5,-259 731.5,-229 632.5,-229"/>
<text text-anchor="start" x="640.5" y="-247" font-family="Helvetica,sans-Serif" font-size="10.00">vector&lt; std::vector</text>
<text text-anchor="middle" x="682" y="-236" font-family="Helvetica,sans-Serif" font-size="10.00">&lt; double &gt; * &gt;</text>
</g>
<!-- Node6&#45;&gt;Node16 -->
<g id="edge25" class="edge"><title>Node6&#45;&gt;Node16</title>
<path fill="none" stroke="orange" stroke-dasharray="5,2" d="M176.82,-389.175C203.053,-354.534 266.769,-279.382 342,-255 441.15,-222.866 565.25,-229.909 632.402,-237.316"/>
<polygon fill="orange" stroke="orange" points="173.847,-387.309 170.704,-397.427 179.471,-391.477 173.847,-387.309"/>
<text text-anchor="start" x="351.5" y="-269" font-family="Helvetica,sans-Serif" font-size="10.00"> &lt; std::vector&lt; double</text>
<text text-anchor="middle" x="400" y="-258" font-family="Helvetica,sans-Serif" font-size="10.00"> &gt; * &gt;</text>
</g>
<!-- Node17 -->
<g id="node17" class="node"><title>Node17</title>
<polygon fill="none" stroke="#bfbfbf" points="646,-57.5 646,-76.5 718,-76.5 718,-57.5 646,-57.5"/>
<text text-anchor="middle" x="682" y="-64.5" font-family="Helvetica,sans-Serif" font-size="10.00">vector&lt; int &gt;</text>
</g>
<!-- Node6&#45;&gt;Node17 -->
<g id="edge27" class="edge"><title>Node6&#45;&gt;Node17</title>
<path fill="none" stroke="orange" stroke-dasharray="5,2" d="M163.404,-387.372C162.996,-338.719 168.612,-211.136 234,-137 339.866,-16.9708 560.369,-43.6619 645.969,-59.5574"/>
<polygon fill="orange" stroke="orange" points="159.906,-387.55 163.59,-397.484 166.905,-387.421 159.906,-387.55"/>
<text text-anchor="middle" x="400" y="-71" font-family="Helvetica,sans-Serif" font-size="10.00"> &lt; int &gt;</text>
</g>
<!-- Node18 -->
<g id="node18" class="node"><title>Node18</title>
<polygon fill="none" stroke="#bfbfbf" points="476.5,-458.5 476.5,-499.5 593.5,-499.5 593.5,-458.5 476.5,-458.5"/>
<text text-anchor="start" x="484.5" y="-487.5" font-family="Helvetica,sans-Serif" font-size="10.00">vector&lt; std::vector</text>
<text text-anchor="start" x="484.5" y="-476.5" font-family="Helvetica,sans-Serif" font-size="10.00">&lt; std::vector&lt; std::</text>
<text text-anchor="middle" x="535" y="-465.5" font-family="Helvetica,sans-Serif" font-size="10.00">vector&lt; double &gt; &gt; &gt; &gt;</text>
</g>
<!-- Node6&#45;&gt;Node18 -->
<g id="edge29" class="edge"><title>Node6&#45;&gt;Node18</title>
<path fill="none" stroke="orange" stroke-dasharray="5,2" d="M206.88,-417.822C215.821,-419.964 225.202,-422.127 234,-424 317.901,-441.864 415.75,-459.143 476.296,-469.425"/>
<polygon fill="orange" stroke="orange" points="207.571,-414.388 197.027,-415.43 205.919,-421.191 207.571,-414.388"/>
<text text-anchor="start" x="234.5" y="-467" font-family="Helvetica,sans-Serif" font-size="10.00"> &lt; std::vector&lt; std</text>
<text text-anchor="start" x="234.5" y="-456" font-family="Helvetica,sans-Serif" font-size="10.00">::vector&lt; std::vector</text>
<text text-anchor="middle" x="279" y="-445" font-family="Helvetica,sans-Serif" font-size="10.00">&lt; double &gt; &gt; &gt; &gt;</text>
</g>
<!-- Node19 -->
<g id="node19" class="node"><title>Node19</title>
<polygon fill="none" stroke="#bfbfbf" points="629.5,-543.5 629.5,-562.5 734.5,-562.5 734.5,-543.5 629.5,-543.5"/>
<text text-anchor="middle" x="682" y="-550.5" font-family="Helvetica,sans-Serif" font-size="10.00">vector&lt; std::string &gt;</text>
</g>
<!-- Node6&#45;&gt;Node19 -->
<g id="edge33" class="edge"><title>Node6&#45;&gt;Node19</title>
<path fill="none" stroke="orange" stroke-dasharray="5,2" d="M176.241,-425.034C188.705,-441.87 209.624,-466.254 234,-479 364.352,-547.156 542.78,-555.226 629.494,-554.624"/>
<polygon fill="orange" stroke="orange" points="178.871,-422.694 170.218,-416.58 173.17,-426.755 178.871,-422.694"/>
<text text-anchor="middle" x="400" y="-547" font-family="Helvetica,sans-Serif" font-size="10.00"> &lt; std::string &gt;</text>
</g>
<!-- Node10 -->
<g id="node10" class="node"><title>Node10</title>
<polygon fill="none" stroke="#bfbfbf" points="1348.5,-557 1348.5,-587 1467.5,-587 1467.5,-557 1348.5,-557"/>
<text text-anchor="start" x="1356.5" y="-575" font-family="Helvetica,sans-Serif" font-size="10.00">vector&lt; ICED::HalfCell</text>
<text text-anchor="middle" x="1408" y="-564" font-family="Helvetica,sans-Serif" font-size="10.00">::PhysicsModule * &gt;</text>
</g>
<!-- Node6&#45;&gt;Node10 -->
<g id="edge36" class="edge"><title>Node6&#45;&gt;Node10</title>
<path fill="none" stroke="orange" stroke-dasharray="5,2" d="M172.631,-425.935C183.879,-448.781 205.521,-487.095 234,-511 274.233,-544.77 291.459,-544.692 342,-559 533.15,-613.114 1153.73,-585.545 1348.18,-575.291"/>
<polygon fill="orange" stroke="orange" points="175.663,-424.161 168.207,-416.633 169.342,-427.167 175.663,-424.161"/>
<text text-anchor="start" x="770" y="-606" font-family="Helvetica,sans-Serif" font-size="10.00"> &lt; ICED::HalfCell::Physics</text>
<text text-anchor="middle" x="830" y="-595" font-family="Helvetica,sans-Serif" font-size="10.00">Module * &gt;</text>
</g>
<!-- Node8 -->
<g id="node8" class="node"><title>Node8</title>
<polygon fill="none" stroke="#bfbfbf" points="1806.5,-590 1806.5,-620 1925.5,-620 1925.5,-590 1806.5,-590"/>
<text text-anchor="start" x="1814.5" y="-608" font-family="Helvetica,sans-Serif" font-size="10.00">vector&lt; ICED::HalfCell</text>
<text text-anchor="middle" x="1866" y="-597" font-family="Helvetica,sans-Serif" font-size="10.00">::DeviceComponent * &gt;</text>
</g>
<!-- Node6&#45;&gt;Node8 -->
<g id="edge43" class="edge"><title>Node6&#45;&gt;Node8</title>
<path fill="none" stroke="orange" stroke-dasharray="5,2" d="M168.964,-426.471C192.381,-516.144 295.023,-885 399,-885 399,-885 399,-885 1298,-885 1374.3,-885 1396.49,-887.63 1468,-861 1630.55,-800.467 1795.49,-665.22 1847.92,-620.03"/>
<polygon fill="orange" stroke="orange" points="172.29,-425.355 166.4,-416.548 165.513,-427.106 172.29,-425.355"/>
<text text-anchor="start" x="1000.5" y="-899" font-family="Helvetica,sans-Serif" font-size="10.00"> &lt; ICED::HalfCell::Device</text>
<text text-anchor="middle" x="1058" y="-888" font-family="Helvetica,sans-Serif" font-size="10.00">Component * &gt;</text>
</g>
<!-- Node7 -->
<g id="node7" class="node"><title>Node7</title>
<polygon fill="none" stroke="#bfbfbf" points="0.5,-397.5 0.5,-416.5 29.5,-416.5 29.5,-397.5 0.5,-397.5"/>
<text text-anchor="middle" x="15" y="-404.5" font-family="Helvetica,sans-Serif" font-size="10.00">T</text>
</g>
<!-- Node7&#45;&gt;Node6 -->
<g id="edge6" class="edge"><title>Node7&#45;&gt;Node6</title>
<path fill="none" stroke="#9a32cd" stroke-dasharray="5,2" d="M39.8232,-407C64.033,-407 101.731,-407 128.85,-407"/>
<polygon fill="#9a32cd" stroke="#9a32cd" points="39.7354,-403.5 29.7353,-407 39.7353,-410.5 39.7354,-403.5"/>
<text text-anchor="middle" x="70" y="-410" font-family="Helvetica,sans-Serif" font-size="10.00"> elements</text>
</g>
<!-- Node8&#45;&gt;Node3 -->
<g id="edge7" class="edge"><title>Node8&#45;&gt;Node3</title>
<path fill="none" stroke="#9a32cd" stroke-dasharray="5,2" d="M1935.53,-605C1985.15,-605 2050.06,-605 2088.75,-605"/>
<polygon fill="#9a32cd" stroke="#9a32cd" points="1935.5,-601.5 1925.5,-605 1935.5,-608.5 1935.5,-601.5"/>
<text text-anchor="middle" x="1988" y="-608" font-family="Helvetica,sans-Serif" font-size="10.00"> deviceComponents</text>
</g>
<!-- Node9&#45;&gt;Node8 -->
<g id="edge8" class="edge"><title>Node9&#45;&gt;Node8</title>
<path fill="none" stroke="#9a32cd" stroke-dasharray="5,2" d="M1697.61,-467.146C1733.95,-497.079 1811.31,-560.781 1846.67,-589.904"/>
<polygon fill="#9a32cd" stroke="#9a32cd" points="1699.64,-464.289 1689.7,-460.633 1695.19,-469.692 1699.64,-464.289"/>
<text text-anchor="middle" x="1766" y="-541" font-family="Helvetica,sans-Serif" font-size="10.00"> elements</text>
</g>
<!-- Node10&#45;&gt;Node9 -->
<g id="edge11" class="edge"><title>Node10&#45;&gt;Node9</title>
<path fill="none" stroke="#9a32cd" stroke-dasharray="5,2" d="M1477.84,-560.68C1518.24,-552.005 1569.21,-537.437 1610,-514 1634.72,-499.794 1657.31,-474.419 1668.54,-460.605"/>
<polygon fill="#9a32cd" stroke="#9a32cd" points="1476.89,-557.302 1467.81,-562.76 1478.31,-564.157 1476.89,-557.302"/>
<text text-anchor="middle" x="1548" y="-562" font-family="Helvetica,sans-Serif" font-size="10.00"> componentPhysicsModules</text>
</g>
<!-- Node11&#45;&gt;Node10 -->
<g id="edge12" class="edge"><title>Node11&#45;&gt;Node10</title>
<path fill="none" stroke="#9a32cd" stroke-dasharray="5,2" d="M1241.89,-601.325C1268.2,-596.811 1300.84,-591.169 1330,-586 1335.89,-584.957 1342.02,-583.858 1348.15,-582.755"/>
<polygon fill="#9a32cd" stroke="#9a32cd" points="1241.03,-597.92 1231.77,-603.059 1242.21,-604.82 1241.03,-597.92"/>
<text text-anchor="middle" x="1297" y="-601" font-family="Helvetica,sans-Serif" font-size="10.00"> elements</text>
</g>
<!-- Node12&#45;&gt;Node11 -->
<g id="edge14" class="edge"><title>Node12&#45;&gt;Node11</title>
<path fill="none" stroke="#9a32cd" stroke-dasharray="5,2" d="M963.516,-396.579C1011.05,-441.567 1141.39,-564.939 1178.82,-600.369"/>
<polygon fill="#9a32cd" stroke="#9a32cd" points="965.801,-393.922 956.132,-389.59 960.989,-399.006 965.801,-393.922"/>
<text text-anchor="middle" x="1058" y="-539" font-family="Helvetica,sans-Serif" font-size="10.00"> pSolutionData</text>
</g>
<!-- Node12&#45;&gt;Node9 -->
<g id="edge38" class="edge"><title>Node12&#45;&gt;Node9</title>
<path fill="none" stroke="#9a32cd" stroke-dasharray="5,2" d="M991.754,-384.45C1122.15,-397.132 1494.79,-433.375 1627.96,-446.328"/>
<polygon fill="#9a32cd" stroke="#9a32cd" points="991.995,-380.957 981.704,-383.473 991.318,-387.924 991.995,-380.957"/>
<text text-anchor="middle" x="1297" y="-421" font-family="Helvetica,sans-Serif" font-size="10.00"> pSolutionData</text>
</g>
<!-- Node12&#45;&gt;Node3 -->
<g id="edge45" class="edge"><title>Node12&#45;&gt;Node3</title>
<path fill="none" stroke="#9a32cd" stroke-dasharray="5,2" d="M985.994,-367.668C1033.8,-354.042 1116.45,-334 1189,-334 1189,-334 1189,-334 1867,-334 2013.65,-334 2100.72,-547.079 2118.57,-595.355"/>
<polygon fill="#9a32cd" stroke="#9a32cd" points="984.968,-364.322 976.339,-370.469 986.918,-371.044 984.968,-364.322"/>
<text text-anchor="middle" x="1548" y="-337" font-family="Helvetica,sans-Serif" font-size="10.00"> pSolutionData</text>
</g>
<!-- Node13&#45;&gt;Node12 -->
<g id="edge17" class="edge"><title>Node13&#45;&gt;Node12</title>
<path fill="none" stroke="#9a32cd" stroke-dasharray="5,2" d="M731.499,-130.44C739.11,-133.282 746.324,-137.31 752,-143 773.473,-164.526 749.682,-186.381 770,-209 808.277,-251.611 848.748,-216.263 890,-256 924.16,-288.905 938.033,-347.087 942.365,-370.168"/>
<polygon fill="#9a32cd" stroke="#9a32cd" points="732.318,-127.03 721.731,-127.438 730.262,-133.721 732.318,-127.03"/>
<text text-anchor="middle" x="830" y="-259" font-family="Helvetica,sans-Serif" font-size="10.00"> inputDataInt</text>
</g>
<!-- Node13&#45;&gt;Node9 -->
<g id="edge37" class="edge"><title>Node13&#45;&gt;Node9</title>
<path fill="none" stroke="#9a32cd" stroke-dasharray="5,2" d="M731.843,-127.293C773.852,-130.353 836.027,-135.426 890,-142 970.385,-151.791 1548.11,-202.78 1610,-255 1669,-304.78 1675.45,-409.191 1676,-441.359"/>
<polygon fill="#9a32cd" stroke="#9a32cd" points="731.84,-123.784 721.615,-126.559 731.339,-130.766 731.84,-123.784"/>
<text text-anchor="middle" x="1190" y="-185" font-family="Helvetica,sans-Serif" font-size="10.00"> inputDataInt</text>
</g>
<!-- Node13&#45;&gt;Node3 -->
<g id="edge44" class="edge"><title>Node13&#45;&gt;Node3</title>
<path fill="none" stroke="#9a32cd" stroke-dasharray="5,2" d="M731.325,-113.618C834.501,-92.3898 1084.2,-46 1296,-46 1296,-46 1296,-46 1867,-46 2118.74,-46 2123.05,-521.068 2122.18,-595.298"/>
<polygon fill="#9a32cd" stroke="#9a32cd" points="730.593,-110.195 721.512,-115.653 732.014,-117.05 730.593,-110.195"/>
<text text-anchor="middle" x="1408" y="-49" font-family="Helvetica,sans-Serif" font-size="10.00"> inputDataInt</text>
</g>
<!-- Node14&#45;&gt;Node12 -->
<g id="edge19" class="edge"><title>Node14&#45;&gt;Node12</title>
<path fill="none" stroke="#9a32cd" stroke-dasharray="5,2" d="M735.844,-442.349C741.537,-439.275 747.05,-435.829 752,-432 762.267,-424.057 758.84,-415.629 770,-409 781.684,-402.06 860.816,-390.802 908.247,-384.551"/>
<polygon fill="#9a32cd" stroke="#9a32cd" points="734.182,-439.266 726.806,-446.872 737.315,-445.526 734.182,-439.266"/>
<text text-anchor="middle" x="830" y="-423" font-family="Helvetica,sans-Serif" font-size="10.00"> function</text>
<text text-anchor="middle" x="830" y="-412" font-family="Helvetica,sans-Serif" font-size="10.00">solutionData</text>
</g>
<!-- Node15&#45;&gt;Node14 -->
<g id="edge20" class="edge"><title>Node15&#45;&gt;Node14</title>
<path fill="none" stroke="#9a32cd" stroke-dasharray="5,2" d="M453.163,-308.281C496.188,-320.886 556.109,-344.509 594,-385 609.284,-401.333 596.538,-415.836 612,-432 617.779,-438.041 624.981,-442.937 632.533,-446.882"/>
<polygon fill="#9a32cd" stroke="#9a32cd" points="454.01,-304.883 443.435,-305.533 452.107,-311.619 454.01,-304.883"/>
<text text-anchor="middle" x="535" y="-388" font-family="Helvetica,sans-Serif" font-size="10.00"> elements</text>
</g>
<!-- Node15&#45;&gt;Node16 -->
<g id="edge24" class="edge"><title>Node15&#45;&gt;Node16</title>
<path fill="none" stroke="#9a32cd" stroke-dasharray="5,2" d="M435.333,-283.025C447.968,-278.659 462.491,-274.111 476,-271 528.823,-258.835 590.654,-251.627 632.488,-247.761"/>
<polygon fill="#9a32cd" stroke="#9a32cd" points="433.914,-279.815 425.66,-286.457 436.255,-286.412 433.914,-279.815"/>
<text text-anchor="middle" x="535" y="-274" font-family="Helvetica,sans-Serif" font-size="10.00"> elements</text>
</g>
<!-- Node15&#45;&gt;Node12 -->
<g id="edge34" class="edge"><title>Node15&#45;&gt;Node12</title>
<path fill="none" stroke="#9a32cd" stroke-dasharray="5,2" d="M455.217,-293.998C547.852,-291.072 728.896,-287.7 752,-305 772.927,-320.669 749.742,-344.475 770,-361 790.486,-377.712 863.507,-380.483 908.185,-380.544"/>
<polygon fill="#9a32cd" stroke="#9a32cd" points="455.065,-290.501 445.184,-294.324 455.293,-297.497 455.065,-290.501"/>
<text text-anchor="middle" x="682" y="-429" font-family="Helvetica,sans-Serif" font-size="10.00"> xCoords</text>
<text text-anchor="middle" x="682" y="-418" font-family="Helvetica,sans-Serif" font-size="10.00">activityCoefficientDer</text>
<text text-anchor="middle" x="682" y="-407" font-family="Helvetica,sans-Serif" font-size="10.00">activityCoefficients</text>
<text text-anchor="middle" x="682" y="-396" font-family="Helvetica,sans-Serif" font-size="10.00">transferenceNumberDerDer</text>
<text text-anchor="middle" x="682" y="-385" font-family="Helvetica,sans-Serif" font-size="10.00">concentrationDiffusionDerDer</text>
<text text-anchor="middle" x="682" y="-374" font-family="Helvetica,sans-Serif" font-size="10.00">activityCoefficientDerDer</text>
<text text-anchor="start" x="612.5" y="-363" font-family="Helvetica,sans-Serif" font-size="10.00">diffusionElectrolyteConductivity</text>
<text text-anchor="middle" x="682" y="-352" font-family="Helvetica,sans-Serif" font-size="10.00">Der</text>
<text text-anchor="middle" x="682" y="-341" font-family="Helvetica,sans-Serif" font-size="10.00">transferenceNumber</text>
<text text-anchor="middle" x="682" y="-330" font-family="Helvetica,sans-Serif" font-size="10.00">concentrationDiffusionDer</text>
<text text-anchor="middle" x="682" y="-319" font-family="Helvetica,sans-Serif" font-size="10.00">openCircuitPotentialVector</text>
<text text-anchor="middle" x="682" y="-308" font-family="Helvetica,sans-Serif" font-size="10.00">...</text>
</g>
<!-- Node15&#45;&gt;Node9 -->
<g id="edge42" class="edge"><title>Node15&#45;&gt;Node9</title>
<path fill="none" stroke="#9a32cd" stroke-dasharray="5,2" d="M454.223,-283.665C455.529,-282.833 456.792,-281.946 458,-281 471.153,-270.699 462.607,-257.987 476,-248 525.438,-211.132 701.429,-183.702 752,-219 771.025,-232.279 751.567,-253.911 770,-268 831.317,-314.868 1039.44,-288.22 1116,-298 1174.13,-305.426 1188.93,-306.681 1246,-320 1401.04,-356.186 1582.04,-417.887 1649.17,-441.46"/>
<polygon fill="#9a32cd" stroke="#9a32cd" points="452.363,-280.686 445.081,-288.382 455.573,-286.907 452.363,-280.686"/>
<text text-anchor="middle" x="1058" y="-312" font-family="Helvetica,sans-Serif" font-size="10.00"> rightBCValue</text>
<text text-anchor="middle" x="1058" y="-301" font-family="Helvetica,sans-Serif" font-size="10.00">leftBCValue</text>
</g>
<!-- Node16&#45;&gt;Node12 -->
<g id="edge23" class="edge"><title>Node16&#45;&gt;Node12</title>
<path fill="none" stroke="#9a32cd" stroke-dasharray="5,2" d="M740.577,-264.268C744.754,-267.119 748.638,-270.348 752,-274 768.848,-292.303 751.238,-310.664 770,-327 810.955,-362.659 838.955,-331.469 890,-350 904.113,-355.124 918.94,-363.615 929.479,-370.259"/>
<polygon fill="#9a32cd" stroke="#9a32cd" points="742.042,-261.066 731.664,-258.933 738.447,-267.072 742.042,-261.066"/>
<text text-anchor="middle" x="830" y="-353" font-family="Helvetica,sans-Serif" font-size="10.00"> inputDataVector</text>
</g>
<!-- Node17&#45;&gt;Node12 -->
<g id="edge26" class="edge"><title>Node17&#45;&gt;Node12</title>
<path fill="none" stroke="#9a32cd" stroke-dasharray="5,2" d="M725.628,-79.7392C772.827,-96.0426 847.804,-128.848 890,-183 936.428,-242.583 942.98,-339.395 943.871,-370.236"/>
<polygon fill="#9a32cd" stroke="#9a32cd" points="726.594,-76.3715 716,-76.5089 724.368,-83.0079 726.594,-76.3715"/>
<text text-anchor="middle" x="830" y="-197" font-family="Helvetica,sans-Serif" font-size="10.00"> iFirstGlobalDevice</text>
<text text-anchor="middle" x="830" y="-186" font-family="Helvetica,sans-Serif" font-size="10.00">iLastGlobalDevice</text>
</g>
<!-- Node17&#45;&gt;Node9 -->
<g id="edge40" class="edge"><title>Node17&#45;&gt;Node9</title>
<path fill="none" stroke="#9a32cd" stroke-dasharray="5,2" d="M728.369,-63.36C851.207,-55.0419 1199.1,-41.7262 1468,-131 1537.38,-154.033 1565.37,-156.104 1610,-214 1666.59,-287.405 1674.66,-406.655 1675.81,-441.286"/>
<polygon fill="#9a32cd" stroke="#9a32cd" points="727.94,-59.8813 718.21,-64.0719 728.43,-66.8642 727.94,-59.8813"/>
<text text-anchor="middle" x="1190" y="-105" font-family="Helvetica,sans-Serif" font-size="10.00"> inputDataModulePriority</text>
<text text-anchor="middle" x="1190" y="-94" font-family="Helvetica,sans-Serif" font-size="10.00">rightBCType</text>
<text text-anchor="middle" x="1190" y="-83" font-family="Helvetica,sans-Serif" font-size="10.00">leftBCType</text>
</g>
<!-- Node17&#45;&gt;Node1 -->
<g id="edge48" class="edge"><title>Node17&#45;&gt;Node1</title>
<path fill="none" stroke="#9a32cd" stroke-dasharray="5,2" d="M714.131,-53.5806C762.404,-34.0248 858.655,-0 944,-0 944,-0 944,-0 2124,-0 2293.6,-0 2360.18,-680.395 2368.17,-769.432"/>
<polygon fill="#9a32cd" stroke="#9a32cd" points="712.77,-50.3559 704.856,-57.4005 715.436,-56.8284 712.77,-50.3559"/>
<text text-anchor="middle" x="1548" y="-3" font-family="Helvetica,sans-Serif" font-size="10.00"> N</text>
</g>
<!-- Node18&#45;&gt;Node12 -->
<g id="edge28" class="edge"><title>Node18&#45;&gt;Node12</title>
<path fill="none" stroke="#9a32cd" stroke-dasharray="5,2" d="M603.58,-497.918C648.294,-506.562 706.791,-510.195 752,-486 764.716,-479.195 758.146,-467.215 770,-459 815.014,-427.806 841.757,-456.921 890,-431 909.311,-420.624 926.787,-401.539 936.35,-389.887"/>
<polygon fill="#9a32cd" stroke="#9a32cd" points="604.183,-494.469 593.683,-495.881 602.771,-501.325 604.183,-494.469"/>
<text text-anchor="middle" x="682" y="-508" font-family="Helvetica,sans-Serif" font-size="10.00"> jacobian</text>
</g>
<!-- Node19&#45;&gt;Node12 -->
<g id="edge30" class="edge"><title>Node19&#45;&gt;Node12</title>
<path fill="none" stroke="#9a32cd" stroke-dasharray="5,2" d="M738.296,-539.028C743.312,-536.265 747.999,-532.958 752,-529 768.791,-512.39 752.047,-494.347 770,-479 811.277,-443.714 844.317,-485.359 890,-456 915.599,-439.548 932.722,-406.273 940.012,-389.756"/>
<polygon fill="#9a32cd" stroke="#9a32cd" points="736.53,-535.992 728.992,-543.436 739.527,-542.317 736.53,-535.992"/>
<text text-anchor="middle" x="830" y="-504" font-family="Helvetica,sans-Serif" font-size="10.00"> inputDataIntString</text>
<text text-anchor="middle" x="830" y="-493" font-family="Helvetica,sans-Serif" font-size="10.00">inputDataVectorString</text>
<text text-anchor="middle" x="830" y="-482" font-family="Helvetica,sans-Serif" font-size="10.00">inputDataDoubleString</text>
</g>
<!-- Node19&#45;&gt;Node9 -->
<g id="edge41" class="edge"><title>Node19&#45;&gt;Node9</title>
<path fill="none" stroke="#9a32cd" stroke-dasharray="5,2" d="M744.628,-546.67C927.45,-527.89 1464.21,-472.755 1627.99,-455.931"/>
<polygon fill="#9a32cd" stroke="#9a32cd" points="744.233,-543.192 734.643,-547.695 744.948,-550.155 744.233,-543.192"/>
<text text-anchor="middle" x="1190" y="-543" font-family="Helvetica,sans-Serif" font-size="10.00"> inputDataBoundaryString</text>
<text text-anchor="middle" x="1190" y="-532" font-family="Helvetica,sans-Serif" font-size="10.00">inputDataModuleString</text>
<text text-anchor="middle" x="1190" y="-521" font-family="Helvetica,sans-Serif" font-size="10.00">inputDataIntString</text>
<text text-anchor="middle" x="1190" y="-510" font-family="Helvetica,sans-Serif" font-size="10.00">inputDataDoubleString</text>
</g>
<!-- Node19&#45;&gt;Node3 -->
<g id="edge46" class="edge"><title>Node19&#45;&gt;Node3</title>
<path fill="none" stroke="#9a32cd" stroke-dasharray="5,2" d="M693.159,-571.444C707.143,-594.89 734.657,-634.641 770,-654 896.864,-723.49 1389.26,-701 1547,-701 1547,-701 1547,-701 1867,-701 1964.45,-701 2070.18,-638.838 2107.77,-614.556"/>
<polygon fill="#9a32cd" stroke="#9a32cd" points="696.034,-569.422 688.011,-562.501 689.967,-572.914 696.034,-569.422"/>
<text text-anchor="middle" x="1408" y="-729" font-family="Helvetica,sans-Serif" font-size="10.00"> inputDataIntString</text>
<text text-anchor="middle" x="1408" y="-718" font-family="Helvetica,sans-Serif" font-size="10.00">inputDataEcdcString</text>
<text text-anchor="middle" x="1408" y="-707" font-family="Helvetica,sans-Serif" font-size="10.00">inputDataDoubleString</text>
</g>
<!-- Node20 -->
<g id="node20" class="node"><title>Node20</title>
<g id="a_node20"><a xlink:title="STL class. ">
<polygon fill="none" stroke="#bfbfbf" points="379.5,-701.5 379.5,-720.5 420.5,-720.5 420.5,-701.5 379.5,-701.5"/>
<text text-anchor="middle" x="400" y="-708.5" font-family="Helvetica,sans-Serif" font-size="10.00">string</text>
</a>
</g>
</g>
<!-- Node20&#45;&gt;Node19 -->
<g id="edge31" class="edge"><title>Node20&#45;&gt;Node19</title>
<path fill="none" stroke="#9a32cd" stroke-dasharray="5,2" d="M409.115,-692.027C420.472,-667.803 443.435,-626.357 476,-604 521.807,-572.552 585.193,-560.464 629.309,-555.836"/>
<polygon fill="#9a32cd" stroke="#9a32cd" points="405.877,-690.693 404.964,-701.249 412.26,-693.567 405.877,-690.693"/>
<text text-anchor="middle" x="535" y="-607" font-family="Helvetica,sans-Serif" font-size="10.00"> elements</text>
</g>
<!-- Node20&#45;&gt;Node11 -->
<g id="edge35" class="edge"><title>Node20&#45;&gt;Node11</title>
<path fill="none" stroke="#9a32cd" stroke-dasharray="5,2" d="M430.395,-702.921C470.965,-692.028 546.536,-672.654 612,-661 782.545,-630.639 827.274,-637.156 1000,-624 1051.18,-620.102 1110.17,-615.756 1148.44,-612.955"/>
<polygon fill="#9a32cd" stroke="#9a32cd" points="429.366,-699.574 420.626,-705.563 431.193,-706.331 429.366,-699.574"/>
<text text-anchor="middle" x="830" y="-642" font-family="Helvetica,sans-Serif" font-size="10.00"> moduleName</text>
</g>
<!-- Node20&#45;&gt;Node9 -->
<g id="edge39" class="edge"><title>Node20&#45;&gt;Node9</title>
<path fill="none" stroke="#9a32cd" stroke-dasharray="5,2" d="M426.954,-725.201C475.38,-750.328 583.448,-800 681,-800 681,-800 681,-800 1409,-800 1584.84,-800 1660.49,-517.065 1673.81,-460.699"/>
<polygon fill="#9a32cd" stroke="#9a32cd" points="428.563,-722.092 418.085,-720.525 425.298,-728.284 428.563,-722.092"/>
<text text-anchor="middle" x="1058" y="-814" font-family="Helvetica,sans-Serif" font-size="10.00"> componentInputFile</text>
<text text-anchor="middle" x="1058" y="-803" font-family="Helvetica,sans-Serif" font-size="10.00">componentName</text>
</g>
<!-- Node20&#45;&gt;Node1 -->
<g id="edge47" class="edge"><title>Node20&#45;&gt;Node1</title>
<path fill="none" stroke="#9a32cd" stroke-dasharray="5,2" d="M414.583,-728.369C428.385,-744.907 451.209,-769.381 476,-784 557.993,-832.349 585.813,-846 681,-846 681,-846 681,-846 2124,-846 2209.99,-846 2307.13,-807.126 2348.54,-788.599"/>
<polygon fill="#9a32cd" stroke="#9a32cd" points="417.246,-726.096 408.226,-720.539 411.812,-730.508 417.246,-726.096"/>
<text text-anchor="middle" x="1408" y="-849" font-family="Helvetica,sans-Serif" font-size="10.00"> ExampleTestFixture</text>
</g>
<!-- Node21 -->
<g id="node21" class="node"><title>Node21</title>
<g id="a_node21"><a xlink:title="STL class. ">
<polygon fill="none" stroke="#bfbfbf" points="110,-701.5 110,-720.5 216,-720.5 216,-701.5 110,-701.5"/>
<text text-anchor="middle" x="163" y="-708.5" font-family="Helvetica,sans-Serif" font-size="10.00">basic_string&lt; char &gt;</text>
</a>
</g>
</g>
<!-- Node21&#45;&gt;Node20 -->
<g id="edge32" class="edge"><title>Node21&#45;&gt;Node20</title>
<path fill="none" stroke="midnightblue" d="M226.405,-711C277.314,-711 346.06,-711 379.334,-711"/>
<polygon fill="midnightblue" stroke="midnightblue" points="226.154,-707.5 216.154,-711 226.154,-714.5 226.154,-707.5"/>
</g>
</g>
</svg>
