<?xml version="1.0" encoding="UTF-8" standalone="no"?>
<!DOCTYPE svg PUBLIC "-//W3C//DTD SVG 1.1//EN"
 "http://www.w3.org/Graphics/SVG/1.1/DTD/svg11.dtd">
<!-- Generated by graphviz version 2.30.1 (20150305.2338)
 -->
<!-- Title: LoadComponents Pages: 1 -->
<svg width="972pt" height="761pt"
 viewBox="0.00 0.00 972.00 760.54" xmlns="http://www.w3.org/2000/svg" xmlns:xlink="http://www.w3.org/1999/xlink">
<g id="graph0" class="graph" transform="scale(1 1) rotate(0) translate(4 756.541)">
<title>LoadComponents</title>
<!-- Node1 -->
<g id="node1" class="node"><title>Node1</title>
<polygon fill="#bfbfbf" stroke="black" points="0.5,-367.5 0.5,-386.5 93.5,-386.5 93.5,-367.5 0.5,-367.5"/>
<text text-anchor="middle" x="47" y="-374.5" font-family="Helvetica,sans-Serif" font-size="10.00">LoadComponents</text>
</g>
<!-- Node2 -->
<g id="node2" class="node"><title>Node2</title>
<g id="a_node2"><a xlink:href="classICED_1_1HalfCell_1_1DeviceData.html#ac62391584f55efe6bd7916ebf7d2e92b" target="_top" xlink:title="Initialization of the entire device data structure. ">
<polygon fill="none" stroke="black" points="130.5,-367.5 130.5,-386.5 199.5,-386.5 199.5,-367.5 130.5,-367.5"/>
<text text-anchor="middle" x="165" y="-374.5" font-family="Helvetica,sans-Serif" font-size="10.00">BuildDevice</text>
</a>
</g>
</g>
<!-- Node1&#45;&gt;Node2 -->
<g id="edge1" class="edge"><title>Node1&#45;&gt;Node2</title>
<path fill="none" stroke="midnightblue" d="M103.743,-377C112.874,-377 122.08,-377 130.454,-377"/>
<polygon fill="midnightblue" stroke="midnightblue" points="103.513,-373.5 93.5133,-377 103.513,-380.5 103.513,-373.5"/>
</g>
<!-- Node3 -->
<g id="node3" class="node"><title>Node3</title>
<g id="a_node3"><a xlink:href="classICED_1_1TestingObject.html#a7995a39337d2ec045b02982b1b346b28" target="_top" xlink:title="Function called by Test__Intercalation. ">
<polygon fill="none" stroke="black" points="242.5,-425 242.5,-455 367.5,-455 367.5,-425 242.5,-425"/>
<text text-anchor="start" x="250.5" y="-443" font-family="Helvetica,sans-Serif" font-size="10.00">ICED::TestingObject</text>
<text text-anchor="middle" x="305" y="-432" font-family="Helvetica,sans-Serif" font-size="10.00">::RunIntercalationModule</text>
</a>
</g>
</g>
<!-- Node2&#45;&gt;Node3 -->
<g id="edge2" class="edge"><title>Node2&#45;&gt;Node3</title>
<path fill="none" stroke="midnightblue" d="M194.953,-390.848C207.533,-396.813 222.461,-403.823 236,-410 246.8,-414.927 258.62,-420.188 269.332,-424.905"/>
<polygon fill="midnightblue" stroke="midnightblue" points="196.386,-387.654 185.852,-386.521 193.381,-393.976 196.386,-387.654"/>
</g>
<!-- Node10 -->
<g id="node10" class="node"><title>Node10</title>
<g id="a_node10"><a xlink:href="classICED_1_1TestingObject.html#aea517fa85afb367c872ce72c26a0d643" target="_top" xlink:title="Test for ICED::ActivitCoefficient module. ">
<polygon fill="none" stroke="black" points="439.5,-392 439.5,-422 572.5,-422 572.5,-392 439.5,-392"/>
<text text-anchor="start" x="447.5" y="-410" font-family="Helvetica,sans-Serif" font-size="10.00">ICED::TestingObject</text>
<text text-anchor="middle" x="506" y="-399" font-family="Helvetica,sans-Serif" font-size="10.00">::Test__ActivityCoefficient</text>
</a>
</g>
</g>
<!-- Node2&#45;&gt;Node10 -->
<g id="edge10" class="edge"><title>Node2&#45;&gt;Node10</title>
<path fill="none" stroke="midnightblue" d="M209.731,-380.87C267.998,-386.026 371.591,-395.194 439.283,-401.184"/>
<polygon fill="midnightblue" stroke="midnightblue" points="210.014,-377.381 199.744,-379.986 209.396,-384.354 210.014,-377.381"/>
</g>
<!-- Node11 -->
<g id="node11" class="node"><title>Node11</title>
<g id="a_node11"><a xlink:href="classICED_1_1TestingObject.html#a2f898efd73e9aaf601f0733cb31fc340" target="_top" xlink:title="Test for ICED::ButlerVolmer. ">
<polygon fill="none" stroke="black" points="451.5,-343 451.5,-373 560.5,-373 560.5,-343 451.5,-343"/>
<text text-anchor="start" x="459.5" y="-361" font-family="Helvetica,sans-Serif" font-size="10.00">ICED::TestingObject</text>
<text text-anchor="middle" x="506" y="-350" font-family="Helvetica,sans-Serif" font-size="10.00">::Test__ButlerVolmer</text>
</a>
</g>
</g>
<!-- Node2&#45;&gt;Node11 -->
<g id="edge13" class="edge"><title>Node2&#45;&gt;Node11</title>
<path fill="none" stroke="midnightblue" d="M209.964,-374.536C271.903,-371.064 384.73,-364.741 451.472,-361"/>
<polygon fill="midnightblue" stroke="midnightblue" points="209.532,-371.055 199.744,-375.109 209.924,-378.044 209.532,-371.055"/>
</g>
<!-- Node12 -->
<g id="node12" class="node"><title>Node12</title>
<g id="a_node12"><a xlink:href="classICED_1_1TestingObject.html#a7bac98c894f8cfff372d495eae083cd5" target="_top" xlink:title="Tests the input file error checking functions using testModule and a generated &quot;bad&quot; input file...">
<polygon fill="none" stroke="black" points="239,-718 239,-748 371,-748 371,-718 239,-718"/>
<text text-anchor="start" x="247" y="-736" font-family="Helvetica,sans-Serif" font-size="10.00">ICED::TestingObject</text>
<text text-anchor="middle" x="305" y="-725" font-family="Helvetica,sans-Serif" font-size="10.00">::Test__CheckParamsBad</text>
</a>
</g>
</g>
<!-- Node2&#45;&gt;Node12 -->
<g id="edge16" class="edge"><title>Node2&#45;&gt;Node12</title>
<path fill="none" stroke="midnightblue" d="M165.633,-396.817C165.615,-449.057 171.79,-592.955 236,-687 244.84,-699.948 258.639,-710.262 271.502,-717.815"/>
<polygon fill="midnightblue" stroke="midnightblue" points="169.135,-396.629 165.721,-386.599 162.135,-396.568 169.135,-396.629"/>
</g>
<!-- Node13 -->
<g id="node13" class="node"><title>Node13</title>
<g id="a_node13"><a xlink:href="classICED_1_1TestingObject.html#afedc7e682315a3e766d614e09631ab04" target="_top" xlink:title="Tests the input file error checking functions using testModule and a generated &quot;good&quot; input file...">
<polygon fill="none" stroke="black" points="236,-648 236,-678 374,-678 374,-648 236,-648"/>
<text text-anchor="start" x="244" y="-666" font-family="Helvetica,sans-Serif" font-size="10.00">ICED::TestingObject</text>
<text text-anchor="middle" x="305" y="-655" font-family="Helvetica,sans-Serif" font-size="10.00">::Test__CheckParamsGood</text>
</a>
</g>
</g>
<!-- Node2&#45;&gt;Node13 -->
<g id="edge18" class="edge"><title>Node2&#45;&gt;Node13</title>
<path fill="none" stroke="midnightblue" d="M166.841,-396.593C169.683,-441.129 182.082,-551.552 236,-622 244.295,-632.838 256.343,-641.425 268.002,-647.881"/>
<polygon fill="midnightblue" stroke="midnightblue" points="170.332,-396.326 166.295,-386.53 163.342,-396.705 170.332,-396.326"/>
</g>
<!-- Node14 -->
<g id="node14" class="node"><title>Node14</title>
<g id="a_node14"><a xlink:href="classICED_1_1TestingObject.html#a8218a8aab213585d0fba3f2e1aa24b76" target="_top" xlink:title="Test for ICED::ComponentBoundaryConditions. ">
<polygon fill="none" stroke="black" points="410.5,-196 410.5,-226 601.5,-226 601.5,-196 410.5,-196"/>
<text text-anchor="start" x="418.5" y="-214" font-family="Helvetica,sans-Serif" font-size="10.00">ICED::TestingObject</text>
<text text-anchor="middle" x="506" y="-203" font-family="Helvetica,sans-Serif" font-size="10.00">::Test__ComponentBoundaryConditions</text>
</a>
</g>
</g>
<!-- Node2&#45;&gt;Node14 -->
<g id="edge20" class="edge"><title>Node2&#45;&gt;Node14</title>
<path fill="none" stroke="midnightblue" d="M175.057,-358.285C186.37,-336.89 207.729,-302.339 236,-283 287.574,-247.721 355.641,-229.712 410.399,-220.528"/>
<polygon fill="midnightblue" stroke="midnightblue" points="171.862,-356.847 170.451,-367.348 178.102,-360.019 171.862,-356.847"/>
</g>
<!-- Node15 -->
<g id="node15" class="node"><title>Node15</title>
<g id="a_node15"><a xlink:href="classICED_1_1TestingObject.html#a96409144efe94cf3e37a534e524c6e36" target="_top" xlink:title="Test for ICED::ConcentrationDiffusion. ">
<polygon fill="none" stroke="black" points="430,-147 430,-177 582,-177 582,-147 430,-147"/>
<text text-anchor="start" x="438" y="-165" font-family="Helvetica,sans-Serif" font-size="10.00">ICED::TestingObject</text>
<text text-anchor="middle" x="506" y="-154" font-family="Helvetica,sans-Serif" font-size="10.00">::Test__ConcentrationDiffusion</text>
</a>
</g>
</g>
<!-- Node2&#45;&gt;Node15 -->
<g id="edge23" class="edge"><title>Node2&#45;&gt;Node15</title>
<path fill="none" stroke="midnightblue" d="M169.401,-357.434C176.103,-324.973 194.17,-260.184 236,-226 290.642,-181.346 371.228,-166.872 429.946,-162.641"/>
<polygon fill="midnightblue" stroke="midnightblue" points="165.923,-356.985 167.483,-367.464 172.799,-358.299 165.923,-356.985"/>
</g>
<!-- Node16 -->
<g id="node16" class="node"><title>Node16</title>
<g id="a_node16"><a xlink:href="classICED_1_1TestingObject.html#a20a3def5cfb0861690599ae120367987" target="_top" xlink:title="Test for ICED::DeviceData. ">
<polygon fill="none" stroke="black" points="452,-98 452,-128 560,-128 560,-98 452,-98"/>
<text text-anchor="start" x="460" y="-116" font-family="Helvetica,sans-Serif" font-size="10.00">ICED::TestingObject</text>
<text text-anchor="middle" x="506" y="-105" font-family="Helvetica,sans-Serif" font-size="10.00">::Test__DeviceData</text>
</a>
</g>
</g>
<!-- Node2&#45;&gt;Node16 -->
<g id="edge26" class="edge"><title>Node2&#45;&gt;Node16</title>
<path fill="none" stroke="midnightblue" d="M166.328,-357.107C168.165,-314.979 178.715,-216.497 236,-166 295.72,-113.357 392.224,-106.878 451.958,-108.712"/>
<polygon fill="midnightblue" stroke="midnightblue" points="162.826,-357.089 166.013,-367.193 169.823,-357.307 162.826,-357.089"/>
</g>
<!-- Node17 -->
<g id="node17" class="node"><title>Node17</title>
<g id="a_node17"><a xlink:href="classICED_1_1TestingObject.html#a43dbcae20e4ab6f8b30751e9b5e5b2c2" target="_top" xlink:title="Test for ICED::DeviceDataMapping. ">
<polygon fill="none" stroke="black" points="435.5,-49 435.5,-79 576.5,-79 576.5,-49 435.5,-49"/>
<text text-anchor="start" x="443.5" y="-67" font-family="Helvetica,sans-Serif" font-size="10.00">ICED::TestingObject</text>
<text text-anchor="middle" x="506" y="-56" font-family="Helvetica,sans-Serif" font-size="10.00">::Test__DeviceDataMapping</text>
</a>
</g>
</g>
<!-- Node2&#45;&gt;Node17 -->
<g id="edge29" class="edge"><title>Node2&#45;&gt;Node17</title>
<path fill="none" stroke="midnightblue" d="M168.355,-357.474C175.496,-301.629 198.725,-143.072 236,-109 289.473,-60.1221 375.114,-53.5949 435.372,-56.2549"/>
<polygon fill="midnightblue" stroke="midnightblue" points="164.872,-357.124 167.109,-367.48 171.818,-357.989 164.872,-357.124"/>
</g>
<!-- Node18 -->
<g id="node18" class="node"><title>Node18</title>
<g id="a_node18"><a xlink:href="classICED_1_1TestingObject.html#a06cf16fc934c4e87f6886a7beb771b0e" target="_top" xlink:title="Test for ICED::Diffusion module. ">
<polygon fill="none" stroke="black" points="452,-0 452,-30 560,-30 560,-0 452,-0"/>
<text text-anchor="start" x="460" y="-18" font-family="Helvetica,sans-Serif" font-size="10.00">ICED::TestingObject</text>
<text text-anchor="middle" x="506" y="-7" font-family="Helvetica,sans-Serif" font-size="10.00">::Test__Diffusion</text>
</a>
</g>
</g>
<!-- Node2&#45;&gt;Node18 -->
<g id="edge32" class="edge"><title>Node2&#45;&gt;Node18</title>
<path fill="none" stroke="midnightblue" d="M167.43,-356.883C172.407,-292.896 191.17,-95.8205 236,-54 293.884,-0.00175492 391.413,-0.0247933 451.775,-6.45763"/>
<polygon fill="midnightblue" stroke="midnightblue" points="163.913,-356.981 166.658,-367.214 170.894,-357.503 163.913,-356.981"/>
</g>
<!-- Node19 -->
<g id="node19" class="node"><title>Node19</title>
<g id="a_node19"><a xlink:href="classICED_1_1TestingObject.html#af46c6cb015fb4151707a8c08084f4525" target="_top" xlink:title="Test for ICED::IonMigration module. ">
<polygon fill="none" stroke="black" points="452,-637 452,-667 560,-667 560,-637 452,-637"/>
<text text-anchor="start" x="460" y="-655" font-family="Helvetica,sans-Serif" font-size="10.00">ICED::TestingObject</text>
<text text-anchor="middle" x="506" y="-644" font-family="Helvetica,sans-Serif" font-size="10.00">::Test__IonMigration</text>
</a>
</g>
</g>
<!-- Node2&#45;&gt;Node19 -->
<g id="edge35" class="edge"><title>Node2&#45;&gt;Node19</title>
<path fill="none" stroke="midnightblue" d="M167.247,-396.903C170.815,-436.583 184.45,-525.936 236,-575 267.009,-604.513 382.826,-629.886 451.976,-642.83"/>
<polygon fill="midnightblue" stroke="midnightblue" points="170.733,-396.595 166.47,-386.896 163.754,-397.137 170.733,-396.595"/>
</g>
<!-- Node20 -->
<g id="node20" class="node"><title>Node20</title>
<g id="a_node20"><a xlink:href="classICED_1_1TestingObject.html#a263e8cc9d4d10cb3b749c8946ebcae72" target="_top" xlink:title="Test for ICED::DeviceComponent. ">
<polygon fill="none" stroke="black" points="448.5,-588 448.5,-618 563.5,-618 563.5,-588 448.5,-588"/>
<text text-anchor="start" x="456.5" y="-606" font-family="Helvetica,sans-Serif" font-size="10.00">ICED::TestingObject</text>
<text text-anchor="middle" x="506" y="-595" font-family="Helvetica,sans-Serif" font-size="10.00">::Test__ModulePriority</text>
</a>
</g>
</g>
<!-- Node2&#45;&gt;Node20 -->
<g id="edge38" class="edge"><title>Node2&#45;&gt;Node20</title>
<path fill="none" stroke="midnightblue" d="M168.843,-396.874C174.822,-431.09 191.976,-501.003 236,-538 267.77,-564.699 379.155,-584.963 448.239,-595.319"/>
<polygon fill="midnightblue" stroke="midnightblue" points="172.258,-396.06 167.222,-386.738 165.346,-397.165 172.258,-396.06"/>
</g>
<!-- Node21 -->
<g id="node21" class="node"><title>Node21</title>
<g id="a_node21"><a xlink:href="classICED_1_1TestingObject.html#a4f825a89973b92c36e2fe2cbe6a653a0" target="_top" xlink:title="Test for ICED::OhmsLawElectrolyte. ">
<polygon fill="none" stroke="black" points="434.5,-539 434.5,-569 577.5,-569 577.5,-539 434.5,-539"/>
<text text-anchor="start" x="442.5" y="-557" font-family="Helvetica,sans-Serif" font-size="10.00">ICED::TestingObject</text>
<text text-anchor="middle" x="506" y="-546" font-family="Helvetica,sans-Serif" font-size="10.00">::Test__OhmsLawElectrolyte</text>
</a>
</g>
</g>
<!-- Node2&#45;&gt;Node21 -->
<g id="edge41" class="edge"><title>Node2&#45;&gt;Node21</title>
<path fill="none" stroke="midnightblue" d="M171.601,-396.253C180.548,-423.42 200.749,-472.525 236,-498 293.898,-539.842 376.106,-551.894 434.372,-554.691"/>
<polygon fill="midnightblue" stroke="midnightblue" points="174.941,-395.207 168.624,-386.701 168.258,-397.289 174.941,-395.207"/>
</g>
<!-- Node22 -->
<g id="node22" class="node"><title>Node22</title>
<g id="a_node22"><a xlink:href="classICED_1_1TestingObject.html#ab656a16700e242a40e0b21d7693a6ae0" target="_top" xlink:title="Test for ICED::OhmsLawSolid. ">
<polygon fill="none" stroke="black" points="446.5,-490 446.5,-520 565.5,-520 565.5,-490 446.5,-490"/>
<text text-anchor="start" x="454.5" y="-508" font-family="Helvetica,sans-Serif" font-size="10.00">ICED::TestingObject</text>
<text text-anchor="middle" x="506" y="-497" font-family="Helvetica,sans-Serif" font-size="10.00">::Test__OhmsLawSolid</text>
</a>
</g>
</g>
<!-- Node2&#45;&gt;Node22 -->
<g id="edge44" class="edge"><title>Node2&#45;&gt;Node22</title>
<path fill="none" stroke="midnightblue" d="M175.382,-395.482C186.773,-415.856 207.988,-447.877 236,-464 301.1,-501.469 389.102,-508.21 446.445,-507.94"/>
<polygon fill="midnightblue" stroke="midnightblue" points="178.399,-393.7 170.593,-386.536 172.227,-397.004 178.399,-393.7"/>
</g>
<!-- Node23 -->
<g id="node23" class="node"><title>Node23</title>
<g id="a_node23"><a xlink:href="classICED_1_1TestingObject.html#aacdc6512e5ce8094c62997f4d1f02634" target="_top" xlink:title="Test for ICED::TransferenceNumber. ">
<polygon fill="none" stroke="black" points="434,-294 434,-324 578,-324 578,-294 434,-294"/>
<text text-anchor="start" x="442" y="-312" font-family="Helvetica,sans-Serif" font-size="10.00">ICED::TestingObject</text>
<text text-anchor="middle" x="506" y="-301" font-family="Helvetica,sans-Serif" font-size="10.00">::Test__TransferenceNumber</text>
</a>
</g>
</g>
<!-- Node2&#45;&gt;Node23 -->
<g id="edge47" class="edge"><title>Node2&#45;&gt;Node23</title>
<path fill="none" stroke="midnightblue" d="M209.77,-367.504C218.456,-365.653 227.512,-363.745 236,-362 303.021,-348.218 379.593,-333.202 433.856,-322.684"/>
<polygon fill="midnightblue" stroke="midnightblue" points="208.846,-364.123 199.8,-369.639 210.312,-370.967 208.846,-364.123"/>
</g>
<!-- Node24 -->
<g id="node24" class="node"><title>Node24</title>
<g id="a_node24"><a xlink:href="classICED_1_1TestingObject.html#a9bbc638a5bd612413bdd4c03b6c66d0c" target="_top" xlink:title="Test for ICED::wallFlux. ">
<polygon fill="none" stroke="black" points="452,-245 452,-275 560,-275 560,-245 452,-245"/>
<text text-anchor="start" x="460" y="-263" font-family="Helvetica,sans-Serif" font-size="10.00">ICED::TestingObject</text>
<text text-anchor="middle" x="506" y="-252" font-family="Helvetica,sans-Serif" font-size="10.00">::Test__WallFlux</text>
</a>
</g>
</g>
<!-- Node2&#45;&gt;Node24 -->
<g id="edge50" class="edge"><title>Node2&#45;&gt;Node24</title>
<path fill="none" stroke="midnightblue" d="M186.338,-361.577C199.829,-351.953 218.255,-339.93 236,-332 307.505,-300.046 396.233,-279.702 451.752,-269.069"/>
<polygon fill="midnightblue" stroke="midnightblue" points="184.255,-358.764 178.242,-367.487 188.383,-364.417 184.255,-358.764"/>
</g>
<!-- Node4 -->
<g id="node4" class="node"><title>Node4</title>
<g id="a_node4"><a xlink:href="classICED_1_1TestingObject.html#adcd8b620aa1ea5a579a671ac15b5620b" target="_top" xlink:title="Test for ICED::Intercalation. ">
<polygon fill="none" stroke="black" points="452,-441 452,-471 560,-471 560,-441 452,-441"/>
<text text-anchor="start" x="460" y="-459" font-family="Helvetica,sans-Serif" font-size="10.00">ICED::TestingObject</text>
<text text-anchor="middle" x="506" y="-448" font-family="Helvetica,sans-Serif" font-size="10.00">::Test__Intercalation</text>
</a>
</g>
</g>
<!-- Node3&#45;&gt;Node4 -->
<g id="edge3" class="edge"><title>Node3&#45;&gt;Node4</title>
<path fill="none" stroke="midnightblue" d="M377.889,-445.78C402.281,-447.741 429.077,-449.896 451.751,-451.719"/>
<polygon fill="midnightblue" stroke="midnightblue" points="377.85,-442.266 367.602,-444.953 377.289,-449.243 377.85,-442.266"/>
</g>
<!-- Node5 -->
<g id="node5" class="node"><title>Node5</title>
<g id="a_node5"><a xlink:href="classICED_1_1TestingObject.html#a046f7ab06db0acf616b0d2bf3d3146aa" target="_top" xlink:title="Runs all tests implemented by the ICED::TestingObject. ">
<polygon fill="none" stroke="black" points="638,-367 638,-397 746,-397 746,-367 638,-367"/>
<text text-anchor="start" x="646" y="-385" font-family="Helvetica,sans-Serif" font-size="10.00">ICED::TestingObject</text>
<text text-anchor="middle" x="692" y="-374" font-family="Helvetica,sans-Serif" font-size="10.00">::Process</text>
</a>
</g>
</g>
<!-- Node4&#45;&gt;Node5 -->
<g id="edge4" class="edge"><title>Node4&#45;&gt;Node5</title>
<path fill="none" stroke="midnightblue" d="M569.895,-441.789C580.752,-438.675 591.815,-435.071 602,-431 625.093,-421.768 649.747,-407.841 667.236,-397.192"/>
<polygon fill="midnightblue" stroke="midnightblue" points="568.725,-438.481 560.013,-444.51 570.583,-445.229 568.725,-438.481"/>
</g>
<!-- Node8 -->
<g id="node8" class="node"><title>Node8</title>
<g id="a_node8"><a xlink:href="classICED_1_1TestingObject.html#af1f07f14b9af7708e4264bb38937eed2" target="_top" xlink:title="Runs a test specified by name. ">
<polygon fill="none" stroke="black" points="638,-318 638,-348 746,-348 746,-318 638,-318"/>
<text text-anchor="start" x="646" y="-336" font-family="Helvetica,sans-Serif" font-size="10.00">ICED::TestingObject</text>
<text text-anchor="middle" x="692" y="-325" font-family="Helvetica,sans-Serif" font-size="10.00">::RunTest</text>
</a>
</g>
</g>
<!-- Node4&#45;&gt;Node8 -->
<g id="edge7" class="edge"><title>Node4&#45;&gt;Node8</title>
<path fill="none" stroke="midnightblue" d="M569.812,-447.635C581.391,-443.928 592.734,-438.611 602,-431 630.262,-407.785 611.784,-382.503 638,-357 641.475,-353.619 645.511,-350.663 649.774,-348.09"/>
<polygon fill="midnightblue" stroke="midnightblue" points="568.742,-444.301 560.07,-450.387 570.645,-451.037 568.742,-444.301"/>
</g>
<!-- Node6 -->
<g id="node6" class="node"><title>Node6</title>
<g id="a_node6"><a xlink:href="namespaceICED.html#acf52cefdb153ca8751acb1e183d3a405" target="_top" xlink:title="Drives the ICED::TestObject. ">
<polygon fill="none" stroke="black" points="802.5,-369.5 802.5,-388.5 869.5,-388.5 869.5,-369.5 802.5,-369.5"/>
<text text-anchor="middle" x="836" y="-376.5" font-family="Helvetica,sans-Serif" font-size="10.00">ICED::Test</text>
</a>
</g>
</g>
<!-- Node5&#45;&gt;Node6 -->
<g id="edge5" class="edge"><title>Node5&#45;&gt;Node6</title>
<path fill="none" stroke="midnightblue" d="M756.6,-380.656C772.467,-380.321 788.831,-379.975 802.478,-379.687"/>
<polygon fill="midnightblue" stroke="midnightblue" points="756.203,-377.164 746.28,-380.874 756.351,-384.162 756.203,-377.164"/>
</g>
<!-- Node7 -->
<g id="node7" class="node"><title>Node7</title>
<g id="a_node7"><a xlink:href="TestICED_8C.html#a0ddf1224851353fc92bfbff6f499fa97" target="_top" xlink:title="main">
<polygon fill="none" stroke="black" points="926,-369.5 926,-388.5 964,-388.5 964,-369.5 926,-369.5"/>
<text text-anchor="middle" x="945" y="-376.5" font-family="Helvetica,sans-Serif" font-size="10.00">main</text>
</a>
</g>
</g>
<!-- Node6&#45;&gt;Node7 -->
<g id="edge6" class="edge"><title>Node6&#45;&gt;Node7</title>
<path fill="none" stroke="midnightblue" d="M879.939,-379C895.927,-379 913.225,-379 925.811,-379"/>
<polygon fill="midnightblue" stroke="midnightblue" points="879.685,-375.5 869.685,-379 879.685,-382.5 879.685,-375.5"/>
</g>
<!-- Node9 -->
<g id="node9" class="node"><title>Node9</title>
<g id="a_node9"><a xlink:href="classICED_1_1TestingObject.html#a21159bd2efac623e5a5079f6a20f3444" target="_top" xlink:title="Runs a list of tests specified by name. ">
<polygon fill="none" stroke="black" points="782,-318 782,-348 890,-348 890,-318 782,-318"/>
<text text-anchor="start" x="790" y="-336" font-family="Helvetica,sans-Serif" font-size="10.00">ICED::TestingObject</text>
<text text-anchor="middle" x="836" y="-325" font-family="Helvetica,sans-Serif" font-size="10.00">::ProcessTests</text>
</a>
</g>
</g>
<!-- Node8&#45;&gt;Node9 -->
<g id="edge8" class="edge"><title>Node8&#45;&gt;Node9</title>
<path fill="none" stroke="midnightblue" d="M756.517,-333C764.996,-333 773.618,-333 781.894,-333"/>
<polygon fill="midnightblue" stroke="midnightblue" points="756.28,-329.5 746.28,-333 756.28,-336.5 756.28,-329.5"/>
</g>
<!-- Node8&#45;&gt;Node6 -->
<g id="edge9" class="edge"><title>Node8&#45;&gt;Node6</title>
<path fill="none" stroke="midnightblue" d="M749.084,-351.168C768.316,-357.398 789.077,-364.124 805.373,-369.402"/>
<polygon fill="midnightblue" stroke="midnightblue" points="750.088,-347.814 739.496,-348.062 747.931,-354.474 750.088,-347.814"/>
</g>
<!-- Node10&#45;&gt;Node5 -->
<g id="edge11" class="edge"><title>Node10&#45;&gt;Node5</title>
<path fill="none" stroke="midnightblue" d="M582.795,-396.702C601.261,-394.193 620.625,-391.562 637.786,-389.23"/>
<polygon fill="midnightblue" stroke="midnightblue" points="582.087,-393.266 572.649,-398.08 583.029,-400.202 582.087,-393.266"/>
</g>
<!-- Node10&#45;&gt;Node8 -->
<g id="edge12" class="edge"><title>Node10&#45;&gt;Node8</title>
<path fill="none" stroke="midnightblue" d="M582.548,-389.738C589.235,-387.429 595.809,-384.856 602,-382 619.689,-373.841 621.058,-366.613 638,-357 643.535,-353.86 649.555,-350.811 655.487,-348"/>
<polygon fill="midnightblue" stroke="midnightblue" points="581.133,-386.518 572.703,-392.936 583.295,-393.176 581.133,-386.518"/>
</g>
<!-- Node11&#45;&gt;Node5 -->
<g id="edge14" class="edge"><title>Node11&#45;&gt;Node5</title>
<path fill="none" stroke="midnightblue" d="M570.899,-366.335C592.751,-369.185 616.943,-372.34 637.854,-375.068"/>
<polygon fill="midnightblue" stroke="midnightblue" points="571.084,-362.829 560.715,-365.006 570.178,-369.77 571.084,-362.829"/>
</g>
<!-- Node11&#45;&gt;Node8 -->
<g id="edge15" class="edge"><title>Node11&#45;&gt;Node8</title>
<path fill="none" stroke="midnightblue" d="M570.899,-349.318C592.751,-346.349 616.943,-343.062 637.854,-340.221"/>
<polygon fill="midnightblue" stroke="midnightblue" points="570.153,-345.887 560.715,-350.702 571.095,-352.823 570.153,-345.887"/>
</g>
<!-- Node12&#45;&gt;Node5 -->
<g id="edge17" class="edge"><title>Node12&#45;&gt;Node5</title>
<path fill="none" stroke="midnightblue" d="M381.403,-747.963C447.184,-756.417 541.336,-756.77 602,-706 651.096,-664.911 681.43,-456.088 689.082,-397.375"/>
<polygon fill="midnightblue" stroke="midnightblue" points="381.483,-744.441 371.099,-746.544 380.528,-751.376 381.483,-744.441"/>
</g>
<!-- Node13&#45;&gt;Node5 -->
<g id="edge19" class="edge"><title>Node13&#45;&gt;Node5</title>
<path fill="none" stroke="midnightblue" d="M352.756,-681.615C415.946,-703.407 529.071,-730.12 602,-676 648.68,-641.359 680.397,-452.519 688.785,-397.221"/>
<polygon fill="midnightblue" stroke="midnightblue" points="353.652,-678.219 343.057,-678.173 351.311,-684.816 353.652,-678.219"/>
</g>
<!-- Node14&#45;&gt;Node5 -->
<g id="edge21" class="edge"><title>Node14&#45;&gt;Node5</title>
<path fill="none" stroke="midnightblue" d="M598.549,-231.93C599.737,-232.909 600.889,-233.932 602,-235 642.757,-274.178 601.214,-314.072 638,-357 641.31,-360.863 645.349,-364.17 649.705,-366.992"/>
<polygon fill="midnightblue" stroke="midnightblue" points="600.423,-228.969 590.23,-226.082 596.398,-234.696 600.423,-228.969"/>
</g>
<!-- Node14&#45;&gt;Node8 -->
<g id="edge22" class="edge"><title>Node14&#45;&gt;Node8</title>
<path fill="none" stroke="midnightblue" d="M593.148,-230.233C596.193,-231.707 599.156,-233.293 602,-235 637.473,-256.286 667.062,-296.088 681.505,-317.845"/>
<polygon fill="midnightblue" stroke="midnightblue" points="594.359,-226.943 583.795,-226.14 591.553,-233.356 594.359,-226.943"/>
</g>
<!-- Node15&#45;&gt;Node5 -->
<g id="edge24" class="edge"><title>Node15&#45;&gt;Node5</title>
<path fill="none" stroke="midnightblue" d="M591.093,-177.097C595.052,-179.648 598.729,-182.596 602,-186 655.81,-242.004 589.845,-296.065 638,-357 641.028,-360.831 644.783,-364.105 648.888,-366.895"/>
<polygon fill="midnightblue" stroke="midnightblue" points="592.48,-173.866 582.029,-172.124 589.113,-180.003 592.48,-173.866"/>
</g>
<!-- Node15&#45;&gt;Node8 -->
<g id="edge25" class="edge"><title>Node15&#45;&gt;Node8</title>
<path fill="none" stroke="midnightblue" d="M591.222,-179.241C594.997,-181.252 598.615,-183.496 602,-186 648.77,-220.599 675.928,-287.78 686.215,-317.832"/>
<polygon fill="midnightblue" stroke="midnightblue" points="592.702,-176.069 582.166,-174.958 589.71,-182.397 592.702,-176.069"/>
</g>
<!-- Node16&#45;&gt;Node5 -->
<g id="edge27" class="edge"><title>Node16&#45;&gt;Node5</title>
<path fill="none" stroke="midnightblue" d="M570.168,-118.177C582.149,-121.909 593.557,-127.805 602,-137 669.01,-209.981 578.346,-277.894 638,-357 640.879,-360.818 644.487,-364.076 648.46,-366.852"/>
<polygon fill="midnightblue" stroke="midnightblue" points="571.045,-114.789 560.483,-115.626 569.262,-121.558 571.045,-114.789"/>
</g>
<!-- Node16&#45;&gt;Node8 -->
<g id="edge28" class="edge"><title>Node16&#45;&gt;Node8</title>
<path fill="none" stroke="midnightblue" d="M569.949,-120.459C581.518,-124.064 592.821,-129.331 602,-137 660.362,-185.761 682.177,-280.852 688.67,-317.804"/>
<polygon fill="midnightblue" stroke="midnightblue" points="570.779,-117.057 560.21,-117.805 568.938,-123.811 570.779,-117.057"/>
</g>
<!-- Node17&#45;&gt;Node5 -->
<g id="edge30" class="edge"><title>Node17&#45;&gt;Node5</title>
<path fill="none" stroke="midnightblue" d="M585.956,-75.502C591.954,-78.78 597.436,-82.8816 602,-88 682.276,-178.029 566.786,-259.644 638,-357 640.823,-360.859 644.396,-364.144 648.348,-366.936"/>
<polygon fill="midnightblue" stroke="midnightblue" points="587.389,-72.3086 576.845,-71.2661 584.437,-78.656 587.389,-72.3086"/>
</g>
<!-- Node17&#45;&gt;Node8 -->
<g id="edge31" class="edge"><title>Node17&#45;&gt;Node8</title>
<path fill="none" stroke="midnightblue" d="M586.182,-77.2798C591.91,-80.2011 597.279,-83.7333 602,-88 672.337,-151.57 687.157,-275.173 690.22,-317.979"/>
<polygon fill="midnightblue" stroke="midnightblue" points="587.488,-74.0303 576.927,-73.1744 584.649,-80.4289 587.488,-74.0303"/>
</g>
<!-- Node18&#45;&gt;Node5 -->
<g id="edge33" class="edge"><title>Node18&#45;&gt;Node5</title>
<path fill="none" stroke="midnightblue" d="M570.133,-19.7423C582.233,-23.487 593.699,-29.4977 602,-39 695.578,-146.118 555.195,-241.352 638,-357 640.724,-360.805 644.181,-364.05 648.019,-366.813"/>
<polygon fill="midnightblue" stroke="midnightblue" points="570.901,-16.3255 560.342,-17.2015 569.142,-23.1011 570.901,-16.3255"/>
</g>
<!-- Node18&#45;&gt;Node8 -->
<g id="edge34" class="edge"><title>Node18&#45;&gt;Node8</title>
<path fill="none" stroke="midnightblue" d="M570.014,-21.285C581.789,-24.964 593.156,-30.5576 602,-39 684.359,-117.616 691.248,-269.589 691.265,-317.882"/>
<polygon fill="midnightblue" stroke="midnightblue" points="570.638,-17.8288 560.073,-18.6244 568.828,-24.5908 570.638,-17.8288"/>
</g>
<!-- Node19&#45;&gt;Node5 -->
<g id="edge36" class="edge"><title>Node19&#45;&gt;Node5</title>
<path fill="none" stroke="midnightblue" d="M570.074,-644.507C581.737,-640.736 593.045,-635.174 602,-627 671.856,-563.236 686.97,-440.29 690.166,-397.294"/>
<polygon fill="midnightblue" stroke="midnightblue" points="568.917,-641.196 560.237,-647.271 570.811,-647.935 568.917,-641.196"/>
</g>
<!-- Node19&#45;&gt;Node8 -->
<g id="edge37" class="edge"><title>Node19&#45;&gt;Node8</title>
<path fill="none" stroke="midnightblue" d="M570.03,-646.435C582.136,-642.572 593.63,-636.485 602,-627 682.1,-536.226 565.793,-454.17 638,-357 640.53,-353.595 643.657,-350.661 647.116,-348.136"/>
<polygon fill="midnightblue" stroke="midnightblue" points="568.98,-643.093 560.238,-649.078 570.804,-649.851 568.98,-643.093"/>
</g>
<!-- Node20&#45;&gt;Node5 -->
<g id="edge39" class="edge"><title>Node20&#45;&gt;Node5</title>
<path fill="none" stroke="midnightblue" d="M573.302,-593.707C583.693,-590.05 593.717,-584.99 602,-578 660.121,-528.952 682.078,-434.03 688.639,-397.16"/>
<polygon fill="midnightblue" stroke="midnightblue" points="572.21,-590.382 563.696,-596.687 574.284,-597.067 572.21,-590.382"/>
</g>
<!-- Node20&#45;&gt;Node8 -->
<g id="edge40" class="edge"><title>Node20&#45;&gt;Node8</title>
<path fill="none" stroke="midnightblue" d="M573.555,-595.986C584.295,-592.117 594.372,-586.396 602,-578 668.917,-504.341 577.494,-436.01 638,-357 640.579,-353.632 643.739,-350.723 647.219,-348.213"/>
<polygon fill="midnightblue" stroke="midnightblue" points="572.52,-592.643 563.993,-598.93 574.58,-599.333 572.52,-592.643"/>
</g>
<!-- Node21&#45;&gt;Node5 -->
<g id="edge42" class="edge"><title>Node21&#45;&gt;Node5</title>
<path fill="none" stroke="midnightblue" d="M587.351,-537.838C592.53,-535.308 597.475,-532.382 602,-529 648.598,-494.171 675.846,-427.11 686.186,-397.129"/>
<polygon fill="midnightblue" stroke="midnightblue" points="585.592,-534.786 577.813,-541.979 588.379,-541.207 585.592,-534.786"/>
</g>
<!-- Node21&#45;&gt;Node8 -->
<g id="edge43" class="edge"><title>Node21&#45;&gt;Node8</title>
<path fill="none" stroke="midnightblue" d="M586.896,-540.561C592.467,-537.431 597.606,-533.625 602,-529 655.8,-472.384 589.137,-417.927 638,-357 640.717,-353.612 644.017,-350.685 647.627,-348.159"/>
<polygon fill="midnightblue" stroke="midnightblue" points="585.311,-537.439 577.829,-544.941 588.356,-543.742 585.311,-537.439"/>
</g>
<!-- Node22&#45;&gt;Node5 -->
<g id="edge45" class="edge"><title>Node22&#45;&gt;Node5</title>
<path fill="none" stroke="midnightblue" d="M575.568,-492.08C584.806,-488.89 593.884,-484.925 602,-480 637.367,-458.539 667,-418.808 681.477,-397.109"/>
<polygon fill="midnightblue" stroke="midnightblue" points="574.396,-488.779 565.917,-495.131 576.507,-495.454 574.396,-488.779"/>
</g>
<!-- Node22&#45;&gt;Node8 -->
<g id="edge46" class="edge"><title>Node22&#45;&gt;Node8</title>
<path fill="none" stroke="midnightblue" d="M575.225,-496.28C585.13,-492.537 594.497,-487.3 602,-480 642.825,-440.279 600.649,-400.004 638,-357 640.981,-353.568 644.551,-350.601 648.412,-348.042"/>
<polygon fill="midnightblue" stroke="midnightblue" points="574.02,-492.991 565.606,-499.43 576.199,-499.644 574.02,-492.991"/>
</g>
<!-- Node23&#45;&gt;Node5 -->
<g id="edge48" class="edge"><title>Node23&#45;&gt;Node5</title>
<path fill="none" stroke="midnightblue" d="M587.556,-327.273C592.505,-329.033 597.357,-330.939 602,-333 619.576,-340.801 621.259,-347.539 638,-357 644.111,-360.454 650.779,-363.862 657.258,-366.998"/>
<polygon fill="midnightblue" stroke="midnightblue" points="588.541,-323.912 577.947,-324.066 586.325,-330.552 588.541,-323.912"/>
</g>
<!-- Node23&#45;&gt;Node8 -->
<g id="edge49" class="edge"><title>Node23&#45;&gt;Node8</title>
<path fill="none" stroke="midnightblue" d="M588.46,-319.625C605.166,-321.804 622.342,-324.045 637.745,-326.054"/>
<polygon fill="midnightblue" stroke="midnightblue" points="588.508,-316.102 578.139,-318.279 587.602,-323.043 588.508,-316.102"/>
</g>
<!-- Node24&#45;&gt;Node5 -->
<g id="edge51" class="edge"><title>Node24&#45;&gt;Node5</title>
<path fill="none" stroke="midnightblue" d="M569.758,-267.691C581.342,-271.278 592.7,-276.479 602,-284 630.128,-306.748 612.199,-331.644 638,-357 641.846,-360.779 646.371,-364.065 651.129,-366.9"/>
<polygon fill="midnightblue" stroke="midnightblue" points="570.583,-264.289 560.015,-265.043 568.746,-271.044 570.583,-264.289"/>
</g>
<!-- Node24&#45;&gt;Node8 -->
<g id="edge52" class="edge"><title>Node24&#45;&gt;Node8</title>
<path fill="none" stroke="midnightblue" d="M569.905,-273.471C580.761,-276.479 591.821,-279.989 602,-284 625.303,-293.182 650.137,-307.254 667.635,-317.966"/>
<polygon fill="midnightblue" stroke="midnightblue" points="570.587,-270.03 560.023,-270.849 568.792,-276.796 570.587,-270.03"/>
</g>
</g>
</svg>
