<?xml version="1.0" encoding="UTF-8" standalone="no"?>
<!DOCTYPE svg PUBLIC "-//W3C//DTD SVG 1.1//EN"
 "http://www.w3.org/Graphics/SVG/1.1/DTD/svg11.dtd">
<!-- Generated by graphviz version 2.30.1 (20150305.2338)
 -->
<!-- Title: Test__Intercalation Pages: 1 -->
<svg width="786pt" height="283pt"
 viewBox="0.00 0.00 786.00 283.00" xmlns="http://www.w3.org/2000/svg" xmlns:xlink="http://www.w3.org/1999/xlink">
<g id="graph0" class="graph" transform="scale(1 1) rotate(0) translate(4 279)">
<title>Test__Intercalation</title>
<!-- Node1 -->
<g id="node1" class="node"><title>Node1</title>
<polygon fill="#bfbfbf" stroke="black" points="0,-127.5 0,-146.5 100,-146.5 100,-127.5 0,-127.5"/>
<text text-anchor="middle" x="50" y="-134.5" font-family="Helvetica,sans-Serif" font-size="10.00">Test__Intercalation</text>
</g>
<!-- Node2 -->
<g id="node2" class="node"><title>Node2</title>
<g id="a_node2"><a xlink:href="classICED_1_1TestingObject_a7995a39337d2ec045b02982b1b346b28.html#a7995a39337d2ec045b02982b1b346b28" target="_top" xlink:title="Function called by Test__Intercalation. ">
<polygon fill="none" stroke="black" points="136.5,-127.5 136.5,-146.5 255.5,-146.5 255.5,-127.5 136.5,-127.5"/>
<text text-anchor="middle" x="196" y="-134.5" font-family="Helvetica,sans-Serif" font-size="10.00">RunIntercalationModule</text>
</a>
</g>
</g>
<!-- Node1&#45;&gt;Node2 -->
<g id="edge1" class="edge"><title>Node1&#45;&gt;Node2</title>
<path fill="none" stroke="midnightblue" d="M100.154,-137C108.528,-137 117.362,-137 126.134,-137"/>
<polygon fill="midnightblue" stroke="midnightblue" points="126.372,-140.5 136.372,-137 126.372,-133.5 126.372,-140.5"/>
</g>
<!-- Node3 -->
<g id="node3" class="node"><title>Node3</title>
<g id="a_node3"><a xlink:href="classICED_1_1HalfCell_1_1DeviceData_ac62391584f55efe6bd7916ebf7d2e92b.html#ac62391584f55efe6bd7916ebf7d2e92b" target="_top" xlink:title="Initialization of the entire device data structure. ">
<polygon fill="none" stroke="black" points="292,-122 292,-152 432,-152 432,-122 292,-122"/>
<text text-anchor="start" x="300" y="-140" font-family="Helvetica,sans-Serif" font-size="10.00">ICED::HalfCell::DeviceData</text>
<text text-anchor="middle" x="362" y="-129" font-family="Helvetica,sans-Serif" font-size="10.00">::BuildDevice</text>
</a>
</g>
</g>
<!-- Node2&#45;&gt;Node3 -->
<g id="edge2" class="edge"><title>Node2&#45;&gt;Node3</title>
<path fill="none" stroke="midnightblue" d="M255.745,-137C264.134,-137 272.878,-137 281.583,-137"/>
<polygon fill="midnightblue" stroke="midnightblue" points="281.76,-140.5 291.76,-137 281.76,-133.5 281.76,-140.5"/>
</g>
<!-- Node4 -->
<g id="node4" class="node"><title>Node4</title>
<g id="a_node4"><a xlink:href="classICED_1_1HalfCell_1_1SolutionData_a16b07d4b06e74431a0783cbd6dd6e731.html#a16b07d4b06e74431a0783cbd6dd6e731" target="_top" xlink:title="Initialization of the input data from input file. ">
<polygon fill="none" stroke="black" points="481,-245 481,-275 605,-275 605,-245 481,-245"/>
<text text-anchor="start" x="489" y="-263" font-family="Helvetica,sans-Serif" font-size="10.00">ICED::HalfCell::Solution</text>
<text text-anchor="middle" x="543" y="-252" font-family="Helvetica,sans-Serif" font-size="10.00">Data::SetData</text>
</a>
</g>
</g>
<!-- Node3&#45;&gt;Node4 -->
<g id="edge3" class="edge"><title>Node3&#45;&gt;Node4</title>
<path fill="none" stroke="midnightblue" d="M375.383,-152.053C393.612,-173.32 429.679,-212.115 468,-235 471.438,-237.053 475.068,-238.966 478.799,-240.742"/>
<polygon fill="midnightblue" stroke="midnightblue" points="477.668,-244.068 488.232,-244.881 480.481,-237.658 477.668,-244.068"/>
</g>
<!-- Node5 -->
<g id="node5" class="node"><title>Node5</title>
<g id="a_node5"><a xlink:href="classICED_1_1HalfCell_1_1DeviceData_a16b07d4b06e74431a0783cbd6dd6e731.html#a16b07d4b06e74431a0783cbd6dd6e731" target="_top" xlink:title="Initialization of the input data from a parameter list. ">
<polygon fill="none" stroke="black" points="473,-196 473,-226 613,-226 613,-196 473,-196"/>
<text text-anchor="start" x="481" y="-214" font-family="Helvetica,sans-Serif" font-size="10.00">ICED::HalfCell::DeviceData</text>
<text text-anchor="middle" x="543" y="-203" font-family="Helvetica,sans-Serif" font-size="10.00">::SetData</text>
</a>
</g>
</g>
<!-- Node3&#45;&gt;Node5 -->
<g id="edge4" class="edge"><title>Node3&#45;&gt;Node5</title>
<path fill="none" stroke="midnightblue" d="M392.936,-152.052C413.733,-162.24 442.232,-175.672 468,-186 473.483,-188.198 479.243,-190.372 485.027,-192.466"/>
<polygon fill="midnightblue" stroke="midnightblue" points="484.143,-195.866 494.738,-195.905 486.48,-189.267 484.143,-195.866"/>
</g>
<!-- Node6 -->
<g id="node6" class="node"><title>Node6</title>
<g id="a_node6"><a xlink:href="classICED_1_1HalfCell_1_1DeviceData_a9dce6b5d6a4272a04fb399b6b7723c96.html#a9dce6b5d6a4272a04fb399b6b7723c96" target="_top" xlink:title="Initialization of the components from a parameter list. ">
<polygon fill="none" stroke="black" points="473,-147 473,-177 613,-177 613,-147 473,-147"/>
<text text-anchor="start" x="481" y="-165" font-family="Helvetica,sans-Serif" font-size="10.00">ICED::HalfCell::DeviceData</text>
<text text-anchor="middle" x="543" y="-154" font-family="Helvetica,sans-Serif" font-size="10.00">::LoadComponents</text>
</a>
</g>
</g>
<!-- Node3&#45;&gt;Node6 -->
<g id="edge5" class="edge"><title>Node3&#45;&gt;Node6</title>
<path fill="none" stroke="midnightblue" d="M432.206,-146.666C442.241,-148.067 452.635,-149.519 462.847,-150.945"/>
<polygon fill="midnightblue" stroke="midnightblue" points="462.59,-154.443 472.978,-152.36 463.558,-147.51 462.59,-154.443"/>
</g>
<!-- Node7 -->
<g id="node7" class="node"><title>Node7</title>
<g id="a_node7"><a xlink:href="classICED_1_1HalfCell_1_1DeviceData_abea9dd513340105152db94ed9f24211a.html#abea9dd513340105152db94ed9f24211a" target="_top" xlink:title="Setup of the global device data structure. ">
<polygon fill="none" stroke="black" points="473,-98 473,-128 613,-128 613,-98 473,-98"/>
<text text-anchor="start" x="481" y="-116" font-family="Helvetica,sans-Serif" font-size="10.00">ICED::HalfCell::DeviceData</text>
<text text-anchor="middle" x="543" y="-105" font-family="Helvetica,sans-Serif" font-size="10.00">::SetupGlobalData</text>
</a>
</g>
</g>
<!-- Node3&#45;&gt;Node7 -->
<g id="edge6" class="edge"><title>Node3&#45;&gt;Node7</title>
<path fill="none" stroke="midnightblue" d="M432.206,-127.721C442.241,-126.376 452.635,-124.982 462.847,-123.613"/>
<polygon fill="midnightblue" stroke="midnightblue" points="463.532,-127.052 472.978,-122.254 462.602,-120.114 463.532,-127.052"/>
</g>
<!-- Node9 -->
<g id="node9" class="node"><title>Node9</title>
<g id="a_node9"><a xlink:href="classICED_1_1HalfCell_1_1DeviceData_a9e170c875ec6749900cb89bfb977379a.html#a9e170c875ec6749900cb89bfb977379a" target="_top" xlink:title="Copy device data from the component level. ">
<polygon fill="none" stroke="black" points="470.5,-49 470.5,-79 615.5,-79 615.5,-49 470.5,-49"/>
<text text-anchor="start" x="478.5" y="-67" font-family="Helvetica,sans-Serif" font-size="10.00">ICED::HalfCell::DeviceData</text>
<text text-anchor="middle" x="543" y="-56" font-family="Helvetica,sans-Serif" font-size="10.00">::CopyDataFromComponents</text>
</a>
</g>
</g>
<!-- Node3&#45;&gt;Node9 -->
<g id="edge8" class="edge"><title>Node3&#45;&gt;Node9</title>
<path fill="none" stroke="midnightblue" d="M393.88,-121.867C414.608,-111.962 442.658,-99.0424 468,-89 473.573,-86.7917 479.427,-84.6007 485.3,-82.4868"/>
<polygon fill="midnightblue" stroke="midnightblue" points="486.887,-85.6385 495.154,-79.0126 484.559,-79.0368 486.887,-85.6385"/>
</g>
<!-- Node10 -->
<g id="node10" class="node"><title>Node10</title>
<g id="a_node10"><a xlink:href="classICED_1_1HalfCell_1_1DeviceData_af4d13d54a16ba494be74358656df1381.html#af4d13d54a16ba494be74358656df1381" target="_top" xlink:title="Copy device data to global storage for the non&#45;linear solver. ">
<polygon fill="none" stroke="black" points="468.5,-0 468.5,-30 617.5,-30 617.5,-0 468.5,-0"/>
<text text-anchor="start" x="476.5" y="-18" font-family="Helvetica,sans-Serif" font-size="10.00">ICED::HalfCell::DeviceData</text>
<text text-anchor="middle" x="543" y="-7" font-family="Helvetica,sans-Serif" font-size="10.00">::CopyDeviceToGlobalStorage</text>
</a>
</g>
</g>
<!-- Node3&#45;&gt;Node10 -->
<g id="edge9" class="edge"><title>Node3&#45;&gt;Node10</title>
<path fill="none" stroke="midnightblue" d="M375.724,-121.754C394.09,-100.639 430.016,-62.5528 468,-40 471.443,-37.9555 475.077,-36.05 478.811,-34.2787"/>
<polygon fill="midnightblue" stroke="midnightblue" points="480.491,-37.3641 488.25,-30.1492 477.685,-30.9511 480.491,-37.3641"/>
</g>
<!-- Node8 -->
<g id="node8" class="node"><title>Node8</title>
<g id="a_node8"><a xlink:href="classICED_1_1HalfCell_1_1SolutionData_a80aaf93c79fb804885351b17786981e4.html#a80aaf93c79fb804885351b17786981e4" target="_top" xlink:title="Setup of the trilinosdata structure. ">
<polygon fill="none" stroke="black" points="654,-98 654,-128 778,-128 778,-98 654,-98"/>
<text text-anchor="start" x="662" y="-116" font-family="Helvetica,sans-Serif" font-size="10.00">ICED::HalfCell::Solution</text>
<text text-anchor="middle" x="716" y="-105" font-family="Helvetica,sans-Serif" font-size="10.00">Data::BuildSolutionData</text>
</a>
</g>
</g>
<!-- Node7&#45;&gt;Node8 -->
<g id="edge7" class="edge"><title>Node7&#45;&gt;Node8</title>
<path fill="none" stroke="midnightblue" d="M613.059,-113C623.209,-113 633.68,-113 643.871,-113"/>
<polygon fill="midnightblue" stroke="midnightblue" points="643.946,-116.5 653.946,-113 643.946,-109.5 643.946,-116.5"/>
</g>
</g>
</svg>
