<?xml version="1.0" encoding="UTF-8" standalone="no"?>
<!DOCTYPE svg PUBLIC "-//W3C//DTD SVG 1.1//EN"
 "http://www.w3.org/Graphics/SVG/1.1/DTD/svg11.dtd">
<!-- Generated by graphviz version 2.30.1 (20150305.2338)
 -->
<!-- Title: Intercalation Pages: 1 -->
<!--zoomable 688 -->
<svg id="main" version="1.1" xmlns="http://www.w3.org/2000/svg" xmlns:xlink="http://www.w3.org/1999/xlink" xml:space="preserve" onload="init(evt)">
<style type="text/css"><![CDATA[
.edge:hover path { stroke: red; }
.edge:hover polygon { stroke: red; fill: red; }
]]></style>
<script type="text/javascript"><![CDATA[
var edges = document.getElementsByTagName('g');
if (edges && edges.length) {
  for (var i=0;i<edges.length;i++) {
    if (edges[i].id.substr(0,4)=='edge') {
      edges[i].setAttribute('class','edge');
    }
  }
}
]]></script>
        <defs>
                <circle id="rim" cx="0" cy="0" r="7"/>
                <circle id="rim2" cx="0" cy="0" r="3.5"/>
                <g id="zoomPlus">
                        <use xlink:href="#rim" fill="#404040">
                                <set attributeName="fill" to="#808080" begin="zoomplus.mouseover" end="zoomplus.mouseout"/>
                        </use>
                        <path d="M-4,0h8M0,-4v8" fill="none" stroke="white" stroke-width="1.5" pointer-events="none"/>
                </g>
                <g id="zoomMin">
                        <use xlink:href="#rim" fill="#404040">
                                <set attributeName="fill" to="#808080" begin="zoomminus.mouseover" end="zoomminus.mouseout"/>
                        </use>
                        <path d="M-4,0h8" fill="none" stroke="white" stroke-width="1.5" pointer-events="none"/>
                </g>
                <g id="dirArrow">
                        <path fill="none" stroke="white" stroke-width="1.5" d="M0,-3.0v7 M-2.5,-0.5L0,-3.0L2.5,-0.5"/>
                </g>
               <g id="resetDef">
                       <use xlink:href="#rim2" fill="#404040">
                               <set attributeName="fill" to="#808080" begin="reset.mouseover" end="reset.mouseout"/>
                       </use>
               </g>
        </defs>

<script type="text/javascript">
var viewWidth = 1264;
var viewHeight = 688;
var sectionId = 'dynsection-1';
</script>
<script xlink:href="svgpan.js"/>
<svg id="graph" class="graph">
<g id="viewport">
<title>Intercalation</title>
<!-- Node1 -->
<g id="node1" class="node"><title>Node1</title>
<polygon fill="#bfbfbf" stroke="black" points="1186,-68.2847 1186,-87.2847 1256,-87.2847 1256,-68.2847 1186,-68.2847"/>
<text text-anchor="middle" x="1221" y="-75.2847" font-family="Helvetica,sans-Serif" font-size="10.00">Intercalation</text>
</g>
<!-- Node2 -->
<g id="node2" class="node"><title>Node2</title>
<g id="a_node2"><a xlink:href="classICED_1_1HalfCell_1_1PhysicsModule.html" target="_top" xlink:title="Virtual class for physics modules. ">
<polygon fill="none" stroke="black" points="1064.5,-226.285 1064.5,-245.285 1147.5,-245.285 1147.5,-226.285 1064.5,-226.285"/>
<text text-anchor="middle" x="1106" y="-233.285" font-family="Helvetica,sans-Serif" font-size="10.00">PhysicsModule</text>
</a>
</g>
</g>
<!-- Node2&#45;&gt;Node1 -->
<g id="edge1" class="edge"><title>Node2&#45;&gt;Node1</title>
<path fill="none" stroke="midnightblue" d="M1120.09,-217.476C1144.1,-183.912 1194.39,-113.596 1212.93,-87.6646"/>
<polygon fill="midnightblue" stroke="midnightblue" points="1117.04,-215.731 1114.07,-225.901 1122.73,-219.803 1117.04,-215.731"/>
</g>
<!-- Node3 -->
<g id="node3" class="node"><title>Node3</title>
<polygon fill="none" stroke="#bfbfbf" points="649,-657.285 649,-676.285 715,-676.285 715,-657.285 649,-657.285"/>
<text text-anchor="middle" x="682" y="-664.285" font-family="Helvetica,sans-Serif" font-size="10.00">GlobalType</text>
</g>
<!-- Node3&#45;&gt;Node2 -->
<g id="edge2" class="edge"><title>Node3&#45;&gt;Node2</title>
<path fill="none" stroke="midnightblue" d="M725.226,-675.77C765.54,-681.953 826.429,-684.823 870,-657.785 1033.17,-556.53 1092.46,-298.748 1103.15,-245.498"/>
<polygon fill="midnightblue" stroke="midnightblue" points="725.63,-672.289 715.191,-674.097 724.479,-679.194 725.63,-672.289"/>
</g>
<!-- Node4 -->
<g id="node4" class="node"><title>Node4</title>
<g id="a_node4"><a xlink:href="classICED_1_1HalfCell_1_1SolutionData.html" target="_top" xlink:title="Class to hold the solution data for the electro&#45;chemical device solver. ">
<polygon fill="none" stroke="black" points="888.5,-328.285 888.5,-347.285 961.5,-347.285 961.5,-328.285 888.5,-328.285"/>
<text text-anchor="middle" x="925" y="-335.285" font-family="Helvetica,sans-Serif" font-size="10.00">SolutionData</text>
</a>
</g>
</g>
<!-- Node3&#45;&gt;Node4 -->
<g id="edge4" class="edge"><title>Node3&#45;&gt;Node4</title>
<path fill="none" stroke="midnightblue" d="M725.392,-664.564C774.182,-661.098 850.152,-652.609 870,-632.785 911.535,-591.299 921.796,-394.005 923.652,-347.582"/>
<polygon fill="midnightblue" stroke="midnightblue" points="724.87,-661.091 715.124,-665.248 725.335,-668.075 724.87,-661.091"/>
</g>
<!-- Node4&#45;&gt;Node2 -->
<g id="edge3" class="edge"><title>Node4&#45;&gt;Node2</title>
<path fill="none" stroke="#9a32cd" stroke-dasharray="5,2" d="M951.579,-323.209C988.715,-302.047 1056.56,-263.389 1088.07,-245.429"/>
<polygon fill="#9a32cd" stroke="#9a32cd" points="949.795,-320.197 942.84,-328.189 953.261,-326.279 949.795,-320.197"/>
<text text-anchor="middle" x="1013" y="-308.785" font-family="Helvetica,sans-Serif" font-size="10.00"> pSolutionData</text>
</g>
<!-- Node5 -->
<g id="node5" class="node"><title>Node5</title>
<polygon fill="none" stroke="#bfbfbf" points="486.5,-586.285 486.5,-605.285 583.5,-605.285 583.5,-586.285 486.5,-586.285"/>
<text text-anchor="middle" x="535" y="-593.285" font-family="Helvetica,sans-Serif" font-size="10.00">vector&lt; double * &gt;</text>
</g>
<!-- Node5&#45;&gt;Node4 -->
<g id="edge5" class="edge"><title>Node5&#45;&gt;Node4</title>
<path fill="none" stroke="#9a32cd" stroke-dasharray="5,2" d="M594.002,-605.893C669.084,-615.314 798.718,-618.471 870,-544.785 925.52,-487.393 925.872,-380.396 924.561,-347.596"/>
<polygon fill="#9a32cd" stroke="#9a32cd" points="594.156,-602.383 583.781,-604.529 593.23,-609.321 594.156,-602.383"/>
<text text-anchor="middle" x="682" y="-613.785" font-family="Helvetica,sans-Serif" font-size="10.00"> inputDataDouble</text>
</g>
<!-- Node6 -->
<g id="node6" class="node"><title>Node6</title>
<g id="a_node6"><a xlink:title="STL class. ">
<polygon fill="none" stroke="#bfbfbf" points="129,-288.285 129,-307.285 197,-307.285 197,-288.285 129,-288.285"/>
<text text-anchor="middle" x="163" y="-295.285" font-family="Helvetica,sans-Serif" font-size="10.00">vector&lt; T &gt;</text>
</a>
</g>
</g>
<!-- Node6&#45;&gt;Node5 -->
<g id="edge6" class="edge"><title>Node6&#45;&gt;Node5</title>
<path fill="none" stroke="orange" stroke-dasharray="5,2" d="M164.651,-317.667C167.119,-359.424 178.823,-456.758 234,-509.785 303.341,-576.424 420.75,-591.997 486.234,-595.283"/>
<polygon fill="orange" stroke="orange" points="168.137,-317.271 164.172,-307.446 161.144,-317.599 168.137,-317.271"/>
<text text-anchor="middle" x="279" y="-564.785" font-family="Helvetica,sans-Serif" font-size="10.00"> &lt; double * &gt;</text>
</g>
<!-- Node8 -->
<g id="node8" class="node"><title>Node8</title>
<polygon fill="none" stroke="#bfbfbf" points="495.5,-535.285 495.5,-554.285 574.5,-554.285 574.5,-535.285 495.5,-535.285"/>
<text text-anchor="middle" x="535" y="-542.285" font-family="Helvetica,sans-Serif" font-size="10.00">vector&lt; int * &gt;</text>
</g>
<!-- Node6&#45;&gt;Node8 -->
<g id="edge9" class="edge"><title>Node6&#45;&gt;Node8</title>
<path fill="none" stroke="orange" stroke-dasharray="5,2" d="M168.582,-317.471C176.653,-347.907 196.246,-406.355 234,-439.785 310.532,-507.552 433.395,-532.225 495.46,-540.686"/>
<polygon fill="orange" stroke="orange" points="171.94,-316.475 166.117,-307.624 165.15,-318.174 171.94,-316.475"/>
<text text-anchor="middle" x="279" y="-497.785" font-family="Helvetica,sans-Serif" font-size="10.00"> &lt; int * &gt;</text>
</g>
<!-- Node10 -->
<g id="node10" class="node"><title>Node10</title>
<polygon fill="none" stroke="#bfbfbf" points="355,-338.285 355,-357.285 445,-357.285 445,-338.285 355,-338.285"/>
<text text-anchor="middle" x="400" y="-345.285" font-family="Helvetica,sans-Serif" font-size="10.00">vector&lt; double &gt;</text>
</g>
<!-- Node6&#45;&gt;Node10 -->
<g id="edge12" class="edge"><title>Node6&#45;&gt;Node10</title>
<path fill="none" stroke="orange" stroke-dasharray="5,2" d="M207.083,-306.951C249.02,-315.874 312.452,-329.37 354.775,-338.375"/>
<polygon fill="orange" stroke="orange" points="207.681,-303.5 197.171,-304.842 206.224,-310.347 207.681,-303.5"/>
<text text-anchor="middle" x="279" y="-334.785" font-family="Helvetica,sans-Serif" font-size="10.00"> &lt; double &gt;</text>
</g>
<!-- Node9 -->
<g id="node9" class="node"><title>Node9</title>
<polygon fill="none" stroke="#bfbfbf" points="632.5,-507.785 632.5,-537.785 731.5,-537.785 731.5,-507.785 632.5,-507.785"/>
<text text-anchor="start" x="640.5" y="-525.785" font-family="Helvetica,sans-Serif" font-size="10.00">vector&lt; std::vector</text>
<text text-anchor="middle" x="682" y="-514.785" font-family="Helvetica,sans-Serif" font-size="10.00">&lt; double &gt; &gt;</text>
</g>
<!-- Node6&#45;&gt;Node9 -->
<g id="edge13" class="edge"><title>Node6&#45;&gt;Node9</title>
<path fill="none" stroke="orange" stroke-dasharray="5,2" d="M183.956,-313.659C197.535,-323.972 216.204,-337.226 234,-346.785 372.132,-420.98 548.453,-481.119 632.377,-507.833"/>
<polygon fill="orange" stroke="orange" points="185.88,-310.722 175.828,-307.374 181.598,-316.26 185.88,-310.722"/>
<text text-anchor="middle" x="400" y="-448.785" font-family="Helvetica,sans-Serif" font-size="10.00"> &lt; std::vector&lt; double &gt; &gt;</text>
</g>
<!-- Node11 -->
<g id="node11" class="node"><title>Node11</title>
<polygon fill="none" stroke="#bfbfbf" points="632.5,-289.785 632.5,-319.785 731.5,-319.785 731.5,-289.785 632.5,-289.785"/>
<text text-anchor="start" x="640.5" y="-307.785" font-family="Helvetica,sans-Serif" font-size="10.00">vector&lt; std::vector</text>
<text text-anchor="middle" x="682" y="-296.785" font-family="Helvetica,sans-Serif" font-size="10.00">&lt; double &gt; * &gt;</text>
</g>
<!-- Node6&#45;&gt;Node11 -->
<g id="edge16" class="edge"><title>Node6&#45;&gt;Node11</title>
<path fill="none" stroke="orange" stroke-dasharray="5,2" d="M207.306,-298.371C302.927,-299.666 531.562,-302.761 632.124,-304.123"/>
<polygon fill="orange" stroke="orange" points="207.174,-294.869 197.127,-298.233 207.079,-301.868 207.174,-294.869"/>
<text text-anchor="start" x="351.5" y="-315.785" font-family="Helvetica,sans-Serif" font-size="10.00"> &lt; std::vector&lt; double</text>
<text text-anchor="middle" x="400" y="-304.785" font-family="Helvetica,sans-Serif" font-size="10.00"> &gt; * &gt;</text>
</g>
<!-- Node12 -->
<g id="node12" class="node"><title>Node12</title>
<polygon fill="none" stroke="#bfbfbf" points="499,-241.285 499,-260.285 571,-260.285 571,-241.285 499,-241.285"/>
<text text-anchor="middle" x="535" y="-248.285" font-family="Helvetica,sans-Serif" font-size="10.00">vector&lt; int &gt;</text>
</g>
<!-- Node6&#45;&gt;Node12 -->
<g id="edge18" class="edge"><title>Node6&#45;&gt;Node12</title>
<path fill="none" stroke="orange" stroke-dasharray="5,2" d="M195.416,-284.526C207.3,-280.056 221.078,-275.513 234,-272.785 328.273,-252.877 442.484,-250.237 498.928,-250.316"/>
<polygon fill="orange" stroke="orange" points="193.984,-281.328 185.939,-288.222 196.528,-287.849 193.984,-281.328"/>
<text text-anchor="middle" x="279" y="-275.785" font-family="Helvetica,sans-Serif" font-size="10.00"> &lt; int &gt;</text>
</g>
<!-- Node13 -->
<g id="node13" class="node"><title>Node13</title>
<polygon fill="none" stroke="#bfbfbf" points="476.5,-192.285 476.5,-233.285 593.5,-233.285 593.5,-192.285 476.5,-192.285"/>
<text text-anchor="start" x="484.5" y="-221.285" font-family="Helvetica,sans-Serif" font-size="10.00">vector&lt; std::vector</text>
<text text-anchor="start" x="484.5" y="-210.285" font-family="Helvetica,sans-Serif" font-size="10.00">&lt; std::vector&lt; std::</text>
<text text-anchor="middle" x="535" y="-199.285" font-family="Helvetica,sans-Serif" font-size="10.00">vector&lt; double &gt; &gt; &gt; &gt;</text>
</g>
<!-- Node6&#45;&gt;Node13 -->
<g id="edge20" class="edge"><title>Node6&#45;&gt;Node13</title>
<path fill="none" stroke="orange" stroke-dasharray="5,2" d="M174.803,-279.636C186.731,-261.519 207.765,-234.709 234,-222.785 312.042,-187.314 413.66,-193.3 476.331,-202.11"/>
<polygon fill="orange" stroke="orange" points="171.782,-277.865 169.416,-288.192 177.706,-281.594 171.782,-277.865"/>
<text text-anchor="start" x="234.5" y="-247.785" font-family="Helvetica,sans-Serif" font-size="10.00"> &lt; std::vector&lt; std</text>
<text text-anchor="start" x="234.5" y="-236.785" font-family="Helvetica,sans-Serif" font-size="10.00">::vector&lt; std::vector</text>
<text text-anchor="middle" x="279" y="-225.785" font-family="Helvetica,sans-Serif" font-size="10.00">&lt; double &gt; &gt; &gt; &gt;</text>
</g>
<!-- Node14 -->
<g id="node14" class="node"><title>Node14</title>
<polygon fill="none" stroke="#bfbfbf" points="629.5,-144.285 629.5,-163.285 734.5,-163.285 734.5,-144.285 629.5,-144.285"/>
<text text-anchor="middle" x="682" y="-151.285" font-family="Helvetica,sans-Serif" font-size="10.00">vector&lt; std::string &gt;</text>
</g>
<!-- Node6&#45;&gt;Node14 -->
<g id="edge24" class="edge"><title>Node6&#45;&gt;Node14</title>
<path fill="none" stroke="orange" stroke-dasharray="5,2" d="M171.275,-278.875C181.455,-255.194 202.332,-215.361 234,-195.785 250.617,-185.513 515.398,-165.568 629.424,-157.402"/>
<polygon fill="orange" stroke="orange" points="168.004,-277.628 167.459,-288.209 174.483,-280.277 168.004,-277.628"/>
<text text-anchor="middle" x="400" y="-183.785" font-family="Helvetica,sans-Serif" font-size="10.00"> &lt; std::string &gt;</text>
</g>
<!-- Node7 -->
<g id="node7" class="node"><title>Node7</title>
<polygon fill="none" stroke="#bfbfbf" points="0.5,-133.285 0.5,-152.285 29.5,-152.285 29.5,-133.285 0.5,-133.285"/>
<text text-anchor="middle" x="15" y="-140.285" font-family="Helvetica,sans-Serif" font-size="10.00">T</text>
</g>
<!-- Node7&#45;&gt;Node6 -->
<g id="edge7" class="edge"><title>Node7&#45;&gt;Node6</title>
<path fill="none" stroke="#9a32cd" stroke-dasharray="5,2" d="M32.1301,-159.909C62.819,-192.49 128.703,-262.435 152.87,-288.092"/>
<polygon fill="#9a32cd" stroke="#9a32cd" points="34.5373,-157.36 25.133,-152.481 29.4418,-162.16 34.5373,-157.36"/>
<text text-anchor="middle" x="70" y="-223.785" font-family="Helvetica,sans-Serif" font-size="10.00"> elements</text>
</g>
<!-- Node18 -->
<g id="node18" class="node"><title>Node18</title>
<g id="a_node18"><a xlink:title="STL class. ">
<polygon fill="none" stroke="#bfbfbf" points="373.5,-68.2847 373.5,-87.2847 426.5,-87.2847 426.5,-68.2847 373.5,-68.2847"/>
<text text-anchor="middle" x="400" y="-75.2847" font-family="Helvetica,sans-Serif" font-size="10.00">list&lt; T &gt;</text>
</a>
</g>
</g>
<!-- Node7&#45;&gt;Node18 -->
<g id="edge29" class="edge"><title>Node7&#45;&gt;Node18</title>
<path fill="none" stroke="#9a32cd" stroke-dasharray="5,2" d="M37.9992,-127.497C56.3399,-115.66 83.6374,-100.091 110,-92.7847 204.17,-66.6866 322.069,-71.5867 373.281,-75.4472"/>
<polygon fill="#9a32cd" stroke="#9a32cd" points="35.9192,-124.676 29.5178,-133.118 39.7868,-130.511 35.9192,-124.676"/>
<text text-anchor="middle" x="163" y="-95.7847" font-family="Helvetica,sans-Serif" font-size="10.00"> elements</text>
</g>
<!-- Node8&#45;&gt;Node4 -->
<g id="edge8" class="edge"><title>Node8&#45;&gt;Node4</title>
<path fill="none" stroke="#9a32cd" stroke-dasharray="5,2" d="M584.521,-555.711C657.739,-569.027 795.777,-581.208 870,-504.785 914.582,-458.881 922.359,-375.912 923.714,-347.577"/>
<polygon fill="#9a32cd" stroke="#9a32cd" points="585.11,-552.261 574.633,-553.834 583.804,-559.138 585.11,-552.261"/>
<text text-anchor="middle" x="682" y="-567.785" font-family="Helvetica,sans-Serif" font-size="10.00"> inputDataInt</text>
</g>
<!-- Node9&#45;&gt;Node4 -->
<g id="edge10" class="edge"><title>Node9&#45;&gt;Node4</title>
<path fill="none" stroke="#9a32cd" stroke-dasharray="5,2" d="M732.641,-503.534C739.328,-500.274 745.958,-496.672 752,-492.785 822.311,-447.54 891.913,-373.494 915.543,-347.317"/>
<polygon fill="#9a32cd" stroke="#9a32cd" points="731.132,-500.375 723.536,-507.761 734.08,-506.724 731.132,-500.375"/>
<text text-anchor="middle" x="820" y="-492.785" font-family="Helvetica,sans-Serif" font-size="10.00"> function</text>
<text text-anchor="middle" x="820" y="-481.785" font-family="Helvetica,sans-Serif" font-size="10.00">solutionData</text>
</g>
<!-- Node10&#45;&gt;Node9 -->
<g id="edge11" class="edge"><title>Node10&#45;&gt;Node9</title>
<path fill="none" stroke="#9a32cd" stroke-dasharray="5,2" d="M440.529,-360.3C451.942,-363.807 464.437,-367.544 476,-370.785 528.105,-385.388 556.818,-361.47 594,-400.785 622.628,-431.055 585.901,-460.308 612,-492.785 617.4,-499.505 624.602,-504.754 632.318,-508.844"/>
<polygon fill="#9a32cd" stroke="#9a32cd" points="441.416,-356.911 430.828,-357.296 439.345,-363.598 441.416,-356.911"/>
<text text-anchor="middle" x="535" y="-403.785" font-family="Helvetica,sans-Serif" font-size="10.00"> elements</text>
</g>
<!-- Node10&#45;&gt;Node11 -->
<g id="edge15" class="edge"><title>Node10&#45;&gt;Node11</title>
<path fill="none" stroke="#9a32cd" stroke-dasharray="5,2" d="M452.937,-336.148C460.65,-334.581 468.519,-333.073 476,-331.785 529.242,-322.614 590.734,-314.895 632.375,-310.089"/>
<polygon fill="#9a32cd" stroke="#9a32cd" points="452.012,-332.765 442.934,-338.226 453.436,-339.619 452.012,-332.765"/>
<text text-anchor="middle" x="535" y="-334.785" font-family="Helvetica,sans-Serif" font-size="10.00"> elements</text>
</g>
<!-- Node10&#45;&gt;Node4 -->
<g id="edge25" class="edge"><title>Node10&#45;&gt;Node4</title>
<path fill="none" stroke="#9a32cd" stroke-dasharray="5,2" d="M455.208,-348.642C542.586,-349.701 719.964,-350.518 870,-342.785 875.924,-342.479 882.202,-342.022 888.302,-341.505"/>
<polygon fill="#9a32cd" stroke="#9a32cd" points="455.05,-345.14 445.006,-348.512 454.961,-352.139 455.05,-345.14"/>
<text text-anchor="middle" x="682" y="-473.785" font-family="Helvetica,sans-Serif" font-size="10.00"> xCoords</text>
<text text-anchor="middle" x="682" y="-462.785" font-family="Helvetica,sans-Serif" font-size="10.00">activityCoefficientDer</text>
<text text-anchor="middle" x="682" y="-451.785" font-family="Helvetica,sans-Serif" font-size="10.00">activityCoefficients</text>
<text text-anchor="middle" x="682" y="-440.785" font-family="Helvetica,sans-Serif" font-size="10.00">transferenceNumberDerDer</text>
<text text-anchor="middle" x="682" y="-429.785" font-family="Helvetica,sans-Serif" font-size="10.00">concentrationDiffusionDerDer</text>
<text text-anchor="middle" x="682" y="-418.785" font-family="Helvetica,sans-Serif" font-size="10.00">activityCoefficientDerDer</text>
<text text-anchor="start" x="612.5" y="-407.785" font-family="Helvetica,sans-Serif" font-size="10.00">diffusionElectrolyteConductivity</text>
<text text-anchor="middle" x="682" y="-396.785" font-family="Helvetica,sans-Serif" font-size="10.00">Der</text>
<text text-anchor="middle" x="682" y="-385.785" font-family="Helvetica,sans-Serif" font-size="10.00">transferenceNumber</text>
<text text-anchor="middle" x="682" y="-374.785" font-family="Helvetica,sans-Serif" font-size="10.00">concentrationDiffusionDer</text>
<text text-anchor="middle" x="682" y="-363.785" font-family="Helvetica,sans-Serif" font-size="10.00">openCircuitPotentialVector</text>
<text text-anchor="middle" x="682" y="-352.785" font-family="Helvetica,sans-Serif" font-size="10.00">...</text>
</g>
<!-- Node19 -->
<g id="node19" class="node"><title>Node19</title>
<polygon fill="none" stroke="#bfbfbf" points="636.5,-18.7847 636.5,-48.7847 727.5,-48.7847 727.5,-18.7847 636.5,-18.7847"/>
<text text-anchor="start" x="644.5" y="-36.7847" font-family="Helvetica,sans-Serif" font-size="10.00">list&lt; std::vector&lt;</text>
<text text-anchor="middle" x="682" y="-25.7847" font-family="Helvetica,sans-Serif" font-size="10.00"> double &gt; &gt;</text>
</g>
<!-- Node10&#45;&gt;Node19 -->
<g id="edge31" class="edge"><title>Node10&#45;&gt;Node19</title>
<path fill="none" stroke="#9a32cd" stroke-dasharray="5,2" d="M448.813,-332.929C452.329,-330.351 455.479,-327.328 458,-323.785 494.016,-273.16 431.831,-88.4781 476,-44.7847 497.791,-23.2282 582.841,-25.6727 636.308,-29.5978"/>
<polygon fill="#9a32cd" stroke="#9a32cd" points="446.841,-330.031 440.064,-338.175 450.441,-336.034 446.841,-330.031"/>
<text text-anchor="middle" x="535" y="-47.7847" font-family="Helvetica,sans-Serif" font-size="10.00"> elements</text>
</g>
<!-- Node11&#45;&gt;Node4 -->
<g id="edge14" class="edge"><title>Node11&#45;&gt;Node4</title>
<path fill="none" stroke="#9a32cd" stroke-dasharray="5,2" d="M741.86,-312.844C787.636,-319.112 849.653,-327.604 888.225,-332.886"/>
<polygon fill="#9a32cd" stroke="#9a32cd" points="742.152,-309.352 731.77,-311.463 741.203,-316.287 742.152,-309.352"/>
<text text-anchor="middle" x="820" y="-333.785" font-family="Helvetica,sans-Serif" font-size="10.00"> inputDataVector</text>
</g>
<!-- Node12&#45;&gt;Node4 -->
<g id="edge17" class="edge"><title>Node12&#45;&gt;Node4</title>
<path fill="none" stroke="#9a32cd" stroke-dasharray="5,2" d="M581.503,-247.03C625.704,-244.599 694.389,-244.06 752,-257.785 813.51,-272.438 879.505,-310.112 908.658,-328.032"/>
<polygon fill="#9a32cd" stroke="#9a32cd" points="581.133,-243.546 571.363,-247.645 581.557,-250.533 581.133,-243.546"/>
<text text-anchor="middle" x="682" y="-271.785" font-family="Helvetica,sans-Serif" font-size="10.00"> iFirstGlobalDevice</text>
<text text-anchor="middle" x="682" y="-260.785" font-family="Helvetica,sans-Serif" font-size="10.00">iLastGlobalDevice</text>
</g>
<!-- Node13&#45;&gt;Node4 -->
<g id="edge19" class="edge"><title>Node13&#45;&gt;Node4</title>
<path fill="none" stroke="#9a32cd" stroke-dasharray="5,2" d="M604.159,-205.504C676.501,-201.359 791.054,-205.413 870,-259.785 895.637,-277.441 912.852,-311.541 920.108,-328.181"/>
<polygon fill="#9a32cd" stroke="#9a32cd" points="603.556,-202.035 593.801,-206.17 604.005,-209.021 603.556,-202.035"/>
<text text-anchor="middle" x="682" y="-216.785" font-family="Helvetica,sans-Serif" font-size="10.00"> jacobian</text>
</g>
<!-- Node14&#45;&gt;Node4 -->
<g id="edge21" class="edge"><title>Node14&#45;&gt;Node4</title>
<path fill="none" stroke="#9a32cd" stroke-dasharray="5,2" d="M721.881,-141.614C762.955,-131.341 827.535,-122.863 870,-154.785 898.729,-176.381 917.553,-292.854 922.622,-327.841"/>
<polygon fill="#9a32cd" stroke="#9a32cd" points="720.742,-138.295 711.973,-144.241 722.536,-145.062 720.742,-138.295"/>
<text text-anchor="middle" x="820" y="-179.785" font-family="Helvetica,sans-Serif" font-size="10.00"> inputDataIntString</text>
<text text-anchor="middle" x="820" y="-168.785" font-family="Helvetica,sans-Serif" font-size="10.00">inputDataVectorString</text>
<text text-anchor="middle" x="820" y="-157.785" font-family="Helvetica,sans-Serif" font-size="10.00">inputDataDoubleString</text>
</g>
<!-- Node15 -->
<g id="node15" class="node"><title>Node15</title>
<g id="a_node15"><a xlink:title="STL class. ">
<polygon fill="none" stroke="#bfbfbf" points="379.5,-113.285 379.5,-132.285 420.5,-132.285 420.5,-113.285 379.5,-113.285"/>
<text text-anchor="middle" x="400" y="-120.285" font-family="Helvetica,sans-Serif" font-size="10.00">string</text>
</a>
</g>
</g>
<!-- Node15&#45;&gt;Node14 -->
<g id="edge22" class="edge"><title>Node15&#45;&gt;Node14</title>
<path fill="none" stroke="#9a32cd" stroke-dasharray="5,2" d="M430.89,-126.094C478.253,-131.338 571.138,-141.621 629.418,-148.074"/>
<polygon fill="#9a32cd" stroke="#9a32cd" points="431.014,-122.586 420.689,-124.965 430.243,-129.544 431.014,-122.586"/>
<text text-anchor="middle" x="535" y="-146.785" font-family="Helvetica,sans-Serif" font-size="10.00"> elements</text>
</g>
<!-- Node15&#45;&gt;Node2 -->
<g id="edge26" class="edge"><title>Node15&#45;&gt;Node2</title>
<path fill="none" stroke="#9a32cd" stroke-dasharray="5,2" d="M430.692,-117.588C505.634,-105.513 708.01,-79.3985 870,-117.785 961.067,-139.364 1056.98,-202.05 1091.58,-226.17"/>
<polygon fill="#9a32cd" stroke="#9a32cd" points="429.876,-114.175 420.58,-119.258 431.017,-121.081 429.876,-114.175"/>
<text text-anchor="middle" x="820" y="-120.785" font-family="Helvetica,sans-Serif" font-size="10.00"> moduleName</text>
</g>
<!-- Node16 -->
<g id="node16" class="node"><title>Node16</title>
<g id="a_node16"><a xlink:title="STL class. ">
<polygon fill="none" stroke="#bfbfbf" points="110,-113.285 110,-132.285 216,-132.285 216,-113.285 110,-113.285"/>
<text text-anchor="middle" x="163" y="-120.285" font-family="Helvetica,sans-Serif" font-size="10.00">basic_string&lt; char &gt;</text>
</a>
</g>
</g>
<!-- Node16&#45;&gt;Node15 -->
<g id="edge23" class="edge"><title>Node16&#45;&gt;Node15</title>
<path fill="none" stroke="midnightblue" d="M226.405,-122.785C277.314,-122.785 346.06,-122.785 379.334,-122.785"/>
<polygon fill="midnightblue" stroke="midnightblue" points="226.154,-119.285 216.154,-122.785 226.154,-126.285 226.154,-119.285"/>
</g>
<!-- Node17 -->
<g id="node17" class="node"><title>Node17</title>
<polygon fill="none" stroke="#bfbfbf" points="782,-68.2847 782,-87.2847 858,-87.2847 858,-68.2847 782,-68.2847"/>
<text text-anchor="middle" x="820" y="-75.2847" font-family="Helvetica,sans-Serif" font-size="10.00">list&lt; double &gt;</text>
</g>
<!-- Node17&#45;&gt;Node1 -->
<g id="edge27" class="edge"><title>Node17&#45;&gt;Node1</title>
<path fill="none" stroke="#9a32cd" stroke-dasharray="5,2" d="M868.65,-77.7847C950.233,-77.7847 1114.74,-77.7847 1185.91,-77.7847"/>
<polygon fill="#9a32cd" stroke="#9a32cd" points="868.179,-74.2848 858.179,-77.7847 868.179,-81.2848 868.179,-74.2848"/>
<text text-anchor="middle" x="1013" y="-91.7847" font-family="Helvetica,sans-Serif" font-size="10.00"> aTK</text>
<text text-anchor="middle" x="1013" y="-80.7847" font-family="Helvetica,sans-Serif" font-size="10.00">prevTime</text>
</g>
<!-- Node18&#45;&gt;Node17 -->
<g id="edge28" class="edge"><title>Node18&#45;&gt;Node17</title>
<path fill="none" stroke="orange" stroke-dasharray="5,2" d="M436.872,-77.7847C515.499,-77.7847 702.336,-77.7847 781.992,-77.7847"/>
<polygon fill="orange" stroke="orange" points="436.519,-74.2848 426.519,-77.7847 436.519,-81.2848 436.519,-74.2848"/>
<text text-anchor="middle" x="535" y="-80.7847" font-family="Helvetica,sans-Serif" font-size="10.00"> &lt; double &gt;</text>
</g>
<!-- Node18&#45;&gt;Node19 -->
<g id="edge32" class="edge"><title>Node18&#45;&gt;Node19</title>
<path fill="none" stroke="orange" stroke-dasharray="5,2" d="M414.5,-59.84C428.001,-43.5251 450.4,-20.5542 476,-10.7847 530.707,10.0925 599.154,-5.07941 641.476,-18.7692"/>
<polygon fill="orange" stroke="orange" points="411.425,-58.0841 407.951,-68.093 416.908,-62.4354 411.425,-58.0841"/>
<text text-anchor="middle" x="535" y="-13.7847" font-family="Helvetica,sans-Serif" font-size="10.00"> &lt; std::vector&lt; double &gt; &gt;</text>
</g>
<!-- Node19&#45;&gt;Node1 -->
<g id="edge30" class="edge"><title>Node19&#45;&gt;Node1</title>
<path fill="none" stroke="#9a32cd" stroke-dasharray="5,2" d="M737.78,-38.0534C808.856,-43.6167 936.706,-53.7081 1046,-62.7847 1094.65,-66.8248 1150.93,-71.7161 1186,-74.7899"/>
<polygon fill="#9a32cd" stroke="#9a32cd" points="737.957,-34.5567 727.714,-37.2661 737.411,-41.5354 737.957,-34.5567"/>
<text text-anchor="middle" x="1013" y="-65.7847" font-family="Helvetica,sans-Serif" font-size="10.00"> prevConcS</text>
</g>
</g>
</svg>
        <g id="navigator" transform="translate(0 0)" fill="#404254">
                <rect fill="#f2f5e9" fill-opacity="0.5" stroke="#606060" stroke-width=".5" x="0" y="0" width="60" height="60"/>
                <use id="zoomplus" xlink:href="#zoomPlus" x="17" y="9" onmousedown="handleZoom(evt,'in')"/>
                <use id="zoomminus" xlink:href="#zoomMin" x="42" y="9" onmousedown="handleZoom(evt,'out')"/>
                <use id="reset" xlink:href="#resetDef" x="30" y="36" onmousedown="handleReset()"/>
                <g id="arrowUp" xlink:href="#dirArrow" transform="translate(30 24)" onmousedown="handlePan(0,-1)">
                  <use xlink:href="#rim" fill="#404040">
                        <set attributeName="fill" to="#808080" begin="arrowUp.mouseover" end="arrowUp.mouseout"/>
                  </use>
                  <path fill="none" stroke="white" stroke-width="1.5" d="M0,-3.0v7 M-2.5,-0.5L0,-3.0L2.5,-0.5"/>
                </g>
                <g id="arrowRight" xlink:href="#dirArrow" transform="rotate(90) translate(36 -43)" onmousedown="handlePan(1,0)">
                  <use xlink:href="#rim" fill="#404040">
                        <set attributeName="fill" to="#808080" begin="arrowRight.mouseover" end="arrowRight.mouseout"/>
                  </use>
                  <path fill="none" stroke="white" stroke-width="1.5" d="M0,-3.0v7 M-2.5,-0.5L0,-3.0L2.5,-0.5"/>
                </g>
                <g id="arrowDown" xlink:href="#dirArrow" transform="rotate(180) translate(-30 -48)" onmousedown="handlePan(0,1)">
                  <use xlink:href="#rim" fill="#404040">
                        <set attributeName="fill" to="#808080" begin="arrowDown.mouseover" end="arrowDown.mouseout"/>
                  </use>
                  <path fill="none" stroke="white" stroke-width="1.5" d="M0,-3.0v7 M-2.5,-0.5L0,-3.0L2.5,-0.5"/>
                </g>
                <g id="arrowLeft" xlink:href="#dirArrow" transform="rotate(270) translate(-36 17)" onmousedown="handlePan(-1,0)">
                  <use xlink:href="#rim" fill="#404040">
                        <set attributeName="fill" to="#808080" begin="arrowLeft.mouseover" end="arrowLeft.mouseout"/>
                  </use>
                  <path fill="none" stroke="white" stroke-width="1.5" d="M0,-3.0v7 M-2.5,-0.5L0,-3.0L2.5,-0.5"/>
                </g>
        </g>
        <svg viewBox="0 0 15 15" width="100%" height="30px" preserveAspectRatio="xMaxYMin meet">
         <g id="arrow_out" transform="scale(0.3 0.3)">
          <a xlink:href="classICED_1_1HalfCell_1_1Intercalation__coll__graph_org.svg" target="_base">
           <rect id="button" ry="5" rx="5" y="6" x="6" height="38" width="38"
                fill="#f2f5e9" fill-opacity="0.5" stroke="#606060" stroke-width="1.0"/>
           <path id="arrow"
             d="M 11.500037,31.436501 C 11.940474,20.09759 22.043105,11.32322 32.158766,21.979434 L 37.068811,17.246167 C 37.068811,17.246167 37.088388,32 37.088388,32 L 22.160133,31.978069 C 22.160133,31.978069 26.997745,27.140456 26.997745,27.140456 C 18.528582,18.264221 13.291696,25.230495 11.500037,31.436501 z"
             style="fill:#404040;"/>
          </a>
         </g>
        </svg>
</svg>
