<?xml version="1.0" encoding="UTF-8" standalone="no"?>
<!DOCTYPE svg PUBLIC "-//W3C//DTD SVG 1.1//EN"
 "http://www.w3.org/Graphics/SVG/1.1/DTD/svg11.dtd">
<!-- Generated by graphviz version 2.30.1 (20150305.2338)
 -->
<!-- Title: DeviceComponent.hpp Pages: 1 -->
<!--zoomable 196 -->
<svg id="main" version="1.1" xmlns="http://www.w3.org/2000/svg" xmlns:xlink="http://www.w3.org/1999/xlink" xml:space="preserve" onload="init(evt)">
<style type="text/css"><![CDATA[
.edge:hover path { stroke: red; }
.edge:hover polygon { stroke: red; fill: red; }
]]></style>
<script type="text/javascript"><![CDATA[
var edges = document.getElementsByTagName('g');
if (edges && edges.length) {
  for (var i=0;i<edges.length;i++) {
    if (edges[i].id.substr(0,4)=='edge') {
      edges[i].setAttribute('class','edge');
    }
  }
}
]]></script>
        <defs>
                <circle id="rim" cx="0" cy="0" r="7"/>
                <circle id="rim2" cx="0" cy="0" r="3.5"/>
                <g id="zoomPlus">
                        <use xlink:href="#rim" fill="#404040">
                                <set attributeName="fill" to="#808080" begin="zoomplus.mouseover" end="zoomplus.mouseout"/>
                        </use>
                        <path d="M-4,0h8M0,-4v8" fill="none" stroke="white" stroke-width="1.5" pointer-events="none"/>
                </g>
                <g id="zoomMin">
                        <use xlink:href="#rim" fill="#404040">
                                <set attributeName="fill" to="#808080" begin="zoomminus.mouseover" end="zoomminus.mouseout"/>
                        </use>
                        <path d="M-4,0h8" fill="none" stroke="white" stroke-width="1.5" pointer-events="none"/>
                </g>
                <g id="dirArrow">
                        <path fill="none" stroke="white" stroke-width="1.5" d="M0,-3.0v7 M-2.5,-0.5L0,-3.0L2.5,-0.5"/>
                </g>
               <g id="resetDef">
                       <use xlink:href="#rim2" fill="#404040">
                               <set attributeName="fill" to="#808080" begin="reset.mouseover" end="reset.mouseout"/>
                       </use>
               </g>
        </defs>

<script type="text/javascript">
var viewWidth = 1004;
var viewHeight = 196;
var sectionId = 'dynsection-0';
</script>
<script xlink:href="svgpan.js"/>
<svg id="graph" class="graph">
<g id="viewport">
<title>DeviceComponent.hpp</title>
<!-- Node1 -->
<g id="node1" class="node"><title>Node1</title>
<polygon fill="#bfbfbf" stroke="black" points="406,-168.5 406,-187.5 522,-187.5 522,-168.5 406,-168.5"/>
<text text-anchor="middle" x="464" y="-175.5" font-family="Helvetica,sans-Serif" font-size="10.00">DeviceComponent.hpp</text>
</g>
<!-- Node2 -->
<g id="node2" class="node"><title>Node2</title>
<polygon fill="none" stroke="#bfbfbf" points="239.5,-56.5 239.5,-75.5 316.5,-75.5 316.5,-56.5 239.5,-56.5"/>
<text text-anchor="middle" x="278" y="-63.5" font-family="Helvetica,sans-Serif" font-size="10.00">Parameters.H</text>
</g>
<!-- Node1&#45;&gt;Node2 -->
<g id="edge1" class="edge"><title>Node1&#45;&gt;Node2</title>
<path fill="none" stroke="midnightblue" d="M449.405,-168.368C417.351,-149.412 340.565,-104.001 301.575,-80.9424"/>
<polygon fill="midnightblue" stroke="midnightblue" points="302.916,-77.6693 292.527,-75.5914 299.353,-83.6945 302.916,-77.6693"/>
</g>
<!-- Node3 -->
<g id="node3" class="node"><title>Node3</title>
<g id="a_node3"><a xlink:href="HalfCell_8hpp.html" target="_top" xlink:title="Program interface for the monolithic battery simulation software. ">
<polygon fill="none" stroke="black" points="28.5,-56.5 28.5,-75.5 99.5,-75.5 99.5,-56.5 28.5,-56.5"/>
<text text-anchor="middle" x="64" y="-63.5" font-family="Helvetica,sans-Serif" font-size="10.00">HalfCell.hpp</text>
</a>
</g>
</g>
<!-- Node1&#45;&gt;Node3 -->
<g id="edge2" class="edge"><title>Node1&#45;&gt;Node3</title>
<path fill="none" stroke="midnightblue" d="M405.754,-177.433C312.127,-176.945 133.799,-170.769 86,-132 72.2858,-120.877 67.0773,-100.845 65.1225,-85.9484"/>
<polygon fill="midnightblue" stroke="midnightblue" points="68.5887,-85.4226 64.1749,-75.791 61.619,-86.0729 68.5887,-85.4226"/>
</g>
<!-- Node6 -->
<g id="node6" class="node"><title>Node6</title>
<g id="a_node6"><a xlink:href="SolutionData_8hpp.html" target="_top" xlink:title="C++ header file for the SolutionData class. ">
<polygon fill="none" stroke="black" points="418,-112.5 418,-131.5 510,-131.5 510,-112.5 418,-112.5"/>
<text text-anchor="middle" x="464" y="-119.5" font-family="Helvetica,sans-Serif" font-size="10.00">SolutionData.hpp</text>
</a>
</g>
</g>
<!-- Node1&#45;&gt;Node6 -->
<g id="edge5" class="edge"><title>Node1&#45;&gt;Node6</title>
<path fill="none" stroke="midnightblue" d="M464,-168.083C464,-161.006 464,-150.861 464,-141.986"/>
<polygon fill="midnightblue" stroke="midnightblue" points="467.5,-141.751 464,-131.751 460.5,-141.751 467.5,-141.751"/>
</g>
<!-- Node15 -->
<g id="node15" class="node"><title>Node15</title>
<g id="a_node15"><a xlink:href="PhysicsModule_8hpp.html" target="_top" xlink:title="C++ header file for the ElectrodeSolver class. ">
<polygon fill="none" stroke="black" points="95,-112.5 95,-131.5 197,-131.5 197,-112.5 95,-112.5"/>
<text text-anchor="middle" x="146" y="-119.5" font-family="Helvetica,sans-Serif" font-size="10.00">PhysicsModule.hpp</text>
</a>
</g>
</g>
<!-- Node1&#45;&gt;Node15 -->
<g id="edge16" class="edge"><title>Node1&#45;&gt;Node15</title>
<path fill="none" stroke="midnightblue" d="M413.612,-168.444C357.324,-158.885 266.248,-143.419 206.242,-133.23"/>
<polygon fill="midnightblue" stroke="midnightblue" points="206.597,-129.74 196.152,-131.516 205.425,-136.641 206.597,-129.74"/>
</g>
<!-- Node7 -->
<g id="node7" class="node"><title>Node7</title>
<polygon fill="none" stroke="#bfbfbf" points="334.5,-56.5 334.5,-75.5 447.5,-75.5 447.5,-56.5 334.5,-56.5"/>
<text text-anchor="middle" x="391" y="-63.5" font-family="Helvetica,sans-Serif" font-size="10.00">Epetra_SerialComm.h</text>
</g>
<!-- Node1&#45;&gt;Node7 -->
<g id="edge20" class="edge"><title>Node1&#45;&gt;Node7</title>
<path fill="none" stroke="midnightblue" d="M448.966,-168.376C436.48,-160.459 419.172,-147.607 409,-132 399.909,-118.052 395.364,-99.5458 393.119,-85.848"/>
<polygon fill="midnightblue" stroke="midnightblue" points="396.551,-85.1105 391.726,-75.6783 389.616,-86.0609 396.551,-85.1105"/>
</g>
<!-- Node8 -->
<g id="node8" class="node"><title>Node8</title>
<polygon fill="none" stroke="#bfbfbf" points="590.5,-56.5 590.5,-75.5 667.5,-75.5 667.5,-56.5 590.5,-56.5"/>
<text text-anchor="middle" x="629" y="-63.5" font-family="Helvetica,sans-Serif" font-size="10.00">Epetra_Map.h</text>
</g>
<!-- Node1&#45;&gt;Node8 -->
<g id="edge21" class="edge"><title>Node1&#45;&gt;Node8</title>
<path fill="none" stroke="midnightblue" d="M476.947,-168.368C505.261,-149.492 572.923,-104.385 607.645,-81.2367"/>
<polygon fill="midnightblue" stroke="midnightblue" points="609.734,-84.0506 616.113,-75.5914 605.851,-78.2263 609.734,-84.0506"/>
</g>
<!-- Node9 -->
<g id="node9" class="node"><title>Node9</title>
<polygon fill="none" stroke="#bfbfbf" points="685.5,-56.5 685.5,-75.5 772.5,-75.5 772.5,-56.5 685.5,-56.5"/>
<text text-anchor="middle" x="729" y="-63.5" font-family="Helvetica,sans-Serif" font-size="10.00">Epetra_Vector.h</text>
</g>
<!-- Node1&#45;&gt;Node9 -->
<g id="edge22" class="edge"><title>Node1&#45;&gt;Node9</title>
<path fill="none" stroke="midnightblue" d="M483.063,-168.425C502.7,-159.529 534.141,-145.111 561,-132 578.505,-123.455 582.094,-119.671 600,-112 630.027,-99.1366 665.08,-87.0901 691.062,-78.7042"/>
<polygon fill="midnightblue" stroke="midnightblue" points="692.434,-81.9403 700.896,-75.5649 690.305,-75.2718 692.434,-81.9403"/>
</g>
<!-- Node16 -->
<g id="node16" class="node"><title>Node16</title>
<polygon fill="none" stroke="#bfbfbf" points="680,-112.5 680,-131.5 780,-131.5 780,-112.5 680,-112.5"/>
<text text-anchor="middle" x="730" y="-119.5" font-family="Helvetica,sans-Serif" font-size="10.00">Epetra_FEVector.h</text>
</g>
<!-- Node1&#45;&gt;Node16 -->
<g id="edge23" class="edge"><title>Node1&#45;&gt;Node16</title>
<path fill="none" stroke="midnightblue" d="M506.148,-168.444C552.746,-158.984 627.844,-143.738 678.045,-133.547"/>
<polygon fill="midnightblue" stroke="midnightblue" points="678.945,-136.936 688.049,-131.516 677.552,-130.076 678.945,-136.936"/>
</g>
<!-- Node10 -->
<g id="node10" class="node"><title>Node10</title>
<polygon fill="none" stroke="#bfbfbf" points="790.5,-56.5 790.5,-75.5 891.5,-75.5 891.5,-56.5 790.5,-56.5"/>
<text text-anchor="middle" x="841" y="-63.5" font-family="Helvetica,sans-Serif" font-size="10.00">Epetra_CrsMatrix.h</text>
</g>
<!-- Node1&#45;&gt;Node10 -->
<g id="edge24" class="edge"><title>Node1&#45;&gt;Node10</title>
<path fill="none" stroke="midnightblue" d="M491.655,-168.429C518.382,-159.928 559.871,-146.158 595,-132 614.549,-124.121 618.038,-118.765 638,-112 684.646,-96.1917 739.232,-84.4517 780.046,-76.9338"/>
<polygon fill="midnightblue" stroke="midnightblue" points="780.895,-80.3372 790.112,-75.1136 779.649,-73.4489 780.895,-80.3372"/>
</g>
<!-- Node17 -->
<g id="node17" class="node"><title>Node17</title>
<polygon fill="none" stroke="#bfbfbf" points="798,-112.5 798,-131.5 912,-131.5 912,-112.5 798,-112.5"/>
<text text-anchor="middle" x="855" y="-119.5" font-family="Helvetica,sans-Serif" font-size="10.00">Epetra_FECrsMatrix.h</text>
</g>
<!-- Node1&#45;&gt;Node17 -->
<g id="edge25" class="edge"><title>Node1&#45;&gt;Node17</title>
<path fill="none" stroke="midnightblue" d="M522.114,-168.974C593.024,-159.181 712.692,-142.654 787.58,-132.311"/>
<polygon fill="midnightblue" stroke="midnightblue" points="788.413,-135.729 797.84,-130.894 787.455,-128.795 788.413,-135.729"/>
</g>
<!-- Node12 -->
<g id="node12" class="node"><title>Node12</title>
<polygon fill="none" stroke="#bfbfbf" points="909.5,-56.5 909.5,-75.5 996.5,-75.5 996.5,-56.5 909.5,-56.5"/>
<text text-anchor="middle" x="953" y="-63.5" font-family="Helvetica,sans-Serif" font-size="10.00">Epetra_Export.h</text>
</g>
<!-- Node1&#45;&gt;Node12 -->
<g id="edge26" class="edge"><title>Node1&#45;&gt;Node12</title>
<path fill="none" stroke="midnightblue" d="M504.531,-168.479C538.802,-160.709 588.901,-148.011 631,-132 649.578,-124.934 652.07,-118.059 671,-112 766.057,-81.5728 796.43,-91.9148 899.162,-76.0754"/>
<polygon fill="midnightblue" stroke="midnightblue" points="900.008,-79.485 909.334,-74.4586 898.909,-72.5718 900.008,-79.485"/>
</g>
<!-- Node13 -->
<g id="node13" class="node"><title>Node13</title>
<polygon fill="none" stroke="#bfbfbf" points="118,-56.5 118,-75.5 162,-75.5 162,-56.5 118,-56.5"/>
<text text-anchor="middle" x="140" y="-63.5" font-family="Helvetica,sans-Serif" font-size="10.00">vector</text>
</g>
<!-- Node1&#45;&gt;Node13 -->
<g id="edge27" class="edge"><title>Node1&#45;&gt;Node13</title>
<path fill="none" stroke="midnightblue" d="M428.899,-168.446C395.855,-160.112 345.134,-146.594 302,-132 254.393,-115.892 200.48,-93.3754 168.411,-79.5135"/>
<polygon fill="midnightblue" stroke="midnightblue" points="169.758,-76.2824 159.191,-75.5061 166.967,-82.7022 169.758,-76.2824"/>
</g>
<!-- Node14 -->
<g id="node14" class="node"><title>Node14</title>
<polygon fill="none" stroke="#bfbfbf" points="180.5,-56.5 180.5,-75.5 221.5,-75.5 221.5,-56.5 180.5,-56.5"/>
<text text-anchor="middle" x="201" y="-63.5" font-family="Helvetica,sans-Serif" font-size="10.00">string</text>
</g>
<!-- Node1&#45;&gt;Node14 -->
<g id="edge28" class="edge"><title>Node1&#45;&gt;Node14</title>
<path fill="none" stroke="midnightblue" d="M441.835,-168.399C418.994,-159.484 382.393,-145.049 351,-132 308.617,-114.383 259.923,-93.0845 229.804,-79.7864"/>
<polygon fill="midnightblue" stroke="midnightblue" points="230.899,-76.4438 220.338,-75.6002 228.068,-82.8457 230.899,-76.4438"/>
</g>
<!-- Node4 -->
<g id="node4" class="node"><title>Node4</title>
<polygon fill="none" stroke="#bfbfbf" points="-0.5,-0.5 -0.5,-19.5 54.5,-19.5 54.5,-0.5 -0.5,-0.5"/>
<text text-anchor="middle" x="27" y="-7.5" font-family="Helvetica,sans-Serif" font-size="10.00">Global.H</text>
</g>
<!-- Node3&#45;&gt;Node4 -->
<g id="edge3" class="edge"><title>Node3&#45;&gt;Node4</title>
<path fill="none" stroke="midnightblue" d="M57.8902,-56.083C52.7178,-48.5341 45.1539,-37.4948 38.8056,-28.2298"/>
<polygon fill="midnightblue" stroke="midnightblue" points="41.5357,-26.0221 32.9961,-19.7511 35.7612,-29.9787 41.5357,-26.0221"/>
</g>
<!-- Node5 -->
<g id="node5" class="node"><title>Node5</title>
<polygon fill="none" stroke="#bfbfbf" points="73,-0.5 73,-19.5 131,-19.5 131,-0.5 73,-0.5"/>
<text text-anchor="middle" x="102" y="-7.5" font-family="Helvetica,sans-Serif" font-size="10.00">Profiler.H</text>
</g>
<!-- Node3&#45;&gt;Node5 -->
<g id="edge4" class="edge"><title>Node3&#45;&gt;Node5</title>
<path fill="none" stroke="midnightblue" d="M70.2749,-56.083C75.6425,-48.4554 83.5176,-37.2645 90.0787,-27.9408"/>
<polygon fill="midnightblue" stroke="midnightblue" points="92.9492,-29.9434 95.8418,-19.7511 87.2245,-25.9149 92.9492,-29.9434"/>
</g>
<!-- Node6&#45;&gt;Node2 -->
<g id="edge6" class="edge"><title>Node6&#45;&gt;Node2</title>
<path fill="none" stroke="midnightblue" d="M434.528,-112.444C402.829,-103.241 352.268,-88.5617 317.225,-78.3879"/>
<polygon fill="midnightblue" stroke="midnightblue" points="317.914,-74.9434 307.334,-75.5164 315.962,-81.6658 317.914,-74.9434"/>
</g>
<!-- Node6&#45;&gt;Node3 -->
<g id="edge7" class="edge"><title>Node6&#45;&gt;Node3</title>
<path fill="none" stroke="midnightblue" d="M417.895,-116.218C351.958,-109.146 226.717,-94.8477 110.001,-76.0576"/>
<polygon fill="midnightblue" stroke="midnightblue" points="110.251,-72.5524 99.8194,-74.4033 109.129,-79.4618 110.251,-72.5524"/>
</g>
<!-- Node6&#45;&gt;Node7 -->
<g id="edge8" class="edge"><title>Node6&#45;&gt;Node7</title>
<path fill="none" stroke="midnightblue" d="M452.271,-112.324C441.163,-104.107 424.258,-91.6017 411.017,-81.8069"/>
<polygon fill="midnightblue" stroke="midnightblue" points="413.063,-78.9671 402.942,-75.8339 408.9,-84.5948 413.063,-78.9671"/>
</g>
<!-- Node6&#45;&gt;Node8 -->
<g id="edge9" class="edge"><title>Node6&#45;&gt;Node8</title>
<path fill="none" stroke="midnightblue" d="M490.145,-112.444C518.023,-103.32 562.348,-88.8133 593.4,-78.6509"/>
<polygon fill="midnightblue" stroke="midnightblue" points="594.562,-81.9533 602.978,-75.5164 592.385,-75.3005 594.562,-81.9533"/>
</g>
<!-- Node6&#45;&gt;Node9 -->
<g id="edge10" class="edge"><title>Node6&#45;&gt;Node9</title>
<path fill="none" stroke="midnightblue" d="M505.99,-112.444C552.412,-102.984 627.228,-87.7384 677.24,-77.5472"/>
<polygon fill="midnightblue" stroke="midnightblue" points="678.107,-80.9427 687.206,-75.5164 676.709,-74.0837 678.107,-80.9427"/>
</g>
<!-- Node6&#45;&gt;Node10 -->
<g id="edge11" class="edge"><title>Node6&#45;&gt;Node10</title>
<path fill="none" stroke="midnightblue" d="M510.215,-114.556C570.024,-106.19 677.744,-91.0358 780.353,-76.0849"/>
<polygon fill="midnightblue" stroke="midnightblue" points="780.875,-79.5459 790.265,-74.6389 779.865,-72.6192 780.875,-79.5459"/>
</g>
<!-- Node11 -->
<g id="node11" class="node"><title>Node11</title>
<polygon fill="none" stroke="#bfbfbf" points="466,-56.5 466,-75.5 572,-75.5 572,-56.5 466,-56.5"/>
<text text-anchor="middle" x="519" y="-63.5" font-family="Helvetica,sans-Serif" font-size="10.00">Epetra_RowMatrix.h</text>
</g>
<!-- Node6&#45;&gt;Node11 -->
<g id="edge12" class="edge"><title>Node6&#45;&gt;Node11</title>
<path fill="none" stroke="midnightblue" d="M473.082,-112.083C481.171,-104.141 493.195,-92.3354 502.91,-82.7973"/>
<polygon fill="midnightblue" stroke="midnightblue" points="505.403,-85.2545 510.087,-75.7511 500.499,-80.2595 505.403,-85.2545"/>
</g>
<!-- Node6&#45;&gt;Node12 -->
<g id="edge13" class="edge"><title>Node6&#45;&gt;Node12</title>
<path fill="none" stroke="midnightblue" d="M510.259,-117.226C588.215,-110.648 750.917,-95.9819 899.167,-76.0265"/>
<polygon fill="midnightblue" stroke="midnightblue" points="899.924,-79.456 909.362,-74.6426 898.982,-72.5196 899.924,-79.456"/>
</g>
<!-- Node6&#45;&gt;Node13 -->
<g id="edge14" class="edge"><title>Node6&#45;&gt;Node13</title>
<path fill="none" stroke="midnightblue" d="M417.982,-115.814C361.969,-109.086 264.392,-96.0311 172.044,-75.9927"/>
<polygon fill="midnightblue" stroke="midnightblue" points="172.78,-72.571 162.262,-73.839 171.275,-79.4073 172.78,-72.571"/>
</g>
<!-- Node6&#45;&gt;Node14 -->
<g id="edge15" class="edge"><title>Node6&#45;&gt;Node14</title>
<path fill="none" stroke="midnightblue" d="M417.935,-113.695C372.635,-106.165 301.37,-93.3974 231.38,-76.1403"/>
<polygon fill="midnightblue" stroke="midnightblue" points="232.066,-72.7041 221.516,-73.6755 230.369,-79.4953 232.066,-72.7041"/>
</g>
<!-- Node15&#45;&gt;Node3 -->
<g id="edge17" class="edge"><title>Node15&#45;&gt;Node3</title>
<path fill="none" stroke="midnightblue" d="M132.825,-112.324C120.153,-103.979 100.767,-91.2122 85.7944,-81.3524"/>
<polygon fill="midnightblue" stroke="midnightblue" points="87.4187,-78.2313 77.142,-75.6545 83.5688,-84.0776 87.4187,-78.2313"/>
</g>
<!-- Node15&#45;&gt;Node13 -->
<g id="edge18" class="edge"><title>Node15&#45;&gt;Node13</title>
<path fill="none" stroke="midnightblue" d="M145.009,-112.083C144.214,-104.927 143.071,-94.6353 142.077,-85.6911"/>
<polygon fill="midnightblue" stroke="midnightblue" points="145.555,-85.3034 140.972,-75.7511 138.598,-86.0765 145.555,-85.3034"/>
</g>
<!-- Node15&#45;&gt;Node14 -->
<g id="edge19" class="edge"><title>Node15&#45;&gt;Node14</title>
<path fill="none" stroke="midnightblue" d="M155.082,-112.083C163.171,-104.141 175.195,-92.3354 184.91,-82.7973"/>
<polygon fill="midnightblue" stroke="midnightblue" points="187.403,-85.2545 192.087,-75.7511 182.499,-80.2595 187.403,-85.2545"/>
</g>
</g>
</svg>
        <g id="navigator" transform="translate(0 0)" fill="#404254">
                <rect fill="#f2f5e9" fill-opacity="0.5" stroke="#606060" stroke-width=".5" x="0" y="0" width="60" height="60"/>
                <use id="zoomplus" xlink:href="#zoomPlus" x="17" y="9" onmousedown="handleZoom(evt,'in')"/>
                <use id="zoomminus" xlink:href="#zoomMin" x="42" y="9" onmousedown="handleZoom(evt,'out')"/>
                <use id="reset" xlink:href="#resetDef" x="30" y="36" onmousedown="handleReset()"/>
                <g id="arrowUp" xlink:href="#dirArrow" transform="translate(30 24)" onmousedown="handlePan(0,-1)">
                  <use xlink:href="#rim" fill="#404040">
                        <set attributeName="fill" to="#808080" begin="arrowUp.mouseover" end="arrowUp.mouseout"/>
                  </use>
                  <path fill="none" stroke="white" stroke-width="1.5" d="M0,-3.0v7 M-2.5,-0.5L0,-3.0L2.5,-0.5"/>
                </g>
                <g id="arrowRight" xlink:href="#dirArrow" transform="rotate(90) translate(36 -43)" onmousedown="handlePan(1,0)">
                  <use xlink:href="#rim" fill="#404040">
                        <set attributeName="fill" to="#808080" begin="arrowRight.mouseover" end="arrowRight.mouseout"/>
                  </use>
                  <path fill="none" stroke="white" stroke-width="1.5" d="M0,-3.0v7 M-2.5,-0.5L0,-3.0L2.5,-0.5"/>
                </g>
                <g id="arrowDown" xlink:href="#dirArrow" transform="rotate(180) translate(-30 -48)" onmousedown="handlePan(0,1)">
                  <use xlink:href="#rim" fill="#404040">
                        <set attributeName="fill" to="#808080" begin="arrowDown.mouseover" end="arrowDown.mouseout"/>
                  </use>
                  <path fill="none" stroke="white" stroke-width="1.5" d="M0,-3.0v7 M-2.5,-0.5L0,-3.0L2.5,-0.5"/>
                </g>
                <g id="arrowLeft" xlink:href="#dirArrow" transform="rotate(270) translate(-36 17)" onmousedown="handlePan(-1,0)">
                  <use xlink:href="#rim" fill="#404040">
                        <set attributeName="fill" to="#808080" begin="arrowLeft.mouseover" end="arrowLeft.mouseout"/>
                  </use>
                  <path fill="none" stroke="white" stroke-width="1.5" d="M0,-3.0v7 M-2.5,-0.5L0,-3.0L2.5,-0.5"/>
                </g>
        </g>
        <svg viewBox="0 0 15 15" width="100%" height="30px" preserveAspectRatio="xMaxYMin meet">
         <g id="arrow_out" transform="scale(0.3 0.3)">
          <a xlink:href="DeviceComponent_8hpp__incl_org.svg" target="_base">
           <rect id="button" ry="5" rx="5" y="6" x="6" height="38" width="38"
                fill="#f2f5e9" fill-opacity="0.5" stroke="#606060" stroke-width="1.0"/>
           <path id="arrow"
             d="M 11.500037,31.436501 C 11.940474,20.09759 22.043105,11.32322 32.158766,21.979434 L 37.068811,17.246167 C 37.068811,17.246167 37.088388,32 37.088388,32 L 22.160133,31.978069 C 22.160133,31.978069 26.997745,27.140456 26.997745,27.140456 C 18.528582,18.264221 13.291696,25.230495 11.500037,31.436501 z"
             style="fill:#404040;"/>
          </a>
         </g>
        </svg>
</svg>
