<?xml version="1.0" encoding="UTF-8" standalone="no"?>
<!DOCTYPE svg PUBLIC "-//W3C//DTD SVG 1.1//EN"
 "http://www.w3.org/Graphics/SVG/1.1/DTD/svg11.dtd">
<!-- Generated by graphviz version 2.30.1 (20150305.2338)
 -->
<!-- Title: DeviceModel.hpp Pages: 1 -->
<!--zoomable 376 -->
<svg id="main" version="1.1" xmlns="http://www.w3.org/2000/svg" xmlns:xlink="http://www.w3.org/1999/xlink" xml:space="preserve" onload="init(evt)">
<style type="text/css"><![CDATA[
.edge:hover path { stroke: red; }
.edge:hover polygon { stroke: red; fill: red; }
]]></style>
<script type="text/javascript"><![CDATA[
var edges = document.getElementsByTagName('g');
if (edges && edges.length) {
  for (var i=0;i<edges.length;i++) {
    if (edges[i].id.substr(0,4)=='edge') {
      edges[i].setAttribute('class','edge');
    }
  }
}
]]></script>
        <defs>
                <circle id="rim" cx="0" cy="0" r="7"/>
                <circle id="rim2" cx="0" cy="0" r="3.5"/>
                <g id="zoomPlus">
                        <use xlink:href="#rim" fill="#404040">
                                <set attributeName="fill" to="#808080" begin="zoomplus.mouseover" end="zoomplus.mouseout"/>
                        </use>
                        <path d="M-4,0h8M0,-4v8" fill="none" stroke="white" stroke-width="1.5" pointer-events="none"/>
                </g>
                <g id="zoomMin">
                        <use xlink:href="#rim" fill="#404040">
                                <set attributeName="fill" to="#808080" begin="zoomminus.mouseover" end="zoomminus.mouseout"/>
                        </use>
                        <path d="M-4,0h8" fill="none" stroke="white" stroke-width="1.5" pointer-events="none"/>
                </g>
                <g id="dirArrow">
                        <path fill="none" stroke="white" stroke-width="1.5" d="M0,-3.0v7 M-2.5,-0.5L0,-3.0L2.5,-0.5"/>
                </g>
               <g id="resetDef">
                       <use xlink:href="#rim2" fill="#404040">
                               <set attributeName="fill" to="#808080" begin="reset.mouseover" end="reset.mouseout"/>
                       </use>
               </g>
        </defs>

<script type="text/javascript">
var viewWidth = 1340;
var viewHeight = 376;
var sectionId = 'dynsection-0';
</script>
<script xlink:href="svgpan.js"/>
<svg id="graph" class="graph">
<g id="viewport">
<title>DeviceModel.hpp</title>
<!-- Node1 -->
<g id="node1" class="node"><title>Node1</title>
<polygon fill="#bfbfbf" stroke="black" points="691,-348.5 691,-367.5 783,-367.5 783,-348.5 691,-348.5"/>
<text text-anchor="middle" x="737" y="-355.5" font-family="Helvetica,sans-Serif" font-size="10.00">DeviceModel.hpp</text>
</g>
<!-- Node2 -->
<g id="node2" class="node"><title>Node2</title>
<polygon fill="none" stroke="#bfbfbf" points="129.5,-56.5 129.5,-75.5 206.5,-75.5 206.5,-56.5 129.5,-56.5"/>
<text text-anchor="middle" x="168" y="-63.5" font-family="Helvetica,sans-Serif" font-size="10.00">Parameters.H</text>
</g>
<!-- Node1&#45;&gt;Node2 -->
<g id="edge1" class="edge"><title>Node1&#45;&gt;Node2</title>
<path fill="none" stroke="midnightblue" d="M690.964,-353.87C629.624,-348.902 518.117,-337.085 426,-312 299.064,-277.434 227.735,-307.573 152,-200 127.544,-165.263 146.135,-112.384 158.792,-84.9384"/>
<polygon fill="midnightblue" stroke="midnightblue" points="162.032,-86.2801 163.251,-75.7557 155.735,-83.2226 162.032,-86.2801"/>
</g>
<!-- Node3 -->
<g id="node3" class="node"><title>Node3</title>
<g id="a_node3"><a xlink:href="HalfCell_8hpp.html" target="_top" xlink:title="Program interface for the monolithic battery simulation software. ">
<polygon fill="none" stroke="black" points="40.5,-56.5 40.5,-75.5 111.5,-75.5 111.5,-56.5 40.5,-56.5"/>
<text text-anchor="middle" x="76" y="-63.5" font-family="Helvetica,sans-Serif" font-size="10.00">HalfCell.hpp</text>
</a>
</g>
</g>
<!-- Node1&#45;&gt;Node3 -->
<g id="edge2" class="edge"><title>Node1&#45;&gt;Node3</title>
<path fill="none" stroke="midnightblue" d="M690.897,-355.006C529.55,-347.421 0,-317.183 0,-247 0,-247 0,-247 0,-183 0,-141.186 34.9778,-102.719 57.4751,-82.3013"/>
<polygon fill="midnightblue" stroke="midnightblue" points="59.8879,-84.8409 65.1111,-75.623 55.2796,-79.5718 59.8879,-84.8409"/>
</g>
<!-- Node6 -->
<g id="node6" class="node"><title>Node6</title>
<polygon fill="none" stroke="#bfbfbf" points="435.5,-292.5 435.5,-311.5 576.5,-311.5 576.5,-292.5 435.5,-292.5"/>
<text text-anchor="middle" x="506" y="-299.5" font-family="Helvetica,sans-Serif" font-size="10.00">EpetraExt_ModelEvaluator.h</text>
</g>
<!-- Node1&#45;&gt;Node6 -->
<g id="edge5" class="edge"><title>Node1&#45;&gt;Node6</title>
<path fill="none" stroke="midnightblue" d="M700.397,-348.444C660.269,-339.063 595.802,-323.993 552.215,-313.804"/>
<polygon fill="midnightblue" stroke="midnightblue" points="552.966,-310.385 542.431,-311.516 551.372,-317.201 552.966,-310.385"/>
</g>
<!-- Node7 -->
<g id="node7" class="node"><title>Node7</title>
<polygon fill="none" stroke="#bfbfbf" points="594.5,-292.5 594.5,-311.5 733.5,-311.5 733.5,-292.5 594.5,-292.5"/>
<text text-anchor="middle" x="664" y="-299.5" font-family="Helvetica,sans-Serif" font-size="10.00">Teuchos_ParameterList.hpp</text>
</g>
<!-- Node1&#45;&gt;Node7 -->
<g id="edge6" class="edge"><title>Node1&#45;&gt;Node7</title>
<path fill="none" stroke="midnightblue" d="M725.271,-348.324C714.163,-340.107 697.258,-327.602 684.017,-317.807"/>
<polygon fill="midnightblue" stroke="midnightblue" points="686.063,-314.967 675.942,-311.834 681.9,-320.595 686.063,-314.967"/>
</g>
<!-- Node8 -->
<g id="node8" class="node"><title>Node8</title>
<polygon fill="none" stroke="#bfbfbf" points="751.5,-292.5 751.5,-311.5 870.5,-311.5 870.5,-292.5 751.5,-292.5"/>
<text text-anchor="middle" x="811" y="-299.5" font-family="Helvetica,sans-Serif" font-size="10.00">Rythmos_ConfigDefs.h</text>
</g>
<!-- Node1&#45;&gt;Node8 -->
<g id="edge7" class="edge"><title>Node1&#45;&gt;Node8</title>
<path fill="none" stroke="midnightblue" d="M748.889,-348.324C760.15,-340.107 777.287,-327.602 790.709,-317.807"/>
<polygon fill="midnightblue" stroke="midnightblue" points="792.88,-320.556 798.894,-311.834 788.753,-314.901 792.88,-320.556"/>
</g>
<!-- Node9 -->
<g id="node9" class="node"><title>Node9</title>
<g id="a_node9"><a xlink:href="Solver_8hpp.html" target="_top" xlink:title="C++ header file for the SolutionData class. ">
<polygon fill="none" stroke="black" points="888.5,-292.5 888.5,-311.5 951.5,-311.5 951.5,-292.5 888.5,-292.5"/>
<text text-anchor="middle" x="920" y="-299.5" font-family="Helvetica,sans-Serif" font-size="10.00">Solver.hpp</text>
</a>
</g>
</g>
<!-- Node1&#45;&gt;Node9 -->
<g id="edge8" class="edge"><title>Node1&#45;&gt;Node9</title>
<path fill="none" stroke="midnightblue" d="M765.997,-348.444C797.185,-339.241 846.93,-324.562 881.408,-314.388"/>
<polygon fill="midnightblue" stroke="midnightblue" points="882.538,-317.704 891.139,-311.516 880.557,-310.99 882.538,-317.704"/>
</g>
<!-- Node18 -->
<g id="node18" class="node"><title>Node18</title>
<polygon fill="none" stroke="#bfbfbf" points="1177,-56.5 1177,-75.5 1221,-75.5 1221,-56.5 1177,-56.5"/>
<text text-anchor="middle" x="1199" y="-63.5" font-family="Helvetica,sans-Serif" font-size="10.00">vector</text>
</g>
<!-- Node1&#45;&gt;Node18 -->
<g id="edge51" class="edge"><title>Node1&#45;&gt;Node18</title>
<path fill="none" stroke="midnightblue" d="M783.132,-356.718C894.284,-355.454 1174,-348.616 1259,-312 1298.9,-294.813 1332,-290.442 1332,-247 1332,-247 1332,-247 1332,-183 1332,-129.475 1270.07,-94.9833 1230.72,-78.4731"/>
<polygon fill="midnightblue" stroke="midnightblue" points="1231.84,-75.151 1221.26,-74.6623 1229.23,-81.6443 1231.84,-75.151"/>
</g>
<!-- Node19 -->
<g id="node19" class="node"><title>Node19</title>
<polygon fill="none" stroke="#bfbfbf" points="994.5,-56.5 994.5,-75.5 1035.5,-75.5 1035.5,-56.5 994.5,-56.5"/>
<text text-anchor="middle" x="1015" y="-63.5" font-family="Helvetica,sans-Serif" font-size="10.00">string</text>
</g>
<!-- Node1&#45;&gt;Node19 -->
<g id="edge52" class="edge"><title>Node1&#45;&gt;Node19</title>
<path fill="none" stroke="midnightblue" d="M783.056,-357.64C916.506,-358.269 1294,-350.867 1294,-247 1294,-247 1294,-247 1294,-183 1294,-76.4723 1118.43,-65.9587 1045.84,-66.1646"/>
<polygon fill="midnightblue" stroke="midnightblue" points="1045.48,-62.668 1035.52,-66.2695 1045.55,-69.6676 1045.48,-62.668"/>
</g>
<!-- Node4 -->
<g id="node4" class="node"><title>Node4</title>
<polygon fill="none" stroke="#bfbfbf" points="11.5,-0.5 11.5,-19.5 66.5,-19.5 66.5,-0.5 11.5,-0.5"/>
<text text-anchor="middle" x="39" y="-7.5" font-family="Helvetica,sans-Serif" font-size="10.00">Global.H</text>
</g>
<!-- Node3&#45;&gt;Node4 -->
<g id="edge3" class="edge"><title>Node3&#45;&gt;Node4</title>
<path fill="none" stroke="midnightblue" d="M69.8902,-56.083C64.7178,-48.5341 57.1539,-37.4948 50.8056,-28.2298"/>
<polygon fill="midnightblue" stroke="midnightblue" points="53.5357,-26.0221 44.9961,-19.7511 47.7612,-29.9787 53.5357,-26.0221"/>
</g>
<!-- Node5 -->
<g id="node5" class="node"><title>Node5</title>
<polygon fill="none" stroke="#bfbfbf" points="85,-0.5 85,-19.5 143,-19.5 143,-0.5 85,-0.5"/>
<text text-anchor="middle" x="114" y="-7.5" font-family="Helvetica,sans-Serif" font-size="10.00">Profiler.H</text>
</g>
<!-- Node3&#45;&gt;Node5 -->
<g id="edge4" class="edge"><title>Node3&#45;&gt;Node5</title>
<path fill="none" stroke="midnightblue" d="M82.2749,-56.083C87.6425,-48.4554 95.5176,-37.2645 102.079,-27.9408"/>
<polygon fill="midnightblue" stroke="midnightblue" points="104.949,-29.9434 107.842,-19.7511 99.2245,-25.9149 104.949,-29.9434"/>
</g>
<!-- Node9&#45;&gt;Node3 -->
<g id="edge9" class="edge"><title>Node9&#45;&gt;Node3</title>
<path fill="none" stroke="midnightblue" d="M888.275,-293.721C885.149,-293.099 882.018,-292.512 879,-292 710.842,-263.46 254.658,-300.708 117,-200 81.019,-173.677 75.6057,-116.21 75.3883,-86.1657"/>
<polygon fill="midnightblue" stroke="midnightblue" points="78.8927,-85.8304 75.5171,-75.7878 71.8932,-85.7435 78.8927,-85.8304"/>
</g>
<!-- Node10 -->
<g id="node10" class="node"><title>Node10</title>
<g id="a_node10"><a xlink:href="DeviceData_8hpp.html" target="_top" xlink:title="C++ header file for the DeviceData class. ">
<polygon fill="none" stroke="black" points="654.5,-236.5 654.5,-255.5 741.5,-255.5 741.5,-236.5 654.5,-236.5"/>
<text text-anchor="middle" x="698" y="-243.5" font-family="Helvetica,sans-Serif" font-size="10.00">DeviceData.hpp</text>
</a>
</g>
</g>
<!-- Node9&#45;&gt;Node10 -->
<g id="edge10" class="edge"><title>Node9&#45;&gt;Node10</title>
<path fill="none" stroke="midnightblue" d="M888.193,-293.263C850.122,-284.003 786.117,-268.434 742.99,-257.944"/>
<polygon fill="midnightblue" stroke="midnightblue" points="743.588,-254.487 733.044,-255.524 741.934,-261.289 743.588,-254.487"/>
</g>
<!-- Node9&#45;&gt;Node18 -->
<g id="edge49" class="edge"><title>Node9&#45;&gt;Node18</title>
<path fill="none" stroke="midnightblue" d="M951.611,-296.367C984.725,-290.542 1037.46,-278.465 1078,-256 1142.96,-220.004 1162.05,-200.805 1190,-132 1195.97,-117.305 1198.11,-99.3701 1198.82,-86.0645"/>
<polygon fill="midnightblue" stroke="midnightblue" points="1202.32,-85.8639 1199.13,-75.7614 1195.33,-85.6495 1202.32,-85.8639"/>
</g>
<!-- Node9&#45;&gt;Node19 -->
<g id="edge50" class="edge"><title>Node9&#45;&gt;Node19</title>
<path fill="none" stroke="midnightblue" d="M951.556,-294.533C995.611,-283.621 1073.96,-256.921 1108,-200 1115.06,-188.197 1110.04,-121.074 1104,-112 1090.63,-91.8981 1065.42,-80.3439 1045.23,-73.9896"/>
<polygon fill="midnightblue" stroke="midnightblue" points="1046.09,-70.5948 1035.51,-71.1981 1044.16,-77.3228 1046.09,-70.5948"/>
</g>
<!-- Node10&#45;&gt;Node2 -->
<g id="edge11" class="edge"><title>Node10&#45;&gt;Node2</title>
<path fill="none" stroke="midnightblue" d="M654.121,-244.537C533.527,-242.816 203.808,-234.93 171,-200 141.965,-169.087 153.039,-114.093 161.622,-85.468"/>
<polygon fill="midnightblue" stroke="midnightblue" points="165.072,-86.1723 164.808,-75.5808 158.409,-84.0251 165.072,-86.1723"/>
</g>
<!-- Node10&#45;&gt;Node3 -->
<g id="edge12" class="edge"><title>Node10&#45;&gt;Node3</title>
<path fill="none" stroke="midnightblue" d="M654.224,-243.719C532.12,-239.825 193.972,-226.722 152,-200 110.425,-173.531 89.2154,-115.684 80.6731,-85.7617"/>
<polygon fill="midnightblue" stroke="midnightblue" points="83.9694,-84.5398 78.0034,-75.7844 77.2073,-86.3493 83.9694,-84.5398"/>
</g>
<!-- Node11 -->
<g id="node11" class="node"><title>Node11</title>
<g id="a_node11"><a xlink:href="SolutionData_8hpp.html" target="_top" xlink:title="C++ header file for the SolutionData class. ">
<polygon fill="none" stroke="black" points="462,-112.5 462,-131.5 554,-131.5 554,-112.5 462,-112.5"/>
<text text-anchor="middle" x="508" y="-119.5" font-family="Helvetica,sans-Serif" font-size="10.00">SolutionData.hpp</text>
</a>
</g>
</g>
<!-- Node10&#45;&gt;Node11 -->
<g id="edge13" class="edge"><title>Node10&#45;&gt;Node11</title>
<path fill="none" stroke="midnightblue" d="M684.355,-236.453C670.602,-227.696 648.906,-213.49 631,-200 613.365,-186.714 611.305,-180.346 593,-168 574.948,-155.824 553.231,-144.376 536.267,-136.074"/>
<polygon fill="midnightblue" stroke="midnightblue" points="537.421,-132.745 526.892,-131.567 534.388,-139.054 537.421,-132.745"/>
</g>
<!-- Node20 -->
<g id="node20" class="node"><title>Node20</title>
<g id="a_node20"><a xlink:href="DeviceComponent_8hpp.html" target="_top" xlink:title="C++ header file for the DeviceComponent class. ">
<polygon fill="none" stroke="black" points="640,-174.5 640,-193.5 756,-193.5 756,-174.5 640,-174.5"/>
<text text-anchor="middle" x="698" y="-181.5" font-family="Helvetica,sans-Serif" font-size="10.00">DeviceComponent.hpp</text>
</a>
</g>
</g>
<!-- Node10&#45;&gt;Node20 -->
<g id="edge24" class="edge"><title>Node10&#45;&gt;Node20</title>
<path fill="none" stroke="midnightblue" d="M698,-236.403C698,-227.938 698,-214.728 698,-203.82"/>
<polygon fill="midnightblue" stroke="midnightblue" points="701.5,-203.581 698,-193.581 694.5,-203.581 701.5,-203.581"/>
</g>
<!-- Node24 -->
<g id="node24" class="node"><title>Node24</title>
<polygon fill="none" stroke="#bfbfbf" points="774,-174.5 774,-193.5 874,-193.5 874,-174.5 774,-174.5"/>
<text text-anchor="middle" x="824" y="-181.5" font-family="Helvetica,sans-Serif" font-size="10.00">Teuchos_RCP.hpp</text>
</g>
<!-- Node10&#45;&gt;Node24 -->
<g id="edge41" class="edge"><title>Node10&#45;&gt;Node24</title>
<path fill="none" stroke="midnightblue" d="M716.053,-236.403C737.198,-226.334 772.44,-209.552 796.878,-197.915"/>
<polygon fill="midnightblue" stroke="midnightblue" points="798.457,-201.04 805.981,-193.581 795.447,-194.72 798.457,-201.04"/>
</g>
<!-- Node25 -->
<g id="node25" class="node"><title>Node25</title>
<polygon fill="none" stroke="#bfbfbf" points="892.5,-174.5 892.5,-193.5 941.5,-193.5 941.5,-174.5 892.5,-174.5"/>
<text text-anchor="middle" x="917" y="-181.5" font-family="Helvetica,sans-Serif" font-size="10.00">NOX.H</text>
</g>
<!-- Node10&#45;&gt;Node25 -->
<g id="edge42" class="edge"><title>Node10&#45;&gt;Node25</title>
<path fill="none" stroke="midnightblue" d="M741.606,-236.669C779.492,-228.894 835.577,-216.088 883,-200 885.268,-199.231 887.594,-198.369 889.912,-197.458"/>
<polygon fill="midnightblue" stroke="midnightblue" points="891.37,-200.641 899.237,-193.545 888.662,-194.187 891.37,-200.641"/>
</g>
<!-- Node26 -->
<g id="node26" class="node"><title>Node26</title>
<polygon fill="none" stroke="#bfbfbf" points="960,-169 960,-199 1076,-199 1076,-169 960,-169"/>
<text text-anchor="start" x="968" y="-187" font-family="Helvetica,sans-Serif" font-size="10.00">NOX_Epetra_Interface</text>
<text text-anchor="middle" x="1018" y="-176" font-family="Helvetica,sans-Serif" font-size="10.00">_Required.H</text>
</g>
<!-- Node10&#45;&gt;Node26 -->
<g id="edge43" class="edge"><title>Node10&#45;&gt;Node26</title>
<path fill="none" stroke="midnightblue" d="M741.805,-237.73C790.088,-229.594 870.297,-215.718 949.623,-200.025"/>
<polygon fill="midnightblue" stroke="midnightblue" points="950.669,-203.385 959.794,-198.002 949.303,-196.52 950.669,-203.385"/>
</g>
<!-- Node27 -->
<g id="node27" class="node"><title>Node27</title>
<polygon fill="none" stroke="#bfbfbf" points="180,-169 180,-199 296,-199 296,-169 180,-169"/>
<text text-anchor="start" x="188" y="-187" font-family="Helvetica,sans-Serif" font-size="10.00">NOX_Epetra_Interface</text>
<text text-anchor="middle" x="238" y="-176" font-family="Helvetica,sans-Serif" font-size="10.00">_Jacobian.H</text>
</g>
<!-- Node10&#45;&gt;Node27 -->
<g id="edge44" class="edge"><title>Node10&#45;&gt;Node27</title>
<path fill="none" stroke="midnightblue" d="M654.463,-241.537C583.524,-235.563 438.433,-221.963 305.951,-200.049"/>
<polygon fill="midnightblue" stroke="midnightblue" points="306.471,-196.587 296.03,-198.388 305.315,-203.491 306.471,-196.587"/>
</g>
<!-- Node28 -->
<g id="node28" class="node"><title>Node28</title>
<polygon fill="none" stroke="#bfbfbf" points="314.5,-169 314.5,-199 451.5,-199 451.5,-169 314.5,-169"/>
<text text-anchor="start" x="322.5" y="-187" font-family="Helvetica,sans-Serif" font-size="10.00">NOX_Epetra_LinearSystem</text>
<text text-anchor="middle" x="383" y="-176" font-family="Helvetica,sans-Serif" font-size="10.00">_AztecOO.H</text>
</g>
<!-- Node10&#45;&gt;Node28 -->
<g id="edge45" class="edge"><title>Node10&#45;&gt;Node28</title>
<path fill="none" stroke="midnightblue" d="M654.313,-236.737C608.798,-228.121 535.135,-214.156 461.778,-200.146"/>
<polygon fill="midnightblue" stroke="midnightblue" points="462.381,-196.698 451.902,-198.259 461.067,-203.574 462.381,-196.698"/>
</g>
<!-- Node29 -->
<g id="node29" class="node"><title>Node29</title>
<polygon fill="none" stroke="#bfbfbf" points="470,-174.5 470,-193.5 584,-193.5 584,-174.5 470,-174.5"/>
<text text-anchor="middle" x="527" y="-181.5" font-family="Helvetica,sans-Serif" font-size="10.00">NOX_Epetra_Group.H</text>
</g>
<!-- Node10&#45;&gt;Node29 -->
<g id="edge46" class="edge"><title>Node10&#45;&gt;Node29</title>
<path fill="none" stroke="midnightblue" d="M673.5,-236.403C644.04,-226.067 594.421,-208.656 561.198,-196.999"/>
<polygon fill="midnightblue" stroke="midnightblue" points="562.05,-193.589 551.455,-193.581 559.732,-200.194 562.05,-193.589"/>
</g>
<!-- Node10&#45;&gt;Node18 -->
<g id="edge47" class="edge"><title>Node10&#45;&gt;Node18</title>
<path fill="none" stroke="midnightblue" d="M741.535,-244.74C834.112,-243.471 1047.04,-236.542 1108,-200 1152.67,-173.223 1180.49,-115.07 1192.35,-85.3252"/>
<polygon fill="midnightblue" stroke="midnightblue" points="1195.7,-86.3534 1196,-75.7627 1189.16,-83.8582 1195.7,-86.3534"/>
</g>
<!-- Node10&#45;&gt;Node19 -->
<g id="edge48" class="edge"><title>Node10&#45;&gt;Node19</title>
<path fill="none" stroke="midnightblue" d="M741.502,-243.142C837.835,-238.582 1062.45,-225.321 1085,-200 1111.01,-170.791 1103.74,-146.328 1085,-112 1076.48,-96.3969 1059.98,-85.397 1045.14,-78.1798"/>
<polygon fill="midnightblue" stroke="midnightblue" points="1046.28,-74.8577 1035.72,-73.9731 1043.43,-81.2486 1046.28,-74.8577"/>
</g>
<!-- Node11&#45;&gt;Node2 -->
<g id="edge14" class="edge"><title>Node11&#45;&gt;Node2</title>
<path fill="none" stroke="midnightblue" d="M461.987,-114.468C406.244,-106.436 309.229,-92.0781 216.792,-76.2634"/>
<polygon fill="midnightblue" stroke="midnightblue" points="217.157,-72.7748 206.708,-74.5291 215.97,-79.6735 217.157,-72.7748"/>
</g>
<!-- Node11&#45;&gt;Node3 -->
<g id="edge15" class="edge"><title>Node11&#45;&gt;Node3</title>
<path fill="none" stroke="midnightblue" d="M461.834,-116.946C390.801,-110.423 250.245,-96.3908 121.971,-76.2109"/>
<polygon fill="midnightblue" stroke="midnightblue" points="122.398,-72.7349 111.972,-74.6213 121.298,-79.6481 122.398,-72.7349"/>
</g>
<!-- Node12 -->
<g id="node12" class="node"><title>Node12</title>
<polygon fill="none" stroke="#bfbfbf" points="224.5,-56.5 224.5,-75.5 337.5,-75.5 337.5,-56.5 224.5,-56.5"/>
<text text-anchor="middle" x="281" y="-63.5" font-family="Helvetica,sans-Serif" font-size="10.00">Epetra_SerialComm.h</text>
</g>
<!-- Node11&#45;&gt;Node12 -->
<g id="edge16" class="edge"><title>Node11&#45;&gt;Node12</title>
<path fill="none" stroke="midnightblue" d="M472.031,-112.444C432.681,-103.083 369.513,-88.0561 326.686,-77.868"/>
<polygon fill="midnightblue" stroke="midnightblue" points="327.339,-74.4258 316.801,-75.5164 325.719,-81.2358 327.339,-74.4258"/>
</g>
<!-- Node13 -->
<g id="node13" class="node"><title>Node13</title>
<polygon fill="none" stroke="#bfbfbf" points="355.5,-56.5 355.5,-75.5 432.5,-75.5 432.5,-56.5 355.5,-56.5"/>
<text text-anchor="middle" x="394" y="-63.5" font-family="Helvetica,sans-Serif" font-size="10.00">Epetra_Map.h</text>
</g>
<!-- Node11&#45;&gt;Node13 -->
<g id="edge17" class="edge"><title>Node11&#45;&gt;Node13</title>
<path fill="none" stroke="midnightblue" d="M489.936,-112.444C471.425,-103.675 442.419,-89.9355 421.145,-79.8579"/>
<polygon fill="midnightblue" stroke="midnightblue" points="422.515,-76.6343 411.979,-75.5164 419.518,-82.9604 422.515,-76.6343"/>
</g>
<!-- Node14 -->
<g id="node14" class="node"><title>Node14</title>
<polygon fill="none" stroke="#bfbfbf" points="575.5,-56.5 575.5,-75.5 662.5,-75.5 662.5,-56.5 575.5,-56.5"/>
<text text-anchor="middle" x="619" y="-63.5" font-family="Helvetica,sans-Serif" font-size="10.00">Epetra_Vector.h</text>
</g>
<!-- Node11&#45;&gt;Node14 -->
<g id="edge18" class="edge"><title>Node11&#45;&gt;Node14</title>
<path fill="none" stroke="midnightblue" d="M525.834,-112.324C543.716,-103.625 571.475,-90.1202 592.046,-80.113"/>
<polygon fill="midnightblue" stroke="midnightblue" points="593.749,-83.1765 601.21,-75.6545 590.687,-76.8819 593.749,-83.1765"/>
</g>
<!-- Node15 -->
<g id="node15" class="node"><title>Node15</title>
<polygon fill="none" stroke="#bfbfbf" points="680.5,-56.5 680.5,-75.5 781.5,-75.5 781.5,-56.5 680.5,-56.5"/>
<text text-anchor="middle" x="731" y="-63.5" font-family="Helvetica,sans-Serif" font-size="10.00">Epetra_CrsMatrix.h</text>
</g>
<!-- Node11&#45;&gt;Node15 -->
<g id="edge19" class="edge"><title>Node11&#45;&gt;Node15</title>
<path fill="none" stroke="midnightblue" d="M543.335,-112.444C581.911,-103.102 643.785,-88.1194 685.853,-77.9326"/>
<polygon fill="midnightblue" stroke="midnightblue" points="686.935,-81.2717 695.83,-75.5164 685.287,-74.4683 686.935,-81.2717"/>
</g>
<!-- Node16 -->
<g id="node16" class="node"><title>Node16</title>
<polygon fill="none" stroke="#bfbfbf" points="451,-56.5 451,-75.5 557,-75.5 557,-56.5 451,-56.5"/>
<text text-anchor="middle" x="504" y="-63.5" font-family="Helvetica,sans-Serif" font-size="10.00">Epetra_RowMatrix.h</text>
</g>
<!-- Node11&#45;&gt;Node16 -->
<g id="edge20" class="edge"><title>Node11&#45;&gt;Node16</title>
<path fill="none" stroke="midnightblue" d="M507.339,-112.083C506.815,-105.006 506.064,-94.8611 505.406,-85.9865"/>
<polygon fill="midnightblue" stroke="midnightblue" points="508.877,-85.4652 504.648,-75.7511 501.897,-85.9823 508.877,-85.4652"/>
</g>
<!-- Node17 -->
<g id="node17" class="node"><title>Node17</title>
<polygon fill="none" stroke="#bfbfbf" points="799.5,-56.5 799.5,-75.5 886.5,-75.5 886.5,-56.5 799.5,-56.5"/>
<text text-anchor="middle" x="843" y="-63.5" font-family="Helvetica,sans-Serif" font-size="10.00">Epetra_Export.h</text>
</g>
<!-- Node11&#45;&gt;Node17 -->
<g id="edge21" class="edge"><title>Node11&#45;&gt;Node17</title>
<path fill="none" stroke="midnightblue" d="M554.43,-113.736C608.32,-105.273 700.145,-90.7527 789.318,-76.0988"/>
<polygon fill="midnightblue" stroke="midnightblue" points="790.034,-79.5281 799.333,-74.4506 788.897,-72.621 790.034,-79.5281"/>
</g>
<!-- Node11&#45;&gt;Node18 -->
<g id="edge22" class="edge"><title>Node11&#45;&gt;Node18</title>
<path fill="none" stroke="midnightblue" d="M554.142,-117.394C684.792,-107.184 1055.02,-78.2521 1166.71,-69.5236"/>
<polygon fill="midnightblue" stroke="midnightblue" points="1167.29,-72.9888 1176.99,-68.7203 1166.74,-66.0101 1167.29,-72.9888"/>
</g>
<!-- Node11&#45;&gt;Node19 -->
<g id="edge23" class="edge"><title>Node11&#45;&gt;Node19</title>
<path fill="none" stroke="midnightblue" d="M554.337,-116.065C656.429,-105.191 898.477,-79.4107 984.229,-70.2774"/>
<polygon fill="midnightblue" stroke="midnightblue" points="984.778,-73.7388 994.351,-69.1993 984.036,-66.7782 984.778,-73.7388"/>
</g>
<!-- Node20&#45;&gt;Node2 -->
<g id="edge25" class="edge"><title>Node20&#45;&gt;Node2</title>
<path fill="none" stroke="midnightblue" d="M639.992,-174.52C552.651,-161.676 394.798,-138.13 369,-132 308.275,-117.571 239.458,-93.6004 200.145,-79.151"/>
<polygon fill="midnightblue" stroke="midnightblue" points="201.167,-75.7973 190.574,-75.6066 198.736,-82.3617 201.167,-75.7973"/>
</g>
<!-- Node20&#45;&gt;Node3 -->
<g id="edge26" class="edge"><title>Node20&#45;&gt;Node3</title>
<path fill="none" stroke="midnightblue" d="M639.988,-174.496C624.713,-172.316 608.243,-170.019 593,-168 462.059,-150.659 427.368,-158.646 298,-132 230.269,-118.049 153.213,-93.4573 110.021,-78.8515"/>
<polygon fill="midnightblue" stroke="midnightblue" points="110.902,-75.4544 100.308,-75.5419 108.644,-82.0803 110.902,-75.4544"/>
</g>
<!-- Node20&#45;&gt;Node11 -->
<g id="edge27" class="edge"><title>Node20&#45;&gt;Node11</title>
<path fill="none" stroke="midnightblue" d="M670.778,-174.403C637.763,-163.978 581.96,-146.356 545.047,-134.699"/>
<polygon fill="midnightblue" stroke="midnightblue" points="545.762,-131.254 535.172,-131.581 543.654,-137.93 545.762,-131.254"/>
</g>
<!-- Node21 -->
<g id="node21" class="node"><title>Node21</title>
<g id="a_node21"><a xlink:href="PhysicsModule_8hpp.html" target="_top" xlink:title="C++ header file for the ElectrodeSolver class. ">
<polygon fill="none" stroke="black" points="686,-112.5 686,-131.5 788,-131.5 788,-112.5 686,-112.5"/>
<text text-anchor="middle" x="737" y="-119.5" font-family="Helvetica,sans-Serif" font-size="10.00">PhysicsModule.hpp</text>
</a>
</g>
</g>
<!-- Node20&#45;&gt;Node21 -->
<g id="edge28" class="edge"><title>Node20&#45;&gt;Node21</title>
<path fill="none" stroke="midnightblue" d="M703.588,-174.403C709.38,-165.493 718.589,-151.325 725.874,-140.118"/>
<polygon fill="midnightblue" stroke="midnightblue" points="728.907,-141.873 731.423,-131.581 723.038,-138.058 728.907,-141.873"/>
</g>
<!-- Node20&#45;&gt;Node12 -->
<g id="edge32" class="edge"><title>Node20&#45;&gt;Node12</title>
<path fill="none" stroke="midnightblue" d="M643.941,-174.476C576.436,-163.559 464.962,-144.552 425,-132 381.694,-118.398 334.203,-95.219 306.033,-80.5293"/>
<polygon fill="midnightblue" stroke="midnightblue" points="307.392,-77.2886 296.914,-75.717 304.125,-83.4796 307.392,-77.2886"/>
</g>
<!-- Node20&#45;&gt;Node13 -->
<g id="edge33" class="edge"><title>Node20&#45;&gt;Node13</title>
<path fill="none" stroke="midnightblue" d="M639.775,-175.118C577.743,-165.983 484.256,-149.875 453,-132 432.622,-120.346 415.407,-99.1847 404.926,-84.1757"/>
<polygon fill="midnightblue" stroke="midnightblue" points="407.77,-82.1327 399.302,-75.7655 401.951,-86.0238 407.77,-82.1327"/>
</g>
<!-- Node20&#45;&gt;Node14 -->
<g id="edge34" class="edge"><title>Node20&#45;&gt;Node14</title>
<path fill="none" stroke="midnightblue" d="M683.219,-174.361C669.28,-165.465 648.812,-150.335 637,-132 627.983,-118.004 623.43,-99.503 621.163,-85.8195"/>
<polygon fill="midnightblue" stroke="midnightblue" points="624.595,-85.0848 619.749,-75.6628 617.662,-86.0499 624.595,-85.0848"/>
</g>
<!-- Node22 -->
<g id="node22" class="node"><title>Node22</title>
<polygon fill="none" stroke="#bfbfbf" points="844,-112.5 844,-131.5 944,-131.5 944,-112.5 844,-112.5"/>
<text text-anchor="middle" x="894" y="-119.5" font-family="Helvetica,sans-Serif" font-size="10.00">Epetra_FEVector.h</text>
</g>
<!-- Node20&#45;&gt;Node22 -->
<g id="edge35" class="edge"><title>Node20&#45;&gt;Node22</title>
<path fill="none" stroke="midnightblue" d="M726.082,-174.403C760.285,-163.933 818.197,-146.205 856.27,-134.55"/>
<polygon fill="midnightblue" stroke="midnightblue" points="857.433,-137.855 865.97,-131.581 855.384,-131.161 857.433,-137.855"/>
</g>
<!-- Node20&#45;&gt;Node15 -->
<g id="edge36" class="edge"><title>Node20&#45;&gt;Node15</title>
<path fill="none" stroke="midnightblue" d="M683.059,-174.454C662.455,-161.522 629.427,-135.945 644,-112 653.46,-96.4569 670.21,-86.0455 686.505,-79.1913"/>
<polygon fill="midnightblue" stroke="midnightblue" points="687.903,-82.4035 695.987,-75.5548 685.397,-75.8676 687.903,-82.4035"/>
</g>
<!-- Node23 -->
<g id="node23" class="node"><title>Node23</title>
<polygon fill="none" stroke="#bfbfbf" points="962,-112.5 962,-131.5 1076,-131.5 1076,-112.5 962,-112.5"/>
<text text-anchor="middle" x="1019" y="-119.5" font-family="Helvetica,sans-Serif" font-size="10.00">Epetra_FECrsMatrix.h</text>
</g>
<!-- Node20&#45;&gt;Node23 -->
<g id="edge37" class="edge"><title>Node20&#45;&gt;Node23</title>
<path fill="none" stroke="midnightblue" d="M734.798,-174.45C744.594,-172.259 755.183,-169.968 765,-168 830.249,-154.923 905.327,-141.866 956.841,-133.211"/>
<polygon fill="midnightblue" stroke="midnightblue" points="957.535,-136.644 966.82,-131.54 956.379,-129.74 957.535,-136.644"/>
</g>
<!-- Node20&#45;&gt;Node17 -->
<g id="edge38" class="edge"><title>Node20&#45;&gt;Node17</title>
<path fill="none" stroke="midnightblue" d="M690.89,-174.237C680.141,-159.865 662.473,-130.989 677,-112 684.141,-102.665 745.29,-87.7909 791.312,-77.7222"/>
<polygon fill="midnightblue" stroke="midnightblue" points="792.138,-81.1244 801.171,-75.5875 790.657,-74.283 792.138,-81.1244"/>
</g>
<!-- Node20&#45;&gt;Node18 -->
<g id="edge39" class="edge"><title>Node20&#45;&gt;Node18</title>
<path fill="none" stroke="midnightblue" d="M732.634,-174.496C742.998,-172.155 754.42,-169.774 765,-168 906.149,-144.332 948.928,-176.356 1085,-132 1120.63,-120.385 1157.54,-96.8579 1179.38,-81.5238"/>
<polygon fill="midnightblue" stroke="midnightblue" points="1181.67,-84.183 1187.76,-75.5123 1177.6,-78.4937 1181.67,-84.183"/>
</g>
<!-- Node20&#45;&gt;Node19 -->
<g id="edge40" class="edge"><title>Node20&#45;&gt;Node19</title>
<path fill="none" stroke="midnightblue" d="M714.839,-174.382C734.558,-164.278 768.191,-147.002 797,-132 813.928,-123.185 817.17,-118.808 835,-112 885.807,-92.6013 947.89,-79.217 984.277,-72.3515"/>
<polygon fill="midnightblue" stroke="midnightblue" points="985.067,-75.765 994.266,-70.5094 983.797,-68.8811 985.067,-75.765"/>
</g>
<!-- Node21&#45;&gt;Node3 -->
<g id="edge29" class="edge"><title>Node21&#45;&gt;Node3</title>
<path fill="none" stroke="midnightblue" d="M685.812,-118.121C561.784,-111.011 246.781,-92.1189 122.016,-76.092"/>
<polygon fill="midnightblue" stroke="midnightblue" points="122.329,-72.6027 111.953,-74.7474 121.402,-79.5411 122.329,-72.6027"/>
</g>
<!-- Node21&#45;&gt;Node18 -->
<g id="edge30" class="edge"><title>Node21&#45;&gt;Node18</title>
<path fill="none" stroke="midnightblue" d="M788.207,-115.015C883.794,-103.842 1086.87,-80.1061 1166.24,-70.829"/>
<polygon fill="midnightblue" stroke="midnightblue" points="1167.07,-74.2561 1176.59,-69.6188 1166.26,-67.3035 1167.07,-74.2561"/>
</g>
<!-- Node21&#45;&gt;Node19 -->
<g id="edge31" class="edge"><title>Node21&#45;&gt;Node19</title>
<path fill="none" stroke="midnightblue" d="M781.05,-112.444C837.819,-101.416 935.064,-82.5272 984.385,-72.9468"/>
<polygon fill="midnightblue" stroke="midnightblue" points="985.284,-76.3377 994.433,-70.9951 983.949,-69.4662 985.284,-76.3377"/>
</g>
</g>
</svg>
        <g id="navigator" transform="translate(0 0)" fill="#404254">
                <rect fill="#f2f5e9" fill-opacity="0.5" stroke="#606060" stroke-width=".5" x="0" y="0" width="60" height="60"/>
                <use id="zoomplus" xlink:href="#zoomPlus" x="17" y="9" onmousedown="handleZoom(evt,'in')"/>
                <use id="zoomminus" xlink:href="#zoomMin" x="42" y="9" onmousedown="handleZoom(evt,'out')"/>
                <use id="reset" xlink:href="#resetDef" x="30" y="36" onmousedown="handleReset()"/>
                <g id="arrowUp" xlink:href="#dirArrow" transform="translate(30 24)" onmousedown="handlePan(0,-1)">
                  <use xlink:href="#rim" fill="#404040">
                        <set attributeName="fill" to="#808080" begin="arrowUp.mouseover" end="arrowUp.mouseout"/>
                  </use>
                  <path fill="none" stroke="white" stroke-width="1.5" d="M0,-3.0v7 M-2.5,-0.5L0,-3.0L2.5,-0.5"/>
                </g>
                <g id="arrowRight" xlink:href="#dirArrow" transform="rotate(90) translate(36 -43)" onmousedown="handlePan(1,0)">
                  <use xlink:href="#rim" fill="#404040">
                        <set attributeName="fill" to="#808080" begin="arrowRight.mouseover" end="arrowRight.mouseout"/>
                  </use>
                  <path fill="none" stroke="white" stroke-width="1.5" d="M0,-3.0v7 M-2.5,-0.5L0,-3.0L2.5,-0.5"/>
                </g>
                <g id="arrowDown" xlink:href="#dirArrow" transform="rotate(180) translate(-30 -48)" onmousedown="handlePan(0,1)">
                  <use xlink:href="#rim" fill="#404040">
                        <set attributeName="fill" to="#808080" begin="arrowDown.mouseover" end="arrowDown.mouseout"/>
                  </use>
                  <path fill="none" stroke="white" stroke-width="1.5" d="M0,-3.0v7 M-2.5,-0.5L0,-3.0L2.5,-0.5"/>
                </g>
                <g id="arrowLeft" xlink:href="#dirArrow" transform="rotate(270) translate(-36 17)" onmousedown="handlePan(-1,0)">
                  <use xlink:href="#rim" fill="#404040">
                        <set attributeName="fill" to="#808080" begin="arrowLeft.mouseover" end="arrowLeft.mouseout"/>
                  </use>
                  <path fill="none" stroke="white" stroke-width="1.5" d="M0,-3.0v7 M-2.5,-0.5L0,-3.0L2.5,-0.5"/>
                </g>
        </g>
        <svg viewBox="0 0 15 15" width="100%" height="30px" preserveAspectRatio="xMaxYMin meet">
         <g id="arrow_out" transform="scale(0.3 0.3)">
          <a xlink:href="DeviceModel_8hpp__incl_org.svg" target="_base">
           <rect id="button" ry="5" rx="5" y="6" x="6" height="38" width="38"
                fill="#f2f5e9" fill-opacity="0.5" stroke="#606060" stroke-width="1.0"/>
           <path id="arrow"
             d="M 11.500037,31.436501 C 11.940474,20.09759 22.043105,11.32322 32.158766,21.979434 L 37.068811,17.246167 C 37.068811,17.246167 37.088388,32 37.088388,32 L 22.160133,31.978069 C 22.160133,31.978069 26.997745,27.140456 26.997745,27.140456 C 18.528582,18.264221 13.291696,25.230495 11.500037,31.436501 z"
             style="fill:#404040;"/>
          </a>
         </g>
        </svg>
</svg>
