<?xml version="1.0" encoding="UTF-8" standalone="no"?>
<!DOCTYPE svg PUBLIC "-//W3C//DTD SVG 1.1//EN"
 "http://www.w3.org/Graphics/SVG/1.1/DTD/svg11.dtd">
<!-- Generated by graphviz version 2.30.1 (20150305.2338)
 -->
<!-- Title: DeviceComponent.cpp Pages: 1 -->
<svg width="975pt" height="252pt"
 viewBox="0.00 0.00 975.00 252.00" xmlns="http://www.w3.org/2000/svg" xmlns:xlink="http://www.w3.org/1999/xlink">
<g id="graph0" class="graph" transform="scale(1 1) rotate(0) translate(4 248)">
<title>DeviceComponent.cpp</title>
<!-- Node1 -->
<g id="node1" class="node"><title>Node1</title>
<polygon fill="#bfbfbf" stroke="black" points="271,-224.5 271,-243.5 387,-243.5 387,-224.5 271,-224.5"/>
<text text-anchor="middle" x="329" y="-231.5" font-family="Helvetica,sans-Serif" font-size="10.00">DeviceComponent.cpp</text>
</g>
<!-- Node2 -->
<g id="node2" class="node"><title>Node2</title>
<polygon fill="none" stroke="#bfbfbf" points="-0.5,-56.5 -0.5,-75.5 40.5,-75.5 40.5,-56.5 -0.5,-56.5"/>
<text text-anchor="middle" x="20" y="-63.5" font-family="Helvetica,sans-Serif" font-size="10.00">string</text>
</g>
<!-- Node1&#45;&gt;Node2 -->
<g id="edge1" class="edge"><title>Node1&#45;&gt;Node2</title>
<path fill="none" stroke="midnightblue" d="M270.88,-232.293C199.645,-227.955 81.2454,-208.769 23,-132 13.0864,-118.934 13.4526,-99.7812 15.6272,-85.6487"/>
<polygon fill="midnightblue" stroke="midnightblue" points="19.1073,-86.0897 17.597,-75.6031 12.2381,-84.7427 19.1073,-86.0897"/>
</g>
<!-- Node3 -->
<g id="node3" class="node"><title>Node3</title>
<polygon fill="none" stroke="#bfbfbf" points="405,-168.5 405,-187.5 461,-187.5 461,-168.5 405,-168.5"/>
<text text-anchor="middle" x="433" y="-175.5" font-family="Helvetica,sans-Serif" font-size="10.00">algorithm</text>
</g>
<!-- Node1&#45;&gt;Node3 -->
<g id="edge2" class="edge"><title>Node1&#45;&gt;Node3</title>
<path fill="none" stroke="midnightblue" d="M345.709,-224.324C362.312,-215.703 388.002,-202.364 407.22,-192.386"/>
<polygon fill="midnightblue" stroke="midnightblue" points="409.07,-195.369 416.332,-187.655 405.844,-189.156 409.07,-195.369"/>
</g>
<!-- Node4 -->
<g id="node4" class="node"><title>Node4</title>
<g id="a_node4"><a xlink:href="DeviceComponent_8hpp.html" target="_top" xlink:title="C++ header file for the DeviceComponent class. ">
<polygon fill="none" stroke="black" points="271,-168.5 271,-187.5 387,-187.5 387,-168.5 271,-168.5"/>
<text text-anchor="middle" x="329" y="-175.5" font-family="Helvetica,sans-Serif" font-size="10.00">DeviceComponent.hpp</text>
</a>
</g>
</g>
<!-- Node1&#45;&gt;Node4 -->
<g id="edge3" class="edge"><title>Node1&#45;&gt;Node4</title>
<path fill="none" stroke="midnightblue" d="M329,-224.083C329,-217.006 329,-206.861 329,-197.986"/>
<polygon fill="midnightblue" stroke="midnightblue" points="332.5,-197.751 329,-187.751 325.5,-197.751 332.5,-197.751"/>
</g>
<!-- Node5 -->
<g id="node5" class="node"><title>Node5</title>
<polygon fill="none" stroke="#bfbfbf" points="210.5,-56.5 210.5,-75.5 287.5,-75.5 287.5,-56.5 210.5,-56.5"/>
<text text-anchor="middle" x="249" y="-63.5" font-family="Helvetica,sans-Serif" font-size="10.00">Parameters.H</text>
</g>
<!-- Node4&#45;&gt;Node5 -->
<g id="edge4" class="edge"><title>Node4&#45;&gt;Node5</title>
<path fill="none" stroke="midnightblue" d="M322.723,-168.368C309.52,-150.215 278.674,-107.802 261.356,-83.9902"/>
<polygon fill="midnightblue" stroke="midnightblue" points="263.961,-81.6202 255.248,-75.5914 258.299,-85.7374 263.961,-81.6202"/>
</g>
<!-- Node6 -->
<g id="node6" class="node"><title>Node6</title>
<g id="a_node6"><a xlink:href="HalfCell_8hpp.html" target="_top" xlink:title="Program interface for the monolithic battery simulation software. ">
<polygon fill="none" stroke="black" points="58.5,-56.5 58.5,-75.5 129.5,-75.5 129.5,-56.5 58.5,-56.5"/>
<text text-anchor="middle" x="94" y="-63.5" font-family="Helvetica,sans-Serif" font-size="10.00">HalfCell.hpp</text>
</a>
</g>
</g>
<!-- Node4&#45;&gt;Node6 -->
<g id="edge5" class="edge"><title>Node4&#45;&gt;Node6</title>
<path fill="none" stroke="midnightblue" d="M310.389,-168.405C290.851,-159.373 259.244,-144.736 232,-132 193.585,-114.043 149.237,-93.1198 121.407,-79.9665"/>
<polygon fill="midnightblue" stroke="midnightblue" points="122.825,-76.7656 112.289,-75.6556 119.833,-83.094 122.825,-76.7656"/>
</g>
<!-- Node9 -->
<g id="node9" class="node"><title>Node9</title>
<g id="a_node9"><a xlink:href="SolutionData_8hpp.html" target="_top" xlink:title="C++ header file for the SolutionData class. ">
<polygon fill="none" stroke="black" points="320,-112.5 320,-131.5 412,-131.5 412,-112.5 320,-112.5"/>
<text text-anchor="middle" x="366" y="-119.5" font-family="Helvetica,sans-Serif" font-size="10.00">SolutionData.hpp</text>
</a>
</g>
</g>
<!-- Node4&#45;&gt;Node9 -->
<g id="edge8" class="edge"><title>Node4&#45;&gt;Node9</title>
<path fill="none" stroke="midnightblue" d="M335.11,-168.083C340.282,-160.534 347.846,-149.495 354.194,-140.23"/>
<polygon fill="midnightblue" stroke="midnightblue" points="357.239,-141.979 360.004,-131.751 351.464,-138.022 357.239,-141.979"/>
</g>
<!-- Node17 -->
<g id="node17" class="node"><title>Node17</title>
<g id="a_node17"><a xlink:href="PhysicsModule_8hpp.html" target="_top" xlink:title="C++ header file for the ElectrodeSolver class. ">
<polygon fill="none" stroke="black" points="48,-112.5 48,-131.5 150,-131.5 150,-112.5 48,-112.5"/>
<text text-anchor="middle" x="99" y="-119.5" font-family="Helvetica,sans-Serif" font-size="10.00">PhysicsModule.hpp</text>
</a>
</g>
</g>
<!-- Node4&#45;&gt;Node17 -->
<g id="edge19" class="edge"><title>Node4&#45;&gt;Node17</title>
<path fill="none" stroke="midnightblue" d="M292.556,-168.444C252.601,-159.063 188.413,-143.993 145.015,-133.804"/>
<polygon fill="midnightblue" stroke="midnightblue" points="145.809,-130.395 135.274,-131.516 144.209,-137.21 145.809,-130.395"/>
</g>
<!-- Node10 -->
<g id="node10" class="node"><title>Node10</title>
<polygon fill="none" stroke="#bfbfbf" points="305.5,-56.5 305.5,-75.5 418.5,-75.5 418.5,-56.5 305.5,-56.5"/>
<text text-anchor="middle" x="362" y="-63.5" font-family="Helvetica,sans-Serif" font-size="10.00">Epetra_SerialComm.h</text>
</g>
<!-- Node4&#45;&gt;Node10 -->
<g id="edge23" class="edge"><title>Node4&#45;&gt;Node10</title>
<path fill="none" stroke="midnightblue" d="M322.89,-168.295C314.751,-155.542 302.33,-131.211 311,-112 316.616,-99.5553 327.563,-89.1723 337.879,-81.5273"/>
<polygon fill="midnightblue" stroke="midnightblue" points="340.006,-84.3123 346.266,-75.7643 336.042,-78.5431 340.006,-84.3123"/>
</g>
<!-- Node11 -->
<g id="node11" class="node"><title>Node11</title>
<polygon fill="none" stroke="#bfbfbf" points="561.5,-56.5 561.5,-75.5 638.5,-75.5 638.5,-56.5 561.5,-56.5"/>
<text text-anchor="middle" x="600" y="-63.5" font-family="Helvetica,sans-Serif" font-size="10.00">Epetra_Map.h</text>
</g>
<!-- Node4&#45;&gt;Node11 -->
<g id="edge24" class="edge"><title>Node4&#45;&gt;Node11</title>
<path fill="none" stroke="midnightblue" d="M347.059,-168.361C365.666,-159.415 395.473,-144.957 421,-132 438.018,-123.362 441.397,-119.374 459,-112 491.401,-98.4269 529.407,-86.5173 557.791,-78.3653"/>
<polygon fill="midnightblue" stroke="midnightblue" points="559.117,-81.6277 567.785,-75.5359 557.21,-74.8924 559.117,-81.6277"/>
</g>
<!-- Node12 -->
<g id="node12" class="node"><title>Node12</title>
<polygon fill="none" stroke="#bfbfbf" points="656.5,-56.5 656.5,-75.5 743.5,-75.5 743.5,-56.5 656.5,-56.5"/>
<text text-anchor="middle" x="700" y="-63.5" font-family="Helvetica,sans-Serif" font-size="10.00">Epetra_Vector.h</text>
</g>
<!-- Node4&#45;&gt;Node12 -->
<g id="edge25" class="edge"><title>Node4&#45;&gt;Node12</title>
<path fill="none" stroke="midnightblue" d="M387.096,-169.127C390.107,-168.741 393.088,-168.363 396,-168 465.476,-159.339 662.407,-184.259 709,-132 720.225,-119.41 715.455,-99.6398 709.437,-85.2069"/>
<polygon fill="midnightblue" stroke="midnightblue" points="712.453,-83.3943 705.046,-75.8197 706.113,-86.3607 712.453,-83.3943"/>
</g>
<!-- Node18 -->
<g id="node18" class="node"><title>Node18</title>
<polygon fill="none" stroke="#bfbfbf" points="468,-112.5 468,-131.5 568,-131.5 568,-112.5 468,-112.5"/>
<text text-anchor="middle" x="518" y="-119.5" font-family="Helvetica,sans-Serif" font-size="10.00">Epetra_FEVector.h</text>
</g>
<!-- Node4&#45;&gt;Node18 -->
<g id="edge26" class="edge"><title>Node4&#45;&gt;Node18</title>
<path fill="none" stroke="midnightblue" d="M358.948,-168.444C391.158,-159.241 442.534,-144.562 478.142,-134.388"/>
<polygon fill="midnightblue" stroke="midnightblue" points="479.539,-137.629 488.192,-131.516 477.616,-130.898 479.539,-137.629"/>
</g>
<!-- Node13 -->
<g id="node13" class="node"><title>Node13</title>
<polygon fill="none" stroke="#bfbfbf" points="761.5,-56.5 761.5,-75.5 862.5,-75.5 862.5,-56.5 761.5,-56.5"/>
<text text-anchor="middle" x="812" y="-63.5" font-family="Helvetica,sans-Serif" font-size="10.00">Epetra_CrsMatrix.h</text>
</g>
<!-- Node4&#45;&gt;Node13 -->
<g id="edge27" class="edge"><title>Node4&#45;&gt;Node13</title>
<path fill="none" stroke="midnightblue" d="M387.093,-169.105C390.105,-168.725 393.087,-168.354 396,-168 542.898,-150.148 589.61,-186.97 727,-132 754.613,-120.952 780.931,-98.3018 796.776,-82.8812"/>
<polygon fill="midnightblue" stroke="midnightblue" points="799.477,-85.1293 804.058,-75.576 794.519,-80.1873 799.477,-85.1293"/>
</g>
<!-- Node19 -->
<g id="node19" class="node"><title>Node19</title>
<polygon fill="none" stroke="#bfbfbf" points="586,-112.5 586,-131.5 700,-131.5 700,-112.5 586,-112.5"/>
<text text-anchor="middle" x="643" y="-119.5" font-family="Helvetica,sans-Serif" font-size="10.00">Epetra_FECrsMatrix.h</text>
</g>
<!-- Node4&#45;&gt;Node19 -->
<g id="edge28" class="edge"><title>Node4&#45;&gt;Node19</title>
<path fill="none" stroke="midnightblue" d="M378.754,-168.444C434.335,-158.885 524.264,-143.419 583.516,-133.23"/>
<polygon fill="midnightblue" stroke="midnightblue" points="584.216,-136.661 593.479,-131.516 583.03,-129.762 584.216,-136.661"/>
</g>
<!-- Node15 -->
<g id="node15" class="node"><title>Node15</title>
<polygon fill="none" stroke="#bfbfbf" points="880.5,-56.5 880.5,-75.5 967.5,-75.5 967.5,-56.5 880.5,-56.5"/>
<text text-anchor="middle" x="924" y="-63.5" font-family="Helvetica,sans-Serif" font-size="10.00">Epetra_Export.h</text>
</g>
<!-- Node4&#45;&gt;Node15 -->
<g id="edge29" class="edge"><title>Node4&#45;&gt;Node15</title>
<path fill="none" stroke="midnightblue" d="M387.089,-169.073C390.102,-168.7 393.086,-168.341 396,-168 556.59,-149.235 600.806,-169.83 758,-132 808.995,-119.728 865.219,-95.2188 897.402,-80.0524"/>
<polygon fill="midnightblue" stroke="midnightblue" points="899.069,-83.1353 906.586,-75.6694 896.054,-76.818 899.069,-83.1353"/>
</g>
<!-- Node16 -->
<g id="node16" class="node"><title>Node16</title>
<polygon fill="none" stroke="#bfbfbf" points="148,-56.5 148,-75.5 192,-75.5 192,-56.5 148,-56.5"/>
<text text-anchor="middle" x="170" y="-63.5" font-family="Helvetica,sans-Serif" font-size="10.00">vector</text>
</g>
<!-- Node4&#45;&gt;Node16 -->
<g id="edge30" class="edge"><title>Node4&#45;&gt;Node16</title>
<path fill="none" stroke="midnightblue" d="M316.524,-168.368C289.355,-149.573 224.592,-104.768 191.007,-81.5334"/>
<polygon fill="midnightblue" stroke="midnightblue" points="192.634,-78.4025 182.419,-75.5914 188.651,-84.1592 192.634,-78.4025"/>
</g>
<!-- Node4&#45;&gt;Node2 -->
<g id="edge31" class="edge"><title>Node4&#45;&gt;Node2</title>
<path fill="none" stroke="midnightblue" d="M270.977,-175.196C196.428,-171.693 72.6068,-161.486 39,-132 25.9011,-120.507 21.601,-100.533 20.3021,-85.752"/>
<polygon fill="midnightblue" stroke="midnightblue" points="23.794,-85.4993 19.7978,-75.687 16.8027,-85.8497 23.794,-85.4993"/>
</g>
<!-- Node7 -->
<g id="node7" class="node"><title>Node7</title>
<polygon fill="none" stroke="#bfbfbf" points="29.5,-0.5 29.5,-19.5 84.5,-19.5 84.5,-0.5 29.5,-0.5"/>
<text text-anchor="middle" x="57" y="-7.5" font-family="Helvetica,sans-Serif" font-size="10.00">Global.H</text>
</g>
<!-- Node6&#45;&gt;Node7 -->
<g id="edge6" class="edge"><title>Node6&#45;&gt;Node7</title>
<path fill="none" stroke="midnightblue" d="M87.8902,-56.083C82.7178,-48.5341 75.1539,-37.4948 68.8056,-28.2298"/>
<polygon fill="midnightblue" stroke="midnightblue" points="71.5357,-26.0221 62.9961,-19.7511 65.7612,-29.9787 71.5357,-26.0221"/>
</g>
<!-- Node8 -->
<g id="node8" class="node"><title>Node8</title>
<polygon fill="none" stroke="#bfbfbf" points="103,-0.5 103,-19.5 161,-19.5 161,-0.5 103,-0.5"/>
<text text-anchor="middle" x="132" y="-7.5" font-family="Helvetica,sans-Serif" font-size="10.00">Profiler.H</text>
</g>
<!-- Node6&#45;&gt;Node8 -->
<g id="edge7" class="edge"><title>Node6&#45;&gt;Node8</title>
<path fill="none" stroke="midnightblue" d="M100.275,-56.083C105.642,-48.4554 113.518,-37.2645 120.079,-27.9408"/>
<polygon fill="midnightblue" stroke="midnightblue" points="122.949,-29.9434 125.842,-19.7511 117.225,-25.9149 122.949,-29.9434"/>
</g>
<!-- Node9&#45;&gt;Node5 -->
<g id="edge9" class="edge"><title>Node9&#45;&gt;Node5</title>
<path fill="none" stroke="midnightblue" d="M347.461,-112.444C328.377,-103.636 298.425,-89.8116 276.564,-79.722"/>
<polygon fill="midnightblue" stroke="midnightblue" points="277.999,-76.5292 267.452,-75.5164 275.065,-82.8849 277.999,-76.5292"/>
</g>
<!-- Node9&#45;&gt;Node6 -->
<g id="edge10" class="edge"><title>Node9&#45;&gt;Node6</title>
<path fill="none" stroke="midnightblue" d="M322.901,-112.479C279.288,-103.851 209.639,-90.0584 139.725,-76.1418"/>
<polygon fill="midnightblue" stroke="midnightblue" points="140.351,-72.6979 129.86,-74.1777 138.984,-79.5631 140.351,-72.6979"/>
</g>
<!-- Node9&#45;&gt;Node10 -->
<g id="edge11" class="edge"><title>Node9&#45;&gt;Node10</title>
<path fill="none" stroke="midnightblue" d="M365.339,-112.083C364.815,-105.006 364.064,-94.8611 363.406,-85.9865"/>
<polygon fill="midnightblue" stroke="midnightblue" points="366.877,-85.4652 362.648,-75.7511 359.897,-85.9823 366.877,-85.4652"/>
</g>
<!-- Node9&#45;&gt;Node11 -->
<g id="edge12" class="edge"><title>Node9&#45;&gt;Node11</title>
<path fill="none" stroke="midnightblue" d="M403.078,-112.444C443.728,-103.063 509.032,-87.9926 553.184,-77.8036"/>
<polygon fill="midnightblue" stroke="midnightblue" points="554.139,-81.1755 563.095,-75.5164 552.565,-74.3547 554.139,-81.1755"/>
</g>
<!-- Node9&#45;&gt;Node12 -->
<g id="edge13" class="edge"><title>Node9&#45;&gt;Node12</title>
<path fill="none" stroke="midnightblue" d="M412.265,-113.728C465.962,-105.257 557.46,-90.7289 646.349,-76.0946"/>
<polygon fill="midnightblue" stroke="midnightblue" points="647.035,-79.5288 656.333,-74.4487 645.897,-72.6221 647.035,-79.5288"/>
</g>
<!-- Node9&#45;&gt;Node13 -->
<g id="edge14" class="edge"><title>Node9&#45;&gt;Node13</title>
<path fill="none" stroke="midnightblue" d="M412.11,-116.12C482.721,-108.537 622.138,-93.1381 751.212,-76.0656"/>
<polygon fill="midnightblue" stroke="midnightblue" points="751.826,-79.5149 761.278,-74.728 750.904,-72.5759 751.826,-79.5149"/>
</g>
<!-- Node14 -->
<g id="node14" class="node"><title>Node14</title>
<polygon fill="none" stroke="#bfbfbf" points="437,-56.5 437,-75.5 543,-75.5 543,-56.5 437,-56.5"/>
<text text-anchor="middle" x="490" y="-63.5" font-family="Helvetica,sans-Serif" font-size="10.00">Epetra_RowMatrix.h</text>
</g>
<!-- Node9&#45;&gt;Node14 -->
<g id="edge15" class="edge"><title>Node9&#45;&gt;Node14</title>
<path fill="none" stroke="midnightblue" d="M385.648,-112.444C405.965,-103.596 437.903,-89.6875 461.098,-79.5865"/>
<polygon fill="midnightblue" stroke="midnightblue" points="462.673,-82.7181 470.444,-75.5164 459.878,-76.3002 462.673,-82.7181"/>
</g>
<!-- Node9&#45;&gt;Node15 -->
<g id="edge16" class="edge"><title>Node9&#45;&gt;Node15</title>
<path fill="none" stroke="midnightblue" d="M412.351,-116.429C427.244,-114.983 443.816,-113.398 459,-112 638.817,-95.4434 687.005,-99.2622 870.394,-75.9735"/>
<polygon fill="midnightblue" stroke="midnightblue" points="870.894,-79.4381 880.369,-74.6971 870.006,-72.4947 870.894,-79.4381"/>
</g>
<!-- Node9&#45;&gt;Node16 -->
<g id="edge17" class="edge"><title>Node9&#45;&gt;Node16</title>
<path fill="none" stroke="midnightblue" d="M334.018,-112.443C302.695,-104.026 253.369,-90.675 201.678,-76.159"/>
<polygon fill="midnightblue" stroke="midnightblue" points="202.577,-72.776 192.003,-73.4359 200.681,-79.5142 202.577,-72.776"/>
</g>
<!-- Node9&#45;&gt;Node2 -->
<g id="edge18" class="edge"><title>Node9&#45;&gt;Node2</title>
<path fill="none" stroke="midnightblue" d="M319.913,-116.792C259.843,-110.795 151.455,-98.2257 50.8261,-76.1313"/>
<polygon fill="midnightblue" stroke="midnightblue" points="51.3238,-72.6563 40.8013,-73.8923 49.7979,-79.488 51.3238,-72.6563"/>
</g>
<!-- Node17&#45;&gt;Node6 -->
<g id="edge20" class="edge"><title>Node17&#45;&gt;Node6</title>
<path fill="none" stroke="midnightblue" d="M98.1744,-112.083C97.5191,-105.006 96.5797,-94.8611 95.758,-85.9865"/>
<polygon fill="midnightblue" stroke="midnightblue" points="99.2174,-85.3858 94.8103,-75.7511 92.2473,-86.0312 99.2174,-85.3858"/>
</g>
<!-- Node17&#45;&gt;Node16 -->
<g id="edge21" class="edge"><title>Node17&#45;&gt;Node16</title>
<path fill="none" stroke="midnightblue" d="M110.407,-112.324C121.109,-104.185 137.341,-91.8395 150.163,-82.0874"/>
<polygon fill="midnightblue" stroke="midnightblue" points="152.544,-84.6734 158.385,-75.8339 148.307,-79.1018 152.544,-84.6734"/>
</g>
<!-- Node17&#45;&gt;Node2 -->
<g id="edge22" class="edge"><title>Node17&#45;&gt;Node2</title>
<path fill="none" stroke="midnightblue" d="M86.3073,-112.324C74.0989,-103.979 55.4215,-91.2122 40.9971,-81.3524"/>
<polygon fill="midnightblue" stroke="midnightblue" points="42.892,-78.4082 32.6612,-75.6545 38.9418,-84.1871 42.892,-78.4082"/>
</g>
</g>
</svg>
