<?xml version="1.0" encoding="UTF-8" standalone="no"?>
<!DOCTYPE svg PUBLIC "-//W3C//DTD SVG 1.1//EN"
 "http://www.w3.org/Graphics/SVG/1.1/DTD/svg11.dtd">
<!-- Generated by graphviz version 2.30.1 (20150305.2338)
 -->
<!-- Title: DeviceComponent.hpp Pages: 1 -->
<svg width="495pt" height="364pt"
 viewBox="0.00 0.00 495.00 364.00" xmlns="http://www.w3.org/2000/svg" xmlns:xlink="http://www.w3.org/1999/xlink">
<g id="graph0" class="graph" transform="scale(1 1) rotate(0) translate(4 360)">
<title>DeviceComponent.hpp</title>
<!-- Node1 -->
<g id="node1" class="node"><title>Node1</title>
<polygon fill="#bfbfbf" stroke="black" points="311,-336.5 311,-355.5 427,-355.5 427,-336.5 311,-336.5"/>
<text text-anchor="middle" x="369" y="-343.5" font-family="Helvetica,sans-Serif" font-size="10.00">DeviceComponent.hpp</text>
</g>
<!-- Node2 -->
<g id="node2" class="node"><title>Node2</title>
<g id="a_node2"><a xlink:href="DeviceData_8hpp.html" target="_top" xlink:title="C++ header file for the DeviceData class. ">
<polygon fill="none" stroke="black" points="265.5,-280.5 265.5,-299.5 352.5,-299.5 352.5,-280.5 265.5,-280.5"/>
<text text-anchor="middle" x="309" y="-287.5" font-family="Helvetica,sans-Serif" font-size="10.00">DeviceData.hpp</text>
</a>
</g>
</g>
<!-- Node1&#45;&gt;Node2 -->
<g id="edge1" class="edge"><title>Node1&#45;&gt;Node2</title>
<path fill="none" stroke="midnightblue" d="M351.819,-329.537C341.121,-319.909 327.744,-307.869 318.815,-299.834"/>
<polygon fill="midnightblue" stroke="midnightblue" points="349.586,-332.236 359.36,-336.324 354.268,-327.033 349.586,-332.236"/>
</g>
<!-- Node13 -->
<g id="node13" class="node"><title>Node13</title>
<g id="a_node13"><a xlink:href="DeviceComponent_8cpp.html" target="_top" xlink:title="C++ source code for the Device Component class. ">
<polygon fill="none" stroke="black" points="371,-280.5 371,-299.5 487,-299.5 487,-280.5 371,-280.5"/>
<text text-anchor="middle" x="429" y="-287.5" font-family="Helvetica,sans-Serif" font-size="10.00">DeviceComponent.cpp</text>
</a>
</g>
</g>
<!-- Node1&#45;&gt;Node13 -->
<g id="edge16" class="edge"><title>Node1&#45;&gt;Node13</title>
<path fill="none" stroke="midnightblue" d="M386.181,-329.537C396.879,-319.909 410.256,-307.869 419.185,-299.834"/>
<polygon fill="midnightblue" stroke="midnightblue" points="383.732,-327.033 378.64,-336.324 388.414,-332.236 383.732,-327.033"/>
</g>
<!-- Node3 -->
<g id="node3" class="node"><title>Node3</title>
<g id="a_node3"><a xlink:href="Solver_8hpp.html" target="_top" xlink:title="C++ header file for the SolutionData class. ">
<polygon fill="none" stroke="black" points="231.5,-224.5 231.5,-243.5 294.5,-243.5 294.5,-224.5 231.5,-224.5"/>
<text text-anchor="middle" x="263" y="-231.5" font-family="Helvetica,sans-Serif" font-size="10.00">Solver.hpp</text>
</a>
</g>
</g>
<!-- Node2&#45;&gt;Node3 -->
<g id="edge2" class="edge"><title>Node2&#45;&gt;Node3</title>
<path fill="none" stroke="midnightblue" d="M294.886,-272.431C286.824,-262.967 277.041,-251.483 270.455,-243.751"/>
<polygon fill="midnightblue" stroke="midnightblue" points="292.255,-274.74 301.404,-280.083 297.584,-270.201 292.255,-274.74"/>
</g>
<!-- Node10 -->
<g id="node10" class="node"><title>Node10</title>
<g id="a_node10"><a xlink:href="DeviceData_8cpp.html" target="_top" xlink:title="C++ source code for the DeviceData class. ">
<polygon fill="none" stroke="black" points="-0.5,-168.5 -0.5,-187.5 86.5,-187.5 86.5,-168.5 -0.5,-168.5"/>
<text text-anchor="middle" x="43" y="-175.5" font-family="Helvetica,sans-Serif" font-size="10.00">DeviceData.cpp</text>
</a>
</g>
</g>
<!-- Node2&#45;&gt;Node10 -->
<g id="edge13" class="edge"><title>Node2&#45;&gt;Node10</title>
<path fill="none" stroke="midnightblue" d="M278.642,-276.446C224.013,-253.855 110.494,-206.911 63.7756,-187.591"/>
<polygon fill="midnightblue" stroke="midnightblue" points="277.549,-279.781 288.127,-280.368 280.224,-273.313 277.549,-279.781"/>
</g>
<!-- Node11 -->
<g id="node11" class="node"><title>Node11</title>
<g id="a_node11"><a xlink:href="HalfCell_8cpp.html" target="_top" xlink:title="Solver for a battery half cell. ">
<polygon fill="none" stroke="black" points="335.5,-168.5 335.5,-187.5 406.5,-187.5 406.5,-168.5 335.5,-168.5"/>
<text text-anchor="middle" x="371" y="-175.5" font-family="Helvetica,sans-Serif" font-size="10.00">HalfCell.cpp</text>
</a>
</g>
</g>
<!-- Node2&#45;&gt;Node11 -->
<g id="edge14" class="edge"><title>Node2&#45;&gt;Node11</title>
<path fill="none" stroke="midnightblue" d="M318.785,-271.64C332.254,-247.744 355.991,-205.629 366.158,-187.591"/>
<polygon fill="midnightblue" stroke="midnightblue" points="315.726,-269.938 313.865,-280.368 321.824,-273.376 315.726,-269.938"/>
</g>
<!-- Node6 -->
<g id="node6" class="node"><title>Node6</title>
<g id="a_node6"><a xlink:href="ICEDTest_8H.html" target="_top" xlink:title="Testing object for ICED. ">
<polygon fill="none" stroke="black" points="271.5,-112.5 271.5,-131.5 342.5,-131.5 342.5,-112.5 271.5,-112.5"/>
<text text-anchor="middle" x="307" y="-119.5" font-family="Helvetica,sans-Serif" font-size="10.00">ICEDTest.H</text>
</a>
</g>
</g>
<!-- Node2&#45;&gt;Node6 -->
<g id="edge15" class="edge"><title>Node2&#45;&gt;Node6</title>
<path fill="none" stroke="midnightblue" d="M336.354,-275.736C376.444,-254.449 443.468,-210.702 415,-168 399,-144.001 367.521,-132.78 342.658,-127.546"/>
<polygon fill="midnightblue" stroke="midnightblue" points="334.577,-272.714 327.295,-280.41 337.786,-278.935 334.577,-272.714"/>
</g>
<!-- Node4 -->
<g id="node4" class="node"><title>Node4</title>
<g id="a_node4"><a xlink:href="DeviceModel_8hpp.html" target="_top" xlink:title="C++ header file for the DeviceModel class. ">
<polygon fill="none" stroke="black" points="105,-168.5 105,-187.5 197,-187.5 197,-168.5 105,-168.5"/>
<text text-anchor="middle" x="151" y="-175.5" font-family="Helvetica,sans-Serif" font-size="10.00">DeviceModel.hpp</text>
</a>
</g>
</g>
<!-- Node3&#45;&gt;Node4 -->
<g id="edge3" class="edge"><title>Node3&#45;&gt;Node4</title>
<path fill="none" stroke="midnightblue" d="M235.751,-219.862C214.984,-209.849 186.977,-196.346 168.95,-187.655"/>
<polygon fill="midnightblue" stroke="midnightblue" points="234.477,-223.134 245.005,-224.324 237.518,-216.828 234.477,-223.134"/>
</g>
<!-- Node3&#45;&gt;Node10 -->
<g id="edge9" class="edge"><title>Node3&#45;&gt;Node10</title>
<path fill="none" stroke="midnightblue" d="M221.671,-222.856C180.115,-212.656 116.769,-197.107 77.7288,-187.524"/>
<polygon fill="midnightblue" stroke="midnightblue" points="220.933,-226.278 231.479,-225.263 222.602,-219.48 220.933,-226.278"/>
</g>
<!-- Node3&#45;&gt;Node11 -->
<g id="edge10" class="edge"><title>Node3&#45;&gt;Node11</title>
<path fill="none" stroke="midnightblue" d="M289.548,-219.726C309.546,-209.727 336.387,-196.307 353.691,-187.655"/>
<polygon fill="midnightblue" stroke="midnightblue" points="287.731,-216.721 280.352,-224.324 290.862,-222.982 287.731,-216.721"/>
</g>
<!-- Node12 -->
<g id="node12" class="node"><title>Node12</title>
<g id="a_node12"><a xlink:href="Solver_8cpp.html" target="_top" xlink:title="C++ source code for the DeviceData class. ">
<polygon fill="none" stroke="black" points="215.5,-168.5 215.5,-187.5 278.5,-187.5 278.5,-168.5 215.5,-168.5"/>
<text text-anchor="middle" x="247" y="-175.5" font-family="Helvetica,sans-Serif" font-size="10.00">Solver.cpp</text>
</a>
</g>
</g>
<!-- Node3&#45;&gt;Node12 -->
<g id="edge11" class="edge"><title>Node3&#45;&gt;Node12</title>
<path fill="none" stroke="midnightblue" d="M257.488,-214.396C254.811,-205.362 251.722,-194.936 249.593,-187.751"/>
<polygon fill="midnightblue" stroke="midnightblue" points="254.161,-215.489 260.358,-224.083 260.873,-213.501 254.161,-215.489"/>
</g>
<!-- Node3&#45;&gt;Node6 -->
<g id="edge12" class="edge"><title>Node3&#45;&gt;Node6</title>
<path fill="none" stroke="midnightblue" d="M273.412,-215.372C277.962,-207.219 283.132,-197.299 287,-188 295.163,-168.378 301.734,-144.214 304.917,-131.597"/>
<polygon fill="midnightblue" stroke="midnightblue" points="270.242,-213.865 268.298,-224.28 276.312,-217.35 270.242,-213.865"/>
</g>
<!-- Node5 -->
<g id="node5" class="node"><title>Node5</title>
<g id="a_node5"><a xlink:href="DeviceModel_8cpp.html" target="_top" xlink:title="C++ source code for the DeviceData class. ">
<polygon fill="none" stroke="black" points="105,-112.5 105,-131.5 197,-131.5 197,-112.5 105,-112.5"/>
<text text-anchor="middle" x="151" y="-119.5" font-family="Helvetica,sans-Serif" font-size="10.00">DeviceModel.cpp</text>
</a>
</g>
</g>
<!-- Node4&#45;&gt;Node5 -->
<g id="edge4" class="edge"><title>Node4&#45;&gt;Node5</title>
<path fill="none" stroke="midnightblue" d="M151,-157.805C151,-148.91 151,-138.78 151,-131.751"/>
<polygon fill="midnightblue" stroke="midnightblue" points="147.5,-158.083 151,-168.083 154.5,-158.083 147.5,-158.083"/>
</g>
<!-- Node4&#45;&gt;Node6 -->
<g id="edge5" class="edge"><title>Node4&#45;&gt;Node6</title>
<path fill="none" stroke="midnightblue" d="M185.17,-165.172C214.544,-155.004 256.198,-140.585 282.397,-131.516"/>
<polygon fill="midnightblue" stroke="midnightblue" points="184.024,-161.865 175.719,-168.444 186.313,-168.48 184.024,-161.865"/>
</g>
<!-- Node7 -->
<g id="node7" class="node"><title>Node7</title>
<g id="a_node7"><a xlink:href="TestICED_8H.html" target="_top" xlink:title="Testing utilities for ICED. ">
<polygon fill="none" stroke="black" points="271.5,-56.5 271.5,-75.5 342.5,-75.5 342.5,-56.5 271.5,-56.5"/>
<text text-anchor="middle" x="307" y="-63.5" font-family="Helvetica,sans-Serif" font-size="10.00">TestICED.H</text>
</a>
</g>
</g>
<!-- Node6&#45;&gt;Node7 -->
<g id="edge6" class="edge"><title>Node6&#45;&gt;Node7</title>
<path fill="none" stroke="midnightblue" d="M307,-101.805C307,-92.9102 307,-82.7798 307,-75.7511"/>
<polygon fill="midnightblue" stroke="midnightblue" points="303.5,-102.083 307,-112.083 310.5,-102.083 303.5,-102.083"/>
</g>
<!-- Node8 -->
<g id="node8" class="node"><title>Node8</title>
<g id="a_node8"><a xlink:href="ParallelTestICED_8C.html" target="_top" xlink:title="Implements a command&#45;line interface for the ICED tests. ">
<polygon fill="none" stroke="black" points="202,-0.5 202,-19.5 306,-19.5 306,-0.5 202,-0.5"/>
<text text-anchor="middle" x="254" y="-7.5" font-family="Helvetica,sans-Serif" font-size="10.00">ParallelTestICED.C</text>
</a>
</g>
</g>
<!-- Node7&#45;&gt;Node8 -->
<g id="edge7" class="edge"><title>Node7&#45;&gt;Node8</title>
<path fill="none" stroke="midnightblue" d="M291.019,-48.7175C281.678,-39.1997 270.254,-27.5608 262.589,-19.7511"/>
<polygon fill="midnightblue" stroke="midnightblue" points="288.746,-51.3978 298.248,-56.083 293.741,-46.4945 288.746,-51.3978"/>
</g>
<!-- Node9 -->
<g id="node9" class="node"><title>Node9</title>
<g id="a_node9"><a xlink:href="TestICED_8C.html" target="_top" xlink:title="Implements a command&#45;line interface for the ICED tests. ">
<polygon fill="none" stroke="black" points="324.5,-0.5 324.5,-19.5 395.5,-19.5 395.5,-0.5 324.5,-0.5"/>
<text text-anchor="middle" x="360" y="-7.5" font-family="Helvetica,sans-Serif" font-size="10.00">TestICED.C</text>
</a>
</g>
</g>
<!-- Node7&#45;&gt;Node9 -->
<g id="edge8" class="edge"><title>Node7&#45;&gt;Node9</title>
<path fill="none" stroke="midnightblue" d="M322.981,-48.7175C332.322,-39.1997 343.746,-27.5608 351.411,-19.7511"/>
<polygon fill="midnightblue" stroke="midnightblue" points="320.259,-46.4945 315.752,-56.083 325.254,-51.3978 320.259,-46.4945"/>
</g>
</g>
</svg>
