<?xml version="1.0" encoding="UTF-8" standalone="no"?>
<!DOCTYPE svg PUBLIC "-//W3C//DTD SVG 1.1//EN"
 "http://www.w3.org/Graphics/SVG/1.1/DTD/svg11.dtd">
<!-- Generated by graphviz version 2.30.1 (20150305.2338)
 -->
<!-- Title: DeviceData.hpp Pages: 1 -->
<!--zoomable 264 -->
<svg id="main" version="1.1" xmlns="http://www.w3.org/2000/svg" xmlns:xlink="http://www.w3.org/1999/xlink" xml:space="preserve" onload="init(evt)">
<style type="text/css"><![CDATA[
.edge:hover path { stroke: red; }
.edge:hover polygon { stroke: red; fill: red; }
]]></style>
<script type="text/javascript"><![CDATA[
var edges = document.getElementsByTagName('g');
if (edges && edges.length) {
  for (var i=0;i<edges.length;i++) {
    if (edges[i].id.substr(0,4)=='edge') {
      edges[i].setAttribute('class','edge');
    }
  }
}
]]></script>
        <defs>
                <circle id="rim" cx="0" cy="0" r="7"/>
                <circle id="rim2" cx="0" cy="0" r="3.5"/>
                <g id="zoomPlus">
                        <use xlink:href="#rim" fill="#404040">
                                <set attributeName="fill" to="#808080" begin="zoomplus.mouseover" end="zoomplus.mouseout"/>
                        </use>
                        <path d="M-4,0h8M0,-4v8" fill="none" stroke="white" stroke-width="1.5" pointer-events="none"/>
                </g>
                <g id="zoomMin">
                        <use xlink:href="#rim" fill="#404040">
                                <set attributeName="fill" to="#808080" begin="zoomminus.mouseover" end="zoomminus.mouseout"/>
                        </use>
                        <path d="M-4,0h8" fill="none" stroke="white" stroke-width="1.5" pointer-events="none"/>
                </g>
                <g id="dirArrow">
                        <path fill="none" stroke="white" stroke-width="1.5" d="M0,-3.0v7 M-2.5,-0.5L0,-3.0L2.5,-0.5"/>
                </g>
               <g id="resetDef">
                       <use xlink:href="#rim2" fill="#404040">
                               <set attributeName="fill" to="#808080" begin="reset.mouseover" end="reset.mouseout"/>
                       </use>
               </g>
        </defs>

<script type="text/javascript">
var viewWidth = 1840;
var viewHeight = 264;
var sectionId = 'dynsection-0';
</script>
<script xlink:href="svgpan.js"/>
<svg id="graph" class="graph">
<g id="viewport">
<title>DeviceData.hpp</title>
<!-- Node1 -->
<g id="node1" class="node"><title>Node1</title>
<polygon fill="#bfbfbf" stroke="black" points="1075.5,-236.5 1075.5,-255.5 1162.5,-255.5 1162.5,-236.5 1075.5,-236.5"/>
<text text-anchor="middle" x="1119" y="-243.5" font-family="Helvetica,sans-Serif" font-size="10.00">DeviceData.hpp</text>
</g>
<!-- Node2 -->
<g id="node2" class="node"><title>Node2</title>
<polygon fill="none" stroke="#bfbfbf" points="-0.5,-56.5 -0.5,-75.5 76.5,-75.5 76.5,-56.5 -0.5,-56.5"/>
<text text-anchor="middle" x="38" y="-63.5" font-family="Helvetica,sans-Serif" font-size="10.00">Parameters.H</text>
</g>
<!-- Node1&#45;&gt;Node2 -->
<g id="edge1" class="edge"><title>Node1&#45;&gt;Node2</title>
<path fill="none" stroke="midnightblue" d="M1075.2,-245.302C963.708,-245.406 660.38,-241.509 412,-200 299.273,-181.161 270.476,-173.536 164,-132 126.586,-117.405 85.6825,-95.0114 60.9344,-80.6881"/>
<polygon fill="midnightblue" stroke="midnightblue" points="62.6803,-77.6546 52.2814,-75.6267 59.1461,-83.6969 62.6803,-77.6546"/>
</g>
<!-- Node3 -->
<g id="node3" class="node"><title>Node3</title>
<g id="a_node3"><a xlink:href="HalfCell_8hpp.html" target="_top" xlink:title="Program interface for the monolithic battery simulation software. ">
<polygon fill="none" stroke="black" points="861.5,-56.5 861.5,-75.5 932.5,-75.5 932.5,-56.5 861.5,-56.5"/>
<text text-anchor="middle" x="897" y="-63.5" font-family="Helvetica,sans-Serif" font-size="10.00">HalfCell.hpp</text>
</a>
</g>
</g>
<!-- Node1&#45;&gt;Node3 -->
<g id="edge2" class="edge"><title>Node1&#45;&gt;Node3</title>
<path fill="none" stroke="midnightblue" d="M1111.92,-236.296C1093.12,-213.599 1039.67,-151.626 985,-112 967.064,-99 944.84,-87.668 927.213,-79.6276"/>
<polygon fill="midnightblue" stroke="midnightblue" points="928.509,-76.3736 917.95,-75.5096 925.666,-82.7701 928.509,-76.3736"/>
</g>
<!-- Node6 -->
<g id="node6" class="node"><title>Node6</title>
<g id="a_node6"><a xlink:href="SolutionData_8hpp.html" target="_top" xlink:title="C++ header file for the SolutionData class. ">
<polygon fill="none" stroke="black" points="324,-112.5 324,-131.5 416,-131.5 416,-112.5 324,-112.5"/>
<text text-anchor="middle" x="370" y="-119.5" font-family="Helvetica,sans-Serif" font-size="10.00">SolutionData.hpp</text>
</a>
</g>
</g>
<!-- Node1&#45;&gt;Node6 -->
<g id="edge5" class="edge"><title>Node1&#45;&gt;Node6</title>
<path fill="none" stroke="midnightblue" d="M1075.08,-245.333C947.409,-245.773 578.342,-243.177 467,-200 433.123,-186.863 401.703,-157.516 384.258,-139.085"/>
<polygon fill="midnightblue" stroke="midnightblue" points="386.816,-136.696 377.469,-131.708 381.665,-141.436 386.816,-136.696"/>
</g>
<!-- Node15 -->
<g id="node15" class="node"><title>Node15</title>
<g id="a_node15"><a xlink:href="DeviceComponent_8hpp.html" target="_top" xlink:title="C++ header file for the DeviceComponent class. ">
<polygon fill="none" stroke="black" points="476,-174.5 476,-193.5 592,-193.5 592,-174.5 476,-174.5"/>
<text text-anchor="middle" x="534" y="-181.5" font-family="Helvetica,sans-Serif" font-size="10.00">DeviceComponent.hpp</text>
</a>
</g>
</g>
<!-- Node1&#45;&gt;Node15 -->
<g id="edge16" class="edge"><title>Node1&#45;&gt;Node15</title>
<path fill="none" stroke="midnightblue" d="M1075.03,-240.49C973.818,-230.11 723.765,-204.463 602.344,-192.01"/>
<polygon fill="midnightblue" stroke="midnightblue" points="602.367,-188.494 592.063,-190.955 601.653,-195.457 602.367,-188.494"/>
</g>
<!-- Node19 -->
<g id="node19" class="node"><title>Node19</title>
<polygon fill="none" stroke="#bfbfbf" points="1108,-174.5 1108,-193.5 1208,-193.5 1208,-174.5 1108,-174.5"/>
<text text-anchor="middle" x="1158" y="-181.5" font-family="Helvetica,sans-Serif" font-size="10.00">Teuchos_RCP.hpp</text>
</g>
<!-- Node1&#45;&gt;Node19 -->
<g id="edge33" class="edge"><title>Node1&#45;&gt;Node19</title>
<path fill="none" stroke="midnightblue" d="M1124.59,-236.403C1130.38,-227.493 1139.59,-213.325 1146.87,-202.118"/>
<polygon fill="midnightblue" stroke="midnightblue" points="1149.91,-203.873 1152.42,-193.581 1144.04,-200.058 1149.91,-203.873"/>
</g>
<!-- Node20 -->
<g id="node20" class="node"><title>Node20</title>
<polygon fill="none" stroke="#bfbfbf" points="1226.5,-174.5 1226.5,-193.5 1275.5,-193.5 1275.5,-174.5 1226.5,-174.5"/>
<text text-anchor="middle" x="1251" y="-181.5" font-family="Helvetica,sans-Serif" font-size="10.00">NOX.H</text>
</g>
<!-- Node1&#45;&gt;Node20 -->
<g id="edge34" class="edge"><title>Node1&#45;&gt;Node20</title>
<path fill="none" stroke="midnightblue" d="M1137.91,-236.403C1160.16,-226.29 1197.31,-209.404 1222.93,-197.761"/>
<polygon fill="midnightblue" stroke="midnightblue" points="1224.47,-200.905 1232.12,-193.581 1221.57,-194.532 1224.47,-200.905"/>
</g>
<!-- Node21 -->
<g id="node21" class="node"><title>Node21</title>
<polygon fill="none" stroke="#bfbfbf" points="1294,-169 1294,-199 1410,-199 1410,-169 1294,-169"/>
<text text-anchor="start" x="1302" y="-187" font-family="Helvetica,sans-Serif" font-size="10.00">NOX_Epetra_Interface</text>
<text text-anchor="middle" x="1352" y="-176" font-family="Helvetica,sans-Serif" font-size="10.00">_Required.H</text>
</g>
<!-- Node1&#45;&gt;Node21 -->
<g id="edge35" class="edge"><title>Node1&#45;&gt;Node21</title>
<path fill="none" stroke="midnightblue" d="M1152.38,-236.403C1187.6,-227.336 1243.95,-212.825 1287.81,-201.529"/>
<polygon fill="midnightblue" stroke="midnightblue" points="1288.72,-204.909 1297.54,-199.025 1286.98,-198.13 1288.72,-204.909"/>
</g>
<!-- Node22 -->
<g id="node22" class="node"><title>Node22</title>
<polygon fill="none" stroke="#bfbfbf" points="1428,-169 1428,-199 1544,-199 1544,-169 1428,-169"/>
<text text-anchor="start" x="1436" y="-187" font-family="Helvetica,sans-Serif" font-size="10.00">NOX_Epetra_Interface</text>
<text text-anchor="middle" x="1486" y="-176" font-family="Helvetica,sans-Serif" font-size="10.00">_Jacobian.H</text>
</g>
<!-- Node1&#45;&gt;Node22 -->
<g id="edge36" class="edge"><title>Node1&#45;&gt;Node22</title>
<path fill="none" stroke="midnightblue" d="M1162.63,-239.449C1219.23,-232.029 1321.21,-217.916 1418,-200.11"/>
<polygon fill="midnightblue" stroke="midnightblue" points="1418.75,-203.53 1427.95,-198.263 1417.48,-196.647 1418.75,-203.53"/>
</g>
<!-- Node23 -->
<g id="node23" class="node"><title>Node23</title>
<polygon fill="none" stroke="#bfbfbf" points="1562.5,-169 1562.5,-199 1699.5,-199 1699.5,-169 1562.5,-169"/>
<text text-anchor="start" x="1570.5" y="-187" font-family="Helvetica,sans-Serif" font-size="10.00">NOX_Epetra_LinearSystem</text>
<text text-anchor="middle" x="1631" y="-176" font-family="Helvetica,sans-Serif" font-size="10.00">_AztecOO.H</text>
</g>
<!-- Node1&#45;&gt;Node23 -->
<g id="edge37" class="edge"><title>Node1&#45;&gt;Node23</title>
<path fill="none" stroke="midnightblue" d="M1162.58,-241.739C1239.21,-235.732 1403.22,-221.655 1551.93,-200.075"/>
<polygon fill="midnightblue" stroke="midnightblue" points="1552.77,-203.489 1562.15,-198.576 1551.75,-196.564 1552.77,-203.489"/>
</g>
<!-- Node24 -->
<g id="node24" class="node"><title>Node24</title>
<polygon fill="none" stroke="#bfbfbf" points="1718,-174.5 1718,-193.5 1832,-193.5 1832,-174.5 1718,-174.5"/>
<text text-anchor="middle" x="1775" y="-181.5" font-family="Helvetica,sans-Serif" font-size="10.00">NOX_Epetra_Group.H</text>
</g>
<!-- Node1&#45;&gt;Node24 -->
<g id="edge38" class="edge"><title>Node1&#45;&gt;Node24</title>
<path fill="none" stroke="midnightblue" d="M1162.84,-243.808C1260.98,-240.668 1505.65,-230.221 1708,-200 1715.62,-198.861 1723.67,-197.341 1731.44,-195.704"/>
<polygon fill="midnightblue" stroke="midnightblue" points="1732.42,-199.072 1741.44,-193.508 1730.92,-192.236 1732.42,-199.072"/>
</g>
<!-- Node13 -->
<g id="node13" class="node"><title>Node13</title>
<polygon fill="none" stroke="#bfbfbf" points="777,-56.5 777,-75.5 821,-75.5 821,-56.5 777,-56.5"/>
<text text-anchor="middle" x="799" y="-63.5" font-family="Helvetica,sans-Serif" font-size="10.00">vector</text>
</g>
<!-- Node1&#45;&gt;Node13 -->
<g id="edge39" class="edge"><title>Node1&#45;&gt;Node13</title>
<path fill="none" stroke="midnightblue" d="M1091.4,-236.387C1042.9,-220.48 940.38,-183.369 865,-132 844.75,-118.2 825.223,-97.7998 812.734,-83.5454"/>
<polygon fill="midnightblue" stroke="midnightblue" points="815.081,-80.905 805.923,-75.5782 809.76,-85.4536 815.081,-80.905"/>
</g>
<!-- Node14 -->
<g id="node14" class="node"><title>Node14</title>
<polygon fill="none" stroke="#bfbfbf" points="963.5,-56.5 963.5,-75.5 1004.5,-75.5 1004.5,-56.5 963.5,-56.5"/>
<text text-anchor="middle" x="984" y="-63.5" font-family="Helvetica,sans-Serif" font-size="10.00">string</text>
</g>
<!-- Node1&#45;&gt;Node14 -->
<g id="edge40" class="edge"><title>Node1&#45;&gt;Node14</title>
<path fill="none" stroke="midnightblue" d="M1115.02,-236.253C1101.9,-207.453 1060.57,-117.129 1056,-112 1044.1,-98.632 1027.3,-87.8226 1012.91,-80.1515"/>
<polygon fill="midnightblue" stroke="midnightblue" points="1014.39,-76.9752 1003.89,-75.5683 1011.22,-83.2167 1014.39,-76.9752"/>
</g>
<!-- Node4 -->
<g id="node4" class="node"><title>Node4</title>
<polygon fill="none" stroke="#bfbfbf" points="832.5,-0.5 832.5,-19.5 887.5,-19.5 887.5,-0.5 832.5,-0.5"/>
<text text-anchor="middle" x="860" y="-7.5" font-family="Helvetica,sans-Serif" font-size="10.00">Global.H</text>
</g>
<!-- Node3&#45;&gt;Node4 -->
<g id="edge3" class="edge"><title>Node3&#45;&gt;Node4</title>
<path fill="none" stroke="midnightblue" d="M890.89,-56.083C885.718,-48.5341 878.154,-37.4948 871.806,-28.2298"/>
<polygon fill="midnightblue" stroke="midnightblue" points="874.536,-26.0221 865.996,-19.7511 868.761,-29.9787 874.536,-26.0221"/>
</g>
<!-- Node5 -->
<g id="node5" class="node"><title>Node5</title>
<polygon fill="none" stroke="#bfbfbf" points="906,-0.5 906,-19.5 964,-19.5 964,-0.5 906,-0.5"/>
<text text-anchor="middle" x="935" y="-7.5" font-family="Helvetica,sans-Serif" font-size="10.00">Profiler.H</text>
</g>
<!-- Node3&#45;&gt;Node5 -->
<g id="edge4" class="edge"><title>Node3&#45;&gt;Node5</title>
<path fill="none" stroke="midnightblue" d="M903.275,-56.083C908.642,-48.4554 916.518,-37.2645 923.079,-27.9408"/>
<polygon fill="midnightblue" stroke="midnightblue" points="925.949,-29.9434 928.842,-19.7511 920.225,-25.9149 925.949,-29.9434"/>
</g>
<!-- Node6&#45;&gt;Node2 -->
<g id="edge6" class="edge"><title>Node6&#45;&gt;Node2</title>
<path fill="none" stroke="midnightblue" d="M323.521,-114.137C269.081,-105.993 175.926,-91.7284 86.7233,-76.2605"/>
<polygon fill="midnightblue" stroke="midnightblue" points="87.1627,-72.7845 76.7103,-74.5162 85.9613,-79.6806 87.1627,-72.7845"/>
</g>
<!-- Node6&#45;&gt;Node3 -->
<g id="edge7" class="edge"><title>Node6&#45;&gt;Node3</title>
<path fill="none" stroke="midnightblue" d="M416.089,-117.045C498.998,-109.806 678.755,-93.5503 830,-76 836.815,-75.2092 844.01,-74.3104 851.058,-73.394"/>
<polygon fill="midnightblue" stroke="midnightblue" points="851.761,-76.8315 861.215,-72.0494 850.843,-69.892 851.761,-76.8315"/>
</g>
<!-- Node7 -->
<g id="node7" class="node"><title>Node7</title>
<polygon fill="none" stroke="#bfbfbf" points="94.5,-56.5 94.5,-75.5 207.5,-75.5 207.5,-56.5 94.5,-56.5"/>
<text text-anchor="middle" x="151" y="-63.5" font-family="Helvetica,sans-Serif" font-size="10.00">Epetra_SerialComm.h</text>
</g>
<!-- Node6&#45;&gt;Node7 -->
<g id="edge8" class="edge"><title>Node6&#45;&gt;Node7</title>
<path fill="none" stroke="midnightblue" d="M335.299,-112.444C297.415,-103.102 236.651,-88.1194 195.338,-77.9326"/>
<polygon fill="midnightblue" stroke="midnightblue" points="196.086,-74.5123 185.539,-75.5164 194.41,-81.3088 196.086,-74.5123"/>
</g>
<!-- Node8 -->
<g id="node8" class="node"><title>Node8</title>
<polygon fill="none" stroke="#bfbfbf" points="225.5,-56.5 225.5,-75.5 302.5,-75.5 302.5,-56.5 225.5,-56.5"/>
<text text-anchor="middle" x="264" y="-63.5" font-family="Helvetica,sans-Serif" font-size="10.00">Epetra_Map.h</text>
</g>
<!-- Node6&#45;&gt;Node8 -->
<g id="edge9" class="edge"><title>Node6&#45;&gt;Node8</title>
<path fill="none" stroke="midnightblue" d="M352.969,-112.324C335.97,-103.664 309.624,-90.2424 290.007,-80.249"/>
<polygon fill="midnightblue" stroke="midnightblue" points="291.488,-77.0752 280.988,-75.6545 288.31,-83.3125 291.488,-77.0752"/>
</g>
<!-- Node9 -->
<g id="node9" class="node"><title>Node9</title>
<polygon fill="none" stroke="#bfbfbf" points="320.5,-56.5 320.5,-75.5 407.5,-75.5 407.5,-56.5 320.5,-56.5"/>
<text text-anchor="middle" x="364" y="-63.5" font-family="Helvetica,sans-Serif" font-size="10.00">Epetra_Vector.h</text>
</g>
<!-- Node6&#45;&gt;Node9 -->
<g id="edge10" class="edge"><title>Node6&#45;&gt;Node9</title>
<path fill="none" stroke="midnightblue" d="M369.009,-112.083C368.214,-104.927 367.071,-94.6353 366.077,-85.6911"/>
<polygon fill="midnightblue" stroke="midnightblue" points="369.555,-85.3034 364.972,-75.7511 362.598,-86.0765 369.555,-85.3034"/>
</g>
<!-- Node10 -->
<g id="node10" class="node"><title>Node10</title>
<polygon fill="none" stroke="#bfbfbf" points="550.5,-56.5 550.5,-75.5 651.5,-75.5 651.5,-56.5 550.5,-56.5"/>
<text text-anchor="middle" x="601" y="-63.5" font-family="Helvetica,sans-Serif" font-size="10.00">Epetra_CrsMatrix.h</text>
</g>
<!-- Node6&#45;&gt;Node10 -->
<g id="edge11" class="edge"><title>Node6&#45;&gt;Node10</title>
<path fill="none" stroke="midnightblue" d="M406.603,-112.444C446.731,-103.063 511.198,-87.9926 554.785,-77.8036"/>
<polygon fill="midnightblue" stroke="midnightblue" points="555.628,-81.2009 564.569,-75.5164 554.034,-74.3847 555.628,-81.2009"/>
</g>
<!-- Node11 -->
<g id="node11" class="node"><title>Node11</title>
<polygon fill="none" stroke="#bfbfbf" points="426,-56.5 426,-75.5 532,-75.5 532,-56.5 426,-56.5"/>
<text text-anchor="middle" x="479" y="-63.5" font-family="Helvetica,sans-Serif" font-size="10.00">Epetra_RowMatrix.h</text>
</g>
<!-- Node6&#45;&gt;Node11 -->
<g id="edge12" class="edge"><title>Node6&#45;&gt;Node11</title>
<path fill="none" stroke="midnightblue" d="M387.513,-112.324C405.072,-103.625 432.331,-90.1202 452.531,-80.113"/>
<polygon fill="midnightblue" stroke="midnightblue" points="454.124,-83.23 461.531,-75.6545 451.016,-76.9575 454.124,-83.23"/>
</g>
<!-- Node12 -->
<g id="node12" class="node"><title>Node12</title>
<polygon fill="none" stroke="#bfbfbf" points="669.5,-56.5 669.5,-75.5 756.5,-75.5 756.5,-56.5 669.5,-56.5"/>
<text text-anchor="middle" x="713" y="-63.5" font-family="Helvetica,sans-Serif" font-size="10.00">Epetra_Export.h</text>
</g>
<!-- Node6&#45;&gt;Node12 -->
<g id="edge13" class="edge"><title>Node6&#45;&gt;Node12</title>
<path fill="none" stroke="midnightblue" d="M416.24,-114.033C471.487,-105.662 566.991,-91.0464 659.264,-76.1003"/>
<polygon fill="midnightblue" stroke="midnightblue" points="660.025,-79.5225 669.335,-74.4654 658.904,-72.613 660.025,-79.5225"/>
</g>
<!-- Node6&#45;&gt;Node13 -->
<g id="edge14" class="edge"><title>Node6&#45;&gt;Node13</title>
<path fill="none" stroke="midnightblue" d="M416.241,-117.922C490.334,-112.5 640.027,-99.5302 765,-76 765.6,-75.887 766.205,-75.7691 766.814,-75.6469"/>
<polygon fill="midnightblue" stroke="midnightblue" points="767.82,-79.0074 776.793,-73.3736 766.266,-72.1822 767.82,-79.0074"/>
</g>
<!-- Node6&#45;&gt;Node14 -->
<g id="edge15" class="edge"><title>Node6&#45;&gt;Node14</title>
<path fill="none" stroke="midnightblue" d="M416.38,-117.687C543.196,-108.581 889.693,-83.3604 941,-76 944.964,-75.4314 949.11,-74.7175 953.197,-73.9418"/>
<polygon fill="midnightblue" stroke="midnightblue" points="953.994,-77.3516 963.099,-71.9339 952.603,-70.4912 953.994,-77.3516"/>
</g>
<!-- Node15&#45;&gt;Node2 -->
<g id="edge17" class="edge"><title>Node15&#45;&gt;Node2</title>
<path fill="none" stroke="midnightblue" d="M475.831,-175.92C414.607,-167.831 315.691,-152.951 232,-132 173.483,-117.351 107.23,-93.5332 69.2569,-79.1579"/>
<polygon fill="midnightblue" stroke="midnightblue" points="70.3707,-75.8368 59.7799,-75.5435 67.8762,-82.3773 70.3707,-75.8368"/>
</g>
<!-- Node15&#45;&gt;Node3 -->
<g id="edge18" class="edge"><title>Node15&#45;&gt;Node3</title>
<path fill="none" stroke="midnightblue" d="M592.053,-177.156C644.801,-170.513 724.062,-157.156 789,-132 822.063,-119.192 856.536,-96.5594 877.39,-81.669"/>
<polygon fill="midnightblue" stroke="midnightblue" points="879.675,-84.3353 885.705,-75.6239 875.558,-78.6735 879.675,-84.3353"/>
</g>
<!-- Node15&#45;&gt;Node6 -->
<g id="edge19" class="edge"><title>Node15&#45;&gt;Node6</title>
<path fill="none" stroke="midnightblue" d="M510.503,-174.403C482.371,-164.111 435.071,-146.806 403.211,-135.15"/>
<polygon fill="midnightblue" stroke="midnightblue" points="404.047,-131.73 393.454,-131.581 401.642,-138.303 404.047,-131.73"/>
</g>
<!-- Node16 -->
<g id="node16" class="node"><title>Node16</title>
<g id="a_node16"><a xlink:href="PhysicsModule_8hpp.html" target="_top" xlink:title="C++ header file for the ElectrodeSolver class. ">
<polygon fill="none" stroke="black" points="874,-112.5 874,-131.5 976,-131.5 976,-112.5 874,-112.5"/>
<text text-anchor="middle" x="925" y="-119.5" font-family="Helvetica,sans-Serif" font-size="10.00">PhysicsModule.hpp</text>
</a>
</g>
</g>
<!-- Node15&#45;&gt;Node16 -->
<g id="edge20" class="edge"><title>Node15&#45;&gt;Node16</title>
<path fill="none" stroke="midnightblue" d="M589.606,-174.467C662.097,-163.343 788.478,-143.95 863.679,-132.41"/>
<polygon fill="midnightblue" stroke="midnightblue" points="864.587,-135.812 873.94,-130.835 863.525,-128.893 864.587,-135.812"/>
</g>
<!-- Node15&#45;&gt;Node7 -->
<g id="edge24" class="edge"><title>Node15&#45;&gt;Node7</title>
<path fill="none" stroke="midnightblue" d="M475.811,-175.401C424.428,-167.69 347.953,-153.756 284,-132 243.911,-118.362 200.332,-95.3536 174.362,-80.6861"/>
<polygon fill="midnightblue" stroke="midnightblue" points="176.048,-77.6184 165.629,-75.6924 172.573,-83.695 176.048,-77.6184"/>
</g>
<!-- Node15&#45;&gt;Node8 -->
<g id="edge25" class="edge"><title>Node15&#45;&gt;Node8</title>
<path fill="none" stroke="midnightblue" d="M475.617,-181.737C426.703,-178.069 357.046,-166.509 307,-132 290.166,-120.392 278.222,-99.8374 271.261,-84.9441"/>
<polygon fill="midnightblue" stroke="midnightblue" points="274.444,-83.4859 267.24,-75.7175 268.027,-86.283 274.444,-83.4859"/>
</g>
<!-- Node15&#45;&gt;Node9 -->
<g id="edge26" class="edge"><title>Node15&#45;&gt;Node9</title>
<path fill="none" stroke="midnightblue" d="M475.858,-177.533C417.902,-170.738 334.752,-156.88 315,-132 301.346,-114.801 322.322,-94.5327 340.917,-81.258"/>
<polygon fill="midnightblue" stroke="midnightblue" points="343.094,-84.0115 349.426,-75.5172 339.179,-78.2086 343.094,-84.0115"/>
</g>
<!-- Node17 -->
<g id="node17" class="node"><title>Node17</title>
<polygon fill="none" stroke="#bfbfbf" points="510,-112.5 510,-131.5 610,-131.5 610,-112.5 510,-112.5"/>
<text text-anchor="middle" x="560" y="-119.5" font-family="Helvetica,sans-Serif" font-size="10.00">Epetra_FEVector.h</text>
</g>
<!-- Node15&#45;&gt;Node17 -->
<g id="edge27" class="edge"><title>Node15&#45;&gt;Node17</title>
<path fill="none" stroke="midnightblue" d="M537.725,-174.403C541.509,-165.671 547.481,-151.889 552.289,-140.794"/>
<polygon fill="midnightblue" stroke="midnightblue" points="555.517,-142.148 556.282,-131.581 549.094,-139.365 555.517,-142.148"/>
</g>
<!-- Node15&#45;&gt;Node10 -->
<g id="edge28" class="edge"><title>Node15&#45;&gt;Node10</title>
<path fill="none" stroke="midnightblue" d="M515.334,-174.451C490.145,-161.716 450.343,-136.615 468,-112 477.883,-98.2233 516.297,-86.1314 549.317,-77.9613"/>
<polygon fill="midnightblue" stroke="midnightblue" points="550.446,-81.2899 559.354,-75.5542 548.813,-74.483 550.446,-81.2899"/>
</g>
<!-- Node18 -->
<g id="node18" class="node"><title>Node18</title>
<polygon fill="none" stroke="#bfbfbf" points="666,-112.5 666,-131.5 780,-131.5 780,-112.5 666,-112.5"/>
<text text-anchor="middle" x="723" y="-119.5" font-family="Helvetica,sans-Serif" font-size="10.00">Epetra_FECrsMatrix.h</text>
</g>
<!-- Node15&#45;&gt;Node18 -->
<g id="edge29" class="edge"><title>Node15&#45;&gt;Node18</title>
<path fill="none" stroke="midnightblue" d="M561.079,-174.403C593.92,-163.978 649.43,-146.356 686.148,-134.699"/>
<polygon fill="midnightblue" stroke="midnightblue" points="687.499,-137.942 695.971,-131.581 685.381,-131.271 687.499,-137.942"/>
</g>
<!-- Node15&#45;&gt;Node12 -->
<g id="edge30" class="edge"><title>Node15&#45;&gt;Node12</title>
<path fill="none" stroke="midnightblue" d="M524.378,-174.384C509.718,-160.224 485.086,-131.646 501,-112 506.048,-105.769 598.418,-87.8752 659.55,-76.619"/>
<polygon fill="midnightblue" stroke="midnightblue" points="660.244,-80.0502 669.449,-74.804 658.982,-73.165 660.244,-80.0502"/>
</g>
<!-- Node15&#45;&gt;Node13 -->
<g id="edge31" class="edge"><title>Node15&#45;&gt;Node13</title>
<path fill="none" stroke="midnightblue" d="M547.876,-174.479C575.15,-157.817 635.003,-121.697 657,-112 676.815,-103.265 731.473,-86.701 766.908,-76.2891"/>
<polygon fill="midnightblue" stroke="midnightblue" points="768.172,-79.5659 776.787,-73.399 766.207,-72.8475 768.172,-79.5659"/>
</g>
<!-- Node15&#45;&gt;Node14 -->
<g id="edge32" class="edge"><title>Node15&#45;&gt;Node14</title>
<path fill="none" stroke="midnightblue" d="M592.027,-180.674C707.935,-175.43 959.245,-160.832 985,-132 996.024,-119.659 994.092,-100.131 990.429,-85.6983"/>
<polygon fill="midnightblue" stroke="midnightblue" points="993.702,-84.4296 987.476,-75.8575 986.998,-86.4415 993.702,-84.4296"/>
</g>
<!-- Node16&#45;&gt;Node3 -->
<g id="edge21" class="edge"><title>Node16&#45;&gt;Node3</title>
<path fill="none" stroke="midnightblue" d="M920.376,-112.083C916.544,-104.691 910.976,-93.9533 906.235,-84.8111"/>
<polygon fill="midnightblue" stroke="midnightblue" points="909.248,-83.0175 901.538,-75.7511 903.034,-86.2398 909.248,-83.0175"/>
</g>
<!-- Node16&#45;&gt;Node13 -->
<g id="edge22" class="edge"><title>Node16&#45;&gt;Node13</title>
<path fill="none" stroke="midnightblue" d="M905.035,-112.444C884.391,-103.596 851.937,-89.6875 828.368,-79.5865"/>
<polygon fill="midnightblue" stroke="midnightblue" points="829.442,-76.2387 818.872,-75.5164 826.684,-82.6727 829.442,-76.2387"/>
</g>
<!-- Node16&#45;&gt;Node14 -->
<g id="edge23" class="edge"><title>Node16&#45;&gt;Node14</title>
<path fill="none" stroke="midnightblue" d="M934.479,-112.324C943.201,-104.341 956.343,-92.3128 966.898,-82.6529"/>
<polygon fill="midnightblue" stroke="midnightblue" points="969.334,-85.1674 974.348,-75.8339 964.608,-80.0036 969.334,-85.1674"/>
</g>
</g>
</svg>
        <g id="navigator" transform="translate(0 0)" fill="#404254">
                <rect fill="#f2f5e9" fill-opacity="0.5" stroke="#606060" stroke-width=".5" x="0" y="0" width="60" height="60"/>
                <use id="zoomplus" xlink:href="#zoomPlus" x="17" y="9" onmousedown="handleZoom(evt,'in')"/>
                <use id="zoomminus" xlink:href="#zoomMin" x="42" y="9" onmousedown="handleZoom(evt,'out')"/>
                <use id="reset" xlink:href="#resetDef" x="30" y="36" onmousedown="handleReset()"/>
                <g id="arrowUp" xlink:href="#dirArrow" transform="translate(30 24)" onmousedown="handlePan(0,-1)">
                  <use xlink:href="#rim" fill="#404040">
                        <set attributeName="fill" to="#808080" begin="arrowUp.mouseover" end="arrowUp.mouseout"/>
                  </use>
                  <path fill="none" stroke="white" stroke-width="1.5" d="M0,-3.0v7 M-2.5,-0.5L0,-3.0L2.5,-0.5"/>
                </g>
                <g id="arrowRight" xlink:href="#dirArrow" transform="rotate(90) translate(36 -43)" onmousedown="handlePan(1,0)">
                  <use xlink:href="#rim" fill="#404040">
                        <set attributeName="fill" to="#808080" begin="arrowRight.mouseover" end="arrowRight.mouseout"/>
                  </use>
                  <path fill="none" stroke="white" stroke-width="1.5" d="M0,-3.0v7 M-2.5,-0.5L0,-3.0L2.5,-0.5"/>
                </g>
                <g id="arrowDown" xlink:href="#dirArrow" transform="rotate(180) translate(-30 -48)" onmousedown="handlePan(0,1)">
                  <use xlink:href="#rim" fill="#404040">
                        <set attributeName="fill" to="#808080" begin="arrowDown.mouseover" end="arrowDown.mouseout"/>
                  </use>
                  <path fill="none" stroke="white" stroke-width="1.5" d="M0,-3.0v7 M-2.5,-0.5L0,-3.0L2.5,-0.5"/>
                </g>
                <g id="arrowLeft" xlink:href="#dirArrow" transform="rotate(270) translate(-36 17)" onmousedown="handlePan(-1,0)">
                  <use xlink:href="#rim" fill="#404040">
                        <set attributeName="fill" to="#808080" begin="arrowLeft.mouseover" end="arrowLeft.mouseout"/>
                  </use>
                  <path fill="none" stroke="white" stroke-width="1.5" d="M0,-3.0v7 M-2.5,-0.5L0,-3.0L2.5,-0.5"/>
                </g>
        </g>
        <svg viewBox="0 0 15 15" width="100%" height="30px" preserveAspectRatio="xMaxYMin meet">
         <g id="arrow_out" transform="scale(0.3 0.3)">
          <a xlink:href="DeviceData_8hpp__incl_org.svg" target="_base">
           <rect id="button" ry="5" rx="5" y="6" x="6" height="38" width="38"
                fill="#f2f5e9" fill-opacity="0.5" stroke="#606060" stroke-width="1.0"/>
           <path id="arrow"
             d="M 11.500037,31.436501 C 11.940474,20.09759 22.043105,11.32322 32.158766,21.979434 L 37.068811,17.246167 C 37.068811,17.246167 37.088388,32 37.088388,32 L 22.160133,31.978069 C 22.160133,31.978069 26.997745,27.140456 26.997745,27.140456 C 18.528582,18.264221 13.291696,25.230495 11.500037,31.436501 z"
             style="fill:#404040;"/>
          </a>
         </g>
        </svg>
</svg>
