<?xml version="1.0" encoding="UTF-8" standalone="no"?>
<!DOCTYPE svg PUBLIC "-//W3C//DTD SVG 1.1//EN"
 "http://www.w3.org/Graphics/SVG/1.1/DTD/svg11.dtd">
<!-- Generated by graphviz version 2.30.1 (20150305.2338)
 -->
<!-- Title: DeviceModel.cpp Pages: 1 -->
<!--zoomable 444 -->
<svg id="main" version="1.1" xmlns="http://www.w3.org/2000/svg" xmlns:xlink="http://www.w3.org/1999/xlink" xml:space="preserve" onload="init(evt)">
<style type="text/css"><![CDATA[
.edge:hover path { stroke: red; }
.edge:hover polygon { stroke: red; fill: red; }
]]></style>
<script type="text/javascript"><![CDATA[
var edges = document.getElementsByTagName('g');
if (edges && edges.length) {
  for (var i=0;i<edges.length;i++) {
    if (edges[i].id.substr(0,4)=='edge') {
      edges[i].setAttribute('class','edge');
    }
  }
}
]]></script>
        <defs>
                <circle id="rim" cx="0" cy="0" r="7"/>
                <circle id="rim2" cx="0" cy="0" r="3.5"/>
                <g id="zoomPlus">
                        <use xlink:href="#rim" fill="#404040">
                                <set attributeName="fill" to="#808080" begin="zoomplus.mouseover" end="zoomplus.mouseout"/>
                        </use>
                        <path d="M-4,0h8M0,-4v8" fill="none" stroke="white" stroke-width="1.5" pointer-events="none"/>
                </g>
                <g id="zoomMin">
                        <use xlink:href="#rim" fill="#404040">
                                <set attributeName="fill" to="#808080" begin="zoomminus.mouseover" end="zoomminus.mouseout"/>
                        </use>
                        <path d="M-4,0h8" fill="none" stroke="white" stroke-width="1.5" pointer-events="none"/>
                </g>
                <g id="dirArrow">
                        <path fill="none" stroke="white" stroke-width="1.5" d="M0,-3.0v7 M-2.5,-0.5L0,-3.0L2.5,-0.5"/>
                </g>
               <g id="resetDef">
                       <use xlink:href="#rim2" fill="#404040">
                               <set attributeName="fill" to="#808080" begin="reset.mouseover" end="reset.mouseout"/>
                       </use>
               </g>
        </defs>

<script type="text/javascript">
var viewWidth = 2655;
var viewHeight = 444;
var sectionId = 'dynsection-0';
</script>
<script xlink:href="svgpan.js"/>
<svg id="graph" class="graph">
<g id="viewport">
<title>DeviceModel.cpp</title>
<!-- Node1 -->
<g id="node1" class="node"><title>Node1</title>
<polygon fill="#bfbfbf" stroke="black" points="1816.02,-416.5 1816.02,-435.5 1908.02,-435.5 1908.02,-416.5 1816.02,-416.5"/>
<text text-anchor="middle" x="1862.02" y="-423.5" font-family="Helvetica,sans-Serif" font-size="10.00">DeviceModel.cpp</text>
</g>
<!-- Node2 -->
<g id="node2" class="node"><title>Node2</title>
<polygon fill="none" stroke="#bfbfbf" points="1236.52,-56.5 1236.52,-75.5 1277.52,-75.5 1277.52,-56.5 1236.52,-56.5"/>
<text text-anchor="middle" x="1257.02" y="-63.5" font-family="Helvetica,sans-Serif" font-size="10.00">string</text>
</g>
<!-- Node1&#45;&gt;Node2 -->
<g id="edge1" class="edge"><title>Node1&#45;&gt;Node2</title>
<path fill="none" stroke="midnightblue" d="M1815.86,-423.593C1703.35,-419.748 1421.84,-407.461 1390.02,-380 1363.33,-356.971 1371.02,-338.249 1371.02,-303 1371.02,-303 1371.02,-303 1371.02,-183 1371.02,-134.091 1318.83,-98.2609 1285.07,-80.2023"/>
<polygon fill="midnightblue" stroke="midnightblue" points="1286.59,-77.0483 1276.1,-75.584 1283.39,-83.2723 1286.59,-77.0483"/>
</g>
<!-- Node3 -->
<g id="node3" class="node"><title>Node3</title>
<g id="a_node3"><a xlink:href="DeviceModel_8hpp.html" target="_top" xlink:title="C++ header file for the DeviceModel class. ">
<polygon fill="none" stroke="black" points="447.02,-354.5 447.02,-373.5 539.02,-373.5 539.02,-354.5 447.02,-354.5"/>
<text text-anchor="middle" x="493.02" y="-361.5" font-family="Helvetica,sans-Serif" font-size="10.00">DeviceModel.hpp</text>
</a>
</g>
</g>
<!-- Node1&#45;&gt;Node3 -->
<g id="edge2" class="edge"><title>Node1&#45;&gt;Node3</title>
<path fill="none" stroke="midnightblue" d="M1815.69,-422.969C1609.48,-413.932 775.433,-377.378 549.63,-367.481"/>
<polygon fill="midnightblue" stroke="midnightblue" points="549.486,-363.971 539.342,-367.03 549.179,-370.965 549.486,-363.971"/>
</g>
<!-- Node31 -->
<g id="node31" class="node"><title>Node31</title>
<polygon fill="none" stroke="#bfbfbf" points="1399.52,-354.5 1399.52,-373.5 1502.52,-373.5 1502.52,-354.5 1399.52,-354.5"/>
<text text-anchor="middle" x="1451.02" y="-361.5" font-family="Helvetica,sans-Serif" font-size="10.00">Rythmos_Version.h</text>
</g>
<!-- Node1&#45;&gt;Node31 -->
<g id="edge55" class="edge"><title>Node1&#45;&gt;Node31</title>
<path fill="none" stroke="midnightblue" d="M1815.75,-420.817C1748.35,-414.328 1619.39,-400.42 1511.02,-380 1504.86,-378.839 1498.38,-377.427 1492.06,-375.938"/>
<polygon fill="midnightblue" stroke="midnightblue" points="1492.86,-372.531 1482.32,-373.563 1491.2,-379.332 1492.86,-372.531"/>
</g>
<!-- Node32 -->
<g id="node32" class="node"><title>Node32</title>
<polygon fill="none" stroke="#bfbfbf" points="1520.52,-349 1520.52,-379 1665.52,-379 1665.52,-349 1520.52,-349"/>
<text text-anchor="start" x="1528.52" y="-367" font-family="Helvetica,sans-Serif" font-size="10.00">Rythmos_TimeStepNonlinear</text>
<text text-anchor="middle" x="1593.02" y="-356" font-family="Helvetica,sans-Serif" font-size="10.00">Solver.hpp</text>
</g>
<!-- Node1&#45;&gt;Node32 -->
<g id="edge56" class="edge"><title>Node1&#45;&gt;Node32</title>
<path fill="none" stroke="midnightblue" d="M1823.76,-416.467C1782.83,-407.337 1716.93,-392.638 1666.01,-381.281"/>
<polygon fill="midnightblue" stroke="midnightblue" points="1666.56,-377.818 1656.04,-379.057 1665.04,-384.65 1666.56,-377.818"/>
</g>
<!-- Node33 -->
<g id="node33" class="node"><title>Node33</title>
<polygon fill="none" stroke="#bfbfbf" points="1684.02,-354.5 1684.02,-373.5 1856.02,-373.5 1856.02,-354.5 1684.02,-354.5"/>
<text text-anchor="middle" x="1770.02" y="-361.5" font-family="Helvetica,sans-Serif" font-size="10.00">Rythmos_ForwardEulerStepper.hpp</text>
</g>
<!-- Node1&#45;&gt;Node33 -->
<g id="edge57" class="edge"><title>Node1&#45;&gt;Node33</title>
<path fill="none" stroke="midnightblue" d="M1848.84,-416.403C1833.95,-406.691 1809.48,-390.732 1791.75,-379.17"/>
<polygon fill="midnightblue" stroke="midnightblue" points="1793.46,-376.112 1783.18,-373.581 1789.64,-381.975 1793.46,-376.112"/>
</g>
<!-- Node34 -->
<g id="node34" class="node"><title>Node34</title>
<polygon fill="none" stroke="#bfbfbf" points="1874.52,-354.5 1874.52,-373.5 2035.52,-373.5 2035.52,-354.5 1874.52,-354.5"/>
<text text-anchor="middle" x="1955.02" y="-361.5" font-family="Helvetica,sans-Serif" font-size="10.00">Thyra_EpetraThyraWrappers.hpp</text>
</g>
<!-- Node1&#45;&gt;Node34 -->
<g id="edge58" class="edge"><title>Node1&#45;&gt;Node34</title>
<path fill="none" stroke="midnightblue" d="M1875.34,-416.403C1890.4,-406.691 1915.14,-390.732 1933.06,-379.17"/>
<polygon fill="midnightblue" stroke="midnightblue" points="1935.21,-381.943 1941.72,-373.581 1931.42,-376.061 1935.21,-381.943"/>
</g>
<!-- Node35 -->
<g id="node35" class="node"><title>Node35</title>
<polygon fill="none" stroke="#bfbfbf" points="2053.52,-354.5 2053.52,-373.5 2186.52,-373.5 2186.52,-354.5 2053.52,-354.5"/>
<text text-anchor="middle" x="2120.02" y="-361.5" font-family="Helvetica,sans-Serif" font-size="10.00">Thyra_EpetraLinearOp.hpp</text>
</g>
<!-- Node1&#45;&gt;Node35 -->
<g id="edge59" class="edge"><title>Node1&#45;&gt;Node35</title>
<path fill="none" stroke="midnightblue" d="M1898.71,-416.467C1944.66,-405.783 2023.4,-387.469 2073.52,-375.813"/>
<polygon fill="midnightblue" stroke="midnightblue" points="2074.51,-379.178 2083.46,-373.503 2072.92,-372.36 2074.51,-379.178"/>
</g>
<!-- Node36 -->
<g id="node36" class="node"><title>Node36</title>
<polygon fill="none" stroke="#bfbfbf" points="2204.52,-354.5 2204.52,-373.5 2365.52,-373.5 2365.52,-354.5 2204.52,-354.5"/>
<text text-anchor="middle" x="2285.02" y="-361.5" font-family="Helvetica,sans-Serif" font-size="10.00">Thyra_EpetraModelEvaluator.hpp</text>
</g>
<!-- Node1&#45;&gt;Node36 -->
<g id="edge60" class="edge"><title>Node1&#45;&gt;Node36</title>
<path fill="none" stroke="midnightblue" d="M1908.14,-419.224C1972.48,-411.063 2092.77,-395.425 2195.02,-380 2204.89,-378.511 2215.35,-376.847 2225.51,-375.183"/>
<polygon fill="midnightblue" stroke="midnightblue" points="2226.25,-378.609 2235.55,-373.527 2225.11,-371.703 2226.25,-378.609"/>
</g>
<!-- Node37 -->
<g id="node37" class="node"><title>Node37</title>
<polygon fill="none" stroke="#bfbfbf" points="2384.02,-349 2384.02,-379 2500.02,-379 2500.02,-349 2384.02,-349"/>
<text text-anchor="start" x="2392.02" y="-367" font-family="Helvetica,sans-Serif" font-size="10.00">Thyra_NonlinearSolver</text>
<text text-anchor="middle" x="2442.02" y="-356" font-family="Helvetica,sans-Serif" font-size="10.00">_NOX.hpp</text>
</g>
<!-- Node1&#45;&gt;Node37 -->
<g id="edge61" class="edge"><title>Node1&#45;&gt;Node37</title>
<path fill="none" stroke="midnightblue" d="M1908.15,-422.95C1996.5,-418.59 2195.78,-406.664 2373.8,-379.88"/>
<polygon fill="midnightblue" stroke="midnightblue" points="2374.52,-383.312 2383.87,-378.345 2373.46,-376.392 2374.52,-383.312"/>
</g>
<!-- Node38 -->
<g id="node38" class="node"><title>Node38</title>
<polygon fill="none" stroke="#bfbfbf" points="2518.52,-349 2518.52,-379 2647.52,-379 2647.52,-349 2518.52,-349"/>
<text text-anchor="start" x="2526.52" y="-367" font-family="Helvetica,sans-Serif" font-size="10.00">Stratimikos_DefaultLinear</text>
<text text-anchor="middle" x="2583.02" y="-356" font-family="Helvetica,sans-Serif" font-size="10.00">SolverBuilder.hpp</text>
</g>
<!-- Node1&#45;&gt;Node38 -->
<g id="edge62" class="edge"><title>Node1&#45;&gt;Node38</title>
<path fill="none" stroke="midnightblue" d="M1908.12,-423.859C2012.97,-420.82 2277.4,-410.653 2508.21,-379.986"/>
<polygon fill="midnightblue" stroke="midnightblue" points="2508.68,-383.453 2518.13,-378.652 2507.75,-376.516 2508.68,-383.453"/>
</g>
<!-- Node4 -->
<g id="node4" class="node"><title>Node4</title>
<polygon fill="none" stroke="#bfbfbf" points="56.52,-56.5 56.52,-75.5 133.52,-75.5 133.52,-56.5 56.52,-56.5"/>
<text text-anchor="middle" x="95.02" y="-63.5" font-family="Helvetica,sans-Serif" font-size="10.00">Parameters.H</text>
</g>
<!-- Node3&#45;&gt;Node4 -->
<g id="edge3" class="edge"><title>Node3&#45;&gt;Node4</title>
<path fill="none" stroke="midnightblue" d="M446.813,-360.909C334.191,-355.409 52.3607,-339.07 20.02,-312 -3.0599,-292.682 1.01997,-277.098 1.01997,-247 1.01997,-247 1.01997,-247 1.01997,-183 1.01997,-137.858 44.5217,-100.452 72.3382,-81.1471"/>
<polygon fill="midnightblue" stroke="midnightblue" points="74.3748,-83.9957 80.7434,-75.5286 70.4847,-78.1762 74.3748,-83.9957"/>
</g>
<!-- Node5 -->
<g id="node5" class="node"><title>Node5</title>
<g id="a_node5"><a xlink:href="HalfCell_8hpp.html" target="_top" xlink:title="Program interface for the monolithic battery simulation software. ">
<polygon fill="none" stroke="black" points="1075.52,-56.5 1075.52,-75.5 1146.52,-75.5 1146.52,-56.5 1075.52,-56.5"/>
<text text-anchor="middle" x="1111.02" y="-63.5" font-family="Helvetica,sans-Serif" font-size="10.00">HalfCell.hpp</text>
</a>
</g>
</g>
<!-- Node3&#45;&gt;Node5 -->
<g id="edge4" class="edge"><title>Node3&#45;&gt;Node5</title>
<path fill="none" stroke="midnightblue" d="M539.089,-358.538C635.066,-348.275 862.514,-318.888 1043.02,-256 1094.08,-238.211 1121.59,-245.357 1151.02,-200 1172.33,-167.157 1169.8,-148.255 1155.02,-112 1150.22,-100.225 1140.69,-89.8564 1131.73,-82.0486"/>
<polygon fill="midnightblue" stroke="midnightblue" points="1133.77,-79.2048 1123.8,-75.6314 1129.37,-84.6448 1133.77,-79.2048"/>
</g>
<!-- Node8 -->
<g id="node8" class="node"><title>Node8</title>
<polygon fill="none" stroke="#bfbfbf" points="29.52,-292.5 29.52,-311.5 170.52,-311.5 170.52,-292.5 29.52,-292.5"/>
<text text-anchor="middle" x="100.02" y="-299.5" font-family="Helvetica,sans-Serif" font-size="10.00">EpetraExt_ModelEvaluator.h</text>
</g>
<!-- Node3&#45;&gt;Node8 -->
<g id="edge7" class="edge"><title>Node3&#45;&gt;Node8</title>
<path fill="none" stroke="midnightblue" d="M446.782,-355.941C377.22,-345.321 245.338,-325.186 165.786,-313.041"/>
<polygon fill="midnightblue" stroke="midnightblue" points="166.288,-309.577 155.875,-311.527 165.232,-316.497 166.288,-309.577"/>
</g>
<!-- Node9 -->
<g id="node9" class="node"><title>Node9</title>
<polygon fill="none" stroke="#bfbfbf" points="188.52,-292.5 188.52,-311.5 327.52,-311.5 327.52,-292.5 188.52,-292.5"/>
<text text-anchor="middle" x="258.02" y="-299.5" font-family="Helvetica,sans-Serif" font-size="10.00">Teuchos_ParameterList.hpp</text>
</g>
<!-- Node3&#45;&gt;Node9 -->
<g id="edge8" class="edge"><title>Node3&#45;&gt;Node9</title>
<path fill="none" stroke="midnightblue" d="M459.35,-354.403C417.818,-343.799 347.129,-325.751 301.521,-314.107"/>
<polygon fill="midnightblue" stroke="midnightblue" points="302.182,-310.663 291.627,-311.581 300.451,-317.446 302.182,-310.663"/>
</g>
<!-- Node10 -->
<g id="node10" class="node"><title>Node10</title>
<polygon fill="none" stroke="#bfbfbf" points="345.52,-292.5 345.52,-311.5 464.52,-311.5 464.52,-292.5 345.52,-292.5"/>
<text text-anchor="middle" x="405.02" y="-299.5" font-family="Helvetica,sans-Serif" font-size="10.00">Rythmos_ConfigDefs.h</text>
</g>
<!-- Node3&#45;&gt;Node10 -->
<g id="edge9" class="edge"><title>Node3&#45;&gt;Node10</title>
<path fill="none" stroke="midnightblue" d="M480.412,-354.403C466.297,-344.78 443.189,-329.024 426.271,-317.489"/>
<polygon fill="midnightblue" stroke="midnightblue" points="427.839,-314.322 417.605,-311.581 423.895,-320.106 427.839,-314.322"/>
</g>
<!-- Node11 -->
<g id="node11" class="node"><title>Node11</title>
<g id="a_node11"><a xlink:href="Solver_8hpp.html" target="_top" xlink:title="C++ header file for the SolutionData class. ">
<polygon fill="none" stroke="black" points="632.52,-292.5 632.52,-311.5 695.52,-311.5 695.52,-292.5 632.52,-292.5"/>
<text text-anchor="middle" x="664.02" y="-299.5" font-family="Helvetica,sans-Serif" font-size="10.00">Solver.hpp</text>
</a>
</g>
</g>
<!-- Node3&#45;&gt;Node11 -->
<g id="edge10" class="edge"><title>Node3&#45;&gt;Node11</title>
<path fill="none" stroke="midnightblue" d="M517.52,-354.403C546.98,-344.067 596.599,-326.656 629.822,-314.999"/>
<polygon fill="midnightblue" stroke="midnightblue" points="631.288,-318.194 639.565,-311.581 628.97,-311.589 631.288,-318.194"/>
</g>
<!-- Node20 -->
<g id="node20" class="node"><title>Node20</title>
<polygon fill="none" stroke="#bfbfbf" points="188.02,-56.5 188.02,-75.5 232.02,-75.5 232.02,-56.5 188.02,-56.5"/>
<text text-anchor="middle" x="210.02" y="-63.5" font-family="Helvetica,sans-Serif" font-size="10.00">vector</text>
</g>
<!-- Node3&#45;&gt;Node20 -->
<g id="edge53" class="edge"><title>Node3&#45;&gt;Node20</title>
<path fill="none" stroke="midnightblue" d="M493.343,-354.5C493.413,-339.446 491.204,-308.167 473.02,-292 396.68,-224.127 339.599,-296.957 246.02,-256 209.202,-239.886 192.555,-236.163 175.02,-200 170.014,-189.676 174.008,-123.493 178.02,-112 181.639,-101.631 188.428,-91.5306 194.824,-83.5349"/>
<polygon fill="midnightblue" stroke="midnightblue" points="197.618,-85.6523 201.442,-75.7716 192.291,-81.1109 197.618,-85.6523"/>
</g>
<!-- Node3&#45;&gt;Node2 -->
<g id="edge54" class="edge"><title>Node3&#45;&gt;Node2</title>
<path fill="none" stroke="midnightblue" d="M539.078,-361.535C714.772,-355.348 1333.02,-327.832 1333.02,-247 1333.02,-247 1333.02,-247 1333.02,-183 1333.02,-141.186 1298.04,-102.719 1275.54,-82.3013"/>
<polygon fill="midnightblue" stroke="midnightblue" points="1277.74,-79.5718 1267.91,-75.623 1273.13,-84.8409 1277.74,-79.5718"/>
</g>
<!-- Node6 -->
<g id="node6" class="node"><title>Node6</title>
<polygon fill="none" stroke="#bfbfbf" points="1046.52,-0.5 1046.52,-19.5 1101.52,-19.5 1101.52,-0.5 1046.52,-0.5"/>
<text text-anchor="middle" x="1074.02" y="-7.5" font-family="Helvetica,sans-Serif" font-size="10.00">Global.H</text>
</g>
<!-- Node5&#45;&gt;Node6 -->
<g id="edge5" class="edge"><title>Node5&#45;&gt;Node6</title>
<path fill="none" stroke="midnightblue" d="M1104.91,-56.083C1099.74,-48.5341 1092.17,-37.4948 1085.83,-28.2298"/>
<polygon fill="midnightblue" stroke="midnightblue" points="1088.56,-26.0221 1080.02,-19.7511 1082.78,-29.9787 1088.56,-26.0221"/>
</g>
<!-- Node7 -->
<g id="node7" class="node"><title>Node7</title>
<polygon fill="none" stroke="#bfbfbf" points="1120.02,-0.5 1120.02,-19.5 1178.02,-19.5 1178.02,-0.5 1120.02,-0.5"/>
<text text-anchor="middle" x="1149.02" y="-7.5" font-family="Helvetica,sans-Serif" font-size="10.00">Profiler.H</text>
</g>
<!-- Node5&#45;&gt;Node7 -->
<g id="edge6" class="edge"><title>Node5&#45;&gt;Node7</title>
<path fill="none" stroke="midnightblue" d="M1117.29,-56.083C1122.66,-48.4554 1130.54,-37.2645 1137.1,-27.9408"/>
<polygon fill="midnightblue" stroke="midnightblue" points="1139.97,-29.9434 1142.86,-19.7511 1134.24,-25.9149 1139.97,-29.9434"/>
</g>
<!-- Node11&#45;&gt;Node5 -->
<g id="edge11" class="edge"><title>Node11&#45;&gt;Node5</title>
<path fill="none" stroke="midnightblue" d="M695.704,-298.632C790.196,-290.9 1067.2,-263.171 1127.02,-200 1154.12,-171.381 1148.54,-149.985 1138.02,-112 1135.23,-101.921 1129.51,-91.832 1124.05,-83.7694"/>
<polygon fill="midnightblue" stroke="midnightblue" points="1126.87,-81.6881 1118.17,-75.6357 1121.2,-85.7899 1126.87,-81.6881"/>
</g>
<!-- Node12 -->
<g id="node12" class="node"><title>Node12</title>
<g id="a_node12"><a xlink:href="DeviceData_8hpp.html" target="_top" xlink:title="C++ header file for the DeviceData class. ">
<polygon fill="none" stroke="black" points="620.52,-236.5 620.52,-255.5 707.52,-255.5 707.52,-236.5 620.52,-236.5"/>
<text text-anchor="middle" x="664.02" y="-243.5" font-family="Helvetica,sans-Serif" font-size="10.00">DeviceData.hpp</text>
</a>
</g>
</g>
<!-- Node11&#45;&gt;Node12 -->
<g id="edge12" class="edge"><title>Node11&#45;&gt;Node12</title>
<path fill="none" stroke="midnightblue" d="M664.02,-292.083C664.02,-285.006 664.02,-274.861 664.02,-265.986"/>
<polygon fill="midnightblue" stroke="midnightblue" points="667.52,-265.751 664.02,-255.751 660.52,-265.751 667.52,-265.751"/>
</g>
<!-- Node11&#45;&gt;Node20 -->
<g id="edge51" class="edge"><title>Node11&#45;&gt;Node20</title>
<path fill="none" stroke="midnightblue" d="M632.253,-299.193C535.495,-292.966 247.576,-268.866 191.02,-200 163.729,-166.769 185.599,-112.424 199.977,-84.6103"/>
<polygon fill="midnightblue" stroke="midnightblue" points="203.144,-86.1115 204.83,-75.6517 196.989,-82.7772 203.144,-86.1115"/>
</g>
<!-- Node11&#45;&gt;Node2 -->
<g id="edge52" class="edge"><title>Node11&#45;&gt;Node2</title>
<path fill="none" stroke="midnightblue" d="M695.755,-301.038C761.871,-300.299 918.566,-294.262 1043.02,-256 1139.4,-226.368 1174.75,-214.298 1233.02,-132 1243,-117.901 1249.34,-99.1652 1252.98,-85.4319"/>
<polygon fill="midnightblue" stroke="midnightblue" points="1256.39,-86.217 1255.33,-75.6746 1249.58,-84.5726 1256.39,-86.217"/>
</g>
<!-- Node12&#45;&gt;Node4 -->
<g id="edge13" class="edge"><title>Node12&#45;&gt;Node4</title>
<path fill="none" stroke="midnightblue" d="M620.176,-245.365C517.269,-245.509 263.491,-241.515 191.02,-200 145.025,-173.652 115.163,-115.304 102.29,-85.4209"/>
<polygon fill="midnightblue" stroke="midnightblue" points="105.372,-83.7157 98.3171,-75.8113 98.903,-86.39 105.372,-83.7157"/>
</g>
<!-- Node12&#45;&gt;Node5 -->
<g id="edge14" class="edge"><title>Node12&#45;&gt;Node5</title>
<path fill="none" stroke="midnightblue" d="M707.766,-243.695C813.647,-240.099 1077.02,-228.366 1104.02,-200 1133.29,-169.246 1124.17,-114.183 1116.68,-85.5062"/>
<polygon fill="midnightblue" stroke="midnightblue" points="1119.96,-84.2675 1113.87,-75.5998 1113.23,-86.1751 1119.96,-84.2675"/>
</g>
<!-- Node13 -->
<g id="node13" class="node"><title>Node13</title>
<g id="a_node13"><a xlink:href="SolutionData_8hpp.html" target="_top" xlink:title="C++ header file for the SolutionData class. ">
<polygon fill="none" stroke="black" points="751.02,-112.5 751.02,-131.5 843.02,-131.5 843.02,-112.5 751.02,-112.5"/>
<text text-anchor="middle" x="797.02" y="-119.5" font-family="Helvetica,sans-Serif" font-size="10.00">SolutionData.hpp</text>
</a>
</g>
</g>
<!-- Node12&#45;&gt;Node13 -->
<g id="edge15" class="edge"><title>Node12&#45;&gt;Node13</title>
<path fill="none" stroke="midnightblue" d="M707.579,-243.588C810.315,-239.81 1061.02,-227.807 1086.02,-200 1095.53,-189.424 1095.27,-178.803 1086.02,-168 1071.1,-150.582 933.344,-135.34 853.53,-127.875"/>
<polygon fill="midnightblue" stroke="midnightblue" points="853.425,-124.35 843.146,-126.917 852.782,-131.321 853.425,-124.35"/>
</g>
<!-- Node21 -->
<g id="node21" class="node"><title>Node21</title>
<g id="a_node21"><a xlink:href="DeviceComponent_8hpp.html" target="_top" xlink:title="C++ header file for the DeviceComponent class. ">
<polygon fill="none" stroke="black" points="673.02,-174.5 673.02,-193.5 789.02,-193.5 789.02,-174.5 673.02,-174.5"/>
<text text-anchor="middle" x="731.02" y="-181.5" font-family="Helvetica,sans-Serif" font-size="10.00">DeviceComponent.hpp</text>
</a>
</g>
</g>
<!-- Node12&#45;&gt;Node21 -->
<g id="edge26" class="edge"><title>Node12&#45;&gt;Node21</title>
<path fill="none" stroke="midnightblue" d="M673.619,-236.403C684.068,-227.047 700.987,-211.895 713.756,-200.46"/>
<polygon fill="midnightblue" stroke="midnightblue" points="716.324,-202.859 721.438,-193.581 711.654,-197.644 716.324,-202.859"/>
</g>
<!-- Node25 -->
<g id="node25" class="node"><title>Node25</title>
<polygon fill="none" stroke="#bfbfbf" points="219.02,-174.5 219.02,-193.5 319.02,-193.5 319.02,-174.5 219.02,-174.5"/>
<text text-anchor="middle" x="269.02" y="-181.5" font-family="Helvetica,sans-Serif" font-size="10.00">Teuchos_RCP.hpp</text>
</g>
<!-- Node12&#45;&gt;Node25 -->
<g id="edge43" class="edge"><title>Node12&#45;&gt;Node25</title>
<path fill="none" stroke="midnightblue" d="M620.264,-240.776C555.889,-234.191 432.03,-220.116 328.02,-200 322.104,-198.856 315.896,-197.477 309.821,-196.025"/>
<polygon fill="midnightblue" stroke="midnightblue" points="310.343,-192.549 299.795,-193.541 308.66,-199.344 310.343,-192.549"/>
</g>
<!-- Node26 -->
<g id="node26" class="node"><title>Node26</title>
<polygon fill="none" stroke="#bfbfbf" points="337.52,-174.5 337.52,-193.5 386.52,-193.5 386.52,-174.5 337.52,-174.5"/>
<text text-anchor="middle" x="362.02" y="-181.5" font-family="Helvetica,sans-Serif" font-size="10.00">NOX.H</text>
</g>
<!-- Node12&#45;&gt;Node26 -->
<g id="edge44" class="edge"><title>Node12&#45;&gt;Node26</title>
<path fill="none" stroke="midnightblue" d="M620.093,-241.015C566.372,-235.373 473.08,-223.073 396.02,-200 393.586,-199.271 391.097,-198.412 388.627,-197.479"/>
<polygon fill="midnightblue" stroke="midnightblue" points="389.93,-194.231 379.351,-193.641 387.253,-200.699 389.93,-194.231"/>
</g>
<!-- Node27 -->
<g id="node27" class="node"><title>Node27</title>
<polygon fill="none" stroke="#bfbfbf" points="405.02,-169 405.02,-199 521.02,-199 521.02,-169 405.02,-169"/>
<text text-anchor="start" x="413.02" y="-187" font-family="Helvetica,sans-Serif" font-size="10.00">NOX_Epetra_Interface</text>
<text text-anchor="middle" x="463.02" y="-176" font-family="Helvetica,sans-Serif" font-size="10.00">_Required.H</text>
</g>
<!-- Node12&#45;&gt;Node27 -->
<g id="edge45" class="edge"><title>Node12&#45;&gt;Node27</title>
<path fill="none" stroke="midnightblue" d="M635.222,-236.403C605.228,-227.45 557.456,-213.19 519.829,-201.958"/>
<polygon fill="midnightblue" stroke="midnightblue" points="520.588,-198.532 510.005,-199.025 518.586,-205.24 520.588,-198.532"/>
</g>
<!-- Node28 -->
<g id="node28" class="node"><title>Node28</title>
<polygon fill="none" stroke="#bfbfbf" points="539.02,-169 539.02,-199 655.02,-199 655.02,-169 539.02,-169"/>
<text text-anchor="start" x="547.02" y="-187" font-family="Helvetica,sans-Serif" font-size="10.00">NOX_Epetra_Interface</text>
<text text-anchor="middle" x="597.02" y="-176" font-family="Helvetica,sans-Serif" font-size="10.00">_Jacobian.H</text>
</g>
<!-- Node12&#45;&gt;Node28 -->
<g id="edge46" class="edge"><title>Node12&#45;&gt;Node28</title>
<path fill="none" stroke="midnightblue" d="M654.421,-236.403C645.601,-228.505 632.169,-216.477 620.516,-206.041"/>
<polygon fill="midnightblue" stroke="midnightblue" points="622.595,-203.205 612.811,-199.141 617.925,-208.419 622.595,-203.205"/>
</g>
<!-- Node29 -->
<g id="node29" class="node"><title>Node29</title>
<polygon fill="none" stroke="#bfbfbf" points="807.52,-169 807.52,-199 944.52,-199 944.52,-169 807.52,-169"/>
<text text-anchor="start" x="815.52" y="-187" font-family="Helvetica,sans-Serif" font-size="10.00">NOX_Epetra_LinearSystem</text>
<text text-anchor="middle" x="876.02" y="-176" font-family="Helvetica,sans-Serif" font-size="10.00">_AztecOO.H</text>
</g>
<!-- Node12&#45;&gt;Node29 -->
<g id="edge47" class="edge"><title>Node12&#45;&gt;Node29</title>
<path fill="none" stroke="midnightblue" d="M694.394,-236.403C726.164,-227.412 776.845,-213.068 816.608,-201.815"/>
<polygon fill="midnightblue" stroke="midnightblue" points="817.795,-205.116 826.464,-199.025 815.889,-198.381 817.795,-205.116"/>
</g>
<!-- Node30 -->
<g id="node30" class="node"><title>Node30</title>
<polygon fill="none" stroke="#bfbfbf" points="963.02,-174.5 963.02,-193.5 1077.02,-193.5 1077.02,-174.5 963.02,-174.5"/>
<text text-anchor="middle" x="1020.02" y="-181.5" font-family="Helvetica,sans-Serif" font-size="10.00">NOX_Epetra_Group.H</text>
</g>
<!-- Node12&#45;&gt;Node30 -->
<g id="edge48" class="edge"><title>Node12&#45;&gt;Node30</title>
<path fill="none" stroke="midnightblue" d="M707.749,-239.105C764.486,-231.246 866.462,-216.41 953.02,-200 959.787,-198.717 966.912,-197.249 973.89,-195.745"/>
<polygon fill="midnightblue" stroke="midnightblue" points="974.933,-199.099 983.948,-193.533 973.429,-192.263 974.933,-199.099"/>
</g>
<!-- Node12&#45;&gt;Node20 -->
<g id="edge49" class="edge"><title>Node12&#45;&gt;Node20</title>
<path fill="none" stroke="midnightblue" d="M620.389,-243.936C512.006,-240.844 237.271,-230.086 210.02,-200 181.43,-168.436 194.036,-113.318 203.318,-84.9691"/>
<polygon fill="midnightblue" stroke="midnightblue" points="206.625,-86.1145 206.619,-75.5196 200.017,-83.8054 206.625,-86.1145"/>
</g>
<!-- Node12&#45;&gt;Node2 -->
<g id="edge50" class="edge"><title>Node12&#45;&gt;Node2</title>
<path fill="none" stroke="midnightblue" d="M707.686,-244.537C808.322,-242.869 1053.55,-235.204 1127.02,-200 1182.2,-173.561 1226.92,-113.392 1246.43,-83.9125"/>
<polygon fill="midnightblue" stroke="midnightblue" points="1249.38,-85.801 1251.86,-75.5014 1243.49,-82.004 1249.38,-85.801"/>
</g>
<!-- Node13&#45;&gt;Node4 -->
<g id="edge16" class="edge"><title>Node13&#45;&gt;Node4</title>
<path fill="none" stroke="midnightblue" d="M750.852,-113.107C747.868,-112.702 744.904,-112.327 742.02,-112 492.887,-83.7205 428.842,-97.3606 179.02,-76 167.72,-75.0338 155.582,-73.8301 144.143,-72.6206"/>
<polygon fill="midnightblue" stroke="midnightblue" points="144.197,-69.1062 133.88,-71.5148 143.447,-76.0659 144.197,-69.1062"/>
</g>
<!-- Node13&#45;&gt;Node5 -->
<g id="edge17" class="edge"><title>Node13&#45;&gt;Node5</title>
<path fill="none" stroke="midnightblue" d="M843.352,-113.032C902.897,-102.792 1005.65,-85.1204 1065.03,-74.9088"/>
<polygon fill="midnightblue" stroke="midnightblue" points="1065.98,-78.2977 1075.24,-73.1534 1064.79,-71.399 1065.98,-78.2977"/>
</g>
<!-- Node14 -->
<g id="node14" class="node"><title>Node14</title>
<polygon fill="none" stroke="#bfbfbf" points="352.52,-56.5 352.52,-75.5 465.52,-75.5 465.52,-56.5 352.52,-56.5"/>
<text text-anchor="middle" x="409.02" y="-63.5" font-family="Helvetica,sans-Serif" font-size="10.00">Epetra_SerialComm.h</text>
</g>
<!-- Node13&#45;&gt;Node14 -->
<g id="edge18" class="edge"><title>Node13&#45;&gt;Node14</title>
<path fill="none" stroke="midnightblue" d="M750.821,-113.344C747.844,-112.881 744.891,-112.429 742.02,-112 649.82,-98.2294 542.976,-84.1167 475.693,-75.4544"/>
<polygon fill="midnightblue" stroke="midnightblue" points="476.016,-71.9672 465.652,-74.1643 475.124,-78.9102 476.016,-71.9672"/>
</g>
<!-- Node15 -->
<g id="node15" class="node"><title>Node15</title>
<polygon fill="none" stroke="#bfbfbf" points="495.52,-56.5 495.52,-75.5 572.52,-75.5 572.52,-56.5 495.52,-56.5"/>
<text text-anchor="middle" x="534.02" y="-63.5" font-family="Helvetica,sans-Serif" font-size="10.00">Epetra_Map.h</text>
</g>
<!-- Node13&#45;&gt;Node15 -->
<g id="edge19" class="edge"><title>Node13&#45;&gt;Node15</title>
<path fill="none" stroke="midnightblue" d="M755.347,-112.444C708.462,-102.817 632.394,-87.1985 582.784,-77.0125"/>
<polygon fill="midnightblue" stroke="midnightblue" points="583.426,-73.5712 572.926,-74.9883 582.018,-80.4281 583.426,-73.5712"/>
</g>
<!-- Node16 -->
<g id="node16" class="node"><title>Node16</title>
<polygon fill="none" stroke="#bfbfbf" points="590.52,-56.5 590.52,-75.5 677.52,-75.5 677.52,-56.5 590.52,-56.5"/>
<text text-anchor="middle" x="634.02" y="-63.5" font-family="Helvetica,sans-Serif" font-size="10.00">Epetra_Vector.h</text>
</g>
<!-- Node13&#45;&gt;Node16 -->
<g id="edge20" class="edge"><title>Node13&#45;&gt;Node16</title>
<path fill="none" stroke="midnightblue" d="M771.192,-112.444C743.771,-103.359 700.243,-88.9388 669.588,-78.7831"/>
<polygon fill="midnightblue" stroke="midnightblue" points="670.32,-75.3389 659.727,-75.5164 668.119,-81.9837 670.32,-75.3389"/>
</g>
<!-- Node17 -->
<g id="node17" class="node"><title>Node17</title>
<polygon fill="none" stroke="#bfbfbf" points="820.52,-56.5 820.52,-75.5 921.52,-75.5 921.52,-56.5 820.52,-56.5"/>
<text text-anchor="middle" x="871.02" y="-63.5" font-family="Helvetica,sans-Serif" font-size="10.00">Epetra_CrsMatrix.h</text>
</g>
<!-- Node13&#45;&gt;Node17 -->
<g id="edge21" class="edge"><title>Node13&#45;&gt;Node17</title>
<path fill="none" stroke="midnightblue" d="M808.909,-112.324C820.17,-104.107 837.307,-91.6017 850.729,-81.8069"/>
<polygon fill="midnightblue" stroke="midnightblue" points="852.899,-84.5559 858.914,-75.8339 848.773,-78.9014 852.899,-84.5559"/>
</g>
<!-- Node18 -->
<g id="node18" class="node"><title>Node18</title>
<polygon fill="none" stroke="#bfbfbf" points="696.02,-56.5 696.02,-75.5 802.02,-75.5 802.02,-56.5 696.02,-56.5"/>
<text text-anchor="middle" x="749.02" y="-63.5" font-family="Helvetica,sans-Serif" font-size="10.00">Epetra_RowMatrix.h</text>
</g>
<!-- Node13&#45;&gt;Node18 -->
<g id="edge22" class="edge"><title>Node13&#45;&gt;Node18</title>
<path fill="none" stroke="midnightblue" d="M789.094,-112.083C782.174,-104.298 771.955,-92.8015 763.568,-83.3665"/>
<polygon fill="midnightblue" stroke="midnightblue" points="766.058,-80.8999 756.799,-75.7511 760.826,-85.5505 766.058,-80.8999"/>
</g>
<!-- Node19 -->
<g id="node19" class="node"><title>Node19</title>
<polygon fill="none" stroke="#bfbfbf" points="939.52,-56.5 939.52,-75.5 1026.52,-75.5 1026.52,-56.5 939.52,-56.5"/>
<text text-anchor="middle" x="983.02" y="-63.5" font-family="Helvetica,sans-Serif" font-size="10.00">Epetra_Export.h</text>
</g>
<!-- Node13&#45;&gt;Node19 -->
<g id="edge23" class="edge"><title>Node13&#45;&gt;Node19</title>
<path fill="none" stroke="midnightblue" d="M826.492,-112.444C858.191,-103.241 908.752,-88.5617 943.795,-78.3879"/>
<polygon fill="midnightblue" stroke="midnightblue" points="945.058,-81.6658 953.686,-75.5164 943.106,-74.9434 945.058,-81.6658"/>
</g>
<!-- Node13&#45;&gt;Node20 -->
<g id="edge24" class="edge"><title>Node13&#45;&gt;Node20</title>
<path fill="none" stroke="midnightblue" d="M750.844,-113.176C747.861,-112.754 744.901,-112.357 742.02,-112 644.169,-99.8743 341.536,-76.8239 242.067,-69.3811"/>
<polygon fill="midnightblue" stroke="midnightblue" points="242.256,-65.8856 232.023,-68.631 241.734,-72.8661 242.256,-65.8856"/>
</g>
<!-- Node13&#45;&gt;Node2 -->
<g id="edge25" class="edge"><title>Node13&#45;&gt;Node2</title>
<path fill="none" stroke="midnightblue" d="M843.233,-115.575C936.799,-104.591 1146.49,-79.9752 1225.82,-70.6632"/>
<polygon fill="midnightblue" stroke="midnightblue" points="1226.59,-74.0959 1236.12,-69.4538 1225.78,-67.1437 1226.59,-74.0959"/>
</g>
<!-- Node21&#45;&gt;Node4 -->
<g id="edge27" class="edge"><title>Node21&#45;&gt;Node4</title>
<path fill="none" stroke="midnightblue" d="M696.391,-174.465C686.027,-172.123 674.604,-169.749 664.02,-168 516.714,-143.652 476.676,-159.994 330.02,-132 258.119,-118.276 176.13,-93.4349 130.487,-78.7574"/>
<polygon fill="midnightblue" stroke="midnightblue" points="131.367,-75.3634 120.775,-75.6108 129.21,-82.0226 131.367,-75.3634"/>
</g>
<!-- Node21&#45;&gt;Node5 -->
<g id="edge28" class="edge"><title>Node21&#45;&gt;Node5</title>
<path fill="none" stroke="midnightblue" d="M766.73,-174.469C776.815,-172.206 787.82,-169.873 798.02,-168 908.431,-147.722 948.038,-183.042 1048.02,-132 1069.58,-120.994 1088,-99.7004 1099.26,-84.4838"/>
<polygon fill="midnightblue" stroke="midnightblue" points="1102.38,-86.1253 1105.3,-75.9408 1096.67,-82.0815 1102.38,-86.1253"/>
</g>
<!-- Node21&#45;&gt;Node13 -->
<g id="edge29" class="edge"><title>Node21&#45;&gt;Node13</title>
<path fill="none" stroke="midnightblue" d="M740.476,-174.403C750.768,-165.047 767.436,-149.895 780.014,-138.46"/>
<polygon fill="midnightblue" stroke="midnightblue" points="782.536,-140.897 787.581,-131.581 777.828,-135.718 782.536,-140.897"/>
</g>
<!-- Node22 -->
<g id="node22" class="node"><title>Node22</title>
<g id="a_node22"><a xlink:href="PhysicsModule_8hpp.html" target="_top" xlink:title="C++ header file for the ElectrodeSolver class. ">
<polygon fill="none" stroke="black" points="937.02,-112.5 937.02,-131.5 1039.02,-131.5 1039.02,-112.5 937.02,-112.5"/>
<text text-anchor="middle" x="988.02" y="-119.5" font-family="Helvetica,sans-Serif" font-size="10.00">PhysicsModule.hpp</text>
</a>
</g>
</g>
<!-- Node21&#45;&gt;Node22 -->
<g id="edge30" class="edge"><title>Node21&#45;&gt;Node22</title>
<path fill="none" stroke="midnightblue" d="M767.569,-174.467C813.335,-163.783 891.779,-145.469 941.705,-133.813"/>
<polygon fill="midnightblue" stroke="midnightblue" points="942.655,-137.185 951.597,-131.503 941.063,-130.369 942.655,-137.185"/>
</g>
<!-- Node21&#45;&gt;Node14 -->
<g id="edge34" class="edge"><title>Node21&#45;&gt;Node14</title>
<path fill="none" stroke="midnightblue" d="M695.309,-174.476C685.223,-172.213 674.219,-169.879 664.02,-168 609.253,-157.909 454.665,-172.097 416.02,-132 404.346,-119.887 403.843,-100.011 405.49,-85.4223"/>
<polygon fill="midnightblue" stroke="midnightblue" points="408.953,-85.9291 407.018,-75.5125 402.034,-84.8622 408.953,-85.9291"/>
</g>
<!-- Node21&#45;&gt;Node15 -->
<g id="edge35" class="edge"><title>Node21&#45;&gt;Node15</title>
<path fill="none" stroke="midnightblue" d="M706.56,-174.396C682.432,-165.421 644.927,-150.141 615.02,-132 591.346,-117.641 566.928,-97.1196 551.177,-82.9961"/>
<polygon fill="midnightblue" stroke="midnightblue" points="553.127,-80.0371 543.378,-75.8876 548.411,-85.2107 553.127,-80.0371"/>
</g>
<!-- Node21&#45;&gt;Node16 -->
<g id="edge36" class="edge"><title>Node21&#45;&gt;Node16</title>
<path fill="none" stroke="midnightblue" d="M688.879,-174.456C665.457,-167.323 638.244,-154.536 624.02,-132 615.182,-117.997 619.567,-98.9981 625.03,-85.1583"/>
<polygon fill="midnightblue" stroke="midnightblue" points="628.349,-86.3081 629.216,-75.7488 621.954,-83.4628 628.349,-86.3081"/>
</g>
<!-- Node23 -->
<g id="node23" class="node"><title>Node23</title>
<polygon fill="none" stroke="#bfbfbf" points="633.02,-112.5 633.02,-131.5 733.02,-131.5 733.02,-112.5 633.02,-112.5"/>
<text text-anchor="middle" x="683.02" y="-119.5" font-family="Helvetica,sans-Serif" font-size="10.00">Epetra_FEVector.h</text>
</g>
<!-- Node21&#45;&gt;Node23 -->
<g id="edge37" class="edge"><title>Node21&#45;&gt;Node23</title>
<path fill="none" stroke="midnightblue" d="M724.143,-174.403C716.871,-165.314 705.225,-150.756 696.179,-139.449"/>
<polygon fill="midnightblue" stroke="midnightblue" points="698.864,-137.203 689.884,-131.581 693.398,-141.576 698.864,-137.203"/>
</g>
<!-- Node21&#45;&gt;Node17 -->
<g id="edge38" class="edge"><title>Node21&#45;&gt;Node17</title>
<path fill="none" stroke="midnightblue" d="M774.884,-174.422C800.689,-167.221 832.07,-154.376 852.02,-132 863.38,-119.259 867.965,-100.063 869.807,-85.8316"/>
<polygon fill="midnightblue" stroke="midnightblue" points="873.308,-85.9879 870.773,-75.7009 866.34,-85.3236 873.308,-85.9879"/>
</g>
<!-- Node24 -->
<g id="node24" class="node"><title>Node24</title>
<polygon fill="none" stroke="#bfbfbf" points="425.02,-112.5 425.02,-131.5 539.02,-131.5 539.02,-112.5 425.02,-112.5"/>
<text text-anchor="middle" x="482.02" y="-119.5" font-family="Helvetica,sans-Serif" font-size="10.00">Epetra_FECrsMatrix.h</text>
</g>
<!-- Node21&#45;&gt;Node24 -->
<g id="edge39" class="edge"><title>Node21&#45;&gt;Node24</title>
<path fill="none" stroke="midnightblue" d="M695.609,-174.467C651.36,-163.805 575.582,-145.545 527.197,-133.886"/>
<polygon fill="midnightblue" stroke="midnightblue" points="527.851,-130.443 517.309,-131.503 526.211,-137.249 527.851,-130.443"/>
</g>
<!-- Node21&#45;&gt;Node19 -->
<g id="edge40" class="edge"><title>Node21&#45;&gt;Node19</title>
<path fill="none" stroke="midnightblue" d="M759.183,-174.493C788.088,-165.376 834.073,-149.791 872.02,-132 904.397,-116.82 939.698,-95.1998 961.599,-81.1346"/>
<polygon fill="midnightblue" stroke="midnightblue" points="963.631,-83.9881 970.116,-75.61 959.822,-78.1152 963.631,-83.9881"/>
</g>
<!-- Node21&#45;&gt;Node20 -->
<g id="edge41" class="edge"><title>Node21&#45;&gt;Node20</title>
<path fill="none" stroke="midnightblue" d="M695.317,-174.429C685.232,-172.166 674.225,-169.843 664.02,-168 548.786,-147.191 517.009,-158.805 403.02,-132 344.255,-118.181 278.024,-93.881 240.427,-79.2281"/>
<polygon fill="midnightblue" stroke="midnightblue" points="241.647,-75.9469 231.06,-75.5453 239.086,-82.4616 241.647,-75.9469"/>
</g>
<!-- Node21&#45;&gt;Node2 -->
<g id="edge42" class="edge"><title>Node21&#45;&gt;Node2</title>
<path fill="none" stroke="midnightblue" d="M766.366,-174.455C776.545,-172.166 787.69,-169.824 798.02,-168 920.276,-146.416 954.319,-161.043 1075.02,-132 1130.63,-118.619 1192.88,-94.2359 1228.27,-79.437"/>
<polygon fill="midnightblue" stroke="midnightblue" points="1229.66,-82.649 1237.51,-75.5342 1226.94,-76.2005 1229.66,-82.649"/>
</g>
<!-- Node22&#45;&gt;Node5 -->
<g id="edge31" class="edge"><title>Node22&#45;&gt;Node5</title>
<path fill="none" stroke="midnightblue" d="M1007.51,-112.444C1027.66,-103.596 1059.34,-89.6875 1082.35,-79.5865"/>
<polygon fill="midnightblue" stroke="midnightblue" points="1083.87,-82.7411 1091.62,-75.5164 1081.06,-76.3316 1083.87,-82.7411"/>
</g>
<!-- Node22&#45;&gt;Node20 -->
<g id="edge32" class="edge"><title>Node22&#45;&gt;Node20</title>
<path fill="none" stroke="midnightblue" d="M936.973,-117.457C788.977,-107.185 362.583,-77.5892 242.083,-69.2255"/>
<polygon fill="midnightblue" stroke="midnightblue" points="242.243,-65.7283 232.025,-68.5273 241.759,-72.7115 242.243,-65.7283"/>
</g>
<!-- Node22&#45;&gt;Node2 -->
<g id="edge33" class="edge"><title>Node22&#45;&gt;Node2</title>
<path fill="none" stroke="midnightblue" d="M1030.64,-112.444C1085.18,-101.495 1178.34,-82.7954 1226.37,-73.1526"/>
<polygon fill="midnightblue" stroke="midnightblue" points="1227.34,-76.5272 1236.46,-71.1274 1225.97,-69.6641 1227.34,-76.5272"/>
</g>
</g>
</svg>
        <g id="navigator" transform="translate(0 0)" fill="#404254">
                <rect fill="#f2f5e9" fill-opacity="0.5" stroke="#606060" stroke-width=".5" x="0" y="0" width="60" height="60"/>
                <use id="zoomplus" xlink:href="#zoomPlus" x="17" y="9" onmousedown="handleZoom(evt,'in')"/>
                <use id="zoomminus" xlink:href="#zoomMin" x="42" y="9" onmousedown="handleZoom(evt,'out')"/>
                <use id="reset" xlink:href="#resetDef" x="30" y="36" onmousedown="handleReset()"/>
                <g id="arrowUp" xlink:href="#dirArrow" transform="translate(30 24)" onmousedown="handlePan(0,-1)">
                  <use xlink:href="#rim" fill="#404040">
                        <set attributeName="fill" to="#808080" begin="arrowUp.mouseover" end="arrowUp.mouseout"/>
                  </use>
                  <path fill="none" stroke="white" stroke-width="1.5" d="M0,-3.0v7 M-2.5,-0.5L0,-3.0L2.5,-0.5"/>
                </g>
                <g id="arrowRight" xlink:href="#dirArrow" transform="rotate(90) translate(36 -43)" onmousedown="handlePan(1,0)">
                  <use xlink:href="#rim" fill="#404040">
                        <set attributeName="fill" to="#808080" begin="arrowRight.mouseover" end="arrowRight.mouseout"/>
                  </use>
                  <path fill="none" stroke="white" stroke-width="1.5" d="M0,-3.0v7 M-2.5,-0.5L0,-3.0L2.5,-0.5"/>
                </g>
                <g id="arrowDown" xlink:href="#dirArrow" transform="rotate(180) translate(-30 -48)" onmousedown="handlePan(0,1)">
                  <use xlink:href="#rim" fill="#404040">
                        <set attributeName="fill" to="#808080" begin="arrowDown.mouseover" end="arrowDown.mouseout"/>
                  </use>
                  <path fill="none" stroke="white" stroke-width="1.5" d="M0,-3.0v7 M-2.5,-0.5L0,-3.0L2.5,-0.5"/>
                </g>
                <g id="arrowLeft" xlink:href="#dirArrow" transform="rotate(270) translate(-36 17)" onmousedown="handlePan(-1,0)">
                  <use xlink:href="#rim" fill="#404040">
                        <set attributeName="fill" to="#808080" begin="arrowLeft.mouseover" end="arrowLeft.mouseout"/>
                  </use>
                  <path fill="none" stroke="white" stroke-width="1.5" d="M0,-3.0v7 M-2.5,-0.5L0,-3.0L2.5,-0.5"/>
                </g>
        </g>
        <svg viewBox="0 0 15 15" width="100%" height="30px" preserveAspectRatio="xMaxYMin meet">
         <g id="arrow_out" transform="scale(0.3 0.3)">
          <a xlink:href="DeviceModel_8cpp__incl_org.svg" target="_base">
           <rect id="button" ry="5" rx="5" y="6" x="6" height="38" width="38"
                fill="#f2f5e9" fill-opacity="0.5" stroke="#606060" stroke-width="1.0"/>
           <path id="arrow"
             d="M 11.500037,31.436501 C 11.940474,20.09759 22.043105,11.32322 32.158766,21.979434 L 37.068811,17.246167 C 37.068811,17.246167 37.088388,32 37.088388,32 L 22.160133,31.978069 C 22.160133,31.978069 26.997745,27.140456 26.997745,27.140456 C 18.528582,18.264221 13.291696,25.230495 11.500037,31.436501 z"
             style="fill:#404040;"/>
          </a>
         </g>
        </svg>
</svg>
