<?xml version="1.0" encoding="UTF-8" standalone="no"?>
<!DOCTYPE svg PUBLIC "-//W3C//DTD SVG 1.1//EN"
 "http://www.w3.org/Graphics/SVG/1.1/DTD/svg11.dtd">
<!-- Generated by graphviz version 2.30.1 (20150305.2338)
 -->
<!-- Title: DeviceData.cpp Pages: 1 -->
<svg width="1450pt" height="376pt"
 viewBox="0.00 0.00 1450.00 376.00" xmlns="http://www.w3.org/2000/svg" xmlns:xlink="http://www.w3.org/1999/xlink">
<g id="graph0" class="graph" transform="scale(1 1) rotate(0) translate(4 372)">
<title>DeviceData.cpp</title>
<!-- Node1 -->
<g id="node1" class="node"><title>Node1</title>
<polygon fill="#bfbfbf" stroke="black" points="1265.5,-348.5 1265.5,-367.5 1352.5,-367.5 1352.5,-348.5 1265.5,-348.5"/>
<text text-anchor="middle" x="1309" y="-355.5" font-family="Helvetica,sans-Serif" font-size="10.00">DeviceData.cpp</text>
</g>
<!-- Node2 -->
<g id="node2" class="node"><title>Node2</title>
<polygon fill="none" stroke="#bfbfbf" points="1288.5,-56.5 1288.5,-75.5 1329.5,-75.5 1329.5,-56.5 1288.5,-56.5"/>
<text text-anchor="middle" x="1309" y="-63.5" font-family="Helvetica,sans-Serif" font-size="10.00">string</text>
</g>
<!-- Node1&#45;&gt;Node2 -->
<g id="edge1" class="edge"><title>Node1&#45;&gt;Node2</title>
<path fill="none" stroke="midnightblue" d="M1335.91,-348.41C1374.78,-334.126 1442,-301.535 1442,-247 1442,-247 1442,-247 1442,-183 1442,-128.769 1378.42,-94.0766 1339.18,-77.829"/>
<polygon fill="midnightblue" stroke="midnightblue" points="1340.37,-74.5346 1329.78,-74.095 1337.78,-81.04 1340.37,-74.5346"/>
</g>
<!-- Node3 -->
<g id="node3" class="node"><title>Node3</title>
<g id="a_node3"><a xlink:href="DeviceData_8hpp.html" target="_top" xlink:title="C++ header file for the DeviceData class. ">
<polygon fill="none" stroke="black" points="837.5,-236.5 837.5,-255.5 924.5,-255.5 924.5,-236.5 837.5,-236.5"/>
<text text-anchor="middle" x="881" y="-243.5" font-family="Helvetica,sans-Serif" font-size="10.00">DeviceData.hpp</text>
</a>
</g>
</g>
<!-- Node1&#45;&gt;Node3 -->
<g id="edge2" class="edge"><title>Node1&#45;&gt;Node3</title>
<path fill="none" stroke="midnightblue" d="M1275.77,-348.46C1199.05,-328.742 1009.61,-280.055 924.105,-258.078"/>
<polygon fill="midnightblue" stroke="midnightblue" points="924.764,-254.634 914.207,-255.535 923.021,-261.414 924.764,-254.634"/>
</g>
<!-- Node26 -->
<g id="node26" class="node"><title>Node26</title>
<g id="a_node26"><a xlink:href="Solver_8hpp.html" target="_top" xlink:title="C++ header file for the SolutionData class. ">
<polygon fill="none" stroke="black" points="1277.5,-292.5 1277.5,-311.5 1340.5,-311.5 1340.5,-292.5 1277.5,-292.5"/>
<text text-anchor="middle" x="1309" y="-299.5" font-family="Helvetica,sans-Serif" font-size="10.00">Solver.hpp</text>
</a>
</g>
</g>
<!-- Node1&#45;&gt;Node26 -->
<g id="edge43" class="edge"><title>Node1&#45;&gt;Node26</title>
<path fill="none" stroke="midnightblue" d="M1309,-348.083C1309,-341.006 1309,-330.861 1309,-321.986"/>
<polygon fill="midnightblue" stroke="midnightblue" points="1312.5,-321.751 1309,-311.751 1305.5,-321.751 1312.5,-321.751"/>
</g>
<!-- Node4 -->
<g id="node4" class="node"><title>Node4</title>
<polygon fill="none" stroke="#bfbfbf" points="679.5,-56.5 679.5,-75.5 756.5,-75.5 756.5,-56.5 679.5,-56.5"/>
<text text-anchor="middle" x="718" y="-63.5" font-family="Helvetica,sans-Serif" font-size="10.00">Parameters.H</text>
</g>
<!-- Node3&#45;&gt;Node4 -->
<g id="edge3" class="edge"><title>Node3&#45;&gt;Node4</title>
<path fill="none" stroke="midnightblue" d="M837.32,-239.013C813.436,-233.265 785.779,-222.013 771,-200 763.073,-188.192 765.057,-180.921 771,-168 781.273,-145.664 802.727,-154.336 813,-132 816.714,-123.924 817.753,-119.511 813,-112 802.543,-95.4751 784.195,-84.8998 766.394,-78.1886"/>
<polygon fill="midnightblue" stroke="midnightblue" points="767.21,-74.7685 756.615,-74.8445 764.945,-81.3919 767.21,-74.7685"/>
</g>
<!-- Node5 -->
<g id="node5" class="node"><title>Node5</title>
<g id="a_node5"><a xlink:href="HalfCell_8hpp.html" target="_top" xlink:title="Program interface for the monolithic battery simulation software. ">
<polygon fill="none" stroke="black" points="1137.5,-56.5 1137.5,-75.5 1208.5,-75.5 1208.5,-56.5 1137.5,-56.5"/>
<text text-anchor="middle" x="1173" y="-63.5" font-family="Helvetica,sans-Serif" font-size="10.00">HalfCell.hpp</text>
</a>
</g>
</g>
<!-- Node3&#45;&gt;Node5 -->
<g id="edge4" class="edge"><title>Node3&#45;&gt;Node5</title>
<path fill="none" stroke="midnightblue" d="M924.785,-242.548C1014.35,-237.087 1211.82,-222.596 1232,-200 1258.05,-170.827 1250.49,-146.984 1233,-112 1226.27,-98.5432 1213.39,-88.0665 1201.29,-80.6212"/>
<polygon fill="midnightblue" stroke="midnightblue" points="1202.72,-77.4101 1192.3,-75.5195 1199.27,-83.4985 1202.72,-77.4101"/>
</g>
<!-- Node8 -->
<g id="node8" class="node"><title>Node8</title>
<g id="a_node8"><a xlink:href="SolutionData_8hpp.html" target="_top" xlink:title="C++ header file for the SolutionData class. ">
<polygon fill="none" stroke="black" points="348,-112.5 348,-131.5 440,-131.5 440,-112.5 348,-112.5"/>
<text text-anchor="middle" x="394" y="-119.5" font-family="Helvetica,sans-Serif" font-size="10.00">SolutionData.hpp</text>
</a>
</g>
</g>
<!-- Node3&#45;&gt;Node8 -->
<g id="edge7" class="edge"><title>Node3&#45;&gt;Node8</title>
<path fill="none" stroke="midnightblue" d="M837.255,-243.637C727.092,-239.811 444.737,-227.41 413,-200 396.509,-185.758 393.146,-159.7 392.982,-141.877"/>
<polygon fill="midnightblue" stroke="midnightblue" points="396.483,-141.87 393.217,-131.791 389.485,-141.707 396.483,-141.87"/>
</g>
<!-- Node16 -->
<g id="node16" class="node"><title>Node16</title>
<g id="a_node16"><a xlink:href="DeviceComponent_8hpp.html" target="_top" xlink:title="C++ header file for the DeviceComponent class. ">
<polygon fill="none" stroke="black" points="422,-174.5 422,-193.5 538,-193.5 538,-174.5 422,-174.5"/>
<text text-anchor="middle" x="480" y="-181.5" font-family="Helvetica,sans-Serif" font-size="10.00">DeviceComponent.hpp</text>
</a>
</g>
</g>
<!-- Node3&#45;&gt;Node16 -->
<g id="edge18" class="edge"><title>Node3&#45;&gt;Node16</title>
<path fill="none" stroke="midnightblue" d="M837.312,-240.333C773.338,-233.222 650.527,-218.527 547,-200 539.901,-198.73 532.416,-197.222 525.123,-195.66"/>
<polygon fill="midnightblue" stroke="midnightblue" points="525.87,-192.241 515.352,-193.514 524.368,-199.078 525.87,-192.241"/>
</g>
<!-- Node20 -->
<g id="node20" class="node"><title>Node20</title>
<polygon fill="none" stroke="#bfbfbf" points="556,-174.5 556,-193.5 656,-193.5 656,-174.5 556,-174.5"/>
<text text-anchor="middle" x="606" y="-181.5" font-family="Helvetica,sans-Serif" font-size="10.00">Teuchos_RCP.hpp</text>
</g>
<!-- Node3&#45;&gt;Node20 -->
<g id="edge35" class="edge"><title>Node3&#45;&gt;Node20</title>
<path fill="none" stroke="midnightblue" d="M837.438,-236.504C793.726,-227.843 724.527,-213.761 665,-200 659.594,-198.75 653.924,-197.382 648.325,-195.997"/>
<polygon fill="midnightblue" stroke="midnightblue" points="648.949,-192.545 638.398,-193.507 647.246,-199.335 648.949,-192.545"/>
</g>
<!-- Node21 -->
<g id="node21" class="node"><title>Node21</title>
<polygon fill="none" stroke="#bfbfbf" points="674.5,-174.5 674.5,-193.5 723.5,-193.5 723.5,-174.5 674.5,-174.5"/>
<text text-anchor="middle" x="699" y="-181.5" font-family="Helvetica,sans-Serif" font-size="10.00">NOX.H</text>
</g>
<!-- Node3&#45;&gt;Node21 -->
<g id="edge36" class="edge"><title>Node3&#45;&gt;Node21</title>
<path fill="none" stroke="midnightblue" d="M852.067,-236.473C823.057,-227.788 777.191,-213.688 738,-200 735.455,-199.111 732.828,-198.164 730.195,-197.195"/>
<polygon fill="midnightblue" stroke="midnightblue" points="731.368,-193.897 720.776,-193.65 728.902,-200.449 731.368,-193.897"/>
</g>
<!-- Node22 -->
<g id="node22" class="node"><title>Node22</title>
<polygon fill="none" stroke="#bfbfbf" points="780,-169 780,-199 896,-199 896,-169 780,-169"/>
<text text-anchor="start" x="788" y="-187" font-family="Helvetica,sans-Serif" font-size="10.00">NOX_Epetra_Interface</text>
<text text-anchor="middle" x="838" y="-176" font-family="Helvetica,sans-Serif" font-size="10.00">_Required.H</text>
</g>
<!-- Node3&#45;&gt;Node22 -->
<g id="edge37" class="edge"><title>Node3&#45;&gt;Node22</title>
<path fill="none" stroke="midnightblue" d="M874.839,-236.403C869.451,-228.885 861.38,-217.624 854.165,-207.556"/>
<polygon fill="midnightblue" stroke="midnightblue" points="856.804,-205.23 848.134,-199.141 851.115,-209.308 856.804,-205.23"/>
</g>
<!-- Node23 -->
<g id="node23" class="node"><title>Node23</title>
<polygon fill="none" stroke="#bfbfbf" points="952,-169 952,-199 1068,-199 1068,-169 952,-169"/>
<text text-anchor="start" x="960" y="-187" font-family="Helvetica,sans-Serif" font-size="10.00">NOX_Epetra_Interface</text>
<text text-anchor="middle" x="1010" y="-176" font-family="Helvetica,sans-Serif" font-size="10.00">_Jacobian.H</text>
</g>
<!-- Node3&#45;&gt;Node23 -->
<g id="edge38" class="edge"><title>Node3&#45;&gt;Node23</title>
<path fill="none" stroke="midnightblue" d="M899.483,-236.403C917.934,-227.822 946.867,-214.364 970.502,-203.371"/>
<polygon fill="midnightblue" stroke="midnightblue" points="972.006,-206.532 979.597,-199.141 969.054,-200.185 972.006,-206.532"/>
</g>
<!-- Node24 -->
<g id="node24" class="node"><title>Node24</title>
<polygon fill="none" stroke="#bfbfbf" points="1086.5,-169 1086.5,-199 1223.5,-199 1223.5,-169 1086.5,-169"/>
<text text-anchor="start" x="1094.5" y="-187" font-family="Helvetica,sans-Serif" font-size="10.00">NOX_Epetra_LinearSystem</text>
<text text-anchor="middle" x="1155" y="-176" font-family="Helvetica,sans-Serif" font-size="10.00">_AztecOO.H</text>
</g>
<!-- Node3&#45;&gt;Node24 -->
<g id="edge39" class="edge"><title>Node3&#45;&gt;Node24</title>
<path fill="none" stroke="midnightblue" d="M919.967,-236.467C961.746,-227.318 1029.07,-212.576 1080.98,-201.21"/>
<polygon fill="midnightblue" stroke="midnightblue" points="1081.79,-204.615 1090.81,-199.057 1080.29,-197.777 1081.79,-204.615"/>
</g>
<!-- Node25 -->
<g id="node25" class="node"><title>Node25</title>
<polygon fill="none" stroke="#bfbfbf" points="252,-174.5 252,-193.5 366,-193.5 366,-174.5 252,-174.5"/>
<text text-anchor="middle" x="309" y="-181.5" font-family="Helvetica,sans-Serif" font-size="10.00">NOX_Epetra_Group.H</text>
</g>
<!-- Node3&#45;&gt;Node25 -->
<g id="edge40" class="edge"><title>Node3&#45;&gt;Node25</title>
<path fill="none" stroke="midnightblue" d="M837.233,-242.819C749.906,-238.082 547.976,-225.197 380,-200 371.94,-198.791 363.419,-197.235 355.185,-195.585"/>
<polygon fill="midnightblue" stroke="midnightblue" points="355.836,-192.145 345.334,-193.542 354.415,-199 355.836,-192.145"/>
</g>
<!-- Node15 -->
<g id="node15" class="node"><title>Node15</title>
<polygon fill="none" stroke="#bfbfbf" points="902,-56.5 902,-75.5 946,-75.5 946,-56.5 902,-56.5"/>
<text text-anchor="middle" x="924" y="-63.5" font-family="Helvetica,sans-Serif" font-size="10.00">vector</text>
</g>
<!-- Node3&#45;&gt;Node15 -->
<g id="edge41" class="edge"><title>Node3&#45;&gt;Node15</title>
<path fill="none" stroke="midnightblue" d="M886.737,-236.442C892.324,-227.677 900.598,-213.466 905,-200 917.878,-160.603 922.033,-111.815 923.369,-85.6573"/>
<polygon fill="midnightblue" stroke="midnightblue" points="926.867,-85.7752 923.797,-75.6351 919.874,-85.4769 926.867,-85.7752"/>
</g>
<!-- Node3&#45;&gt;Node2 -->
<g id="edge42" class="edge"><title>Node3&#45;&gt;Node2</title>
<path fill="none" stroke="midnightblue" d="M924.611,-245.155C1011.9,-244.618 1204.07,-238.911 1255,-200 1291.54,-172.084 1303.46,-115.32 1307.27,-85.793"/>
<polygon fill="midnightblue" stroke="midnightblue" points="1310.77,-85.9294 1308.39,-75.6053 1303.81,-85.16 1310.77,-85.9294"/>
</g>
<!-- Node6 -->
<g id="node6" class="node"><title>Node6</title>
<polygon fill="none" stroke="#bfbfbf" points="1108.5,-0.5 1108.5,-19.5 1163.5,-19.5 1163.5,-0.5 1108.5,-0.5"/>
<text text-anchor="middle" x="1136" y="-7.5" font-family="Helvetica,sans-Serif" font-size="10.00">Global.H</text>
</g>
<!-- Node5&#45;&gt;Node6 -->
<g id="edge5" class="edge"><title>Node5&#45;&gt;Node6</title>
<path fill="none" stroke="midnightblue" d="M1166.89,-56.083C1161.72,-48.5341 1154.15,-37.4948 1147.81,-28.2298"/>
<polygon fill="midnightblue" stroke="midnightblue" points="1150.54,-26.0221 1142,-19.7511 1144.76,-29.9787 1150.54,-26.0221"/>
</g>
<!-- Node7 -->
<g id="node7" class="node"><title>Node7</title>
<polygon fill="none" stroke="#bfbfbf" points="1182,-0.5 1182,-19.5 1240,-19.5 1240,-0.5 1182,-0.5"/>
<text text-anchor="middle" x="1211" y="-7.5" font-family="Helvetica,sans-Serif" font-size="10.00">Profiler.H</text>
</g>
<!-- Node5&#45;&gt;Node7 -->
<g id="edge6" class="edge"><title>Node5&#45;&gt;Node7</title>
<path fill="none" stroke="midnightblue" d="M1179.27,-56.083C1184.64,-48.4554 1192.52,-37.2645 1199.08,-27.9408"/>
<polygon fill="midnightblue" stroke="midnightblue" points="1201.95,-29.9434 1204.84,-19.7511 1196.22,-25.9149 1201.95,-29.9434"/>
</g>
<!-- Node8&#45;&gt;Node4 -->
<g id="edge8" class="edge"><title>Node8&#45;&gt;Node4</title>
<path fill="none" stroke="midnightblue" d="M440.213,-113.435C443.187,-112.949 446.135,-112.468 449,-112 544.051,-96.4813 570.304,-93.3649 669.123,-76.12"/>
<polygon fill="midnightblue" stroke="midnightblue" points="669.995,-79.5207 679.242,-74.3493 668.788,-72.6255 669.995,-79.5207"/>
</g>
<!-- Node8&#45;&gt;Node5 -->
<g id="edge9" class="edge"><title>Node8&#45;&gt;Node5</title>
<path fill="none" stroke="midnightblue" d="M440.167,-113.101C443.152,-112.697 446.116,-112.325 449,-112 581.336,-97.0978 989.145,-76.1056 1126.95,-69.2565"/>
<polygon fill="midnightblue" stroke="midnightblue" points="1127.35,-72.7412 1137.16,-68.7503 1127,-65.7498 1127.35,-72.7412"/>
</g>
<!-- Node9 -->
<g id="node9" class="node"><title>Node9</title>
<polygon fill="none" stroke="#bfbfbf" points="118.5,-56.5 118.5,-75.5 231.5,-75.5 231.5,-56.5 118.5,-56.5"/>
<text text-anchor="middle" x="175" y="-63.5" font-family="Helvetica,sans-Serif" font-size="10.00">Epetra_SerialComm.h</text>
</g>
<!-- Node8&#45;&gt;Node9 -->
<g id="edge10" class="edge"><title>Node8&#45;&gt;Node9</title>
<path fill="none" stroke="midnightblue" d="M359.299,-112.444C321.415,-103.102 260.651,-88.1194 219.338,-77.9326"/>
<polygon fill="midnightblue" stroke="midnightblue" points="220.086,-74.5123 209.539,-75.5164 218.41,-81.3088 220.086,-74.5123"/>
</g>
<!-- Node10 -->
<g id="node10" class="node"><title>Node10</title>
<polygon fill="none" stroke="#bfbfbf" points="249.5,-56.5 249.5,-75.5 326.5,-75.5 326.5,-56.5 249.5,-56.5"/>
<text text-anchor="middle" x="288" y="-63.5" font-family="Helvetica,sans-Serif" font-size="10.00">Epetra_Map.h</text>
</g>
<!-- Node8&#45;&gt;Node10 -->
<g id="edge11" class="edge"><title>Node8&#45;&gt;Node10</title>
<path fill="none" stroke="midnightblue" d="M376.969,-112.324C359.97,-103.664 333.624,-90.2424 314.007,-80.249"/>
<polygon fill="midnightblue" stroke="midnightblue" points="315.488,-77.0752 304.988,-75.6545 312.31,-83.3125 315.488,-77.0752"/>
</g>
<!-- Node11 -->
<g id="node11" class="node"><title>Node11</title>
<polygon fill="none" stroke="#bfbfbf" points="574.5,-56.5 574.5,-75.5 661.5,-75.5 661.5,-56.5 574.5,-56.5"/>
<text text-anchor="middle" x="618" y="-63.5" font-family="Helvetica,sans-Serif" font-size="10.00">Epetra_Vector.h</text>
</g>
<!-- Node8&#45;&gt;Node11 -->
<g id="edge12" class="edge"><title>Node8&#45;&gt;Node11</title>
<path fill="none" stroke="midnightblue" d="M429.493,-112.444C468.324,-103.083 530.656,-88.0561 572.918,-77.868"/>
<polygon fill="midnightblue" stroke="midnightblue" points="573.771,-81.2626 582.673,-75.5164 572.131,-74.4576 573.771,-81.2626"/>
</g>
<!-- Node12 -->
<g id="node12" class="node"><title>Node12</title>
<polygon fill="none" stroke="#bfbfbf" points="-0.5,-56.5 -0.5,-75.5 100.5,-75.5 100.5,-56.5 -0.5,-56.5"/>
<text text-anchor="middle" x="50" y="-63.5" font-family="Helvetica,sans-Serif" font-size="10.00">Epetra_CrsMatrix.h</text>
</g>
<!-- Node8&#45;&gt;Node12 -->
<g id="edge13" class="edge"><title>Node8&#45;&gt;Node12</title>
<path fill="none" stroke="midnightblue" d="M347.964,-113.773C286.753,-104.165 178.429,-87.1603 110.622,-76.5163"/>
<polygon fill="midnightblue" stroke="midnightblue" points="110.934,-73.0224 100.512,-74.9292 109.848,-79.9377 110.934,-73.0224"/>
</g>
<!-- Node13 -->
<g id="node13" class="node"><title>Node13</title>
<polygon fill="none" stroke="#bfbfbf" points="450,-56.5 450,-75.5 556,-75.5 556,-56.5 450,-56.5"/>
<text text-anchor="middle" x="503" y="-63.5" font-family="Helvetica,sans-Serif" font-size="10.00">Epetra_RowMatrix.h</text>
</g>
<!-- Node8&#45;&gt;Node13 -->
<g id="edge14" class="edge"><title>Node8&#45;&gt;Node13</title>
<path fill="none" stroke="midnightblue" d="M411.513,-112.324C429.072,-103.625 456.331,-90.1202 476.531,-80.113"/>
<polygon fill="midnightblue" stroke="midnightblue" points="478.124,-83.23 485.531,-75.6545 475.016,-76.9575 478.124,-83.23"/>
</g>
<!-- Node14 -->
<g id="node14" class="node"><title>Node14</title>
<polygon fill="none" stroke="#bfbfbf" points="344.5,-56.5 344.5,-75.5 431.5,-75.5 431.5,-56.5 344.5,-56.5"/>
<text text-anchor="middle" x="388" y="-63.5" font-family="Helvetica,sans-Serif" font-size="10.00">Epetra_Export.h</text>
</g>
<!-- Node8&#45;&gt;Node14 -->
<g id="edge15" class="edge"><title>Node8&#45;&gt;Node14</title>
<path fill="none" stroke="midnightblue" d="M393.009,-112.083C392.214,-104.927 391.071,-94.6353 390.077,-85.6911"/>
<polygon fill="midnightblue" stroke="midnightblue" points="393.555,-85.3034 388.972,-75.7511 386.598,-86.0765 393.555,-85.3034"/>
</g>
<!-- Node8&#45;&gt;Node15 -->
<g id="edge16" class="edge"><title>Node8&#45;&gt;Node15</title>
<path fill="none" stroke="midnightblue" d="M440.18,-113.21C443.162,-112.779 446.121,-112.371 449,-112 614.949,-90.5866 814.752,-74.9484 891.662,-69.3038"/>
<polygon fill="midnightblue" stroke="midnightblue" points="891.963,-72.7912 901.682,-68.5741 891.454,-65.8097 891.963,-72.7912"/>
</g>
<!-- Node8&#45;&gt;Node2 -->
<g id="edge17" class="edge"><title>Node8&#45;&gt;Node2</title>
<path fill="none" stroke="midnightblue" d="M440.161,-113.05C443.148,-112.658 446.113,-112.303 449,-112 788.843,-76.3497 876.182,-100.642 1217,-76 1237.38,-74.5267 1260.24,-72.2932 1278.07,-70.4198"/>
<polygon fill="midnightblue" stroke="midnightblue" points="1278.63,-73.8806 1288.2,-69.3385 1277.88,-66.9202 1278.63,-73.8806"/>
</g>
<!-- Node16&#45;&gt;Node4 -->
<g id="edge19" class="edge"><title>Node16&#45;&gt;Node4</title>
<path fill="none" stroke="midnightblue" d="M499.367,-174.401C521.61,-164.456 559.138,-147.465 591,-132 626.565,-114.738 667.15,-93.7339 692.67,-80.3641"/>
<polygon fill="midnightblue" stroke="midnightblue" points="694.445,-83.3854 701.671,-75.6376 691.191,-77.1878 694.445,-83.3854"/>
</g>
<!-- Node16&#45;&gt;Node5 -->
<g id="edge20" class="edge"><title>Node16&#45;&gt;Node5</title>
<path fill="none" stroke="midnightblue" d="M515.352,-174.49C525.532,-172.202 536.675,-169.851 547,-168 664.428,-146.949 695.159,-150.603 813,-132 926.374,-114.102 1059.09,-89.0805 1127.33,-75.9129"/>
<polygon fill="midnightblue" stroke="midnightblue" points="1128.17,-79.3162 1137.32,-73.9813 1126.84,-72.4436 1128.17,-79.3162"/>
</g>
<!-- Node16&#45;&gt;Node8 -->
<g id="edge21" class="edge"><title>Node16&#45;&gt;Node8</title>
<path fill="none" stroke="midnightblue" d="M467.678,-174.403C453.884,-164.78 431.301,-149.024 414.768,-137.489"/>
<polygon fill="midnightblue" stroke="midnightblue" points="416.503,-134.432 406.299,-131.581 412.497,-140.173 416.503,-134.432"/>
</g>
<!-- Node17 -->
<g id="node17" class="node"><title>Node17</title>
<g id="a_node17"><a xlink:href="PhysicsModule_8hpp.html" target="_top" xlink:title="C++ header file for the ElectrodeSolver class. ">
<polygon fill="none" stroke="black" points="1122,-112.5 1122,-131.5 1224,-131.5 1224,-112.5 1122,-112.5"/>
<text text-anchor="middle" x="1173" y="-119.5" font-family="Helvetica,sans-Serif" font-size="10.00">PhysicsModule.hpp</text>
</a>
</g>
</g>
<!-- Node16&#45;&gt;Node17 -->
<g id="edge22" class="edge"><title>Node16&#45;&gt;Node17</title>
<path fill="none" stroke="midnightblue" d="M513.559,-174.462C524.191,-172.033 536.032,-169.613 547,-168 752.417,-137.793 998.865,-127.623 1111.45,-124.397"/>
<polygon fill="midnightblue" stroke="midnightblue" points="1111.7,-127.891 1121.6,-124.115 1111.51,-120.894 1111.7,-127.891"/>
</g>
<!-- Node16&#45;&gt;Node9 -->
<g id="edge26" class="edge"><title>Node16&#45;&gt;Node9</title>
<path fill="none" stroke="midnightblue" d="M445.385,-174.44C410.447,-165.391 355.2,-149.959 309,-132 269.721,-116.732 226.142,-94.5581 199.659,-80.4606"/>
<polygon fill="midnightblue" stroke="midnightblue" points="201.182,-77.3056 190.716,-75.6599 197.871,-83.4732 201.182,-77.3056"/>
</g>
<!-- Node16&#45;&gt;Node10 -->
<g id="edge27" class="edge"><title>Node16&#45;&gt;Node10</title>
<path fill="none" stroke="midnightblue" d="M431.239,-174.464C400.395,-167.181 361.016,-154.232 332,-132 315.829,-119.609 303.539,-99.5232 296.113,-84.9553"/>
<polygon fill="midnightblue" stroke="midnightblue" points="299.252,-83.4061 291.761,-75.9138 292.944,-86.4423 299.252,-83.4061"/>
</g>
<!-- Node16&#45;&gt;Node11 -->
<g id="edge28" class="edge"><title>Node16&#45;&gt;Node11</title>
<path fill="none" stroke="midnightblue" d="M498.975,-174.469C517.549,-165.55 546.032,-150.311 567,-132 582.976,-118.048 597.512,-98.5263 606.942,-84.5246"/>
<polygon fill="midnightblue" stroke="midnightblue" points="610.07,-86.1355 612.608,-75.8493 604.209,-82.3073 610.07,-86.1355"/>
</g>
<!-- Node18 -->
<g id="node18" class="node"><title>Node18</title>
<polygon fill="none" stroke="#bfbfbf" points="458,-112.5 458,-131.5 558,-131.5 558,-112.5 458,-112.5"/>
<text text-anchor="middle" x="508" y="-119.5" font-family="Helvetica,sans-Serif" font-size="10.00">Epetra_FEVector.h</text>
</g>
<!-- Node16&#45;&gt;Node18 -->
<g id="edge29" class="edge"><title>Node16&#45;&gt;Node18</title>
<path fill="none" stroke="midnightblue" d="M484.012,-174.403C488.087,-165.671 494.518,-151.889 499.696,-140.794"/>
<polygon fill="midnightblue" stroke="midnightblue" points="502.938,-142.123 503.996,-131.581 496.595,-139.162 502.938,-142.123"/>
</g>
<!-- Node16&#45;&gt;Node12 -->
<g id="edge30" class="edge"><title>Node16&#45;&gt;Node12</title>
<path fill="none" stroke="midnightblue" d="M439.233,-174.475C394.903,-164.989 322.073,-148.778 260,-132 197.884,-115.211 126.5,-92.3427 84.9986,-78.6851"/>
<polygon fill="midnightblue" stroke="midnightblue" points="85.9574,-75.3159 75.3643,-75.5032 83.7622,-81.9628 85.9574,-75.3159"/>
</g>
<!-- Node19 -->
<g id="node19" class="node"><title>Node19</title>
<polygon fill="none" stroke="#bfbfbf" points="690,-112.5 690,-131.5 804,-131.5 804,-112.5 690,-112.5"/>
<text text-anchor="middle" x="747" y="-119.5" font-family="Helvetica,sans-Serif" font-size="10.00">Epetra_FECrsMatrix.h</text>
</g>
<!-- Node16&#45;&gt;Node19 -->
<g id="edge31" class="edge"><title>Node16&#45;&gt;Node19</title>
<path fill="none" stroke="midnightblue" d="M517.971,-174.467C565.617,-163.76 647.355,-145.392 699.207,-133.74"/>
<polygon fill="midnightblue" stroke="midnightblue" points="700.171,-137.111 709.16,-131.503 698.636,-130.281 700.171,-137.111"/>
</g>
<!-- Node16&#45;&gt;Node14 -->
<g id="edge32" class="edge"><title>Node16&#45;&gt;Node14</title>
<path fill="none" stroke="midnightblue" d="M421.704,-177.528C391.745,-171.419 357.69,-158.636 339,-132 326.583,-114.304 346.5,-94.5482 364.544,-81.5121"/>
<polygon fill="midnightblue" stroke="midnightblue" points="366.802,-84.2094 373.101,-75.6909 362.864,-78.4216 366.802,-84.2094"/>
</g>
<!-- Node16&#45;&gt;Node15 -->
<g id="edge33" class="edge"><title>Node16&#45;&gt;Node15</title>
<path fill="none" stroke="midnightblue" d="M504.385,-174.463C533.21,-164.363 582.618,-147.021 625,-132 649.91,-123.171 655.481,-118.873 681,-112 755.371,-91.9711 844.93,-77.9042 891.805,-71.2867"/>
<polygon fill="midnightblue" stroke="midnightblue" points="892.532,-74.7194 901.955,-69.8765 891.568,-67.786 892.532,-74.7194"/>
</g>
<!-- Node16&#45;&gt;Node2 -->
<g id="edge34" class="edge"><title>Node16&#45;&gt;Node2</title>
<path fill="none" stroke="midnightblue" d="M512.856,-174.49C523.662,-172.002 535.781,-169.539 547,-168 698.238,-147.252 1091.23,-188.621 1233,-132 1258.58,-121.785 1281.64,-99.273 1295.48,-83.625"/>
<polygon fill="midnightblue" stroke="midnightblue" points="1298.36,-85.6419 1302.18,-75.7595 1293.03,-81.1029 1298.36,-85.6419"/>
</g>
<!-- Node17&#45;&gt;Node5 -->
<g id="edge23" class="edge"><title>Node17&#45;&gt;Node5</title>
<path fill="none" stroke="midnightblue" d="M1173,-112.083C1173,-105.006 1173,-94.8611 1173,-85.9865"/>
<polygon fill="midnightblue" stroke="midnightblue" points="1176.5,-85.751 1173,-75.7511 1169.5,-85.7511 1176.5,-85.751"/>
</g>
<!-- Node17&#45;&gt;Node15 -->
<g id="edge24" class="edge"><title>Node17&#45;&gt;Node15</title>
<path fill="none" stroke="midnightblue" d="M1133.55,-112.444C1084.44,-101.794 1001.52,-83.8106 956.104,-73.9623"/>
<polygon fill="midnightblue" stroke="midnightblue" points="956.723,-70.5152 946.208,-71.8162 955.239,-77.3562 956.723,-70.5152"/>
</g>
<!-- Node17&#45;&gt;Node2 -->
<g id="edge25" class="edge"><title>Node17&#45;&gt;Node2</title>
<path fill="none" stroke="midnightblue" d="M1194.55,-112.444C1217.3,-103.412 1253.32,-89.1067 1278.88,-78.9612"/>
<polygon fill="midnightblue" stroke="midnightblue" points="1280.44,-82.1063 1288.44,-75.1629 1277.86,-75.6004 1280.44,-82.1063"/>
</g>
<!-- Node26&#45;&gt;Node5 -->
<g id="edge44" class="edge"><title>Node26&#45;&gt;Node5</title>
<path fill="none" stroke="midnightblue" d="M1308.62,-292.443C1306.92,-263.765 1297.93,-169.62 1252,-112 1240.51,-97.5877 1223.07,-86.9608 1207.49,-79.6646"/>
<polygon fill="midnightblue" stroke="midnightblue" points="1208.67,-76.3589 1198.1,-75.548 1205.86,-82.7696 1208.67,-76.3589"/>
</g>
<!-- Node26&#45;&gt;Node3 -->
<g id="edge45" class="edge"><title>Node26&#45;&gt;Node3</title>
<path fill="none" stroke="midnightblue" d="M1277.18,-296.985C1204.34,-287.795 1024.81,-265.144 934.584,-253.761"/>
<polygon fill="midnightblue" stroke="midnightblue" points="934.921,-250.275 924.562,-252.496 934.045,-257.22 934.921,-250.275"/>
</g>
<!-- Node26&#45;&gt;Node15 -->
<g id="edge46" class="edge"><title>Node26&#45;&gt;Node15</title>
<path fill="none" stroke="midnightblue" d="M1306.48,-292.36C1299.15,-268.722 1275.5,-202.457 1232,-168 1188.69,-133.692 1165.58,-148.988 1113,-132 1057.47,-114.058 993.325,-91.6354 955.856,-78.3639"/>
<polygon fill="midnightblue" stroke="midnightblue" points="956.619,-74.9208 946.024,-74.8746 954.278,-81.5177 956.619,-74.9208"/>
</g>
<!-- Node26&#45;&gt;Node2 -->
<g id="edge47" class="edge"><title>Node26&#45;&gt;Node2</title>
<path fill="none" stroke="midnightblue" d="M1334.16,-292.378C1350.42,-285.343 1370.29,-273.645 1380,-256 1398.85,-221.732 1391.8,-205.29 1380,-168 1369.24,-133.999 1342.48,-101.532 1325.06,-82.9669"/>
<polygon fill="midnightblue" stroke="midnightblue" points="1327.48,-80.4405 1318.02,-75.6783 1322.45,-85.3031 1327.48,-80.4405"/>
</g>
</g>
</svg>
