<?xml version="1.0" encoding="UTF-8" standalone="no"?>
<!DOCTYPE svg PUBLIC "-//W3C//DTD SVG 1.1//EN"
 "http://www.w3.org/Graphics/SVG/1.1/DTD/svg11.dtd">
<!-- Generated by graphviz version 2.30.1 (20150305.2338)
 -->
<!-- Title: DeviceModel.hpp Pages: 1 -->
<svg width="242pt" height="196pt"
 viewBox="0.00 0.00 242.00 196.00" xmlns="http://www.w3.org/2000/svg" xmlns:xlink="http://www.w3.org/1999/xlink">
<g id="graph0" class="graph" transform="scale(1 1) rotate(0) translate(4 192)">
<title>DeviceModel.hpp</title>
<!-- Node1 -->
<g id="node1" class="node"><title>Node1</title>
<polygon fill="#bfbfbf" stroke="black" points="50,-168.5 50,-187.5 142,-187.5 142,-168.5 50,-168.5"/>
<text text-anchor="middle" x="96" y="-175.5" font-family="Helvetica,sans-Serif" font-size="10.00">DeviceModel.hpp</text>
</g>
<!-- Node2 -->
<g id="node2" class="node"><title>Node2</title>
<g id="a_node2"><a xlink:href="DeviceModel_8cpp.html" target="_top" xlink:title="C++ source code for the DeviceData class. ">
<polygon fill="none" stroke="black" points="0,-112.5 0,-131.5 92,-131.5 92,-112.5 0,-112.5"/>
<text text-anchor="middle" x="46" y="-119.5" font-family="Helvetica,sans-Serif" font-size="10.00">DeviceModel.cpp</text>
</a>
</g>
</g>
<!-- Node1&#45;&gt;Node2 -->
<g id="edge1" class="edge"><title>Node1&#45;&gt;Node2</title>
<path fill="none" stroke="midnightblue" d="M80.9237,-160.718C72.1109,-151.2 61.3341,-139.561 54.1028,-131.751"/>
<polygon fill="midnightblue" stroke="midnightblue" points="78.3812,-163.123 87.7435,-168.083 83.5176,-158.367 78.3812,-163.123"/>
</g>
<!-- Node3 -->
<g id="node3" class="node"><title>Node3</title>
<g id="a_node3"><a xlink:href="ICEDTest_8H.html" target="_top" xlink:title="Testing object for ICED. ">
<polygon fill="none" stroke="black" points="110.5,-112.5 110.5,-131.5 181.5,-131.5 181.5,-112.5 110.5,-112.5"/>
<text text-anchor="middle" x="146" y="-119.5" font-family="Helvetica,sans-Serif" font-size="10.00">ICEDTest.H</text>
</a>
</g>
</g>
<!-- Node1&#45;&gt;Node3 -->
<g id="edge2" class="edge"><title>Node1&#45;&gt;Node3</title>
<path fill="none" stroke="midnightblue" d="M111.076,-160.718C119.889,-151.2 130.666,-139.561 137.897,-131.751"/>
<polygon fill="midnightblue" stroke="midnightblue" points="108.482,-158.367 104.256,-168.083 113.619,-163.123 108.482,-158.367"/>
</g>
<!-- Node4 -->
<g id="node4" class="node"><title>Node4</title>
<g id="a_node4"><a xlink:href="TestICED_8H.html" target="_top" xlink:title="Testing utilities for ICED. ">
<polygon fill="none" stroke="black" points="110.5,-56.5 110.5,-75.5 181.5,-75.5 181.5,-56.5 110.5,-56.5"/>
<text text-anchor="middle" x="146" y="-63.5" font-family="Helvetica,sans-Serif" font-size="10.00">TestICED.H</text>
</a>
</g>
</g>
<!-- Node3&#45;&gt;Node4 -->
<g id="edge3" class="edge"><title>Node3&#45;&gt;Node4</title>
<path fill="none" stroke="midnightblue" d="M146,-101.805C146,-92.9102 146,-82.7798 146,-75.7511"/>
<polygon fill="midnightblue" stroke="midnightblue" points="142.5,-102.083 146,-112.083 149.5,-102.083 142.5,-102.083"/>
</g>
<!-- Node5 -->
<g id="node5" class="node"><title>Node5</title>
<g id="a_node5"><a xlink:href="ParallelTestICED_8C.html" target="_top" xlink:title="Implements a command&#45;line interface for the ICED tests. ">
<polygon fill="none" stroke="black" points="41,-0.5 41,-19.5 145,-19.5 145,-0.5 41,-0.5"/>
<text text-anchor="middle" x="93" y="-7.5" font-family="Helvetica,sans-Serif" font-size="10.00">ParallelTestICED.C</text>
</a>
</g>
</g>
<!-- Node4&#45;&gt;Node5 -->
<g id="edge4" class="edge"><title>Node4&#45;&gt;Node5</title>
<path fill="none" stroke="midnightblue" d="M130.019,-48.7175C120.678,-39.1997 109.254,-27.5608 101.589,-19.7511"/>
<polygon fill="midnightblue" stroke="midnightblue" points="127.746,-51.3978 137.248,-56.083 132.741,-46.4945 127.746,-51.3978"/>
</g>
<!-- Node6 -->
<g id="node6" class="node"><title>Node6</title>
<g id="a_node6"><a xlink:href="TestICED_8C.html" target="_top" xlink:title="Implements a command&#45;line interface for the ICED tests. ">
<polygon fill="none" stroke="black" points="163.5,-0.5 163.5,-19.5 234.5,-19.5 234.5,-0.5 163.5,-0.5"/>
<text text-anchor="middle" x="199" y="-7.5" font-family="Helvetica,sans-Serif" font-size="10.00">TestICED.C</text>
</a>
</g>
</g>
<!-- Node4&#45;&gt;Node6 -->
<g id="edge5" class="edge"><title>Node4&#45;&gt;Node6</title>
<path fill="none" stroke="midnightblue" d="M161.981,-48.7175C171.322,-39.1997 182.746,-27.5608 190.411,-19.7511"/>
<polygon fill="midnightblue" stroke="midnightblue" points="159.259,-46.4945 154.752,-56.083 164.254,-51.3978 159.259,-46.4945"/>
</g>
</g>
</svg>
