<?xml version="1.0" encoding="UTF-8" standalone="no"?>
<!DOCTYPE svg PUBLIC "-//W3C//DTD SVG 1.1//EN"
 "http://www.w3.org/Graphics/SVG/1.1/DTD/svg11.dtd">
<!-- Generated by graphviz version 2.30.1 (20150305.2338)
 -->
<!-- Title: Diffusion.cpp Pages: 1 -->
<svg width="975pt" height="196pt"
 viewBox="0.00 0.00 975.00 196.00" xmlns="http://www.w3.org/2000/svg" xmlns:xlink="http://www.w3.org/1999/xlink">
<g id="graph0" class="graph" transform="scale(1 1) rotate(0) translate(4 192)">
<title>Diffusion.cpp</title>
<!-- Node1 -->
<g id="node1" class="node"><title>Node1</title>
<polygon fill="#bfbfbf" stroke="black" points="120,-168.5 120,-187.5 194,-187.5 194,-168.5 120,-168.5"/>
<text text-anchor="middle" x="157" y="-175.5" font-family="Helvetica,sans-Serif" font-size="10.00">Diffusion.cpp</text>
</g>
<!-- Node2 -->
<g id="node2" class="node"><title>Node2</title>
<g id="a_node2"><a xlink:href="SolutionData_8hpp.html" target="_top" xlink:title="C++ header file for the SolutionData class. ">
<polygon fill="none" stroke="black" points="264,-112.5 264,-131.5 356,-131.5 356,-112.5 264,-112.5"/>
<text text-anchor="middle" x="310" y="-119.5" font-family="Helvetica,sans-Serif" font-size="10.00">SolutionData.hpp</text>
</a>
</g>
</g>
<!-- Node1&#45;&gt;Node2 -->
<g id="edge1" class="edge"><title>Node1&#45;&gt;Node2</title>
<path fill="none" stroke="midnightblue" d="M181.243,-168.444C206.871,-159.399 247.485,-145.064 276.238,-134.916"/>
<polygon fill="midnightblue" stroke="midnightblue" points="277.605,-138.145 285.87,-131.516 275.275,-131.544 277.605,-138.145"/>
</g>
<!-- Node15 -->
<g id="node15" class="node"><title>Node15</title>
<g id="a_node15"><a xlink:href="PhysicsModule_8hpp.html" target="_top" xlink:title="C++ header file for the ElectrodeSolver class. ">
<polygon fill="none" stroke="black" points="106,-112.5 106,-131.5 208,-131.5 208,-112.5 106,-112.5"/>
<text text-anchor="middle" x="157" y="-119.5" font-family="Helvetica,sans-Serif" font-size="10.00">PhysicsModule.hpp</text>
</a>
</g>
</g>
<!-- Node1&#45;&gt;Node15 -->
<g id="edge14" class="edge"><title>Node1&#45;&gt;Node15</title>
<path fill="none" stroke="midnightblue" d="M157,-168.083C157,-161.006 157,-150.861 157,-141.986"/>
<polygon fill="midnightblue" stroke="midnightblue" points="160.5,-141.751 157,-131.751 153.5,-141.751 160.5,-141.751"/>
</g>
<!-- Node16 -->
<g id="node16" class="node"><title>Node16</title>
<polygon fill="none" stroke="#bfbfbf" points="374,-112.5 374,-131.5 418,-131.5 418,-112.5 374,-112.5"/>
<text text-anchor="middle" x="396" y="-119.5" font-family="Helvetica,sans-Serif" font-size="10.00">cmath</text>
</g>
<!-- Node1&#45;&gt;Node16 -->
<g id="edge18" class="edge"><title>Node1&#45;&gt;Node16</title>
<path fill="none" stroke="midnightblue" d="M194.002,-169.803C233.698,-161.904 298.792,-148.44 363.707,-132.198"/>
<polygon fill="midnightblue" stroke="midnightblue" points="364.861,-135.517 373.7,-129.675 363.147,-128.73 364.861,-135.517"/>
</g>
<!-- Node13 -->
<g id="node13" class="node"><title>Node13</title>
<polygon fill="none" stroke="#bfbfbf" points="0,-56.5 0,-75.5 44,-75.5 44,-56.5 0,-56.5"/>
<text text-anchor="middle" x="22" y="-63.5" font-family="Helvetica,sans-Serif" font-size="10.00">vector</text>
</g>
<!-- Node1&#45;&gt;Node13 -->
<g id="edge19" class="edge"><title>Node1&#45;&gt;Node13</title>
<path fill="none" stroke="midnightblue" d="M140.81,-168.382C125.708,-160.004 102.883,-146.456 85,-132 66.5795,-117.11 48.0119,-97.2224 35.8553,-83.3831"/>
<polygon fill="midnightblue" stroke="midnightblue" points="38.3585,-80.9267 29.1732,-75.6465 33.0609,-85.5023 38.3585,-80.9267"/>
</g>
<!-- Node14 -->
<g id="node14" class="node"><title>Node14</title>
<polygon fill="none" stroke="#bfbfbf" points="62.5,-56.5 62.5,-75.5 103.5,-75.5 103.5,-56.5 62.5,-56.5"/>
<text text-anchor="middle" x="83" y="-63.5" font-family="Helvetica,sans-Serif" font-size="10.00">string</text>
</g>
<!-- Node1&#45;&gt;Node14 -->
<g id="edge20" class="edge"><title>Node1&#45;&gt;Node14</title>
<path fill="none" stroke="midnightblue" d="M139.524,-168.395C125.824,-160.732 107.395,-148.227 97,-132 88.1467,-118.179 84.8091,-99.659 83.5913,-85.9235"/>
<polygon fill="midnightblue" stroke="midnightblue" points="87.0724,-85.4969 82.9924,-75.7191 80.0844,-85.9071 87.0724,-85.4969"/>
</g>
<!-- Node3 -->
<g id="node3" class="node"><title>Node3</title>
<polygon fill="none" stroke="#bfbfbf" points="759.5,-56.5 759.5,-75.5 836.5,-75.5 836.5,-56.5 759.5,-56.5"/>
<text text-anchor="middle" x="798" y="-63.5" font-family="Helvetica,sans-Serif" font-size="10.00">Parameters.H</text>
</g>
<!-- Node2&#45;&gt;Node3 -->
<g id="edge2" class="edge"><title>Node2&#45;&gt;Node3</title>
<path fill="none" stroke="midnightblue" d="M356.18,-113.206C359.161,-112.776 362.121,-112.37 365,-112 532.212,-90.5273 578.072,-99.5011 749.17,-75.984"/>
<polygon fill="midnightblue" stroke="midnightblue" points="749.856,-79.4224 759.278,-74.5772 748.891,-72.4892 749.856,-79.4224"/>
</g>
<!-- Node4 -->
<g id="node4" class="node"><title>Node4</title>
<g id="a_node4"><a xlink:href="HalfCell_8hpp.html" target="_top" xlink:title="Program interface for the monolithic battery simulation software. ">
<polygon fill="none" stroke="black" points="121.5,-56.5 121.5,-75.5 192.5,-75.5 192.5,-56.5 121.5,-56.5"/>
<text text-anchor="middle" x="157" y="-63.5" font-family="Helvetica,sans-Serif" font-size="10.00">HalfCell.hpp</text>
</a>
</g>
</g>
<!-- Node2&#45;&gt;Node4 -->
<g id="edge3" class="edge"><title>Node2&#45;&gt;Node4</title>
<path fill="none" stroke="midnightblue" d="M285.757,-112.444C260.129,-103.399 219.515,-89.064 190.762,-78.9158"/>
<polygon fill="midnightblue" stroke="midnightblue" points="191.725,-75.5442 181.13,-75.5164 189.395,-82.1452 191.725,-75.5442"/>
</g>
<!-- Node7 -->
<g id="node7" class="node"><title>Node7</title>
<polygon fill="none" stroke="#bfbfbf" points="854.5,-56.5 854.5,-75.5 967.5,-75.5 967.5,-56.5 854.5,-56.5"/>
<text text-anchor="middle" x="911" y="-63.5" font-family="Helvetica,sans-Serif" font-size="10.00">Epetra_SerialComm.h</text>
</g>
<!-- Node2&#45;&gt;Node7 -->
<g id="edge6" class="edge"><title>Node2&#45;&gt;Node7</title>
<path fill="none" stroke="midnightblue" d="M356.172,-113.144C359.156,-112.73 362.118,-112.343 365,-112 574.216,-87.085 630.554,-98.1153 844.182,-76.0184"/>
<polygon fill="midnightblue" stroke="midnightblue" points="844.563,-79.4977 854.145,-74.9758 843.835,-72.5358 844.563,-79.4977"/>
</g>
<!-- Node8 -->
<g id="node8" class="node"><title>Node8</title>
<polygon fill="none" stroke="#bfbfbf" points="210.5,-56.5 210.5,-75.5 287.5,-75.5 287.5,-56.5 210.5,-56.5"/>
<text text-anchor="middle" x="249" y="-63.5" font-family="Helvetica,sans-Serif" font-size="10.00">Epetra_Map.h</text>
</g>
<!-- Node2&#45;&gt;Node8 -->
<g id="edge7" class="edge"><title>Node2&#45;&gt;Node8</title>
<path fill="none" stroke="midnightblue" d="M300.199,-112.324C291.182,-104.341 277.594,-92.3128 266.682,-82.6529"/>
<polygon fill="midnightblue" stroke="midnightblue" points="268.787,-79.8416 258.979,-75.8339 264.147,-85.083 268.787,-79.8416"/>
</g>
<!-- Node9 -->
<g id="node9" class="node"><title>Node9</title>
<polygon fill="none" stroke="#bfbfbf" points="305.5,-56.5 305.5,-75.5 392.5,-75.5 392.5,-56.5 305.5,-56.5"/>
<text text-anchor="middle" x="349" y="-63.5" font-family="Helvetica,sans-Serif" font-size="10.00">Epetra_Vector.h</text>
</g>
<!-- Node2&#45;&gt;Node9 -->
<g id="edge8" class="edge"><title>Node2&#45;&gt;Node9</title>
<path fill="none" stroke="midnightblue" d="M316.44,-112.083C321.949,-104.455 330.031,-93.2645 336.765,-83.9408"/>
<polygon fill="midnightblue" stroke="midnightblue" points="339.662,-85.9071 342.68,-75.7511 333.987,-81.8087 339.662,-85.9071"/>
</g>
<!-- Node10 -->
<g id="node10" class="node"><title>Node10</title>
<polygon fill="none" stroke="#bfbfbf" points="410.5,-56.5 410.5,-75.5 511.5,-75.5 511.5,-56.5 410.5,-56.5"/>
<text text-anchor="middle" x="461" y="-63.5" font-family="Helvetica,sans-Serif" font-size="10.00">Epetra_CrsMatrix.h</text>
</g>
<!-- Node2&#45;&gt;Node10 -->
<g id="edge9" class="edge"><title>Node2&#45;&gt;Node10</title>
<path fill="none" stroke="midnightblue" d="M333.926,-112.444C359.219,-103.399 399.302,-89.064 427.68,-78.9158"/>
<polygon fill="midnightblue" stroke="midnightblue" points="428.948,-82.1794 437.186,-75.5164 426.591,-75.5882 428.948,-82.1794"/>
</g>
<!-- Node11 -->
<g id="node11" class="node"><title>Node11</title>
<polygon fill="none" stroke="#bfbfbf" points="530,-56.5 530,-75.5 636,-75.5 636,-56.5 530,-56.5"/>
<text text-anchor="middle" x="583" y="-63.5" font-family="Helvetica,sans-Serif" font-size="10.00">Epetra_RowMatrix.h</text>
</g>
<!-- Node2&#45;&gt;Node11 -->
<g id="edge10" class="edge"><title>Node2&#45;&gt;Node11</title>
<path fill="none" stroke="midnightblue" d="M353.258,-112.444C401.181,-102.964 478.478,-87.6747 530,-77.4835"/>
<polygon fill="midnightblue" stroke="midnightblue" points="530.814,-80.8904 539.945,-75.5164 529.456,-74.0235 530.814,-80.8904"/>
</g>
<!-- Node12 -->
<g id="node12" class="node"><title>Node12</title>
<polygon fill="none" stroke="#bfbfbf" points="654.5,-56.5 654.5,-75.5 741.5,-75.5 741.5,-56.5 654.5,-56.5"/>
<text text-anchor="middle" x="698" y="-63.5" font-family="Helvetica,sans-Serif" font-size="10.00">Epetra_Export.h</text>
</g>
<!-- Node2&#45;&gt;Node12 -->
<g id="edge11" class="edge"><title>Node2&#45;&gt;Node12</title>
<path fill="none" stroke="midnightblue" d="M356.196,-113.323C359.173,-112.864 362.128,-112.42 365,-112 485.999,-94.3269 519.232,-94.486 644.378,-76.0363"/>
<polygon fill="midnightblue" stroke="midnightblue" points="644.972,-79.4866 654.35,-74.5558 643.944,-72.5625 644.972,-79.4866"/>
</g>
<!-- Node2&#45;&gt;Node13 -->
<g id="edge12" class="edge"><title>Node2&#45;&gt;Node13</title>
<path fill="none" stroke="midnightblue" d="M263.733,-114.456C214.164,-107.1 133.025,-94.0661 54.3527,-76.1128"/>
<polygon fill="midnightblue" stroke="midnightblue" points="54.806,-72.6253 44.2745,-73.7823 53.2288,-79.4454 54.806,-72.6253"/>
</g>
<!-- Node2&#45;&gt;Node14 -->
<g id="edge13" class="edge"><title>Node2&#45;&gt;Node14</title>
<path fill="none" stroke="midnightblue" d="M268.051,-112.452C229.935,-104.465 171.969,-91.7734 113.334,-76.2142"/>
<polygon fill="midnightblue" stroke="midnightblue" points="114.103,-72.797 103.538,-73.5894 112.291,-79.5585 114.103,-72.797"/>
</g>
<!-- Node5 -->
<g id="node5" class="node"><title>Node5</title>
<polygon fill="none" stroke="#bfbfbf" points="92.5,-0.5 92.5,-19.5 147.5,-19.5 147.5,-0.5 92.5,-0.5"/>
<text text-anchor="middle" x="120" y="-7.5" font-family="Helvetica,sans-Serif" font-size="10.00">Global.H</text>
</g>
<!-- Node4&#45;&gt;Node5 -->
<g id="edge4" class="edge"><title>Node4&#45;&gt;Node5</title>
<path fill="none" stroke="midnightblue" d="M150.89,-56.083C145.718,-48.5341 138.154,-37.4948 131.806,-28.2298"/>
<polygon fill="midnightblue" stroke="midnightblue" points="134.536,-26.0221 125.996,-19.7511 128.761,-29.9787 134.536,-26.0221"/>
</g>
<!-- Node6 -->
<g id="node6" class="node"><title>Node6</title>
<polygon fill="none" stroke="#bfbfbf" points="166,-0.5 166,-19.5 224,-19.5 224,-0.5 166,-0.5"/>
<text text-anchor="middle" x="195" y="-7.5" font-family="Helvetica,sans-Serif" font-size="10.00">Profiler.H</text>
</g>
<!-- Node4&#45;&gt;Node6 -->
<g id="edge5" class="edge"><title>Node4&#45;&gt;Node6</title>
<path fill="none" stroke="midnightblue" d="M163.275,-56.083C168.642,-48.4554 176.518,-37.2645 183.079,-27.9408"/>
<polygon fill="midnightblue" stroke="midnightblue" points="185.949,-29.9434 188.842,-19.7511 180.225,-25.9149 185.949,-29.9434"/>
</g>
<!-- Node15&#45;&gt;Node4 -->
<g id="edge15" class="edge"><title>Node15&#45;&gt;Node4</title>
<path fill="none" stroke="midnightblue" d="M157,-112.083C157,-105.006 157,-94.8611 157,-85.9865"/>
<polygon fill="midnightblue" stroke="midnightblue" points="160.5,-85.751 157,-75.7511 153.5,-85.7511 160.5,-85.751"/>
</g>
<!-- Node15&#45;&gt;Node13 -->
<g id="edge16" class="edge"><title>Node15&#45;&gt;Node13</title>
<path fill="none" stroke="midnightblue" d="M135.609,-112.444C113.293,-103.517 78.0968,-89.4387 52.792,-79.3168"/>
<polygon fill="midnightblue" stroke="midnightblue" points="53.8757,-75.9807 43.2911,-75.5164 51.276,-82.4801 53.8757,-75.9807"/>
</g>
<!-- Node15&#45;&gt;Node14 -->
<g id="edge17" class="edge"><title>Node15&#45;&gt;Node14</title>
<path fill="none" stroke="midnightblue" d="M145.111,-112.324C133.85,-104.107 116.713,-91.6017 103.291,-81.8069"/>
<polygon fill="midnightblue" stroke="midnightblue" points="105.247,-78.9014 95.1057,-75.8339 101.12,-84.5559 105.247,-78.9014"/>
</g>
</g>
</svg>
