<?xml version="1.0" encoding="UTF-8" standalone="no"?>
<!DOCTYPE svg PUBLIC "-//W3C//DTD SVG 1.1//EN"
 "http://www.w3.org/Graphics/SVG/1.1/DTD/svg11.dtd">
<!-- Generated by graphviz version 2.30.1 (20150305.2338)
 -->
<!-- Title: testing Pages: 1 -->
<svg width="182pt" height="231pt"
 viewBox="0.00 0.00 182.00 231.00" xmlns="http://www.w3.org/2000/svg" xmlns:xlink="http://www.w3.org/1999/xlink">
<g id="graph0" class="graph" transform="scale(1 1) rotate(0) translate(4 227)">
<title>testing</title>
<g id="clust1" class="cluster"><title>clusterdir_fd3a82303f5206df56505f8b5712131f</title>
<g id="a_clust1"><a xlink:href="dir_fd3a82303f5206df56505f8b5712131f.html" target="_top" xlink:title="Physics">
<polygon fill="#ddddee" stroke="black" points="8,-56 8,-215 166,-215 166,-56 8,-56"/>
<text text-anchor="middle" x="87" y="-203" font-family="Helvetica,sans-Serif" font-size="10.00">Physics</text>
</a>
</g>
</g>
<g id="clust2" class="cluster"><title>clusterdir_eda668b19ba4ee58953ebd8b1e9eea8e</title>
<g id="a_clust2"><a xlink:href="dir_eda668b19ba4ee58953ebd8b1e9eea8e.html" target="_top">
<polygon fill="#eeeeff" stroke="black" points="16,-64 16,-188 158,-188 158,-64 16,-64"/>
</a>
</g>
</g>
<!-- dir_eda668b19ba4ee58953ebd8b1e9eea8e -->
<g id="node1" class="node"><title>dir_eda668b19ba4ee58953ebd8b1e9eea8e</title>
<text text-anchor="middle" x="123" y="-159.5" font-family="Helvetica,sans-Serif" font-size="10.00">testing</text>
</g>
<!-- dir_dd5a6a0f2975f48c18e1911e640cf818 -->
<g id="node2" class="node"><title>dir_dd5a6a0f2975f48c18e1911e640cf818</title>
<g id="a_node2"><a xlink:href="dir_dd5a6a0f2975f48c18e1911e640cf818.html" target="_top" xlink:title="include">
<polygon fill="white" stroke="black" points="78,-108 24,-108 24,-72 78,-72 78,-108"/>
<text text-anchor="middle" x="51" y="-87.5" font-family="Helvetica,sans-Serif" font-size="10.00">include</text>
</a>
</g>
</g>
<!-- dir_ce8660c6c7fa5d55756fbed47e4ef58b -->
<g id="node4" class="node"><title>dir_ce8660c6c7fa5d55756fbed47e4ef58b</title>
<g id="a_node4"><a xlink:href="dir_ce8660c6c7fa5d55756fbed47e4ef58b.html" target="_top" xlink:title="include">
<polygon fill="none" stroke="black" points="78,-36 24,-36 24,-0 78,-0 78,-36"/>
<text text-anchor="middle" x="51" y="-15.5" font-family="Helvetica,sans-Serif" font-size="10.00">include</text>
</a>
</g>
</g>
<!-- dir_dd5a6a0f2975f48c18e1911e640cf818&#45;&gt;dir_ce8660c6c7fa5d55756fbed47e4ef58b -->
<g id="edge2" class="edge"><title>dir_dd5a6a0f2975f48c18e1911e640cf818&#45;&gt;dir_ce8660c6c7fa5d55756fbed47e4ef58b</title>
<path fill="none" stroke="black" d="M51,-71.6966C51,-63.9827 51,-54.7125 51,-46.1124"/>
<polygon fill="black" stroke="black" points="54.5001,-46.1043 51,-36.1043 47.5001,-46.1044 54.5001,-46.1043"/>
<g id="a_edge2&#45;headlabel"><a xlink:href="dir_000004_000002.html" target="_top" xlink:title="4">
<text text-anchor="middle" x="57.3393" y="-47.199" font-family="Helvetica,sans-Serif" font-size="10.00">4</text>
</a>
</g>
</g>
<!-- dir_aae94497125e3361e11e6f4e073c322d -->
<g id="node3" class="node"><title>dir_aae94497125e3361e11e6f4e073c322d</title>
<g id="a_node3"><a xlink:href="dir_aae94497125e3361e11e6f4e073c322d.html" target="_top" xlink:title="src">
<polygon fill="white" stroke="black" points="78,-180 24,-180 24,-144 78,-144 78,-180"/>
<text text-anchor="middle" x="51" y="-159.5" font-family="Helvetica,sans-Serif" font-size="10.00">src</text>
</a>
</g>
</g>
<!-- dir_aae94497125e3361e11e6f4e073c322d&#45;&gt;dir_dd5a6a0f2975f48c18e1911e640cf818 -->
<g id="edge1" class="edge"><title>dir_aae94497125e3361e11e6f4e073c322d&#45;&gt;dir_dd5a6a0f2975f48c18e1911e640cf818</title>
<path fill="none" stroke="black" d="M51,-143.697C51,-135.983 51,-126.712 51,-118.112"/>
<polygon fill="black" stroke="black" points="54.5001,-118.104 51,-108.104 47.5001,-118.104 54.5001,-118.104"/>
<g id="a_edge1&#45;headlabel"><a xlink:href="dir_000005_000004.html" target="_top" xlink:title="2">
<text text-anchor="middle" x="57.3393" y="-119.199" font-family="Helvetica,sans-Serif" font-size="10.00">2</text>
</a>
</g>
</g>
</g>
</svg>
