<?xml version="1.0" encoding="UTF-8" standalone="no"?>
<!DOCTYPE svg PUBLIC "-//W3C//DTD SVG 1.1//EN"
 "http://www.w3.org/Graphics/SVG/1.1/DTD/svg11.dtd">
<!-- Generated by graphviz version 2.30.1 (20150305.2338)
 -->
<!-- Title: HalfCell.hpp Pages: 1 -->
<!--zoomable 476 -->
<svg id="main" version="1.1" xmlns="http://www.w3.org/2000/svg" xmlns:xlink="http://www.w3.org/1999/xlink" xml:space="preserve" onload="init(evt)">
<style type="text/css"><![CDATA[
.edge:hover path { stroke: red; }
.edge:hover polygon { stroke: red; fill: red; }
]]></style>
<script type="text/javascript"><![CDATA[
var edges = document.getElementsByTagName('g');
if (edges && edges.length) {
  for (var i=0;i<edges.length;i++) {
    if (edges[i].id.substr(0,4)=='edge') {
      edges[i].setAttribute('class','edge');
    }
  }
}
]]></script>
        <defs>
                <circle id="rim" cx="0" cy="0" r="7"/>
                <circle id="rim2" cx="0" cy="0" r="3.5"/>
                <g id="zoomPlus">
                        <use xlink:href="#rim" fill="#404040">
                                <set attributeName="fill" to="#808080" begin="zoomplus.mouseover" end="zoomplus.mouseout"/>
                        </use>
                        <path d="M-4,0h8M0,-4v8" fill="none" stroke="white" stroke-width="1.5" pointer-events="none"/>
                </g>
                <g id="zoomMin">
                        <use xlink:href="#rim" fill="#404040">
                                <set attributeName="fill" to="#808080" begin="zoomminus.mouseover" end="zoomminus.mouseout"/>
                        </use>
                        <path d="M-4,0h8" fill="none" stroke="white" stroke-width="1.5" pointer-events="none"/>
                </g>
                <g id="dirArrow">
                        <path fill="none" stroke="white" stroke-width="1.5" d="M0,-3.0v7 M-2.5,-0.5L0,-3.0L2.5,-0.5"/>
                </g>
               <g id="resetDef">
                       <use xlink:href="#rim2" fill="#404040">
                               <set attributeName="fill" to="#808080" begin="reset.mouseover" end="reset.mouseout"/>
                       </use>
               </g>
        </defs>

<script type="text/javascript">
var viewWidth = 2003;
var viewHeight = 476;
var sectionId = 'dynsection-1';
</script>
<script xlink:href="svgpan.js"/>
<svg id="graph" class="graph">
<g id="viewport">
<title>HalfCell.hpp</title>
<!-- Node1 -->
<g id="node1" class="node"><title>Node1</title>
<polygon fill="#bfbfbf" stroke="black" points="629.5,-448.5 629.5,-467.5 700.5,-467.5 700.5,-448.5 629.5,-448.5"/>
<text text-anchor="middle" x="665" y="-455.5" font-family="Helvetica,sans-Serif" font-size="10.00">HalfCell.hpp</text>
</g>
<!-- Node2 -->
<g id="node2" class="node"><title>Node2</title>
<g id="a_node2"><a xlink:href="DeviceComponent_8hpp.html" target="_top" xlink:title="C++ header file for the DeviceComponent class. ">
<polygon fill="none" stroke="black" points="224,-336.5 224,-355.5 340,-355.5 340,-336.5 224,-336.5"/>
<text text-anchor="middle" x="282" y="-343.5" font-family="Helvetica,sans-Serif" font-size="10.00">DeviceComponent.hpp</text>
</a>
</g>
</g>
<!-- Node1&#45;&gt;Node2 -->
<g id="edge1" class="edge"><title>Node1&#45;&gt;Node2</title>
<path fill="none" stroke="midnightblue" d="M625.468,-445.646C548.495,-423.539 380.073,-375.167 311.716,-355.535"/>
<polygon fill="midnightblue" stroke="midnightblue" points="624.688,-449.063 635.265,-448.46 626.62,-442.335 624.688,-449.063"/>
</g>
<!-- Node15 -->
<g id="node15" class="node"><title>Node15</title>
<g id="a_node15"><a xlink:href="SolutionData_8hpp.html" target="_top" xlink:title="C++ header file for the SolutionData class. ">
<polygon fill="none" stroke="black" points="772,-392.5 772,-411.5 864,-411.5 864,-392.5 772,-392.5"/>
<text text-anchor="middle" x="818" y="-399.5" font-family="Helvetica,sans-Serif" font-size="10.00">SolutionData.hpp</text>
</a>
</g>
</g>
<!-- Node1&#45;&gt;Node15 -->
<g id="edge18" class="edge"><title>Node1&#45;&gt;Node15</title>
<path fill="none" stroke="midnightblue" d="M698.889,-445.039C727.677,-434.879 768.287,-420.546 793.87,-411.516"/>
<polygon fill="midnightblue" stroke="midnightblue" points="697.508,-441.815 689.243,-448.444 699.838,-448.416 697.508,-441.815"/>
</g>
<!-- Node27 -->
<g id="node27" class="node"><title>Node27</title>
<g id="a_node27"><a xlink:href="PhysicsModule_8hpp.html" target="_top" xlink:title="C++ header file for the ElectrodeSolver class. ">
<polygon fill="none" stroke="black" points="990,-392.5 990,-411.5 1092,-411.5 1092,-392.5 990,-392.5"/>
<text text-anchor="middle" x="1041" y="-399.5" font-family="Helvetica,sans-Serif" font-size="10.00">PhysicsModule.hpp</text>
</a>
</g>
</g>
<!-- Node1&#45;&gt;Node27 -->
<g id="edge33" class="edge"><title>Node1&#45;&gt;Node27</title>
<path fill="none" stroke="midnightblue" d="M710.632,-450.447C781.135,-440.321 916.093,-420.939 989.82,-410.35"/>
<polygon fill="midnightblue" stroke="midnightblue" points="710.113,-446.985 700.712,-451.871 711.108,-453.914 710.113,-446.985"/>
</g>
<!-- Node3 -->
<g id="node3" class="node"><title>Node3</title>
<g id="a_node3"><a xlink:href="DeviceData_8hpp.html" target="_top" xlink:title="C++ header file for the DeviceData class. ">
<polygon fill="none" stroke="black" points="212.5,-280.5 212.5,-299.5 299.5,-299.5 299.5,-280.5 212.5,-280.5"/>
<text text-anchor="middle" x="256" y="-287.5" font-family="Helvetica,sans-Serif" font-size="10.00">DeviceData.hpp</text>
</a>
</g>
</g>
<!-- Node1&#45;&gt;Node3 -->
<g id="edge46" class="edge"><title>Node1&#45;&gt;Node3</title>
<path fill="none" stroke="midnightblue" d="M619.179,-454.066C513.32,-446.228 256.921,-420.807 206,-356 190.255,-335.961 220.974,-312.166 240.877,-299.665"/>
<polygon fill="midnightblue" stroke="midnightblue" points="619.014,-457.564 629.24,-454.792 619.518,-450.582 619.014,-457.564"/>
</g>
<!-- Node5 -->
<g id="node5" class="node"><title>Node5</title>
<g id="a_node5"><a xlink:href="DeviceModel_8hpp.html" target="_top" xlink:title="C++ header file for the DeviceModel class. ">
<polygon fill="none" stroke="black" points="0,-168.5 0,-187.5 92,-187.5 92,-168.5 0,-168.5"/>
<text text-anchor="middle" x="46" y="-175.5" font-family="Helvetica,sans-Serif" font-size="10.00">DeviceModel.hpp</text>
</a>
</g>
</g>
<!-- Node1&#45;&gt;Node5 -->
<g id="edge47" class="edge"><title>Node1&#45;&gt;Node5</title>
<path fill="none" stroke="midnightblue" d="M618.89,-455.599C490.715,-451.396 136.57,-437.58 91,-412 59.9128,-394.55 44,-382.65 44,-347 44,-347 44,-347 44,-289 44,-251.181 45.1964,-206.061 45.7385,-187.557"/>
<polygon fill="midnightblue" stroke="midnightblue" points="619.044,-459.106 629.152,-455.931 619.27,-452.109 619.044,-459.106"/>
</g>
<!-- Node4 -->
<g id="node4" class="node"><title>Node4</title>
<g id="a_node4"><a xlink:href="Solver_8hpp.html" target="_top" xlink:title="C++ header file for the SolutionData class. ">
<polygon fill="none" stroke="black" points="208.5,-224.5 208.5,-243.5 271.5,-243.5 271.5,-224.5 208.5,-224.5"/>
<text text-anchor="middle" x="240" y="-231.5" font-family="Helvetica,sans-Serif" font-size="10.00">Solver.hpp</text>
</a>
</g>
</g>
<!-- Node1&#45;&gt;Node4 -->
<g id="edge48" class="edge"><title>Node1&#45;&gt;Node4</title>
<path fill="none" stroke="midnightblue" d="M619.103,-456.789C491.658,-455.729 140.518,-449.409 106,-412 50.5894,-351.95 178.849,-269.973 224.575,-243.567"/>
<polygon fill="midnightblue" stroke="midnightblue" points="619.282,-460.29 629.309,-456.867 619.335,-453.291 619.282,-460.29"/>
</g>
<!-- Node28 -->
<g id="node28" class="node"><title>Node28</title>
<g id="a_node28"><a xlink:href="BatterySim_8cpp.html" target="_top" xlink:title="Main serial program for battery simulation. ">
<polygon fill="none" stroke="black" points="1788,-392.5 1788,-411.5 1872,-411.5 1872,-392.5 1788,-392.5"/>
<text text-anchor="middle" x="1830" y="-399.5" font-family="Helvetica,sans-Serif" font-size="10.00">BatterySim.cpp</text>
</a>
</g>
</g>
<!-- Node1&#45;&gt;Node28 -->
<g id="edge49" class="edge"><title>Node1&#45;&gt;Node28</title>
<path fill="none" stroke="midnightblue" d="M710.866,-457.087C862.75,-456.96 1363.01,-453.217 1774,-412 1778.51,-411.548 1783.2,-410.968 1787.87,-410.32"/>
<polygon fill="midnightblue" stroke="midnightblue" points="710.537,-453.587 700.539,-457.09 710.54,-460.587 710.537,-453.587"/>
</g>
<!-- Node12 -->
<g id="node12" class="node"><title>Node12</title>
<g id="a_node12"><a xlink:href="HalfCell_8cpp.html" target="_top" xlink:title="Solver for a battery half cell. ">
<polygon fill="none" stroke="black" points="442.5,-168.5 442.5,-187.5 513.5,-187.5 513.5,-168.5 442.5,-168.5"/>
<text text-anchor="middle" x="478" y="-175.5" font-family="Helvetica,sans-Serif" font-size="10.00">HalfCell.cpp</text>
</a>
</g>
</g>
<!-- Node1&#45;&gt;Node12 -->
<g id="edge50" class="edge"><title>Node1&#45;&gt;Node12</title>
<path fill="none" stroke="midnightblue" d="M710.734,-457.284C918.103,-457.984 1760,-454.22 1760,-347 1760,-347 1760,-347 1760,-289 1760,-224.637 720.678,-187 513.626,-180.141"/>
<polygon fill="midnightblue" stroke="midnightblue" points="710.514,-453.784 700.501,-457.244 710.487,-460.784 710.514,-453.784"/>
</g>
<!-- Node29 -->
<g id="node29" class="node"><title>Node29</title>
<g id="a_node29"><a xlink:href="TrilinosExample_8cpp.html" target="_top" xlink:title="C++ source code file for Trilinos examples. ">
<polygon fill="none" stroke="black" points="1890.5,-392.5 1890.5,-411.5 1995.5,-411.5 1995.5,-392.5 1890.5,-392.5"/>
<text text-anchor="middle" x="1943" y="-399.5" font-family="Helvetica,sans-Serif" font-size="10.00">TrilinosExample.cpp</text>
</a>
</g>
</g>
<!-- Node1&#45;&gt;Node29 -->
<g id="edge51" class="edge"><title>Node1&#45;&gt;Node29</title>
<path fill="none" stroke="midnightblue" d="M710.936,-457.071C872.009,-456.942 1426.03,-453.321 1881,-412 1884.03,-411.725 1887.14,-411.402 1890.28,-411.045"/>
<polygon fill="midnightblue" stroke="midnightblue" points="710.899,-453.571 700.9,-457.075 710.902,-460.571 710.899,-453.571"/>
</g>
<!-- Node7 -->
<g id="node7" class="node"><title>Node7</title>
<g id="a_node7"><a xlink:href="ICEDTest_8H.html" target="_top" xlink:title="Testing object for ICED. ">
<polygon fill="none" stroke="black" points="157.5,-112.5 157.5,-131.5 228.5,-131.5 228.5,-112.5 157.5,-112.5"/>
<text text-anchor="middle" x="193" y="-119.5" font-family="Helvetica,sans-Serif" font-size="10.00">ICEDTest.H</text>
</a>
</g>
</g>
<!-- Node1&#45;&gt;Node7 -->
<g id="edge52" class="edge"><title>Node1&#45;&gt;Node7</title>
<path fill="none" stroke="midnightblue" d="M619.106,-457.439C487.802,-457.47 120,-448.499 120,-347 120,-347 120,-347 120,-233 120,-202.902 122.5,-193.172 139,-168 149.169,-152.486 166.299,-139.531 178.54,-131.565"/>
<polygon fill="midnightblue" stroke="midnightblue" points="619.248,-460.938 629.241,-457.418 619.234,-453.938 619.248,-460.938"/>
</g>
<!-- Node2&#45;&gt;Node3 -->
<g id="edge2" class="edge"><title>Node2&#45;&gt;Node3</title>
<path fill="none" stroke="midnightblue" d="M273.325,-326.983C268.912,-317.817 263.748,-307.092 260.213,-299.751"/>
<polygon fill="midnightblue" stroke="midnightblue" points="270.215,-328.591 277.707,-336.083 276.522,-325.555 270.215,-328.591"/>
</g>
<!-- Node14 -->
<g id="node14" class="node"><title>Node14</title>
<g id="a_node14"><a xlink:href="DeviceComponent_8cpp.html" target="_top" xlink:title="C++ source code for the DeviceComponent class. ">
<polygon fill="none" stroke="black" points="318,-280.5 318,-299.5 434,-299.5 434,-280.5 318,-280.5"/>
<text text-anchor="middle" x="376" y="-287.5" font-family="Helvetica,sans-Serif" font-size="10.00">DeviceComponent.cpp</text>
</a>
</g>
</g>
<!-- Node2&#45;&gt;Node14 -->
<g id="edge17" class="edge"><title>Node2&#45;&gt;Node14</title>
<path fill="none" stroke="midnightblue" d="M306.062,-331.177C323.359,-321.241 346.148,-308.149 360.935,-299.655"/>
<polygon fill="midnightblue" stroke="midnightblue" points="304.03,-328.308 297.103,-336.324 307.517,-334.378 304.03,-328.308"/>
</g>
<!-- Node3&#45;&gt;Node4 -->
<g id="edge3" class="edge"><title>Node3&#45;&gt;Node4</title>
<path fill="none" stroke="midnightblue" d="M250.488,-270.396C247.811,-261.362 244.722,-250.936 242.593,-243.751"/>
<polygon fill="midnightblue" stroke="midnightblue" points="247.161,-271.489 253.358,-280.083 253.873,-269.501 247.161,-271.489"/>
</g>
<!-- Node11 -->
<g id="node11" class="node"><title>Node11</title>
<g id="a_node11"><a xlink:href="DeviceData_8cpp.html" target="_top" xlink:title="C++ source code for the DeviceData class. ">
<polygon fill="none" stroke="black" points="268.5,-168.5 268.5,-187.5 355.5,-187.5 355.5,-168.5 268.5,-168.5"/>
<text text-anchor="middle" x="312" y="-175.5" font-family="Helvetica,sans-Serif" font-size="10.00">DeviceData.cpp</text>
</a>
</g>
</g>
<!-- Node3&#45;&gt;Node11 -->
<g id="edge14" class="edge"><title>Node3&#45;&gt;Node11</title>
<path fill="none" stroke="midnightblue" d="M265.574,-271.367C270.024,-263.092 275.348,-253.075 280,-244 290.214,-224.076 301.695,-200.434 307.743,-187.877"/>
<polygon fill="midnightblue" stroke="midnightblue" points="262.359,-269.955 260.684,-280.417 268.518,-273.283 262.359,-269.955"/>
</g>
<!-- Node3&#45;&gt;Node12 -->
<g id="edge15" class="edge"><title>Node3&#45;&gt;Node12</title>
<path fill="none" stroke="midnightblue" d="M306.461,-277.943C334.46,-270.615 369.315,-259.47 398,-244 426.981,-228.37 455.63,-201.629 469.453,-187.824"/>
<polygon fill="midnightblue" stroke="midnightblue" points="305.314,-274.623 296.48,-280.471 307.033,-281.408 305.314,-274.623"/>
</g>
<!-- Node3&#45;&gt;Node7 -->
<g id="edge16" class="edge"><title>Node3&#45;&gt;Node7</title>
<path fill="none" stroke="midnightblue" d="M283.597,-275.79C325.177,-254.115 395.818,-209.275 364,-168 347.6,-146.726 273.714,-133.509 228.599,-127.275"/>
<polygon fill="midnightblue" stroke="midnightblue" points="281.805,-272.775 274.472,-280.421 284.973,-279.017 281.805,-272.775"/>
</g>
<!-- Node4&#45;&gt;Node5 -->
<g id="edge4" class="edge"><title>Node4&#45;&gt;Node5</title>
<path fill="none" stroke="midnightblue" d="M199.399,-221.699C162.785,-211.507 109.743,-196.743 76.5961,-187.516"/>
<polygon fill="midnightblue" stroke="midnightblue" points="198.688,-225.134 209.26,-224.444 200.565,-218.39 198.688,-225.134"/>
</g>
<!-- Node4&#45;&gt;Node11 -->
<g id="edge10" class="edge"><title>Node4&#45;&gt;Node11</title>
<path fill="none" stroke="midnightblue" d="M259.866,-218.101C272.823,-208.382 289.297,-196.027 300.221,-187.834"/>
<polygon fill="midnightblue" stroke="midnightblue" points="257.468,-215.524 251.568,-224.324 261.668,-221.124 257.468,-215.524"/>
</g>
<!-- Node4&#45;&gt;Node12 -->
<g id="edge11" class="edge"><title>Node4&#45;&gt;Node12</title>
<path fill="none" stroke="midnightblue" d="M281.449,-223.596C326.971,-213.267 399.316,-196.853 442.379,-187.082"/>
<polygon fill="midnightblue" stroke="midnightblue" points="280.582,-220.203 271.605,-225.829 282.131,-227.03 280.582,-220.203"/>
</g>
<!-- Node13 -->
<g id="node13" class="node"><title>Node13</title>
<g id="a_node13"><a xlink:href="Solver_8cpp.html" target="_top" xlink:title="C++ source code for the DeviceData class. ">
<polygon fill="none" stroke="black" points="148.5,-168.5 148.5,-187.5 211.5,-187.5 211.5,-168.5 148.5,-168.5"/>
<text text-anchor="middle" x="180" y="-175.5" font-family="Helvetica,sans-Serif" font-size="10.00">Solver.cpp</text>
</a>
</g>
</g>
<!-- Node4&#45;&gt;Node13 -->
<g id="edge12" class="edge"><title>Node4&#45;&gt;Node13</title>
<path fill="none" stroke="midnightblue" d="M222.819,-217.537C212.121,-207.909 198.744,-195.869 189.815,-187.834"/>
<polygon fill="midnightblue" stroke="midnightblue" points="220.586,-220.236 230.36,-224.324 225.268,-215.033 220.586,-220.236"/>
</g>
<!-- Node4&#45;&gt;Node7 -->
<g id="edge13" class="edge"><title>Node4&#45;&gt;Node7</title>
<path fill="none" stroke="midnightblue" d="M235.595,-214.533C232.13,-201.282 226.762,-183.164 220,-168 214.063,-154.686 205,-140.437 199.038,-131.622"/>
<polygon fill="midnightblue" stroke="midnightblue" points="232.228,-215.494 238.047,-224.347 239.019,-213.797 232.228,-215.494"/>
</g>
<!-- Node6 -->
<g id="node6" class="node"><title>Node6</title>
<g id="a_node6"><a xlink:href="DeviceModel_8cpp.html" target="_top" xlink:title="C++ source code for the DeviceData class. ">
<polygon fill="none" stroke="black" points="0,-112.5 0,-131.5 92,-131.5 92,-112.5 0,-112.5"/>
<text text-anchor="middle" x="46" y="-119.5" font-family="Helvetica,sans-Serif" font-size="10.00">DeviceModel.cpp</text>
</a>
</g>
</g>
<!-- Node5&#45;&gt;Node6 -->
<g id="edge5" class="edge"><title>Node5&#45;&gt;Node6</title>
<path fill="none" stroke="midnightblue" d="M46,-157.805C46,-148.91 46,-138.78 46,-131.751"/>
<polygon fill="midnightblue" stroke="midnightblue" points="42.5001,-158.083 46,-168.083 49.5001,-158.083 42.5001,-158.083"/>
</g>
<!-- Node5&#45;&gt;Node7 -->
<g id="edge6" class="edge"><title>Node5&#45;&gt;Node7</title>
<path fill="none" stroke="midnightblue" d="M78.923,-164.906C106.56,-154.754 145.344,-140.506 169.816,-131.516"/>
<polygon fill="midnightblue" stroke="midnightblue" points="77.4724,-161.71 69.2926,-168.444 79.8862,-168.281 77.4724,-161.71"/>
</g>
<!-- Node8 -->
<g id="node8" class="node"><title>Node8</title>
<g id="a_node8"><a xlink:href="TestICED_8H.html" target="_top" xlink:title="Testing utilities for ICED. ">
<polygon fill="none" stroke="black" points="157.5,-56.5 157.5,-75.5 228.5,-75.5 228.5,-56.5 157.5,-56.5"/>
<text text-anchor="middle" x="193" y="-63.5" font-family="Helvetica,sans-Serif" font-size="10.00">TestICED.H</text>
</a>
</g>
</g>
<!-- Node7&#45;&gt;Node8 -->
<g id="edge7" class="edge"><title>Node7&#45;&gt;Node8</title>
<path fill="none" stroke="midnightblue" d="M193,-101.805C193,-92.9102 193,-82.7798 193,-75.7511"/>
<polygon fill="midnightblue" stroke="midnightblue" points="189.5,-102.083 193,-112.083 196.5,-102.083 189.5,-102.083"/>
</g>
<!-- Node9 -->
<g id="node9" class="node"><title>Node9</title>
<g id="a_node9"><a xlink:href="ParallelTestICED_8C.html" target="_top" xlink:title="Implements a command&#45;line interface for the ICED tests. ">
<polygon fill="none" stroke="black" points="88,-0.5 88,-19.5 192,-19.5 192,-0.5 88,-0.5"/>
<text text-anchor="middle" x="140" y="-7.5" font-family="Helvetica,sans-Serif" font-size="10.00">ParallelTestICED.C</text>
</a>
</g>
</g>
<!-- Node8&#45;&gt;Node9 -->
<g id="edge8" class="edge"><title>Node8&#45;&gt;Node9</title>
<path fill="none" stroke="midnightblue" d="M177.019,-48.7175C167.678,-39.1997 156.254,-27.5608 148.589,-19.7511"/>
<polygon fill="midnightblue" stroke="midnightblue" points="174.746,-51.3978 184.248,-56.083 179.741,-46.4945 174.746,-51.3978"/>
</g>
<!-- Node10 -->
<g id="node10" class="node"><title>Node10</title>
<g id="a_node10"><a xlink:href="TestICED_8C.html" target="_top" xlink:title="Implements a command&#45;line interface for the ICED tests. ">
<polygon fill="none" stroke="black" points="210.5,-0.5 210.5,-19.5 281.5,-19.5 281.5,-0.5 210.5,-0.5"/>
<text text-anchor="middle" x="246" y="-7.5" font-family="Helvetica,sans-Serif" font-size="10.00">TestICED.C</text>
</a>
</g>
</g>
<!-- Node8&#45;&gt;Node10 -->
<g id="edge9" class="edge"><title>Node8&#45;&gt;Node10</title>
<path fill="none" stroke="midnightblue" d="M208.981,-48.7175C218.322,-39.1997 229.746,-27.5608 237.411,-19.7511"/>
<polygon fill="midnightblue" stroke="midnightblue" points="206.259,-46.4945 201.752,-56.083 211.254,-51.3978 206.259,-46.4945"/>
</g>
<!-- Node15&#45;&gt;Node2 -->
<g id="edge19" class="edge"><title>Node15&#45;&gt;Node2</title>
<path fill="none" stroke="midnightblue" d="M761.623,-396.285C673.478,-388.757 497.711,-373.116 349,-356 346.085,-355.665 343.101,-355.309 340.088,-354.94"/>
<polygon fill="midnightblue" stroke="midnightblue" points="761.413,-399.78 771.674,-397.141 762.007,-392.805 761.413,-399.78"/>
</g>
<!-- Node15&#45;&gt;Node3 -->
<g id="edge20" class="edge"><title>Node15&#45;&gt;Node3</title>
<path fill="none" stroke="midnightblue" d="M761.365,-401.053C618.411,-400.598 251.708,-395.55 215,-356 198.481,-338.202 226.173,-312.858 243.562,-299.692"/>
<polygon fill="midnightblue" stroke="midnightblue" points="761.659,-404.554 771.668,-401.079 761.677,-397.554 761.659,-404.554"/>
</g>
<!-- Node16 -->
<g id="node16" class="node"><title>Node16</title>
<g id="a_node16"><a xlink:href="ActivityCoefficient_8cpp.html" target="_top" xlink:title="C++ source file for ActivityCoefficient module functions. ">
<polygon fill="none" stroke="black" points="506,-336.5 506,-355.5 622,-355.5 622,-336.5 506,-336.5"/>
<text text-anchor="middle" x="564" y="-343.5" font-family="Helvetica,sans-Serif" font-size="10.00">ActivityCoefficient.cpp</text>
</a>
</g>
</g>
<!-- Node15&#45;&gt;Node16 -->
<g id="edge21" class="edge"><title>Node15&#45;&gt;Node16</title>
<path fill="none" stroke="midnightblue" d="M767.885,-390.346C719.883,-380.141 648.385,-364.94 604.059,-355.516"/>
<polygon fill="midnightblue" stroke="midnightblue" points="767.244,-393.787 777.753,-392.444 768.699,-386.94 767.244,-393.787"/>
</g>
<!-- Node17 -->
<g id="node17" class="node"><title>Node17</title>
<g id="a_node17"><a xlink:href="ButlerVolmer_8cpp.html" target="_top" xlink:title="C++ source file for ButlerVolmer module functions. ">
<polygon fill="none" stroke="black" points="640,-336.5 640,-355.5 732,-355.5 732,-336.5 640,-336.5"/>
<text text-anchor="middle" x="686" y="-343.5" font-family="Helvetica,sans-Serif" font-size="10.00">ButlerVolmer.cpp</text>
</a>
</g>
</g>
<!-- Node15&#45;&gt;Node17 -->
<g id="edge22" class="edge"><title>Node15&#45;&gt;Node17</title>
<path fill="none" stroke="midnightblue" d="M787.781,-388.638C763.01,-378.504 728.6,-364.427 706.818,-355.516"/>
<polygon fill="midnightblue" stroke="midnightblue" points="786.503,-391.897 797.084,-392.444 789.154,-385.418 786.503,-391.897"/>
</g>
<!-- Node18 -->
<g id="node18" class="node"><title>Node18</title>
<g id="a_node18"><a xlink:href="ConcentrationDiffusion_8cpp.html" target="_top" xlink:title="C++ source file for ConcentrationDiffusion module functions. ">
<polygon fill="none" stroke="black" points="750.5,-336.5 750.5,-355.5 885.5,-355.5 885.5,-336.5 750.5,-336.5"/>
<text text-anchor="middle" x="818" y="-343.5" font-family="Helvetica,sans-Serif" font-size="10.00">ConcentrationDiffusion.cpp</text>
</a>
</g>
</g>
<!-- Node15&#45;&gt;Node18 -->
<g id="edge23" class="edge"><title>Node15&#45;&gt;Node18</title>
<path fill="none" stroke="midnightblue" d="M818,-381.805C818,-372.91 818,-362.78 818,-355.751"/>
<polygon fill="midnightblue" stroke="midnightblue" points="814.5,-382.083 818,-392.083 821.5,-382.083 814.5,-382.083"/>
</g>
<!-- Node19 -->
<g id="node19" class="node"><title>Node19</title>
<g id="a_node19"><a xlink:href="Diffusion_8cpp.html" target="_top" xlink:title="C++ source file for Diffusion module function. ">
<polygon fill="none" stroke="black" points="904,-336.5 904,-355.5 978,-355.5 978,-336.5 904,-336.5"/>
<text text-anchor="middle" x="941" y="-343.5" font-family="Helvetica,sans-Serif" font-size="10.00">Diffusion.cpp</text>
</a>
</g>
</g>
<!-- Node15&#45;&gt;Node19 -->
<g id="edge24" class="edge"><title>Node15&#45;&gt;Node19</title>
<path fill="none" stroke="midnightblue" d="M846.773,-388.368C869.807,-378.255 901.484,-364.349 921.601,-355.516"/>
<polygon fill="midnightblue" stroke="midnightblue" points="845.239,-385.219 837.49,-392.444 848.053,-391.628 845.239,-385.219"/>
</g>
<!-- Node15&#45;&gt;Node12 -->
<g id="edge25" class="edge"><title>Node15&#45;&gt;Node12</title>
<path fill="none" stroke="midnightblue" d="M761.601,-401.111C679.396,-399.993 532.567,-392.736 497,-356 450.996,-308.483 468.628,-216.722 475.652,-187.892"/>
<polygon fill="midnightblue" stroke="midnightblue" points="761.742,-404.613 771.78,-401.223 761.819,-397.613 761.742,-404.613"/>
</g>
<!-- Node20 -->
<g id="node20" class="node"><title>Node20</title>
<g id="a_node20"><a xlink:href="Intercalation_8cpp.html" target="_top" xlink:title="C++ source file for Intercalation module functions. ">
<polygon fill="none" stroke="black" points="996.5,-336.5 996.5,-355.5 1085.5,-355.5 1085.5,-336.5 996.5,-336.5"/>
<text text-anchor="middle" x="1041" y="-343.5" font-family="Helvetica,sans-Serif" font-size="10.00">Intercalation.cpp</text>
</a>
</g>
</g>
<!-- Node15&#45;&gt;Node20 -->
<g id="edge26" class="edge"><title>Node15&#45;&gt;Node20</title>
<path fill="none" stroke="midnightblue" d="M863.061,-390.088C905.191,-379.887 967.24,-364.861 1005.83,-355.516"/>
<polygon fill="midnightblue" stroke="midnightblue" points="862.23,-386.688 853.335,-392.444 863.878,-393.492 862.23,-386.688"/>
</g>
<!-- Node21 -->
<g id="node21" class="node"><title>Node21</title>
<g id="a_node21"><a xlink:href="IonMigration_8cpp.html" target="_top" xlink:title="C++ source file for ionMigration module functions. ">
<polygon fill="none" stroke="black" points="1103.5,-336.5 1103.5,-355.5 1192.5,-355.5 1192.5,-336.5 1103.5,-336.5"/>
<text text-anchor="middle" x="1148" y="-343.5" font-family="Helvetica,sans-Serif" font-size="10.00">IonMigration.cpp</text>
</a>
</g>
</g>
<!-- Node15&#45;&gt;Node21 -->
<g id="edge27" class="edge"><title>Node15&#45;&gt;Node21</title>
<path fill="none" stroke="midnightblue" d="M874.435,-391.858C930.225,-382.807 1018.01,-368.527 1094,-356 1097,-355.505 1100.1,-354.994 1103.21,-354.477"/>
<polygon fill="midnightblue" stroke="midnightblue" points="873.711,-388.43 864.401,-393.486 874.832,-395.34 873.711,-388.43"/>
</g>
<!-- Node22 -->
<g id="node22" class="node"><title>Node22</title>
<g id="a_node22"><a xlink:href="OhmsLawElectrolyte_8cpp.html" target="_top" xlink:title="C++ source file for OhmsLawElectrolyte module functions. ">
<polygon fill="none" stroke="black" points="1211,-336.5 1211,-355.5 1337,-355.5 1337,-336.5 1211,-336.5"/>
<text text-anchor="middle" x="1274" y="-343.5" font-family="Helvetica,sans-Serif" font-size="10.00">OhmsLawElectrolyte.cpp</text>
</a>
</g>
</g>
<!-- Node15&#45;&gt;Node22 -->
<g id="edge28" class="edge"><title>Node15&#45;&gt;Node22</title>
<path fill="none" stroke="midnightblue" d="M874.418,-394.473C949.128,-385.807 1084.98,-369.967 1201,-356 1204.17,-355.618 1207.42,-355.226 1210.69,-354.827"/>
<polygon fill="midnightblue" stroke="midnightblue" points="873.821,-391.019 864.29,-395.648 874.627,-397.972 873.821,-391.019"/>
</g>
<!-- Node23 -->
<g id="node23" class="node"><title>Node23</title>
<g id="a_node23"><a xlink:href="OhmsLawSolid_8cpp.html" target="_top" xlink:title="C++ source file for OhmsLawObject module functions. ">
<polygon fill="none" stroke="black" points="1355.5,-336.5 1355.5,-355.5 1456.5,-355.5 1456.5,-336.5 1355.5,-336.5"/>
<text text-anchor="middle" x="1406" y="-343.5" font-family="Helvetica,sans-Serif" font-size="10.00">OhmsLawSolid.cpp</text>
</a>
</g>
</g>
<!-- Node15&#45;&gt;Node23 -->
<g id="edge29" class="edge"><title>Node15&#45;&gt;Node23</title>
<path fill="none" stroke="midnightblue" d="M874.131,-397.399C970.724,-390.937 1174.53,-376.146 1346,-356 1349.03,-355.644 1352.15,-355.252 1355.29,-354.839"/>
<polygon fill="midnightblue" stroke="midnightblue" points="873.752,-393.916 864.006,-398.072 874.217,-400.901 873.752,-393.916"/>
</g>
<!-- Node24 -->
<g id="node24" class="node"><title>Node24</title>
<g id="a_node24"><a xlink:href="SolutionData_8cpp.html" target="_top" xlink:title="C++ source code for the SolutionData class. ">
<polygon fill="none" stroke="black" points="358,-336.5 358,-355.5 450,-355.5 450,-336.5 358,-336.5"/>
<text text-anchor="middle" x="404" y="-343.5" font-family="Helvetica,sans-Serif" font-size="10.00">SolutionData.cpp</text>
</a>
</g>
</g>
<!-- Node15&#45;&gt;Node24 -->
<g id="edge30" class="edge"><title>Node15&#45;&gt;Node24</title>
<path fill="none" stroke="midnightblue" d="M761.51,-394.216C691.595,-385.728 568.921,-370.536 464,-356 459.514,-355.378 454.841,-354.712 450.173,-354.033"/>
<polygon fill="midnightblue" stroke="midnightblue" points="761.502,-397.74 771.85,-395.469 762.344,-390.791 761.502,-397.74"/>
</g>
<!-- Node25 -->
<g id="node25" class="node"><title>Node25</title>
<g id="a_node25"><a xlink:href="TransferenceNumber_8cpp.html" target="_top" xlink:title="C++ source file for TransferenceNumber module functions. ">
<polygon fill="none" stroke="black" points="1474.5,-336.5 1474.5,-355.5 1601.5,-355.5 1601.5,-336.5 1474.5,-336.5"/>
<text text-anchor="middle" x="1538" y="-343.5" font-family="Helvetica,sans-Serif" font-size="10.00">TransferenceNumber.cpp</text>
</a>
</g>
</g>
<!-- Node15&#45;&gt;Node25 -->
<g id="edge31" class="edge"><title>Node15&#45;&gt;Node25</title>
<path fill="none" stroke="midnightblue" d="M874.184,-397.479C1009.55,-388.931 1350.99,-366.985 1465,-356 1468.05,-355.706 1471.17,-355.388 1474.32,-355.053"/>
<polygon fill="midnightblue" stroke="midnightblue" points="873.791,-393.996 864.031,-398.119 874.231,-400.982 873.791,-393.996"/>
</g>
<!-- Node26 -->
<g id="node26" class="node"><title>Node26</title>
<g id="a_node26"><a xlink:href="WallFlux_8cpp.html" target="_top" xlink:title="C++ source file for butlerVolmer module functions. ">
<polygon fill="none" stroke="black" points="1620,-336.5 1620,-355.5 1694,-355.5 1694,-336.5 1620,-336.5"/>
<text text-anchor="middle" x="1657" y="-343.5" font-family="Helvetica,sans-Serif" font-size="10.00">WallFlux.cpp</text>
</a>
</g>
</g>
<!-- Node15&#45;&gt;Node26 -->
<g id="edge32" class="edge"><title>Node15&#45;&gt;Node26</title>
<path fill="none" stroke="midnightblue" d="M874.293,-397.851C1053.7,-387.808 1600.86,-357.13 1610,-356 1613.22,-355.603 1616.54,-355.117 1619.87,-354.58"/>
<polygon fill="midnightblue" stroke="midnightblue" points="874.055,-394.359 864.267,-398.412 874.447,-401.348 874.055,-394.359"/>
</g>
<!-- Node27&#45;&gt;Node2 -->
<g id="edge34" class="edge"><title>Node27&#45;&gt;Node2</title>
<path fill="none" stroke="midnightblue" d="M979.679,-397.554C834.051,-389.284 470.526,-368.099 349,-356 346.08,-355.709 343.092,-355.39 340.076,-355.049"/>
<polygon fill="midnightblue" stroke="midnightblue" points="979.599,-401.055 989.782,-398.127 979.996,-394.067 979.599,-401.055"/>
</g>
<!-- Node27&#45;&gt;Node16 -->
<g id="edge35" class="edge"><title>Node27&#45;&gt;Node16</title>
<path fill="none" stroke="midnightblue" d="M979.406,-394.709C899.145,-386.404 754.468,-371.066 631,-356 628.087,-355.645 625.105,-355.273 622.094,-354.891"/>
<polygon fill="midnightblue" stroke="midnightblue" points="979.512,-398.239 989.819,-395.785 980.232,-391.276 979.512,-398.239"/>
</g>
<!-- Node27&#45;&gt;Node17 -->
<g id="edge36" class="edge"><title>Node27&#45;&gt;Node17</title>
<path fill="none" stroke="midnightblue" d="M979.787,-391.97C919.333,-383.008 824.254,-368.799 742,-356 738.789,-355.5 735.476,-354.98 732.139,-354.453"/>
<polygon fill="midnightblue" stroke="midnightblue" points="979.517,-395.468 989.922,-393.471 980.543,-388.543 979.517,-395.468"/>
</g>
<!-- Node27&#45;&gt;Node18 -->
<g id="edge37" class="edge"><title>Node27&#45;&gt;Node18</title>
<path fill="none" stroke="midnightblue" d="M995.939,-390.088C953.809,-379.887 891.76,-364.861 853.17,-355.516"/>
<polygon fill="midnightblue" stroke="midnightblue" points="995.122,-393.492 1005.66,-392.444 996.77,-386.688 995.122,-393.492"/>
</g>
<!-- Node27&#45;&gt;Node19 -->
<g id="edge38" class="edge"><title>Node27&#45;&gt;Node19</title>
<path fill="none" stroke="midnightblue" d="M1015.91,-387.453C997.451,-377.483 972.903,-364.228 957.027,-355.655"/>
<polygon fill="midnightblue" stroke="midnightblue" points="1014.47,-390.652 1024.93,-392.324 1017.8,-384.493 1014.47,-390.652"/>
</g>
<!-- Node27&#45;&gt;Node12 -->
<g id="edge39" class="edge"><title>Node27&#45;&gt;Node12</title>
<path fill="none" stroke="midnightblue" d="M1102.5,-401.483C1258.93,-402.069 1662.52,-399.327 1703,-356 1709.07,-349.505 1708.87,-342.673 1703,-336 1621.95,-243.9 706.666,-190.991 513.615,-180.812"/>
<polygon fill="midnightblue" stroke="midnightblue" points="1102.13,-397.981 1092.12,-401.437 1102.1,-404.981 1102.13,-397.981"/>
</g>
<!-- Node27&#45;&gt;Node20 -->
<g id="edge40" class="edge"><title>Node27&#45;&gt;Node20</title>
<path fill="none" stroke="midnightblue" d="M1041,-381.805C1041,-372.91 1041,-362.78 1041,-355.751"/>
<polygon fill="midnightblue" stroke="midnightblue" points="1037.5,-382.083 1041,-392.083 1044.5,-382.083 1037.5,-382.083"/>
</g>
<!-- Node27&#45;&gt;Node21 -->
<g id="edge41" class="edge"><title>Node27&#45;&gt;Node21</title>
<path fill="none" stroke="midnightblue" d="M1067.3,-387.726C1087.11,-377.727 1113.71,-364.307 1130.85,-355.655"/>
<polygon fill="midnightblue" stroke="midnightblue" points="1065.54,-384.694 1058.19,-392.324 1068.7,-390.943 1065.54,-384.694"/>
</g>
<!-- Node27&#45;&gt;Node22 -->
<g id="edge42" class="edge"><title>Node27&#45;&gt;Node22</title>
<path fill="none" stroke="midnightblue" d="M1087.8,-390.153C1131.83,-379.95 1196.85,-364.881 1237.25,-355.516"/>
<polygon fill="midnightblue" stroke="midnightblue" points="1086.87,-386.776 1077.92,-392.444 1088.45,-393.595 1086.87,-386.776"/>
</g>
<!-- Node27&#45;&gt;Node23 -->
<g id="edge43" class="edge"><title>Node27&#45;&gt;Node23</title>
<path fill="none" stroke="midnightblue" d="M1101.94,-392.053C1163.51,-383.003 1261.37,-368.59 1346,-356 1349.02,-355.551 1352.13,-355.087 1355.26,-354.619"/>
<polygon fill="midnightblue" stroke="midnightblue" points="1101.39,-388.596 1092,-393.513 1102.41,-395.522 1101.39,-388.596"/>
</g>
<!-- Node27&#45;&gt;Node25 -->
<g id="edge44" class="edge"><title>Node27&#45;&gt;Node25</title>
<path fill="none" stroke="midnightblue" d="M1102.22,-394.831C1184.68,-386.447 1335.98,-370.798 1465,-356 1468.04,-355.651 1471.16,-355.288 1474.31,-354.917"/>
<polygon fill="midnightblue" stroke="midnightblue" points="1101.86,-391.35 1092.27,-395.842 1102.57,-398.314 1101.86,-391.35"/>
</g>
<!-- Node27&#45;&gt;Node26 -->
<g id="edge45" class="edge"><title>Node27&#45;&gt;Node26</title>
<path fill="none" stroke="midnightblue" d="M1102.26,-398.374C1206.78,-393.398 1426.1,-380.803 1610,-356 1613.21,-355.567 1616.53,-355.057 1619.86,-354.503"/>
<polygon fill="midnightblue" stroke="midnightblue" points="1102.03,-394.881 1092.21,-398.846 1102.36,-401.873 1102.03,-394.881"/>
</g>
</g>
</svg>
        <g id="navigator" transform="translate(0 0)" fill="#404254">
                <rect fill="#f2f5e9" fill-opacity="0.5" stroke="#606060" stroke-width=".5" x="0" y="0" width="60" height="60"/>
                <use id="zoomplus" xlink:href="#zoomPlus" x="17" y="9" onmousedown="handleZoom(evt,'in')"/>
                <use id="zoomminus" xlink:href="#zoomMin" x="42" y="9" onmousedown="handleZoom(evt,'out')"/>
                <use id="reset" xlink:href="#resetDef" x="30" y="36" onmousedown="handleReset()"/>
                <g id="arrowUp" xlink:href="#dirArrow" transform="translate(30 24)" onmousedown="handlePan(0,-1)">
                  <use xlink:href="#rim" fill="#404040">
                        <set attributeName="fill" to="#808080" begin="arrowUp.mouseover" end="arrowUp.mouseout"/>
                  </use>
                  <path fill="none" stroke="white" stroke-width="1.5" d="M0,-3.0v7 M-2.5,-0.5L0,-3.0L2.5,-0.5"/>
                </g>
                <g id="arrowRight" xlink:href="#dirArrow" transform="rotate(90) translate(36 -43)" onmousedown="handlePan(1,0)">
                  <use xlink:href="#rim" fill="#404040">
                        <set attributeName="fill" to="#808080" begin="arrowRight.mouseover" end="arrowRight.mouseout"/>
                  </use>
                  <path fill="none" stroke="white" stroke-width="1.5" d="M0,-3.0v7 M-2.5,-0.5L0,-3.0L2.5,-0.5"/>
                </g>
                <g id="arrowDown" xlink:href="#dirArrow" transform="rotate(180) translate(-30 -48)" onmousedown="handlePan(0,1)">
                  <use xlink:href="#rim" fill="#404040">
                        <set attributeName="fill" to="#808080" begin="arrowDown.mouseover" end="arrowDown.mouseout"/>
                  </use>
                  <path fill="none" stroke="white" stroke-width="1.5" d="M0,-3.0v7 M-2.5,-0.5L0,-3.0L2.5,-0.5"/>
                </g>
                <g id="arrowLeft" xlink:href="#dirArrow" transform="rotate(270) translate(-36 17)" onmousedown="handlePan(-1,0)">
                  <use xlink:href="#rim" fill="#404040">
                        <set attributeName="fill" to="#808080" begin="arrowLeft.mouseover" end="arrowLeft.mouseout"/>
                  </use>
                  <path fill="none" stroke="white" stroke-width="1.5" d="M0,-3.0v7 M-2.5,-0.5L0,-3.0L2.5,-0.5"/>
                </g>
        </g>
        <svg viewBox="0 0 15 15" width="100%" height="30px" preserveAspectRatio="xMaxYMin meet">
         <g id="arrow_out" transform="scale(0.3 0.3)">
          <a xlink:href="HalfCell_8hpp__dep__incl_org.svg" target="_base">
           <rect id="button" ry="5" rx="5" y="6" x="6" height="38" width="38"
                fill="#f2f5e9" fill-opacity="0.5" stroke="#606060" stroke-width="1.0"/>
           <path id="arrow"
             d="M 11.500037,31.436501 C 11.940474,20.09759 22.043105,11.32322 32.158766,21.979434 L 37.068811,17.246167 C 37.068811,17.246167 37.088388,32 37.088388,32 L 22.160133,31.978069 C 22.160133,31.978069 26.997745,27.140456 26.997745,27.140456 C 18.528582,18.264221 13.291696,25.230495 11.500037,31.436501 z"
             style="fill:#404040;"/>
          </a>
         </g>
        </svg>
</svg>
