<?xml version="1.0" encoding="UTF-8" standalone="no"?>
<!DOCTYPE svg PUBLIC "-//W3C//DTD SVG 1.1//EN"
 "http://www.w3.org/Graphics/SVG/1.1/DTD/svg11.dtd">
<!-- Generated by graphviz version 2.30.1 (20150305.2338)
 -->
<!-- Title: HalfCell.cpp Pages: 1 -->
<svg width="1252pt" height="376pt"
 viewBox="0.00 0.00 1252.15 376.00" xmlns="http://www.w3.org/2000/svg" xmlns:xlink="http://www.w3.org/1999/xlink">
<g id="graph0" class="graph" transform="scale(1 1) rotate(0) translate(4 372)">
<title>HalfCell.cpp</title>
<!-- Node1 -->
<g id="node1" class="node"><title>Node1</title>
<polygon fill="#bfbfbf" stroke="black" points="116.5,-348.5 116.5,-367.5 187.5,-367.5 187.5,-348.5 116.5,-348.5"/>
<text text-anchor="middle" x="152" y="-355.5" font-family="Helvetica,sans-Serif" font-size="10.00">HalfCell.cpp</text>
</g>
<!-- Node2 -->
<g id="node2" class="node"><title>Node2</title>
<g id="a_node2"><a xlink:href="HalfCell_8hpp.html" target="_top" xlink:title="Program interface for the monolithic battery simulation software. ">
<polygon fill="none" stroke="black" points="116.5,-56.5 116.5,-75.5 187.5,-75.5 187.5,-56.5 116.5,-56.5"/>
<text text-anchor="middle" x="152" y="-63.5" font-family="Helvetica,sans-Serif" font-size="10.00">HalfCell.hpp</text>
</a>
</g>
</g>
<!-- Node1&#45;&gt;Node2 -->
<g id="edge1" class="edge"><title>Node1&#45;&gt;Node2</title>
<path fill="none" stroke="midnightblue" d="M117.128,-348.398C72.2525,-334.997 0,-304.493 0,-247 0,-247 0,-247 0,-183 0,-127.023 65.9504,-94.4596 110.968,-78.7521"/>
<polygon fill="midnightblue" stroke="midnightblue" points="112.131,-82.0539 120.506,-75.5641 109.912,-75.415 112.131,-82.0539"/>
</g>
<!-- Node5 -->
<g id="node5" class="node"><title>Node5</title>
<g id="a_node5"><a xlink:href="SolutionData_8hpp.html" target="_top" xlink:title="C++ header file for the SolutionData class. ">
<polygon fill="none" stroke="black" points="854,-112.5 854,-131.5 946,-131.5 946,-112.5 854,-112.5"/>
<text text-anchor="middle" x="900" y="-119.5" font-family="Helvetica,sans-Serif" font-size="10.00">SolutionData.hpp</text>
</a>
</g>
</g>
<!-- Node1&#45;&gt;Node5 -->
<g id="edge4" class="edge"><title>Node1&#45;&gt;Node5</title>
<path fill="none" stroke="midnightblue" d="M187.762,-354.545C367.088,-341.883 1162.58,-281.386 1233,-200 1242.31,-189.245 1242.36,-178.709 1233,-168 1197.72,-127.636 1041.48,-122.034 956.132,-122.086"/>
<polygon fill="midnightblue" stroke="midnightblue" points="956.076,-118.586 946.088,-122.119 956.099,-125.586 956.076,-118.586"/>
</g>
<!-- Node15 -->
<g id="node15" class="node"><title>Node15</title>
<g id="a_node15"><a xlink:href="DeviceData_8hpp.html" target="_top" xlink:title="C++ header file for the DeviceData class. ">
<polygon fill="none" stroke="black" points="477.5,-236.5 477.5,-255.5 564.5,-255.5 564.5,-236.5 477.5,-236.5"/>
<text text-anchor="middle" x="521" y="-243.5" font-family="Helvetica,sans-Serif" font-size="10.00">DeviceData.hpp</text>
</a>
</g>
</g>
<!-- Node1&#45;&gt;Node15 -->
<g id="edge15" class="edge"><title>Node1&#45;&gt;Node15</title>
<path fill="none" stroke="midnightblue" d="M180.648,-348.46C246.389,-328.862 408.128,-280.647 482.478,-258.483"/>
<polygon fill="midnightblue" stroke="midnightblue" points="483.787,-261.746 492.37,-255.535 481.787,-255.037 483.787,-261.746"/>
</g>
<!-- Node17 -->
<g id="node17" class="node"><title>Node17</title>
<g id="a_node17"><a xlink:href="PhysicsModule_8hpp.html" target="_top" xlink:title="C++ header file for the ElectrodeSolver class. ">
<polygon fill="none" stroke="black" points="218,-112.5 218,-131.5 320,-131.5 320,-112.5 218,-112.5"/>
<text text-anchor="middle" x="269" y="-119.5" font-family="Helvetica,sans-Serif" font-size="10.00">PhysicsModule.hpp</text>
</a>
</g>
</g>
<!-- Node1&#45;&gt;Node17 -->
<g id="edge44" class="edge"><title>Node1&#45;&gt;Node17</title>
<path fill="none" stroke="midnightblue" d="M156.303,-348.394C173.356,-314.287 236.414,-188.173 260.01,-140.98"/>
<polygon fill="midnightblue" stroke="midnightblue" points="263.191,-142.443 264.533,-131.934 256.93,-139.313 263.191,-142.443"/>
</g>
<!-- Node26 -->
<g id="node26" class="node"><title>Node26</title>
<g id="a_node26"><a xlink:href="Solver_8hpp.html" target="_top" xlink:title="C++ header file for the SolutionData class. ">
<polygon fill="none" stroke="black" points="60.5,-292.5 60.5,-311.5 123.5,-311.5 123.5,-292.5 60.5,-292.5"/>
<text text-anchor="middle" x="92" y="-299.5" font-family="Helvetica,sans-Serif" font-size="10.00">Solver.hpp</text>
</a>
</g>
</g>
<!-- Node1&#45;&gt;Node26 -->
<g id="edge45" class="edge"><title>Node1&#45;&gt;Node26</title>
<path fill="none" stroke="midnightblue" d="M142.36,-348.324C133.49,-340.341 120.125,-328.313 109.392,-318.653"/>
<polygon fill="midnightblue" stroke="midnightblue" points="111.59,-315.922 101.815,-311.834 106.907,-321.125 111.59,-315.922"/>
</g>
<!-- Node3 -->
<g id="node3" class="node"><title>Node3</title>
<polygon fill="none" stroke="#bfbfbf" points="87.5,-0.5 87.5,-19.5 142.5,-19.5 142.5,-0.5 87.5,-0.5"/>
<text text-anchor="middle" x="115" y="-7.5" font-family="Helvetica,sans-Serif" font-size="10.00">Global.H</text>
</g>
<!-- Node2&#45;&gt;Node3 -->
<g id="edge2" class="edge"><title>Node2&#45;&gt;Node3</title>
<path fill="none" stroke="midnightblue" d="M145.89,-56.083C140.718,-48.5341 133.154,-37.4948 126.806,-28.2298"/>
<polygon fill="midnightblue" stroke="midnightblue" points="129.536,-26.0221 120.996,-19.7511 123.761,-29.9787 129.536,-26.0221"/>
</g>
<!-- Node4 -->
<g id="node4" class="node"><title>Node4</title>
<polygon fill="none" stroke="#bfbfbf" points="161,-0.5 161,-19.5 219,-19.5 219,-0.5 161,-0.5"/>
<text text-anchor="middle" x="190" y="-7.5" font-family="Helvetica,sans-Serif" font-size="10.00">Profiler.H</text>
</g>
<!-- Node2&#45;&gt;Node4 -->
<g id="edge3" class="edge"><title>Node2&#45;&gt;Node4</title>
<path fill="none" stroke="midnightblue" d="M158.275,-56.083C163.642,-48.4554 171.518,-37.2645 178.079,-27.9408"/>
<polygon fill="midnightblue" stroke="midnightblue" points="180.949,-29.9434 183.842,-19.7511 175.225,-25.9149 180.949,-29.9434"/>
</g>
<!-- Node6 -->
<g id="node6" class="node"><title>Node6</title>
<polygon fill="none" stroke="#bfbfbf" points="1135.5,-56.5 1135.5,-75.5 1212.5,-75.5 1212.5,-56.5 1135.5,-56.5"/>
<text text-anchor="middle" x="1174" y="-63.5" font-family="Helvetica,sans-Serif" font-size="10.00">Parameters.H</text>
</g>
<!-- Node5&#45;&gt;Node6 -->
<g id="edge5" class="edge"><title>Node5&#45;&gt;Node6</title>
<path fill="none" stroke="midnightblue" d="M943.416,-112.444C992.93,-102.685 1073.68,-86.7703 1125.3,-76.5978"/>
<polygon fill="midnightblue" stroke="midnightblue" points="1126.08,-80.011 1135.22,-74.6433 1124.73,-73.1431 1126.08,-80.011"/>
</g>
<!-- Node5&#45;&gt;Node2 -->
<g id="edge6" class="edge"><title>Node5&#45;&gt;Node2</title>
<path fill="none" stroke="midnightblue" d="M853.668,-116.211C838.776,-114.753 822.199,-113.217 807,-112 554.856,-91.8146 491.076,-97.0184 239,-76 225.627,-74.8849 211.119,-73.4672 197.853,-72.0886"/>
<polygon fill="midnightblue" stroke="midnightblue" points="197.839,-68.5677 187.526,-70.998 197.103,-75.529 197.839,-68.5677"/>
</g>
<!-- Node7 -->
<g id="node7" class="node"><title>Node7</title>
<polygon fill="none" stroke="#bfbfbf" points="679.5,-56.5 679.5,-75.5 792.5,-75.5 792.5,-56.5 679.5,-56.5"/>
<text text-anchor="middle" x="736" y="-63.5" font-family="Helvetica,sans-Serif" font-size="10.00">Epetra_SerialComm.h</text>
</g>
<!-- Node5&#45;&gt;Node7 -->
<g id="edge7" class="edge"><title>Node5&#45;&gt;Node7</title>
<path fill="none" stroke="midnightblue" d="M874.014,-112.444C846.304,-103.32 802.248,-88.8133 771.384,-78.6509"/>
<polygon fill="midnightblue" stroke="midnightblue" points="772.458,-75.3196 761.865,-75.5164 770.268,-81.9684 772.458,-75.3196"/>
</g>
<!-- Node8 -->
<g id="node8" class="node"><title>Node8</title>
<polygon fill="none" stroke="#bfbfbf" points="935.5,-56.5 935.5,-75.5 1012.5,-75.5 1012.5,-56.5 935.5,-56.5"/>
<text text-anchor="middle" x="974" y="-63.5" font-family="Helvetica,sans-Serif" font-size="10.00">Epetra_Map.h</text>
</g>
<!-- Node5&#45;&gt;Node8 -->
<g id="edge8" class="edge"><title>Node5&#45;&gt;Node8</title>
<path fill="none" stroke="midnightblue" d="M911.889,-112.324C923.15,-104.107 940.287,-91.6017 953.709,-81.8069"/>
<polygon fill="midnightblue" stroke="midnightblue" points="955.88,-84.5559 961.894,-75.8339 951.753,-78.9014 955.88,-84.5559"/>
</g>
<!-- Node9 -->
<g id="node9" class="node"><title>Node9</title>
<polygon fill="none" stroke="#bfbfbf" points="1030.5,-56.5 1030.5,-75.5 1117.5,-75.5 1117.5,-56.5 1030.5,-56.5"/>
<text text-anchor="middle" x="1074" y="-63.5" font-family="Helvetica,sans-Serif" font-size="10.00">Epetra_Vector.h</text>
</g>
<!-- Node5&#45;&gt;Node9 -->
<g id="edge9" class="edge"><title>Node5&#45;&gt;Node9</title>
<path fill="none" stroke="midnightblue" d="M927.571,-112.444C957.097,-103.28 1004.12,-88.6876 1036.88,-78.5192"/>
<polygon fill="midnightblue" stroke="midnightblue" points="1038.04,-81.8232 1046.56,-75.5164 1035.97,-75.1378 1038.04,-81.8232"/>
</g>
<!-- Node10 -->
<g id="node10" class="node"><title>Node10</title>
<polygon fill="none" stroke="#bfbfbf" points="455.5,-56.5 455.5,-75.5 556.5,-75.5 556.5,-56.5 455.5,-56.5"/>
<text text-anchor="middle" x="506" y="-63.5" font-family="Helvetica,sans-Serif" font-size="10.00">Epetra_CrsMatrix.h</text>
</g>
<!-- Node5&#45;&gt;Node10 -->
<g id="edge10" class="edge"><title>Node5&#45;&gt;Node10</title>
<path fill="none" stroke="midnightblue" d="M853.904,-115.073C791.239,-106.956 675.391,-91.7445 566.68,-76.2218"/>
<polygon fill="midnightblue" stroke="midnightblue" points="566.917,-72.7201 556.522,-74.7673 565.925,-79.6494 566.917,-72.7201"/>
</g>
<!-- Node11 -->
<g id="node11" class="node"><title>Node11</title>
<polygon fill="none" stroke="#bfbfbf" points="811,-56.5 811,-75.5 917,-75.5 917,-56.5 811,-56.5"/>
<text text-anchor="middle" x="864" y="-63.5" font-family="Helvetica,sans-Serif" font-size="10.00">Epetra_RowMatrix.h</text>
</g>
<!-- Node5&#45;&gt;Node11 -->
<g id="edge11" class="edge"><title>Node5&#45;&gt;Node11</title>
<path fill="none" stroke="midnightblue" d="M894.055,-112.083C889.023,-104.534 881.663,-93.4948 875.487,-84.2298"/>
<polygon fill="midnightblue" stroke="midnightblue" points="878.293,-82.1301 869.834,-75.7511 872.469,-86.0131 878.293,-82.1301"/>
</g>
<!-- Node12 -->
<g id="node12" class="node"><title>Node12</title>
<polygon fill="none" stroke="#bfbfbf" points="574.5,-56.5 574.5,-75.5 661.5,-75.5 661.5,-56.5 574.5,-56.5"/>
<text text-anchor="middle" x="618" y="-63.5" font-family="Helvetica,sans-Serif" font-size="10.00">Epetra_Export.h</text>
</g>
<!-- Node5&#45;&gt;Node12 -->
<g id="edge12" class="edge"><title>Node5&#45;&gt;Node12</title>
<path fill="none" stroke="midnightblue" d="M855.316,-112.444C805.418,-102.889 724.692,-87.4304 671.478,-77.2405"/>
<polygon fill="midnightblue" stroke="midnightblue" points="672.028,-73.7823 661.548,-75.339 670.711,-80.6573 672.028,-73.7823"/>
</g>
<!-- Node13 -->
<g id="node13" class="node"><title>Node13</title>
<polygon fill="none" stroke="#bfbfbf" points="393,-56.5 393,-75.5 437,-75.5 437,-56.5 393,-56.5"/>
<text text-anchor="middle" x="415" y="-63.5" font-family="Helvetica,sans-Serif" font-size="10.00">vector</text>
</g>
<!-- Node5&#45;&gt;Node13 -->
<g id="edge13" class="edge"><title>Node5&#45;&gt;Node13</title>
<path fill="none" stroke="midnightblue" d="M853.895,-116.543C749.934,-106.478 502.525,-82.4452 447.312,-75.454"/>
<polygon fill="midnightblue" stroke="midnightblue" points="447.632,-71.9636 437.231,-73.9847 446.622,-78.8905 447.632,-71.9636"/>
</g>
<!-- Node14 -->
<g id="node14" class="node"><title>Node14</title>
<polygon fill="none" stroke="#bfbfbf" points="248.5,-56.5 248.5,-75.5 289.5,-75.5 289.5,-56.5 248.5,-56.5"/>
<text text-anchor="middle" x="269" y="-63.5" font-family="Helvetica,sans-Serif" font-size="10.00">string</text>
</g>
<!-- Node5&#45;&gt;Node14 -->
<g id="edge14" class="edge"><title>Node5&#45;&gt;Node14</title>
<path fill="none" stroke="midnightblue" d="M853.653,-116.395C838.759,-114.947 822.186,-113.37 807,-112 614.028,-94.593 381.902,-75.956 299.682,-69.4256"/>
<polygon fill="midnightblue" stroke="midnightblue" points="299.777,-65.9222 289.531,-68.6204 299.223,-72.9003 299.777,-65.9222"/>
</g>
<!-- Node15&#45;&gt;Node6 -->
<g id="edge16" class="edge"><title>Node15&#45;&gt;Node6</title>
<path fill="none" stroke="midnightblue" d="M564.721,-243.869C716.118,-239.744 1210.04,-224.452 1233,-200 1265.57,-165.303 1218.25,-109.641 1190.98,-82.665"/>
<polygon fill="midnightblue" stroke="midnightblue" points="1193.23,-79.9676 1183.59,-75.5626 1188.38,-85.0151 1193.23,-79.9676"/>
</g>
<!-- Node15&#45;&gt;Node2 -->
<g id="edge17" class="edge"><title>Node15&#45;&gt;Node2</title>
<path fill="none" stroke="midnightblue" d="M477.288,-242.532C407.298,-237.86 273.986,-225.792 235,-200 192.932,-172.169 168.275,-114.932 157.866,-85.4503"/>
<polygon fill="midnightblue" stroke="midnightblue" points="161.07,-83.9946 154.568,-75.6291 154.434,-86.223 161.07,-83.9946"/>
</g>
<!-- Node15&#45;&gt;Node5 -->
<g id="edge18" class="edge"><title>Node15&#45;&gt;Node5</title>
<path fill="none" stroke="midnightblue" d="M564.508,-244.009C616.432,-241.332 704.791,-231.97 773,-200 792.992,-190.629 792.58,-180.174 811,-168 829.891,-155.515 852.708,-144.042 870.509,-135.805"/>
<polygon fill="midnightblue" stroke="midnightblue" points="872.167,-138.897 879.826,-131.577 869.274,-132.523 872.167,-138.897"/>
</g>
<!-- Node16 -->
<g id="node16" class="node"><title>Node16</title>
<g id="a_node16"><a xlink:href="DeviceComponent_8hpp.html" target="_top" xlink:title="C++ header file for the DeviceComponent class. ">
<polygon fill="none" stroke="black" points="648,-174.5 648,-193.5 764,-193.5 764,-174.5 648,-174.5"/>
<text text-anchor="middle" x="706" y="-181.5" font-family="Helvetica,sans-Serif" font-size="10.00">DeviceComponent.hpp</text>
</a>
</g>
</g>
<!-- Node15&#45;&gt;Node16 -->
<g id="edge19" class="edge"><title>Node15&#45;&gt;Node16</title>
<path fill="none" stroke="midnightblue" d="M547.506,-236.403C579.652,-225.978 633.987,-208.356 669.927,-196.699"/>
<polygon fill="midnightblue" stroke="midnightblue" points="671.111,-199.995 679.543,-193.581 668.951,-193.336 671.111,-199.995"/>
</g>
<!-- Node20 -->
<g id="node20" class="node"><title>Node20</title>
<polygon fill="none" stroke="#bfbfbf" points="328,-174.5 328,-193.5 428,-193.5 428,-174.5 328,-174.5"/>
<text text-anchor="middle" x="378" y="-181.5" font-family="Helvetica,sans-Serif" font-size="10.00">Teuchos_RCP.hpp</text>
</g>
<!-- Node15&#45;&gt;Node20 -->
<g id="edge36" class="edge"><title>Node15&#45;&gt;Node20</title>
<path fill="none" stroke="midnightblue" d="M500.512,-236.403C476.194,-226.2 435.451,-209.105 407.683,-197.454"/>
<polygon fill="midnightblue" stroke="midnightblue" points="409.026,-194.222 398.45,-193.581 406.317,-200.677 409.026,-194.222"/>
</g>
<!-- Node21 -->
<g id="node21" class="node"><title>Node21</title>
<polygon fill="none" stroke="#bfbfbf" points="446.5,-174.5 446.5,-193.5 495.5,-193.5 495.5,-174.5 446.5,-174.5"/>
<text text-anchor="middle" x="471" y="-181.5" font-family="Helvetica,sans-Serif" font-size="10.00">NOX.H</text>
</g>
<!-- Node15&#45;&gt;Node21 -->
<g id="edge37" class="edge"><title>Node15&#45;&gt;Node21</title>
<path fill="none" stroke="midnightblue" d="M513.836,-236.403C506.262,-227.314 494.13,-212.756 484.707,-201.449"/>
<polygon fill="midnightblue" stroke="midnightblue" points="487.241,-199.022 478.15,-193.581 481.864,-203.503 487.241,-199.022"/>
</g>
<!-- Node22 -->
<g id="node22" class="node"><title>Node22</title>
<polygon fill="none" stroke="#bfbfbf" points="514,-169 514,-199 630,-199 630,-169 514,-169"/>
<text text-anchor="start" x="522" y="-187" font-family="Helvetica,sans-Serif" font-size="10.00">NOX_Epetra_Interface</text>
<text text-anchor="middle" x="572" y="-176" font-family="Helvetica,sans-Serif" font-size="10.00">_Required.H</text>
</g>
<!-- Node15&#45;&gt;Node22 -->
<g id="edge38" class="edge"><title>Node15&#45;&gt;Node22</title>
<path fill="none" stroke="midnightblue" d="M528.307,-236.403C534.827,-228.733 544.658,-217.167 553.344,-206.948"/>
<polygon fill="midnightblue" stroke="midnightblue" points="556.171,-209.027 559.98,-199.141 550.837,-204.493 556.171,-209.027"/>
</g>
<!-- Node23 -->
<g id="node23" class="node"><title>Node23</title>
<polygon fill="none" stroke="#bfbfbf" points="820,-169 820,-199 936,-199 936,-169 820,-169"/>
<text text-anchor="start" x="828" y="-187" font-family="Helvetica,sans-Serif" font-size="10.00">NOX_Epetra_Interface</text>
<text text-anchor="middle" x="878" y="-176" font-family="Helvetica,sans-Serif" font-size="10.00">_Jacobian.H</text>
</g>
<!-- Node15&#45;&gt;Node23 -->
<g id="edge39" class="edge"><title>Node15&#45;&gt;Node23</title>
<path fill="none" stroke="midnightblue" d="M564.568,-238.796C620.571,-230.666 720.756,-215.6 806,-200 807.272,-199.767 808.555,-199.53 809.848,-199.287"/>
<polygon fill="midnightblue" stroke="midnightblue" points="810.728,-202.683 819.889,-197.36 809.408,-195.808 810.728,-202.683"/>
</g>
<!-- Node24 -->
<g id="node24" class="node"><title>Node24</title>
<polygon fill="none" stroke="#bfbfbf" points="954.5,-169 954.5,-199 1091.5,-199 1091.5,-169 954.5,-169"/>
<text text-anchor="start" x="962.5" y="-187" font-family="Helvetica,sans-Serif" font-size="10.00">NOX_Epetra_LinearSystem</text>
<text text-anchor="middle" x="1023" y="-176" font-family="Helvetica,sans-Serif" font-size="10.00">_AztecOO.H</text>
</g>
<!-- Node15&#45;&gt;Node24 -->
<g id="edge40" class="edge"><title>Node15&#45;&gt;Node24</title>
<path fill="none" stroke="midnightblue" d="M564.796,-241.577C640.167,-235.419 799.44,-221.24 944.196,-200.039"/>
<polygon fill="midnightblue" stroke="midnightblue" points="944.77,-203.492 954.15,-198.566 943.746,-196.568 944.77,-203.492"/>
</g>
<!-- Node25 -->
<g id="node25" class="node"><title>Node25</title>
<polygon fill="none" stroke="#bfbfbf" points="1110,-174.5 1110,-193.5 1224,-193.5 1224,-174.5 1110,-174.5"/>
<text text-anchor="middle" x="1167" y="-181.5" font-family="Helvetica,sans-Serif" font-size="10.00">NOX_Epetra_Group.H</text>
</g>
<!-- Node15&#45;&gt;Node25 -->
<g id="edge41" class="edge"><title>Node15&#45;&gt;Node25</title>
<path fill="none" stroke="midnightblue" d="M564.82,-243.728C661.773,-240.447 901.581,-229.766 1100,-200 1107.54,-198.869 1115.5,-197.366 1123.19,-195.749"/>
<polygon fill="midnightblue" stroke="midnightblue" points="1124.07,-199.138 1133.09,-193.578 1122.57,-192.3 1124.07,-199.138"/>
</g>
<!-- Node15&#45;&gt;Node13 -->
<g id="edge42" class="edge"><title>Node15&#45;&gt;Node13</title>
<path fill="none" stroke="midnightblue" d="M477.198,-241.523C423.855,-236.274 338.44,-224.248 319,-200 310.104,-188.904 312.982,-180.886 319,-168 329.546,-145.417 344.49,-149.738 362,-132 376.96,-116.845 392.125,-97.7916 402.378,-84.2402"/>
<polygon fill="midnightblue" stroke="midnightblue" points="405.459,-85.9628 408.628,-75.8531 399.846,-81.7797 405.459,-85.9628"/>
</g>
<!-- Node15&#45;&gt;Node14 -->
<g id="edge43" class="edge"><title>Node15&#45;&gt;Node14</title>
<path fill="none" stroke="midnightblue" d="M477.425,-245.554C404.298,-243.733 259.888,-227.607 209,-132 198.126,-111.57 220.846,-92.6685 241.377,-80.5756"/>
<polygon fill="midnightblue" stroke="midnightblue" points="243.18,-83.5782 250.232,-75.6714 239.788,-77.4547 243.18,-83.5782"/>
</g>
<!-- Node16&#45;&gt;Node6 -->
<g id="edge20" class="edge"><title>Node16&#45;&gt;Node6</title>
<path fill="none" stroke="midnightblue" d="M764.3,-174.667C838.949,-163.74 964.028,-144.496 1009,-132 1058.73,-118.181 1114.1,-94.5838 1146.38,-79.9428"/>
<polygon fill="midnightblue" stroke="midnightblue" points="1147.99,-83.0537 1155.63,-75.7073 1145.08,-76.6895 1147.99,-83.0537"/>
</g>
<!-- Node16&#45;&gt;Node2 -->
<g id="edge21" class="edge"><title>Node16&#45;&gt;Node2</title>
<path fill="none" stroke="midnightblue" d="M672.086,-174.462C661.542,-172.063 649.84,-169.659 639,-168 544.214,-153.491 294.614,-175.188 209,-132 188.137,-121.476 171.568,-99.7118 161.787,-84.2716"/>
<polygon fill="midnightblue" stroke="midnightblue" points="164.746,-82.4013 156.596,-75.6321 158.746,-86.0065 164.746,-82.4013"/>
</g>
<!-- Node16&#45;&gt;Node5 -->
<g id="edge22" class="edge"><title>Node16&#45;&gt;Node5</title>
<path fill="none" stroke="midnightblue" d="M733.795,-174.403C767.65,-163.933 824.971,-146.205 862.655,-134.55"/>
<polygon fill="midnightblue" stroke="midnightblue" points="863.737,-137.879 872.256,-131.581 861.668,-131.192 863.737,-137.879"/>
</g>
<!-- Node16&#45;&gt;Node17 -->
<g id="edge23" class="edge"><title>Node16&#45;&gt;Node17</title>
<path fill="none" stroke="midnightblue" d="M671.01,-174.478C660.738,-172.163 649.455,-169.801 639,-168 530.894,-149.372 403.712,-135.682 330.126,-128.558"/>
<polygon fill="midnightblue" stroke="midnightblue" points="330.394,-125.068 320.106,-127.597 329.726,-132.036 330.394,-125.068"/>
</g>
<!-- Node16&#45;&gt;Node7 -->
<g id="edge27" class="edge"><title>Node16&#45;&gt;Node7</title>
<path fill="none" stroke="midnightblue" d="M743.807,-174.485C766.381,-167.244 793.257,-154.335 807,-132 820.279,-110.418 792.92,-91.599 768.404,-79.8411"/>
<polygon fill="midnightblue" stroke="midnightblue" points="769.791,-76.6271 759.237,-75.6894 766.902,-83.0035 769.791,-76.6271"/>
</g>
<!-- Node16&#45;&gt;Node8 -->
<g id="edge28" class="edge"><title>Node16&#45;&gt;Node8</title>
<path fill="none" stroke="midnightblue" d="M763.123,-174.47C832.183,-163.674 940.961,-144.928 955,-132 967.819,-120.196 972.163,-100.271 973.549,-85.5863"/>
<polygon fill="midnightblue" stroke="midnightblue" points="977.043,-85.7838 974.123,-75.5993 970.055,-85.3818 977.043,-85.7838"/>
</g>
<!-- Node16&#45;&gt;Node9 -->
<g id="edge29" class="edge"><title>Node16&#45;&gt;Node9</title>
<path fill="none" stroke="midnightblue" d="M764.222,-174.771C831.698,-164.751 938.438,-147.272 976,-132 1006.37,-119.653 1037.2,-97.2227 1055.96,-82.2158"/>
<polygon fill="midnightblue" stroke="midnightblue" points="1058.39,-84.7516 1063.92,-75.7139 1053.96,-79.3311 1058.39,-84.7516"/>
</g>
<!-- Node18 -->
<g id="node18" class="node"><title>Node18</title>
<polygon fill="none" stroke="#bfbfbf" points="566,-112.5 566,-131.5 666,-131.5 666,-112.5 566,-112.5"/>
<text text-anchor="middle" x="616" y="-119.5" font-family="Helvetica,sans-Serif" font-size="10.00">Epetra_FEVector.h</text>
</g>
<!-- Node16&#45;&gt;Node18 -->
<g id="edge30" class="edge"><title>Node16&#45;&gt;Node18</title>
<path fill="none" stroke="midnightblue" d="M693.105,-174.403C678.536,-164.691 654.598,-148.732 637.255,-137.17"/>
<polygon fill="midnightblue" stroke="midnightblue" points="639.133,-134.215 628.871,-131.581 635.25,-140.04 639.133,-134.215"/>
</g>
<!-- Node16&#45;&gt;Node10 -->
<g id="edge31" class="edge"><title>Node16&#45;&gt;Node10</title>
<path fill="none" stroke="midnightblue" d="M671.21,-174.445C631.421,-164.18 569.285,-146.534 550,-132 533.554,-119.605 521.191,-99.1924 513.823,-84.5478"/>
<polygon fill="midnightblue" stroke="midnightblue" points="516.979,-83.0346 509.53,-75.5002 510.654,-86.0352 516.979,-83.0346"/>
</g>
<!-- Node19 -->
<g id="node19" class="node"><title>Node19</title>
<polygon fill="none" stroke="#bfbfbf" points="684,-112.5 684,-131.5 798,-131.5 798,-112.5 684,-112.5"/>
<text text-anchor="middle" x="741" y="-119.5" font-family="Helvetica,sans-Serif" font-size="10.00">Epetra_FECrsMatrix.h</text>
</g>
<!-- Node16&#45;&gt;Node19 -->
<g id="edge32" class="edge"><title>Node16&#45;&gt;Node19</title>
<path fill="none" stroke="midnightblue" d="M711.015,-174.403C716.161,-165.582 724.312,-151.608 730.818,-140.455"/>
<polygon fill="midnightblue" stroke="midnightblue" points="733.979,-141.982 735.995,-131.581 727.933,-138.455 733.979,-141.982"/>
</g>
<!-- Node16&#45;&gt;Node12 -->
<g id="edge33" class="edge"><title>Node16&#45;&gt;Node12</title>
<path fill="none" stroke="midnightblue" d="M674.902,-174.438C633.346,-162.689 564.074,-141.899 557,-132 543.081,-112.524 568.255,-92.8518 590.36,-80.3319"/>
<polygon fill="midnightblue" stroke="midnightblue" points="592.055,-83.3949 599.212,-75.5835 588.746,-77.2264 592.055,-83.3949"/>
</g>
<!-- Node16&#45;&gt;Node13 -->
<g id="edge34" class="edge"><title>Node16&#45;&gt;Node13</title>
<path fill="none" stroke="midnightblue" d="M672.151,-174.429C627.963,-163.054 553.172,-143.118 527,-132 493.686,-117.848 457.976,-95.7875 436.06,-81.3634"/>
<polygon fill="midnightblue" stroke="midnightblue" points="437.821,-78.3309 427.56,-75.6945 433.938,-84.1547 437.821,-78.3309"/>
</g>
<!-- Node16&#45;&gt;Node14 -->
<g id="edge35" class="edge"><title>Node16&#45;&gt;Node14</title>
<path fill="none" stroke="midnightblue" d="M668.493,-174.486C610.177,-161.226 502.602,-136.674 485,-132 418.214,-114.266 340.876,-90.0981 299.262,-76.791"/>
<polygon fill="midnightblue" stroke="midnightblue" points="300.314,-73.4529 289.722,-73.7306 298.175,-80.1183 300.314,-73.4529"/>
</g>
<!-- Node17&#45;&gt;Node2 -->
<g id="edge24" class="edge"><title>Node17&#45;&gt;Node2</title>
<path fill="none" stroke="midnightblue" d="M250.461,-112.444C231.377,-103.636 201.425,-89.8116 179.564,-79.722"/>
<polygon fill="midnightblue" stroke="midnightblue" points="180.999,-76.5292 170.452,-75.5164 178.065,-82.8849 180.999,-76.5292"/>
</g>
<!-- Node17&#45;&gt;Node13 -->
<g id="edge25" class="edge"><title>Node17&#45;&gt;Node13</title>
<path fill="none" stroke="midnightblue" d="M292.134,-112.444C316.769,-103.332 355.916,-88.8531 383.386,-78.6929"/>
<polygon fill="midnightblue" stroke="midnightblue" points="384.765,-81.9146 392.93,-75.1629 382.337,-75.3493 384.765,-81.9146"/>
</g>
<!-- Node17&#45;&gt;Node14 -->
<g id="edge26" class="edge"><title>Node17&#45;&gt;Node14</title>
<path fill="none" stroke="midnightblue" d="M269,-112.083C269,-105.006 269,-94.8611 269,-85.9865"/>
<polygon fill="midnightblue" stroke="midnightblue" points="272.5,-85.751 269,-75.7511 265.5,-85.7511 272.5,-85.751"/>
</g>
<!-- Node26&#45;&gt;Node2 -->
<g id="edge46" class="edge"><title>Node26&#45;&gt;Node2</title>
<path fill="none" stroke="midnightblue" d="M83.7864,-292.182C76.4563,-283.663 66.2446,-270.019 62,-256 43.4538,-194.746 28.3532,-166.442 62,-112 71.9038,-95.9753 89.4334,-85.4662 106.407,-78.6693"/>
<polygon fill="midnightblue" stroke="midnightblue" points="108.072,-81.7883 116.275,-75.0828 105.681,-75.2094 108.072,-81.7883"/>
</g>
<!-- Node26&#45;&gt;Node15 -->
<g id="edge47" class="edge"><title>Node26&#45;&gt;Node15</title>
<path fill="none" stroke="midnightblue" d="M123.545,-297.029C196.303,-287.871 376.555,-265.182 467.175,-253.775"/>
<polygon fill="midnightblue" stroke="midnightblue" points="467.757,-257.23 477.242,-252.508 466.883,-250.284 467.757,-257.23"/>
</g>
<!-- Node26&#45;&gt;Node13 -->
<g id="edge48" class="edge"><title>Node26&#45;&gt;Node13</title>
<path fill="none" stroke="midnightblue" d="M104.171,-292.5C139.276,-267.944 243.661,-194.658 329,-132 352.124,-115.022 378.388,-95.0723 395.742,-81.7963"/>
<polygon fill="midnightblue" stroke="midnightblue" points="398.133,-84.374 403.941,-75.5133 393.875,-78.8178 398.133,-84.374"/>
</g>
<!-- Node26&#45;&gt;Node14 -->
<g id="edge49" class="edge"><title>Node26&#45;&gt;Node14</title>
<path fill="none" stroke="midnightblue" d="M95.4924,-292.211C107.187,-263.591 147.39,-171.489 203,-112 214.584,-99.6084 230.164,-88.7853 243.279,-80.8607"/>
<polygon fill="midnightblue" stroke="midnightblue" points="245.41,-83.6704 252.3,-75.6216 241.895,-77.6172 245.41,-83.6704"/>
</g>
</g>
</svg>
