<?xml version="1.0" encoding="UTF-8" standalone="no"?>
<!DOCTYPE svg PUBLIC "-//W3C//DTD SVG 1.1//EN"
 "http://www.w3.org/Graphics/SVG/1.1/DTD/svg11.dtd">
<!-- Generated by graphviz version 2.30.1 (20150305.2338)
 -->
<!-- Title: ICEDTest.H Pages: 1 -->
<svg width="3398pt" height="444pt"
 viewBox="0.00 0.00 3398.16 444.00" xmlns="http://www.w3.org/2000/svg" xmlns:xlink="http://www.w3.org/1999/xlink">
<g id="graph0" class="graph" transform="scale(1 1) rotate(0) translate(4 440)">
<title>ICEDTest.H</title>
<!-- Node1 -->
<g id="node1" class="node"><title>Node1</title>
<polygon fill="#bfbfbf" stroke="black" points="1816.66,-416.5 1816.66,-435.5 1887.66,-435.5 1887.66,-416.5 1816.66,-416.5"/>
<text text-anchor="middle" x="1852.16" y="-423.5" font-family="Helvetica,sans-Serif" font-size="10.00">ICEDTest.H</text>
</g>
<!-- Node2 -->
<g id="node2" class="node"><title>Node2</title>
<g id="a_node2"><a xlink:href="HalfCell_8hpp.html" target="_top" xlink:title="Program interface for the monolithic battery simulation software. ">
<polygon fill="none" stroke="black" points="1226.66,-56.5 1226.66,-75.5 1297.66,-75.5 1297.66,-56.5 1226.66,-56.5"/>
<text text-anchor="middle" x="1262.16" y="-63.5" font-family="Helvetica,sans-Serif" font-size="10.00">HalfCell.hpp</text>
</a>
</g>
</g>
<!-- Node1&#45;&gt;Node2 -->
<g id="edge1" class="edge"><title>Node1&#45;&gt;Node2</title>
<path fill="none" stroke="midnightblue" d="M1816.27,-423.385C1753.71,-419.827 1628.35,-409.166 1597.16,-380 1571.41,-355.927 1578.16,-338.249 1578.16,-303 1578.16,-303 1578.16,-303 1578.16,-183 1578.16,-126.082 1395.21,-88.6223 1307.72,-73.9623"/>
<polygon fill="midnightblue" stroke="midnightblue" points="1308.23,-70.4992 1297.79,-72.3284 1307.09,-77.4062 1308.23,-70.4992"/>
</g>
<!-- Node5 -->
<g id="node5" class="node"><title>Node5</title>
<g id="a_node5"><a xlink:href="DeviceData_8hpp.html" target="_top" xlink:title="C++ header file for the DeviceData class. ">
<polygon fill="none" stroke="black" points="606.657,-236.5 606.657,-255.5 693.657,-255.5 693.657,-236.5 606.657,-236.5"/>
<text text-anchor="middle" x="650.157" y="-243.5" font-family="Helvetica,sans-Serif" font-size="10.00">DeviceData.hpp</text>
</a>
</g>
</g>
<!-- Node1&#45;&gt;Node5 -->
<g id="edge4" class="edge"><title>Node1&#45;&gt;Node5</title>
<path fill="none" stroke="midnightblue" d="M1816.26,-425.616C1681.36,-426.995 1193,-423.534 812.157,-312 763.398,-297.72 709.022,-274.266 677.299,-259.778"/>
<polygon fill="midnightblue" stroke="midnightblue" points="678.76,-256.597 668.213,-255.59 675.829,-262.955 678.76,-256.597"/>
</g>
<!-- Node26 -->
<g id="node26" class="node"><title>Node26</title>
<g id="a_node26"><a xlink:href="DeviceModel_8hpp.html" target="_top" xlink:title="C++ header file for the DeviceModel class. ">
<polygon fill="none" stroke="black" points="1178.16,-354.5 1178.16,-373.5 1270.16,-373.5 1270.16,-354.5 1178.16,-354.5"/>
<text text-anchor="middle" x="1224.16" y="-361.5" font-family="Helvetica,sans-Serif" font-size="10.00">DeviceModel.hpp</text>
</a>
</g>
</g>
<!-- Node1&#45;&gt;Node26 -->
<g id="edge43" class="edge"><title>Node1&#45;&gt;Node26</title>
<path fill="none" stroke="midnightblue" d="M1816.62,-421.761C1737.02,-414.485 1538.35,-396.212 1372.16,-380 1341.96,-377.054 1308.3,-373.653 1280.73,-370.834"/>
<polygon fill="midnightblue" stroke="midnightblue" points="1280.78,-367.322 1270.48,-369.785 1280.07,-374.285 1280.78,-367.322"/>
</g>
<!-- Node30 -->
<g id="node30" class="node"><title>Node30</title>
<g id="a_node30"><a xlink:href="Solver_8hpp.html" target="_top" xlink:title="C++ header file for the SolutionData class. ">
<polygon fill="none" stroke="black" points="1260.66,-292.5 1260.66,-311.5 1323.66,-311.5 1323.66,-292.5 1260.66,-292.5"/>
<text text-anchor="middle" x="1292.16" y="-299.5" font-family="Helvetica,sans-Serif" font-size="10.00">Solver.hpp</text>
</a>
</g>
</g>
<!-- Node1&#45;&gt;Node30 -->
<g id="edge56" class="edge"><title>Node1&#45;&gt;Node30</title>
<path fill="none" stroke="midnightblue" d="M1816.56,-422.55C1742.55,-417.069 1574.63,-402.505 1522.16,-380 1501.23,-371.027 1502.62,-357.977 1482.16,-348 1434.33,-324.68 1373.72,-313.039 1333.98,-307.523"/>
<polygon fill="midnightblue" stroke="midnightblue" points="1334.23,-304.025 1323.85,-306.187 1333.31,-310.965 1334.23,-304.025"/>
</g>
<!-- Node31 -->
<g id="node31" class="node"><title>Node31</title>
<polygon fill="none" stroke="#bfbfbf" points="1414.66,-354.5 1414.66,-373.5 1473.66,-373.5 1473.66,-354.5 1414.66,-354.5"/>
<text text-anchor="middle" x="1444.16" y="-361.5" font-family="Helvetica,sans-Serif" font-size="10.00">Testing.H</text>
</g>
<!-- Node1&#45;&gt;Node31 -->
<g id="edge57" class="edge"><title>Node1&#45;&gt;Node31</title>
<path fill="none" stroke="midnightblue" d="M1816.6,-423.036C1750.97,-418.875 1606.69,-407.226 1488.16,-380 1484.2,-379.091 1480.1,-377.96 1476.06,-376.729"/>
<polygon fill="midnightblue" stroke="midnightblue" points="1476.88,-373.313 1466.28,-373.534 1474.7,-379.967 1476.88,-373.313"/>
</g>
<!-- Node3 -->
<g id="node3" class="node"><title>Node3</title>
<polygon fill="none" stroke="#bfbfbf" points="900.657,-0.5 900.657,-19.5 955.657,-19.5 955.657,-0.5 900.657,-0.5"/>
<text text-anchor="middle" x="928.157" y="-7.5" font-family="Helvetica,sans-Serif" font-size="10.00">Global.H</text>
</g>
<!-- Node1&#45;&gt;Node3 -->
<g id="edge58" class="edge"><title>Node1&#45;&gt;Node3</title>
<path fill="none" stroke="midnightblue" d="M1816.42,-424.576C1559.27,-421.301 1.15732,-397.552 1.15732,-303 1.15732,-303 1.15732,-303 1.15732,-121 1.15732,-90.9022 -3.47196,-74.6423 20.1573,-56 54.8065,-28.6636 722.242,-14.7407 890.101,-11.6627"/>
<polygon fill="midnightblue" stroke="midnightblue" points="890.265,-15.1604 900.2,-11.4796 890.138,-8.16156 890.265,-15.1604"/>
</g>
<!-- Node4 -->
<g id="node4" class="node"><title>Node4</title>
<polygon fill="none" stroke="#bfbfbf" points="1567.16,-0.5 1567.16,-19.5 1625.16,-19.5 1625.16,-0.5 1567.16,-0.5"/>
<text text-anchor="middle" x="1596.16" y="-7.5" font-family="Helvetica,sans-Serif" font-size="10.00">Profiler.H</text>
</g>
<!-- Node1&#45;&gt;Node4 -->
<g id="edge59" class="edge"><title>Node1&#45;&gt;Node4</title>
<path fill="none" stroke="midnightblue" d="M1887.73,-424.769C2074.41,-423.408 2933.97,-415.24 2977.16,-380 3004.47,-357.715 2996.16,-338.249 2996.16,-303 2996.16,-303 2996.16,-303 2996.16,-121 2996.16,-50.8014 1862.71,-17.8729 1635.52,-11.9778"/>
<polygon fill="midnightblue" stroke="midnightblue" points="1635.48,-8.47579 1625.4,-11.7175 1635.31,-15.4735 1635.48,-8.47579"/>
</g>
<!-- Node14 -->
<g id="node14" class="node"><title>Node14</title>
<polygon fill="none" stroke="#bfbfbf" points="1126.16,-56.5 1126.16,-75.5 1170.16,-75.5 1170.16,-56.5 1126.16,-56.5"/>
<text text-anchor="middle" x="1148.16" y="-63.5" font-family="Helvetica,sans-Serif" font-size="10.00">vector</text>
</g>
<!-- Node1&#45;&gt;Node14 -->
<g id="edge60" class="edge"><title>Node1&#45;&gt;Node14</title>
<path fill="none" stroke="midnightblue" d="M1816.63,-425.682C1722.95,-426.826 1471.86,-425.463 1405.16,-380 1345.7,-339.477 1371.53,-295.565 1331.16,-236 1290.16,-175.501 1279.18,-158.933 1223.16,-112 1208.45,-99.6813 1190,-88.5624 1175.07,-80.4589"/>
<polygon fill="midnightblue" stroke="midnightblue" points="1176.33,-77.1634 1165.85,-75.5868 1173.06,-83.3528 1176.33,-77.1634"/>
</g>
<!-- Node32 -->
<g id="node32" class="node"><title>Node32</title>
<polygon fill="none" stroke="#bfbfbf" points="1606.16,-354.5 1606.16,-373.5 1650.16,-373.5 1650.16,-354.5 1606.16,-354.5"/>
<text text-anchor="middle" x="1628.16" y="-361.5" font-family="Helvetica,sans-Serif" font-size="10.00">cmath</text>
</g>
<!-- Node1&#45;&gt;Node32 -->
<g id="edge61" class="edge"><title>Node1&#45;&gt;Node32</title>
<path fill="none" stroke="midnightblue" d="M1816.62,-419.158C1777.38,-412.148 1712.68,-398.925 1659.16,-380 1657.3,-379.342 1655.4,-378.605 1653.51,-377.819"/>
<polygon fill="midnightblue" stroke="midnightblue" points="1654.83,-374.575 1644.28,-373.635 1651.94,-380.951 1654.83,-374.575"/>
</g>
<!-- Node33 -->
<g id="node33" class="node"><title>Node33</title>
<polygon fill="none" stroke="#bfbfbf" points="1668.66,-354.5 1668.66,-373.5 1853.66,-373.5 1853.66,-354.5 1668.66,-354.5"/>
<text text-anchor="middle" x="1761.16" y="-361.5" font-family="Helvetica,sans-Serif" font-size="10.00">Teuchos_CommandLineProcessor.hpp</text>
</g>
<!-- Node1&#45;&gt;Node33 -->
<g id="edge62" class="edge"><title>Node1&#45;&gt;Node33</title>
<path fill="none" stroke="midnightblue" d="M1839.12,-416.403C1824.39,-406.691 1800.18,-390.732 1782.65,-379.17"/>
<polygon fill="midnightblue" stroke="midnightblue" points="1784.45,-376.163 1774.17,-373.581 1780.59,-382.007 1784.45,-376.163"/>
</g>
<!-- Node34 -->
<g id="node34" class="node"><title>Node34</title>
<polygon fill="none" stroke="#bfbfbf" points="1872.16,-354.5 1872.16,-373.5 2016.16,-373.5 2016.16,-354.5 1872.16,-354.5"/>
<text text-anchor="middle" x="1944.16" y="-361.5" font-family="Helvetica,sans-Serif" font-size="10.00">Teuchos_FancyOStream.hpp</text>
</g>
<!-- Node1&#45;&gt;Node34 -->
<g id="edge63" class="edge"><title>Node1&#45;&gt;Node34</title>
<path fill="none" stroke="midnightblue" d="M1865.34,-416.403C1880.23,-406.691 1904.7,-390.732 1922.43,-379.17"/>
<polygon fill="midnightblue" stroke="midnightblue" points="1924.54,-381.975 1931,-373.581 1920.71,-376.112 1924.54,-381.975"/>
</g>
<!-- Node35 -->
<g id="node35" class="node"><title>Node35</title>
<polygon fill="none" stroke="#bfbfbf" points="2034.66,-354.5 2034.66,-373.5 2177.66,-373.5 2177.66,-354.5 2034.66,-354.5"/>
<text text-anchor="middle" x="2106.16" y="-361.5" font-family="Helvetica,sans-Serif" font-size="10.00">Teuchos_VerboseObject.hpp</text>
</g>
<!-- Node1&#45;&gt;Node35 -->
<g id="edge64" class="edge"><title>Node1&#45;&gt;Node35</title>
<path fill="none" stroke="midnightblue" d="M1887.74,-416.594C1932.83,-405.943 2010.62,-387.567 2060.17,-375.862"/>
<polygon fill="midnightblue" stroke="midnightblue" points="2061.06,-379.248 2069.99,-373.543 2059.46,-372.436 2061.06,-379.248"/>
</g>
<!-- Node36 -->
<g id="node36" class="node"><title>Node36</title>
<polygon fill="none" stroke="#bfbfbf" points="2195.66,-349 2195.66,-379 2324.66,-379 2324.66,-349 2195.66,-349"/>
<text text-anchor="start" x="2203.66" y="-367" font-family="Helvetica,sans-Serif" font-size="10.00">Stratimikos_DefaultLinear</text>
<text text-anchor="middle" x="2260.16" y="-356" font-family="Helvetica,sans-Serif" font-size="10.00">SolverBuilder.hpp</text>
</g>
<!-- Node1&#45;&gt;Node36 -->
<g id="edge65" class="edge"><title>Node1&#45;&gt;Node36</title>
<path fill="none" stroke="midnightblue" d="M1887.86,-420.974C1947.36,-414.097 2070.73,-399.112 2185.61,-380.021"/>
<polygon fill="midnightblue" stroke="midnightblue" points="2186.35,-383.446 2195.63,-378.341 2185.19,-376.542 2186.35,-383.446"/>
</g>
<!-- Node37 -->
<g id="node37" class="node"><title>Node37</title>
<polygon fill="none" stroke="#bfbfbf" points="2342.66,-354.5 2342.66,-373.5 2503.66,-373.5 2503.66,-354.5 2342.66,-354.5"/>
<text text-anchor="middle" x="2423.16" y="-361.5" font-family="Helvetica,sans-Serif" font-size="10.00">Thyra_EpetraThyraWrappers.hpp</text>
</g>
<!-- Node1&#45;&gt;Node37 -->
<g id="edge66" class="edge"><title>Node1&#45;&gt;Node37</title>
<path fill="none" stroke="midnightblue" d="M1887.86,-422.542C1967.8,-416.846 2167.23,-401.561 2333.16,-380 2343.86,-378.609 2355.24,-376.896 2366.18,-375.131"/>
<polygon fill="midnightblue" stroke="midnightblue" points="2366.78,-378.58 2376.08,-373.502 2365.64,-371.673 2366.78,-378.58"/>
</g>
<!-- Node38 -->
<g id="node38" class="node"><title>Node38</title>
<polygon fill="none" stroke="#bfbfbf" points="2521.66,-354.5 2521.66,-373.5 2654.66,-373.5 2654.66,-354.5 2521.66,-354.5"/>
<text text-anchor="middle" x="2588.16" y="-361.5" font-family="Helvetica,sans-Serif" font-size="10.00">Thyra_EpetraLinearOp.hpp</text>
</g>
<!-- Node1&#45;&gt;Node38 -->
<g id="edge67" class="edge"><title>Node1&#45;&gt;Node38</title>
<path fill="none" stroke="midnightblue" d="M1887.73,-424.16C1986.95,-421.475 2275.05,-411.354 2512.16,-380 2521.26,-378.796 2530.92,-377.167 2540.19,-375.425"/>
<polygon fill="midnightblue" stroke="midnightblue" points="2540.89,-378.853 2550.04,-373.505 2539.56,-371.982 2540.89,-378.853"/>
</g>
<!-- Node39 -->
<g id="node39" class="node"><title>Node39</title>
<polygon fill="none" stroke="#bfbfbf" points="2672.66,-354.5 2672.66,-373.5 2833.66,-373.5 2833.66,-354.5 2672.66,-354.5"/>
<text text-anchor="middle" x="2753.16" y="-361.5" font-family="Helvetica,sans-Serif" font-size="10.00">Thyra_EpetraModelEvaluator.hpp</text>
</g>
<!-- Node1&#45;&gt;Node39 -->
<g id="edge68" class="edge"><title>Node1&#45;&gt;Node39</title>
<path fill="none" stroke="midnightblue" d="M1887.85,-424.416C2001.43,-422.258 2364.62,-413.06 2663.16,-380 2674.48,-378.746 2686.55,-377.012 2698.04,-375.168"/>
<polygon fill="midnightblue" stroke="midnightblue" points="2698.67,-378.611 2707.97,-373.527 2697.53,-371.705 2698.67,-378.611"/>
</g>
<!-- Node40 -->
<g id="node40" class="node"><title>Node40</title>
<polygon fill="none" stroke="#bfbfbf" points="2852.16,-349 2852.16,-379 2968.16,-379 2968.16,-349 2852.16,-349"/>
<text text-anchor="start" x="2860.16" y="-367" font-family="Helvetica,sans-Serif" font-size="10.00">Thyra_NonlinearSolver</text>
<text text-anchor="middle" x="2910.16" y="-356" font-family="Helvetica,sans-Serif" font-size="10.00">_NOX.hpp</text>
</g>
<!-- Node1&#45;&gt;Node40 -->
<g id="edge69" class="edge"><title>Node1&#45;&gt;Node40</title>
<path fill="none" stroke="midnightblue" d="M1887.79,-424.201C2039.42,-420.678 2632.43,-405.607 2842.05,-379.786"/>
<polygon fill="midnightblue" stroke="midnightblue" points="2842.56,-383.249 2852.04,-378.509 2841.67,-376.306 2842.56,-383.249"/>
</g>
<!-- Node29 -->
<g id="node29" class="node"><title>Node29</title>
<polygon fill="none" stroke="#bfbfbf" points="1430.66,-292.5 1430.66,-311.5 1549.66,-311.5 1549.66,-292.5 1430.66,-292.5"/>
<text text-anchor="middle" x="1490.16" y="-299.5" font-family="Helvetica,sans-Serif" font-size="10.00">Rythmos_ConfigDefs.h</text>
</g>
<!-- Node1&#45;&gt;Node29 -->
<g id="edge70" class="edge"><title>Node1&#45;&gt;Node29</title>
<path fill="none" stroke="midnightblue" d="M1816.55,-422.285C1749.54,-416.716 1607.53,-402.586 1564.16,-380 1537.27,-365.998 1514.54,-338.473 1501.63,-320.41"/>
<polygon fill="midnightblue" stroke="midnightblue" points="1504.36,-318.198 1495.8,-311.948 1498.59,-322.169 1504.36,-318.198"/>
</g>
<!-- Node41 -->
<g id="node41" class="node"><title>Node41</title>
<polygon fill="none" stroke="#bfbfbf" points="3024.16,-354.5 3024.16,-373.5 3196.16,-373.5 3196.16,-354.5 3024.16,-354.5"/>
<text text-anchor="middle" x="3110.16" y="-361.5" font-family="Helvetica,sans-Serif" font-size="10.00">Rythmos_ForwardEulerStepper.hpp</text>
</g>
<!-- Node1&#45;&gt;Node41 -->
<g id="edge71" class="edge"><title>Node1&#45;&gt;Node41</title>
<path fill="none" stroke="midnightblue" d="M1887.79,-425.042C2029.78,-424.909 2568.98,-421.533 3010.16,-380 3023.32,-378.761 3037.39,-376.953 3050.7,-375.018"/>
<polygon fill="midnightblue" stroke="midnightblue" points="3051.33,-378.463 3060.7,-373.521 3050.29,-371.54 3051.33,-378.463"/>
</g>
<!-- Node42 -->
<g id="node42" class="node"><title>Node42</title>
<polygon fill="none" stroke="#bfbfbf" points="3214.16,-354.5 3214.16,-373.5 3390.16,-373.5 3390.16,-354.5 3214.16,-354.5"/>
<text text-anchor="middle" x="3302.16" y="-361.5" font-family="Helvetica,sans-Serif" font-size="10.00">Teuchos_StandardCatchMacros.hpp</text>
</g>
<!-- Node1&#45;&gt;Node42 -->
<g id="edge72" class="edge"><title>Node1&#45;&gt;Node42</title>
<path fill="none" stroke="midnightblue" d="M1887.8,-425.385C2043.96,-426.74 2683.33,-428.847 3205.16,-380 3217.88,-378.809 3231.46,-377.03 3244.32,-375.109"/>
<polygon fill="midnightblue" stroke="midnightblue" points="3245.09,-378.531 3254.44,-373.546 3244.03,-371.613 3245.09,-378.531"/>
</g>
<!-- Node2&#45;&gt;Node3 -->
<g id="edge2" class="edge"><title>Node2&#45;&gt;Node3</title>
<path fill="none" stroke="midnightblue" d="M1226.41,-59.2211C1162.97,-48.9633 1031.24,-27.6661 966.191,-17.1491"/>
<polygon fill="midnightblue" stroke="midnightblue" points="966.401,-13.6377 955.97,-15.4967 965.283,-20.5479 966.401,-13.6377"/>
</g>
<!-- Node2&#45;&gt;Node4 -->
<g id="edge3" class="edge"><title>Node2&#45;&gt;Node4</title>
<path fill="none" stroke="midnightblue" d="M1297.9,-59.2211C1361,-49.0196 1491.63,-27.8997 1557.05,-17.3234"/>
<polygon fill="midnightblue" stroke="midnightblue" points="1557.65,-20.771 1566.96,-15.7197 1556.53,-13.8607 1557.65,-20.771"/>
</g>
<!-- Node6 -->
<g id="node6" class="node"><title>Node6</title>
<polygon fill="none" stroke="#bfbfbf" points="29.6573,-56.5 29.6573,-75.5 106.657,-75.5 106.657,-56.5 29.6573,-56.5"/>
<text text-anchor="middle" x="68.1573" y="-63.5" font-family="Helvetica,sans-Serif" font-size="10.00">Parameters.H</text>
</g>
<!-- Node5&#45;&gt;Node6 -->
<g id="edge5" class="edge"><title>Node5&#45;&gt;Node6</title>
<path fill="none" stroke="midnightblue" d="M606.384,-245.462C501.671,-245.858 239.88,-242.446 165.157,-200 118.699,-173.61 88.364,-114.831 75.3804,-85.0454"/>
<polygon fill="midnightblue" stroke="midnightblue" points="78.6072,-83.6894 71.5137,-75.8197 72.1513,-86.3953 78.6072,-83.6894"/>
</g>
<!-- Node5&#45;&gt;Node2 -->
<g id="edge6" class="edge"><title>Node5&#45;&gt;Node2</title>
<path fill="none" stroke="midnightblue" d="M694,-244.385C795.693,-242.389 1044.7,-234.066 1120.16,-200 1178.49,-173.663 1228.27,-113.445 1250.2,-83.9332"/>
<polygon fill="midnightblue" stroke="midnightblue" points="1253.27,-85.6604 1256.31,-75.5124 1247.6,-81.5468 1253.27,-85.6604"/>
</g>
<!-- Node7 -->
<g id="node7" class="node"><title>Node7</title>
<g id="a_node7"><a xlink:href="SolutionData_8hpp.html" target="_top" xlink:title="C++ header file for the SolutionData class. ">
<polygon fill="none" stroke="black" points="286.157,-112.5 286.157,-131.5 378.157,-131.5 378.157,-112.5 286.157,-112.5"/>
<text text-anchor="middle" x="332.157" y="-119.5" font-family="Helvetica,sans-Serif" font-size="10.00">SolutionData.hpp</text>
</a>
</g>
</g>
<!-- Node5&#45;&gt;Node7 -->
<g id="edge7" class="edge"><title>Node5&#45;&gt;Node7</title>
<path fill="none" stroke="midnightblue" d="M606.346,-244.118C494.6,-241.416 205.739,-231.429 177.157,-200 143.593,-163.091 218.763,-141.669 275.745,-131.17"/>
<polygon fill="midnightblue" stroke="midnightblue" points="276.546,-134.583 285.784,-129.397 275.328,-127.69 276.546,-134.583"/>
</g>
<!-- Node16 -->
<g id="node16" class="node"><title>Node16</title>
<g id="a_node16"><a xlink:href="DeviceComponent_8hpp.html" target="_top" xlink:title="C++ header file for the DeviceComponent class. ">
<polygon fill="none" stroke="black" points="186.157,-174.5 186.157,-193.5 302.157,-193.5 302.157,-174.5 186.157,-174.5"/>
<text text-anchor="middle" x="244.157" y="-181.5" font-family="Helvetica,sans-Serif" font-size="10.00">DeviceComponent.hpp</text>
</a>
</g>
</g>
<!-- Node5&#45;&gt;Node16 -->
<g id="edge18" class="edge"><title>Node5&#45;&gt;Node16</title>
<path fill="none" stroke="midnightblue" d="M606.505,-240.128C542.575,-232.764 419.819,-217.758 316.157,-200 308.459,-198.681 300.328,-197.136 292.412,-195.548"/>
<polygon fill="midnightblue" stroke="midnightblue" points="293.047,-192.106 282.548,-193.528 291.642,-198.963 293.047,-192.106"/>
</g>
<!-- Node20 -->
<g id="node20" class="node"><title>Node20</title>
<polygon fill="none" stroke="#bfbfbf" points="358.157,-174.5 358.157,-193.5 458.157,-193.5 458.157,-174.5 358.157,-174.5"/>
<text text-anchor="middle" x="408.157" y="-181.5" font-family="Helvetica,sans-Serif" font-size="10.00">Teuchos_RCP.hpp</text>
</g>
<!-- Node5&#45;&gt;Node20 -->
<g id="edge35" class="edge"><title>Node5&#45;&gt;Node20</title>
<path fill="none" stroke="midnightblue" d="M615.055,-236.455C578.201,-227.463 518.576,-212.858 467.157,-200 462.096,-198.734 456.794,-197.399 451.531,-196.068"/>
<polygon fill="midnightblue" stroke="midnightblue" points="452.086,-192.598 441.532,-193.534 450.366,-199.384 452.086,-192.598"/>
</g>
<!-- Node21 -->
<g id="node21" class="node"><title>Node21</title>
<polygon fill="none" stroke="#bfbfbf" points="476.657,-174.5 476.657,-193.5 525.657,-193.5 525.657,-174.5 476.657,-174.5"/>
<text text-anchor="middle" x="501.157" y="-181.5" font-family="Helvetica,sans-Serif" font-size="10.00">NOX.H</text>
</g>
<!-- Node5&#45;&gt;Node21 -->
<g id="edge36" class="edge"><title>Node5&#45;&gt;Node21</title>
<path fill="none" stroke="midnightblue" d="M627.567,-236.486C604.296,-227.639 567.027,-213.258 535.157,-200 533.326,-199.238 531.443,-198.443 529.549,-197.633"/>
<polygon fill="midnightblue" stroke="midnightblue" points="530.724,-194.327 520.157,-193.553 527.934,-200.747 530.724,-194.327"/>
</g>
<!-- Node22 -->
<g id="node22" class="node"><title>Node22</title>
<polygon fill="none" stroke="#bfbfbf" points="544.157,-169 544.157,-199 660.157,-199 660.157,-169 544.157,-169"/>
<text text-anchor="start" x="552.157" y="-187" font-family="Helvetica,sans-Serif" font-size="10.00">NOX_Epetra_Interface</text>
<text text-anchor="middle" x="602.157" y="-176" font-family="Helvetica,sans-Serif" font-size="10.00">_Required.H</text>
</g>
<!-- Node5&#45;&gt;Node22 -->
<g id="edge37" class="edge"><title>Node5&#45;&gt;Node22</title>
<path fill="none" stroke="midnightblue" d="M643.28,-236.403C637.204,-228.809 628.074,-217.396 619.959,-207.252"/>
<polygon fill="midnightblue" stroke="midnightblue" points="622.45,-204.763 613.47,-199.141 616.984,-209.136 622.45,-204.763"/>
</g>
<!-- Node23 -->
<g id="node23" class="node"><title>Node23</title>
<polygon fill="none" stroke="#bfbfbf" points="678.157,-169 678.157,-199 794.157,-199 794.157,-169 678.157,-169"/>
<text text-anchor="start" x="686.157" y="-187" font-family="Helvetica,sans-Serif" font-size="10.00">NOX_Epetra_Interface</text>
<text text-anchor="middle" x="736.157" y="-176" font-family="Helvetica,sans-Serif" font-size="10.00">_Jacobian.H</text>
</g>
<!-- Node5&#45;&gt;Node23 -->
<g id="edge38" class="edge"><title>Node5&#45;&gt;Node23</title>
<path fill="none" stroke="midnightblue" d="M662.479,-236.403C674.127,-228.277 692.04,-215.779 707.287,-205.142"/>
<polygon fill="midnightblue" stroke="midnightblue" points="709.69,-207.733 715.889,-199.141 705.685,-201.992 709.69,-207.733"/>
</g>
<!-- Node24 -->
<g id="node24" class="node"><title>Node24</title>
<polygon fill="none" stroke="#bfbfbf" points="812.657,-169 812.657,-199 949.657,-199 949.657,-169 812.657,-169"/>
<text text-anchor="start" x="820.657" y="-187" font-family="Helvetica,sans-Serif" font-size="10.00">NOX_Epetra_LinearSystem</text>
<text text-anchor="middle" x="881.157" y="-176" font-family="Helvetica,sans-Serif" font-size="10.00">_AztecOO.H</text>
</g>
<!-- Node5&#45;&gt;Node24 -->
<g id="edge39" class="edge"><title>Node5&#45;&gt;Node24</title>
<path fill="none" stroke="midnightblue" d="M683.254,-236.403C718.091,-227.355 773.797,-212.886 817.245,-201.6"/>
<polygon fill="midnightblue" stroke="midnightblue" points="818.361,-204.927 827.16,-199.025 816.601,-198.152 818.361,-204.927"/>
</g>
<!-- Node25 -->
<g id="node25" class="node"><title>Node25</title>
<polygon fill="none" stroke="#bfbfbf" points="968.157,-174.5 968.157,-193.5 1082.16,-193.5 1082.16,-174.5 968.157,-174.5"/>
<text text-anchor="middle" x="1025.16" y="-181.5" font-family="Helvetica,sans-Serif" font-size="10.00">NOX_Epetra_Group.H</text>
</g>
<!-- Node5&#45;&gt;Node25 -->
<g id="edge40" class="edge"><title>Node5&#45;&gt;Node25</title>
<path fill="none" stroke="midnightblue" d="M693.683,-239.689C753.496,-232.151 864.364,-217.326 958.157,-200 965.009,-198.734 972.225,-197.265 979.281,-195.75"/>
<polygon fill="midnightblue" stroke="midnightblue" points="980.429,-199.082 989.445,-193.517 978.927,-192.245 980.429,-199.082"/>
</g>
<!-- Node5&#45;&gt;Node14 -->
<g id="edge41" class="edge"><title>Node5&#45;&gt;Node14</title>
<path fill="none" stroke="midnightblue" d="M693.894,-245.545C792.105,-245.986 1026.6,-242.428 1091.16,-200 1130.25,-174.307 1142.63,-115.623 1146.47,-85.5355"/>
<polygon fill="midnightblue" stroke="midnightblue" points="1149.96,-85.8541 1147.57,-75.5329 1143,-85.0933 1149.96,-85.8541"/>
</g>
<!-- Node15 -->
<g id="node15" class="node"><title>Node15</title>
<polygon fill="none" stroke="#bfbfbf" points="868.657,-56.5 868.657,-75.5 909.657,-75.5 909.657,-56.5 868.657,-56.5"/>
<text text-anchor="middle" x="889.157" y="-63.5" font-family="Helvetica,sans-Serif" font-size="10.00">string</text>
</g>
<!-- Node5&#45;&gt;Node15 -->
<g id="edge42" class="edge"><title>Node5&#45;&gt;Node15</title>
<path fill="none" stroke="midnightblue" d="M606.392,-245.146C531.067,-244.362 381.836,-237.927 349.157,-200 339.874,-189.226 339.568,-178.503 349.157,-168 408.587,-102.907 658.892,-154.332 744.157,-132 789.038,-120.246 837.526,-95.8841 865.515,-80.5519"/>
<polygon fill="midnightblue" stroke="midnightblue" points="867.484,-83.4616 874.52,-75.5407 864.08,-77.3449 867.484,-83.4616"/>
</g>
<!-- Node7&#45;&gt;Node6 -->
<g id="edge8" class="edge"><title>Node7&#45;&gt;Node6</title>
<path fill="none" stroke="midnightblue" d="M290.326,-112.444C243.126,-102.789 166.464,-87.1082 116.676,-76.9243"/>
<polygon fill="midnightblue" stroke="midnightblue" points="117.286,-73.4766 106.787,-74.9015 115.883,-80.3346 117.286,-73.4766"/>
</g>
<!-- Node7&#45;&gt;Node2 -->
<g id="edge9" class="edge"><title>Node7&#45;&gt;Node2</title>
<path fill="none" stroke="midnightblue" d="M378.318,-113.045C381.305,-112.655 384.27,-112.301 387.157,-112 737.624,-75.4864 827.83,-103.006 1179.16,-76 1191.12,-75.0807 1204.02,-73.8152 1216,-72.5234"/>
<polygon fill="midnightblue" stroke="midnightblue" points="1216.7,-75.9681 1226.25,-71.3895 1215.93,-69.0105 1216.7,-75.9681"/>
</g>
<!-- Node8 -->
<g id="node8" class="node"><title>Node8</title>
<polygon fill="none" stroke="#bfbfbf" points="578.657,-56.5 578.657,-75.5 691.657,-75.5 691.657,-56.5 578.657,-56.5"/>
<text text-anchor="middle" x="635.157" y="-63.5" font-family="Helvetica,sans-Serif" font-size="10.00">Epetra_SerialComm.h</text>
</g>
<!-- Node7&#45;&gt;Node8 -->
<g id="edge10" class="edge"><title>Node7&#45;&gt;Node8</title>
<path fill="none" stroke="midnightblue" d="M378.176,-112.799C431.511,-103.293 519.469,-87.6177 577.364,-77.2998"/>
<polygon fill="midnightblue" stroke="midnightblue" points="578.222,-80.7021 587.453,-75.5018 576.994,-73.8107 578.222,-80.7021"/>
</g>
<!-- Node9 -->
<g id="node9" class="node"><title>Node9</title>
<polygon fill="none" stroke="#bfbfbf" points="709.657,-56.5 709.657,-75.5 786.657,-75.5 786.657,-56.5 709.657,-56.5"/>
<text text-anchor="middle" x="748.157" y="-63.5" font-family="Helvetica,sans-Serif" font-size="10.00">Epetra_Map.h</text>
</g>
<!-- Node7&#45;&gt;Node9 -->
<g id="edge11" class="edge"><title>Node7&#45;&gt;Node9</title>
<path fill="none" stroke="midnightblue" d="M378.347,-113.278C381.326,-112.83 384.282,-112.4 387.157,-112 522.597,-93.1407 559.963,-96.7307 699.219,-76.0384"/>
<polygon fill="midnightblue" stroke="midnightblue" points="700.055,-79.4522 709.425,-74.506 699.016,-72.5299 700.055,-79.4522"/>
</g>
<!-- Node10 -->
<g id="node10" class="node"><title>Node10</title>
<polygon fill="none" stroke="#bfbfbf" points="124.657,-56.5 124.657,-75.5 211.657,-75.5 211.657,-56.5 124.657,-56.5"/>
<text text-anchor="middle" x="168.157" y="-63.5" font-family="Helvetica,sans-Serif" font-size="10.00">Epetra_Vector.h</text>
</g>
<!-- Node7&#45;&gt;Node10 -->
<g id="edge12" class="edge"><title>Node7&#45;&gt;Node10</title>
<path fill="none" stroke="midnightblue" d="M306.171,-112.444C278.461,-103.32 234.405,-88.8133 203.542,-78.6509"/>
<polygon fill="midnightblue" stroke="midnightblue" points="204.615,-75.3196 194.022,-75.5164 202.426,-81.9684 204.615,-75.3196"/>
</g>
<!-- Node11 -->
<g id="node11" class="node"><title>Node11</title>
<polygon fill="none" stroke="#bfbfbf" points="229.657,-56.5 229.657,-75.5 330.657,-75.5 330.657,-56.5 229.657,-56.5"/>
<text text-anchor="middle" x="280.157" y="-63.5" font-family="Helvetica,sans-Serif" font-size="10.00">Epetra_CrsMatrix.h</text>
</g>
<!-- Node7&#45;&gt;Node11 -->
<g id="edge13" class="edge"><title>Node7&#45;&gt;Node11</title>
<path fill="none" stroke="midnightblue" d="M323.571,-112.083C315.998,-104.22 304.779,-92.5688 295.643,-83.0813"/>
<polygon fill="midnightblue" stroke="midnightblue" points="298.042,-80.5266 288.584,-75.7511 293,-85.3821 298.042,-80.5266"/>
</g>
<!-- Node12 -->
<g id="node12" class="node"><title>Node12</title>
<polygon fill="none" stroke="#bfbfbf" points="454.157,-56.5 454.157,-75.5 560.157,-75.5 560.157,-56.5 454.157,-56.5"/>
<text text-anchor="middle" x="507.157" y="-63.5" font-family="Helvetica,sans-Serif" font-size="10.00">Epetra_RowMatrix.h</text>
</g>
<!-- Node7&#45;&gt;Node12 -->
<g id="edge14" class="edge"><title>Node7&#45;&gt;Node12</title>
<path fill="none" stroke="midnightblue" d="M359.887,-112.444C389.583,-103.28 436.874,-88.6876 469.827,-78.5192"/>
<polygon fill="midnightblue" stroke="midnightblue" points="471.034,-81.8094 479.558,-75.5164 468.97,-75.1206 471.034,-81.8094"/>
</g>
<!-- Node13 -->
<g id="node13" class="node"><title>Node13</title>
<polygon fill="none" stroke="#bfbfbf" points="348.657,-56.5 348.657,-75.5 435.657,-75.5 435.657,-56.5 348.657,-56.5"/>
<text text-anchor="middle" x="392.157" y="-63.5" font-family="Helvetica,sans-Serif" font-size="10.00">Epetra_Export.h</text>
</g>
<!-- Node7&#45;&gt;Node13 -->
<g id="edge15" class="edge"><title>Node7&#45;&gt;Node13</title>
<path fill="none" stroke="midnightblue" d="M341.797,-112.324C350.667,-104.341 364.032,-92.3128 374.765,-82.6529"/>
<polygon fill="midnightblue" stroke="midnightblue" points="377.25,-85.1251 382.342,-75.8339 372.568,-79.922 377.25,-85.1251"/>
</g>
<!-- Node7&#45;&gt;Node14 -->
<g id="edge16" class="edge"><title>Node7&#45;&gt;Node14</title>
<path fill="none" stroke="midnightblue" d="M378.323,-113.091C381.308,-112.689 384.272,-112.32 387.157,-112 531.907,-95.9205 990.226,-74.2289 1115.97,-68.4591"/>
<polygon fill="midnightblue" stroke="midnightblue" points="1116.28,-71.949 1126.1,-67.9957 1115.96,-64.9564 1116.28,-71.949"/>
</g>
<!-- Node7&#45;&gt;Node15 -->
<g id="edge17" class="edge"><title>Node7&#45;&gt;Node15</title>
<path fill="none" stroke="midnightblue" d="M378.335,-113.189C381.317,-112.763 384.277,-112.362 387.157,-112 567.773,-89.2859 613.885,-92.675 795.157,-76 816.31,-74.0542 840.131,-71.7725 858.5,-69.9934"/>
<polygon fill="midnightblue" stroke="midnightblue" points="859.009,-73.4605 868.624,-69.0103 858.332,-66.4933 859.009,-73.4605"/>
</g>
<!-- Node16&#45;&gt;Node6 -->
<g id="edge19" class="edge"><title>Node16&#45;&gt;Node6</title>
<path fill="none" stroke="midnightblue" d="M231.216,-174.47C201.211,-154.694 126.644,-105.548 89.6609,-81.1728"/>
<polygon fill="midnightblue" stroke="midnightblue" points="91.3937,-78.1231 81.118,-75.5423 87.5415,-83.9678 91.3937,-78.1231"/>
</g>
<!-- Node16&#45;&gt;Node2 -->
<g id="edge20" class="edge"><title>Node16&#45;&gt;Node2</title>
<path fill="none" stroke="midnightblue" d="M296.649,-174.495C313.389,-172.053 332.016,-169.616 349.157,-168 521.909,-151.712 961.049,-174.988 1129.16,-132 1171.07,-121.282 1215.37,-96.5564 1240.79,-80.8778"/>
<polygon fill="midnightblue" stroke="midnightblue" points="1242.66,-83.8373 1249.27,-75.5535 1238.94,-77.9101 1242.66,-83.8373"/>
</g>
<!-- Node16&#45;&gt;Node7 -->
<g id="edge21" class="edge"><title>Node16&#45;&gt;Node7</title>
<path fill="none" stroke="midnightblue" d="M256.766,-174.403C270.88,-164.78 293.989,-149.024 310.907,-137.489"/>
<polygon fill="midnightblue" stroke="midnightblue" points="313.282,-140.106 319.572,-131.581 309.338,-134.322 313.282,-140.106"/>
</g>
<!-- Node17 -->
<g id="node17" class="node"><title>Node17</title>
<g id="a_node17"><a xlink:href="PhysicsModule_8hpp.html" target="_top" xlink:title="C++ header file for the ElectrodeSolver class. ">
<polygon fill="none" stroke="black" points="1018.16,-112.5 1018.16,-131.5 1120.16,-131.5 1120.16,-112.5 1018.16,-112.5"/>
<text text-anchor="middle" x="1069.16" y="-119.5" font-family="Helvetica,sans-Serif" font-size="10.00">PhysicsModule.hpp</text>
</a>
</g>
</g>
<!-- Node16&#45;&gt;Node17 -->
<g id="edge22" class="edge"><title>Node16&#45;&gt;Node17</title>
<path fill="none" stroke="midnightblue" d="M298.012,-174.468C314.402,-172.098 332.488,-169.709 349.157,-168 476.151,-154.981 857.458,-134.161 1007.52,-126.22"/>
<polygon fill="midnightblue" stroke="midnightblue" points="1008.12,-129.693 1017.92,-125.671 1007.75,-122.703 1008.12,-129.693"/>
</g>
<!-- Node16&#45;&gt;Node8 -->
<g id="edge26" class="edge"><title>Node16&#45;&gt;Node8</title>
<path fill="none" stroke="midnightblue" d="M284.498,-174.469C294.812,-172.322 305.889,-170.047 316.157,-168 400.017,-151.279 424.439,-160.222 505.157,-132 523.173,-125.701 526.139,-120.638 543.157,-112 564.795,-101.017 589.508,-88.9554 607.869,-80.0864"/>
<polygon fill="midnightblue" stroke="midnightblue" points="609.609,-83.1331 617.098,-75.6387 606.57,-76.8272 609.609,-83.1331"/>
</g>
<!-- Node16&#45;&gt;Node9 -->
<g id="edge27" class="edge"><title>Node16&#45;&gt;Node9</title>
<path fill="none" stroke="midnightblue" d="M281.391,-174.463C292.529,-172.12 304.799,-169.748 316.157,-168 474.648,-143.613 528.33,-196.466 675.157,-132 699.804,-121.179 721.935,-98.8116 735.205,-83.3617"/>
<polygon fill="midnightblue" stroke="midnightblue" points="737.943,-85.5421 741.625,-75.6074 732.552,-81.0779 737.943,-85.5421"/>
</g>
<!-- Node16&#45;&gt;Node10 -->
<g id="edge28" class="edge"><title>Node16&#45;&gt;Node10</title>
<path fill="none" stroke="midnightblue" d="M238.445,-174.281C225.895,-155.126 195.729,-109.083 179.292,-83.9944"/>
<polygon fill="midnightblue" stroke="midnightblue" points="182.137,-81.9513 173.729,-75.5048 176.282,-85.7875 182.137,-81.9513"/>
</g>
<!-- Node18 -->
<g id="node18" class="node"><title>Node18</title>
<polygon fill="none" stroke="#bfbfbf" points="396.157,-112.5 396.157,-131.5 496.157,-131.5 496.157,-112.5 396.157,-112.5"/>
<text text-anchor="middle" x="446.157" y="-119.5" font-family="Helvetica,sans-Serif" font-size="10.00">Epetra_FEVector.h</text>
</g>
<!-- Node16&#45;&gt;Node18 -->
<g id="edge29" class="edge"><title>Node16&#45;&gt;Node18</title>
<path fill="none" stroke="midnightblue" d="M273.099,-174.403C308.424,-163.911 368.288,-146.129 407.522,-134.476"/>
<polygon fill="midnightblue" stroke="midnightblue" points="408.68,-137.783 417.269,-131.581 406.687,-131.073 408.68,-137.783"/>
</g>
<!-- Node16&#45;&gt;Node11 -->
<g id="edge30" class="edge"><title>Node16&#45;&gt;Node11</title>
<path fill="none" stroke="midnightblue" d="M242.376,-174.389C239.934,-160.717 236.65,-133.402 244.157,-112 247.942,-101.209 255.524,-91.084 262.757,-83.1808"/>
<polygon fill="midnightblue" stroke="midnightblue" points="265.483,-85.4005 269.995,-75.8145 260.49,-80.4943 265.483,-85.4005"/>
</g>
<!-- Node19 -->
<g id="node19" class="node"><title>Node19</title>
<polygon fill="none" stroke="#bfbfbf" points="552.157,-112.5 552.157,-131.5 666.157,-131.5 666.157,-112.5 552.157,-112.5"/>
<text text-anchor="middle" x="609.157" y="-119.5" font-family="Helvetica,sans-Serif" font-size="10.00">Epetra_FECrsMatrix.h</text>
</g>
<!-- Node16&#45;&gt;Node19 -->
<g id="edge31" class="edge"><title>Node16&#45;&gt;Node19</title>
<path fill="none" stroke="midnightblue" d="M283.32,-174.448C293.952,-172.234 305.477,-169.931 316.157,-168 393.354,-154.041 482.5,-140.751 541.997,-132.282"/>
<polygon fill="midnightblue" stroke="midnightblue" points="542.607,-135.731 552.017,-130.862 541.624,-128.8 542.607,-135.731"/>
</g>
<!-- Node16&#45;&gt;Node13 -->
<g id="edge32" class="edge"><title>Node16&#45;&gt;Node13</title>
<path fill="none" stroke="midnightblue" d="M245.964,-174.337C249.467,-159.588 258.535,-129.5 277.157,-112 294.364,-95.8303 318.049,-85.2447 339.455,-78.4313"/>
<polygon fill="midnightblue" stroke="midnightblue" points="340.513,-81.7682 349.098,-75.5597 338.515,-75.0593 340.513,-81.7682"/>
</g>
<!-- Node16&#45;&gt;Node14 -->
<g id="edge33" class="edge"><title>Node16&#45;&gt;Node14</title>
<path fill="none" stroke="midnightblue" d="M299.943,-174.491C315.824,-172.216 333.154,-169.871 349.157,-168 524.248,-147.528 569.254,-154.014 744.157,-132 882.986,-114.526 1047.34,-85.4636 1115.76,-72.9883"/>
<polygon fill="midnightblue" stroke="midnightblue" points="1116.69,-76.3759 1125.9,-71.1329 1115.43,-69.4903 1116.69,-76.3759"/>
</g>
<!-- Node16&#45;&gt;Node15 -->
<g id="edge34" class="edge"><title>Node16&#45;&gt;Node15</title>
<path fill="none" stroke="midnightblue" d="M281.012,-174.488C292.247,-172.118 304.667,-169.724 316.157,-168 487.425,-142.298 535.527,-171.456 704.157,-132 728.268,-126.359 732.869,-120.414 756.157,-112 791.122,-99.3668 831.632,-85.8143 858.669,-76.9219"/>
<polygon fill="midnightblue" stroke="midnightblue" points="859.92,-80.195 868.332,-73.7536 857.74,-73.5435 859.92,-80.195"/>
</g>
<!-- Node17&#45;&gt;Node2 -->
<g id="edge23" class="edge"><title>Node17&#45;&gt;Node2</title>
<path fill="none" stroke="midnightblue" d="M1099.74,-112.444C1132.77,-103.201 1185.55,-88.4356 1221.92,-78.2572"/>
<polygon fill="midnightblue" stroke="midnightblue" points="1223.03,-81.5815 1231.72,-75.5164 1221.15,-74.8404 1223.03,-81.5815"/>
</g>
<!-- Node17&#45;&gt;Node14 -->
<g id="edge24" class="edge"><title>Node17&#45;&gt;Node14</title>
<path fill="none" stroke="midnightblue" d="M1081.85,-112.324C1094.06,-103.979 1112.74,-91.2122 1127.16,-81.3524"/>
<polygon fill="midnightblue" stroke="midnightblue" points="1129.22,-84.1871 1135.5,-75.6545 1125.27,-78.4082 1129.22,-84.1871"/>
</g>
<!-- Node17&#45;&gt;Node15 -->
<g id="edge25" class="edge"><title>Node17&#45;&gt;Node15</title>
<path fill="none" stroke="midnightblue" d="M1040.64,-112.444C1007.58,-102.525 953.315,-86.2473 919.499,-76.1025"/>
<polygon fill="midnightblue" stroke="midnightblue" points="920.291,-72.686 909.707,-73.1649 918.279,-79.3908 920.291,-72.686"/>
</g>
<!-- Node26&#45;&gt;Node6 -->
<g id="edge44" class="edge"><title>Node26&#45;&gt;Node6</title>
<path fill="none" stroke="midnightblue" d="M1178.13,-363.297C963.125,-364.093 68.1573,-360.584 68.1573,-247 68.1573,-247 68.1573,-247 68.1573,-183 68.1573,-148.716 68.1573,-108.732 68.1573,-85.7902"/>
<polygon fill="midnightblue" stroke="midnightblue" points="71.6574,-85.731 68.1573,-75.731 64.6574,-85.7311 71.6574,-85.731"/>
</g>
<!-- Node26&#45;&gt;Node2 -->
<g id="edge45" class="edge"><title>Node26&#45;&gt;Node2</title>
<path fill="none" stroke="midnightblue" d="M1264.53,-354.444C1288.17,-347.235 1316.39,-334.375 1332.16,-312 1383.35,-239.333 1382.71,-185.798 1333.16,-112 1323.68,-97.8869 1308.13,-87.3003 1293.99,-79.9531"/>
<polygon fill="midnightblue" stroke="midnightblue" points="1295.51,-76.7993 1284.98,-75.5881 1292.46,-83.0987 1295.51,-76.7993"/>
</g>
<!-- Node27 -->
<g id="node27" class="node"><title>Node27</title>
<polygon fill="none" stroke="#bfbfbf" points="821.657,-292.5 821.657,-311.5 962.657,-311.5 962.657,-292.5 821.657,-292.5"/>
<text text-anchor="middle" x="892.157" y="-299.5" font-family="Helvetica,sans-Serif" font-size="10.00">EpetraExt_ModelEvaluator.h</text>
</g>
<!-- Node26&#45;&gt;Node27 -->
<g id="edge46" class="edge"><title>Node26&#45;&gt;Node27</title>
<path fill="none" stroke="midnightblue" d="M1177.99,-354.657C1118.21,-343.853 1014.02,-325.023 949.302,-313.327"/>
<polygon fill="midnightblue" stroke="midnightblue" points="949.731,-309.848 939.268,-311.514 948.486,-316.737 949.731,-309.848"/>
</g>
<!-- Node28 -->
<g id="node28" class="node"><title>Node28</title>
<polygon fill="none" stroke="#bfbfbf" points="980.657,-292.5 980.657,-311.5 1119.66,-311.5 1119.66,-292.5 980.657,-292.5"/>
<text text-anchor="middle" x="1050.16" y="-299.5" font-family="Helvetica,sans-Serif" font-size="10.00">Teuchos_ParameterList.hpp</text>
</g>
<!-- Node26&#45;&gt;Node28 -->
<g id="edge47" class="edge"><title>Node26&#45;&gt;Node28</title>
<path fill="none" stroke="midnightblue" d="M1199.23,-354.403C1169.12,-344.022 1118.33,-326.506 1084.52,-314.849"/>
<polygon fill="midnightblue" stroke="midnightblue" points="1085.64,-311.532 1075.04,-311.581 1083.35,-318.149 1085.64,-311.532"/>
</g>
<!-- Node26&#45;&gt;Node29 -->
<g id="edge48" class="edge"><title>Node26&#45;&gt;Node29</title>
<path fill="none" stroke="midnightblue" d="M1261.99,-354.467C1309.45,-343.76 1390.89,-325.392 1442.54,-313.74"/>
<polygon fill="midnightblue" stroke="midnightblue" points="1443.47,-317.118 1452.46,-311.503 1441.93,-310.29 1443.47,-317.118"/>
</g>
<!-- Node26&#45;&gt;Node30 -->
<g id="edge49" class="edge"><title>Node26&#45;&gt;Node30</title>
<path fill="none" stroke="midnightblue" d="M1233.9,-354.403C1244.5,-345.047 1261.68,-329.895 1274.64,-318.46"/>
<polygon fill="midnightblue" stroke="midnightblue" points="1277.25,-320.821 1282.43,-311.581 1272.62,-315.572 1277.25,-320.821"/>
</g>
<!-- Node26&#45;&gt;Node14 -->
<g id="edge54" class="edge"><title>Node26&#45;&gt;Node14</title>
<path fill="none" stroke="midnightblue" d="M1221.96,-354.461C1211.61,-314.116 1167.46,-142.196 1152.87,-85.3385"/>
<polygon fill="midnightblue" stroke="midnightblue" points="1156.24,-84.3895 1150.36,-75.5741 1149.46,-86.1304 1156.24,-84.3895"/>
</g>
<!-- Node26&#45;&gt;Node15 -->
<g id="edge55" class="edge"><title>Node26&#45;&gt;Node15</title>
<path fill="none" stroke="midnightblue" d="M1220.85,-354.431C1208.67,-323.993 1163.2,-220.124 1091.16,-168 1044.32,-134.112 1017.15,-159.247 966.157,-132 942.203,-119.2 918.984,-98.0195 904.418,-83.3307"/>
<polygon fill="midnightblue" stroke="midnightblue" points="906.733,-80.6899 897.267,-75.9326 901.7,-85.5551 906.733,-80.6899"/>
</g>
<!-- Node30&#45;&gt;Node2 -->
<g id="edge50" class="edge"><title>Node30&#45;&gt;Node2</title>
<path fill="none" stroke="midnightblue" d="M1297.8,-292.481C1303.21,-283.745 1311.02,-269.556 1314.16,-256 1328.58,-193.647 1340.76,-170.208 1314.16,-112 1308.38,-99.3602 1297.11,-88.911 1286.53,-81.2737"/>
<polygon fill="midnightblue" stroke="midnightblue" points="1288.2,-78.1817 1277.94,-75.5333 1284.31,-84.0009 1288.2,-78.1817"/>
</g>
<!-- Node30&#45;&gt;Node5 -->
<g id="edge51" class="edge"><title>Node30&#45;&gt;Node5</title>
<path fill="none" stroke="midnightblue" d="M1260.32,-298.322C1157.47,-289.671 833.333,-262.407 704.108,-251.538"/>
<polygon fill="midnightblue" stroke="midnightblue" points="704.305,-248.042 694.047,-250.692 703.718,-255.018 704.305,-248.042"/>
</g>
<!-- Node30&#45;&gt;Node14 -->
<g id="edge52" class="edge"><title>Node30&#45;&gt;Node14</title>
<path fill="none" stroke="midnightblue" d="M1290.79,-292.361C1288.62,-279.69 1283.83,-255.462 1276.16,-236 1252.45,-175.864 1243.11,-160.304 1200.16,-112 1190.36,-100.987 1177.93,-90.1323 1167.67,-81.8435"/>
<polygon fill="midnightblue" stroke="midnightblue" points="1169.69,-78.9817 1159.67,-75.5374 1165.36,-84.4781 1169.69,-78.9817"/>
</g>
<!-- Node30&#45;&gt;Node15 -->
<g id="edge53" class="edge"><title>Node30&#45;&gt;Node15</title>
<path fill="none" stroke="midnightblue" d="M1286.33,-292.208C1269.91,-268.182 1220.64,-201.017 1162.16,-168 1101.33,-133.657 1074.44,-156.854 1009.16,-132 989.976,-124.698 941.797,-97.5091 912.654,-80.6951"/>
<polygon fill="midnightblue" stroke="midnightblue" points="914.329,-77.6209 903.922,-75.6389 910.822,-83.6787 914.329,-77.6209"/>
</g>
</g>
</svg>
