<?xml version="1.0" encoding="UTF-8" standalone="no"?>
<!DOCTYPE svg PUBLIC "-//W3C//DTD SVG 1.1//EN"
 "http://www.w3.org/Graphics/SVG/1.1/DTD/svg11.dtd">
<!-- Generated by graphviz version 2.30.1 (20150305.2338)
 -->
<!-- Title: Graphical Class Hierarchy Pages: 1 -->
<svg width="386pt" height="522pt"
 viewBox="0.00 0.00 386.00 522.00" xmlns="http://www.w3.org/2000/svg" xmlns:xlink="http://www.w3.org/1999/xlink">
<g id="graph0" class="graph" transform="scale(1 1) rotate(0) translate(4 518)">
<title>Graphical Class Hierarchy</title>
<!-- Node1 -->
<g id="node1" class="node"><title>Node1</title>
<polygon fill="none" stroke="#bfbfbf" points="9,-266.5 9,-285.5 75,-285.5 75,-266.5 9,-266.5"/>
<text text-anchor="middle" x="42" y="-273.5" font-family="Helvetica,sans-Serif" font-size="10.00">GlobalType</text>
</g>
<!-- Node2 -->
<g id="node2" class="node"><title>Node2</title>
<g id="a_node2"><a xlink:href="classICED_1_1HalfCell_1_1DeviceComponent.html" target="_top" xlink:title="Class that provides the component level interface between the electro&#45;chemical device solver and the ...">
<polygon fill="none" stroke="black" points="120,-323.5 120,-342.5 218,-342.5 218,-323.5 120,-323.5"/>
<text text-anchor="middle" x="169" y="-330.5" font-family="Helvetica,sans-Serif" font-size="10.00">DeviceComponent</text>
</a>
</g>
</g>
<!-- Node1&#45;&gt;Node2 -->
<g id="edge1" class="edge"><title>Node1&#45;&gt;Node2</title>
<path fill="none" stroke="midnightblue" d="M70.4601,-290.23C85.0418,-297.613 103.346,-306.609 120,-314 127.209,-317.199 135.134,-320.444 142.43,-323.325"/>
<polygon fill="midnightblue" stroke="midnightblue" points="71.9684,-287.07 61.47,-285.644 68.7875,-293.306 71.9684,-287.07"/>
</g>
<!-- Node3 -->
<g id="node3" class="node"><title>Node3</title>
<g id="a_node3"><a xlink:href="classICED_1_1HalfCell_1_1DeviceData.html" target="_top" xlink:title="Class to hold the solution data for the electro&#45;chemical device solver and interface to the Trilinos ...">
<polygon fill="none" stroke="black" points="135,-285.5 135,-304.5 203,-304.5 203,-285.5 135,-285.5"/>
<text text-anchor="middle" x="169" y="-292.5" font-family="Helvetica,sans-Serif" font-size="10.00">DeviceData</text>
</a>
</g>
</g>
<!-- Node1&#45;&gt;Node3 -->
<g id="edge2" class="edge"><title>Node1&#45;&gt;Node3</title>
<path fill="none" stroke="midnightblue" d="M85.4053,-282.446C101.461,-284.886 119.498,-287.628 134.61,-289.925"/>
<polygon fill="midnightblue" stroke="midnightblue" points="85.603,-278.936 75.1906,-280.893 84.5511,-285.856 85.603,-278.936"/>
</g>
<!-- Node4 -->
<g id="node4" class="node"><title>Node4</title>
<g id="a_node4"><a xlink:href="classICED_1_1HalfCell_1_1DeviceModel.html" target="_top" xlink:title="Class to hold the application interface for the electro&#45;chemical device solver. ">
<polygon fill="none" stroke="black" points="132,-361.5 132,-380.5 206,-380.5 206,-361.5 132,-361.5"/>
<text text-anchor="middle" x="169" y="-368.5" font-family="Helvetica,sans-Serif" font-size="10.00">DeviceModel</text>
</a>
</g>
</g>
<!-- Node1&#45;&gt;Node4 -->
<g id="edge3" class="edge"><title>Node1&#45;&gt;Node4</title>
<path fill="none" stroke="midnightblue" d="M57.1779,-293.633C71.521,-310.514 95.0805,-335.749 120,-352 125.63,-355.672 132.082,-358.823 138.389,-361.443"/>
<polygon fill="midnightblue" stroke="midnightblue" points="59.6391,-291.118 50.5591,-285.659 54.2528,-295.589 59.6391,-291.118"/>
</g>
<!-- Node5 -->
<g id="node5" class="node"><title>Node5</title>
<g id="a_node5"><a xlink:href="classICED_1_1HalfCell_1_1PhysicsModule.html" target="_top" xlink:title="Virtual class for physics modules. ">
<polygon fill="none" stroke="black" points="127.5,-247.5 127.5,-266.5 210.5,-266.5 210.5,-247.5 127.5,-247.5"/>
<text text-anchor="middle" x="169" y="-254.5" font-family="Helvetica,sans-Serif" font-size="10.00">PhysicsModule</text>
</a>
</g>
</g>
<!-- Node1&#45;&gt;Node5 -->
<g id="edge4" class="edge"><title>Node1&#45;&gt;Node5</title>
<path fill="none" stroke="midnightblue" d="M85.267,-269.575C98.8741,-267.507 113.915,-265.221 127.4,-263.171"/>
<polygon fill="midnightblue" stroke="midnightblue" points="84.5511,-266.144 75.1906,-271.107 85.603,-273.064 84.5511,-266.144"/>
</g>
<!-- Node19 -->
<g id="node19" class="node"><title>Node19</title>
<g id="a_node19"><a xlink:href="classICED_1_1HalfCell_1_1SolutionData.html" target="_top" xlink:title="Class to hold the solution data for the electro&#45;chemical device solver. ">
<polygon fill="none" stroke="black" points="132.5,-209.5 132.5,-228.5 205.5,-228.5 205.5,-209.5 132.5,-209.5"/>
<text text-anchor="middle" x="169" y="-216.5" font-family="Helvetica,sans-Serif" font-size="10.00">SolutionData</text>
</a>
</g>
</g>
<!-- Node1&#45;&gt;Node19 -->
<g id="edge18" class="edge"><title>Node1&#45;&gt;Node19</title>
<path fill="none" stroke="midnightblue" d="M70.4601,-261.77C85.0418,-254.387 103.346,-245.391 120,-238 127.209,-234.801 135.134,-231.556 142.43,-228.675"/>
<polygon fill="midnightblue" stroke="midnightblue" points="68.7875,-258.694 61.47,-266.356 71.9684,-264.93 68.7875,-258.694"/>
</g>
<!-- Node20 -->
<g id="node20" class="node"><title>Node20</title>
<g id="a_node20"><a xlink:href="classICED_1_1HalfCell_1_1SolverInterface.html" target="_top" xlink:title="Class to hold the interface to the Trilinos NOX Solver. ">
<polygon fill="none" stroke="black" points="127.5,-76.5 127.5,-95.5 210.5,-95.5 210.5,-76.5 127.5,-76.5"/>
<text text-anchor="middle" x="169" y="-83.5" font-family="Helvetica,sans-Serif" font-size="10.00">SolverInterface</text>
</a>
</g>
</g>
<!-- Node1&#45;&gt;Node20 -->
<g id="edge19" class="edge"><title>Node1&#45;&gt;Node20</title>
<path fill="none" stroke="midnightblue" d="M54.8839,-257.937C80.7637,-218.599 141.5,-126.281 161.492,-95.8917"/>
<polygon fill="midnightblue" stroke="midnightblue" points="51.9429,-256.039 49.3706,-266.317 57.7908,-259.886 51.9429,-256.039"/>
</g>
<!-- Node6 -->
<g id="node6" class="node"><title>Node6</title>
<g id="a_node6"><a xlink:href="classICED_1_1HalfCell_1_1ActivityCoefficient.html" target="_top" xlink:title="Physics module for activity coefficient of species i . ">
<polygon fill="none" stroke="black" points="267.5,-494.5 267.5,-513.5 364.5,-513.5 364.5,-494.5 267.5,-494.5"/>
<text text-anchor="middle" x="316" y="-501.5" font-family="Helvetica,sans-Serif" font-size="10.00">ActivityCoefficient</text>
</a>
</g>
</g>
<!-- Node5&#45;&gt;Node6 -->
<g id="edge5" class="edge"><title>Node5&#45;&gt;Node6</title>
<path fill="none" stroke="midnightblue" d="M214.783,-272.576C215.933,-273.643 217.011,-274.783 218,-276 277.431,-349.159 191.869,-414.119 254,-485 257.729,-489.254 262.393,-492.567 267.472,-495.145"/>
<polygon fill="midnightblue" stroke="midnightblue" points="216.493,-269.497 206.32,-266.537 212.427,-275.195 216.493,-269.497"/>
</g>
<!-- Node7 -->
<g id="node7" class="node"><title>Node7</title>
<g id="a_node7"><a xlink:href="classICED_1_1HalfCell_1_1ButlerVolmer.html" target="_top" xlink:title="Physics module for Butler&#45;Volmer part of the system. ">
<polygon fill="none" stroke="black" points="279.5,-456.5 279.5,-475.5 352.5,-475.5 352.5,-456.5 279.5,-456.5"/>
<text text-anchor="middle" x="316" y="-463.5" font-family="Helvetica,sans-Serif" font-size="10.00">ButlerVolmer</text>
</a>
</g>
</g>
<!-- Node5&#45;&gt;Node7 -->
<g id="edge6" class="edge"><title>Node5&#45;&gt;Node7</title>
<path fill="none" stroke="midnightblue" d="M214.725,-272.624C215.891,-273.677 216.989,-274.801 218,-276 268.075,-335.368 201.736,-389.55 254,-447 260.643,-454.302 270.04,-458.824 279.473,-461.615"/>
<polygon fill="midnightblue" stroke="midnightblue" points="216.388,-269.516 206.189,-266.645 212.372,-275.249 216.388,-269.516"/>
</g>
<!-- Node8 -->
<g id="node8" class="node"><title>Node8</title>
<g id="a_node8"><a xlink:href="classICED_1_1HalfCell_1_1ConcentrationDiffusion.html" target="_top" xlink:title="Physics module for ConcentrationDiffusion of species i. ">
<polygon fill="none" stroke="black" points="258,-418.5 258,-437.5 374,-437.5 374,-418.5 258,-418.5"/>
<text text-anchor="middle" x="316" y="-425.5" font-family="Helvetica,sans-Serif" font-size="10.00">ConcentrationDiffusion</text>
</a>
</g>
</g>
<!-- Node5&#45;&gt;Node8 -->
<g id="edge7" class="edge"><title>Node5&#45;&gt;Node8</title>
<path fill="none" stroke="midnightblue" d="M214.135,-272.273C215.513,-273.427 216.81,-274.667 218,-276 258.798,-321.669 211.52,-364.891 254,-409 257.693,-412.835 262.146,-415.9 266.944,-418.348"/>
<polygon fill="midnightblue" stroke="midnightblue" points="215.78,-269.164 205.51,-266.559 211.914,-275 215.78,-269.164"/>
</g>
<!-- Node9 -->
<g id="node9" class="node"><title>Node9</title>
<g id="a_node9"><a xlink:href="classICED_1_1HalfCell_1_1Diffusion.html" target="_top" xlink:title="Physics module that handles non&#45;linear diffusion. ">
<polygon fill="none" stroke="black" points="288,-380.5 288,-399.5 344,-399.5 344,-380.5 288,-380.5"/>
<text text-anchor="middle" x="316" y="-387.5" font-family="Helvetica,sans-Serif" font-size="10.00">Diffusion</text>
</a>
</g>
</g>
<!-- Node5&#45;&gt;Node9 -->
<g id="edge8" class="edge"><title>Node5&#45;&gt;Node9</title>
<path fill="none" stroke="midnightblue" d="M213.42,-272.001C215.047,-273.233 216.585,-274.564 218,-276 249.692,-308.161 221.125,-340.049 254,-371 263.126,-379.592 276.081,-384.301 287.706,-386.88"/>
<polygon fill="midnightblue" stroke="midnightblue" points="215.038,-268.887 204.688,-266.622 211.367,-274.847 215.038,-268.887"/>
</g>
<!-- Node10 -->
<g id="node10" class="node"><title>Node10</title>
<g id="a_node10"><a xlink:href="classICED_1_1HalfCell_1_1electronMigration.html" target="_top" xlink:title="Physics module for electron migration. ">
<polygon fill="none" stroke="black" points="270.5,-342.5 270.5,-361.5 361.5,-361.5 361.5,-342.5 270.5,-342.5"/>
<text text-anchor="middle" x="316" y="-349.5" font-family="Helvetica,sans-Serif" font-size="10.00">electronMigration</text>
</a>
</g>
</g>
<!-- Node5&#45;&gt;Node10 -->
<g id="edge9" class="edge"><title>Node5&#45;&gt;Node10</title>
<path fill="none" stroke="midnightblue" d="M211.499,-271.366C213.789,-272.781 215.978,-274.323 218,-276 241.067,-295.123 230.233,-314.755 254,-333 259.015,-336.85 264.821,-339.927 270.817,-342.386"/>
<polygon fill="midnightblue" stroke="midnightblue" points="212.776,-268.082 202.298,-266.51 209.509,-274.273 212.776,-268.082"/>
</g>
<!-- Node11 -->
<g id="node11" class="node"><title>Node11</title>
<g id="a_node11"><a xlink:href="classICED_1_1HalfCell_1_1Intercalation.html" target="_top" xlink:title="The Intercalation function is a module that solves the time&#45;dependent, second&#45;order diffusion equatio...">
<polygon fill="none" stroke="black" points="281,-304.5 281,-323.5 351,-323.5 351,-304.5 281,-304.5"/>
<text text-anchor="middle" x="316" y="-311.5" font-family="Helvetica,sans-Serif" font-size="10.00">Intercalation</text>
</a>
</g>
</g>
<!-- Node5&#45;&gt;Node11 -->
<g id="edge10" class="edge"><title>Node5&#45;&gt;Node11</title>
<path fill="none" stroke="midnightblue" d="M205.088,-270.376C209.466,-272.195 213.858,-274.094 218,-276 234.435,-283.563 237.293,-288.058 254,-295 262.502,-298.532 271.903,-301.772 280.726,-304.536"/>
<polygon fill="midnightblue" stroke="midnightblue" points="206.21,-267.054 195.627,-266.549 203.585,-273.543 206.21,-267.054"/>
</g>
<!-- Node12 -->
<g id="node12" class="node"><title>Node12</title>
<g id="a_node12"><a xlink:href="classICED_1_1HalfCell_1_1ionMigration.html" target="_top" xlink:title="Physics module for ion migration. ">
<polygon fill="none" stroke="black" points="281.5,-266.5 281.5,-285.5 350.5,-285.5 350.5,-266.5 281.5,-266.5"/>
<text text-anchor="middle" x="316" y="-273.5" font-family="Helvetica,sans-Serif" font-size="10.00">ionMigration</text>
</a>
</g>
</g>
<!-- Node5&#45;&gt;Node12 -->
<g id="edge11" class="edge"><title>Node5&#45;&gt;Node12</title>
<path fill="none" stroke="midnightblue" d="M220.716,-263.646C240.808,-266.278 263.361,-269.234 281.371,-271.593"/>
<polygon fill="midnightblue" stroke="midnightblue" points="221.146,-260.172 210.776,-262.343 220.237,-267.113 221.146,-260.172"/>
</g>
<!-- Node13 -->
<g id="node13" class="node"><title>Node13</title>
<g id="a_node13"><a xlink:href="classICED_1_1HalfCell_1_1IonMigration.html" target="_top" xlink:title="Physics module for ion migration. ">
<polygon fill="none" stroke="black" points="281,-228.5 281,-247.5 351,-247.5 351,-228.5 281,-228.5"/>
<text text-anchor="middle" x="316" y="-235.5" font-family="Helvetica,sans-Serif" font-size="10.00">IonMigration</text>
</a>
</g>
</g>
<!-- Node5&#45;&gt;Node13 -->
<g id="edge12" class="edge"><title>Node5&#45;&gt;Node13</title>
<path fill="none" stroke="midnightblue" d="M220.912,-250.329C240.779,-247.726 263.024,-244.811 280.895,-242.469"/>
<polygon fill="midnightblue" stroke="midnightblue" points="220.237,-246.887 210.776,-251.657 221.146,-253.828 220.237,-246.887"/>
</g>
<!-- Node14 -->
<g id="node14" class="node"><title>Node14</title>
<g id="a_node14"><a xlink:href="classICED_1_1HalfCell_1_1OhmsLawElectrolyte.html" target="_top" xlink:title="Physics module for Ohms Law equation for the electrolyte. ">
<polygon fill="none" stroke="black" points="262.5,-190.5 262.5,-209.5 369.5,-209.5 369.5,-190.5 262.5,-190.5"/>
<text text-anchor="middle" x="316" y="-197.5" font-family="Helvetica,sans-Serif" font-size="10.00">OhmsLawElectrolyte</text>
</a>
</g>
</g>
<!-- Node5&#45;&gt;Node14 -->
<g id="edge13" class="edge"><title>Node5&#45;&gt;Node14</title>
<path fill="none" stroke="midnightblue" d="M205.088,-243.624C209.466,-241.805 213.858,-239.906 218,-238 234.435,-230.437 237.293,-225.942 254,-219 262.399,-215.51 271.677,-212.307 280.407,-209.564"/>
<polygon fill="midnightblue" stroke="midnightblue" points="203.585,-240.457 195.627,-247.451 206.21,-246.946 203.585,-240.457"/>
</g>
<!-- Node15 -->
<g id="node15" class="node"><title>Node15</title>
<g id="a_node15"><a xlink:href="classICED_1_1HalfCell_1_1OhmsLawSolid.html" target="_top" xlink:title="Physics module for Ohms Law in the solid phase. ">
<polygon fill="none" stroke="black" points="274.5,-152.5 274.5,-171.5 357.5,-171.5 357.5,-152.5 274.5,-152.5"/>
<text text-anchor="middle" x="316" y="-159.5" font-family="Helvetica,sans-Serif" font-size="10.00">OhmsLawSolid</text>
</a>
</g>
</g>
<!-- Node5&#45;&gt;Node15 -->
<g id="edge14" class="edge"><title>Node5&#45;&gt;Node15</title>
<path fill="none" stroke="midnightblue" d="M211.499,-242.634C213.789,-241.219 215.978,-239.677 218,-238 241.067,-218.877 230.233,-199.245 254,-181 259.983,-176.407 267.091,-172.914 274.305,-170.259"/>
<polygon fill="midnightblue" stroke="midnightblue" points="209.509,-239.727 202.298,-247.49 212.776,-245.918 209.509,-239.727"/>
</g>
<!-- Node16 -->
<g id="node16" class="node"><title>Node16</title>
<g id="a_node16"><a xlink:href="classICED_1_1HalfCell_1_1testModule.html" target="_top" xlink:title="Physics module for testing. ">
<polygon fill="none" stroke="black" points="283.5,-114.5 283.5,-133.5 348.5,-133.5 348.5,-114.5 283.5,-114.5"/>
<text text-anchor="middle" x="316" y="-121.5" font-family="Helvetica,sans-Serif" font-size="10.00">testModule</text>
</a>
</g>
</g>
<!-- Node5&#45;&gt;Node16 -->
<g id="edge15" class="edge"><title>Node5&#45;&gt;Node16</title>
<path fill="none" stroke="midnightblue" d="M213.42,-241.999C215.047,-240.767 216.585,-239.436 218,-238 249.692,-205.839 221.125,-173.951 254,-143 261.995,-135.473 272.929,-130.926 283.334,-128.18"/>
<polygon fill="midnightblue" stroke="midnightblue" points="211.367,-239.153 204.688,-247.378 215.038,-245.113 211.367,-239.153"/>
</g>
<!-- Node17 -->
<g id="node17" class="node"><title>Node17</title>
<g id="a_node17"><a xlink:href="classICED_1_1HalfCell_1_1TransferenceNumber.html" target="_top" xlink:title="Physics module for transference number of species i. ">
<polygon fill="none" stroke="black" points="262,-76.5 262,-95.5 370,-95.5 370,-76.5 262,-76.5"/>
<text text-anchor="middle" x="316" y="-83.5" font-family="Helvetica,sans-Serif" font-size="10.00">TransferenceNumber</text>
</a>
</g>
</g>
<!-- Node5&#45;&gt;Node17 -->
<g id="edge16" class="edge"><title>Node5&#45;&gt;Node17</title>
<path fill="none" stroke="midnightblue" d="M214.135,-241.727C215.513,-240.573 216.81,-239.333 218,-238 258.798,-192.331 211.52,-149.109 254,-105 257.693,-101.165 262.146,-98.1003 266.944,-95.6517"/>
<polygon fill="midnightblue" stroke="midnightblue" points="211.914,-239 205.51,-247.441 215.78,-244.836 211.914,-239"/>
</g>
<!-- Node18 -->
<g id="node18" class="node"><title>Node18</title>
<g id="a_node18"><a xlink:href="classICED_1_1HalfCell_1_1WallFlux.html" target="_top" xlink:title="Physics module for Wall Flux. ">
<polygon fill="none" stroke="black" points="288.5,-38.5 288.5,-57.5 343.5,-57.5 343.5,-38.5 288.5,-38.5"/>
<text text-anchor="middle" x="316" y="-45.5" font-family="Helvetica,sans-Serif" font-size="10.00">WallFlux</text>
</a>
</g>
</g>
<!-- Node5&#45;&gt;Node18 -->
<g id="edge17" class="edge"><title>Node5&#45;&gt;Node18</title>
<path fill="none" stroke="midnightblue" d="M214.725,-241.376C215.891,-240.323 216.989,-239.199 218,-238 268.075,-178.632 201.736,-124.45 254,-67 262.733,-57.4003 276.225,-52.6067 288.302,-50.2312"/>
<polygon fill="midnightblue" stroke="midnightblue" points="212.372,-238.751 206.189,-247.355 216.388,-244.484 212.372,-238.751"/>
</g>
<!-- Node21 -->
<g id="node21" class="node"><title>Node21</title>
<g id="a_node21"><a xlink:href="classICED_1_1HalfCell_1_1TransientSolverInterface.html" target="_top" xlink:title="Class to hold the interface to the Transient Solver. ">
<polygon fill="none" stroke="black" points="254.5,-0.5 254.5,-19.5 377.5,-19.5 377.5,-0.5 254.5,-0.5"/>
<text text-anchor="middle" x="316" y="-7.5" font-family="Helvetica,sans-Serif" font-size="10.00">TransientSolverInterface</text>
</a>
</g>
</g>
<!-- Node20&#45;&gt;Node21 -->
<g id="edge20" class="edge"><title>Node20&#45;&gt;Node21</title>
<path fill="none" stroke="midnightblue" d="M190.087,-69.868C206.491,-57.3284 230.691,-40.2328 254,-29 261.594,-25.3403 270.056,-22.1789 278.2,-19.5426"/>
<polygon fill="midnightblue" stroke="midnightblue" points="187.569,-67.3929 181.831,-76.2996 191.871,-72.9151 187.569,-67.3929"/>
</g>
<!-- Node22 -->
<g id="node22" class="node"><title>Node22</title>
<polygon fill="none" stroke="#bfbfbf" points="14,-95.5 14,-114.5 70,-114.5 70,-95.5 14,-95.5"/>
<text text-anchor="middle" x="42" y="-102.5" font-family="Helvetica,sans-Serif" font-size="10.00">Jacobian</text>
</g>
<!-- Node22&#45;&gt;Node20 -->
<g id="edge21" class="edge"><title>Node22&#45;&gt;Node20</title>
<path fill="none" stroke="midnightblue" d="M80.3969,-99.3157C95.1292,-97.0764 112.093,-94.4978 127.146,-92.2098"/>
<polygon fill="midnightblue" stroke="midnightblue" points="79.4836,-95.9142 70.1231,-100.877 80.5356,-102.835 79.4836,-95.9142"/>
</g>
<!-- Node23 -->
<g id="node23" class="node"><title>Node23</title>
<polygon fill="none" stroke="#bfbfbf" points="0,-361.5 0,-380.5 84,-380.5 84,-361.5 0,-361.5"/>
<text text-anchor="middle" x="42" y="-368.5" font-family="Helvetica,sans-Serif" font-size="10.00">ModelEvaluator</text>
</g>
<!-- Node23&#45;&gt;Node4 -->
<g id="edge22" class="edge"><title>Node23&#45;&gt;Node4</title>
<path fill="none" stroke="midnightblue" d="M94.5892,-371C107.089,-371 120.19,-371 131.808,-371"/>
<polygon fill="midnightblue" stroke="midnightblue" points="94.2761,-367.5 84.2761,-371 94.2761,-374.5 94.2761,-367.5"/>
</g>
<!-- Node24 -->
<g id="node24" class="node"><title>Node24</title>
<polygon fill="none" stroke="#bfbfbf" points="14,-57.5 14,-76.5 70,-76.5 70,-57.5 14,-57.5"/>
<text text-anchor="middle" x="42" y="-64.5" font-family="Helvetica,sans-Serif" font-size="10.00">Required</text>
</g>
<!-- Node24&#45;&gt;Node20 -->
<g id="edge23" class="edge"><title>Node24&#45;&gt;Node20</title>
<path fill="none" stroke="midnightblue" d="M80.3969,-72.6843C95.1292,-74.9236 112.093,-77.5022 127.146,-79.7902"/>
<polygon fill="midnightblue" stroke="midnightblue" points="80.5356,-69.1653 70.1231,-71.1227 79.4836,-76.0858 80.5356,-69.1653"/>
</g>
</g>
</svg>
