<?xml version="1.0" encoding="UTF-8" standalone="no"?>
<!DOCTYPE svg PUBLIC "-//W3C//DTD SVG 1.1//EN"
 "http://www.w3.org/Graphics/SVG/1.1/DTD/svg11.dtd">
<!-- Generated by graphviz version 2.30.1 (20150305.2338)
 -->
<!-- Title: Graphical Class Hierarchy Pages: 1 -->
<svg width="222pt" height="66pt"
 viewBox="0.00 0.00 222.00 66.00" xmlns="http://www.w3.org/2000/svg" xmlns:xlink="http://www.w3.org/1999/xlink">
<g id="graph0" class="graph" transform="scale(1 1) rotate(0) translate(4 62)">
<title>Graphical Class Hierarchy</title>
<!-- Node1 -->
<g id="node1" class="node"><title>Node1</title>
<polygon fill="none" stroke="#bfbfbf" points="0,-19.5 0,-38.5 100,-38.5 100,-19.5 0,-19.5"/>
<text text-anchor="middle" x="50" y="-26.5" font-family="Helvetica,sans-Serif" font-size="10.00">SerialProgramType</text>
</g>
<!-- Node2 -->
<g id="node2" class="node"><title>Node2</title>
<g id="a_node2"><a xlink:href="classICED_1_1ExampleProgram_1_1SerialProgram.html" target="_top" xlink:title="Implementation of the basic parts of the serial program example. ">
<polygon fill="none" stroke="black" points="136,-38.5 136,-57.5 214,-57.5 214,-38.5 136,-38.5"/>
<text text-anchor="middle" x="175" y="-45.5" font-family="Helvetica,sans-Serif" font-size="10.00">SerialProgram</text>
</a>
</g>
</g>
<!-- Node1&#45;&gt;Node2 -->
<g id="edge1" class="edge"><title>Node1&#45;&gt;Node2</title>
<path fill="none" stroke="midnightblue" d="M110.352,-38.1681C118.953,-39.4969 127.611,-40.8343 135.651,-42.0762"/>
<polygon fill="midnightblue" stroke="midnightblue" points="110.737,-34.6863 100.32,-36.6185 109.669,-41.6042 110.737,-34.6863"/>
</g>
<!-- Node3 -->
<g id="node3" class="node"><title>Node3</title>
<g id="a_node3"><a xlink:href="classICED_1_1HalfCell_1_1SerialProgram.html" target="_top" xlink:title="Implementation of the batterySim program. ">
<polygon fill="none" stroke="black" points="136,-0.5 136,-19.5 214,-19.5 214,-0.5 136,-0.5"/>
<text text-anchor="middle" x="175" y="-7.5" font-family="Helvetica,sans-Serif" font-size="10.00">SerialProgram</text>
</a>
</g>
</g>
<!-- Node1&#45;&gt;Node3 -->
<g id="edge2" class="edge"><title>Node1&#45;&gt;Node3</title>
<path fill="none" stroke="midnightblue" d="M110.352,-19.8319C118.953,-18.5031 127.611,-17.1657 135.651,-15.9238"/>
<polygon fill="midnightblue" stroke="midnightblue" points="109.669,-16.3958 100.32,-21.3815 110.737,-23.3137 109.669,-16.3958"/>
</g>
</g>
</svg>
