<?xml version="1.0" encoding="UTF-8" standalone="no"?>
<!DOCTYPE svg PUBLIC "-//W3C//DTD SVG 1.1//EN"
 "http://www.w3.org/Graphics/SVG/1.1/DTD/svg11.dtd">
<!-- Generated by graphviz version 2.30.1 (20150305.2338)
 -->
<!-- Title: Graphical Class Hierarchy Pages: 1 -->
<svg width="260pt" height="104pt"
 viewBox="0.00 0.00 260.00 104.00" xmlns="http://www.w3.org/2000/svg" xmlns:xlink="http://www.w3.org/1999/xlink">
<g id="graph0" class="graph" transform="scale(1 1) rotate(0) translate(4 100)">
<title>Graphical Class Hierarchy</title>
<!-- Node1 -->
<g id="node1" class="node"><title>Node1</title>
<polygon fill="none" stroke="#bfbfbf" points="0,-38.5 0,-57.5 84,-57.5 84,-38.5 0,-38.5"/>
<text text-anchor="middle" x="42" y="-45.5" font-family="Helvetica,sans-Serif" font-size="10.00">ComLineObject</text>
</g>
<!-- Node2 -->
<g id="node2" class="node"><title>Node2</title>
<g id="a_node2"><a xlink:href="classICED_1_1ExampleProgram_1_1ExampleProgramComLine.html" target="_top" xlink:title="The ComLineObject for the example programs. ">
<polygon fill="none" stroke="black" points="120.5,-76.5 120.5,-95.5 251.5,-95.5 251.5,-76.5 120.5,-76.5"/>
<text text-anchor="middle" x="186" y="-83.5" font-family="Helvetica,sans-Serif" font-size="10.00">ExampleProgramComLine</text>
</a>
</g>
</g>
<!-- Node1&#45;&gt;Node2 -->
<g id="edge1" class="edge"><title>Node1&#45;&gt;Node2</title>
<path fill="none" stroke="midnightblue" d="M88.4929,-60.1742C108.128,-65.4287 130.766,-71.4866 149.179,-76.4141"/>
<polygon fill="midnightblue" stroke="midnightblue" points="89.3975,-56.7931 78.8326,-57.589 87.5879,-63.5552 89.3975,-56.7931"/>
</g>
<!-- Node3 -->
<g id="node3" class="node"><title>Node3</title>
<g id="a_node3"><a xlink:href="classICED_1_1HalfCell_1_1HalfCellComLine.html" target="_top" xlink:title="The ComLineObject for the example programs. ">
<polygon fill="none" stroke="black" points="140.5,-38.5 140.5,-57.5 231.5,-57.5 231.5,-38.5 140.5,-38.5"/>
<text text-anchor="middle" x="186" y="-45.5" font-family="Helvetica,sans-Serif" font-size="10.00">HalfCellComLine</text>
</a>
</g>
</g>
<!-- Node1&#45;&gt;Node3 -->
<g id="edge2" class="edge"><title>Node1&#45;&gt;Node3</title>
<path fill="none" stroke="midnightblue" d="M94.2583,-48C109.322,-48 125.674,-48 140.294,-48"/>
<polygon fill="midnightblue" stroke="midnightblue" points="94.0723,-44.5001 84.0723,-48 94.0722,-51.5001 94.0723,-44.5001"/>
</g>
<!-- Node4 -->
<g id="node4" class="node"><title>Node4</title>
<g id="a_node4"><a xlink:href="classICED_1_1TestComLine.html" target="_top" xlink:title="ComLineObject for ICED testing command&#45;line interface. ">
<polygon fill="none" stroke="black" points="148.5,-0.5 148.5,-19.5 223.5,-19.5 223.5,-0.5 148.5,-0.5"/>
<text text-anchor="middle" x="186" y="-7.5" font-family="Helvetica,sans-Serif" font-size="10.00">TestComLine</text>
</a>
</g>
</g>
<!-- Node1&#45;&gt;Node4 -->
<g id="edge3" class="edge"><title>Node1&#45;&gt;Node4</title>
<path fill="none" stroke="midnightblue" d="M88.4929,-35.8258C108.128,-30.5713 130.766,-24.5134 149.179,-19.5859"/>
<polygon fill="midnightblue" stroke="midnightblue" points="87.5879,-32.4448 78.8326,-38.411 89.3975,-39.2069 87.5879,-32.4448"/>
</g>
</g>
</svg>
