<?xml version="1.0" encoding="UTF-8" standalone="no"?>
<!DOCTYPE svg PUBLIC "-//W3C//DTD SVG 1.1//EN"
 "http://www.w3.org/Graphics/SVG/1.1/DTD/svg11.dtd">
<!-- Generated by graphviz version 2.30.1 (20150305.2338)
 -->
<!-- Title: Driver Pages: 1 -->
<svg width="262pt" height="126pt"
 viewBox="0.00 0.00 262.00 126.00" xmlns="http://www.w3.org/2000/svg" xmlns:xlink="http://www.w3.org/1999/xlink">
<g id="graph0" class="graph" transform="scale(1 1) rotate(0) translate(4 122)">
<title>Driver</title>
<!-- Node1 -->
<g id="node1" class="node"><title>Node1</title>
<polygon fill="#bfbfbf" stroke="black" points="0.5,-49.5 0.5,-68.5 43.5,-68.5 43.5,-49.5 0.5,-49.5"/>
<text text-anchor="middle" x="22" y="-56.5" font-family="Helvetica,sans-Serif" font-size="10.00">Driver</text>
</g>
<!-- Node2 -->
<g id="node2" class="node"><title>Node2</title>
<g id="a_node2"><a xlink:href="classICED_1_1HalfCell_1_1SerialProgram.html#aa07151f89ba8e36b3783651c8edf8337" target="_top" xlink:title="Initializes native data structures from commandline args. ">
<polygon fill="none" stroke="black" points="92,-88 92,-118 242,-118 242,-88 92,-88"/>
<text text-anchor="start" x="100" y="-106" font-family="Helvetica,sans-Serif" font-size="10.00">ICED::HalfCell::SerialProgram</text>
<text text-anchor="middle" x="167" y="-95" font-family="Helvetica,sans-Serif" font-size="10.00">::Initialize</text>
</a>
</g>
</g>
<!-- Node1&#45;&gt;Node2 -->
<g id="edge1" class="edge"><title>Node1&#45;&gt;Node2</title>
<path fill="none" stroke="midnightblue" d="M43.5166,-66.053C54.3363,-69.7182 67.8512,-74.211 80,-78 87.598,-80.3697 95.5958,-82.7913 103.53,-85.1492"/>
<polygon fill="midnightblue" stroke="midnightblue" points="102.563,-88.5131 113.145,-87.9861 104.544,-81.7992 102.563,-88.5131"/>
</g>
<!-- Node3 -->
<g id="node3" class="node"><title>Node3</title>
<g id="a_node3"><a xlink:href="classICED_1_1HalfCell_1_1SerialProgram.html#aac704aea738c1edc384a97e51d60662b" target="_top" xlink:title="This function implements the main function executed by the program. ">
<polygon fill="none" stroke="black" points="80,-49.5 80,-68.5 254,-68.5 254,-49.5 80,-49.5"/>
<text text-anchor="middle" x="167" y="-56.5" font-family="Helvetica,sans-Serif" font-size="10.00">ICED::HalfCell::SerialProgram::Run</text>
</a>
</g>
</g>
<!-- Node1&#45;&gt;Node3 -->
<g id="edge2" class="edge"><title>Node1&#45;&gt;Node3</title>
<path fill="none" stroke="midnightblue" d="M43.7934,-59C51.2098,-59 60.1258,-59 69.7213,-59"/>
<polygon fill="midnightblue" stroke="midnightblue" points="69.9323,-62.5001 79.9323,-59 69.9323,-55.5001 69.9323,-62.5001"/>
</g>
<!-- Node4 -->
<g id="node4" class="node"><title>Node4</title>
<g id="a_node4"><a xlink:href="classICED_1_1HalfCell_1_1SerialProgram.html#ab17757bfd183c39a2c228c852d2020f1" target="_top" xlink:title="Returns verbosity level. ">
<polygon fill="none" stroke="black" points="92,-0 92,-30 242,-30 242,-0 92,-0"/>
<text text-anchor="start" x="100" y="-18" font-family="Helvetica,sans-Serif" font-size="10.00">ICED::HalfCell::SerialProgram</text>
<text text-anchor="middle" x="167" y="-7" font-family="Helvetica,sans-Serif" font-size="10.00">::VerbLevel</text>
</a>
</g>
</g>
<!-- Node1&#45;&gt;Node4 -->
<g id="edge3" class="edge"><title>Node1&#45;&gt;Node4</title>
<path fill="none" stroke="midnightblue" d="M43.5166,-51.947C54.3363,-48.2818 67.8512,-43.789 80,-40 87.598,-37.6303 95.5958,-35.2087 103.53,-32.8508"/>
<polygon fill="midnightblue" stroke="midnightblue" points="104.544,-36.2008 113.145,-30.0139 102.563,-29.4869 104.544,-36.2008"/>
</g>
</g>
</svg>
