<?xml version="1.0" encoding="UTF-8" standalone="no"?>
<!DOCTYPE svg PUBLIC "-//W3C//DTD SVG 1.1//EN"
 "http://www.w3.org/Graphics/SVG/1.1/DTD/svg11.dtd">
<!-- Generated by graphviz version 2.30.1 (20150305.2338)
 -->
<!-- Title: SetupSolver Pages: 1 -->
<svg width="722pt" height="185pt"
 viewBox="0.00 0.00 722.00 185.00" xmlns="http://www.w3.org/2000/svg" xmlns:xlink="http://www.w3.org/1999/xlink">
<g id="graph0" class="graph" transform="scale(1 1) rotate(0) translate(4 181)">
<title>SetupSolver</title>
<!-- Node1 -->
<g id="node1" class="node"><title>Node1</title>
<polygon fill="#bfbfbf" stroke="black" points="0,-78.5 0,-97.5 70,-97.5 70,-78.5 0,-78.5"/>
<text text-anchor="middle" x="35" y="-85.5" font-family="Helvetica,sans-Serif" font-size="10.00">SetupSolver</text>
</g>
<!-- Node2 -->
<g id="node2" class="node"><title>Node2</title>
<g id="a_node2"><a xlink:href="classICED_1_1TestingObject_a321c98e0752f9282aa30454c44c133b3.html#a321c98e0752f9282aa30454c44c133b3" target="_top" xlink:title="System level transient solver test. ">
<polygon fill="none" stroke="black" points="118.5,-147 118.5,-177 289.5,-177 289.5,-147 118.5,-147"/>
<text text-anchor="start" x="126.5" y="-165" font-family="Helvetica,sans-Serif" font-size="10.00">ICED::TestingObject</text>
<text text-anchor="middle" x="204" y="-154" font-family="Helvetica,sans-Serif" font-size="10.00">::Test__SolverOhmsLawElectrolyte</text>
</a>
</g>
</g>
<!-- Node1&#45;&gt;Node2 -->
<g id="edge1" class="edge"><title>Node1&#45;&gt;Node2</title>
<path fill="none" stroke="midnightblue" d="M55.1093,-104.221C68.5678,-114.905 87.4301,-128.45 106,-137 114.293,-140.818 123.265,-144.122 132.287,-146.962"/>
<polygon fill="midnightblue" stroke="midnightblue" points="57.0654,-101.3 47.103,-97.6947 52.6425,-106.726 57.0654,-101.3"/>
</g>
<!-- Node7 -->
<g id="node7" class="node"><title>Node7</title>
<g id="a_node7"><a xlink:href="classICED_1_1TestingObject_a4f0fbceeaabd0d88369dbc7c48b8e7c0.html#a4f0fbceeaabd0d88369dbc7c48b8e7c0" target="_top" xlink:title="System level solver test. ">
<polygon fill="none" stroke="black" points="148.5,-98 148.5,-128 259.5,-128 259.5,-98 148.5,-98"/>
<text text-anchor="start" x="156.5" y="-116" font-family="Helvetica,sans-Serif" font-size="10.00">ICED::TestingObject</text>
<text text-anchor="middle" x="204" y="-105" font-family="Helvetica,sans-Serif" font-size="10.00">::Test__SteadySolver</text>
</a>
</g>
</g>
<!-- Node1&#45;&gt;Node7 -->
<g id="edge6" class="edge"><title>Node1&#45;&gt;Node7</title>
<path fill="none" stroke="midnightblue" d="M80.1086,-94.6031C101.066,-97.7404 126.318,-101.521 148.466,-104.836"/>
<polygon fill="midnightblue" stroke="midnightblue" points="80.6059,-91.1386 70.1979,-93.1195 79.5695,-98.0615 80.6059,-91.1386"/>
</g>
<!-- Node8 -->
<g id="node8" class="node"><title>Node8</title>
<g id="a_node8"><a xlink:href="classICED_1_1TestingObject_abc862dcffca76c39e0729f56a43334ed.html#abc862dcffca76c39e0729f56a43334ed" target="_top" xlink:title="System level solver test. ">
<polygon fill="none" stroke="black" points="142,-49 142,-79 266,-79 266,-49 142,-49"/>
<text text-anchor="start" x="150" y="-67" font-family="Helvetica,sans-Serif" font-size="10.00">ICED::TestingObject</text>
<text text-anchor="middle" x="204" y="-56" font-family="Helvetica,sans-Serif" font-size="10.00">::Test__SteadySolverNL</text>
</a>
</g>
</g>
<!-- Node1&#45;&gt;Node8 -->
<g id="edge8" class="edge"><title>Node1&#45;&gt;Node8</title>
<path fill="none" stroke="midnightblue" d="M80.2831,-81.636C99.1368,-78.9264 121.442,-75.7209 141.83,-72.7909"/>
<polygon fill="midnightblue" stroke="midnightblue" points="79.5983,-78.1983 70.1979,-83.0853 80.5941,-85.1271 79.5983,-78.1983"/>
</g>
<!-- Node9 -->
<g id="node9" class="node"><title>Node9</title>
<g id="a_node9"><a xlink:href="classICED_1_1HalfCell_1_1TransientSolverInterface_a1e6a78e84439badd13fca28f801f8f7e.html#a1e6a78e84439badd13fca28f801f8f7e" target="_top" xlink:title="Backward Euler transient solver. ">
<polygon fill="none" stroke="black" points="106.5,-0 106.5,-30 301.5,-30 301.5,-0 106.5,-0"/>
<text text-anchor="start" x="114.5" y="-18" font-family="Helvetica,sans-Serif" font-size="10.00">ICED::HalfCell::Transient</text>
<text text-anchor="middle" x="204" y="-7" font-family="Helvetica,sans-Serif" font-size="10.00">SolverInterface::TransientBackwardEuler</text>
</a>
</g>
</g>
<!-- Node1&#45;&gt;Node9 -->
<g id="edge10" class="edge"><title>Node1&#45;&gt;Node9</title>
<path fill="none" stroke="midnightblue" d="M55.083,-71.7211C68.5297,-61.0115 87.3889,-47.4598 106,-39 113.502,-35.59 121.559,-32.6192 129.708,-30.042"/>
<polygon fill="midnightblue" stroke="midnightblue" points="52.6073,-69.2244 47.0852,-78.2664 57.0407,-74.6416 52.6073,-69.2244"/>
</g>
<!-- Node3 -->
<g id="node3" class="node"><title>Node3</title>
<g id="a_node3"><a xlink:href="classICED_1_1TestingObject_af1f07f14b9af7708e4264bb38937eed2.html#af1f07f14b9af7708e4264bb38937eed2" target="_top" xlink:title="Runs a test specified by name. ">
<polygon fill="none" stroke="black" points="363,-98 363,-128 471,-128 471,-98 363,-98"/>
<text text-anchor="start" x="371" y="-116" font-family="Helvetica,sans-Serif" font-size="10.00">ICED::TestingObject</text>
<text text-anchor="middle" x="417" y="-105" font-family="Helvetica,sans-Serif" font-size="10.00">::RunTest</text>
</a>
</g>
</g>
<!-- Node2&#45;&gt;Node3 -->
<g id="edge2" class="edge"><title>Node2&#45;&gt;Node3</title>
<path fill="none" stroke="midnightblue" d="M279.688,-144.655C307.102,-138.289 337.559,-131.216 362.719,-125.373"/>
<polygon fill="midnightblue" stroke="midnightblue" points="278.69,-141.294 269.741,-146.965 280.273,-148.113 278.69,-141.294"/>
</g>
<!-- Node4 -->
<g id="node4" class="node"><title>Node4</title>
<g id="a_node4"><a xlink:href="classICED_1_1TestingObject_a21159bd2efac623e5a5079f6a20f3444.html#a21159bd2efac623e5a5079f6a20f3444" target="_top" xlink:title="Runs a list of tests specified by name. ">
<polygon fill="none" stroke="black" points="532,-120 532,-150 640,-150 640,-120 532,-120"/>
<text text-anchor="start" x="540" y="-138" font-family="Helvetica,sans-Serif" font-size="10.00">ICED::TestingObject</text>
<text text-anchor="middle" x="586" y="-127" font-family="Helvetica,sans-Serif" font-size="10.00">::ProcessTests</text>
</a>
</g>
</g>
<!-- Node3&#45;&gt;Node4 -->
<g id="edge3" class="edge"><title>Node3&#45;&gt;Node4</title>
<path fill="none" stroke="midnightblue" d="M481.487,-121.364C498.125,-123.555 515.889,-125.896 531.921,-128.008"/>
<polygon fill="midnightblue" stroke="midnightblue" points="481.67,-117.858 471.299,-120.021 480.756,-124.798 481.67,-117.858"/>
</g>
<!-- Node5 -->
<g id="node5" class="node"><title>Node5</title>
<g id="a_node5"><a xlink:href="namespaceICED_acf52cefdb153ca8751acb1e183d3a405.html#acf52cefdb153ca8751acb1e183d3a405" target="_top" xlink:title="Drives the ICED::TestObject. ">
<polygon fill="none" stroke="black" points="552.5,-81.5 552.5,-100.5 619.5,-100.5 619.5,-81.5 552.5,-81.5"/>
<text text-anchor="middle" x="586" y="-88.5" font-family="Helvetica,sans-Serif" font-size="10.00">ICED::Test</text>
</a>
</g>
</g>
<!-- Node3&#45;&gt;Node5 -->
<g id="edge4" class="edge"><title>Node3&#45;&gt;Node5</title>
<path fill="none" stroke="midnightblue" d="M481.446,-104.642C505.517,-101.471 531.953,-97.9883 552.089,-95.3356"/>
<polygon fill="midnightblue" stroke="midnightblue" points="480.756,-101.202 471.299,-105.979 481.67,-108.142 480.756,-101.202"/>
</g>
<!-- Node6 -->
<g id="node6" class="node"><title>Node6</title>
<g id="a_node6"><a xlink:href="TestICED_8C_a0ddf1224851353fc92bfbff6f499fa97.html#a0ddf1224851353fc92bfbff6f499fa97" target="_top" xlink:title="main">
<polygon fill="none" stroke="black" points="676,-81.5 676,-100.5 714,-100.5 714,-81.5 676,-81.5"/>
<text text-anchor="middle" x="695" y="-88.5" font-family="Helvetica,sans-Serif" font-size="10.00">main</text>
</a>
</g>
</g>
<!-- Node5&#45;&gt;Node6 -->
<g id="edge5" class="edge"><title>Node5&#45;&gt;Node6</title>
<path fill="none" stroke="midnightblue" d="M629.939,-91C645.927,-91 663.225,-91 675.811,-91"/>
<polygon fill="midnightblue" stroke="midnightblue" points="629.685,-87.5001 619.685,-91 629.685,-94.5001 629.685,-87.5001"/>
</g>
<!-- Node7&#45;&gt;Node3 -->
<g id="edge7" class="edge"><title>Node7&#45;&gt;Node3</title>
<path fill="none" stroke="midnightblue" d="M269.908,-113C299.669,-113 334.516,-113 362.711,-113"/>
<polygon fill="midnightblue" stroke="midnightblue" points="269.612,-109.5 259.612,-113 269.612,-116.5 269.612,-109.5"/>
</g>
<!-- Node8&#45;&gt;Node3 -->
<g id="edge9" class="edge"><title>Node8&#45;&gt;Node3</title>
<path fill="none" stroke="midnightblue" d="M275.924,-80.4704C304.384,-87.0797 336.619,-94.5656 362.986,-100.689"/>
<polygon fill="midnightblue" stroke="midnightblue" points="276.562,-77.0257 266.03,-78.1728 274.979,-83.8443 276.562,-77.0257"/>
</g>
<!-- Node10 -->
<g id="node10" class="node"><title>Node10</title>
<g id="a_node10"><a xlink:href="classICED_1_1HalfCell_1_1TransientSolverInterface_a2547873885bd2deaebfc57e4d5c0b7da.html#a2547873885bd2deaebfc57e4d5c0b7da" target="_top" xlink:title="Wrapper for our transient solver. ">
<polygon fill="none" stroke="black" points="338.5,-0 338.5,-30 495.5,-30 495.5,-0 338.5,-0"/>
<text text-anchor="start" x="346.5" y="-18" font-family="Helvetica,sans-Serif" font-size="10.00">ICED::HalfCell::Transient</text>
<text text-anchor="middle" x="417" y="-7" font-family="Helvetica,sans-Serif" font-size="10.00">SolverInterface::TransientSolver</text>
</a>
</g>
</g>
<!-- Node9&#45;&gt;Node10 -->
<g id="edge11" class="edge"><title>Node9&#45;&gt;Node10</title>
<path fill="none" stroke="midnightblue" d="M311.717,-15C320.733,-15 329.738,-15 338.467,-15"/>
<polygon fill="midnightblue" stroke="midnightblue" points="311.546,-11.5001 301.546,-15 311.546,-18.5001 311.546,-11.5001"/>
</g>
</g>
</svg>
