<?xml version="1.0" encoding="UTF-8" standalone="no"?>
<!DOCTYPE svg PUBLIC "-//W3C//DTD SVG 1.1//EN"
 "http://www.w3.org/Graphics/SVG/1.1/DTD/svg11.dtd">
<!-- Generated by graphviz version 2.30.1 (20150305.2338)
 -->
<!-- Title: PhysicsModule.hpp Pages: 1 -->
<!--zoomable 420 -->
<svg id="main" version="1.1" xmlns="http://www.w3.org/2000/svg" xmlns:xlink="http://www.w3.org/1999/xlink" xml:space="preserve" onload="init(evt)">
<style type="text/css"><![CDATA[
.edge:hover path { stroke: red; }
.edge:hover polygon { stroke: red; fill: red; }
]]></style>
<script type="text/javascript"><![CDATA[
var edges = document.getElementsByTagName('g');
if (edges && edges.length) {
  for (var i=0;i<edges.length;i++) {
    if (edges[i].id.substr(0,4)=='edge') {
      edges[i].setAttribute('class','edge');
    }
  }
}
]]></script>
        <defs>
                <circle id="rim" cx="0" cy="0" r="7"/>
                <circle id="rim2" cx="0" cy="0" r="3.5"/>
                <g id="zoomPlus">
                        <use xlink:href="#rim" fill="#404040">
                                <set attributeName="fill" to="#808080" begin="zoomplus.mouseover" end="zoomplus.mouseout"/>
                        </use>
                        <path d="M-4,0h8M0,-4v8" fill="none" stroke="white" stroke-width="1.5" pointer-events="none"/>
                </g>
                <g id="zoomMin">
                        <use xlink:href="#rim" fill="#404040">
                                <set attributeName="fill" to="#808080" begin="zoomminus.mouseover" end="zoomminus.mouseout"/>
                        </use>
                        <path d="M-4,0h8" fill="none" stroke="white" stroke-width="1.5" pointer-events="none"/>
                </g>
                <g id="dirArrow">
                        <path fill="none" stroke="white" stroke-width="1.5" d="M0,-3.0v7 M-2.5,-0.5L0,-3.0L2.5,-0.5"/>
                </g>
               <g id="resetDef">
                       <use xlink:href="#rim2" fill="#404040">
                               <set attributeName="fill" to="#808080" begin="reset.mouseover" end="reset.mouseout"/>
                       </use>
               </g>
        </defs>

<script type="text/javascript">
var viewWidth = 1557;
var viewHeight = 420;
var sectionId = 'dynsection-1';
</script>
<script xlink:href="svgpan.js"/>
<svg id="graph" class="graph">
<g id="viewport">
<title>PhysicsModule.hpp</title>
<!-- Node1 -->
<g id="node1" class="node"><title>Node1</title>
<polygon fill="#bfbfbf" stroke="black" points="808,-392.5 808,-411.5 910,-411.5 910,-392.5 808,-392.5"/>
<text text-anchor="middle" x="859" y="-399.5" font-family="Helvetica,sans-Serif" font-size="10.00">PhysicsModule.hpp</text>
</g>
<!-- Node2 -->
<g id="node2" class="node"><title>Node2</title>
<g id="a_node2"><a xlink:href="DeviceComponent_8hpp.html" target="_top" xlink:title="C++ header file for the DeviceComponent class. ">
<polygon fill="none" stroke="black" points="189,-336.5 189,-355.5 305,-355.5 305,-336.5 189,-336.5"/>
<text text-anchor="middle" x="247" y="-343.5" font-family="Helvetica,sans-Serif" font-size="10.00">DeviceComponent.hpp</text>
</a>
</g>
</g>
<!-- Node1&#45;&gt;Node2 -->
<g id="edge1" class="edge"><title>Node1&#45;&gt;Node2</title>
<path fill="none" stroke="midnightblue" d="M797.807,-396.973C696.872,-390.099 489.207,-374.988 314,-356 311.083,-355.684 308.097,-355.344 305.083,-354.987"/>
<polygon fill="midnightblue" stroke="midnightblue" points="797.609,-400.467 807.823,-397.651 798.083,-393.483 797.609,-400.467"/>
</g>
<!-- Node15 -->
<g id="node15" class="node"><title>Node15</title>
<g id="a_node15"><a xlink:href="ActivityCoefficient_8cpp.html" target="_top" xlink:title="C++ source file for ActivityCoefficient module functions. ">
<polygon fill="none" stroke="black" points="323,-336.5 323,-355.5 439,-355.5 439,-336.5 323,-336.5"/>
<text text-anchor="middle" x="381" y="-343.5" font-family="Helvetica,sans-Serif" font-size="10.00">ActivityCoefficient.cpp</text>
</a>
</g>
</g>
<!-- Node1&#45;&gt;Node15 -->
<g id="edge18" class="edge"><title>Node1&#45;&gt;Node15</title>
<path fill="none" stroke="midnightblue" d="M797.255,-394.715C716.798,-386.417 571.768,-371.086 448,-356 445.087,-355.645 442.105,-355.273 439.094,-354.892"/>
<polygon fill="midnightblue" stroke="midnightblue" points="797.388,-398.248 807.694,-395.79 798.105,-391.284 797.388,-398.248"/>
</g>
<!-- Node16 -->
<g id="node16" class="node"><title>Node16</title>
<g id="a_node16"><a xlink:href="ButlerVolmer_8cpp.html" target="_top" xlink:title="C++ source file for ButlerVolmer module functions. ">
<polygon fill="none" stroke="black" points="457,-336.5 457,-355.5 549,-355.5 549,-336.5 457,-336.5"/>
<text text-anchor="middle" x="503" y="-343.5" font-family="Helvetica,sans-Serif" font-size="10.00">ButlerVolmer.cpp</text>
</a>
</g>
</g>
<!-- Node1&#45;&gt;Node16 -->
<g id="edge19" class="edge"><title>Node1&#45;&gt;Node16</title>
<path fill="none" stroke="midnightblue" d="M797.581,-391.979C736.923,-383.025 641.526,-368.821 559,-356 555.789,-355.501 552.475,-354.981 549.139,-354.454"/>
<polygon fill="midnightblue" stroke="midnightblue" points="797.346,-395.482 807.75,-393.479 798.368,-388.557 797.346,-395.482"/>
</g>
<!-- Node17 -->
<g id="node17" class="node"><title>Node17</title>
<g id="a_node17"><a xlink:href="ConcentrationDiffusion_8cpp.html" target="_top" xlink:title="C++ source file for ConcentrationDiffusion module functions. ">
<polygon fill="none" stroke="black" points="567.5,-336.5 567.5,-355.5 702.5,-355.5 702.5,-336.5 567.5,-336.5"/>
<text text-anchor="middle" x="635" y="-343.5" font-family="Helvetica,sans-Serif" font-size="10.00">ConcentrationDiffusion.cpp</text>
</a>
</g>
</g>
<!-- Node1&#45;&gt;Node17 -->
<g id="edge20" class="edge"><title>Node1&#45;&gt;Node17</title>
<path fill="none" stroke="midnightblue" d="M813.737,-390.088C771.418,-379.887 709.091,-364.861 670.327,-355.516"/>
<polygon fill="midnightblue" stroke="midnightblue" points="812.965,-393.502 823.507,-392.444 814.605,-386.697 812.965,-393.502"/>
</g>
<!-- Node18 -->
<g id="node18" class="node"><title>Node18</title>
<g id="a_node18"><a xlink:href="Diffusion_8cpp.html" target="_top" xlink:title="C++ source file for Diffusion module function. ">
<polygon fill="none" stroke="black" points="721,-336.5 721,-355.5 795,-355.5 795,-336.5 721,-336.5"/>
<text text-anchor="middle" x="758" y="-343.5" font-family="Helvetica,sans-Serif" font-size="10.00">Diffusion.cpp</text>
</a>
</g>
</g>
<!-- Node1&#45;&gt;Node18 -->
<g id="edge21" class="edge"><title>Node1&#45;&gt;Node18</title>
<path fill="none" stroke="midnightblue" d="M833.917,-387.59C815.243,-377.605 790.296,-364.267 774.187,-355.655"/>
<polygon fill="midnightblue" stroke="midnightblue" points="832.304,-390.696 842.773,-392.324 835.604,-384.522 832.304,-390.696"/>
</g>
<!-- Node12 -->
<g id="node12" class="node"><title>Node12</title>
<g id="a_node12"><a xlink:href="HalfCell_8cpp.html" target="_top" xlink:title="Solver for a battery half cell. ">
<polygon fill="none" stroke="black" points="335.5,-168.5 335.5,-187.5 406.5,-187.5 406.5,-168.5 335.5,-168.5"/>
<text text-anchor="middle" x="371" y="-175.5" font-family="Helvetica,sans-Serif" font-size="10.00">HalfCell.cpp</text>
</a>
</g>
</g>
<!-- Node1&#45;&gt;Node12 -->
<g id="edge22" class="edge"><title>Node1&#45;&gt;Node12</title>
<path fill="none" stroke="midnightblue" d="M848.065,-383.584C838.149,-369.06 822.311,-348.749 804,-336 673.572,-245.192 484.675,-200.754 406.711,-185.419"/>
<polygon fill="midnightblue" stroke="midnightblue" points="845.279,-385.717 853.693,-392.155 851.13,-381.875 845.279,-385.717"/>
</g>
<!-- Node19 -->
<g id="node19" class="node"><title>Node19</title>
<g id="a_node19"><a xlink:href="Intercalation_8cpp.html" target="_top" xlink:title="C++ source file for Intercalation module functions. ">
<polygon fill="none" stroke="black" points="851.5,-336.5 851.5,-355.5 940.5,-355.5 940.5,-336.5 851.5,-336.5"/>
<text text-anchor="middle" x="896" y="-343.5" font-family="Helvetica,sans-Serif" font-size="10.00">Intercalation.cpp</text>
</a>
</g>
</g>
<!-- Node1&#45;&gt;Node19 -->
<g id="edge23" class="edge"><title>Node1&#45;&gt;Node19</title>
<path fill="none" stroke="midnightblue" d="M870.946,-383.566C877.312,-374.275 884.867,-363.248 890.004,-355.751"/>
<polygon fill="midnightblue" stroke="midnightblue" points="867.875,-381.855 865.11,-392.083 873.649,-385.812 867.875,-381.855"/>
</g>
<!-- Node20 -->
<g id="node20" class="node"><title>Node20</title>
<g id="a_node20"><a xlink:href="IonMigration_8cpp.html" target="_top" xlink:title="C++ source file for ionMigration module functions. ">
<polygon fill="none" stroke="black" points="958.5,-336.5 958.5,-355.5 1047.5,-355.5 1047.5,-336.5 958.5,-336.5"/>
<text text-anchor="middle" x="1003" y="-343.5" font-family="Helvetica,sans-Serif" font-size="10.00">IonMigration.cpp</text>
</a>
</g>
</g>
<!-- Node1&#45;&gt;Node20 -->
<g id="edge24" class="edge"><title>Node1&#45;&gt;Node20</title>
<path fill="none" stroke="midnightblue" d="M891.251,-388.906C918.324,-378.754 956.317,-364.506 980.29,-355.516"/>
<polygon fill="midnightblue" stroke="midnightblue" points="889.952,-385.655 881.817,-392.444 892.409,-392.209 889.952,-385.655"/>
</g>
<!-- Node21 -->
<g id="node21" class="node"><title>Node21</title>
<g id="a_node21"><a xlink:href="OhmsLawElectrolyte_8cpp.html" target="_top" xlink:title="C++ source file for OhmsLawElectrolyte module functions. ">
<polygon fill="none" stroke="black" points="1066,-336.5 1066,-355.5 1192,-355.5 1192,-336.5 1066,-336.5"/>
<text text-anchor="middle" x="1129" y="-343.5" font-family="Helvetica,sans-Serif" font-size="10.00">OhmsLawElectrolyte.cpp</text>
</a>
</g>
</g>
<!-- Node1&#45;&gt;Node21 -->
<g id="edge25" class="edge"><title>Node1&#45;&gt;Node21</title>
<path fill="none" stroke="midnightblue" d="M911.633,-390.473C962.661,-380.268 1039.1,-364.979 1086.42,-355.516"/>
<polygon fill="midnightblue" stroke="midnightblue" points="910.902,-387.05 901.782,-392.444 912.275,-393.914 910.902,-387.05"/>
</g>
<!-- Node22 -->
<g id="node22" class="node"><title>Node22</title>
<g id="a_node22"><a xlink:href="OhmsLawSolid_8cpp.html" target="_top" xlink:title="C++ source file for OhmsLawObject module functions. ">
<polygon fill="none" stroke="black" points="1210.5,-336.5 1210.5,-355.5 1311.5,-355.5 1311.5,-336.5 1210.5,-336.5"/>
<text text-anchor="middle" x="1261" y="-343.5" font-family="Helvetica,sans-Serif" font-size="10.00">OhmsLawSolid.cpp</text>
</a>
</g>
</g>
<!-- Node1&#45;&gt;Node22 -->
<g id="edge26" class="edge"><title>Node1&#45;&gt;Node22</title>
<path fill="none" stroke="midnightblue" d="M920.202,-393.286C988.667,-384.577 1102.85,-369.817 1201,-356 1204.02,-355.574 1207.13,-355.129 1210.27,-354.675"/>
<polygon fill="midnightblue" stroke="midnightblue" points="919.507,-389.846 910.028,-394.578 920.389,-396.79 919.507,-389.846"/>
</g>
<!-- Node23 -->
<g id="node23" class="node"><title>Node23</title>
<g id="a_node23"><a xlink:href="TransferenceNumber_8cpp.html" target="_top" xlink:title="C++ source file for TransferenceNumber module functions. ">
<polygon fill="none" stroke="black" points="1329.5,-336.5 1329.5,-355.5 1456.5,-355.5 1456.5,-336.5 1329.5,-336.5"/>
<text text-anchor="middle" x="1393" y="-343.5" font-family="Helvetica,sans-Serif" font-size="10.00">TransferenceNumber.cpp</text>
</a>
</g>
</g>
<!-- Node1&#45;&gt;Node23 -->
<g id="edge27" class="edge"><title>Node1&#45;&gt;Node23</title>
<path fill="none" stroke="midnightblue" d="M920.323,-395.513C1008.7,-387.491 1176.99,-371.793 1320,-356 1323.05,-355.664 1326.16,-355.311 1329.31,-354.949"/>
<polygon fill="midnightblue" stroke="midnightblue" points="919.851,-392.041 910.208,-396.429 920.483,-399.012 919.851,-392.041"/>
</g>
<!-- Node24 -->
<g id="node24" class="node"><title>Node24</title>
<g id="a_node24"><a xlink:href="WallFlux_8cpp.html" target="_top" xlink:title="C++ source file for butlerVolmer module functions. ">
<polygon fill="none" stroke="black" points="1475,-336.5 1475,-355.5 1549,-355.5 1549,-336.5 1475,-336.5"/>
<text text-anchor="middle" x="1512" y="-343.5" font-family="Helvetica,sans-Serif" font-size="10.00">WallFlux.cpp</text>
</a>
</g>
</g>
<!-- Node1&#45;&gt;Node24 -->
<g id="edge28" class="edge"><title>Node1&#45;&gt;Node24</title>
<path fill="none" stroke="midnightblue" d="M920.501,-398.773C1030.25,-394.279 1266.93,-382.23 1465,-356 1468.21,-355.575 1471.54,-355.07 1474.86,-354.52"/>
<polygon fill="midnightblue" stroke="midnightblue" points="920.132,-395.285 910.281,-399.185 920.414,-402.279 920.132,-395.285"/>
</g>
<!-- Node3 -->
<g id="node3" class="node"><title>Node3</title>
<g id="a_node3"><a xlink:href="DeviceData_8hpp.html" target="_top" xlink:title="C++ header file for the DeviceData class. ">
<polygon fill="none" stroke="black" points="203.5,-280.5 203.5,-299.5 290.5,-299.5 290.5,-280.5 203.5,-280.5"/>
<text text-anchor="middle" x="247" y="-287.5" font-family="Helvetica,sans-Serif" font-size="10.00">DeviceData.hpp</text>
</a>
</g>
</g>
<!-- Node2&#45;&gt;Node3 -->
<g id="edge2" class="edge"><title>Node2&#45;&gt;Node3</title>
<path fill="none" stroke="midnightblue" d="M247,-325.805C247,-316.91 247,-306.78 247,-299.751"/>
<polygon fill="midnightblue" stroke="midnightblue" points="243.5,-326.083 247,-336.083 250.5,-326.083 243.5,-326.083"/>
</g>
<!-- Node14 -->
<g id="node14" class="node"><title>Node14</title>
<g id="a_node14"><a xlink:href="DeviceComponent_8cpp.html" target="_top" xlink:title="C++ source code for the Device Component class. ">
<polygon fill="none" stroke="black" points="309,-280.5 309,-299.5 425,-299.5 425,-280.5 309,-280.5"/>
<text text-anchor="middle" x="367" y="-287.5" font-family="Helvetica,sans-Serif" font-size="10.00">DeviceComponent.cpp</text>
</a>
</g>
</g>
<!-- Node2&#45;&gt;Node14 -->
<g id="edge17" class="edge"><title>Node2&#45;&gt;Node14</title>
<path fill="none" stroke="midnightblue" d="M275.373,-332.232C297.82,-322.131 328.535,-308.309 348.075,-299.516"/>
<polygon fill="midnightblue" stroke="midnightblue" points="273.697,-329.148 266.014,-336.444 276.57,-335.532 273.697,-329.148"/>
</g>
<!-- Node4 -->
<g id="node4" class="node"><title>Node4</title>
<g id="a_node4"><a xlink:href="Solver_8hpp.html" target="_top" xlink:title="C++ header file for the SolutionData class. ">
<polygon fill="none" stroke="black" points="215.5,-224.5 215.5,-243.5 278.5,-243.5 278.5,-224.5 215.5,-224.5"/>
<text text-anchor="middle" x="247" y="-231.5" font-family="Helvetica,sans-Serif" font-size="10.00">Solver.hpp</text>
</a>
</g>
</g>
<!-- Node3&#45;&gt;Node4 -->
<g id="edge3" class="edge"><title>Node3&#45;&gt;Node4</title>
<path fill="none" stroke="midnightblue" d="M247,-269.805C247,-260.91 247,-250.78 247,-243.751"/>
<polygon fill="midnightblue" stroke="midnightblue" points="243.5,-270.083 247,-280.083 250.5,-270.083 243.5,-270.083"/>
</g>
<!-- Node11 -->
<g id="node11" class="node"><title>Node11</title>
<g id="a_node11"><a xlink:href="DeviceData_8cpp.html" target="_top" xlink:title="C++ source code for the DeviceData class. ">
<polygon fill="none" stroke="black" points="-0.5,-168.5 -0.5,-187.5 86.5,-187.5 86.5,-168.5 -0.5,-168.5"/>
<text text-anchor="middle" x="43" y="-175.5" font-family="Helvetica,sans-Serif" font-size="10.00">DeviceData.cpp</text>
</a>
</g>
</g>
<!-- Node3&#45;&gt;Node11 -->
<g id="edge14" class="edge"><title>Node3&#45;&gt;Node11</title>
<path fill="none" stroke="midnightblue" d="M222.132,-275.591C179.662,-252.691 94.3167,-206.671 58.9332,-187.591"/>
<polygon fill="midnightblue" stroke="midnightblue" points="220.529,-278.703 230.992,-280.368 223.852,-272.542 220.529,-278.703"/>
</g>
<!-- Node3&#45;&gt;Node12 -->
<g id="edge15" class="edge"><title>Node3&#45;&gt;Node12</title>
<path fill="none" stroke="midnightblue" d="M264.46,-273.512C290.956,-250.007 340.44,-206.11 361.315,-187.591"/>
<polygon fill="midnightblue" stroke="midnightblue" points="261.888,-271.114 256.73,-280.368 266.534,-276.351 261.888,-271.114"/>
</g>
<!-- Node7 -->
<g id="node7" class="node"><title>Node7</title>
<g id="a_node7"><a xlink:href="ICEDTest_8H.html" target="_top" xlink:title="Testing object for ICED. ">
<polygon fill="none" stroke="black" points="271.5,-112.5 271.5,-131.5 342.5,-131.5 342.5,-112.5 271.5,-112.5"/>
<text text-anchor="middle" x="307" y="-119.5" font-family="Helvetica,sans-Serif" font-size="10.00">ICEDTest.H</text>
</a>
</g>
</g>
<!-- Node3&#45;&gt;Node7 -->
<g id="edge16" class="edge"><title>Node3&#45;&gt;Node7</title>
<path fill="none" stroke="midnightblue" d="M288.385,-277.291C328.903,-263.36 388.315,-235.755 415,-188 432.987,-155.81 380.507,-137.835 342.531,-129.308"/>
<polygon fill="midnightblue" stroke="midnightblue" points="287.177,-274.004 278.777,-280.462 289.37,-280.651 287.177,-274.004"/>
</g>
<!-- Node5 -->
<g id="node5" class="node"><title>Node5</title>
<g id="a_node5"><a xlink:href="DeviceModel_8hpp.html" target="_top" xlink:title="C++ header file for the DeviceModel class. ">
<polygon fill="none" stroke="black" points="105,-168.5 105,-187.5 197,-187.5 197,-168.5 105,-168.5"/>
<text text-anchor="middle" x="151" y="-175.5" font-family="Helvetica,sans-Serif" font-size="10.00">DeviceModel.hpp</text>
</a>
</g>
</g>
<!-- Node4&#45;&gt;Node5 -->
<g id="edge4" class="edge"><title>Node4&#45;&gt;Node5</title>
<path fill="none" stroke="midnightblue" d="M222.426,-219.177C204.761,-209.241 181.487,-196.149 166.386,-187.655"/>
<polygon fill="midnightblue" stroke="midnightblue" points="221.144,-222.472 231.576,-224.324 224.576,-216.371 221.144,-222.472"/>
</g>
<!-- Node4&#45;&gt;Node11 -->
<g id="edge10" class="edge"><title>Node4&#45;&gt;Node11</title>
<path fill="none" stroke="midnightblue" d="M205.266,-221.953C166.791,-211.768 110.481,-196.863 75.3244,-187.556"/>
<polygon fill="midnightblue" stroke="midnightblue" points="204.562,-225.387 215.125,-224.562 206.354,-218.62 204.562,-225.387"/>
</g>
<!-- Node4&#45;&gt;Node12 -->
<g id="edge11" class="edge"><title>Node4&#45;&gt;Node12</title>
<path fill="none" stroke="midnightblue" d="M276.007,-220.368C299.229,-210.255 331.163,-196.349 351.444,-187.516"/>
<polygon fill="midnightblue" stroke="midnightblue" points="274.419,-217.242 266.648,-224.444 277.214,-223.66 274.419,-217.242"/>
</g>
<!-- Node13 -->
<g id="node13" class="node"><title>Node13</title>
<g id="a_node13"><a xlink:href="Solver_8cpp.html" target="_top" xlink:title="C++ source code for the DeviceData class. ">
<polygon fill="none" stroke="black" points="215.5,-168.5 215.5,-187.5 278.5,-187.5 278.5,-168.5 215.5,-168.5"/>
<text text-anchor="middle" x="247" y="-175.5" font-family="Helvetica,sans-Serif" font-size="10.00">Solver.cpp</text>
</a>
</g>
</g>
<!-- Node4&#45;&gt;Node13 -->
<g id="edge12" class="edge"><title>Node4&#45;&gt;Node13</title>
<path fill="none" stroke="midnightblue" d="M247,-213.805C247,-204.91 247,-194.78 247,-187.751"/>
<polygon fill="midnightblue" stroke="midnightblue" points="243.5,-214.083 247,-224.083 250.5,-214.083 243.5,-214.083"/>
</g>
<!-- Node4&#45;&gt;Node7 -->
<g id="edge13" class="edge"><title>Node4&#45;&gt;Node7</title>
<path fill="none" stroke="midnightblue" d="M264.267,-217.033C272.132,-208.973 281.002,-198.658 287,-188 297.423,-169.479 303.076,-144.868 305.514,-131.888"/>
<polygon fill="midnightblue" stroke="midnightblue" points="261.574,-214.771 256.881,-224.27 266.474,-219.771 261.574,-214.771"/>
</g>
<!-- Node6 -->
<g id="node6" class="node"><title>Node6</title>
<g id="a_node6"><a xlink:href="DeviceModel_8cpp.html" target="_top" xlink:title="C++ source code for the DeviceData class. ">
<polygon fill="none" stroke="black" points="105,-112.5 105,-131.5 197,-131.5 197,-112.5 105,-112.5"/>
<text text-anchor="middle" x="151" y="-119.5" font-family="Helvetica,sans-Serif" font-size="10.00">DeviceModel.cpp</text>
</a>
</g>
</g>
<!-- Node5&#45;&gt;Node6 -->
<g id="edge5" class="edge"><title>Node5&#45;&gt;Node6</title>
<path fill="none" stroke="midnightblue" d="M151,-157.805C151,-148.91 151,-138.78 151,-131.751"/>
<polygon fill="midnightblue" stroke="midnightblue" points="147.5,-158.083 151,-168.083 154.5,-158.083 147.5,-158.083"/>
</g>
<!-- Node5&#45;&gt;Node7 -->
<g id="edge6" class="edge"><title>Node5&#45;&gt;Node7</title>
<path fill="none" stroke="midnightblue" d="M185.17,-165.172C214.544,-155.004 256.198,-140.585 282.397,-131.516"/>
<polygon fill="midnightblue" stroke="midnightblue" points="184.024,-161.865 175.719,-168.444 186.313,-168.48 184.024,-161.865"/>
</g>
<!-- Node8 -->
<g id="node8" class="node"><title>Node8</title>
<g id="a_node8"><a xlink:href="TestICED_8H.html" target="_top" xlink:title="Testing utilities for ICED. ">
<polygon fill="none" stroke="black" points="271.5,-56.5 271.5,-75.5 342.5,-75.5 342.5,-56.5 271.5,-56.5"/>
<text text-anchor="middle" x="307" y="-63.5" font-family="Helvetica,sans-Serif" font-size="10.00">TestICED.H</text>
</a>
</g>
</g>
<!-- Node7&#45;&gt;Node8 -->
<g id="edge7" class="edge"><title>Node7&#45;&gt;Node8</title>
<path fill="none" stroke="midnightblue" d="M307,-101.805C307,-92.9102 307,-82.7798 307,-75.7511"/>
<polygon fill="midnightblue" stroke="midnightblue" points="303.5,-102.083 307,-112.083 310.5,-102.083 303.5,-102.083"/>
</g>
<!-- Node9 -->
<g id="node9" class="node"><title>Node9</title>
<g id="a_node9"><a xlink:href="ParallelTestICED_8C.html" target="_top" xlink:title="Implements a command&#45;line interface for the ICED tests. ">
<polygon fill="none" stroke="black" points="202,-0.5 202,-19.5 306,-19.5 306,-0.5 202,-0.5"/>
<text text-anchor="middle" x="254" y="-7.5" font-family="Helvetica,sans-Serif" font-size="10.00">ParallelTestICED.C</text>
</a>
</g>
</g>
<!-- Node8&#45;&gt;Node9 -->
<g id="edge8" class="edge"><title>Node8&#45;&gt;Node9</title>
<path fill="none" stroke="midnightblue" d="M291.019,-48.7175C281.678,-39.1997 270.254,-27.5608 262.589,-19.7511"/>
<polygon fill="midnightblue" stroke="midnightblue" points="288.746,-51.3978 298.248,-56.083 293.741,-46.4945 288.746,-51.3978"/>
</g>
<!-- Node10 -->
<g id="node10" class="node"><title>Node10</title>
<g id="a_node10"><a xlink:href="TestICED_8C.html" target="_top" xlink:title="Implements a command&#45;line interface for the ICED tests. ">
<polygon fill="none" stroke="black" points="324.5,-0.5 324.5,-19.5 395.5,-19.5 395.5,-0.5 324.5,-0.5"/>
<text text-anchor="middle" x="360" y="-7.5" font-family="Helvetica,sans-Serif" font-size="10.00">TestICED.C</text>
</a>
</g>
</g>
<!-- Node8&#45;&gt;Node10 -->
<g id="edge9" class="edge"><title>Node8&#45;&gt;Node10</title>
<path fill="none" stroke="midnightblue" d="M322.981,-48.7175C332.322,-39.1997 343.746,-27.5608 351.411,-19.7511"/>
<polygon fill="midnightblue" stroke="midnightblue" points="320.259,-46.4945 315.752,-56.083 325.254,-51.3978 320.259,-46.4945"/>
</g>
</g>
</svg>
        <g id="navigator" transform="translate(0 0)" fill="#404254">
                <rect fill="#f2f5e9" fill-opacity="0.5" stroke="#606060" stroke-width=".5" x="0" y="0" width="60" height="60"/>
                <use id="zoomplus" xlink:href="#zoomPlus" x="17" y="9" onmousedown="handleZoom(evt,'in')"/>
                <use id="zoomminus" xlink:href="#zoomMin" x="42" y="9" onmousedown="handleZoom(evt,'out')"/>
                <use id="reset" xlink:href="#resetDef" x="30" y="36" onmousedown="handleReset()"/>
                <g id="arrowUp" xlink:href="#dirArrow" transform="translate(30 24)" onmousedown="handlePan(0,-1)">
                  <use xlink:href="#rim" fill="#404040">
                        <set attributeName="fill" to="#808080" begin="arrowUp.mouseover" end="arrowUp.mouseout"/>
                  </use>
                  <path fill="none" stroke="white" stroke-width="1.5" d="M0,-3.0v7 M-2.5,-0.5L0,-3.0L2.5,-0.5"/>
                </g>
                <g id="arrowRight" xlink:href="#dirArrow" transform="rotate(90) translate(36 -43)" onmousedown="handlePan(1,0)">
                  <use xlink:href="#rim" fill="#404040">
                        <set attributeName="fill" to="#808080" begin="arrowRight.mouseover" end="arrowRight.mouseout"/>
                  </use>
                  <path fill="none" stroke="white" stroke-width="1.5" d="M0,-3.0v7 M-2.5,-0.5L0,-3.0L2.5,-0.5"/>
                </g>
                <g id="arrowDown" xlink:href="#dirArrow" transform="rotate(180) translate(-30 -48)" onmousedown="handlePan(0,1)">
                  <use xlink:href="#rim" fill="#404040">
                        <set attributeName="fill" to="#808080" begin="arrowDown.mouseover" end="arrowDown.mouseout"/>
                  </use>
                  <path fill="none" stroke="white" stroke-width="1.5" d="M0,-3.0v7 M-2.5,-0.5L0,-3.0L2.5,-0.5"/>
                </g>
                <g id="arrowLeft" xlink:href="#dirArrow" transform="rotate(270) translate(-36 17)" onmousedown="handlePan(-1,0)">
                  <use xlink:href="#rim" fill="#404040">
                        <set attributeName="fill" to="#808080" begin="arrowLeft.mouseover" end="arrowLeft.mouseout"/>
                  </use>
                  <path fill="none" stroke="white" stroke-width="1.5" d="M0,-3.0v7 M-2.5,-0.5L0,-3.0L2.5,-0.5"/>
                </g>
        </g>
        <svg viewBox="0 0 15 15" width="100%" height="30px" preserveAspectRatio="xMaxYMin meet">
         <g id="arrow_out" transform="scale(0.3 0.3)">
          <a xlink:href="PhysicsModule_8hpp__dep__incl_org.svg" target="_base">
           <rect id="button" ry="5" rx="5" y="6" x="6" height="38" width="38"
                fill="#f2f5e9" fill-opacity="0.5" stroke="#606060" stroke-width="1.0"/>
           <path id="arrow"
             d="M 11.500037,31.436501 C 11.940474,20.09759 22.043105,11.32322 32.158766,21.979434 L 37.068811,17.246167 C 37.068811,17.246167 37.088388,32 37.088388,32 L 22.160133,31.978069 C 22.160133,31.978069 26.997745,27.140456 26.997745,27.140456 C 18.528582,18.264221 13.291696,25.230495 11.500037,31.436501 z"
             style="fill:#404040;"/>
          </a>
         </g>
        </svg>
</svg>
