<?xml version="1.0" encoding="UTF-8" standalone="no"?>
<!DOCTYPE svg PUBLIC "-//W3C//DTD SVG 1.1//EN"
 "http://www.w3.org/Graphics/SVG/1.1/DTD/svg11.dtd">
<!-- Generated by graphviz version 2.30.1 (20150305.2338)
 -->
<!-- Title: SolutionData.hpp Pages: 1 -->
<svg width="975pt" height="140pt"
 viewBox="0.00 0.00 975.00 140.00" xmlns="http://www.w3.org/2000/svg" xmlns:xlink="http://www.w3.org/1999/xlink">
<g id="graph0" class="graph" transform="scale(1 1) rotate(0) translate(4 136)">
<title>SolutionData.hpp</title>
<!-- Node1 -->
<g id="node1" class="node"><title>Node1</title>
<polygon fill="#bfbfbf" stroke="black" points="463,-112.5 463,-131.5 555,-131.5 555,-112.5 463,-112.5"/>
<text text-anchor="middle" x="509" y="-119.5" font-family="Helvetica,sans-Serif" font-size="10.00">SolutionData.hpp</text>
</g>
<!-- Node2 -->
<g id="node2" class="node"><title>Node2</title>
<polygon fill="none" stroke="#bfbfbf" points="-0.5,-56.5 -0.5,-75.5 76.5,-75.5 76.5,-56.5 -0.5,-56.5"/>
<text text-anchor="middle" x="38" y="-63.5" font-family="Helvetica,sans-Serif" font-size="10.00">Parameters.H</text>
</g>
<!-- Node1&#45;&gt;Node2 -->
<g id="edge1" class="edge"><title>Node1&#45;&gt;Node2</title>
<path fill="none" stroke="midnightblue" d="M462.843,-117.298C386.755,-110.931 230.027,-96.7064 87.0013,-76.0341"/>
<polygon fill="midnightblue" stroke="midnightblue" points="87.1291,-72.5157 76.7284,-74.5345 86.1179,-79.4423 87.1291,-72.5157"/>
</g>
<!-- Node3 -->
<g id="node3" class="node"><title>Node3</title>
<g id="a_node3"><a xlink:href="HalfCell_8hpp.html" target="_top" xlink:title="Program interface for the monolithic battery simulation software. ">
<polygon fill="none" stroke="black" points="94.5,-56.5 94.5,-75.5 165.5,-75.5 165.5,-56.5 94.5,-56.5"/>
<text text-anchor="middle" x="130" y="-63.5" font-family="Helvetica,sans-Serif" font-size="10.00">HalfCell.hpp</text>
</a>
</g>
</g>
<!-- Node1&#45;&gt;Node3 -->
<g id="edge2" class="edge"><title>Node1&#45;&gt;Node3</title>
<path fill="none" stroke="midnightblue" d="M462.939,-115.732C400.344,-108.367 284.705,-94.0281 175.984,-76.0702"/>
<polygon fill="midnightblue" stroke="midnightblue" points="176.263,-72.5685 165.824,-74.3779 175.113,-79.4734 176.263,-72.5685"/>
</g>
<!-- Node6 -->
<g id="node6" class="node"><title>Node6</title>
<polygon fill="none" stroke="#bfbfbf" points="183.5,-56.5 183.5,-75.5 296.5,-75.5 296.5,-56.5 183.5,-56.5"/>
<text text-anchor="middle" x="240" y="-63.5" font-family="Helvetica,sans-Serif" font-size="10.00">Epetra_SerialComm.h</text>
</g>
<!-- Node1&#45;&gt;Node6 -->
<g id="edge5" class="edge"><title>Node1&#45;&gt;Node6</title>
<path fill="none" stroke="midnightblue" d="M466.376,-112.444C419.253,-102.984 343.308,-87.7384 292.541,-77.5472"/>
<polygon fill="midnightblue" stroke="midnightblue" points="292.918,-74.0531 282.424,-75.5164 291.54,-80.9162 292.918,-74.0531"/>
</g>
<!-- Node7 -->
<g id="node7" class="node"><title>Node7</title>
<polygon fill="none" stroke="#bfbfbf" points="314.5,-56.5 314.5,-75.5 391.5,-75.5 391.5,-56.5 314.5,-56.5"/>
<text text-anchor="middle" x="353" y="-63.5" font-family="Helvetica,sans-Serif" font-size="10.00">Epetra_Map.h</text>
</g>
<!-- Node1&#45;&gt;Node7 -->
<g id="edge6" class="edge"><title>Node1&#45;&gt;Node7</title>
<path fill="none" stroke="midnightblue" d="M484.281,-112.444C458.152,-103.399 416.741,-89.064 387.424,-78.9158"/>
<polygon fill="midnightblue" stroke="midnightblue" points="388.198,-75.4801 377.603,-75.5164 385.908,-82.0951 388.198,-75.4801"/>
</g>
<!-- Node8 -->
<g id="node8" class="node"><title>Node8</title>
<polygon fill="none" stroke="#bfbfbf" points="409.5,-56.5 409.5,-75.5 496.5,-75.5 496.5,-56.5 409.5,-56.5"/>
<text text-anchor="middle" x="453" y="-63.5" font-family="Helvetica,sans-Serif" font-size="10.00">Epetra_Vector.h</text>
</g>
<!-- Node1&#45;&gt;Node8 -->
<g id="edge7" class="edge"><title>Node1&#45;&gt;Node8</title>
<path fill="none" stroke="midnightblue" d="M500.003,-112.324C491.806,-104.42 479.494,-92.5482 469.528,-82.9377"/>
<polygon fill="midnightblue" stroke="midnightblue" points="471.789,-80.2558 462.161,-75.8339 466.93,-85.2947 471.789,-80.2558"/>
</g>
<!-- Node9 -->
<g id="node9" class="node"><title>Node9</title>
<polygon fill="none" stroke="#bfbfbf" points="514.5,-56.5 514.5,-75.5 615.5,-75.5 615.5,-56.5 514.5,-56.5"/>
<text text-anchor="middle" x="565" y="-63.5" font-family="Helvetica,sans-Serif" font-size="10.00">Epetra_CrsMatrix.h</text>
</g>
<!-- Node1&#45;&gt;Node9 -->
<g id="edge8" class="edge"><title>Node1&#45;&gt;Node9</title>
<path fill="none" stroke="midnightblue" d="M517.997,-112.324C526.194,-104.42 538.506,-92.5482 548.472,-82.9377"/>
<polygon fill="midnightblue" stroke="midnightblue" points="551.07,-85.2947 555.839,-75.8339 546.211,-80.2558 551.07,-85.2947"/>
</g>
<!-- Node10 -->
<g id="node10" class="node"><title>Node10</title>
<polygon fill="none" stroke="#bfbfbf" points="634,-56.5 634,-75.5 740,-75.5 740,-56.5 634,-56.5"/>
<text text-anchor="middle" x="687" y="-63.5" font-family="Helvetica,sans-Serif" font-size="10.00">Epetra_RowMatrix.h</text>
</g>
<!-- Node1&#45;&gt;Node10 -->
<g id="edge9" class="edge"><title>Node1&#45;&gt;Node10</title>
<path fill="none" stroke="midnightblue" d="M537.205,-112.444C567.41,-103.28 615.511,-88.6876 649.029,-78.5192"/>
<polygon fill="midnightblue" stroke="midnightblue" points="650.374,-81.7688 658.927,-75.5164 648.342,-75.0703 650.374,-81.7688"/>
</g>
<!-- Node11 -->
<g id="node11" class="node"><title>Node11</title>
<polygon fill="none" stroke="#bfbfbf" points="758.5,-56.5 758.5,-75.5 845.5,-75.5 845.5,-56.5 758.5,-56.5"/>
<text text-anchor="middle" x="802" y="-63.5" font-family="Helvetica,sans-Serif" font-size="10.00">Epetra_Export.h</text>
</g>
<!-- Node1&#45;&gt;Node11 -->
<g id="edge10" class="edge"><title>Node1&#45;&gt;Node11</title>
<path fill="none" stroke="midnightblue" d="M555.104,-112.503C607.445,-102.857 692.731,-87.1383 748.103,-76.9331"/>
<polygon fill="midnightblue" stroke="midnightblue" points="748.88,-80.3491 758.08,-75.0945 747.611,-73.465 748.88,-80.3491"/>
</g>
<!-- Node12 -->
<g id="node12" class="node"><title>Node12</title>
<polygon fill="none" stroke="#bfbfbf" points="864,-56.5 864,-75.5 908,-75.5 908,-56.5 864,-56.5"/>
<text text-anchor="middle" x="886" y="-63.5" font-family="Helvetica,sans-Serif" font-size="10.00">vector</text>
</g>
<!-- Node1&#45;&gt;Node12 -->
<g id="edge11" class="edge"><title>Node1&#45;&gt;Node12</title>
<path fill="none" stroke="midnightblue" d="M555.111,-117.121C619.724,-111.218 740.96,-98.4364 853.871,-75.7211"/>
<polygon fill="midnightblue" stroke="midnightblue" points="854.624,-79.1398 863.721,-73.7096 853.223,-72.2813 854.624,-79.1398"/>
</g>
<!-- Node13 -->
<g id="node13" class="node"><title>Node13</title>
<polygon fill="none" stroke="#bfbfbf" points="926.5,-56.5 926.5,-75.5 967.5,-75.5 967.5,-56.5 926.5,-56.5"/>
<text text-anchor="middle" x="947" y="-63.5" font-family="Helvetica,sans-Serif" font-size="10.00">string</text>
</g>
<!-- Node1&#45;&gt;Node13 -->
<g id="edge12" class="edge"><title>Node1&#45;&gt;Node13</title>
<path fill="none" stroke="midnightblue" d="M555.005,-118.654C629.226,-114.276 780.004,-102.931 916.655,-75.6847"/>
<polygon fill="midnightblue" stroke="midnightblue" points="917.363,-79.1124 926.468,-73.6953 915.972,-72.252 917.363,-79.1124"/>
</g>
<!-- Node4 -->
<g id="node4" class="node"><title>Node4</title>
<polygon fill="none" stroke="#bfbfbf" points="64.5,-0.5 64.5,-19.5 119.5,-19.5 119.5,-0.5 64.5,-0.5"/>
<text text-anchor="middle" x="92" y="-7.5" font-family="Helvetica,sans-Serif" font-size="10.00">Global.H</text>
</g>
<!-- Node3&#45;&gt;Node4 -->
<g id="edge3" class="edge"><title>Node3&#45;&gt;Node4</title>
<path fill="none" stroke="midnightblue" d="M123.725,-56.083C118.358,-48.4554 110.482,-37.2645 103.921,-27.9408"/>
<polygon fill="midnightblue" stroke="midnightblue" points="106.775,-25.9149 98.1582,-19.7511 101.051,-29.9434 106.775,-25.9149"/>
</g>
<!-- Node5 -->
<g id="node5" class="node"><title>Node5</title>
<polygon fill="none" stroke="#bfbfbf" points="138,-0.5 138,-19.5 196,-19.5 196,-0.5 138,-0.5"/>
<text text-anchor="middle" x="167" y="-7.5" font-family="Helvetica,sans-Serif" font-size="10.00">Profiler.H</text>
</g>
<!-- Node3&#45;&gt;Node5 -->
<g id="edge4" class="edge"><title>Node3&#45;&gt;Node5</title>
<path fill="none" stroke="midnightblue" d="M136.11,-56.083C141.282,-48.5341 148.846,-37.4948 155.194,-28.2298"/>
<polygon fill="midnightblue" stroke="midnightblue" points="158.239,-29.9787 161.004,-19.7511 152.464,-26.0221 158.239,-29.9787"/>
</g>
</g>
</svg>
