<?xml version="1.0" encoding="UTF-8" standalone="no"?>
<!DOCTYPE svg PUBLIC "-//W3C//DTD SVG 1.1//EN"
 "http://www.w3.org/Graphics/SVG/1.1/DTD/svg11.dtd">
<!-- Generated by graphviz version 2.30.1 (20150305.2338)
 -->
<!-- Title: SolutionData.cpp Pages: 1 -->
<svg width="975pt" height="196pt"
 viewBox="0.00 0.00 975.00 196.00" xmlns="http://www.w3.org/2000/svg" xmlns:xlink="http://www.w3.org/1999/xlink">
<g id="graph0" class="graph" transform="scale(1 1) rotate(0) translate(4 192)">
<title>SolutionData.cpp</title>
<!-- Node1 -->
<g id="node1" class="node"><title>Node1</title>
<polygon fill="#bfbfbf" stroke="black" points="249,-168.5 249,-187.5 341,-187.5 341,-168.5 249,-168.5"/>
<text text-anchor="middle" x="295" y="-175.5" font-family="Helvetica,sans-Serif" font-size="10.00">SolutionData.cpp</text>
</g>
<!-- Node2 -->
<g id="node2" class="node"><title>Node2</title>
<polygon fill="none" stroke="#bfbfbf" points="-0.5,-56.5 -0.5,-75.5 40.5,-75.5 40.5,-56.5 -0.5,-56.5"/>
<text text-anchor="middle" x="20" y="-63.5" font-family="Helvetica,sans-Serif" font-size="10.00">string</text>
</g>
<!-- Node1&#45;&gt;Node2 -->
<g id="edge1" class="edge"><title>Node1&#45;&gt;Node2</title>
<path fill="none" stroke="midnightblue" d="M273.421,-168.368C224.687,-148.875 106.012,-101.405 50.0913,-79.0365"/>
<polygon fill="midnightblue" stroke="midnightblue" points="51.3107,-75.7547 40.726,-75.2904 48.7109,-82.2541 51.3107,-75.7547"/>
</g>
<!-- Node3 -->
<g id="node3" class="node"><title>Node3</title>
<g id="a_node3"><a xlink:href="SolutionData_8hpp.html" target="_top" xlink:title="C++ header file for the SolutionData class. ">
<polygon fill="none" stroke="black" points="366,-112.5 366,-131.5 458,-131.5 458,-112.5 366,-112.5"/>
<text text-anchor="middle" x="412" y="-119.5" font-family="Helvetica,sans-Serif" font-size="10.00">SolutionData.hpp</text>
</a>
</g>
</g>
<!-- Node1&#45;&gt;Node3 -->
<g id="edge2" class="edge"><title>Node1&#45;&gt;Node3</title>
<path fill="none" stroke="midnightblue" d="M313.539,-168.444C332.623,-159.636 362.575,-145.812 384.436,-135.722"/>
<polygon fill="midnightblue" stroke="midnightblue" points="385.935,-138.885 393.548,-131.516 383.001,-132.529 385.935,-138.885"/>
</g>
<!-- Node4 -->
<g id="node4" class="node"><title>Node4</title>
<polygon fill="none" stroke="#bfbfbf" points="58.5,-56.5 58.5,-75.5 135.5,-75.5 135.5,-56.5 58.5,-56.5"/>
<text text-anchor="middle" x="97" y="-63.5" font-family="Helvetica,sans-Serif" font-size="10.00">Parameters.H</text>
</g>
<!-- Node3&#45;&gt;Node4 -->
<g id="edge3" class="edge"><title>Node3&#45;&gt;Node4</title>
<path fill="none" stroke="midnightblue" d="M365.65,-113.453C314.392,-105.048 229.096,-90.888 145.429,-76.0488"/>
<polygon fill="midnightblue" stroke="midnightblue" points="145.959,-72.5883 135.501,-74.2833 144.734,-79.4801 145.959,-72.5883"/>
</g>
<!-- Node5 -->
<g id="node5" class="node"><title>Node5</title>
<g id="a_node5"><a xlink:href="HalfCell_8hpp.html" target="_top" xlink:title="Program interface for the monolithic battery simulation software. ">
<polygon fill="none" stroke="black" points="153.5,-56.5 153.5,-75.5 224.5,-75.5 224.5,-56.5 153.5,-56.5"/>
<text text-anchor="middle" x="189" y="-63.5" font-family="Helvetica,sans-Serif" font-size="10.00">HalfCell.hpp</text>
</a>
</g>
</g>
<!-- Node3&#45;&gt;Node5 -->
<g id="edge4" class="edge"><title>Node3&#45;&gt;Node5</title>
<path fill="none" stroke="midnightblue" d="M376.665,-112.444C338.089,-103.102 276.215,-88.1194 234.147,-77.9326"/>
<polygon fill="midnightblue" stroke="midnightblue" points="234.713,-74.4683 224.17,-75.5164 233.065,-81.2717 234.713,-74.4683"/>
</g>
<!-- Node8 -->
<g id="node8" class="node"><title>Node8</title>
<polygon fill="none" stroke="#bfbfbf" points="242.5,-56.5 242.5,-75.5 355.5,-75.5 355.5,-56.5 242.5,-56.5"/>
<text text-anchor="middle" x="299" y="-63.5" font-family="Helvetica,sans-Serif" font-size="10.00">Epetra_SerialComm.h</text>
</g>
<!-- Node3&#45;&gt;Node8 -->
<g id="edge7" class="edge"><title>Node3&#45;&gt;Node8</title>
<path fill="none" stroke="midnightblue" d="M394.095,-112.444C375.746,-103.675 346.995,-89.9355 325.906,-79.8579"/>
<polygon fill="midnightblue" stroke="midnightblue" points="327.353,-76.6703 316.821,-75.5164 324.335,-82.9862 327.353,-76.6703"/>
</g>
<!-- Node9 -->
<g id="node9" class="node"><title>Node9</title>
<polygon fill="none" stroke="#bfbfbf" points="373.5,-56.5 373.5,-75.5 450.5,-75.5 450.5,-56.5 373.5,-56.5"/>
<text text-anchor="middle" x="412" y="-63.5" font-family="Helvetica,sans-Serif" font-size="10.00">Epetra_Map.h</text>
</g>
<!-- Node3&#45;&gt;Node9 -->
<g id="edge8" class="edge"><title>Node3&#45;&gt;Node9</title>
<path fill="none" stroke="midnightblue" d="M412,-112.083C412,-105.006 412,-94.8611 412,-85.9865"/>
<polygon fill="midnightblue" stroke="midnightblue" points="415.5,-85.751 412,-75.7511 408.5,-85.7511 415.5,-85.751"/>
</g>
<!-- Node10 -->
<g id="node10" class="node"><title>Node10</title>
<polygon fill="none" stroke="#bfbfbf" points="468.5,-56.5 468.5,-75.5 555.5,-75.5 555.5,-56.5 468.5,-56.5"/>
<text text-anchor="middle" x="512" y="-63.5" font-family="Helvetica,sans-Serif" font-size="10.00">Epetra_Vector.h</text>
</g>
<!-- Node3&#45;&gt;Node10 -->
<g id="edge9" class="edge"><title>Node3&#45;&gt;Node10</title>
<path fill="none" stroke="midnightblue" d="M428.067,-112.324C443.958,-103.743 468.507,-90.486 486.958,-80.5224"/>
<polygon fill="midnightblue" stroke="midnightblue" points="488.837,-83.4857 495.973,-75.6545 485.511,-77.3264 488.837,-83.4857"/>
</g>
<!-- Node11 -->
<g id="node11" class="node"><title>Node11</title>
<polygon fill="none" stroke="#bfbfbf" points="573.5,-56.5 573.5,-75.5 674.5,-75.5 674.5,-56.5 573.5,-56.5"/>
<text text-anchor="middle" x="624" y="-63.5" font-family="Helvetica,sans-Serif" font-size="10.00">Epetra_CrsMatrix.h</text>
</g>
<!-- Node3&#45;&gt;Node11 -->
<g id="edge10" class="edge"><title>Node3&#45;&gt;Node11</title>
<path fill="none" stroke="midnightblue" d="M445.592,-112.444C482.187,-103.122 540.838,-88.1828 580.826,-77.9972"/>
<polygon fill="midnightblue" stroke="midnightblue" points="581.739,-81.3766 590.565,-75.5164 580.011,-74.5932 581.739,-81.3766"/>
</g>
<!-- Node12 -->
<g id="node12" class="node"><title>Node12</title>
<polygon fill="none" stroke="#bfbfbf" points="693,-56.5 693,-75.5 799,-75.5 799,-56.5 693,-56.5"/>
<text text-anchor="middle" x="746" y="-63.5" font-family="Helvetica,sans-Serif" font-size="10.00">Epetra_RowMatrix.h</text>
</g>
<!-- Node3&#45;&gt;Node12 -->
<g id="edge11" class="edge"><title>Node3&#45;&gt;Node12</title>
<path fill="none" stroke="midnightblue" d="M458.091,-113.548C516.525,-104.101 617.528,-87.7709 683.035,-77.1799"/>
<polygon fill="midnightblue" stroke="midnightblue" points="683.919,-80.5826 693.232,-75.5313 682.802,-73.6723 683.919,-80.5826"/>
</g>
<!-- Node13 -->
<g id="node13" class="node"><title>Node13</title>
<polygon fill="none" stroke="#bfbfbf" points="817.5,-56.5 817.5,-75.5 904.5,-75.5 904.5,-56.5 817.5,-56.5"/>
<text text-anchor="middle" x="861" y="-63.5" font-family="Helvetica,sans-Serif" font-size="10.00">Epetra_Export.h</text>
</g>
<!-- Node3&#45;&gt;Node13 -->
<g id="edge12" class="edge"><title>Node3&#45;&gt;Node13</title>
<path fill="none" stroke="midnightblue" d="M458.137,-116.589C530.307,-109.508 674.51,-94.6254 807.403,-76.0112"/>
<polygon fill="midnightblue" stroke="midnightblue" points="807.944,-79.4696 817.357,-74.6068 806.966,-72.5382 807.944,-79.4696"/>
</g>
<!-- Node14 -->
<g id="node14" class="node"><title>Node14</title>
<polygon fill="none" stroke="#bfbfbf" points="923,-56.5 923,-75.5 967,-75.5 967,-56.5 923,-56.5"/>
<text text-anchor="middle" x="945" y="-63.5" font-family="Helvetica,sans-Serif" font-size="10.00">vector</text>
</g>
<!-- Node3&#45;&gt;Node14 -->
<g id="edge13" class="edge"><title>Node3&#45;&gt;Node14</title>
<path fill="none" stroke="midnightblue" d="M458.319,-119.692C545.484,-116.615 739.862,-106.828 912.703,-75.6652"/>
<polygon fill="midnightblue" stroke="midnightblue" points="913.538,-79.0706 922.744,-73.8261 912.277,-72.1852 913.538,-79.0706"/>
</g>
<!-- Node3&#45;&gt;Node2 -->
<g id="edge14" class="edge"><title>Node3&#45;&gt;Node2</title>
<path fill="none" stroke="midnightblue" d="M365.719,-117.907C298.198,-112.818 168.695,-100.877 50.7128,-76.0609"/>
<polygon fill="midnightblue" stroke="midnightblue" points="51.3025,-72.6079 40.7914,-73.9374 49.8374,-79.4529 51.3025,-72.6079"/>
</g>
<!-- Node6 -->
<g id="node6" class="node"><title>Node6</title>
<polygon fill="none" stroke="#bfbfbf" points="123.5,-0.5 123.5,-19.5 178.5,-19.5 178.5,-0.5 123.5,-0.5"/>
<text text-anchor="middle" x="151" y="-7.5" font-family="Helvetica,sans-Serif" font-size="10.00">Global.H</text>
</g>
<!-- Node5&#45;&gt;Node6 -->
<g id="edge5" class="edge"><title>Node5&#45;&gt;Node6</title>
<path fill="none" stroke="midnightblue" d="M182.725,-56.083C177.358,-48.4554 169.482,-37.2645 162.921,-27.9408"/>
<polygon fill="midnightblue" stroke="midnightblue" points="165.775,-25.9149 157.158,-19.7511 160.051,-29.9434 165.775,-25.9149"/>
</g>
<!-- Node7 -->
<g id="node7" class="node"><title>Node7</title>
<polygon fill="none" stroke="#bfbfbf" points="197,-0.5 197,-19.5 255,-19.5 255,-0.5 197,-0.5"/>
<text text-anchor="middle" x="226" y="-7.5" font-family="Helvetica,sans-Serif" font-size="10.00">Profiler.H</text>
</g>
<!-- Node5&#45;&gt;Node7 -->
<g id="edge6" class="edge"><title>Node5&#45;&gt;Node7</title>
<path fill="none" stroke="midnightblue" d="M195.11,-56.083C200.282,-48.5341 207.846,-37.4948 214.194,-28.2298"/>
<polygon fill="midnightblue" stroke="midnightblue" points="217.239,-29.9787 220.004,-19.7511 211.464,-26.0221 217.239,-29.9787"/>
</g>
</g>
</svg>
