<?xml version="1.0" encoding="UTF-8" standalone="no"?>
<!DOCTYPE svg PUBLIC "-//W3C//DTD SVG 1.1//EN"
 "http://www.w3.org/Graphics/SVG/1.1/DTD/svg11.dtd">
<!-- Generated by graphviz version 2.30.1 (20150305.2338)
 -->
<!-- Title: SolutionData.hpp Pages: 1 -->
<svg width="1711pt" height="420pt"
 viewBox="0.00 0.00 1711.00 420.00" xmlns="http://www.w3.org/2000/svg" xmlns:xlink="http://www.w3.org/1999/xlink">
<g id="graph0" class="graph" transform="scale(1 1) rotate(0) translate(4 416)">
<title>SolutionData.hpp</title>
<!-- Node1 -->
<g id="node1" class="node"><title>Node1</title>
<polygon fill="#bfbfbf" stroke="black" points="856,-392.5 856,-411.5 948,-411.5 948,-392.5 856,-392.5"/>
<text text-anchor="middle" x="902" y="-399.5" font-family="Helvetica,sans-Serif" font-size="10.00">SolutionData.hpp</text>
</g>
<!-- Node2 -->
<g id="node2" class="node"><title>Node2</title>
<g id="a_node2"><a xlink:href="DeviceComponent_8hpp.html" target="_top" xlink:title="C++ header file for the DeviceComponent class. ">
<polygon fill="none" stroke="black" points="232,-336.5 232,-355.5 348,-355.5 348,-336.5 232,-336.5"/>
<text text-anchor="middle" x="290" y="-343.5" font-family="Helvetica,sans-Serif" font-size="10.00">DeviceComponent.hpp</text>
</a>
</g>
</g>
<!-- Node1&#45;&gt;Node2 -->
<g id="edge1" class="edge"><title>Node1&#45;&gt;Node2</title>
<path fill="none" stroke="midnightblue" d="M845.92,-397.32C747.026,-390.618 535.22,-375.315 357,-356 354.083,-355.684 351.097,-355.344 348.083,-354.987"/>
<polygon fill="midnightblue" stroke="midnightblue" points="845.776,-400.818 855.989,-397.999 846.247,-393.834 845.776,-400.818"/>
</g>
<!-- Node3 -->
<g id="node3" class="node"><title>Node3</title>
<g id="a_node3"><a xlink:href="DeviceData_8hpp.html" target="_top" xlink:title="C++ header file for the DeviceData class. ">
<polygon fill="none" stroke="black" points="203.5,-280.5 203.5,-299.5 290.5,-299.5 290.5,-280.5 203.5,-280.5"/>
<text text-anchor="middle" x="247" y="-287.5" font-family="Helvetica,sans-Serif" font-size="10.00">DeviceData.hpp</text>
</a>
</g>
</g>
<!-- Node1&#45;&gt;Node3 -->
<g id="edge18" class="edge"><title>Node1&#45;&gt;Node3</title>
<path fill="none" stroke="midnightblue" d="M845.623,-401.566C690.349,-402.54 265.146,-401.031 223,-356 207.875,-339.84 226.891,-313.331 238.783,-299.698"/>
<polygon fill="midnightblue" stroke="midnightblue" points="845.915,-405.064 855.89,-401.496 845.867,-398.065 845.915,-405.064"/>
</g>
<!-- Node15 -->
<g id="node15" class="node"><title>Node15</title>
<g id="a_node15"><a xlink:href="ActivityCoefficient_8cpp.html" target="_top" xlink:title="C++ source file for ActivityCoefficient module functions. ">
<polygon fill="none" stroke="black" points="366,-336.5 366,-355.5 482,-355.5 482,-336.5 366,-336.5"/>
<text text-anchor="middle" x="424" y="-343.5" font-family="Helvetica,sans-Serif" font-size="10.00">ActivityCoefficient.cpp</text>
</a>
</g>
</g>
<!-- Node1&#45;&gt;Node15 -->
<g id="edge19" class="edge"><title>Node1&#45;&gt;Node15</title>
<path fill="none" stroke="midnightblue" d="M845.479,-395.254C766.201,-387.093 617.495,-371.419 491,-356 488.087,-355.645 485.105,-355.273 482.094,-354.892"/>
<polygon fill="midnightblue" stroke="midnightblue" points="845.424,-398.766 855.73,-396.307 846.14,-391.803 845.424,-398.766"/>
</g>
<!-- Node16 -->
<g id="node16" class="node"><title>Node16</title>
<g id="a_node16"><a xlink:href="ButlerVolmer_8cpp.html" target="_top" xlink:title="C++ source file for ButlerVolmer module functions. ">
<polygon fill="none" stroke="black" points="500,-336.5 500,-355.5 592,-355.5 592,-336.5 500,-336.5"/>
<text text-anchor="middle" x="546" y="-343.5" font-family="Helvetica,sans-Serif" font-size="10.00">ButlerVolmer.cpp</text>
</a>
</g>
</g>
<!-- Node1&#45;&gt;Node16 -->
<g id="edge20" class="edge"><title>Node1&#45;&gt;Node16</title>
<path fill="none" stroke="midnightblue" d="M845.911,-392.766C785.622,-383.873 686.986,-369.203 602,-356 598.789,-355.501 595.475,-354.981 592.139,-354.454"/>
<polygon fill="midnightblue" stroke="midnightblue" points="845.576,-396.254 855.979,-394.25 846.596,-389.329 845.576,-396.254"/>
</g>
<!-- Node17 -->
<g id="node17" class="node"><title>Node17</title>
<g id="a_node17"><a xlink:href="ConcentrationDiffusion_8cpp.html" target="_top" xlink:title="C++ source file for ConcentrationDiffusion module functions. ">
<polygon fill="none" stroke="black" points="610.5,-336.5 610.5,-355.5 745.5,-355.5 745.5,-336.5 610.5,-336.5"/>
<text text-anchor="middle" x="678" y="-343.5" font-family="Helvetica,sans-Serif" font-size="10.00">ConcentrationDiffusion.cpp</text>
</a>
</g>
</g>
<!-- Node1&#45;&gt;Node17 -->
<g id="edge21" class="edge"><title>Node1&#45;&gt;Node17</title>
<path fill="none" stroke="midnightblue" d="M856.737,-390.088C814.418,-379.887 752.091,-364.861 713.327,-355.516"/>
<polygon fill="midnightblue" stroke="midnightblue" points="855.965,-393.502 866.507,-392.444 857.605,-386.697 855.965,-393.502"/>
</g>
<!-- Node18 -->
<g id="node18" class="node"><title>Node18</title>
<g id="a_node18"><a xlink:href="Diffusion_8cpp.html" target="_top" xlink:title="C++ source file for Diffusion module function. ">
<polygon fill="none" stroke="black" points="764,-336.5 764,-355.5 838,-355.5 838,-336.5 764,-336.5"/>
<text text-anchor="middle" x="801" y="-343.5" font-family="Helvetica,sans-Serif" font-size="10.00">Diffusion.cpp</text>
</a>
</g>
</g>
<!-- Node1&#45;&gt;Node18 -->
<g id="edge22" class="edge"><title>Node1&#45;&gt;Node18</title>
<path fill="none" stroke="midnightblue" d="M876.917,-387.59C858.243,-377.605 833.296,-364.267 817.187,-355.655"/>
<polygon fill="midnightblue" stroke="midnightblue" points="875.304,-390.696 885.773,-392.324 878.604,-384.522 875.304,-390.696"/>
</g>
<!-- Node12 -->
<g id="node12" class="node"><title>Node12</title>
<g id="a_node12"><a xlink:href="HalfCell_8cpp.html" target="_top" xlink:title="Solver for a battery half cell. ">
<polygon fill="none" stroke="black" points="335.5,-168.5 335.5,-187.5 406.5,-187.5 406.5,-168.5 335.5,-168.5"/>
<text text-anchor="middle" x="371" y="-175.5" font-family="Helvetica,sans-Serif" font-size="10.00">HalfCell.cpp</text>
</a>
</g>
</g>
<!-- Node1&#45;&gt;Node12 -->
<g id="edge23" class="edge"><title>Node1&#45;&gt;Node12</title>
<path fill="none" stroke="midnightblue" d="M891.158,-383.448C881.301,-368.839 865.496,-348.48 847,-336 701.651,-237.928 490.211,-196.975 406.772,-183.983"/>
<polygon fill="midnightblue" stroke="midnightblue" points="888.373,-385.586 896.746,-392.078 894.249,-381.781 888.373,-385.586"/>
</g>
<!-- Node19 -->
<g id="node19" class="node"><title>Node19</title>
<g id="a_node19"><a xlink:href="Intercalation_8cpp.html" target="_top" xlink:title="C++ source file for Intercalation module functions. ">
<polygon fill="none" stroke="black" points="894.5,-336.5 894.5,-355.5 983.5,-355.5 983.5,-336.5 894.5,-336.5"/>
<text text-anchor="middle" x="939" y="-343.5" font-family="Helvetica,sans-Serif" font-size="10.00">Intercalation.cpp</text>
</a>
</g>
</g>
<!-- Node1&#45;&gt;Node19 -->
<g id="edge24" class="edge"><title>Node1&#45;&gt;Node19</title>
<path fill="none" stroke="midnightblue" d="M913.946,-383.566C920.312,-374.275 927.867,-363.248 933.004,-355.751"/>
<polygon fill="midnightblue" stroke="midnightblue" points="910.875,-381.855 908.11,-392.083 916.649,-385.812 910.875,-381.855"/>
</g>
<!-- Node20 -->
<g id="node20" class="node"><title>Node20</title>
<g id="a_node20"><a xlink:href="IonMigration_8cpp.html" target="_top" xlink:title="C++ source file for ionMigration module functions. ">
<polygon fill="none" stroke="black" points="1001.5,-336.5 1001.5,-355.5 1090.5,-355.5 1090.5,-336.5 1001.5,-336.5"/>
<text text-anchor="middle" x="1046" y="-343.5" font-family="Helvetica,sans-Serif" font-size="10.00">IonMigration.cpp</text>
</a>
</g>
</g>
<!-- Node1&#45;&gt;Node20 -->
<g id="edge25" class="edge"><title>Node1&#45;&gt;Node20</title>
<path fill="none" stroke="midnightblue" d="M934.251,-388.906C961.324,-378.754 999.317,-364.506 1023.29,-355.516"/>
<polygon fill="midnightblue" stroke="midnightblue" points="932.952,-385.655 924.817,-392.444 935.409,-392.209 932.952,-385.655"/>
</g>
<!-- Node21 -->
<g id="node21" class="node"><title>Node21</title>
<g id="a_node21"><a xlink:href="OhmsLawElectrolyte_8cpp.html" target="_top" xlink:title="C++ source file for OhmsLawElectrolyte module functions. ">
<polygon fill="none" stroke="black" points="1109,-336.5 1109,-355.5 1235,-355.5 1235,-336.5 1109,-336.5"/>
<text text-anchor="middle" x="1172" y="-343.5" font-family="Helvetica,sans-Serif" font-size="10.00">OhmsLawElectrolyte.cpp</text>
</a>
</g>
</g>
<!-- Node1&#45;&gt;Node21 -->
<g id="edge26" class="edge"><title>Node1&#45;&gt;Node21</title>
<path fill="none" stroke="midnightblue" d="M954.633,-390.473C1005.66,-380.268 1082.1,-364.979 1129.42,-355.516"/>
<polygon fill="midnightblue" stroke="midnightblue" points="953.902,-387.05 944.782,-392.444 955.275,-393.914 953.902,-387.05"/>
</g>
<!-- Node22 -->
<g id="node22" class="node"><title>Node22</title>
<g id="a_node22"><a xlink:href="OhmsLawSolid_8cpp.html" target="_top" xlink:title="C++ source file for OhmsLawObject module functions. ">
<polygon fill="none" stroke="black" points="1253.5,-336.5 1253.5,-355.5 1354.5,-355.5 1354.5,-336.5 1253.5,-336.5"/>
<text text-anchor="middle" x="1304" y="-343.5" font-family="Helvetica,sans-Serif" font-size="10.00">OhmsLawSolid.cpp</text>
</a>
</g>
</g>
<!-- Node1&#45;&gt;Node22 -->
<g id="edge27" class="edge"><title>Node1&#45;&gt;Node22</title>
<path fill="none" stroke="midnightblue" d="M958.268,-393.913C1026.08,-385.298 1143.46,-370.154 1244,-356 1247.02,-355.574 1250.13,-355.129 1253.27,-354.675"/>
<polygon fill="midnightblue" stroke="midnightblue" points="957.706,-390.456 948.226,-395.187 958.587,-397.4 957.706,-390.456"/>
</g>
<!-- Node23 -->
<g id="node23" class="node"><title>Node23</title>
<g id="a_node23"><a xlink:href="SolutionData_8cpp.html" target="_top" xlink:title="C++ source code for the SolutionData class. ">
<polygon fill="none" stroke="black" points="1373,-336.5 1373,-355.5 1465,-355.5 1465,-336.5 1373,-336.5"/>
<text text-anchor="middle" x="1419" y="-343.5" font-family="Helvetica,sans-Serif" font-size="10.00">SolutionData.cpp</text>
</a>
</g>
</g>
<!-- Node1&#45;&gt;Node23 -->
<g id="edge28" class="edge"><title>Node1&#45;&gt;Node23</title>
<path fill="none" stroke="midnightblue" d="M958.42,-396.628C1045.44,-389.628 1217.58,-374.765 1363,-356 1366.22,-355.584 1369.55,-355.126 1372.89,-354.643"/>
<polygon fill="midnightblue" stroke="midnightblue" points="957.926,-393.156 948.237,-397.442 958.484,-400.134 957.926,-393.156"/>
</g>
<!-- Node24 -->
<g id="node24" class="node"><title>Node24</title>
<g id="a_node24"><a xlink:href="TransferenceNumber_8cpp.html" target="_top" xlink:title="C++ source file for TransferenceNumber module functions. ">
<polygon fill="none" stroke="black" points="1483.5,-336.5 1483.5,-355.5 1610.5,-355.5 1610.5,-336.5 1483.5,-336.5"/>
<text text-anchor="middle" x="1547" y="-343.5" font-family="Helvetica,sans-Serif" font-size="10.00">TransferenceNumber.cpp</text>
</a>
</g>
</g>
<!-- Node1&#45;&gt;Node24 -->
<g id="edge29" class="edge"><title>Node1&#45;&gt;Node24</title>
<path fill="none" stroke="midnightblue" d="M958.162,-397.408C1060.74,-390.663 1285.24,-375.052 1474,-356 1477.05,-355.692 1480.17,-355.363 1483.32,-355.019"/>
<polygon fill="midnightblue" stroke="midnightblue" points="957.781,-393.925 948.031,-398.071 958.238,-400.91 957.781,-393.925"/>
</g>
<!-- Node25 -->
<g id="node25" class="node"><title>Node25</title>
<g id="a_node25"><a xlink:href="WallFlux_8cpp.html" target="_top" xlink:title="C++ source file for butlerVolmer module functions. ">
<polygon fill="none" stroke="black" points="1629,-336.5 1629,-355.5 1703,-355.5 1703,-336.5 1629,-336.5"/>
<text text-anchor="middle" x="1666" y="-343.5" font-family="Helvetica,sans-Serif" font-size="10.00">WallFlux.cpp</text>
</a>
</g>
</g>
<!-- Node1&#45;&gt;Node25 -->
<g id="edge30" class="edge"><title>Node1&#45;&gt;Node25</title>
<path fill="none" stroke="midnightblue" d="M958.491,-399.882C1079.86,-396.948 1374.33,-386.978 1619,-356 1622.21,-355.593 1625.54,-355.101 1628.87,-354.56"/>
<polygon fill="midnightblue" stroke="midnightblue" points="958.241,-396.387 948.326,-400.121 958.406,-403.385 958.241,-396.387"/>
</g>
<!-- Node2&#45;&gt;Node3 -->
<g id="edge2" class="edge"><title>Node2&#45;&gt;Node3</title>
<path fill="none" stroke="midnightblue" d="M276.578,-328.144C269.086,-318.736 260.063,-307.405 253.968,-299.751"/>
<polygon fill="midnightblue" stroke="midnightblue" points="273.932,-330.44 282.899,-336.083 279.408,-326.08 273.932,-330.44"/>
</g>
<!-- Node14 -->
<g id="node14" class="node"><title>Node14</title>
<g id="a_node14"><a xlink:href="DeviceComponent_8cpp.html" target="_top" xlink:title="C++ source code for the Device Component class. ">
<polygon fill="none" stroke="black" points="309,-280.5 309,-299.5 425,-299.5 425,-280.5 309,-280.5"/>
<text text-anchor="middle" x="367" y="-287.5" font-family="Helvetica,sans-Serif" font-size="10.00">DeviceComponent.cpp</text>
</a>
</g>
</g>
<!-- Node2&#45;&gt;Node14 -->
<g id="edge17" class="edge"><title>Node2&#45;&gt;Node14</title>
<path fill="none" stroke="midnightblue" d="M310.901,-330.342C324.911,-320.517 342.883,-307.913 354.659,-299.655"/>
<polygon fill="midnightblue" stroke="midnightblue" points="308.549,-327.717 302.371,-336.324 312.568,-333.448 308.549,-327.717"/>
</g>
<!-- Node4 -->
<g id="node4" class="node"><title>Node4</title>
<g id="a_node4"><a xlink:href="Solver_8hpp.html" target="_top" xlink:title="C++ header file for the SolutionData class. ">
<polygon fill="none" stroke="black" points="215.5,-224.5 215.5,-243.5 278.5,-243.5 278.5,-224.5 215.5,-224.5"/>
<text text-anchor="middle" x="247" y="-231.5" font-family="Helvetica,sans-Serif" font-size="10.00">Solver.hpp</text>
</a>
</g>
</g>
<!-- Node3&#45;&gt;Node4 -->
<g id="edge3" class="edge"><title>Node3&#45;&gt;Node4</title>
<path fill="none" stroke="midnightblue" d="M247,-269.805C247,-260.91 247,-250.78 247,-243.751"/>
<polygon fill="midnightblue" stroke="midnightblue" points="243.5,-270.083 247,-280.083 250.5,-270.083 243.5,-270.083"/>
</g>
<!-- Node11 -->
<g id="node11" class="node"><title>Node11</title>
<g id="a_node11"><a xlink:href="DeviceData_8cpp.html" target="_top" xlink:title="C++ source code for the DeviceData class. ">
<polygon fill="none" stroke="black" points="-0.5,-168.5 -0.5,-187.5 86.5,-187.5 86.5,-168.5 -0.5,-168.5"/>
<text text-anchor="middle" x="43" y="-175.5" font-family="Helvetica,sans-Serif" font-size="10.00">DeviceData.cpp</text>
</a>
</g>
</g>
<!-- Node3&#45;&gt;Node11 -->
<g id="edge14" class="edge"><title>Node3&#45;&gt;Node11</title>
<path fill="none" stroke="midnightblue" d="M222.132,-275.591C179.662,-252.691 94.3167,-206.671 58.9332,-187.591"/>
<polygon fill="midnightblue" stroke="midnightblue" points="220.529,-278.703 230.992,-280.368 223.852,-272.542 220.529,-278.703"/>
</g>
<!-- Node3&#45;&gt;Node12 -->
<g id="edge15" class="edge"><title>Node3&#45;&gt;Node12</title>
<path fill="none" stroke="midnightblue" d="M264.46,-273.512C290.956,-250.007 340.44,-206.11 361.315,-187.591"/>
<polygon fill="midnightblue" stroke="midnightblue" points="261.888,-271.114 256.73,-280.368 266.534,-276.351 261.888,-271.114"/>
</g>
<!-- Node7 -->
<g id="node7" class="node"><title>Node7</title>
<g id="a_node7"><a xlink:href="ICEDTest_8H.html" target="_top" xlink:title="Testing object for ICED. ">
<polygon fill="none" stroke="black" points="271.5,-112.5 271.5,-131.5 342.5,-131.5 342.5,-112.5 271.5,-112.5"/>
<text text-anchor="middle" x="307" y="-119.5" font-family="Helvetica,sans-Serif" font-size="10.00">ICEDTest.H</text>
</a>
</g>
</g>
<!-- Node3&#45;&gt;Node7 -->
<g id="edge16" class="edge"><title>Node3&#45;&gt;Node7</title>
<path fill="none" stroke="midnightblue" d="M288.385,-277.291C328.903,-263.36 388.315,-235.755 415,-188 432.987,-155.81 380.507,-137.835 342.531,-129.308"/>
<polygon fill="midnightblue" stroke="midnightblue" points="287.177,-274.004 278.777,-280.462 289.37,-280.651 287.177,-274.004"/>
</g>
<!-- Node5 -->
<g id="node5" class="node"><title>Node5</title>
<g id="a_node5"><a xlink:href="DeviceModel_8hpp.html" target="_top" xlink:title="C++ header file for the DeviceModel class. ">
<polygon fill="none" stroke="black" points="105,-168.5 105,-187.5 197,-187.5 197,-168.5 105,-168.5"/>
<text text-anchor="middle" x="151" y="-175.5" font-family="Helvetica,sans-Serif" font-size="10.00">DeviceModel.hpp</text>
</a>
</g>
</g>
<!-- Node4&#45;&gt;Node5 -->
<g id="edge4" class="edge"><title>Node4&#45;&gt;Node5</title>
<path fill="none" stroke="midnightblue" d="M222.426,-219.177C204.761,-209.241 181.487,-196.149 166.386,-187.655"/>
<polygon fill="midnightblue" stroke="midnightblue" points="221.144,-222.472 231.576,-224.324 224.576,-216.371 221.144,-222.472"/>
</g>
<!-- Node4&#45;&gt;Node11 -->
<g id="edge10" class="edge"><title>Node4&#45;&gt;Node11</title>
<path fill="none" stroke="midnightblue" d="M205.266,-221.953C166.791,-211.768 110.481,-196.863 75.3244,-187.556"/>
<polygon fill="midnightblue" stroke="midnightblue" points="204.562,-225.387 215.125,-224.562 206.354,-218.62 204.562,-225.387"/>
</g>
<!-- Node4&#45;&gt;Node12 -->
<g id="edge11" class="edge"><title>Node4&#45;&gt;Node12</title>
<path fill="none" stroke="midnightblue" d="M276.007,-220.368C299.229,-210.255 331.163,-196.349 351.444,-187.516"/>
<polygon fill="midnightblue" stroke="midnightblue" points="274.419,-217.242 266.648,-224.444 277.214,-223.66 274.419,-217.242"/>
</g>
<!-- Node13 -->
<g id="node13" class="node"><title>Node13</title>
<g id="a_node13"><a xlink:href="Solver_8cpp.html" target="_top" xlink:title="C++ source code for the DeviceData class. ">
<polygon fill="none" stroke="black" points="215.5,-168.5 215.5,-187.5 278.5,-187.5 278.5,-168.5 215.5,-168.5"/>
<text text-anchor="middle" x="247" y="-175.5" font-family="Helvetica,sans-Serif" font-size="10.00">Solver.cpp</text>
</a>
</g>
</g>
<!-- Node4&#45;&gt;Node13 -->
<g id="edge12" class="edge"><title>Node4&#45;&gt;Node13</title>
<path fill="none" stroke="midnightblue" d="M247,-213.805C247,-204.91 247,-194.78 247,-187.751"/>
<polygon fill="midnightblue" stroke="midnightblue" points="243.5,-214.083 247,-224.083 250.5,-214.083 243.5,-214.083"/>
</g>
<!-- Node4&#45;&gt;Node7 -->
<g id="edge13" class="edge"><title>Node4&#45;&gt;Node7</title>
<path fill="none" stroke="midnightblue" d="M264.267,-217.033C272.132,-208.973 281.002,-198.658 287,-188 297.423,-169.479 303.076,-144.868 305.514,-131.888"/>
<polygon fill="midnightblue" stroke="midnightblue" points="261.574,-214.771 256.881,-224.27 266.474,-219.771 261.574,-214.771"/>
</g>
<!-- Node6 -->
<g id="node6" class="node"><title>Node6</title>
<g id="a_node6"><a xlink:href="DeviceModel_8cpp.html" target="_top" xlink:title="C++ source code for the DeviceData class. ">
<polygon fill="none" stroke="black" points="105,-112.5 105,-131.5 197,-131.5 197,-112.5 105,-112.5"/>
<text text-anchor="middle" x="151" y="-119.5" font-family="Helvetica,sans-Serif" font-size="10.00">DeviceModel.cpp</text>
</a>
</g>
</g>
<!-- Node5&#45;&gt;Node6 -->
<g id="edge5" class="edge"><title>Node5&#45;&gt;Node6</title>
<path fill="none" stroke="midnightblue" d="M151,-157.805C151,-148.91 151,-138.78 151,-131.751"/>
<polygon fill="midnightblue" stroke="midnightblue" points="147.5,-158.083 151,-168.083 154.5,-158.083 147.5,-158.083"/>
</g>
<!-- Node5&#45;&gt;Node7 -->
<g id="edge6" class="edge"><title>Node5&#45;&gt;Node7</title>
<path fill="none" stroke="midnightblue" d="M185.17,-165.172C214.544,-155.004 256.198,-140.585 282.397,-131.516"/>
<polygon fill="midnightblue" stroke="midnightblue" points="184.024,-161.865 175.719,-168.444 186.313,-168.48 184.024,-161.865"/>
</g>
<!-- Node8 -->
<g id="node8" class="node"><title>Node8</title>
<g id="a_node8"><a xlink:href="TestICED_8H.html" target="_top" xlink:title="Testing utilities for ICED. ">
<polygon fill="none" stroke="black" points="271.5,-56.5 271.5,-75.5 342.5,-75.5 342.5,-56.5 271.5,-56.5"/>
<text text-anchor="middle" x="307" y="-63.5" font-family="Helvetica,sans-Serif" font-size="10.00">TestICED.H</text>
</a>
</g>
</g>
<!-- Node7&#45;&gt;Node8 -->
<g id="edge7" class="edge"><title>Node7&#45;&gt;Node8</title>
<path fill="none" stroke="midnightblue" d="M307,-101.805C307,-92.9102 307,-82.7798 307,-75.7511"/>
<polygon fill="midnightblue" stroke="midnightblue" points="303.5,-102.083 307,-112.083 310.5,-102.083 303.5,-102.083"/>
</g>
<!-- Node9 -->
<g id="node9" class="node"><title>Node9</title>
<g id="a_node9"><a xlink:href="ParallelTestICED_8C.html" target="_top" xlink:title="Implements a command&#45;line interface for the ICED tests. ">
<polygon fill="none" stroke="black" points="202,-0.5 202,-19.5 306,-19.5 306,-0.5 202,-0.5"/>
<text text-anchor="middle" x="254" y="-7.5" font-family="Helvetica,sans-Serif" font-size="10.00">ParallelTestICED.C</text>
</a>
</g>
</g>
<!-- Node8&#45;&gt;Node9 -->
<g id="edge8" class="edge"><title>Node8&#45;&gt;Node9</title>
<path fill="none" stroke="midnightblue" d="M291.019,-48.7175C281.678,-39.1997 270.254,-27.5608 262.589,-19.7511"/>
<polygon fill="midnightblue" stroke="midnightblue" points="288.746,-51.3978 298.248,-56.083 293.741,-46.4945 288.746,-51.3978"/>
</g>
<!-- Node10 -->
<g id="node10" class="node"><title>Node10</title>
<g id="a_node10"><a xlink:href="TestICED_8C.html" target="_top" xlink:title="Implements a command&#45;line interface for the ICED tests. ">
<polygon fill="none" stroke="black" points="324.5,-0.5 324.5,-19.5 395.5,-19.5 395.5,-0.5 324.5,-0.5"/>
<text text-anchor="middle" x="360" y="-7.5" font-family="Helvetica,sans-Serif" font-size="10.00">TestICED.C</text>
</a>
</g>
</g>
<!-- Node8&#45;&gt;Node10 -->
<g id="edge9" class="edge"><title>Node8&#45;&gt;Node10</title>
<path fill="none" stroke="midnightblue" d="M322.981,-48.7175C332.322,-39.1997 343.746,-27.5608 351.411,-19.7511"/>
<polygon fill="midnightblue" stroke="midnightblue" points="320.259,-46.4945 315.752,-56.083 325.254,-51.3978 320.259,-46.4945"/>
</g>
</g>
</svg>
