<?xml version="1.0" encoding="UTF-8" standalone="no"?>
<!DOCTYPE svg PUBLIC "-//W3C//DTD SVG 1.1//EN"
 "http://www.w3.org/Graphics/SVG/1.1/DTD/svg11.dtd">
<!-- Generated by graphviz version 2.30.1 (20150305.2338)
 -->
<!-- Title: Solver.hpp Pages: 1 -->
<svg width="389pt" height="252pt"
 viewBox="0.00 0.00 389.04 252.00" xmlns="http://www.w3.org/2000/svg" xmlns:xlink="http://www.w3.org/1999/xlink">
<g id="graph0" class="graph" transform="scale(1 1) rotate(0) translate(4 248)">
<title>Solver.hpp</title>
<!-- Node1 -->
<g id="node1" class="node"><title>Node1</title>
<polygon fill="#bfbfbf" stroke="black" points="219.5,-224.5 219.5,-243.5 282.5,-243.5 282.5,-224.5 219.5,-224.5"/>
<text text-anchor="middle" x="251" y="-231.5" font-family="Helvetica,sans-Serif" font-size="10.00">Solver.hpp</text>
</g>
<!-- Node2 -->
<g id="node2" class="node"><title>Node2</title>
<g id="a_node2"><a xlink:href="DeviceModel_8hpp.html" target="_top" xlink:title="C++ header file for the DeviceModel class. ">
<polygon fill="none" stroke="black" points="0,-168.5 0,-187.5 92,-187.5 92,-168.5 0,-168.5"/>
<text text-anchor="middle" x="46" y="-175.5" font-family="Helvetica,sans-Serif" font-size="10.00">DeviceModel.hpp</text>
</a>
</g>
</g>
<!-- Node1&#45;&gt;Node2 -->
<g id="edge1" class="edge"><title>Node1&#45;&gt;Node2</title>
<path fill="none" stroke="midnightblue" d="M209.498,-222.068C170.757,-211.863 113.744,-196.845 78.2947,-187.507"/>
<polygon fill="midnightblue" stroke="midnightblue" points="208.856,-225.518 219.418,-224.681 210.639,-218.749 208.856,-225.518"/>
</g>
<!-- Node8 -->
<g id="node8" class="node"><title>Node8</title>
<g id="a_node8"><a xlink:href="DeviceData_8cpp.html" target="_top" xlink:title="C++ source code for the DeviceData class. ">
<polygon fill="none" stroke="black" points="110.5,-168.5 110.5,-187.5 197.5,-187.5 197.5,-168.5 110.5,-168.5"/>
<text text-anchor="middle" x="154" y="-175.5" font-family="Helvetica,sans-Serif" font-size="10.00">DeviceData.cpp</text>
</a>
</g>
</g>
<!-- Node1&#45;&gt;Node8 -->
<g id="edge7" class="edge"><title>Node1&#45;&gt;Node8</title>
<path fill="none" stroke="midnightblue" d="M226.665,-219.453C208.757,-209.483 184.946,-196.228 169.546,-187.655"/>
<polygon fill="midnightblue" stroke="midnightblue" points="224.975,-222.518 235.415,-224.324 228.38,-216.402 224.975,-222.518"/>
</g>
<!-- Node9 -->
<g id="node9" class="node"><title>Node9</title>
<g id="a_node9"><a xlink:href="HalfCell_8cpp.html" target="_top" xlink:title="Solver for a battery half cell. ">
<polygon fill="none" stroke="black" points="215.5,-168.5 215.5,-187.5 286.5,-187.5 286.5,-168.5 215.5,-168.5"/>
<text text-anchor="middle" x="251" y="-175.5" font-family="Helvetica,sans-Serif" font-size="10.00">HalfCell.cpp</text>
</a>
</g>
</g>
<!-- Node1&#45;&gt;Node9 -->
<g id="edge8" class="edge"><title>Node1&#45;&gt;Node9</title>
<path fill="none" stroke="midnightblue" d="M251,-213.805C251,-204.91 251,-194.78 251,-187.751"/>
<polygon fill="midnightblue" stroke="midnightblue" points="247.5,-214.083 251,-224.083 254.5,-214.083 247.5,-214.083"/>
</g>
<!-- Node10 -->
<g id="node10" class="node"><title>Node10</title>
<g id="a_node10"><a xlink:href="Solver_8cpp.html" target="_top" xlink:title="C++ source code for the DeviceData class. ">
<polygon fill="none" stroke="black" points="304.5,-168.5 304.5,-187.5 367.5,-187.5 367.5,-168.5 304.5,-168.5"/>
<text text-anchor="middle" x="336" y="-175.5" font-family="Helvetica,sans-Serif" font-size="10.00">Solver.cpp</text>
</a>
</g>
</g>
<!-- Node1&#45;&gt;Node10 -->
<g id="edge9" class="edge"><title>Node1&#45;&gt;Node10</title>
<path fill="none" stroke="midnightblue" d="M273.194,-218.901C288.78,-208.999 309.13,-196.071 322.377,-187.655"/>
<polygon fill="midnightblue" stroke="midnightblue" points="271.221,-216.007 264.657,-224.324 274.974,-221.916 271.221,-216.007"/>
</g>
<!-- Node4 -->
<g id="node4" class="node"><title>Node4</title>
<g id="a_node4"><a xlink:href="ICEDTest_8H.html" target="_top" xlink:title="Testing object for ICED. ">
<polygon fill="none" stroke="black" points="235.5,-112.5 235.5,-131.5 306.5,-131.5 306.5,-112.5 235.5,-112.5"/>
<text text-anchor="middle" x="271" y="-119.5" font-family="Helvetica,sans-Serif" font-size="10.00">ICEDTest.H</text>
</a>
</g>
</g>
<!-- Node1&#45;&gt;Node4 -->
<g id="edge10" class="edge"><title>Node1&#45;&gt;Node4</title>
<path fill="none" stroke="midnightblue" d="M292.861,-229.997C321.423,-225.512 357.337,-214.554 376,-188 396.773,-158.444 344.711,-139.636 306.695,-130.231"/>
<polygon fill="midnightblue" stroke="midnightblue" points="292.156,-226.56 282.717,-231.373 293.097,-233.497 292.156,-226.56"/>
</g>
<!-- Node3 -->
<g id="node3" class="node"><title>Node3</title>
<g id="a_node3"><a xlink:href="DeviceModel_8cpp.html" target="_top" xlink:title="C++ source code for the DeviceData class. ">
<polygon fill="none" stroke="black" points="0,-112.5 0,-131.5 92,-131.5 92,-112.5 0,-112.5"/>
<text text-anchor="middle" x="46" y="-119.5" font-family="Helvetica,sans-Serif" font-size="10.00">DeviceModel.cpp</text>
</a>
</g>
</g>
<!-- Node2&#45;&gt;Node3 -->
<g id="edge2" class="edge"><title>Node2&#45;&gt;Node3</title>
<path fill="none" stroke="midnightblue" d="M46,-157.805C46,-148.91 46,-138.78 46,-131.751"/>
<polygon fill="midnightblue" stroke="midnightblue" points="42.5001,-158.083 46,-168.083 49.5001,-158.083 42.5001,-158.083"/>
</g>
<!-- Node2&#45;&gt;Node4 -->
<g id="edge3" class="edge"><title>Node2&#45;&gt;Node4</title>
<path fill="none" stroke="midnightblue" d="M91.4652,-166.088C133.973,-155.887 196.579,-140.861 235.515,-131.516"/>
<polygon fill="midnightblue" stroke="midnightblue" points="90.559,-162.706 81.6519,-168.444 92.1926,-169.513 90.559,-162.706"/>
</g>
<!-- Node5 -->
<g id="node5" class="node"><title>Node5</title>
<g id="a_node5"><a xlink:href="TestICED_8H.html" target="_top" xlink:title="Testing utilities for ICED. ">
<polygon fill="none" stroke="black" points="235.5,-56.5 235.5,-75.5 306.5,-75.5 306.5,-56.5 235.5,-56.5"/>
<text text-anchor="middle" x="271" y="-63.5" font-family="Helvetica,sans-Serif" font-size="10.00">TestICED.H</text>
</a>
</g>
</g>
<!-- Node4&#45;&gt;Node5 -->
<g id="edge4" class="edge"><title>Node4&#45;&gt;Node5</title>
<path fill="none" stroke="midnightblue" d="M271,-101.805C271,-92.9102 271,-82.7798 271,-75.7511"/>
<polygon fill="midnightblue" stroke="midnightblue" points="267.5,-102.083 271,-112.083 274.5,-102.083 267.5,-102.083"/>
</g>
<!-- Node6 -->
<g id="node6" class="node"><title>Node6</title>
<g id="a_node6"><a xlink:href="ParallelTestICED_8C.html" target="_top" xlink:title="Implements a command&#45;line interface for the ICED tests. ">
<polygon fill="none" stroke="black" points="166,-0.5 166,-19.5 270,-19.5 270,-0.5 166,-0.5"/>
<text text-anchor="middle" x="218" y="-7.5" font-family="Helvetica,sans-Serif" font-size="10.00">ParallelTestICED.C</text>
</a>
</g>
</g>
<!-- Node5&#45;&gt;Node6 -->
<g id="edge5" class="edge"><title>Node5&#45;&gt;Node6</title>
<path fill="none" stroke="midnightblue" d="M255.019,-48.7175C245.678,-39.1997 234.254,-27.5608 226.589,-19.7511"/>
<polygon fill="midnightblue" stroke="midnightblue" points="252.746,-51.3978 262.248,-56.083 257.741,-46.4945 252.746,-51.3978"/>
</g>
<!-- Node7 -->
<g id="node7" class="node"><title>Node7</title>
<g id="a_node7"><a xlink:href="TestICED_8C.html" target="_top" xlink:title="Implements a command&#45;line interface for the ICED tests. ">
<polygon fill="none" stroke="black" points="288.5,-0.5 288.5,-19.5 359.5,-19.5 359.5,-0.5 288.5,-0.5"/>
<text text-anchor="middle" x="324" y="-7.5" font-family="Helvetica,sans-Serif" font-size="10.00">TestICED.C</text>
</a>
</g>
</g>
<!-- Node5&#45;&gt;Node7 -->
<g id="edge6" class="edge"><title>Node5&#45;&gt;Node7</title>
<path fill="none" stroke="midnightblue" d="M286.981,-48.7175C296.322,-39.1997 307.746,-27.5608 315.411,-19.7511"/>
<polygon fill="midnightblue" stroke="midnightblue" points="284.259,-46.4945 279.752,-56.083 289.254,-51.3978 284.259,-46.4945"/>
</g>
</g>
</svg>
