<?xml version="1.0" encoding="UTF-8" standalone="no"?>
<!DOCTYPE svg PUBLIC "-//W3C//DTD SVG 1.1//EN"
 "http://www.w3.org/Graphics/SVG/1.1/DTD/svg11.dtd">
<!-- Generated by graphviz version 2.30.1 (20150305.2338)
 -->
<!-- Title: Solver.hpp Pages: 1 -->
<svg width="1135pt" height="320pt"
 viewBox="0.00 0.00 1135.20 320.00" xmlns="http://www.w3.org/2000/svg" xmlns:xlink="http://www.w3.org/1999/xlink">
<g id="graph0" class="graph" transform="scale(1 1) rotate(0) translate(4 316)">
<title>Solver.hpp</title>
<!-- Node1 -->
<g id="node1" class="node"><title>Node1</title>
<polygon fill="#bfbfbf" stroke="black" points="858.5,-292.5 858.5,-311.5 921.5,-311.5 921.5,-292.5 858.5,-292.5"/>
<text text-anchor="middle" x="890" y="-299.5" font-family="Helvetica,sans-Serif" font-size="10.00">Solver.hpp</text>
</g>
<!-- Node2 -->
<g id="node2" class="node"><title>Node2</title>
<g id="a_node2"><a xlink:href="HalfCell_8hpp.html" target="_top" xlink:title="Program interface for the monolithic battery simulation software. ">
<polygon fill="none" stroke="black" points="94.5,-56.5 94.5,-75.5 165.5,-75.5 165.5,-56.5 94.5,-56.5"/>
<text text-anchor="middle" x="130" y="-63.5" font-family="Helvetica,sans-Serif" font-size="10.00">HalfCell.hpp</text>
</a>
</g>
</g>
<!-- Node1&#45;&gt;Node2 -->
<g id="edge1" class="edge"><title>Node1&#45;&gt;Node2</title>
<path fill="none" stroke="midnightblue" d="M858.454,-300.683C733.7,-298.828 276.24,-286.167 166,-200 131.226,-172.819 127.877,-115.731 128.719,-85.965"/>
<polygon fill="midnightblue" stroke="midnightblue" points="132.228,-85.8458 129.212,-75.6895 125.236,-85.5103 132.228,-85.8458"/>
</g>
<!-- Node5 -->
<g id="node5" class="node"><title>Node5</title>
<g id="a_node5"><a xlink:href="DeviceData_8hpp.html" target="_top" xlink:title="C++ header file for the DeviceData class. ">
<polygon fill="none" stroke="black" points="554.5,-236.5 554.5,-255.5 641.5,-255.5 641.5,-236.5 554.5,-236.5"/>
<text text-anchor="middle" x="598" y="-243.5" font-family="Helvetica,sans-Serif" font-size="10.00">DeviceData.hpp</text>
</a>
</g>
</g>
<!-- Node1&#45;&gt;Node5 -->
<g id="edge4" class="edge"><title>Node1&#45;&gt;Node5</title>
<path fill="none" stroke="midnightblue" d="M858.473,-295.17C808.984,-286.018 712.47,-268.169 651.835,-256.956"/>
<polygon fill="midnightblue" stroke="midnightblue" points="652.157,-253.456 641.688,-255.079 650.884,-260.339 652.157,-253.456"/>
</g>
<!-- Node14 -->
<g id="node14" class="node"><title>Node14</title>
<polygon fill="none" stroke="#bfbfbf" points="873,-56.5 873,-75.5 917,-75.5 917,-56.5 873,-56.5"/>
<text text-anchor="middle" x="895" y="-63.5" font-family="Helvetica,sans-Serif" font-size="10.00">vector</text>
</g>
<!-- Node1&#45;&gt;Node14 -->
<g id="edge43" class="edge"><title>Node1&#45;&gt;Node14</title>
<path fill="none" stroke="midnightblue" d="M921.801,-296.727C971.048,-288.208 1064.32,-264.055 1105,-200 1131.35,-158.504 1081.13,-135.59 1038,-112 1028.1,-106.583 965.936,-87.8395 926.899,-76.3211"/>
<polygon fill="midnightblue" stroke="midnightblue" points="927.622,-72.8857 917.041,-73.4209 925.647,-79.6011 927.622,-72.8857"/>
</g>
<!-- Node15 -->
<g id="node15" class="node"><title>Node15</title>
<polygon fill="none" stroke="#bfbfbf" points="935.5,-56.5 935.5,-75.5 976.5,-75.5 976.5,-56.5 935.5,-56.5"/>
<text text-anchor="middle" x="956" y="-63.5" font-family="Helvetica,sans-Serif" font-size="10.00">string</text>
</g>
<!-- Node1&#45;&gt;Node15 -->
<g id="edge44" class="edge"><title>Node1&#45;&gt;Node15</title>
<path fill="none" stroke="midnightblue" d="M921.707,-300.018C978.259,-296.252 1093.38,-278.828 1123,-200 1148.05,-133.343 1041.45,-91.8283 986.686,-75.2601"/>
<polygon fill="midnightblue" stroke="midnightblue" points="987.373,-71.8147 976.793,-72.3675 985.409,-78.5334 987.373,-71.8147"/>
</g>
<!-- Node3 -->
<g id="node3" class="node"><title>Node3</title>
<polygon fill="none" stroke="#bfbfbf" points="65.5,-0.5 65.5,-19.5 120.5,-19.5 120.5,-0.5 65.5,-0.5"/>
<text text-anchor="middle" x="93" y="-7.5" font-family="Helvetica,sans-Serif" font-size="10.00">Global.H</text>
</g>
<!-- Node2&#45;&gt;Node3 -->
<g id="edge2" class="edge"><title>Node2&#45;&gt;Node3</title>
<path fill="none" stroke="midnightblue" d="M123.89,-56.083C118.718,-48.5341 111.154,-37.4948 104.806,-28.2298"/>
<polygon fill="midnightblue" stroke="midnightblue" points="107.536,-26.0221 98.9961,-19.7511 101.761,-29.9787 107.536,-26.0221"/>
</g>
<!-- Node4 -->
<g id="node4" class="node"><title>Node4</title>
<polygon fill="none" stroke="#bfbfbf" points="139,-0.5 139,-19.5 197,-19.5 197,-0.5 139,-0.5"/>
<text text-anchor="middle" x="168" y="-7.5" font-family="Helvetica,sans-Serif" font-size="10.00">Profiler.H</text>
</g>
<!-- Node2&#45;&gt;Node4 -->
<g id="edge3" class="edge"><title>Node2&#45;&gt;Node4</title>
<path fill="none" stroke="midnightblue" d="M136.275,-56.083C141.642,-48.4554 149.518,-37.2645 156.079,-27.9408"/>
<polygon fill="midnightblue" stroke="midnightblue" points="158.949,-29.9434 161.842,-19.7511 153.225,-25.9149 158.949,-29.9434"/>
</g>
<!-- Node6 -->
<g id="node6" class="node"><title>Node6</title>
<polygon fill="none" stroke="#bfbfbf" points="-0.5,-56.5 -0.5,-75.5 76.5,-75.5 76.5,-56.5 -0.5,-56.5"/>
<text text-anchor="middle" x="38" y="-63.5" font-family="Helvetica,sans-Serif" font-size="10.00">Parameters.H</text>
</g>
<!-- Node5&#45;&gt;Node6 -->
<g id="edge5" class="edge"><title>Node5&#45;&gt;Node6</title>
<path fill="none" stroke="midnightblue" d="M554.397,-244.223C458.754,-241.917 233.677,-233.041 166,-200 111.69,-173.485 67.933,-113.858 48.6545,-84.2937"/>
<polygon fill="midnightblue" stroke="midnightblue" points="51.5926,-82.3916 43.273,-75.8315 45.6859,-86.148 51.5926,-82.3916"/>
</g>
<!-- Node5&#45;&gt;Node2 -->
<g id="edge6" class="edge"><title>Node5&#45;&gt;Node2</title>
<path fill="none" stroke="midnightblue" d="M554.376,-245.096C463.319,-244.504 256.767,-238.791 200,-200 160.074,-172.717 141.27,-115.235 133.931,-85.5757"/>
<polygon fill="midnightblue" stroke="midnightblue" points="137.31,-84.6535 131.659,-75.6916 130.488,-86.2215 137.31,-84.6535"/>
</g>
<!-- Node7 -->
<g id="node7" class="node"><title>Node7</title>
<g id="a_node7"><a xlink:href="SolutionData_8hpp.html" target="_top" xlink:title="C++ header file for the SolutionData class. ">
<polygon fill="none" stroke="black" points="306,-112.5 306,-131.5 398,-131.5 398,-112.5 306,-112.5"/>
<text text-anchor="middle" x="352" y="-119.5" font-family="Helvetica,sans-Serif" font-size="10.00">SolutionData.hpp</text>
</a>
</g>
</g>
<!-- Node5&#45;&gt;Node7 -->
<g id="edge7" class="edge"><title>Node5&#45;&gt;Node7</title>
<path fill="none" stroke="midnightblue" d="M554.498,-243.142C458.165,-238.582 233.547,-225.321 211,-200 181.178,-166.509 244.433,-144.714 295.614,-133.133"/>
<polygon fill="midnightblue" stroke="midnightblue" points="296.628,-136.495 305.658,-130.953 295.143,-129.654 296.628,-136.495"/>
</g>
<!-- Node16 -->
<g id="node16" class="node"><title>Node16</title>
<g id="a_node16"><a xlink:href="DeviceComponent_8hpp.html" target="_top" xlink:title="C++ header file for the DeviceComponent class. ">
<polygon fill="none" stroke="black" points="220,-174.5 220,-193.5 336,-193.5 336,-174.5 220,-174.5"/>
<text text-anchor="middle" x="278" y="-181.5" font-family="Helvetica,sans-Serif" font-size="10.00">DeviceComponent.hpp</text>
</a>
</g>
</g>
<!-- Node5&#45;&gt;Node16 -->
<g id="edge18" class="edge"><title>Node5&#45;&gt;Node16</title>
<path fill="none" stroke="midnightblue" d="M554.465,-237.858C503.966,-229.435 418.265,-214.709 345,-200 338.404,-198.676 331.46,-197.206 324.642,-195.72"/>
<polygon fill="midnightblue" stroke="midnightblue" points="325.318,-192.285 314.799,-193.546 323.808,-199.12 325.318,-192.285"/>
</g>
<!-- Node20 -->
<g id="node20" class="node"><title>Node20</title>
<polygon fill="none" stroke="#bfbfbf" points="354,-174.5 354,-193.5 454,-193.5 454,-174.5 354,-174.5"/>
<text text-anchor="middle" x="404" y="-181.5" font-family="Helvetica,sans-Serif" font-size="10.00">Teuchos_RCP.hpp</text>
</g>
<!-- Node5&#45;&gt;Node20 -->
<g id="edge35" class="edge"><title>Node5&#45;&gt;Node20</title>
<path fill="none" stroke="midnightblue" d="M570.205,-236.403C536.35,-225.933 479.029,-208.205 441.345,-196.55"/>
<polygon fill="midnightblue" stroke="midnightblue" points="442.332,-193.192 431.744,-193.581 440.263,-199.879 442.332,-193.192"/>
</g>
<!-- Node21 -->
<g id="node21" class="node"><title>Node21</title>
<polygon fill="none" stroke="#bfbfbf" points="472.5,-174.5 472.5,-193.5 521.5,-193.5 521.5,-174.5 472.5,-174.5"/>
<text text-anchor="middle" x="497" y="-181.5" font-family="Helvetica,sans-Serif" font-size="10.00">NOX.H</text>
</g>
<!-- Node5&#45;&gt;Node21 -->
<g id="edge36" class="edge"><title>Node5&#45;&gt;Node21</title>
<path fill="none" stroke="midnightblue" d="M583.529,-236.403C566.954,-226.557 539.574,-210.291 520.053,-198.695"/>
<polygon fill="midnightblue" stroke="midnightblue" points="521.829,-195.679 511.444,-193.581 518.254,-201.697 521.829,-195.679"/>
</g>
<!-- Node22 -->
<g id="node22" class="node"><title>Node22</title>
<polygon fill="none" stroke="#bfbfbf" points="540,-169 540,-199 656,-199 656,-169 540,-169"/>
<text text-anchor="start" x="548" y="-187" font-family="Helvetica,sans-Serif" font-size="10.00">NOX_Epetra_Interface</text>
<text text-anchor="middle" x="598" y="-176" font-family="Helvetica,sans-Serif" font-size="10.00">_Required.H</text>
</g>
<!-- Node5&#45;&gt;Node22 -->
<g id="edge37" class="edge"><title>Node5&#45;&gt;Node22</title>
<path fill="none" stroke="midnightblue" d="M598,-236.403C598,-229.341 598,-218.975 598,-209.399"/>
<polygon fill="midnightblue" stroke="midnightblue" points="601.5,-209.141 598,-199.141 594.5,-209.141 601.5,-209.141"/>
</g>
<!-- Node23 -->
<g id="node23" class="node"><title>Node23</title>
<polygon fill="none" stroke="#bfbfbf" points="674,-169 674,-199 790,-199 790,-169 674,-169"/>
<text text-anchor="start" x="682" y="-187" font-family="Helvetica,sans-Serif" font-size="10.00">NOX_Epetra_Interface</text>
<text text-anchor="middle" x="732" y="-176" font-family="Helvetica,sans-Serif" font-size="10.00">_Jacobian.H</text>
</g>
<!-- Node5&#45;&gt;Node23 -->
<g id="edge38" class="edge"><title>Node5&#45;&gt;Node23</title>
<path fill="none" stroke="midnightblue" d="M617.199,-236.403C636.514,-227.755 666.888,-214.155 691.543,-203.115"/>
<polygon fill="midnightblue" stroke="midnightblue" points="692.98,-206.306 700.677,-199.025 690.12,-199.918 692.98,-206.306"/>
</g>
<!-- Node24 -->
<g id="node24" class="node"><title>Node24</title>
<polygon fill="none" stroke="#bfbfbf" points="808.5,-169 808.5,-199 945.5,-199 945.5,-169 808.5,-169"/>
<text text-anchor="start" x="816.5" y="-187" font-family="Helvetica,sans-Serif" font-size="10.00">NOX_Epetra_LinearSystem</text>
<text text-anchor="middle" x="877" y="-176" font-family="Helvetica,sans-Serif" font-size="10.00">_AztecOO.H</text>
</g>
<!-- Node5&#45;&gt;Node24 -->
<g id="edge39" class="edge"><title>Node5&#45;&gt;Node24</title>
<path fill="none" stroke="midnightblue" d="M637.678,-236.467C680.219,-227.318 748.77,-212.576 801.625,-201.21"/>
<polygon fill="midnightblue" stroke="midnightblue" points="802.597,-204.581 811.637,-199.057 801.125,-197.737 802.597,-204.581"/>
</g>
<!-- Node25 -->
<g id="node25" class="node"><title>Node25</title>
<polygon fill="none" stroke="#bfbfbf" points="964,-174.5 964,-193.5 1078,-193.5 1078,-174.5 964,-174.5"/>
<text text-anchor="middle" x="1021" y="-181.5" font-family="Helvetica,sans-Serif" font-size="10.00">NOX_Epetra_Group.H</text>
</g>
<!-- Node5&#45;&gt;Node25 -->
<g id="edge40" class="edge"><title>Node5&#45;&gt;Node25</title>
<path fill="none" stroke="midnightblue" d="M641.767,-240.814C709.131,-234.067 842.158,-219.543 954,-200 961.104,-198.759 968.592,-197.266 975.886,-195.711"/>
<polygon fill="midnightblue" stroke="midnightblue" points="976.64,-199.129 985.658,-193.568 975.141,-192.291 976.64,-199.129"/>
</g>
<!-- Node5&#45;&gt;Node14 -->
<g id="edge41" class="edge"><title>Node5&#45;&gt;Node14</title>
<path fill="none" stroke="midnightblue" d="M641.619,-244.268C755.898,-241.9 1057.27,-232.595 1087,-200 1096.58,-189.493 1094.35,-180.175 1087,-168 1068.93,-138.076 976.118,-98.4452 926.455,-78.9174"/>
<polygon fill="midnightblue" stroke="midnightblue" points="927.721,-75.6545 917.132,-75.2887 925.182,-82.1778 927.721,-75.6545"/>
</g>
<!-- Node5&#45;&gt;Node15 -->
<g id="edge42" class="edge"><title>Node5&#45;&gt;Node15</title>
<path fill="none" stroke="midnightblue" d="M641.517,-244.422C758.667,-242.419 1073.98,-233.898 1105,-200 1150.38,-150.412 1041.59,-99.6572 986.097,-77.9394"/>
<polygon fill="midnightblue" stroke="midnightblue" points="987.313,-74.6575 976.723,-74.3481 984.809,-81.1942 987.313,-74.6575"/>
</g>
<!-- Node7&#45;&gt;Node6 -->
<g id="edge8" class="edge"><title>Node7&#45;&gt;Node6</title>
<path fill="none" stroke="midnightblue" d="M305.64,-113.507C254.425,-105.159 169.243,-91.062 86.7592,-76.2889"/>
<polygon fill="midnightblue" stroke="midnightblue" points="87.1774,-72.8081 76.716,-74.4843 85.9394,-79.6978 87.1774,-72.8081"/>
</g>
<!-- Node7&#45;&gt;Node2 -->
<g id="edge9" class="edge"><title>Node7&#45;&gt;Node2</title>
<path fill="none" stroke="midnightblue" d="M316.823,-112.444C278.421,-103.102 216.824,-88.1194 174.945,-77.9326"/>
<polygon fill="midnightblue" stroke="midnightblue" points="175.556,-74.4792 165.012,-75.5164 173.901,-81.2809 175.556,-74.4792"/>
</g>
<!-- Node8 -->
<g id="node8" class="node"><title>Node8</title>
<polygon fill="none" stroke="#bfbfbf" points="183.5,-56.5 183.5,-75.5 296.5,-75.5 296.5,-56.5 183.5,-56.5"/>
<text text-anchor="middle" x="240" y="-63.5" font-family="Helvetica,sans-Serif" font-size="10.00">Epetra_SerialComm.h</text>
</g>
<!-- Node7&#45;&gt;Node8 -->
<g id="edge10" class="edge"><title>Node7&#45;&gt;Node8</title>
<path fill="none" stroke="midnightblue" d="M334.005,-112.324C315.962,-103.625 287.953,-90.1202 267.197,-80.113"/>
<polygon fill="midnightblue" stroke="midnightblue" points="268.478,-76.8449 257.95,-75.6545 265.438,-83.1502 268.478,-76.8449"/>
</g>
<!-- Node9 -->
<g id="node9" class="node"><title>Node9</title>
<polygon fill="none" stroke="#bfbfbf" points="314.5,-56.5 314.5,-75.5 391.5,-75.5 391.5,-56.5 314.5,-56.5"/>
<text text-anchor="middle" x="353" y="-63.5" font-family="Helvetica,sans-Serif" font-size="10.00">Epetra_Map.h</text>
</g>
<!-- Node7&#45;&gt;Node9 -->
<g id="edge11" class="edge"><title>Node7&#45;&gt;Node9</title>
<path fill="none" stroke="midnightblue" d="M352.165,-112.083C352.296,-105.006 352.484,-94.8611 352.648,-85.9865"/>
<polygon fill="midnightblue" stroke="midnightblue" points="356.152,-85.8142 352.838,-75.7511 349.153,-85.6845 356.152,-85.8142"/>
</g>
<!-- Node10 -->
<g id="node10" class="node"><title>Node10</title>
<polygon fill="none" stroke="#bfbfbf" points="534.5,-56.5 534.5,-75.5 621.5,-75.5 621.5,-56.5 534.5,-56.5"/>
<text text-anchor="middle" x="578" y="-63.5" font-family="Helvetica,sans-Serif" font-size="10.00">Epetra_Vector.h</text>
</g>
<!-- Node7&#45;&gt;Node10 -->
<g id="edge12" class="edge"><title>Node7&#45;&gt;Node10</title>
<path fill="none" stroke="midnightblue" d="M387.81,-112.444C426.988,-103.083 489.877,-88.0561 532.515,-77.868"/>
<polygon fill="midnightblue" stroke="midnightblue" points="533.444,-81.2446 542.357,-75.5164 531.818,-74.4363 533.444,-81.2446"/>
</g>
<!-- Node11 -->
<g id="node11" class="node"><title>Node11</title>
<polygon fill="none" stroke="#bfbfbf" points="642.5,-56.5 642.5,-75.5 743.5,-75.5 743.5,-56.5 642.5,-56.5"/>
<text text-anchor="middle" x="693" y="-63.5" font-family="Helvetica,sans-Serif" font-size="10.00">Epetra_CrsMatrix.h</text>
</g>
<!-- Node7&#45;&gt;Node11 -->
<g id="edge13" class="edge"><title>Node7&#45;&gt;Node11</title>
<path fill="none" stroke="midnightblue" d="M398.344,-113.661C458.967,-104.061 565.329,-87.2178 632.319,-76.6093"/>
<polygon fill="midnightblue" stroke="midnightblue" points="632.983,-80.0478 642.313,-75.0267 631.888,-73.134 632.983,-80.0478"/>
</g>
<!-- Node12 -->
<g id="node12" class="node"><title>Node12</title>
<polygon fill="none" stroke="#bfbfbf" points="410,-56.5 410,-75.5 516,-75.5 516,-56.5 410,-56.5"/>
<text text-anchor="middle" x="463" y="-63.5" font-family="Helvetica,sans-Serif" font-size="10.00">Epetra_RowMatrix.h</text>
</g>
<!-- Node7&#45;&gt;Node12 -->
<g id="edge14" class="edge"><title>Node7&#45;&gt;Node12</title>
<path fill="none" stroke="midnightblue" d="M369.834,-112.324C387.716,-103.625 415.475,-90.1202 436.046,-80.113"/>
<polygon fill="midnightblue" stroke="midnightblue" points="437.749,-83.1765 445.21,-75.6545 434.687,-76.8819 437.749,-83.1765"/>
</g>
<!-- Node13 -->
<g id="node13" class="node"><title>Node13</title>
<polygon fill="none" stroke="#bfbfbf" points="765.5,-56.5 765.5,-75.5 852.5,-75.5 852.5,-56.5 765.5,-56.5"/>
<text text-anchor="middle" x="809" y="-63.5" font-family="Helvetica,sans-Serif" font-size="10.00">Epetra_Export.h</text>
</g>
<!-- Node7&#45;&gt;Node13 -->
<g id="edge15" class="edge"><title>Node7&#45;&gt;Node13</title>
<path fill="none" stroke="midnightblue" d="M398.277,-116.47C472.862,-109.018 624.228,-93.2657 752,-76 753.092,-75.8524 754.196,-75.7009 755.307,-75.5461"/>
<polygon fill="midnightblue" stroke="midnightblue" points="756.063,-78.9733 765.46,-74.0793 755.062,-72.0452 756.063,-78.9733"/>
</g>
<!-- Node7&#45;&gt;Node14 -->
<g id="edge16" class="edge"><title>Node7&#45;&gt;Node14</title>
<path fill="none" stroke="midnightblue" d="M398.35,-116.421C413.243,-114.975 429.816,-113.392 445,-112 629.805,-95.0619 678.176,-107.863 861,-76 861.602,-75.8952 862.208,-75.7848 862.818,-75.6695"/>
<polygon fill="midnightblue" stroke="midnightblue" points="863.8,-79.037 872.809,-73.4615 862.289,-72.2019 863.8,-79.037"/>
</g>
<!-- Node7&#45;&gt;Node15 -->
<g id="edge17" class="edge"><title>Node7&#45;&gt;Node15</title>
<path fill="none" stroke="midnightblue" d="M398.34,-116.315C413.234,-114.863 429.808,-113.303 445,-112 655.358,-93.9515 713.457,-114.392 925.596,-75.6228"/>
<polygon fill="midnightblue" stroke="midnightblue" points="926.291,-79.0537 935.487,-73.793 925.017,-72.1705 926.291,-79.0537"/>
</g>
<!-- Node16&#45;&gt;Node6 -->
<g id="edge19" class="edge"><title>Node16&#45;&gt;Node6</title>
<path fill="none" stroke="midnightblue" d="M260.352,-174.47C218.743,-154.359 114.291,-103.874 64.8034,-79.955"/>
<polygon fill="midnightblue" stroke="midnightblue" points="66.2002,-76.7428 55.6736,-75.5423 63.154,-83.0452 66.2002,-76.7428"/>
</g>
<!-- Node16&#45;&gt;Node2 -->
<g id="edge20" class="edge"><title>Node16&#45;&gt;Node2</title>
<path fill="none" stroke="midnightblue" d="M266.876,-174.281C241.682,-154.535 180.036,-106.218 148.799,-81.7346"/>
<polygon fill="midnightblue" stroke="midnightblue" points="150.881,-78.9189 140.851,-75.5048 146.562,-84.4283 150.881,-78.9189"/>
</g>
<!-- Node16&#45;&gt;Node7 -->
<g id="edge21" class="edge"><title>Node16&#45;&gt;Node7</title>
<path fill="none" stroke="midnightblue" d="M288.602,-174.403C300.252,-164.958 319.186,-149.606 333.335,-138.134"/>
<polygon fill="midnightblue" stroke="midnightblue" points="335.854,-140.597 341.417,-131.581 331.445,-135.16 335.854,-140.597"/>
</g>
<!-- Node17 -->
<g id="node17" class="node"><title>Node17</title>
<g id="a_node17"><a xlink:href="PhysicsModule_8hpp.html" target="_top" xlink:title="C++ header file for the ElectrodeSolver class. ">
<polygon fill="none" stroke="black" points="454,-112.5 454,-131.5 556,-131.5 556,-112.5 454,-112.5"/>
<text text-anchor="middle" x="505" y="-119.5" font-family="Helvetica,sans-Serif" font-size="10.00">PhysicsModule.hpp</text>
</a>
</g>
</g>
<!-- Node16&#45;&gt;Node17 -->
<g id="edge22" class="edge"><title>Node16&#45;&gt;Node17</title>
<path fill="none" stroke="midnightblue" d="M310.524,-174.403C350.558,-163.822 418.638,-145.827 462.702,-134.18"/>
<polygon fill="midnightblue" stroke="midnightblue" points="463.763,-137.52 472.537,-131.581 461.974,-130.752 463.763,-137.52"/>
</g>
<!-- Node16&#45;&gt;Node8 -->
<g id="edge26" class="edge"><title>Node16&#45;&gt;Node8</title>
<path fill="none" stroke="midnightblue" d="M275.144,-174.281C268.979,-155.463 254.315,-110.697 246.008,-85.3399"/>
<polygon fill="midnightblue" stroke="midnightblue" points="249.225,-83.9183 242.786,-75.5048 242.573,-86.0975 249.225,-83.9183"/>
</g>
<!-- Node16&#45;&gt;Node9 -->
<g id="edge27" class="edge"><title>Node16&#45;&gt;Node9</title>
<path fill="none" stroke="midnightblue" d="M278.578,-174.437C279.882,-160.354 284.039,-131.883 297,-112 305.115,-99.5509 317.807,-88.9422 329.057,-81.1574"/>
<polygon fill="midnightblue" stroke="midnightblue" points="331.2,-83.9386 337.656,-75.5384 327.37,-78.0788 331.2,-83.9386"/>
</g>
<!-- Node16&#45;&gt;Node10 -->
<g id="edge28" class="edge"><title>Node16&#45;&gt;Node10</title>
<path fill="none" stroke="midnightblue" d="M302.1,-174.36C328.261,-164.777 371.108,-148.482 407,-132 424.344,-124.036 427.461,-119.526 445,-112 475.788,-98.7879 511.853,-86.7916 538.654,-78.5139"/>
<polygon fill="midnightblue" stroke="midnightblue" points="539.898,-81.7937 548.442,-75.5287 537.856,-75.0982 539.898,-81.7937"/>
</g>
<!-- Node18 -->
<g id="node18" class="node"><title>Node18</title>
<polygon fill="none" stroke="#bfbfbf" points="574,-112.5 574,-131.5 674,-131.5 674,-112.5 574,-112.5"/>
<text text-anchor="middle" x="624" y="-119.5" font-family="Helvetica,sans-Serif" font-size="10.00">Epetra_FEVector.h</text>
</g>
<!-- Node16&#45;&gt;Node18 -->
<g id="edge29" class="edge"><title>Node16&#45;&gt;Node18</title>
<path fill="none" stroke="midnightblue" d="M314.428,-174.425C324.322,-172.211 335.051,-169.914 345,-168 385.813,-160.147 494.799,-142.98 563.851,-132.266"/>
<polygon fill="midnightblue" stroke="midnightblue" points="564.39,-135.724 573.736,-130.734 563.318,-128.807 564.39,-135.724"/>
</g>
<!-- Node16&#45;&gt;Node11 -->
<g id="edge30" class="edge"><title>Node16&#45;&gt;Node11</title>
<path fill="none" stroke="midnightblue" d="M312.627,-174.457C322.991,-172.114 334.415,-169.743 345,-168 419.533,-155.729 628.36,-184.155 683,-132 695.241,-120.315 696.66,-100.372 695.685,-85.65"/>
<polygon fill="midnightblue" stroke="midnightblue" points="699.157,-85.2033 694.612,-75.633 692.197,-85.9489 699.157,-85.2033"/>
</g>
<!-- Node19 -->
<g id="node19" class="node"><title>Node19</title>
<polygon fill="none" stroke="#bfbfbf" points="730,-112.5 730,-131.5 844,-131.5 844,-112.5 730,-112.5"/>
<text text-anchor="middle" x="787" y="-119.5" font-family="Helvetica,sans-Serif" font-size="10.00">Epetra_FECrsMatrix.h</text>
</g>
<!-- Node16&#45;&gt;Node19 -->
<g id="edge31" class="edge"><title>Node16&#45;&gt;Node19</title>
<path fill="none" stroke="midnightblue" d="M312.272,-174.472C322.727,-172.102 334.289,-169.712 345,-168 508.587,-141.854 551.364,-150.418 716,-132 717.111,-131.876 718.232,-131.749 719.361,-131.62"/>
<polygon fill="midnightblue" stroke="midnightblue" points="720.141,-135.053 729.666,-130.414 719.327,-128.1 720.141,-135.053"/>
</g>
<!-- Node16&#45;&gt;Node13 -->
<g id="edge32" class="edge"><title>Node16&#45;&gt;Node13</title>
<path fill="none" stroke="midnightblue" d="M311.558,-174.455C322.19,-172.026 334.032,-169.607 345,-168 400.988,-159.796 814.428,-173.402 853,-132 867.529,-116.405 847.88,-95.6034 830.393,-81.7781"/>
<polygon fill="midnightblue" stroke="midnightblue" points="832.246,-78.7928 822.142,-75.6049 828.053,-84.3979 832.246,-78.7928"/>
</g>
<!-- Node16&#45;&gt;Node14 -->
<g id="edge33" class="edge"><title>Node16&#45;&gt;Node14</title>
<path fill="none" stroke="midnightblue" d="M311.555,-174.44C322.188,-172.01 334.03,-169.595 345,-168 402.862,-159.589 822.963,-166.732 870,-132 884.416,-121.355 890.519,-101.247 893.103,-86.2027"/>
<polygon fill="midnightblue" stroke="midnightblue" points="896.621,-86.3003 894.472,-75.9256 889.682,-85.3758 896.621,-86.3003"/>
</g>
<!-- Node16&#45;&gt;Node15 -->
<g id="edge34" class="edge"><title>Node16&#45;&gt;Node15</title>
<path fill="none" stroke="midnightblue" d="M311.553,-174.422C322.185,-171.991 334.028,-169.58 345,-168 465.575,-150.641 781.242,-182.72 892,-132 914.629,-121.638 933.593,-99.5019 944.865,-83.9531"/>
<polygon fill="midnightblue" stroke="midnightblue" points="947.766,-85.9119 950.582,-75.6982 942.011,-81.9265 947.766,-85.9119"/>
</g>
<!-- Node17&#45;&gt;Node2 -->
<g id="edge23" class="edge"><title>Node17&#45;&gt;Node2</title>
<path fill="none" stroke="midnightblue" d="M453.806,-115.113C390.662,-107.615 279.824,-93.6772 175.57,-76.178"/>
<polygon fill="midnightblue" stroke="midnightblue" points="175.947,-72.6922 165.503,-74.4735 174.779,-79.5939 175.947,-72.6922"/>
</g>
<!-- Node17&#45;&gt;Node14 -->
<g id="edge24" class="edge"><title>Node17&#45;&gt;Node14</title>
<path fill="none" stroke="midnightblue" d="M556.049,-113.244C559.077,-112.815 562.078,-112.397 565,-112 696.32,-94.1689 730.857,-101.015 861,-76 861.6,-75.8847 862.204,-75.7648 862.813,-75.6406"/>
<polygon fill="midnightblue" stroke="midnightblue" points="863.826,-78.9991 872.789,-73.349 862.259,-72.1767 863.826,-78.9991"/>
</g>
<!-- Node17&#45;&gt;Node15 -->
<g id="edge25" class="edge"><title>Node17&#45;&gt;Node15</title>
<path fill="none" stroke="midnightblue" d="M556.039,-113.168C559.069,-112.758 562.073,-112.365 565,-112 721.718,-92.4441 766.023,-106.699 925.315,-75.7297"/>
<polygon fill="midnightblue" stroke="midnightblue" points="926.341,-79.0948 935.474,-73.7243 924.986,-72.2274 926.341,-79.0948"/>
</g>
</g>
</svg>
