<?xml version="1.0" encoding="UTF-8" standalone="no"?>
<!DOCTYPE svg PUBLIC "-//W3C//DTD SVG 1.1//EN"
 "http://www.w3.org/Graphics/SVG/1.1/DTD/svg11.dtd">
<!-- Generated by graphviz version 2.30.1 (20150305.2338)
 -->
<!-- Title: Solver.cpp Pages: 1 -->
<!--zoomable 376 -->
<svg id="main" version="1.1" xmlns="http://www.w3.org/2000/svg" xmlns:xlink="http://www.w3.org/1999/xlink" xml:space="preserve" onload="init(evt)">
<style type="text/css"><![CDATA[
.edge:hover path { stroke: red; }
.edge:hover polygon { stroke: red; fill: red; }
]]></style>
<script type="text/javascript"><![CDATA[
var edges = document.getElementsByTagName('g');
if (edges && edges.length) {
  for (var i=0;i<edges.length;i++) {
    if (edges[i].id.substr(0,4)=='edge') {
      edges[i].setAttribute('class','edge');
    }
  }
}
]]></script>
        <defs>
                <circle id="rim" cx="0" cy="0" r="7"/>
                <circle id="rim2" cx="0" cy="0" r="3.5"/>
                <g id="zoomPlus">
                        <use xlink:href="#rim" fill="#404040">
                                <set attributeName="fill" to="#808080" begin="zoomplus.mouseover" end="zoomplus.mouseout"/>
                        </use>
                        <path d="M-4,0h8M0,-4v8" fill="none" stroke="white" stroke-width="1.5" pointer-events="none"/>
                </g>
                <g id="zoomMin">
                        <use xlink:href="#rim" fill="#404040">
                                <set attributeName="fill" to="#808080" begin="zoomminus.mouseover" end="zoomminus.mouseout"/>
                        </use>
                        <path d="M-4,0h8" fill="none" stroke="white" stroke-width="1.5" pointer-events="none"/>
                </g>
                <g id="dirArrow">
                        <path fill="none" stroke="white" stroke-width="1.5" d="M0,-3.0v7 M-2.5,-0.5L0,-3.0L2.5,-0.5"/>
                </g>
               <g id="resetDef">
                       <use xlink:href="#rim2" fill="#404040">
                               <set attributeName="fill" to="#808080" begin="reset.mouseover" end="reset.mouseout"/>
                       </use>
               </g>
        </defs>

<script type="text/javascript">
var viewWidth = 1355;
var viewHeight = 376;
var sectionId = 'dynsection-0';
</script>
<script xlink:href="svgpan.js"/>
<svg id="graph" class="graph">
<g id="viewport">
<title>Solver.cpp</title>
<!-- Node1 -->
<g id="node1" class="node"><title>Node1</title>
<polygon fill="#bfbfbf" stroke="black" points="1277.5,-348.5 1277.5,-367.5 1340.5,-367.5 1340.5,-348.5 1277.5,-348.5"/>
<text text-anchor="middle" x="1309" y="-355.5" font-family="Helvetica,sans-Serif" font-size="10.00">Solver.cpp</text>
</g>
<!-- Node2 -->
<g id="node2" class="node"><title>Node2</title>
<polygon fill="none" stroke="#bfbfbf" points="1193.5,-56.5 1193.5,-75.5 1234.5,-75.5 1234.5,-56.5 1193.5,-56.5"/>
<text text-anchor="middle" x="1214" y="-63.5" font-family="Helvetica,sans-Serif" font-size="10.00">string</text>
</g>
<!-- Node1&#45;&gt;Node2 -->
<g id="edge1" class="edge"><title>Node1&#45;&gt;Node2</title>
<path fill="none" stroke="midnightblue" d="M1314.28,-348.231C1324.73,-330.043 1347,-286.601 1347,-247 1347,-247 1347,-247 1347,-183 1347,-128.769 1283.42,-94.0766 1244.18,-77.829"/>
<polygon fill="midnightblue" stroke="midnightblue" points="1245.37,-74.5346 1234.78,-74.095 1242.78,-81.04 1245.37,-74.5346"/>
</g>
<!-- Node3 -->
<g id="node3" class="node"><title>Node3</title>
<g id="a_node3"><a xlink:href="Solver_8hpp.html" target="_top" xlink:title="C++ header file for the SolutionData class. ">
<polygon fill="none" stroke="black" points="1239.5,-292.5 1239.5,-311.5 1302.5,-311.5 1302.5,-292.5 1239.5,-292.5"/>
<text text-anchor="middle" x="1271" y="-299.5" font-family="Helvetica,sans-Serif" font-size="10.00">Solver.hpp</text>
</a>
</g>
</g>
<!-- Node1&#45;&gt;Node3 -->
<g id="edge2" class="edge"><title>Node1&#45;&gt;Node3</title>
<path fill="none" stroke="midnightblue" d="M1302.73,-348.083C1297.36,-340.455 1289.48,-329.264 1282.92,-319.941"/>
<polygon fill="midnightblue" stroke="midnightblue" points="1285.78,-317.915 1277.16,-311.751 1280.05,-321.943 1285.78,-317.915"/>
</g>
<!-- Node4 -->
<g id="node4" class="node"><title>Node4</title>
<g id="a_node4"><a xlink:href="HalfCell_8hpp.html" target="_top" xlink:title="Program interface for the monolithic battery simulation software. ">
<polygon fill="none" stroke="black" points="1042.5,-56.5 1042.5,-75.5 1113.5,-75.5 1113.5,-56.5 1042.5,-56.5"/>
<text text-anchor="middle" x="1078" y="-63.5" font-family="Helvetica,sans-Serif" font-size="10.00">HalfCell.hpp</text>
</a>
</g>
</g>
<!-- Node3&#45;&gt;Node4 -->
<g id="edge3" class="edge"><title>Node3&#45;&gt;Node4</title>
<path fill="none" stroke="midnightblue" d="M1267.45,-292.494C1255.23,-263.978 1212.33,-170.285 1153,-112 1139.67,-98.9056 1121.83,-88.0027 1106.89,-80.2098"/>
<polygon fill="midnightblue" stroke="midnightblue" points="1108.08,-76.8909 1097.57,-75.546 1104.95,-83.151 1108.08,-76.8909"/>
</g>
<!-- Node7 -->
<g id="node7" class="node"><title>Node7</title>
<g id="a_node7"><a xlink:href="DeviceData_8hpp.html" target="_top" xlink:title="C++ header file for the DeviceData class. ">
<polygon fill="none" stroke="black" points="646.5,-236.5 646.5,-255.5 733.5,-255.5 733.5,-236.5 646.5,-236.5"/>
<text text-anchor="middle" x="690" y="-243.5" font-family="Helvetica,sans-Serif" font-size="10.00">DeviceData.hpp</text>
</a>
</g>
</g>
<!-- Node3&#45;&gt;Node7 -->
<g id="edge6" class="edge"><title>Node3&#45;&gt;Node7</title>
<path fill="none" stroke="midnightblue" d="M1239.35,-298.058C1144.65,-289.256 862.713,-263.052 743.826,-252.003"/>
<polygon fill="midnightblue" stroke="midnightblue" points="743.798,-248.485 733.517,-251.045 743.15,-255.455 743.798,-248.485"/>
</g>
<!-- Node16 -->
<g id="node16" class="node"><title>Node16</title>
<polygon fill="none" stroke="#bfbfbf" points="901,-56.5 901,-75.5 945,-75.5 945,-56.5 901,-56.5"/>
<text text-anchor="middle" x="923" y="-63.5" font-family="Helvetica,sans-Serif" font-size="10.00">vector</text>
</g>
<!-- Node3&#45;&gt;Node16 -->
<g id="edge45" class="edge"><title>Node3&#45;&gt;Node16</title>
<path fill="none" stroke="midnightblue" d="M1258.06,-292.433C1220.74,-267.697 1109.68,-193.979 1018,-132 992.417,-114.704 963.105,-94.6053 943.887,-81.3892"/>
<polygon fill="midnightblue" stroke="midnightblue" points="945.793,-78.452 935.571,-75.6664 941.824,-84.2186 945.793,-78.452"/>
</g>
<!-- Node3&#45;&gt;Node2 -->
<g id="edge46" class="edge"><title>Node3&#45;&gt;Node2</title>
<path fill="none" stroke="midnightblue" d="M1274.6,-292.222C1278.06,-283.285 1283.03,-268.942 1285,-256 1290.88,-217.333 1296.8,-205.29 1285,-168 1274.24,-133.999 1247.48,-101.532 1230.06,-82.9669"/>
<polygon fill="midnightblue" stroke="midnightblue" points="1232.48,-80.4405 1223.02,-75.6783 1227.45,-85.3031 1232.48,-80.4405"/>
</g>
<!-- Node5 -->
<g id="node5" class="node"><title>Node5</title>
<polygon fill="none" stroke="#bfbfbf" points="1013.5,-0.5 1013.5,-19.5 1068.5,-19.5 1068.5,-0.5 1013.5,-0.5"/>
<text text-anchor="middle" x="1041" y="-7.5" font-family="Helvetica,sans-Serif" font-size="10.00">Global.H</text>
</g>
<!-- Node4&#45;&gt;Node5 -->
<g id="edge4" class="edge"><title>Node4&#45;&gt;Node5</title>
<path fill="none" stroke="midnightblue" d="M1071.89,-56.083C1066.72,-48.5341 1059.15,-37.4948 1052.81,-28.2298"/>
<polygon fill="midnightblue" stroke="midnightblue" points="1055.54,-26.0221 1047,-19.7511 1049.76,-29.9787 1055.54,-26.0221"/>
</g>
<!-- Node6 -->
<g id="node6" class="node"><title>Node6</title>
<polygon fill="none" stroke="#bfbfbf" points="1087,-0.5 1087,-19.5 1145,-19.5 1145,-0.5 1087,-0.5"/>
<text text-anchor="middle" x="1116" y="-7.5" font-family="Helvetica,sans-Serif" font-size="10.00">Profiler.H</text>
</g>
<!-- Node4&#45;&gt;Node6 -->
<g id="edge5" class="edge"><title>Node4&#45;&gt;Node6</title>
<path fill="none" stroke="midnightblue" d="M1084.27,-56.083C1089.64,-48.4554 1097.52,-37.2645 1104.08,-27.9408"/>
<polygon fill="midnightblue" stroke="midnightblue" points="1106.95,-29.9434 1109.84,-19.7511 1101.22,-25.9149 1106.95,-29.9434"/>
</g>
<!-- Node8 -->
<g id="node8" class="node"><title>Node8</title>
<polygon fill="none" stroke="#bfbfbf" points="112.5,-56.5 112.5,-75.5 189.5,-75.5 189.5,-56.5 112.5,-56.5"/>
<text text-anchor="middle" x="151" y="-63.5" font-family="Helvetica,sans-Serif" font-size="10.00">Parameters.H</text>
</g>
<!-- Node7&#45;&gt;Node8 -->
<g id="edge7" class="edge"><title>Node7&#45;&gt;Node8</title>
<path fill="none" stroke="midnightblue" d="M660.49,-236.347C637.445,-228.806 605.212,-216.488 580,-200 562.902,-188.818 565.382,-176.914 547,-168 438.467,-115.368 393.125,-167.997 278,-132 238.801,-119.743 197.1,-96.0943 172.584,-80.9532"/>
<polygon fill="midnightblue" stroke="midnightblue" points="174.401,-77.9611 164.071,-75.6082 170.679,-83.8896 174.401,-77.9611"/>
</g>
<!-- Node7&#45;&gt;Node4 -->
<g id="edge8" class="edge"><title>Node7&#45;&gt;Node4</title>
<path fill="none" stroke="midnightblue" d="M733.516,-241.257C837.132,-231.289 1093.18,-200.088 1138,-132 1150.93,-112.358 1126.93,-92.9579 1105.54,-80.5379"/>
<polygon fill="midnightblue" stroke="midnightblue" points="1107.11,-77.4036 1096.66,-75.6621 1103.74,-83.5406 1107.11,-77.4036"/>
</g>
<!-- Node9 -->
<g id="node9" class="node"><title>Node9</title>
<g id="a_node9"><a xlink:href="SolutionData_8hpp.html" target="_top" xlink:title="C++ header file for the SolutionData class. ">
<polygon fill="none" stroke="black" points="439,-112.5 439,-131.5 531,-131.5 531,-112.5 439,-112.5"/>
<text text-anchor="middle" x="485" y="-119.5" font-family="Helvetica,sans-Serif" font-size="10.00">SolutionData.hpp</text>
</a>
</g>
</g>
<!-- Node7&#45;&gt;Node9 -->
<g id="edge9" class="edge"><title>Node7&#45;&gt;Node9</title>
<path fill="none" stroke="midnightblue" d="M676.523,-236.223C662.9,-227.288 641.304,-212.946 623,-200 603.551,-186.244 600.42,-180.27 580,-168 559.219,-155.513 534.424,-143.868 515.377,-135.554"/>
<polygon fill="midnightblue" stroke="midnightblue" points="516.561,-132.253 505.992,-131.523 513.799,-138.685 516.561,-132.253"/>
</g>
<!-- Node17 -->
<g id="node17" class="node"><title>Node17</title>
<g id="a_node17"><a xlink:href="DeviceComponent_8hpp.html" target="_top" xlink:title="C++ header file for the DeviceComponent class. ">
<polygon fill="none" stroke="black" points="632,-174.5 632,-193.5 748,-193.5 748,-174.5 632,-174.5"/>
<text text-anchor="middle" x="690" y="-181.5" font-family="Helvetica,sans-Serif" font-size="10.00">DeviceComponent.hpp</text>
</a>
</g>
</g>
<!-- Node7&#45;&gt;Node17 -->
<g id="edge20" class="edge"><title>Node7&#45;&gt;Node17</title>
<path fill="none" stroke="midnightblue" d="M690,-236.403C690,-227.938 690,-214.728 690,-203.82"/>
<polygon fill="midnightblue" stroke="midnightblue" points="693.5,-203.581 690,-193.581 686.5,-203.581 693.5,-203.581"/>
</g>
<!-- Node21 -->
<g id="node21" class="node"><title>Node21</title>
<polygon fill="none" stroke="#bfbfbf" points="804,-174.5 804,-193.5 904,-193.5 904,-174.5 804,-174.5"/>
<text text-anchor="middle" x="854" y="-181.5" font-family="Helvetica,sans-Serif" font-size="10.00">Teuchos_RCP.hpp</text>
</g>
<!-- Node7&#45;&gt;Node21 -->
<g id="edge37" class="edge"><title>Node7&#45;&gt;Node21</title>
<path fill="none" stroke="midnightblue" d="M713.497,-236.403C741.629,-226.111 788.929,-208.806 820.789,-197.15"/>
<polygon fill="midnightblue" stroke="midnightblue" points="822.358,-200.303 830.546,-193.581 819.953,-193.73 822.358,-200.303"/>
</g>
<!-- Node22 -->
<g id="node22" class="node"><title>Node22</title>
<polygon fill="none" stroke="#bfbfbf" points="922.5,-174.5 922.5,-193.5 971.5,-193.5 971.5,-174.5 922.5,-174.5"/>
<text text-anchor="middle" x="947" y="-181.5" font-family="Helvetica,sans-Serif" font-size="10.00">NOX.H</text>
</g>
<!-- Node7&#45;&gt;Node22 -->
<g id="edge38" class="edge"><title>Node7&#45;&gt;Node22</title>
<path fill="none" stroke="midnightblue" d="M733.873,-239.019C779.364,-232.154 852.203,-219.295 913,-200 915.421,-199.232 917.902,-198.345 920.367,-197.394"/>
<polygon fill="midnightblue" stroke="midnightblue" points="921.753,-200.608 929.633,-193.526 919.057,-194.148 921.753,-200.608"/>
</g>
<!-- Node23 -->
<g id="node23" class="node"><title>Node23</title>
<polygon fill="none" stroke="#bfbfbf" points="0,-169 0,-199 116,-199 116,-169 0,-169"/>
<text text-anchor="start" x="8" y="-187" font-family="Helvetica,sans-Serif" font-size="10.00">NOX_Epetra_Interface</text>
<text text-anchor="middle" x="58" y="-176" font-family="Helvetica,sans-Serif" font-size="10.00">_Required.H</text>
</g>
<!-- Node7&#45;&gt;Node23 -->
<g id="edge39" class="edge"><title>Node7&#45;&gt;Node23</title>
<path fill="none" stroke="midnightblue" d="M646.164,-243.61C552.45,-240.186 325.591,-229.489 126.09,-200.021"/>
<polygon fill="midnightblue" stroke="midnightblue" points="126.418,-196.531 116.01,-198.512 125.382,-203.454 126.418,-196.531"/>
</g>
<!-- Node24 -->
<g id="node24" class="node"><title>Node24</title>
<polygon fill="none" stroke="#bfbfbf" points="134,-169 134,-199 250,-199 250,-169 134,-169"/>
<text text-anchor="start" x="142" y="-187" font-family="Helvetica,sans-Serif" font-size="10.00">NOX_Epetra_Interface</text>
<text text-anchor="middle" x="192" y="-176" font-family="Helvetica,sans-Serif" font-size="10.00">_Jacobian.H</text>
</g>
<!-- Node7&#45;&gt;Node24 -->
<g id="edge40" class="edge"><title>Node7&#45;&gt;Node24</title>
<path fill="none" stroke="midnightblue" d="M646.342,-242.127C570.015,-236.738 407.223,-223.621 260.137,-200.064"/>
<polygon fill="midnightblue" stroke="midnightblue" points="260.456,-196.57 250.024,-198.424 259.335,-203.48 260.456,-196.57"/>
</g>
<!-- Node25 -->
<g id="node25" class="node"><title>Node25</title>
<polygon fill="none" stroke="#bfbfbf" points="268.5,-169 268.5,-199 405.5,-199 405.5,-169 268.5,-169"/>
<text text-anchor="start" x="276.5" y="-187" font-family="Helvetica,sans-Serif" font-size="10.00">NOX_Epetra_LinearSystem</text>
<text text-anchor="middle" x="337" y="-176" font-family="Helvetica,sans-Serif" font-size="10.00">_AztecOO.H</text>
</g>
<!-- Node7&#45;&gt;Node25 -->
<g id="edge41" class="edge"><title>Node7&#45;&gt;Node25</title>
<path fill="none" stroke="midnightblue" d="M646.118,-238.205C593.802,-230.018 503.467,-215.612 415.984,-200.147"/>
<polygon fill="midnightblue" stroke="midnightblue" points="416.342,-196.656 405.884,-198.355 415.119,-203.548 416.342,-196.656"/>
</g>
<!-- Node26 -->
<g id="node26" class="node"><title>Node26</title>
<polygon fill="none" stroke="#bfbfbf" points="424,-174.5 424,-193.5 538,-193.5 538,-174.5 424,-174.5"/>
<text text-anchor="middle" x="481" y="-181.5" font-family="Helvetica,sans-Serif" font-size="10.00">NOX_Epetra_Group.H</text>
</g>
<!-- Node7&#45;&gt;Node26 -->
<g id="edge42" class="edge"><title>Node7&#45;&gt;Node26</title>
<path fill="none" stroke="midnightblue" d="M660.055,-236.403C623.428,-225.889 561.305,-208.054 520.716,-196.402"/>
<polygon fill="midnightblue" stroke="midnightblue" points="521.467,-192.976 510.889,-193.581 519.535,-199.704 521.467,-192.976"/>
</g>
<!-- Node7&#45;&gt;Node16 -->
<g id="edge43" class="edge"><title>Node7&#45;&gt;Node16</title>
<path fill="none" stroke="midnightblue" d="M703.645,-236.453C717.398,-227.696 739.094,-213.49 757,-200 774.635,-186.714 775.724,-178.768 795,-168 839.54,-143.119 868.554,-168.694 904,-132 915.859,-119.723 920.378,-100.464 922.068,-86.0923"/>
<polygon fill="midnightblue" stroke="midnightblue" points="925.58,-86.0916 922.903,-75.8404 918.603,-85.5232 925.58,-86.0916"/>
</g>
<!-- Node7&#45;&gt;Node2 -->
<g id="edge44" class="edge"><title>Node7&#45;&gt;Node2</title>
<path fill="none" stroke="midnightblue" d="M733.737,-242.369C818.019,-236.856 999.749,-222.691 1058,-200 1121.11,-175.415 1176.6,-113.88 1200.92,-83.9201"/>
<polygon fill="midnightblue" stroke="midnightblue" points="1203.97,-85.7187 1207.45,-75.7117 1198.48,-81.3644 1203.97,-85.7187"/>
</g>
<!-- Node9&#45;&gt;Node8 -->
<g id="edge10" class="edge"><title>Node9&#45;&gt;Node8</title>
<path fill="none" stroke="midnightblue" d="M438.693,-114.23C383.948,-106.117 289.83,-91.8285 199.814,-76.2739"/>
<polygon fill="midnightblue" stroke="midnightblue" points="200.161,-72.7819 189.71,-74.5195 198.964,-79.6787 200.161,-72.7819"/>
</g>
<!-- Node9&#45;&gt;Node4 -->
<g id="edge11" class="edge"><title>Node9&#45;&gt;Node4</title>
<path fill="none" stroke="midnightblue" d="M531.176,-113.173C534.158,-112.751 537.119,-112.356 540,-112 634.847,-100.292 919.963,-78.6828 1032.04,-70.3755"/>
<polygon fill="midnightblue" stroke="midnightblue" points="1032.62,-73.8423 1042.33,-69.6139 1032.1,-66.8614 1032.62,-73.8423"/>
</g>
<!-- Node10 -->
<g id="node10" class="node"><title>Node10</title>
<polygon fill="none" stroke="#bfbfbf" points="431.5,-56.5 431.5,-75.5 544.5,-75.5 544.5,-56.5 431.5,-56.5"/>
<text text-anchor="middle" x="488" y="-63.5" font-family="Helvetica,sans-Serif" font-size="10.00">Epetra_SerialComm.h</text>
</g>
<!-- Node9&#45;&gt;Node10 -->
<g id="edge12" class="edge"><title>Node9&#45;&gt;Node10</title>
<path fill="none" stroke="midnightblue" d="M485.495,-112.083C485.889,-105.006 486.452,-94.8611 486.945,-85.9865"/>
<polygon fill="midnightblue" stroke="midnightblue" points="490.454,-85.9299 487.514,-75.7511 483.464,-85.5415 490.454,-85.9299"/>
</g>
<!-- Node11 -->
<g id="node11" class="node"><title>Node11</title>
<polygon fill="none" stroke="#bfbfbf" points="687.5,-56.5 687.5,-75.5 764.5,-75.5 764.5,-56.5 687.5,-56.5"/>
<text text-anchor="middle" x="726" y="-63.5" font-family="Helvetica,sans-Serif" font-size="10.00">Epetra_Map.h</text>
</g>
<!-- Node9&#45;&gt;Node11 -->
<g id="edge13" class="edge"><title>Node9&#45;&gt;Node11</title>
<path fill="none" stroke="midnightblue" d="M523.187,-112.444C565.141,-103.043 632.594,-87.9291 678.071,-77.7393"/>
<polygon fill="midnightblue" stroke="midnightblue" points="678.999,-81.1183 687.991,-75.5164 677.468,-74.2876 678.999,-81.1183"/>
</g>
<!-- Node12 -->
<g id="node12" class="node"><title>Node12</title>
<polygon fill="none" stroke="#bfbfbf" points="782.5,-56.5 782.5,-75.5 869.5,-75.5 869.5,-56.5 782.5,-56.5"/>
<text text-anchor="middle" x="826" y="-63.5" font-family="Helvetica,sans-Serif" font-size="10.00">Epetra_Vector.h</text>
</g>
<!-- Node9&#45;&gt;Node12 -->
<g id="edge14" class="edge"><title>Node9&#45;&gt;Node12</title>
<path fill="none" stroke="midnightblue" d="M531.209,-113.408C534.183,-112.929 537.133,-112.456 540,-112 640.35,-96.0374 667.916,-92.9518 772.328,-76.0882"/>
<polygon fill="midnightblue" stroke="midnightblue" points="773.024,-79.5211 782.336,-74.4677 771.905,-72.6111 773.024,-79.5211"/>
</g>
<!-- Node13 -->
<g id="node13" class="node"><title>Node13</title>
<polygon fill="none" stroke="#bfbfbf" points="207.5,-56.5 207.5,-75.5 308.5,-75.5 308.5,-56.5 207.5,-56.5"/>
<text text-anchor="middle" x="258" y="-63.5" font-family="Helvetica,sans-Serif" font-size="10.00">Epetra_CrsMatrix.h</text>
</g>
<!-- Node9&#45;&gt;Node13 -->
<g id="edge15" class="edge"><title>Node9&#45;&gt;Node13</title>
<path fill="none" stroke="midnightblue" d="M449.031,-112.444C409.681,-103.083 346.513,-88.0561 303.686,-77.868"/>
<polygon fill="midnightblue" stroke="midnightblue" points="304.339,-74.4258 293.801,-75.5164 302.719,-81.2358 304.339,-74.4258"/>
</g>
<!-- Node14 -->
<g id="node14" class="node"><title>Node14</title>
<polygon fill="none" stroke="#bfbfbf" points="563,-56.5 563,-75.5 669,-75.5 669,-56.5 563,-56.5"/>
<text text-anchor="middle" x="616" y="-63.5" font-family="Helvetica,sans-Serif" font-size="10.00">Epetra_RowMatrix.h</text>
</g>
<!-- Node9&#45;&gt;Node14 -->
<g id="edge16" class="edge"><title>Node9&#45;&gt;Node14</title>
<path fill="none" stroke="midnightblue" d="M505.757,-112.444C527.316,-103.557 561.263,-89.5632 585.794,-79.4514"/>
<polygon fill="midnightblue" stroke="midnightblue" points="587.428,-82.5634 595.34,-75.5164 584.761,-76.0917 587.428,-82.5634"/>
</g>
<!-- Node15 -->
<g id="node15" class="node"><title>Node15</title>
<polygon fill="none" stroke="#bfbfbf" points="326.5,-56.5 326.5,-75.5 413.5,-75.5 413.5,-56.5 326.5,-56.5"/>
<text text-anchor="middle" x="370" y="-63.5" font-family="Helvetica,sans-Serif" font-size="10.00">Epetra_Export.h</text>
</g>
<!-- Node9&#45;&gt;Node15 -->
<g id="edge17" class="edge"><title>Node9&#45;&gt;Node15</title>
<path fill="none" stroke="midnightblue" d="M466.778,-112.444C448.104,-103.675 418.844,-89.9355 397.383,-79.8579"/>
<polygon fill="midnightblue" stroke="midnightblue" points="398.676,-76.5988 388.137,-75.5164 395.701,-82.935 398.676,-76.5988"/>
</g>
<!-- Node9&#45;&gt;Node16 -->
<g id="edge18" class="edge"><title>Node9&#45;&gt;Node16</title>
<path fill="none" stroke="midnightblue" d="M531.185,-113.25C534.166,-112.809 537.123,-112.388 540,-112 689.714,-91.7939 728.664,-98.8376 878,-76 882.049,-75.3809 886.286,-74.6475 890.472,-73.8707"/>
<polygon fill="midnightblue" stroke="midnightblue" points="891.493,-77.2377 900.64,-71.8907 890.155,-70.3668 891.493,-77.2377"/>
</g>
<!-- Node9&#45;&gt;Node2 -->
<g id="edge19" class="edge"><title>Node9&#45;&gt;Node2</title>
<path fill="none" stroke="midnightblue" d="M531.167,-113.1C534.152,-112.696 537.116,-112.324 540,-112 797.538,-83.0377 863.661,-96.6194 1122,-76 1142.37,-74.3746 1165.23,-72.1402 1183.06,-70.3044"/>
<polygon fill="midnightblue" stroke="midnightblue" points="1183.61,-73.7668 1193.19,-69.2497 1182.88,-66.8044 1183.61,-73.7668"/>
</g>
<!-- Node17&#45;&gt;Node8 -->
<g id="edge21" class="edge"><title>Node17&#45;&gt;Node8</title>
<path fill="none" stroke="midnightblue" d="M631.993,-175.089C540.342,-162.501 369.565,-138.651 342,-132 311.467,-124.633 229.977,-95.6876 183.91,-79.0131"/>
<polygon fill="midnightblue" stroke="midnightblue" points="184.97,-75.6745 174.376,-75.5541 182.583,-82.2548 184.97,-75.6745"/>
</g>
<!-- Node17&#45;&gt;Node4 -->
<g id="edge22" class="edge"><title>Node17&#45;&gt;Node4</title>
<path fill="none" stroke="midnightblue" d="M732.642,-174.462C776.133,-165.376 845.361,-149.865 904,-132 955.519,-116.304 1013.87,-93.4225 1048.22,-79.4118"/>
<polygon fill="midnightblue" stroke="midnightblue" points="1049.74,-82.5726 1057.66,-75.5375 1047.08,-76.0968 1049.74,-82.5726"/>
</g>
<!-- Node17&#45;&gt;Node9 -->
<g id="edge23" class="edge"><title>Node17&#45;&gt;Node9</title>
<path fill="none" stroke="midnightblue" d="M660.628,-174.403C624.703,-163.889 563.768,-146.054 523.956,-134.402"/>
<polygon fill="midnightblue" stroke="midnightblue" points="524.898,-131.031 514.317,-131.581 522.931,-137.749 524.898,-131.031"/>
</g>
<!-- Node18 -->
<g id="node18" class="node"><title>Node18</title>
<g id="a_node18"><a xlink:href="PhysicsModule_8hpp.html" target="_top" xlink:title="C++ header file for the ElectrodeSolver class. ">
<polygon fill="none" stroke="black" points="1027,-112.5 1027,-131.5 1129,-131.5 1129,-112.5 1027,-112.5"/>
<text text-anchor="middle" x="1078" y="-119.5" font-family="Helvetica,sans-Serif" font-size="10.00">PhysicsModule.hpp</text>
</a>
</g>
</g>
<!-- Node17&#45;&gt;Node18 -->
<g id="edge24" class="edge"><title>Node17&#45;&gt;Node18</title>
<path fill="none" stroke="midnightblue" d="M745.179,-174.467C816.914,-163.374 941.829,-144.057 1016.53,-132.506"/>
<polygon fill="midnightblue" stroke="midnightblue" points="1017.38,-135.917 1026.72,-130.929 1016.31,-128.999 1017.38,-135.917"/>
</g>
<!-- Node17&#45;&gt;Node10 -->
<g id="edge28" class="edge"><title>Node17&#45;&gt;Node10</title>
<path fill="none" stroke="midnightblue" d="M637.524,-174.451C563.496,-162.142 436.604,-140.025 430,-132 415.032,-113.811 439.746,-93.6946 461.397,-80.7288"/>
<polygon fill="midnightblue" stroke="midnightblue" points="463.397,-83.6181 470.364,-75.6362 459.94,-77.5312 463.397,-83.6181"/>
</g>
<!-- Node17&#45;&gt;Node11 -->
<g id="edge29" class="edge"><title>Node17&#45;&gt;Node11</title>
<path fill="none" stroke="midnightblue" d="M692.706,-174.281C698.546,-155.463 712.439,-110.697 720.308,-85.3399"/>
<polygon fill="midnightblue" stroke="midnightblue" points="723.739,-86.0928 723.361,-75.5048 717.054,-84.018 723.739,-86.0928"/>
</g>
<!-- Node17&#45;&gt;Node12 -->
<g id="edge30" class="edge"><title>Node17&#45;&gt;Node12</title>
<path fill="none" stroke="midnightblue" d="M696.291,-174.4C706.908,-160.263 729.531,-131.716 753,-112 767.494,-99.8235 785.598,-88.6416 800.151,-80.4702"/>
<polygon fill="midnightblue" stroke="midnightblue" points="802.038,-83.4276 809.128,-75.5549 798.676,-77.2877 802.038,-83.4276"/>
</g>
<!-- Node19 -->
<g id="node19" class="node"><title>Node19</title>
<polygon fill="none" stroke="#bfbfbf" points="795,-112.5 795,-131.5 895,-131.5 895,-112.5 795,-112.5"/>
<text text-anchor="middle" x="845" y="-119.5" font-family="Helvetica,sans-Serif" font-size="10.00">Epetra_FEVector.h</text>
</g>
<!-- Node17&#45;&gt;Node19 -->
<g id="edge31" class="edge"><title>Node17&#45;&gt;Node19</title>
<path fill="none" stroke="midnightblue" d="M712.208,-174.403C738.681,-164.156 783.114,-146.956 813.22,-135.302"/>
<polygon fill="midnightblue" stroke="midnightblue" points="814.771,-138.455 822.833,-131.581 812.244,-131.927 814.771,-138.455"/>
</g>
<!-- Node17&#45;&gt;Node13 -->
<g id="edge32" class="edge"><title>Node17&#45;&gt;Node13</title>
<path fill="none" stroke="midnightblue" d="M631.745,-174.787C559.006,-164.204 438.914,-145.556 396,-132 354.167,-118.785 308.689,-95.4552 281.8,-80.6346"/>
<polygon fill="midnightblue" stroke="midnightblue" points="283.213,-77.4149 272.776,-75.5938 279.799,-83.5261 283.213,-77.4149"/>
</g>
<!-- Node20 -->
<g id="node20" class="node"><title>Node20</title>
<polygon fill="none" stroke="#bfbfbf" points="549,-112.5 549,-131.5 663,-131.5 663,-112.5 549,-112.5"/>
<text text-anchor="middle" x="606" y="-119.5" font-family="Helvetica,sans-Serif" font-size="10.00">Epetra_FECrsMatrix.h</text>
</g>
<!-- Node17&#45;&gt;Node20 -->
<g id="edge33" class="edge"><title>Node17&#45;&gt;Node20</title>
<path fill="none" stroke="midnightblue" d="M677.965,-174.403C664.492,-164.78 642.434,-149.024 626.285,-137.489"/>
<polygon fill="midnightblue" stroke="midnightblue" points="628.185,-134.545 618.013,-131.581 624.116,-140.241 628.185,-134.545"/>
</g>
<!-- Node17&#45;&gt;Node15 -->
<g id="edge34" class="edge"><title>Node17&#45;&gt;Node15</title>
<path fill="none" stroke="midnightblue" d="M634.006,-174.468C560.854,-162.996 439.928,-142.797 422,-132 403.111,-120.625 388.266,-99.7192 379.355,-84.6845"/>
<polygon fill="midnightblue" stroke="midnightblue" points="382.32,-82.8174 374.373,-75.8115 376.217,-86.2446 382.32,-82.8174"/>
</g>
<!-- Node17&#45;&gt;Node16 -->
<g id="edge35" class="edge"><title>Node17&#45;&gt;Node16</title>
<path fill="none" stroke="midnightblue" d="M699.394,-174.421C715.835,-159.798 751.38,-129.895 786,-112 820.068,-94.3899 862.42,-81.7421 890.943,-74.4234"/>
<polygon fill="midnightblue" stroke="midnightblue" points="891.929,-77.7848 900.784,-71.9688 890.235,-70.9928 891.929,-77.7848"/>
</g>
<!-- Node17&#45;&gt;Node2 -->
<g id="edge36" class="edge"><title>Node17&#45;&gt;Node2</title>
<path fill="none" stroke="midnightblue" d="M746.894,-174.477C762.475,-172.251 779.375,-169.935 795,-168 947.119,-149.158 997.182,-192.545 1138,-132 1163.3,-121.122 1186.43,-98.7684 1200.36,-83.3371"/>
<polygon fill="midnightblue" stroke="midnightblue" points="1203.18,-85.4313 1207.11,-75.5931 1197.9,-80.8318 1203.18,-85.4313"/>
</g>
<!-- Node18&#45;&gt;Node4 -->
<g id="edge25" class="edge"><title>Node18&#45;&gt;Node4</title>
<path fill="none" stroke="midnightblue" d="M1078,-112.083C1078,-105.006 1078,-94.8611 1078,-85.9865"/>
<polygon fill="midnightblue" stroke="midnightblue" points="1081.5,-85.751 1078,-75.7511 1074.5,-85.7511 1081.5,-85.751"/>
</g>
<!-- Node18&#45;&gt;Node16 -->
<g id="edge26" class="edge"><title>Node18&#45;&gt;Node16</title>
<path fill="none" stroke="midnightblue" d="M1053.44,-112.444C1026.87,-103.186 984.387,-88.3866 955.167,-78.2066"/>
<polygon fill="midnightblue" stroke="midnightblue" points="956.027,-74.7999 945.432,-74.8151 953.724,-81.4103 956.027,-74.7999"/>
</g>
<!-- Node18&#45;&gt;Node2 -->
<g id="edge27" class="edge"><title>Node18&#45;&gt;Node2</title>
<path fill="none" stroke="midnightblue" d="M1099.55,-112.444C1122.3,-103.412 1158.32,-89.1067 1183.88,-78.9612"/>
<polygon fill="midnightblue" stroke="midnightblue" points="1185.44,-82.1063 1193.44,-75.1629 1182.86,-75.6004 1185.44,-82.1063"/>
</g>
</g>
</svg>
        <g id="navigator" transform="translate(0 0)" fill="#404254">
                <rect fill="#f2f5e9" fill-opacity="0.5" stroke="#606060" stroke-width=".5" x="0" y="0" width="60" height="60"/>
                <use id="zoomplus" xlink:href="#zoomPlus" x="17" y="9" onmousedown="handleZoom(evt,'in')"/>
                <use id="zoomminus" xlink:href="#zoomMin" x="42" y="9" onmousedown="handleZoom(evt,'out')"/>
                <use id="reset" xlink:href="#resetDef" x="30" y="36" onmousedown="handleReset()"/>
                <g id="arrowUp" xlink:href="#dirArrow" transform="translate(30 24)" onmousedown="handlePan(0,-1)">
                  <use xlink:href="#rim" fill="#404040">
                        <set attributeName="fill" to="#808080" begin="arrowUp.mouseover" end="arrowUp.mouseout"/>
                  </use>
                  <path fill="none" stroke="white" stroke-width="1.5" d="M0,-3.0v7 M-2.5,-0.5L0,-3.0L2.5,-0.5"/>
                </g>
                <g id="arrowRight" xlink:href="#dirArrow" transform="rotate(90) translate(36 -43)" onmousedown="handlePan(1,0)">
                  <use xlink:href="#rim" fill="#404040">
                        <set attributeName="fill" to="#808080" begin="arrowRight.mouseover" end="arrowRight.mouseout"/>
                  </use>
                  <path fill="none" stroke="white" stroke-width="1.5" d="M0,-3.0v7 M-2.5,-0.5L0,-3.0L2.5,-0.5"/>
                </g>
                <g id="arrowDown" xlink:href="#dirArrow" transform="rotate(180) translate(-30 -48)" onmousedown="handlePan(0,1)">
                  <use xlink:href="#rim" fill="#404040">
                        <set attributeName="fill" to="#808080" begin="arrowDown.mouseover" end="arrowDown.mouseout"/>
                  </use>
                  <path fill="none" stroke="white" stroke-width="1.5" d="M0,-3.0v7 M-2.5,-0.5L0,-3.0L2.5,-0.5"/>
                </g>
                <g id="arrowLeft" xlink:href="#dirArrow" transform="rotate(270) translate(-36 17)" onmousedown="handlePan(-1,0)">
                  <use xlink:href="#rim" fill="#404040">
                        <set attributeName="fill" to="#808080" begin="arrowLeft.mouseover" end="arrowLeft.mouseout"/>
                  </use>
                  <path fill="none" stroke="white" stroke-width="1.5" d="M0,-3.0v7 M-2.5,-0.5L0,-3.0L2.5,-0.5"/>
                </g>
        </g>
        <svg viewBox="0 0 15 15" width="100%" height="30px" preserveAspectRatio="xMaxYMin meet">
         <g id="arrow_out" transform="scale(0.3 0.3)">
          <a xlink:href="Solver_8cpp__incl_org.svg" target="_base">
           <rect id="button" ry="5" rx="5" y="6" x="6" height="38" width="38"
                fill="#f2f5e9" fill-opacity="0.5" stroke="#606060" stroke-width="1.0"/>
           <path id="arrow"
             d="M 11.500037,31.436501 C 11.940474,20.09759 22.043105,11.32322 32.158766,21.979434 L 37.068811,17.246167 C 37.068811,17.246167 37.088388,32 37.088388,32 L 22.160133,31.978069 C 22.160133,31.978069 26.997745,27.140456 26.997745,27.140456 C 18.528582,18.264221 13.291696,25.230495 11.500037,31.436501 z"
             style="fill:#404040;"/>
          </a>
         </g>
        </svg>
</svg>
