<?xml version="1.0" encoding="UTF-8" standalone="no"?>
<!DOCTYPE svg PUBLIC "-//W3C//DTD SVG 1.1//EN"
 "http://www.w3.org/Graphics/SVG/1.1/DTD/svg11.dtd">
<!-- Generated by graphviz version 2.30.1 (20150305.2338)
 -->
<!-- Title: TestICED.H Pages: 1 -->
<svg width="201pt" height="84pt"
 viewBox="0.00 0.00 201.00 84.00" xmlns="http://www.w3.org/2000/svg" xmlns:xlink="http://www.w3.org/1999/xlink">
<g id="graph0" class="graph" transform="scale(1 1) rotate(0) translate(4 80)">
<title>TestICED.H</title>
<!-- Node1 -->
<g id="node1" class="node"><title>Node1</title>
<polygon fill="#bfbfbf" stroke="black" points="69.5,-56.5 69.5,-75.5 140.5,-75.5 140.5,-56.5 69.5,-56.5"/>
<text text-anchor="middle" x="105" y="-63.5" font-family="Helvetica,sans-Serif" font-size="10.00">TestICED.H</text>
</g>
<!-- Node2 -->
<g id="node2" class="node"><title>Node2</title>
<g id="a_node2"><a xlink:href="ParallelTestICED_8C.html" target="_top" xlink:title="Implements a command&#45;line interface for the ICED tests. ">
<polygon fill="none" stroke="black" points="0,-0.5 0,-19.5 104,-19.5 104,-0.5 0,-0.5"/>
<text text-anchor="middle" x="52" y="-7.5" font-family="Helvetica,sans-Serif" font-size="10.00">ParallelTestICED.C</text>
</a>
</g>
</g>
<!-- Node1&#45;&gt;Node2 -->
<g id="edge1" class="edge"><title>Node1&#45;&gt;Node2</title>
<path fill="none" stroke="midnightblue" d="M89.0191,-48.7175C79.6775,-39.1997 68.2541,-27.5608 60.589,-19.7511"/>
<polygon fill="midnightblue" stroke="midnightblue" points="86.7455,-51.3978 96.2481,-56.083 91.7413,-46.4945 86.7455,-51.3978"/>
</g>
<!-- Node3 -->
<g id="node3" class="node"><title>Node3</title>
<g id="a_node3"><a xlink:href="TestICED_8C.html" target="_top" xlink:title="Implements a command&#45;line interface for the ICED tests. ">
<polygon fill="none" stroke="black" points="122.5,-0.5 122.5,-19.5 193.5,-19.5 193.5,-0.5 122.5,-0.5"/>
<text text-anchor="middle" x="158" y="-7.5" font-family="Helvetica,sans-Serif" font-size="10.00">TestICED.C</text>
</a>
</g>
</g>
<!-- Node1&#45;&gt;Node3 -->
<g id="edge2" class="edge"><title>Node1&#45;&gt;Node3</title>
<path fill="none" stroke="midnightblue" d="M120.981,-48.7175C130.322,-39.1997 141.746,-27.5608 149.411,-19.7511"/>
<polygon fill="midnightblue" stroke="midnightblue" points="118.259,-46.4945 113.752,-56.083 123.254,-51.3978 118.259,-46.4945"/>
</g>
</g>
</svg>
