<?xml version="1.0" encoding="UTF-8" standalone="no"?>
<!DOCTYPE svg PUBLIC "-//W3C//DTD SVG 1.1//EN"
 "http://www.w3.org/Graphics/SVG/1.1/DTD/svg11.dtd">
<!-- Generated by graphviz version 2.30.1 (20150305.2338)
 -->
<!-- Title: TrilinosExample.hpp Pages: 1 -->
<svg width="783pt" height="84pt"
 viewBox="0.00 0.00 783.00 84.00" xmlns="http://www.w3.org/2000/svg" xmlns:xlink="http://www.w3.org/1999/xlink">
<g id="graph0" class="graph" transform="scale(1 1) rotate(0) translate(4 80)">
<title>TrilinosExample.hpp</title>
<!-- Node1 -->
<g id="node1" class="node"><title>Node1</title>
<polygon fill="#bfbfbf" stroke="black" points="298.5,-56.5 298.5,-75.5 403.5,-75.5 403.5,-56.5 298.5,-56.5"/>
<text text-anchor="middle" x="351" y="-63.5" font-family="Helvetica,sans-Serif" font-size="10.00">TrilinosExample.hpp</text>
</g>
<!-- Node2 -->
<g id="node2" class="node"><title>Node2</title>
<polygon fill="none" stroke="#bfbfbf" points="-0.5,-0.5 -0.5,-19.5 40.5,-19.5 40.5,-0.5 -0.5,-0.5"/>
<text text-anchor="middle" x="20" y="-7.5" font-family="Helvetica,sans-Serif" font-size="10.00">string</text>
</g>
<!-- Node1&#45;&gt;Node2 -->
<g id="edge1" class="edge"><title>Node1&#45;&gt;Node2</title>
<path fill="none" stroke="midnightblue" d="M298.442,-59.6386C239.963,-53.1246 142.583,-40.6472 50.8124,-20.1476"/>
<polygon fill="midnightblue" stroke="midnightblue" points="51.3322,-16.6766 40.8053,-17.8747 49.7817,-23.5027 51.3322,-16.6766"/>
</g>
<!-- Node3 -->
<g id="node3" class="node"><title>Node3</title>
<polygon fill="none" stroke="#bfbfbf" points="58.5,-0.5 58.5,-19.5 117.5,-19.5 117.5,-0.5 58.5,-0.5"/>
<text text-anchor="middle" x="88" y="-7.5" font-family="Helvetica,sans-Serif" font-size="10.00">stdexcept</text>
</g>
<!-- Node1&#45;&gt;Node3 -->
<g id="edge2" class="edge"><title>Node1&#45;&gt;Node3</title>
<path fill="none" stroke="midnightblue" d="M306.079,-56.4979C262.726,-48.1846 194.992,-34.9141 127.761,-20.3341"/>
<polygon fill="midnightblue" stroke="midnightblue" points="128.364,-16.8835 117.848,-18.1739 126.874,-23.723 128.364,-16.8835"/>
</g>
<!-- Node4 -->
<g id="node4" class="node"><title>Node4</title>
<polygon fill="none" stroke="#bfbfbf" points="135.5,-0.5 135.5,-19.5 220.5,-19.5 220.5,-0.5 135.5,-0.5"/>
<text text-anchor="middle" x="178" y="-7.5" font-family="Helvetica,sans-Serif" font-size="10.00">Epetra_config.h</text>
</g>
<!-- Node1&#45;&gt;Node4 -->
<g id="edge3" class="edge"><title>Node1&#45;&gt;Node4</title>
<path fill="none" stroke="midnightblue" d="M323.588,-56.4435C294.231,-47.2801 247.481,-32.6876 214.904,-22.5192"/>
<polygon fill="midnightblue" stroke="midnightblue" points="215.873,-19.1551 205.284,-19.5164 213.787,-25.8371 215.873,-19.1551"/>
</g>
<!-- Node5 -->
<g id="node5" class="node"><title>Node5</title>
<polygon fill="none" stroke="#bfbfbf" points="238.5,-0.5 238.5,-19.5 351.5,-19.5 351.5,-0.5 238.5,-0.5"/>
<text text-anchor="middle" x="295" y="-7.5" font-family="Helvetica,sans-Serif" font-size="10.00">Epetra_SerialComm.h</text>
</g>
<!-- Node1&#45;&gt;Node5 -->
<g id="edge4" class="edge"><title>Node1&#45;&gt;Node5</title>
<path fill="none" stroke="midnightblue" d="M342.003,-56.324C333.806,-48.4196 321.494,-36.5482 311.528,-26.9377"/>
<polygon fill="midnightblue" stroke="midnightblue" points="313.789,-24.2558 304.161,-19.8339 308.93,-29.2947 313.789,-24.2558"/>
</g>
<!-- Node6 -->
<g id="node6" class="node"><title>Node6</title>
<polygon fill="none" stroke="#bfbfbf" points="369.5,-0.5 369.5,-19.5 446.5,-19.5 446.5,-0.5 369.5,-0.5"/>
<text text-anchor="middle" x="408" y="-7.5" font-family="Helvetica,sans-Serif" font-size="10.00">Epetra_Map.h</text>
</g>
<!-- Node1&#45;&gt;Node6 -->
<g id="edge5" class="edge"><title>Node1&#45;&gt;Node6</title>
<path fill="none" stroke="midnightblue" d="M360.158,-56.324C368.501,-48.4196 381.032,-36.5482 391.177,-26.9377"/>
<polygon fill="midnightblue" stroke="midnightblue" points="393.823,-29.2522 398.675,-19.8339 389.009,-24.1705 393.823,-29.2522"/>
</g>
<!-- Node7 -->
<g id="node7" class="node"><title>Node7</title>
<polygon fill="none" stroke="#bfbfbf" points="464.5,-0.5 464.5,-19.5 551.5,-19.5 551.5,-0.5 464.5,-0.5"/>
<text text-anchor="middle" x="508" y="-7.5" font-family="Helvetica,sans-Serif" font-size="10.00">Epetra_Vector.h</text>
</g>
<!-- Node1&#45;&gt;Node7 -->
<g id="edge6" class="edge"><title>Node1&#45;&gt;Node7</title>
<path fill="none" stroke="midnightblue" d="M375.877,-56.4435C402.289,-47.3591 444.215,-32.9388 473.742,-22.7831"/>
<polygon fill="midnightblue" stroke="midnightblue" points="474.921,-26.0787 483.239,-19.5164 472.645,-19.4593 474.921,-26.0787"/>
</g>
<!-- Node8 -->
<g id="node8" class="node"><title>Node8</title>
<polygon fill="none" stroke="#bfbfbf" points="569.5,-0.5 569.5,-19.5 670.5,-19.5 670.5,-0.5 569.5,-0.5"/>
<text text-anchor="middle" x="620" y="-7.5" font-family="Helvetica,sans-Serif" font-size="10.00">Epetra_CrsMatrix.h</text>
</g>
<!-- Node1&#45;&gt;Node8 -->
<g id="edge7" class="edge"><title>Node1&#45;&gt;Node8</title>
<path fill="none" stroke="midnightblue" d="M393.624,-56.4435C440.747,-46.9839 516.692,-31.7384 567.459,-21.5472"/>
<polygon fill="midnightblue" stroke="midnightblue" points="568.46,-24.9162 577.576,-19.5164 567.082,-18.0531 568.46,-24.9162"/>
</g>
<!-- Node9 -->
<g id="node9" class="node"><title>Node9</title>
<polygon fill="none" stroke="#bfbfbf" points="688.5,-0.5 688.5,-19.5 775.5,-19.5 775.5,-0.5 688.5,-0.5"/>
<text text-anchor="middle" x="732" y="-7.5" font-family="Helvetica,sans-Serif" font-size="10.00">Epetra_Export.h</text>
</g>
<!-- Node1&#45;&gt;Node9 -->
<g id="edge8" class="edge"><title>Node1&#45;&gt;Node9</title>
<path fill="none" stroke="midnightblue" d="M403.622,-58.3056C466.445,-50.1962 574.945,-35.8211 678.355,-20.0562"/>
<polygon fill="midnightblue" stroke="midnightblue" points="678.99,-23.4999 688.345,-18.5264 677.93,-16.5805 678.99,-23.4999"/>
</g>
</g>
</svg>
